<svg enable-background="new 0 0 30 33.7" viewBox="0 0 30 33.7" xmlns="http://www.w3.org/2000/svg"><path d="m29.9 22.3c0 1.1-.7 2.5-1.7 3.1l-11.7 7.8c-.9.6-2.4.6-3.3 0l-11.6-7.8c-.9-.6-1.7-2-1.7-3.1v-11c0-1.1.7-2.5 1.7-3.1l11.7-7.8c.9-.6 2.4-.6 3.3 0l11.7 7.8c.9.6 1.7 2 1.7 3.1-.1 0-.1 11-.1 11z" fill="#42bfbf"/><path d="m6.8 25.9c-.3 0-.4-.2-.4-.3l-.5-2.8-2.9-.1c-.2 0-.3-.1-.4-.3s0-.3.1-.5l8.9-8.8c.1-.1.2-.1.3-.1s.2 0 .3.1l3.1 2.7c.1.1.1.2.1.3s0 .2-.1.3l-8.2 9.4c-.1.1-.2.1-.3.1z" fill="#fff"/><path d="m11.8 13.5 3.1 2.7-8.2 9.3-.6-3.2-3.3-.1zm0-.9c-.2 0-.4.1-.6.2l-8.9 8.8c-.2.2-.3.6-.2.9s.4.5.8.5l2.6.1.4 2.5c.1.3.3.6.6.7h.2c.2 0 .5-.1.6-.3l8.2-9.3c.1-.2.2-.4.2-.6s-.1-.4-.3-.6l-3-2.7c-.2-.1-.4-.2-.6-.2z" fill="#42bfbf"/><path d="m23.1 25.9c-.1 0-.2-.1-.3-.1l-8.2-9.3c-.1-.1-.1-.2-.1-.3s.1-.2.1-.3l3.1-2.7c.1-.1.2-.1.3-.1s.2 0 .3.1l8.9 8.8c.1.1.2.3.1.5s-.2.3-.4.3l-2.9-.1-.5 2.8c0 .2-.1.3-.3.3 0 .1-.1.1-.1.1z" fill="#fff"/><path d="m18 13.5 8.9 8.8-3.3.1-.6 3.2-8.2-9.3zm0-.9c-.2 0-.4.1-.6.2l-3.1 2.7c-.2.1-.3.4-.3.6s.1.5.2.6l8.2 9.3c.2.2.4.3.6.3h.2c.3-.1.6-.4.6-.7l.4-2.5 2.6-.1c.3 0 .7-.2.8-.5s0-.7-.2-.9l-8.9-8.8c0-.1-.3-.2-.5-.2z" fill="#42bfbf"/><path d="m25.2 19.8c-.2 0-.4 0-.6-.1l-5.8-2.2c-.7-.3-1.1-.9-1.1-1.6v-3.3c0-.8.5-1.4 1.2-1.6l5.8-1.8c.2-.1.3-.1.5-.1.9 0 1.7.8 1.7 1.7v7.3c0 .9-.7 1.7-1.7 1.7z" fill="#fff"/><path d="m25.2 9.4c.7 0 1.3.6 1.3 1.3v7.3c0 .7-.6 1.3-1.3 1.3-.2 0-.3 0-.5-.1l-5.7-2.2c-.5-.2-.8-.7-.8-1.2v-3.3c0-.6.4-1.1.9-1.2l5.8-1.8c.1 0 .2-.1.3-.1m0-.8c-.2 0-.4 0-.6.1l-5.8 1.8c-.9.3-1.5 1.1-1.5 2v3.3c0 .9.6 1.7 1.4 2l5.8 2.2c.2.1.5.1.8.1 1.2 0 2.1-1 2.1-2.1v-7.3c0-1.2-1-2.1-2.2-2.1z" fill="#42bfbf"/><path d="m4.6 19.3c-.9 0-1.7-.8-1.7-1.7v-7.3c0-.9.8-1.7 1.7-1.7.2 0 .4 0 .6.1l5.8 2.1c.7.3 1.1.9 1.1 1.6v3.4c0 .8-.5 1.4-1.2 1.6l-5.8 1.8c-.1 0-.3.1-.5.1z" fill="#fff"/><path d="m4.6 8.9c.2 0 .3 0 .5.1l5.8 2.2c.5.2.8.7.8 1.2v3.4c0 .6-.4 1.1-.9 1.2l-5.8 1.8c-.1 0-.2 0-.4 0-.7 0-1.3-.6-1.3-1.3v-7.3c0-.7.7-1.3 1.3-1.3m0-.8c-1.2 0-2.1 1-2.1 2.1v7.3c0 1.2 1 2.1 2.1 2.1.2 0 .4 0 .6-.1l5.8-1.8c.9-.3 1.5-1.1 1.5-2v-3.3c0-.9-.6-1.7-1.4-2l-5.7-2.2c-.2-.1-.5-.1-.8-.1z" fill="#42bfbf"/><path d="m13.4 17.8c-.8 0-1.5-.7-1.5-1.5v-4.3c0-.8.7-1.5 1.5-1.5h3c.8 0 1.5.7 1.5 1.5v4.3c0 .8-.7 1.5-1.5 1.5z" fill="#fff"/><g fill="#42bfbf"><path d="m16.4 10.9c.6 0 1.1.5 1.1 1.1v4.3c0 .6-.5 1.1-1.1 1.1h-3c-.6 0-1.1-.5-1.1-1.1v-4.3c0-.6.5-1.1 1.1-1.1zm0-.8h-3c-1.1 0-1.9.9-1.9 1.9v4.3c0 1.1.9 1.9 1.9 1.9h3c1.1 0 1.9-.9 1.9-1.9v-4.3c.1-1.1-.8-1.9-1.9-1.9z"/><path d="m14.9 1c.4 0 .8.1 1.1.3l11.7 7.8c.6.4 1.2 1.5 1.2 2.3v11c0 .8-.6 1.9-1.2 2.3l-11.7 7.7c-.3.2-.7.3-1.1.3s-.8-.1-1.1-.3l-11.7-7.8c-.6-.4-1.2-1.5-1.2-2.3v-11c0-.8.6-1.9 1.2-2.3l11.7-7.8c.3-.1.7-.2 1.1-.2m0-1c-.6 0-1.2.2-1.7.5l-11.6 7.7c-.9.6-1.7 2-1.7 3.1v11c0 1.1.7 2.5 1.7 3.1l11.7 7.8c.5.3 1.1.5 1.7.5s1.2-.2 1.7-.5l11.7-7.8c.9-.6 1.7-2 1.7-3.1v-11c0-1.1-.7-2.5-1.7-3.1l-11.8-7.8c-.5-.3-1.1-.4-1.7-.4z"/></g></svg>