<svg xmlns="http://www.w3.org/2000/svg" viewBox="0 0 30 34" enable-background="new 0 0 30 34"><path d="M30 22.499c0 1.1-.749 2.5-1.665 3.111l-11.67 7.78c-.916.61-2.414.61-3.33 0l-11.67-7.78c-.916-.611-1.665-2.01-1.665-3.111v-10.998c0-1.1.749-2.5 1.665-3.111l11.67-7.78c.916-.61 2.414-.61 3.33 0l11.67 7.78c.916.611 1.665 2.01 1.665 3.111v10.998z" fill="#C94E4B"/><path d="M20.089 18.283c-2.421-2.962-7.286-3.12-9.935-.392-1.389 1.431-2.031 3.235-.827 4.988.946 1.378 2.08 1.854 3.691 1.448.503-.126 1.02-.271 1.597-.271h.282c.554.058 1.046.267 1.508.457.302.124.611.25.935.305.709.129 1.47-.258 2.055-.627 2.224-1.405 2.304-3.939.694-5.908zm-8.758-5.059c.441.214.933.341 1.423.36 2.159 0 2.739-6.836.194-6.407-1.243.209-2.14 1.684-2.662 2.704-.703 1.377-.481 2.604 1.045 3.343zm-.617 2.195c-.114-1.248-2.205-4.053-3.684-3.016-1.508 1.143-1.328 4.326.334 5.306 1.175.692 3.231-1.136 3.35-2.29-.032-.342-.085.816 0 0zm5.974-1.655c1.205.179 3.19-.535 3.245-1.989 0-1.374-1.617-4.934-3.424-4.269-1.734.556-1.699 5.98.179 6.258zm7.3.772c-.067-.781-.414-1.508-.989-2.042-.797-.674-1.899.282-2.438.841-1.026 1.062-1.843 2.284-.705 3.542.554.613 1.655 1.493 2.556 1.131 1.186-.475 1.674-2.34 1.576-3.472z" fill="#fff"/><path d="M15 1.152c.429 0 .834.106 1.11.29l11.67 7.78c.639.426 1.22 1.512 1.22 2.279v10.998c0 .767-.581 1.853-1.219 2.279l-11.67 7.78c-.276.184-.681.29-1.11.29s-.834-.106-1.11-.29l-11.67-7.78c-.64-.426-1.221-1.512-1.221-2.279v-10.998c0-.767.581-1.853 1.219-2.279l11.67-7.78c.277-.184.682-.29 1.111-.29m0-1c-.603 0-1.207.153-1.665.458l-11.67 7.78c-.916.611-1.665 2.01-1.665 3.111v10.998c0 1.1.749 2.5 1.665 3.111l11.67 7.78c.458.305 1.061.458 1.665.458s1.207-.153 1.665-.458l11.67-7.78c.916-.611 1.665-2.01 1.665-3.111v-10.998c0-1.1-.749-2.5-1.665-3.111l-11.67-7.78c-.458-.305-1.062-.458-1.665-.458z" fill="#C94E4B"/><g><path d="M27.714 28.823l.005-.004c.726-.648 1.822-1.627 1.822-3.362 0-2.121-1.674-3.603-4.07-3.603-1.228 0-2.333.457-3.114 1.247-.407-.772-1.176-1.139-1.949-1.139-.502 0-.995.179-1.508.548l-1.746 1.276c-.6.445-.901.985-.901 1.611 0 1.052.813 1.875 1.852 1.875.179 0 .36-.027.535-.078v3.372c0 1.462 1.04 2.127 2.007 2.127.504 0 1.024-.185 1.41-.565.366.269.863.445 1.519.445h4.126c1.355 0 1.972-.972 1.972-1.875-.001-.9-.614-1.869-1.96-1.875z" fill="#C94E4B"/><path d="M19.483 23.323c.384-.276.684-.36.924-.36.432 0 1.247.18 1.247 1.415v6.189c0 .971-.684 1.127-1.008 1.127-.323 0-1.007-.156-1.007-1.127v-5.229l-.912.708c-.216.168-.443.228-.623.228-.48 0-.852-.372-.852-.875 0-.264.119-.527.491-.803l1.74-1.273zM23.575 31.574c-1.127 0-1.283-.636-1.283-.959 0-.336.084-.671.684-1.223l2.747-2.495c.42-.384.695-.792.695-1.308 0-.6-.42-1.019-1.056-1.019-.479 0-.827.251-1.043.635-.192.348-.528.66-.947.66-.54 0-.912-.408-.912-.911 0-.204.084-.444.168-.588.552-.936 1.607-1.511 2.843-1.511 1.559 0 3.07.828 3.07 2.603 0 1.211-.708 1.919-1.487 2.615l-1.967 1.751h2.614c.84 0 .972.587.972.875 0 .288-.132.875-.972.875h-4.126z" fill="#fff"/></g></svg>