<svg xmlns="http://www.w3.org/2000/svg" viewBox="0 0 30 34" enable-background="new 0 0 30 34"><path d="M30 22.499c0 1.1-.749 2.5-1.665 3.111l-11.67 7.78c-.916.61-2.414.61-3.33 0l-11.67-7.78c-.916-.611-1.665-2.01-1.665-3.111v-10.998c0-1.1.749-2.5 1.665-3.111l11.67-7.78c.916-.61 2.414-.61 3.33 0l11.67 7.78c.916.611 1.665 2.01 1.665 3.111v10.998z" fill="#C94E4B"/><g><path d="M28 15v-4h-3v-1h-1v-3h-4v1.5c0 .828-.672 1.5-1.5 1.5s-1.5-.672-1.5-1.5v-1.5h-4v1.5c0 .828-.672 1.5-1.5 1.5s-1.5-.672-1.5-1.5v-1.5h-4v3h-1v1h-3v4h1.5c.828 0 1.5.672 1.5 1.5s-.672 1.5-1.5 1.5h-1.5v4h3v1h1v3h4v-1.5c0-.828.672-1.5 1.5-1.5s1.5.672 1.5 1.5v1.5h4v-1.5c0-.828.672-1.5 1.5-1.5s1.5.672 1.5 1.5v1.5h4v-3h1v-1h3v-4h-1.5c-.828 0-1.5-.672-1.5-1.5s.672-1.5 1.5-1.5h1.5zm-4 7h-18v-11h18v11zM8 13h4v1h-4zM8 13h1v3h-1zM8 15h3v1h-3zM11 15h1v3h-1zM8 17h4v1h-4zM13 14h4v1h-4zM13 15h1v2h-1zM13 17h4v1h-4z" fill="#fff"/></g><path d="M15 1.152c.429 0 .834.106 1.11.29l11.67 7.78c.639.426 1.22 1.512 1.22 2.279v10.998c0 .767-.581 1.853-1.219 2.279l-11.67 7.78c-.276.184-.681.29-1.11.29s-.834-.106-1.11-.29l-11.67-7.78c-.64-.426-1.221-1.512-1.221-2.279v-10.998c0-.767.581-1.853 1.219-2.279l11.67-7.78c.277-.184.682-.29 1.111-.29m0-1c-.603 0-1.207.153-1.665.458l-11.67 7.78c-.916.611-1.665 2.01-1.665 3.111v10.998c0 1.1.749 2.5 1.665 3.111l11.67 7.78c.458.305 1.061.458 1.665.458s1.207-.153 1.665-.458l11.67-7.78c.916-.611 1.665-2.01 1.665-3.111v-10.998c0-1.1-.749-2.5-1.665-3.111l-11.67-7.78c-.458-.305-1.062-.458-1.665-.458z" fill="#C94E4B"/><g><path d="M25.752 21.964c-.501 0-.993.179-1.506.547l-1.746 1.277c-.6.447-.902.987-.902 1.611 0 1.052.813 1.876 1.852 1.876.179 0 .36-.027.535-.078v3.371c0 1.462 1.041 2.128 2.007 2.128.967 0 2.008-.666 2.008-2.128v-6.188c0-1.669-1.129-2.416-2.248-2.416z" fill="#C94E4B"/><path d="M24.829 23.324c.384-.275.684-.359.923-.359.432 0 1.248.18 1.248 1.415v6.188c0 .972-.684 1.128-1.008 1.128-.324 0-1.007-.156-1.007-1.128v-5.229l-.912.707c-.216.168-.443.229-.624.229-.479 0-.852-.372-.852-.876 0-.264.12-.527.492-.804l1.74-1.271z" fill="#fff"/></g></svg>