<svg width="94" height="94" viewBox="0 0 94 94" fill="none" xmlns="http://www.w3.org/2000/svg">
<path d="M75.457 31.5076C68.843 34.8578 60.7626 32.212 57.409 25.598C54.0553 18.984 56.6985 10.9065 63.3125 7.55631C69.9266 4.20614 86.1542 11.4636 86.1542 11.4636C86.1542 11.4636 82.0711 28.1574 75.457 31.5076Z" fill="#0087FF"/>
<path d="M37.1324 39.4102L32.5133 51.0576C32.1203 52.0486 31.1625 52.6993 30.0967 52.6993H6.40455C4.56845 52.6993 3.31092 50.8469 3.988 49.1396L7.40729 40.5175C7.67239 39.8491 8.31844 39.4102 9.03732 39.4102H37.1324Z" fill="#0087FF"/>
<path d="M87.596 52.6993H44.16C43.0937 52.6993 42.1355 52.0479 41.7429 51.0562L37.1323 39.4102H84.9633C85.6821 39.4102 86.3282 39.8491 86.5933 40.5175L90.0126 49.1396C90.6896 50.8469 89.4321 52.6993 87.596 52.6993Z" fill="#0087FF"/>
<path d="M77.4693 77.0554V80.8281C77.4693 81.7536 76.7262 82.497 75.801 82.497H61.9628C61.0375 82.497 60.2944 81.7536 60.2944 80.8281V77.0554C60.2944 76.1295 61.0375 75.3721 61.9628 75.3721H75.801C76.7262 75.3721 77.4693 76.1295 77.4693 77.0554Z" fill="#0087FF"/>
<path d="M87.5573 40.1356C87.1312 39.0622 86.1101 38.3739 84.9633 38.3739H58.6841L58.731 30.8088H64.1288C67.6475 30.8088 69.6297 26.7549 67.4963 23.9685L53.2077 5.25413C51.5014 3.00742 48.1364 3.0007 46.4282 5.25277L41.3247 11.9364C40.9771 12.3913 41.0648 13.042 41.5198 13.3896C41.9734 13.7366 42.6254 13.6495 42.973 13.1946L48.0785 6.50824C48.9537 5.35315 50.675 5.34724 51.558 6.51094L65.8487 25.2281C66.9459 26.6614 65.926 28.7352 64.1288 28.7352H58.731C57.5586 28.7352 56.6042 29.6896 56.6042 30.8628V38.3739H43.0297V30.8628C43.0297 29.6896 42.0753 28.7352 40.9029 28.7352H35.5051C33.7086 28.7352 32.688 26.6614 33.7852 25.2267L38.4972 19.0561C38.8448 18.6011 38.7571 17.9504 38.3022 17.6028C37.8472 17.2552 37.1966 17.3423 36.8489 17.7979L32.1376 23.9679C29.9993 26.765 31.9997 30.8088 35.5051 30.8088L40.9562 30.8627V38.3739C33.0765 38.3739 17.4861 38.3739 9.03789 38.3739C7.88705 38.3739 6.8678 39.0651 6.44325 40.1356C6.38667 40.2782 2.79912 49.3214 3.02382 48.755C2.0789 51.1379 3.83395 53.7364 6.40478 53.7364H6.80977V84.2129C6.80977 87.6378 9.59541 90.4241 13.0189 90.4241C17.1619 90.425 -1.98948 90.4206 53.5378 90.4335C54.1101 90.4335 54.5745 89.9691 54.5745 89.3968C54.5745 88.8237 54.1101 88.36 53.5378 88.36H38.1692V44.8456L40.7793 51.4374C41.3315 52.8339 42.6585 53.7364 44.1603 53.7364H85.1172V84.2224C85.1172 86.4939 83.2705 88.36 80.981 88.36H63.761C63.1886 88.36 62.7242 88.8237 62.7242 89.3968C62.7242 89.9691 63.1886 90.4335 63.761 90.4335H80.981C84.4055 90.4335 87.1908 87.6461 87.1908 84.2224V53.7364H87.5964C90.1714 53.7364 91.9192 51.1321 90.9767 48.755C90.9201 48.6124 87.3326 39.5692 87.5573 40.1356ZM36.0957 88.3499H13.0196C10.7395 88.3499 8.88397 86.4937 8.88397 84.2123V53.7364H30.0971C31.5976 53.7364 32.9246 52.8346 33.4774 51.4401L36.0957 44.8375C36.0957 44.8375 36.0956 88.3499 36.0957 88.3499ZM35.606 40.4474L31.5497 50.676C31.3121 51.2754 30.7417 51.6629 30.0971 51.6629C21.2847 51.6621 13.7777 51.6615 6.40409 51.6609C5.2984 51.6609 4.54415 50.5501 4.95222 49.5219C5.00879 49.3792 8.5963 40.3333 8.37165 40.8997C8.48032 40.6257 8.74222 40.4475 9.03785 40.4475C9.03785 40.4475 35.606 40.4475 35.606 40.4474ZM44.1603 51.6629C43.515 51.6629 42.9447 51.2754 42.7071 50.6747L38.6579 40.4474H84.9633C85.2583 40.4474 85.5202 40.6256 85.6289 40.8997C85.6855 41.0423 89.2737 50.0882 89.049 49.5218C89.4574 50.5485 88.7022 51.6608 87.5964 51.6608C33.3262 51.6633 46.1673 51.6628 44.1603 51.6629Z" fill="#00284C"/>
<path d="M75.801 83.5335C77.292 83.5335 78.5056 82.3199 78.5056 80.8276V77.0551C78.5056 75.5553 77.292 74.335 75.801 74.335H61.9626C60.4709 74.335 59.2573 75.5553 59.2573 77.0551V80.8276C59.2573 82.3199 60.4709 83.5335 61.9626 83.5335H75.801ZM61.3309 80.8276V77.0551C61.3309 76.6987 61.6143 76.4085 61.9626 76.4085H75.801C76.1493 76.4085 76.4321 76.6987 76.4321 77.0551V80.8276C76.4321 81.1819 76.1547 81.46 75.801 81.46H61.9626C61.6083 81.46 61.3309 81.1819 61.3309 80.8276Z" fill="#02166F"/>
</svg>
