<svg width="100" height="100" viewBox="0 0 100 100" fill="none" xmlns="http://www.w3.org/2000/svg">
<path d="M37.5 95.3125C37.1915 95.3125 36.8899 95.2212 36.6333 95.05L18.2724 82.8125H6.25C6.04478 82.8126 5.84154 82.7723 5.65192 82.6938C5.46229 82.6153 5.29 82.5002 5.14488 82.3551C4.99976 82.21 4.88468 82.0377 4.8062 81.8481C4.72772 81.6585 4.68738 81.4552 4.6875 81.25V37.5C4.68738 37.2948 4.72772 37.0915 4.8062 36.9019C4.88468 36.7123 4.99976 36.54 5.14488 36.3949C5.29 36.2498 5.46229 36.1347 5.65192 36.0562C5.84154 35.9777 6.04478 35.9374 6.25 35.9375H12.5C12.9144 35.9375 13.3118 36.1021 13.6049 36.3951C13.8979 36.6882 14.0625 37.0856 14.0625 37.5C14.0625 37.9144 13.8979 38.3118 13.6049 38.6049C13.3118 38.8979 12.9144 39.0625 12.5 39.0625H7.8125V79.6875H18.7454C19.0539 79.6876 19.3554 79.779 19.6121 79.95L35.936 90.8295L35.9329 81.25C35.933 80.8356 36.0977 80.4383 36.3907 80.1452C36.6837 79.8522 37.0811 79.6876 37.4954 79.6875H79.6875V59.3719C79.6875 58.9575 79.8521 58.56 80.1451 58.267C80.4382 57.974 80.8356 57.8094 81.25 57.8094C81.6644 57.8094 82.0618 57.974 82.3549 58.267C82.6479 58.56 82.8125 58.9575 82.8125 59.3719V81.25C82.8126 81.4552 82.7723 81.6585 82.6938 81.8481C82.6153 82.0377 82.5002 82.21 82.3551 82.3551C82.21 82.5002 82.0377 82.6153 81.8481 82.6938C81.6585 82.7723 81.4552 82.8126 81.25 82.8125H39.0579L39.0625 93.75C39.0625 94.0327 38.9858 94.3101 38.8404 94.5525C38.695 94.7949 38.4864 94.9933 38.237 95.1263C38.0107 95.249 37.7574 95.313 37.5 95.3125Z" fill="#00284C"/>
<path d="M62.5 64.0625C62.2426 64.063 61.9893 63.999 61.763 63.8763C61.5136 63.7433 61.305 63.5449 61.1596 63.3025C61.0142 63.0601 60.9375 62.7827 60.9375 62.5V51.5625H18.75C18.5448 51.5626 18.3415 51.5223 18.1519 51.4438C17.9623 51.3653 17.79 51.2502 17.6449 51.1051C17.4998 50.96 17.3847 50.7877 17.3062 50.5981C17.2277 50.4085 17.1874 50.2052 17.1875 50V6.25C17.1874 6.04478 17.2277 5.84154 17.3062 5.65192C17.3847 5.46229 17.4998 5.29 17.6449 5.14488C17.79 4.99976 17.9623 4.88468 18.1519 4.8062C18.3415 4.72772 18.5448 4.68738 18.75 4.6875H93.75C93.9552 4.68738 94.1585 4.72772 94.3481 4.8062C94.5377 4.88468 94.71 4.99976 94.8551 5.14488C95.0002 5.29 95.1153 5.46229 95.1938 5.65192C95.2723 5.84154 95.3126 6.04478 95.3125 6.25V31.25C95.3125 31.6644 95.1479 32.0618 94.8549 32.3549C94.5618 32.6479 94.1644 32.8125 93.75 32.8125C93.3356 32.8125 92.9382 32.6479 92.6451 32.3549C92.3521 32.0618 92.1875 31.6644 92.1875 31.25V7.8125H20.3125V48.4375H62.5C62.7052 48.4374 62.9085 48.4777 63.0981 48.5562C63.2877 48.6347 63.46 48.7498 63.6051 48.8949C63.7502 49.04 63.8653 49.2123 63.9438 49.4019C64.0223 49.5915 64.0626 49.7948 64.0625 50V59.5795L80.3833 48.7C80.64 48.529 80.9415 48.4376 81.25 48.4375H92.1875V43.75C92.1875 43.3356 92.3521 42.9382 92.6451 42.6451C92.9382 42.3521 93.3356 42.1875 93.75 42.1875C94.1644 42.1875 94.5618 42.3521 94.8549 42.6451C95.1479 42.9382 95.3125 43.3356 95.3125 43.75V50C95.3126 50.2052 95.2723 50.4085 95.1938 50.5981C95.1153 50.7877 95.0002 50.96 94.8551 51.1051C94.71 51.2502 94.5377 51.3653 94.3481 51.4438C94.1585 51.5223 93.9552 51.5626 93.75 51.5625H81.723L63.3668 63.8C63.1101 63.9712 62.8085 64.0625 62.5 64.0625Z" fill="#00284C"/>
<path d="M53.125 64.0625H15.625C15.2106 64.0625 14.8132 63.8979 14.5201 63.6049C14.2271 63.3118 14.0625 62.9144 14.0625 62.5C14.0625 62.0856 14.2271 61.6882 14.5201 61.3951C14.8132 61.1021 15.2106 60.9375 15.625 60.9375H53.125C53.5394 60.9375 53.9368 61.1021 54.2299 61.3951C54.5229 61.6882 54.6875 62.0856 54.6875 62.5C54.6875 62.9144 54.5229 63.3118 54.2299 63.6049C53.9368 63.8979 53.5394 64.0625 53.125 64.0625Z" fill="#0087FF"/>
<path d="M71.875 73.4375H15.625C15.2106 73.4375 14.8132 73.2729 14.5201 72.9799C14.2271 72.6868 14.0625 72.2894 14.0625 71.875C14.0625 71.4606 14.2271 71.0632 14.5201 70.7701C14.8132 70.4771 15.2106 70.3125 15.625 70.3125H71.875C72.2894 70.3125 72.6868 70.4771 72.9799 70.7701C73.2729 71.0632 73.4375 71.4606 73.4375 71.875C73.4375 72.2894 73.2729 72.6868 72.9799 72.9799C72.6868 73.2729 72.2894 73.4375 71.875 73.4375Z" fill="#0087FF"/>
<path d="M45.9063 27.594C47.0661 26.53 47.8775 25.1407 48.2342 23.6078C48.591 22.0749 48.4764 20.47 47.9056 19.0033C47.3348 17.5367 46.3343 16.2766 45.0352 15.3882C43.7361 14.4998 42.1989 14.0244 40.6251 14.0244C39.0512 14.0244 37.5141 14.4998 36.215 15.3882C34.9159 16.2766 33.9154 17.5367 33.3445 19.0033C32.7737 20.47 32.6592 22.0749 33.0159 23.6078C33.3727 25.1407 34.1841 26.53 35.3438 27.594C32.7543 28.6525 30.5374 30.456 28.9741 32.7759C27.4108 35.0959 26.5715 37.8277 26.5626 40.6252C26.5605 40.831 26.5996 41.0351 26.6774 41.2255C26.7552 41.416 26.8702 41.5891 27.0157 41.7346C27.1612 41.8801 27.3343 41.9951 27.5247 42.0729C27.7152 42.1507 27.9193 42.1897 28.1251 42.1877H53.1251C53.3308 42.1897 53.5349 42.1507 53.7254 42.0729C53.9159 41.9951 54.089 41.8801 54.2345 41.7346C54.38 41.5891 54.495 41.416 54.5728 41.2255C54.6506 41.0351 54.6896 40.831 54.6876 40.6252C54.6787 37.8277 53.8394 35.0959 52.276 32.7759C50.7127 30.456 48.4958 28.6525 45.9063 27.594ZM40.6251 17.1877C41.5522 17.1877 42.4585 17.4626 43.2293 17.9777C44.0002 18.4928 44.601 19.2249 44.9558 20.0814C45.3105 20.9379 45.4034 21.8804 45.2225 22.7897C45.0416 23.699 44.5952 24.5342 43.9396 25.1898C43.2841 25.8453 42.4488 26.2918 41.5396 26.4726C40.6303 26.6535 39.6878 26.5607 38.8312 26.2059C37.9747 25.8511 37.2426 25.2503 36.7276 24.4794C36.2125 23.7086 35.9376 22.8023 35.9376 21.8752C35.9368 21.2594 36.0574 20.6495 36.2927 20.0804C36.528 19.5113 36.8732 18.9942 37.3087 18.5588C37.7441 18.1234 38.2612 17.7781 38.8303 17.5428C39.3994 17.3076 40.0093 17.1869 40.6251 17.1877Z" fill="#0087FF"/>
<path d="M84.375 20.3125H62.5C62.0856 20.3125 61.6882 20.1479 61.3951 19.8549C61.1021 19.5618 60.9375 19.1644 60.9375 18.75C60.9375 18.3356 61.1021 17.9382 61.3951 17.6451C61.6882 17.3521 62.0856 17.1875 62.5 17.1875H84.375C84.7894 17.1875 85.1868 17.3521 85.4799 17.6451C85.7729 17.9382 85.9375 18.3356 85.9375 18.75C85.9375 19.1644 85.7729 19.5618 85.4799 19.8549C85.1868 20.1479 84.7894 20.3125 84.375 20.3125Z" fill="#0087FF"/>
<path d="M84.375 29.6875H62.5C62.0856 29.6875 61.6882 29.5229 61.3951 29.2299C61.1021 28.9368 60.9375 28.5394 60.9375 28.125C60.9375 27.7106 61.1021 27.3132 61.3951 27.0201C61.6882 26.7271 62.0856 26.5625 62.5 26.5625H84.375C84.7894 26.5625 85.1868 26.7271 85.4799 27.0201C85.7729 27.3132 85.9375 27.7106 85.9375 28.125C85.9375 28.5394 85.7729 28.9368 85.4799 29.2299C85.1868 29.5229 84.7894 29.6875 84.375 29.6875Z" fill="#0087FF"/>
<path d="M71.875 39.0625H62.5C62.0856 39.0625 61.6882 38.8979 61.3951 38.6049C61.1021 38.3118 60.9375 37.9144 60.9375 37.5C60.9375 37.0856 61.1021 36.6882 61.3951 36.3951C61.6882 36.1021 62.0856 35.9375 62.5 35.9375H71.875C72.2894 35.9375 72.6868 36.1021 72.9799 36.3951C73.2729 36.6882 73.4375 37.0856 73.4375 37.5C73.4375 37.9144 73.2729 38.3118 72.9799 38.6049C72.6868 38.8979 72.2894 39.0625 71.875 39.0625Z" fill="#0087FF"/>
<path d="M93.75 39.0625C94.6129 39.0625 95.3125 38.3629 95.3125 37.5C95.3125 36.6371 94.6129 35.9375 93.75 35.9375C92.8871 35.9375 92.1875 36.6371 92.1875 37.5C92.1875 38.3629 92.8871 39.0625 93.75 39.0625Z" fill="#00284C"/>
</svg>
