<svg width="40" height="40" viewBox="0 0 40 40" fill="none" xmlns="http://www.w3.org/2000/svg">
<g clip-path="url(#clip0_61_7412)">
<path fill-rule="evenodd" clip-rule="evenodd" d="M11.5795 29.1968C11.0226 29.1968 10.3359 29.3238 10.3359 28.7505C10.3359 28.1772 11.0225 28.3039 11.5795 28.3039C12.6639 28.3039 13.525 27.4109 13.525 26.3584C13.525 25.3732 13.3338 24.4131 13.9714 24.4131C14.617 24.4131 14.4078 25.3722 14.4179 26.3584C14.4499 27.9212 13.1742 29.1968 11.5795 29.1968Z" fill="#002645"/>
<path fill-rule="evenodd" clip-rule="evenodd" d="M27.8446 25.0827C27.2527 25.0827 27.8446 24.7817 27.8446 24.1898V14.4944C27.8446 13.9025 27.2527 13.6016 27.8446 13.6016C31.002 13.6016 33.5853 16.1849 33.5853 19.3423C33.5853 22.5312 31.002 25.0827 27.8446 25.0827Z" fill="#002645"/>
<path fill-rule="evenodd" clip-rule="evenodd" d="M4.18048 22.3087H2.71346C1.66103 22.3087 0.768066 21.4476 0.768066 20.3633V18.0351C0.768066 16.9826 1.62914 16.0897 2.71346 16.0897C3.6806 16.0897 4.62687 15.901 4.62687 16.5361V21.8302C4.62705 22.1174 4.4357 22.3087 4.18048 22.3087Z" fill="#FD3018"/>
<path fill-rule="evenodd" clip-rule="evenodd" d="M23.4756 30.6005C23.3481 30.6005 23.1886 30.5368 23.0929 30.4092C20.733 27.1881 16.9377 25.2426 12.9512 25.2108C12.4502 25.2089 12.3589 24.4939 12.7586 24.3227V14.0914C12.4036 13.9004 12.4908 13.2518 12.9831 13.2192C16.9696 13.1873 20.733 11.2101 23.1248 7.98896C23.5153 7.49287 24.2075 8.08472 23.8584 8.5312C23.8214 8.58171 23.7839 8.63185 23.7462 8.68172V29.7284C23.7731 29.764 23.8 29.7995 23.8265 29.8352C24.074 30.1501 23.7528 30.6005 23.4756 30.6005Z" fill="#DDDAEC"/>
<path fill-rule="evenodd" clip-rule="evenodd" d="M11.0374 35.2568H8.03947C7.30596 35.0973 5.90272 34.1725 5.93462 31.8763V24.7642C5.93462 24.2504 6.60714 24.1827 6.78476 24.5608H10.4684C10.5505 24.3897 10.7125 24.3343 10.8739 24.3371C11.1387 24.3416 11.4037 24.5299 11.3244 24.86C11.0374 26.1038 10.7503 28.6552 11.9941 31.4936C12.4725 32.3865 12.8872 34.2682 11.2287 35.1931C11.1968 35.2249 11.1012 35.2568 11.0374 35.2568Z" fill="#FD3018"/>
<path fill-rule="evenodd" clip-rule="evenodd" d="M12.9828 25.2102H6.25333C4.85019 25.2102 3.73389 24.0621 3.73389 22.6908V15.7382C3.73389 14.335 4.88199 13.2188 6.25333 13.2188L12.9828 13.2187L13.4291 13.207V25.2233L12.9828 25.2102Z" fill="#002645"/>
<path fill-rule="evenodd" clip-rule="evenodd" d="M25.7717 33.7897H25.5165C24.1133 33.7897 22.9971 32.6735 22.9971 31.2702V7.41468C22.9971 4.05728 28.2911 4.05692 28.2911 7.41459V31.2382C28.2912 32.6416 27.175 33.7897 25.7717 33.7897Z" fill="#FD3018"/>
<path fill-rule="evenodd" clip-rule="evenodd" d="M11.1014 16.6313H6.31742C5.72557 16.6313 5.72557 15.7385 6.31742 15.7385L11.1014 15.7383C11.6935 15.7383 11.6934 16.6313 11.1014 16.6313Z" fill="#DDDAEC"/>
<path fill-rule="evenodd" clip-rule="evenodd" d="M11.1014 19.6615H6.31742C5.72557 19.6615 5.72557 18.7686 6.31742 18.7686L11.1014 18.7686C11.6935 18.7686 11.6934 19.6615 11.1014 19.6615Z" fill="#DDDAEC"/>
<path fill-rule="evenodd" clip-rule="evenodd" d="M11.1014 22.6908H6.31742C5.72557 22.6908 5.72557 21.7979 6.31742 21.7979L11.1014 21.7979C11.6935 21.7979 11.6934 22.6908 11.1014 22.6908Z" fill="#DDDAEC"/>
<path fill-rule="evenodd" clip-rule="evenodd" d="M31.7031 11.6249C31.3973 11.6249 31.1213 11.2698 31.3204 10.9232L32.8512 8.27605C33.147 7.76153 33.963 8.20739 33.6485 8.75451L32.1177 11.4016C32.0219 11.5611 31.8624 11.6249 31.7031 11.6249Z" fill="#FD3018"/>
<path fill-rule="evenodd" clip-rule="evenodd" d="M35.1798 15.1015C34.7212 15.1015 34.5618 14.4674 34.9566 14.2404L37.6037 12.7096C38.1506 12.3952 38.5969 13.2109 38.0822 13.507C37.6597 13.75 35.4841 15.1015 35.1798 15.1015Z" fill="#FD3018"/>
<path fill-rule="evenodd" clip-rule="evenodd" d="M39.4851 19.8217H36.4234C35.8315 19.8217 35.8315 18.9288 36.4234 18.9288L39.4851 18.9287C40.0773 18.9287 40.0772 19.8217 39.4851 19.8217Z" fill="#FD3018"/>
<path fill-rule="evenodd" clip-rule="evenodd" d="M37.8266 26.0399C37.5882 26.0399 35.338 24.6649 34.9562 24.4454C34.4417 24.1496 34.8875 23.3336 35.4347 23.6481L38.0818 25.1788C38.4845 25.4103 38.3138 26.0399 37.8266 26.0399Z" fill="#FD3018"/>
<path fill-rule="evenodd" clip-rule="evenodd" d="M33.2344 30.6327C33.0749 30.6327 32.9155 30.537 32.8517 30.4094L31.3209 27.7623C31.0065 27.2154 31.8222 26.7693 32.1183 27.2839L33.6491 29.9311C33.8425 30.2676 33.5942 30.6327 33.2344 30.6327Z" fill="#FD3018"/>
</g>
<defs>
<clipPath id="clip0_61_7412">
<rect width="39.1637" height="39.1637" fill="white" transform="translate(0.76709 0.495117)"/>
</clipPath>
</defs>
</svg>
