<svg width="39" height="39" viewBox="0 0 39 39" fill="none" xmlns="http://www.w3.org/2000/svg">
<g clip-path="url(#clip0_61_7400)">
<path d="M19.4341 38.8048C29.9785 38.8048 38.5265 30.2568 38.5265 19.7124C38.5265 9.16804 29.9785 0.620117 19.4341 0.620117C8.88972 0.620117 0.341797 9.16804 0.341797 19.7124C0.341797 30.2568 8.88972 38.8048 19.4341 38.8048Z" fill="#54C0EB"/>
<path d="M19.434 34.032C11.5584 34.032 5.11475 27.5884 5.11475 19.7128C5.11475 11.8372 11.5584 5.39355 19.434 5.39355C27.3096 5.39355 33.7532 11.8372 33.7532 19.7128C33.7532 27.5884 27.3096 34.032 19.434 34.032Z" fill="#F2F2F2"/>
<path d="M19.4343 29.2583C14.184 29.2583 9.88818 24.9626 9.88818 19.7122C9.88818 14.4618 14.184 10.166 19.4343 10.166C24.6847 10.166 28.9805 14.4618 28.9805 19.7122C28.9805 24.9626 24.6847 29.2583 19.4343 29.2583Z" fill="#FF7058"/>
<path d="M19.4342 24.4856C16.809 24.4856 14.6611 22.3377 14.6611 19.7125C14.6611 17.0873 16.809 14.9395 19.4342 14.9395C22.0594 14.9395 24.2073 17.0873 24.2073 19.7125C24.2073 22.3377 22.0594 24.4856 19.4342 24.4856Z" fill="#CDD6E0"/>
<path d="M19.4342 24.4856C16.809 24.4856 14.6611 22.3377 14.6611 19.7125C14.6611 17.0873 16.809 14.9395 19.4342 14.9395C22.0594 14.9395 24.2073 17.0873 24.2073 19.7125C24.2073 22.3377 22.0594 24.4856 19.4342 24.4856Z" fill="#FFD15C"/>
<path opacity="0.2" d="M38.3671 22.0992C38.0489 24.4857 37.3329 26.7132 36.2192 28.7815L35.1851 28.3838L33.8327 25.5199L19.5135 20.3491C18.8771 20.1104 18.5588 19.3945 18.7975 18.7581C19.0361 18.1217 19.7521 17.8035 20.3885 18.0421L34.7077 23.2129L37.5716 21.8606L38.3671 22.0992Z" fill="#334A5E"/>
<path d="M32.4804 8.33618L20.7864 20.0302C20.3091 20.5075 19.5135 20.5075 19.0362 20.0302C18.5589 19.5529 18.5589 18.7574 19.0362 18.2801L30.8098 6.6656C31.2871 6.18829 32.0827 6.18829 32.56 6.6656C32.9577 7.14291 32.9577 7.85887 32.4804 8.33618Z" fill="#40596B"/>
<path d="M33.5944 5.55228L29.8555 9.29124V4.35901L33.5944 0.620117V5.55228Z" fill="#FF7058"/>
<path d="M34.7877 9.2917L38.5266 5.55273H33.5944L29.8555 9.2917H34.7877Z" fill="#F1543F"/>
</g>
<defs>
<clipPath id="clip0_61_7400">
<rect width="38.1847" height="38.1847" fill="white" transform="translate(0.341797 0.620117)"/>
</clipPath>
</defs>
</svg>
