<svg width="39" height="56" viewBox="0 0 39 56" fill="none" xmlns="http://www.w3.org/2000/svg">
<path fill-rule="evenodd" clip-rule="evenodd" d="M0.513672 0.213867H31.5511L38.2848 6.94748V49.4041H0.513672V0.213867Z" fill="#0087FF"/>
<path fill-rule="evenodd" clip-rule="evenodd" d="M31.5511 0.213867L38.2848 6.94748H31.5511V0.213867Z" fill="#0A6BC1"/>
<path fill-rule="evenodd" clip-rule="evenodd" d="M5.35925 40.0205C4.95148 40.0205 4.62097 39.69 4.62097 39.2822C4.62097 38.8745 4.95148 38.544 5.35925 38.544H33.4393C33.8471 38.544 34.1776 38.8745 34.1776 39.2822C34.1776 39.69 33.8471 40.0205 33.4393 40.0205H5.35925ZM5.35925 26.0365C4.95148 26.0365 4.62097 25.706 4.62097 25.2982C4.62097 24.8904 4.95148 24.5599 5.35925 24.5599H33.4393C33.8471 24.5599 34.1776 24.8904 34.1776 25.2982C34.1776 25.706 33.8471 26.0365 33.4393 26.0365H5.35925ZM5.35925 21.3751C4.95148 21.3751 4.62097 21.0446 4.62097 20.6368C4.62097 20.229 4.95148 19.8985 5.35925 19.8985H33.4393C33.8471 19.8985 34.1776 20.229 34.1776 20.6368C34.1776 21.0446 33.8471 21.3751 33.4393 21.3751H5.35925ZM5.35925 16.7137C4.95148 16.7137 4.62097 16.3832 4.62097 15.9754C4.62097 15.5677 4.95148 15.2372 5.35925 15.2372H33.4393C33.8471 15.2372 34.1776 15.5677 34.1776 15.9754C34.1776 16.3832 33.8471 16.7137 33.4393 16.7137H5.35925ZM5.35925 35.3591C4.95148 35.3591 4.62097 35.0286 4.62097 34.6208C4.62097 34.2131 4.95148 33.8826 5.35925 33.8826H33.4393C33.8471 33.8826 34.1776 34.2131 34.1776 34.6208C34.1776 35.0286 33.8471 35.3591 33.4393 35.3591H5.35925ZM5.35925 30.6977C4.95148 30.6977 4.62097 30.3672 4.62097 29.9595C4.62097 29.5517 4.95148 29.2212 5.35925 29.2212H33.4393C33.8471 29.2212 34.1776 29.5517 34.1776 29.9595C34.1776 30.3672 33.8471 30.6977 33.4393 30.6977H5.35925ZM5.35925 44.6819C4.95148 44.6819 4.62097 44.3514 4.62097 43.9436C4.62097 43.5358 4.95148 43.2053 5.35925 43.2053H33.4393C33.8471 43.2053 34.1776 43.5358 34.1776 43.9436C34.1776 44.3514 33.8471 44.6819 33.4393 44.6819H5.35925Z" fill="white"/>
<path d="M5.35938 6.65234H16.4218V11.3137H5.35938V6.65234Z" fill="#FFB725"/>
<path fill-rule="evenodd" clip-rule="evenodd" d="M19.4008 35.4437C22.4213 35.4437 24.8849 32.9802 24.8849 29.9597C24.8849 26.9391 22.4214 24.4756 19.4008 24.4756C16.3803 24.4756 13.9167 26.9391 13.9167 29.9597C13.9167 32.9802 16.3803 35.4437 19.4008 35.4437Z" fill="#E9A00C"/>
<path fill-rule="evenodd" clip-rule="evenodd" d="M18.7317 35.403C16.0185 35.073 13.9167 32.7619 13.9167 29.9597C13.9167 27.1574 16.0186 24.8463 18.7317 24.5163C21.4449 24.8463 23.5466 27.1574 23.5466 29.9597C23.5466 32.7619 21.4448 35.073 18.7317 35.403Z" fill="#FFB725"/>
<path fill-rule="evenodd" clip-rule="evenodd" d="M15.7546 37.7681C16.81 37.7681 17.6735 38.6315 17.6735 39.6869V30.6176C17.6735 29.6717 18.4474 28.8979 19.3932 28.8979C20.3391 28.8979 21.1129 29.6719 21.1129 30.6176V37.8203C21.1129 36.9551 21.8207 36.2474 22.6858 36.2474C23.551 36.2474 24.2587 36.9551 24.2587 37.8203V38.336C24.2587 37.5059 24.938 36.8267 25.7682 36.8267C26.5984 36.8267 27.2776 37.5058 27.2776 38.336V39.5737C27.2776 38.7697 27.9354 38.112 28.7394 38.112C29.5434 38.112 30.201 38.7697 30.201 39.5737V47.2732C30.201 49.3472 28.7945 53.5863 26.7205 53.5863L17.7878 53.2668V52.652C17.7878 51.5508 17.368 50.6031 16.5526 49.8631L15.0713 48.5193C14.2558 47.7794 13.8359 46.8316 13.8359 45.7305V39.6869C13.8359 38.6315 14.6994 37.7681 15.7547 37.7681H15.7546Z" fill="#F2C496"/>
<path fill-rule="evenodd" clip-rule="evenodd" d="M17.5725 39.0741C17.638 39.2668 17.6734 39.4729 17.6734 39.6869V30.6176C17.6734 29.6717 18.4473 28.8979 19.3931 28.8979C20.339 28.8979 21.1128 29.6719 21.1128 30.6176V37.8203C21.1128 36.9552 21.8206 36.2475 22.6857 36.2474C23.5509 36.2474 24.2586 36.9551 24.2586 37.8203V38.3361C24.2586 37.506 24.9379 36.8268 25.7679 36.8268C26.598 36.8268 27.2774 37.5059 27.2774 38.3361V39.5738C27.2774 38.7698 27.9352 38.1121 28.7392 38.1121C29.5431 38.1121 30.2008 38.7698 30.2008 39.5738V47.2733C30.2008 49.3473 28.7943 53.5864 26.7203 53.5864L19.0459 53.3119V52.0879C19.0459 50.9868 18.6261 50.0389 17.8105 49.2991L16.3293 47.9553C15.5137 47.2154 15.0939 46.2676 15.0939 45.1664V39.4835C15.0939 38.8555 15.5398 38.3298 16.1595 38.2274C16.7791 38.125 17.3704 38.4793 17.5724 39.0741H17.5725Z" fill="#FDD7AD"/>
<path d="M29.2336 52.1445H17.7865C17.4157 52.1445 17.1152 52.445 17.1152 52.8158V55.0988C17.1152 55.4695 17.4157 55.77 17.7865 55.77H29.2336C29.6043 55.77 29.9048 55.4695 29.9048 55.0988V52.8158C29.9048 52.445 29.6043 52.1445 29.2336 52.1445Z" fill="#E9A00C"/>
<path d="M17.7865 52.1445H26.8038C27.1743 52.1445 27.4752 52.4454 27.4752 52.8159V55.0988C27.4752 55.4693 27.1744 55.77 26.8039 55.77H17.7865C17.416 55.77 17.1152 55.4693 17.1152 55.0988V52.8158C17.1152 52.4453 17.416 52.1445 17.7865 52.1445Z" fill="#FFB725"/>
<path fill-rule="evenodd" clip-rule="evenodd" d="M18.9302 28.9609V42.9466C18.9302 43.2925 18.647 43.5756 18.301 43.5756C17.955 43.5756 17.6719 43.2926 17.6719 42.9466V30.6173C17.6719 29.8311 18.2065 29.164 18.9302 28.9609Z" fill="#F2C496"/>
<path fill-rule="evenodd" clip-rule="evenodd" d="M22.3695 36.279V39.904C22.3695 40.25 22.0864 40.5331 21.7404 40.5331C21.3944 40.5331 21.1113 40.2501 21.1113 39.904V37.8201C21.1113 37.0627 21.6539 36.4258 22.3695 36.279Z" fill="#F2C496"/>
<path fill-rule="evenodd" clip-rule="evenodd" d="M25.5155 36.8476V40.0396C25.5155 40.3856 25.2323 40.6687 24.8863 40.6687C24.5403 40.6687 24.2572 40.3856 24.2572 40.0396V38.3359C24.2572 37.5912 24.8038 36.9682 25.5155 36.8476Z" fill="#F2C496"/>
<path fill-rule="evenodd" clip-rule="evenodd" d="M28.5342 38.1261V40.7907C28.5342 41.1366 28.2511 41.4198 27.9051 41.4198C27.5591 41.4198 27.2759 41.1367 27.2759 40.7907V39.5734C27.2759 38.8384 27.8256 38.2258 28.5342 38.126V38.1261Z" fill="#F2C496"/>
<path d="M15.1562 6.65234H16.4226V11.3137H15.1562V6.65234Z" fill="#2A92FA"/>
<path d="M37.0156 6.94727H38.2863V49.4039H37.0156V6.94727Z" fill="#0A6BC1"/>
</svg>
