<svg width="54" height="54" viewBox="0 0 54 54" fill="none" xmlns="http://www.w3.org/2000/svg">
<g clip-path="url(#clip0_1_1374)">
<path d="M25.7161 38.3464L21.2437 42.8188L32.4246 53.9998L36.897 49.5274L25.7161 38.3464Z" fill="#0087FF"/>
<path d="M1.11795 40.5831L12.299 51.7641L17.8894 46.1736L6.70845 34.9926L1.11795 40.5831Z" fill="#0E83EB"/>
<path d="M12.2996 51.764L17.8901 46.1735L12.2996 40.583L6.70908 46.1735L12.2996 51.764Z" fill="#1168B6"/>
<path d="M3.35436 33.8744L19.0078 49.5278L34.6611 33.8744L19.0077 18.221L3.35436 33.8744Z" fill="#2698FD"/>
<path d="M19.0083 49.5275L34.6617 33.8741L26.835 26.0474L11.1816 41.7008L19.0083 49.5275Z" fill="#0087FF"/>
<path d="M23.3109 4.9725L47.9093 29.571L32.4251 36.1103L16.7716 20.4567L23.3109 4.9725Z" fill="#FFF5F5"/>
<path d="M35.6102 17.2718L47.9093 29.571L32.4251 36.1103L24.5984 28.2835L35.6102 17.2718Z" fill="#EFE2DD"/>
<path d="M41.2007 11.6812C43.0567 13.5372 43.0568 16.5337 41.2007 18.3899L38.9645 20.6261L32.2558 13.9174L34.492 11.6812C36.3481 9.82514 39.3445 9.82514 41.2007 11.6812Z" fill="#EFE2DD"/>
<path d="M42.3192 8.32719L44.5554 10.5634L49.0278 6.09099L46.7916 3.85479L42.3192 8.32719Z" fill="#FFD396"/>
<path d="M51.8822 12.4188L45.1735 14.6548L46.1735 17.6554L52.8823 15.4194L51.8822 12.4188Z" fill="#FFB725"/>
<path d="M40.4653 0.999105L37.4648 -0.000976562L35.2288 6.7078L38.2293 7.70788L40.4653 0.999105Z" fill="#FFB725"/>
<path d="M35.6102 17.2718L41.2007 11.6812C43.0567 13.5372 43.0568 16.5337 41.2007 18.3899L38.9645 20.6261L35.6102 17.2718Z" fill="#CDBFBA"/>
<path d="M43.4373 9.44535L44.5554 10.5634L49.0278 6.09105L47.9097 4.97295L43.4373 9.44535Z" fill="#FFB725"/>
<path d="M19.9569 3.85489L49.0275 32.9255L51.2637 30.6893L22.1931 1.61869L19.9569 3.85489Z" fill="#2698FD"/>
<path d="M34.4922 18.3903L49.0275 32.9256L51.2637 30.6894L36.7284 16.1541L34.4922 18.3903Z" fill="#0087FF"/>
</g>
<defs>
<clipPath id="clip0_1_1374">
<rect width="54" height="54" fill="white"/>
</clipPath>
</defs>
</svg>
