<svg width="61" height="60" viewBox="0 0 61 60" fill="none" xmlns="http://www.w3.org/2000/svg">
<path d="M4.90906 0H47.0078C49.3327 0 51.2176 1.85251 51.2176 4.13738V37.2368C51.2176 39.5216 49.3327 41.3741 47.0078 41.3741H4.90906C2.58417 41.3741 0.699219 39.5216 0.699219 37.2368V4.13738C0.699219 1.85251 2.58309 0 4.90906 0Z" fill="#121EA5"/>
<path d="M3.85547 3.10352H5.96039V5.1722H3.85547V3.10352ZM8.06543 3.10352H10.1703V5.1722H8.06543V3.10352ZM12.2753 3.10352H14.3802V5.1722H12.2753V3.10352ZM11.2229 8.2753H53.3216C55.6465 8.2753 57.5314 10.1278 57.5314 12.4127V45.5121C57.5314 47.7969 55.6465 49.6494 53.3216 49.6494H11.2229C8.89797 49.6494 7.01303 47.7969 7.01303 45.5121V12.4127C7.01291 10.1278 8.8969 8.2753 11.2229 8.2753Z" fill="#0087FF"/>
<path d="M53.3229 8.27441H48.3226C40.7796 31.8774 26.3355 43.8065 16.3359 49.6486H53.3229C55.6478 49.6486 57.5327 47.796 57.5327 45.5112V12.4118C57.5327 10.1269 55.6478 8.27441 53.3229 8.27441Z" fill="#323FD4"/>
<path d="M10.1719 11.3779H12.2768V13.4466H10.1719V11.3779ZM14.3817 11.3779H16.4866V13.4466H14.3817V11.3779ZM18.5917 11.3779H20.6966V13.4466H18.5917V11.3779Z" fill="white"/>
<path d="M10.1719 41.3734H54.3757V43.4421H10.1719V41.3734ZM12.2768 33.0987H14.3817V39.3049H12.2768V33.0987ZM16.4866 26.8925H18.5916V39.3048H16.4866V26.8925ZM20.6966 29.9956H22.8015V39.3048H20.6966V29.9956ZM24.9064 22.7551H27.0113V39.3048H24.9064V22.7551ZM29.1164 20.6864H31.2213V39.3049H29.1164V20.6864ZM33.3262 21.7207H35.4311V28.9612H33.3262V21.7207ZM37.5361 17.5833H39.641V28.9612H37.5361V17.5833ZM41.746 15.5146H43.8509V28.9613H41.746V15.5146ZM45.9559 19.652H48.0608V39.3048H45.9559V19.652ZM50.1657 23.7894H52.2706V39.3048H50.1657V23.7894Z" fill="white"/>
<path d="M60.6992 56.8965L57.5416 59.9998L44.9115 47.5875L48.0691 44.4842L60.6992 56.8965Z" fill="#FDB62F"/>
<path d="M52.2734 48.6182L49.1159 51.7215L44.9058 47.5841L48.0634 44.4808L52.2734 48.6182Z" fill="#FA962A"/>
<path d="M38.5884 52.7517C46.1448 52.7517 52.2706 46.7314 52.2706 39.3051C52.2706 31.8787 46.1448 25.8584 38.5884 25.8584C31.032 25.8584 24.9062 31.8787 24.9062 39.3051C24.9062 46.7314 31.032 52.7517 38.5884 52.7517Z" fill="#FDB62F"/>
<path d="M38.5894 48.6144C43.8207 48.6144 48.0616 44.4466 48.0616 39.3053C48.0616 34.1639 43.8207 29.9961 38.5894 29.9961C33.358 29.9961 29.1172 34.1639 29.1172 39.3053C29.1172 44.4466 33.358 48.6144 38.5894 48.6144Z" fill="#323FD4"/>
<path d="M29.3603 41.3741C29.5264 42.0909 29.7794 42.7854 30.1139 43.4428H47.065C47.3994 42.7854 47.6524 42.0908 47.8186 41.3741H29.3603ZM39.6418 39.3055V30.0573C38.9426 29.9757 38.236 29.9757 37.5369 30.0573V39.3055H39.6418ZM35.432 39.3055V30.5373C34.6894 30.7926 33.9822 31.1384 33.327 31.5664V39.3055H35.432ZM43.8517 39.3055V31.5664C43.1966 31.1383 42.4894 30.7926 41.7468 30.5373V39.3055H43.8517ZM31.2221 33.4604C29.8582 35.1134 29.115 37.1774 29.1172 39.3056H31.2221V33.4604ZM45.9567 39.3055H48.0616C48.0637 37.1773 47.3205 35.1133 45.9567 33.4603V39.3055Z" fill="white" fill-opacity="0.4"/>
</svg>
