<svg width="60" height="60" viewBox="0 0 60 60" fill="none" xmlns="http://www.w3.org/2000/svg">
<g clip-path="url(#clip0_220_6235)">
<path d="M21.5859 48.916H40.6325V58.2164H21.5861L21.5859 48.916Z" fill="#0860CA"/>
<path d="M51.1962 5.125H8.77123C3.92671 5.125 0 9.05218 0 13.8967V42.8909C0 47.7355 3.92671 51.6622 8.77123 51.6622H51.1962C56.0407 51.6622 59.9678 47.7355 59.9678 42.8909V13.8967C59.9678 9.05265 56.0407 5.125 51.1962 5.125Z" fill="#0087FF"/>
<path d="M11.798 51.6627H8.77125C3.92719 51.6627 0 47.7351 0 42.8915V13.8963C0 9.05219 3.92719 5.125 8.77125 5.125H11.798C6.95391 5.125 3.02672 9.05219 3.02672 13.8963V42.8915C3.02672 47.7351 6.95391 51.6627 11.798 51.6627Z" fill="#0860CA"/>
<path d="M42.2744 59.9996H19.9458C18.2227 59.9996 17.6382 57.7003 19.1524 56.8777L21.5868 55.5547H40.6334L43.0684 56.8777C44.5822 57.7003 43.9977 59.9996 42.2745 59.9996H42.2744Z" fill="#0087FF"/>
<path d="M3.67188 37.8679V13.5334C3.67188 10.9173 5.79227 8.79688 8.40836 8.79688H51.5603C54.1761 8.79688 56.2969 10.9173 56.2969 13.5334V37.8682C56.2969 40.4843 54.1761 42.6046 51.5604 42.6046H8.40848C5.79227 42.6046 3.67188 40.4843 3.67188 37.8682V37.8679Z" fill="#F1F1FB"/>
<path d="M51.5602 43.5225H8.4082C5.28984 43.5225 2.75391 40.9861 2.75391 37.8682V13.5337C2.75391 10.4159 5.29031 7.87891 8.4082 7.87891H51.5602C54.6779 7.87891 57.2145 10.4159 57.2145 13.5337V37.8685C57.2145 40.9862 54.6779 43.5228 51.5602 43.5228V43.5225ZM8.4082 9.71465C6.30234 9.71465 4.58941 11.4279 4.58941 13.5332V37.8684C4.58941 39.9742 6.30234 41.6871 8.40809 41.6871H51.56C53.6653 41.6871 55.3788 39.9741 55.3788 37.8685V13.5336C55.3788 11.4279 53.6653 9.71441 51.5602 9.71441L8.4082 9.71465Z" fill="#0860CA"/>
<path d="M44.1955 13.701C43.7455 -4.567 16.2235 -4.567 15.7735 13.701C15.7683 13.9056 15.7657 14.1102 15.7656 14.3148C15.7656 24.1641 21.5916 32.6515 29.9842 36.5223C38.3773 32.6515 44.2033 24.1642 44.2033 14.3148C44.2033 14.1098 44.2006 13.9051 44.1955 13.701Z" fill="#FDB43A"/>
<path d="M40.2567 14.097C40.2567 19.7709 35.6576 24.37 29.9836 24.37C24.3101 24.37 19.7109 19.7709 19.7109 14.0969C19.7109 8.42336 24.3101 3.82422 29.9836 3.82422C35.6576 3.82422 40.2567 8.42348 40.2567 14.097Z" fill="white"/>
<path d="M27.6905 9.0993C27.495 9.00871 27.2804 8.96289 27.0518 8.96289C26.8143 8.96289 26.5969 9.00918 26.406 9.09977C26.2036 9.19586 26.1016 9.35254 26.1016 9.56582V18.613C26.1016 18.8162 26.2032 18.9728 26.4041 19.0786C26.5955 19.1788 26.8138 19.2297 27.052 19.2297C27.2813 19.2297 27.4964 19.1788 27.6923 19.0785C27.8983 18.9728 28.0027 18.8162 28.0027 18.613V9.56582C28.0027 9.35254 27.8978 9.19539 27.6905 9.0993ZM36.0658 10.6759C35.9009 10.2716 35.6697 9.93848 35.3781 9.68441C35.0866 9.43035 34.7437 9.24449 34.3587 9.13188C33.9755 9.01973 33.5545 8.96289 33.1068 8.96289H30.3094C30.0846 8.96289 29.9056 9.02336 29.777 9.14242C29.647 9.26195 29.5811 9.40422 29.5811 9.56582V18.613C29.5811 18.8162 29.683 18.9728 29.8841 19.0786C30.0754 19.1788 30.2934 19.2297 30.5318 19.2297C30.7607 19.2297 30.9763 19.1788 31.1723 19.0785C31.3783 18.9728 31.4821 18.8162 31.4821 18.613V15.4298H32.9955C33.4529 15.4298 33.8877 15.3707 34.2887 15.254C34.6915 15.1368 35.0486 14.9486 35.3493 14.695C35.6511 14.4409 35.8891 14.1073 36.0584 13.7036C36.2269 13.3007 36.3125 12.8031 36.3125 12.224V12.1408C36.3125 11.5722 36.2296 11.0792 36.0658 10.6759ZM34.411 12.1966V12.3637C34.411 12.8961 34.2845 13.2925 34.0347 13.542C33.7851 13.7918 33.4354 13.9182 32.9955 13.9182H31.4826V10.6417H32.9955C33.4354 10.6417 33.7852 10.7685 34.0347 11.0179C34.2845 11.2679 34.4109 11.6643 34.4109 12.1968L34.411 12.1966Z" fill="#0087FF"/>
</g>
<defs>
<clipPath id="clip0_220_6235">
<rect width="60" height="60" fill="white"/>
</clipPath>
</defs>
</svg>
