<svg width="51" height="55" viewBox="0 0 51 55" fill="none" xmlns="http://www.w3.org/2000/svg">
<path d="M37.9677 42.036L41.5959 38.4078C41.6662 38.3375 41.7427 38.277 41.8219 38.223L39.1572 35.5583C37.9949 37.0763 36.6362 38.435 35.1182 39.5973L37.7829 42.262C37.8369 42.1828 37.8974 42.1065 37.9677 42.036Z" fill="#0087FF"/>
<path d="M44.2282 50.487L37.9677 44.2265C37.3627 43.6215 37.3627 42.6408 37.9677 42.036L41.5959 38.4078C42.2009 37.8028 43.1817 37.8028 43.7864 38.4078L50.0469 44.6683C50.6517 45.2733 50.6517 46.254 50.0469 46.8588L46.4187 50.487C45.8139 51.092 44.8332 51.092 44.2282 50.487Z" fill="#0087FF"/>
<path d="M48.9489 47.957C48.3439 48.562 47.3632 48.562 46.7584 47.957L40.4979 41.6965C39.8929 41.0915 39.8929 40.1108 40.4979 39.506L41.5982 38.4058C41.5974 38.4065 41.5969 38.407 41.5962 38.4078L37.9679 42.036C37.3629 42.641 37.3629 43.6218 37.9679 44.2268L44.2284 50.4873C44.8334 51.0923 45.8142 51.0923 46.4189 50.4873L50.0472 46.859L50.0487 46.8575L48.9489 47.957Z" fill="#0A6FC8"/>
<path d="M37.2557 37.7267C36.5854 38.3955 35.8717 39.0207 35.1184 39.5972L37.7832 42.262C37.8372 42.1827 37.8974 42.1062 37.9679 42.036L39.7664 40.2375L37.2557 37.7267Z" fill="#0A6FC8"/>
<path d="M22.0084 0.859497C10.0852 0.859497 0.419434 10.5252 0.419434 22.4485C0.419434 34.3717 10.0852 44.0375 22.0084 44.0375C33.9317 44.0375 43.5974 34.3717 43.5974 22.4485C43.5974 10.5252 33.9319 0.859497 22.0084 0.859497ZM22.0084 38.735C13.0137 38.735 5.72218 31.4432 5.72218 22.4487C5.72218 13.4542 13.0139 6.16225 22.0084 6.16225C31.0029 6.16225 38.2947 13.454 38.2947 22.4487C38.2947 31.4435 31.0032 38.735 22.0084 38.735Z" fill="#0087FF"/>
<path d="M22.0084 4.27875C11.9734 4.27875 3.83862 12.4137 3.83862 22.4485C3.83862 32.4832 11.9736 40.6182 22.0084 40.6182C32.0431 40.6182 40.1781 32.4832 40.1781 22.4485C40.1781 12.4137 32.0434 4.27875 22.0084 4.27875ZM22.0084 38.735C13.0136 38.735 5.72212 31.4432 5.72212 22.4487C5.72212 13.4542 13.0139 6.16225 22.0084 6.16225C31.0029 6.16225 38.2946 13.454 38.2946 22.4487C38.2946 31.4435 31.0031 38.735 22.0084 38.735Z" fill="#0A7CE1"/>
<path d="M22.0055 38.7352C31.0003 38.7352 38.292 31.4435 38.292 22.4487C38.292 13.4539 31.0003 6.16223 22.0055 6.16223C13.0107 6.16223 5.71899 13.4539 5.71899 22.4487C5.71899 31.4435 13.0107 38.7352 22.0055 38.7352Z" fill="#F1F2F2"/>
<path d="M32.2013 9.7525C34.4458 12.5438 35.7918 16.088 35.7918 19.9485C35.7918 28.9433 28.5001 36.235 19.5056 36.235C15.6451 36.235 12.1008 34.889 9.30957 32.6445C12.2946 36.3568 16.8713 38.735 22.0056 38.735C31.0003 38.735 38.2918 31.4433 38.2918 22.4485C38.2918 17.3143 35.9136 12.7378 32.2013 9.7525Z" fill="#E6E7E8"/>
<path d="M32.8781 10.3257C35.4658 13.209 37.0416 17.0192 37.0416 21.1987C37.0416 30.1935 29.7498 37.4852 20.7553 37.4852C16.5761 37.4852 12.7658 35.9095 9.88257 33.3217C12.8643 36.644 17.1901 38.7352 22.0053 38.7352C31.0001 38.7352 38.2916 31.4435 38.2916 22.4487C38.2918 17.6332 36.2003 13.3075 32.8781 10.3257Z" fill="#D1D3D4"/>
<path d="M7.21997 22.95C6.94247 22.95 6.71997 22.725 6.71997 22.45C6.71997 22.1725 6.94247 21.95 7.21997 21.95C7.49497 21.95 7.71997 22.1725 7.71997 22.45C7.71997 22.7248 7.49497 22.95 7.21997 22.95ZM7.35247 20.9548C7.32997 20.9548 7.30747 20.9523 7.28497 20.9498C7.01247 20.9123 6.81997 20.6598 6.85747 20.3873C7.20747 17.8023 8.22997 15.3298 9.80997 13.2398C11.3675 11.1848 13.4275 9.54225 15.77 8.49225C16.0175 8.3825 16.3225 8.49975 16.43 8.74475C16.545 8.99475 16.43 9.29 16.18 9.405C11.695 11.415 8.50497 15.675 7.84997 20.5225C7.84747 20.5225 7.84747 20.525 7.84747 20.525C7.81247 20.77 7.59997 20.9548 7.35247 20.9548Z" fill="white"/>
<path d="M30.655 49.1213V40.8727C30.655 40.3327 30.367 39.8338 29.8992 39.5638L22.7557 35.4395C22.288 35.1695 21.712 35.1695 21.2442 35.4395L14.1007 39.5638C13.633 39.8338 13.345 40.3327 13.345 40.8727V49.1213C13.345 49.6613 13.633 50.1602 14.1007 50.4302L21.2442 54.5545C21.712 54.8245 22.288 54.8245 22.7557 54.5545L29.8992 50.4302C30.367 50.1602 30.655 49.6613 30.655 49.1213Z" fill="#FFA91A"/>
<path d="M29.8992 47.9302L22.7557 52.0545C22.288 52.3245 21.712 52.3245 21.2442 52.0545L14.1007 47.9302C13.633 47.6602 13.345 47.1612 13.345 46.6212V49.1212C13.345 49.6612 13.633 50.1602 14.1007 50.4302L21.2442 54.5545C21.712 54.8245 22.288 54.8245 22.7557 54.5545L29.8992 50.4302C30.367 50.1602 30.655 49.6612 30.655 49.1212V46.6212C30.655 47.1612 30.367 47.6602 29.8992 47.9302Z" fill="#F79219"/>
<path d="M28.6387 13.3808V29.471H32.4444V13.3808C32.4444 13.0843 32.2039 12.8438 31.9074 12.8438H29.1757C28.8789 12.8438 28.6387 13.0843 28.6387 13.3808Z" fill="#FFA91A"/>
<path d="M14.8244 20.8708H12.0927C11.7962 20.8708 11.5557 21.1113 11.5557 21.4078V29.471H15.3614V21.4078C15.3612 21.1113 15.1209 20.8708 14.8244 20.8708Z" fill="#E63950"/>
<path d="M20.5187 18.8658H17.787C17.4905 18.8658 17.25 19.1063 17.25 19.4028V29.471H21.0557V19.4028C21.0557 19.1063 20.8152 18.8658 20.5187 18.8658Z" fill="#FFA91A"/>
<path d="M26.2128 15.8995H23.4811C23.1846 15.8995 22.9441 16.14 22.9441 16.4365V29.471H26.7498V16.4365C26.7498 16.14 26.5093 15.8995 26.2128 15.8995Z" fill="#E63950"/>
<path d="M33.7757 30.8932H10.2242C9.83144 30.8932 9.51294 30.5747 9.51294 30.182C9.51294 29.7892 9.83144 29.4707 10.2242 29.4707H33.7757C34.1684 29.4707 34.4869 29.7892 34.4869 30.182C34.4869 30.575 34.1684 30.8932 33.7757 30.8932Z" fill="#939598"/>
<path d="M21.9998 40.3167C19.5068 40.3167 17.4858 42.3377 17.4858 44.8307C17.4858 47.3237 19.5068 49.3447 21.9998 49.3447C24.4928 49.3447 26.5138 47.3237 26.5138 44.8307C26.5138 42.3377 24.4928 40.3167 21.9998 40.3167ZM21.9998 47.0037C20.7998 47.0037 19.8268 46.0307 19.8268 44.8307C19.8268 43.6307 20.7998 42.6577 21.9998 42.6577C23.1998 42.6577 24.1728 43.6307 24.1728 44.8307C24.1728 46.0307 23.1998 47.0037 21.9998 47.0037Z" fill="white"/>
<path d="M26.3966 43.8042L27.4941 42.8362C27.6594 42.6905 27.6989 42.4485 27.5889 42.2575L27.0051 41.2465C26.8949 41.0557 26.6656 40.969 26.4566 41.0392L25.0571 41.5097C25.7119 42.1127 26.1879 42.9072 26.3966 43.8042Z" fill="#F1F2F2"/>
<path d="M16.5059 42.836L17.6034 43.804C17.8119 42.907 18.2882 42.1125 18.9429 41.5095L17.5434 41.039C17.3347 40.9687 17.1052 41.0555 16.9949 41.2462L16.4112 42.2572C16.3009 42.4482 16.3407 42.6902 16.5059 42.836Z" fill="#F1F2F2"/>
<path d="M22 40.3167C22.46 40.3167 22.9037 40.3855 23.3217 40.5135L23.0375 39.1062C22.994 38.8902 22.804 38.735 22.5837 38.735H21.4162C21.196 38.735 21.006 38.8902 20.9625 39.1062L20.6782 40.5135C21.0962 40.3857 21.54 40.3167 22 40.3167Z" fill="#F1F2F2"/>
<path d="M27.4582 46.7635L26.4022 45.832C26.2007 46.7212 25.7369 47.511 25.0959 48.1152L26.4204 48.5605C26.6292 48.6307 26.8587 48.544 26.9689 48.3532L27.5527 47.3422C27.6632 47.1512 27.6234 46.9092 27.4582 46.7635Z" fill="#F1F2F2"/>
<path d="M22 49.3445C21.54 49.3445 21.0962 49.2757 20.6782 49.1477L20.9625 50.555C21.006 50.771 21.196 50.9262 21.4162 50.9262H22.5837C22.804 50.9262 22.994 50.771 23.0375 50.555L23.3217 49.1477C22.9037 49.2757 22.46 49.3445 22 49.3445Z" fill="#F1F2F2"/>
<path d="M17.5975 45.832L16.5415 46.7635C16.3762 46.9092 16.3367 47.1512 16.4467 47.3422L17.0305 48.3532C17.1407 48.544 17.37 48.6307 17.579 48.5605L18.9037 48.1152C18.263 47.511 17.799 46.7212 17.5975 45.832Z" fill="#F1F2F2"/>
</svg>
