<svg width="60" height="60" viewBox="0 0 60 60" fill="none" xmlns="http://www.w3.org/2000/svg">
<g clip-path="url(#clip0_208_1632)">
<path d="M60 7.80492H0V1.7073C0 0.764414 0.764414 0 1.7073 0H58.2927C59.2356 0 60 0.764414 60 1.7073V7.80492Z" fill="#0087FF"/>
<path d="M58.2925 0H53.9023C54.8452 0 55.6096 0.764414 55.6096 1.7073V7.80492H59.9998V1.7073C59.9998 0.764414 59.2354 0 58.2925 0Z" fill="#006DF0"/>
<path d="M58.2927 49.2681H1.7073C0.764414 49.2681 0 48.5037 0 47.5608V7.80469H60V47.5608C60 48.5037 59.2356 49.2681 58.2927 49.2681Z" fill="#F1F1FB"/>
<path d="M55.6096 7.80469V47.5608C55.6096 48.5037 54.8452 49.2681 53.9023 49.2681H58.2925C59.2354 49.2681 59.9998 48.5037 59.9998 47.5608V7.80469H55.6096Z" fill="#DBDBFD"/>
<path d="M49.2276 40.6722L38.1392 36.4536C37.9036 36.364 37.6471 36.3444 37.4007 36.3971C37.1542 36.4499 36.9283 36.5728 36.7501 36.751C36.5718 36.9293 36.4489 37.1552 36.3962 37.4016C36.3434 37.6481 36.363 37.9046 36.4526 38.1401L40.6712 49.2285C40.7955 49.5552 41.0171 49.8359 41.3059 50.0326C41.5948 50.2294 41.9372 50.3327 42.2867 50.3287L47.234 50.2716L50.2705 47.235L50.3276 42.2877C50.3317 41.9382 50.2284 41.5959 50.0317 41.307C49.8349 41.018 49.5543 40.7965 49.2276 40.6722ZM45.7183 45.7191C44.9563 46.4811 43.7208 46.4811 42.9588 45.7191C42.1969 44.9572 42.1969 43.7217 42.9588 42.9597C43.7208 42.1977 44.9563 42.1977 45.7183 42.9597C46.4802 43.7217 46.4802 44.9572 45.7183 45.7191Z" fill="#FBC367"/>
<path d="M49.2291 40.6721L44.1719 38.748C44.4868 39.915 44.735 41.1626 44.9055 42.4719C45.213 42.5646 45.4928 42.7321 45.7197 42.9595C46.4816 43.7215 46.4816 44.957 45.7197 45.7189C45.56 45.878 45.3738 46.0081 45.1695 46.1033C45.1958 47.5038 45.1331 48.9046 44.9819 50.2972L47.2354 50.2712L50.272 47.2346L50.329 42.2875C50.3331 41.938 50.2299 41.5957 50.0331 41.3068C49.8364 41.0179 49.5558 40.7964 49.2291 40.6721Z" fill="#FDB43A"/>
<path d="M47.0631 50.4437L50.4446 47.0621C50.6276 46.8791 50.8758 46.7764 51.1345 46.7764C51.3933 46.7764 51.6414 46.8791 51.8244 47.0621L53.0317 48.2694C53.2146 48.4523 53.3174 48.7005 53.3174 48.9592C53.3174 49.218 53.2146 49.4662 53.0317 49.6491L49.6501 53.0307C49.4671 53.2136 49.219 53.3164 48.9602 53.3164C48.7015 53.3164 48.4533 53.2136 48.2703 53.0307L47.0631 51.8234C46.8801 51.6405 46.7773 51.3923 46.7773 51.1335C46.7773 50.8748 46.8801 50.6266 47.0631 50.4437Z" fill="#F7A826"/>
<path d="M53.03 49.6494L49.6484 53.031L53.1782 59.3964C53.2797 59.5792 53.4282 59.7317 53.6084 59.8378C53.7886 59.9439 53.9939 59.9999 54.203 59.9999H58.827C59.4743 59.9999 59.9989 59.4752 59.9989 58.828V54.2041C59.9989 53.995 59.9429 53.7897 59.8368 53.6095C59.7307 53.4293 59.5783 53.2808 59.3954 53.1793L53.03 49.6494Z" fill="#0087FF"/>
<path d="M59.9988 56.5236V54.204C59.9988 53.9949 59.9429 53.7896 59.8367 53.6094C59.7306 53.4292 59.5782 53.2806 59.3953 53.1792L53.0299 49.6494L51.0938 51.5856L59.9988 56.5236Z" fill="#006DF0"/>
<path d="M53.6569 31.8546C53.4238 31.8546 53.2002 31.762 53.0354 31.5971C52.8706 31.4323 52.778 31.2088 52.778 30.9757V30.2725C52.778 29.787 53.1715 29.3936 53.6569 29.3936C54.1423 29.3936 54.5358 29.787 54.5358 30.2725V30.9757C54.5358 31.2088 54.4432 31.4323 54.2784 31.5971C54.1135 31.762 53.89 31.8546 53.6569 31.8546ZM53.6569 27.689C53.4238 27.689 53.2002 27.5964 53.0354 27.4316C52.8706 27.2668 52.778 27.0432 52.778 26.8101V25.5117C52.778 25.0262 53.1715 24.6328 53.6569 24.6328C54.1423 24.6328 54.5358 25.0262 54.5358 25.5117V26.8101C54.5358 27.0432 54.4432 27.2668 54.2784 27.4316C54.1135 27.5964 53.89 27.689 53.6569 27.689ZM53.6569 22.9283C53.4238 22.9283 53.2002 22.8357 53.0354 22.6709C52.8706 22.506 52.778 22.2825 52.778 22.0494V20.7509C52.778 20.2654 53.1715 19.872 53.6569 19.872C54.1423 19.872 54.5358 20.2654 54.5358 20.7509V22.0494C54.5358 22.2825 54.4432 22.506 54.2784 22.6709C54.1135 22.8357 53.89 22.9283 53.6569 22.9283ZM53.6569 18.1674C53.4238 18.1674 53.2002 18.0748 53.0354 17.91C52.8706 17.7452 52.778 17.5216 52.778 17.2885V16.5854C52.778 16.0999 53.1715 15.7065 53.6569 15.7065C54.1423 15.7065 54.5358 16.0999 54.5358 16.5854V17.2885C54.5358 17.5216 54.4432 17.7452 54.2784 17.91C54.1135 18.0748 53.89 18.1674 53.6569 18.1674ZM6.33984 31.8546C6.10674 31.8546 5.88319 31.762 5.71836 31.5971C5.55354 31.4323 5.46094 31.2088 5.46094 30.9757V30.2725C5.46094 29.787 5.85445 29.3936 6.33984 29.3936C6.82523 29.3936 7.21875 29.787 7.21875 30.2725V30.9757C7.21875 31.2088 7.12615 31.4323 6.96132 31.5971C6.7965 31.762 6.57294 31.8546 6.33984 31.8546ZM6.33984 27.689C6.10674 27.689 5.88319 27.5964 5.71836 27.4316C5.55354 27.2668 5.46094 27.0432 5.46094 26.8101V25.5117C5.46094 25.0262 5.85445 24.6328 6.33984 24.6328C6.82523 24.6328 7.21875 25.0262 7.21875 25.5117V26.8101C7.21875 27.0432 7.12615 27.2668 6.96132 27.4316C6.7965 27.5964 6.57294 27.689 6.33984 27.689ZM6.33984 22.9283C6.10674 22.9283 5.88319 22.8357 5.71836 22.6709C5.55354 22.506 5.46094 22.2825 5.46094 22.0494V20.7509C5.46094 20.2654 5.85445 19.872 6.33984 19.872C6.82523 19.872 7.21875 20.2654 7.21875 20.7509V22.0494C7.21875 22.2825 7.12615 22.506 6.96132 22.6709C6.7965 22.8357 6.57294 22.9283 6.33984 22.9283ZM6.33984 18.1674C6.10674 18.1674 5.88319 18.0748 5.71836 17.91C5.55354 17.7452 5.46094 17.5216 5.46094 17.2885V16.5854C5.46094 16.0999 5.85445 15.7065 6.33984 15.7065C6.82523 15.7065 7.21875 16.0999 7.21875 16.5854V17.2885C7.21875 17.5216 7.12615 17.7452 6.96132 17.91C6.7965 18.0748 6.57294 18.1674 6.33984 18.1674ZM51.2178 34.2937H50.5147C50.0293 34.2937 49.6358 33.9003 49.6358 33.4148C49.6358 32.9293 50.0293 32.5359 50.5147 32.5359H51.2178C51.7032 32.5359 52.0968 32.9293 52.0968 33.4148C52.0968 33.9003 51.7032 34.2937 51.2178 34.2937ZM46.6528 34.2937H45.2046C44.7192 34.2937 44.3257 33.9003 44.3257 33.4148C44.3257 32.9293 44.7192 32.5359 45.2046 32.5359H46.6528C47.1382 32.5359 47.5317 32.9293 47.5317 33.4148C47.5317 33.9003 47.1382 34.2937 46.6528 34.2937ZM41.3427 34.2937H39.8945C39.4091 34.2937 39.0156 33.9003 39.0156 33.4148C39.0156 32.9293 39.4091 32.5359 39.8945 32.5359H41.3427C41.8281 32.5359 42.2216 32.9293 42.2216 33.4148C42.2216 33.9003 41.8281 34.2937 41.3427 34.2937ZM36.0326 34.2937H34.5844C34.099 34.2937 33.7055 33.9003 33.7055 33.4148C33.7055 32.9293 34.099 32.5359 34.5844 32.5359H36.0326C36.518 32.5359 36.9115 32.9293 36.9115 33.4148C36.9115 33.9003 36.518 34.2937 36.0326 34.2937ZM30.7225 34.2937H29.2743C28.7889 34.2937 28.3954 33.9003 28.3954 33.4148C28.3954 32.9293 28.7889 32.5359 29.2743 32.5359H30.7225C31.2079 32.5359 31.6014 32.9293 31.6014 33.4148C31.6014 33.9003 31.2079 34.2937 30.7225 34.2937ZM25.4123 34.2937H23.9641C23.4787 34.2937 23.0852 33.9003 23.0852 33.4148C23.0852 32.9293 23.4787 32.5359 23.9641 32.5359H25.4123C25.8977 32.5359 26.2912 32.9293 26.2912 33.4148C26.2912 33.9003 25.8977 34.2937 25.4123 34.2937ZM20.1022 34.2937H18.654C18.1686 34.2937 17.7751 33.9003 17.7751 33.4148C17.7751 32.9293 18.1686 32.5359 18.654 32.5359H20.1022C20.5876 32.5359 20.9811 32.9293 20.9811 33.4148C20.9811 33.9003 20.5876 34.2937 20.1022 34.2937ZM14.7921 34.2937H13.3439C12.8585 34.2937 12.465 33.9003 12.465 33.4148C12.465 32.9293 12.8585 32.5359 13.3439 32.5359H14.7921C15.2775 32.5359 15.671 32.9293 15.671 33.4148C15.671 33.9003 15.2775 34.2937 14.7921 34.2937ZM9.48199 34.2937H8.77887C8.29348 34.2937 7.89996 33.9003 7.89996 33.4148C7.89996 32.9293 8.29348 32.5359 8.77887 32.5359H9.48199C9.96738 32.5359 10.3609 32.9293 10.3609 33.4148C10.3609 33.9003 9.96738 34.2937 9.48199 34.2937ZM51.2178 15.0254H50.5147C50.0293 15.0254 49.6358 14.632 49.6358 14.1465C49.6358 13.661 50.0293 13.2676 50.5147 13.2676H51.2178C51.7032 13.2676 52.0968 13.661 52.0968 14.1465C52.0968 14.632 51.7032 15.0254 51.2178 15.0254ZM46.6528 15.0254H45.2046C44.7192 15.0254 44.3257 14.632 44.3257 14.1465C44.3257 13.661 44.7192 13.2676 45.2046 13.2676H46.6528C47.1382 13.2676 47.5317 13.661 47.5317 14.1465C47.5317 14.632 47.1382 15.0254 46.6528 15.0254ZM41.3427 15.0254H39.8945C39.4091 15.0254 39.0156 14.632 39.0156 14.1465C39.0156 13.661 39.4091 13.2676 39.8945 13.2676H41.3427C41.8281 13.2676 42.2216 13.661 42.2216 14.1465C42.2216 14.632 41.8281 15.0254 41.3427 15.0254ZM36.0326 15.0254H34.5844C34.099 15.0254 33.7055 14.632 33.7055 14.1465C33.7055 13.661 34.099 13.2676 34.5844 13.2676H36.0326C36.518 13.2676 36.9115 13.661 36.9115 14.1465C36.9115 14.632 36.518 15.0254 36.0326 15.0254ZM30.7225 15.0254H29.2743C28.7889 15.0254 28.3954 14.632 28.3954 14.1465C28.3954 13.661 28.7889 13.2676 29.2743 13.2676H30.7225C31.2079 13.2676 31.6014 13.661 31.6014 14.1465C31.6014 14.632 31.2079 15.0254 30.7225 15.0254ZM25.4123 15.0254H23.9641C23.4787 15.0254 23.0852 14.632 23.0852 14.1465C23.0852 13.661 23.4787 13.2676 23.9641 13.2676H25.4123C25.8977 13.2676 26.2912 13.661 26.2912 14.1465C26.2912 14.632 25.8977 15.0254 25.4123 15.0254ZM20.1022 15.0254H18.654C18.1686 15.0254 17.7751 14.632 17.7751 14.1465C17.7751 13.661 18.1686 13.2676 18.654 13.2676H20.1022C20.5876 13.2676 20.9811 13.661 20.9811 14.1465C20.9811 14.632 20.5876 15.0254 20.1022 15.0254ZM14.7921 15.0254H13.3439C12.8585 15.0254 12.465 14.632 12.465 14.1465C12.465 13.661 12.8585 13.2676 13.3439 13.2676H14.7921C15.2775 13.2676 15.671 13.661 15.671 14.1465C15.671 14.632 15.2775 15.0254 14.7921 15.0254ZM9.48199 15.0254H8.77887C8.29348 15.0254 7.89996 14.632 7.89996 14.1465C7.89996 13.661 8.29348 13.2676 8.77887 13.2676H9.48199C9.96738 13.2676 10.3609 13.661 10.3609 14.1465C10.3609 14.632 9.96738 15.0254 9.48199 15.0254Z" fill="#0087FF"/>
<path d="M29.882 19.5552C29.8172 19.3912 29.7046 19.2504 29.5588 19.1513C29.413 19.0521 29.2408 18.999 29.0645 18.999C28.8881 18.999 28.7159 19.0521 28.5701 19.1513C28.4243 19.2504 28.3117 19.3912 28.247 19.5552L25.1659 27.3601C25.1224 27.4677 25.1007 27.5828 25.1019 27.6988C25.1031 27.8148 25.1273 27.9294 25.1731 28.036C25.2189 28.1426 25.2853 28.2391 25.3685 28.32C25.4517 28.4008 25.5502 28.4643 25.6581 28.5069C25.766 28.5495 25.8813 28.5703 25.9973 28.5681C26.1133 28.566 26.2277 28.5408 26.3339 28.4942C26.4402 28.4476 26.5361 28.3804 26.6163 28.2965C26.6964 28.2126 26.7591 28.1137 26.8009 28.0055L27.3378 26.6453H30.791L31.3279 28.0055C31.4136 28.2223 31.5818 28.3962 31.7956 28.489C32.0094 28.5818 32.2513 28.5859 32.4682 28.5003C32.685 28.4148 32.8589 28.2465 32.9517 28.0327C33.0445 27.8189 33.0485 27.5769 32.9629 27.3601L29.882 19.5552ZM28.0318 24.8875L29.0645 22.2716L30.0971 24.8875H28.0318ZM40.7196 18.999C40.4865 18.999 40.2629 19.0916 40.0981 19.2564C39.9333 19.4213 39.8407 19.6448 39.8407 19.8779V24.9012L35.9697 19.3874C35.8625 19.2343 35.7092 19.1195 35.5322 19.0595C35.3552 18.9995 35.1637 18.9976 34.9855 19.0539C34.8073 19.1102 34.6517 19.2218 34.5412 19.3726C34.4308 19.5234 34.3714 19.7055 34.3715 19.8923V27.6827C34.3715 28.1682 34.765 28.5616 35.2504 28.5616C35.7358 28.5616 36.1293 28.1682 36.1293 27.6827V22.674L40.0003 28.1878C40.1076 28.3407 40.2609 28.4554 40.4379 28.5153C40.6148 28.5752 40.8063 28.5771 40.9844 28.5208C41.1626 28.4645 41.3181 28.3529 41.4285 28.2022C41.539 28.0515 41.5985 27.8696 41.5985 27.6827V19.8778C41.5984 19.6447 41.5058 19.4212 41.341 19.2564C41.1762 19.0916 40.9527 18.999 40.7196 18.999ZM45.9971 18.999H43.7866C43.671 18.999 43.5566 19.0218 43.4499 19.0661C43.3431 19.1104 43.2461 19.1753 43.1645 19.2571C43.0829 19.3389 43.0182 19.436 42.9741 19.5428C42.93 19.6496 42.9075 19.7641 42.9077 19.8797L42.9235 27.6846C42.924 27.9174 43.0168 28.1405 43.1816 28.305C43.3463 28.4694 43.5696 28.5618 43.8024 28.5618H43.8057C43.8725 28.5615 45.448 28.5554 46.077 28.5445C48.3663 28.5045 50.0278 26.501 50.0278 23.7805C50.0279 20.9204 48.4081 18.999 45.9971 18.999ZM46.0464 26.7868C45.734 26.7923 45.1663 26.7966 44.6796 26.7995L44.6674 20.7568H45.9972C47.673 20.7568 48.2702 22.3187 48.2702 23.7804C48.2701 25.8304 47.1533 26.7675 46.0464 26.7868ZM15.3099 23.1995C15.6226 22.7522 15.79 22.2195 15.7896 21.6738C15.7896 20.1989 14.5897 18.999 13.1148 18.999H10.8477C10.6146 18.999 10.391 19.0916 10.2262 19.2564C10.0613 19.4213 9.96875 19.6448 9.96875 19.8779V27.6828C9.96884 27.9159 10.0615 28.1394 10.2263 28.3042C10.3911 28.469 10.6146 28.5617 10.8477 28.5618H10.8515C10.8516 28.5618 12.9362 28.5525 13.5106 28.5525C15.1537 28.5525 16.4904 27.2159 16.4904 25.5728C16.4905 24.6052 16.0266 23.7442 15.3099 23.1995ZM13.1148 20.7568C13.6204 20.7568 14.0318 21.1683 14.0318 21.6738C14.0318 22.1794 13.6204 22.5908 13.1148 22.5908C12.9506 22.5908 11.7266 22.5929 11.7266 22.5929V20.7568H13.1148ZM13.5107 26.7946C13.1839 26.7946 12.37 26.7975 11.7266 26.8002V24.3528C11.9156 24.3521 13.5107 24.3506 13.5107 24.3506C14.1846 24.3506 14.7327 24.8988 14.7327 25.5727C14.7327 26.2465 14.1845 26.7946 13.5107 26.7946ZM23.793 21.9063C23.793 20.3032 22.4373 18.999 20.7709 18.999H18.6968C18.4638 18.999 18.2403 19.0915 18.0755 19.2562C17.9107 19.4209 17.818 19.6443 17.8179 19.8773L17.8154 27.6827C17.8154 28.1682 18.2089 28.5616 18.6943 28.5616C19.1797 28.5616 19.5732 28.1682 19.5732 27.6827V25.2171L22.2543 28.2634C22.3367 28.3573 22.4383 28.4325 22.5521 28.4839C22.666 28.5354 22.7895 28.5619 22.9145 28.5616C23.0835 28.5616 23.2489 28.5128 23.3909 28.4211C23.5329 28.3293 23.6455 28.1986 23.715 28.0446C23.7846 27.8905 23.8083 27.7197 23.7833 27.5525C23.7583 27.3854 23.6855 27.229 23.5739 27.1021L21.4865 24.7305C22.8086 24.4205 23.793 23.2721 23.793 21.9063ZM20.771 23.0558C20.4951 23.0558 20.0077 23.0579 19.5739 23.0599L19.5753 20.7568H20.7711C21.4564 20.7568 22.0354 21.2832 22.0354 21.9063C22.0352 22.5294 21.4563 23.0558 20.771 23.0558Z" fill="#0087FF"/>
<path d="M36.7518 36.7509C36.522 36.9809 36.3862 37.2883 36.3711 37.6131L42.4882 43.7302C42.5805 43.4486 42.7367 43.1834 42.9605 42.9596C43.1844 42.7357 43.4496 42.5795 43.7312 42.4872L37.6141 36.3701C37.2893 36.3853 36.9819 36.5211 36.7518 36.7509Z" fill="#FFC344"/>
<path d="M4.39063 4.78125C4.87603 4.78125 5.26953 4.38775 5.26953 3.90234C5.26953 3.41694 4.87603 3.02344 4.39063 3.02344C3.90522 3.02344 3.51172 3.41694 3.51172 3.90234C3.51172 4.38775 3.90522 4.78125 4.39063 4.78125Z" fill="white"/>
<path d="M8.53516 4.78125C9.02056 4.78125 9.41406 4.38775 9.41406 3.90234C9.41406 3.41694 9.02056 3.02344 8.53516 3.02344C8.04975 3.02344 7.65625 3.41694 7.65625 3.90234C7.65625 4.38775 8.04975 4.78125 8.53516 4.78125Z" fill="white"/>
<path d="M12.6836 4.78125C13.169 4.78125 13.5625 4.38775 13.5625 3.90234C13.5625 3.41694 13.169 3.02344 12.6836 3.02344C12.1982 3.02344 11.8047 3.41694 11.8047 3.90234C11.8047 4.38775 12.1982 4.78125 12.6836 4.78125Z" fill="white"/>
<path d="M55.3657 16.5851H51.9511C51.757 16.5851 51.5709 16.508 51.4337 16.3708C51.2965 16.2335 51.2194 16.0474 51.2194 15.8534V12.4388C51.2194 12.2447 51.2965 12.0586 51.4337 11.9213C51.5709 11.7841 51.757 11.707 51.9511 11.707H55.3657C55.5598 11.707 55.7459 11.7841 55.8831 11.9213C56.0203 12.0586 56.0974 12.2447 56.0974 12.4388V15.8534C56.0974 15.9495 56.0785 16.0446 56.0418 16.1334C56.005 16.2222 55.9511 16.3028 55.8831 16.3708C55.8152 16.4387 55.7345 16.4926 55.6457 16.5294C55.557 16.5662 55.4618 16.5851 55.3657 16.5851ZM8.04867 16.5851H4.63406C4.44 16.5851 4.25388 16.508 4.11666 16.3708C3.97944 16.2335 3.90234 16.0474 3.90234 15.8534V12.4388C3.90234 12.2447 3.97944 12.0586 4.11666 11.9213C4.25388 11.7841 4.44 11.707 4.63406 11.707H8.04867C8.24274 11.707 8.42885 11.7841 8.56608 11.9213C8.7033 12.0586 8.78039 12.2447 8.78039 12.4388V15.8534C8.78039 16.0474 8.7033 16.2335 8.56608 16.3708C8.42885 16.508 8.24274 16.5851 8.04867 16.5851ZM55.3657 35.8534H51.9511C51.757 35.8534 51.5709 35.7763 51.4337 35.639C51.2965 35.5018 51.2194 35.3157 51.2194 35.1217V31.7071C51.2194 31.513 51.2965 31.3269 51.4337 31.1897C51.5709 31.0524 51.757 30.9754 51.9511 30.9754H55.3657C55.5598 30.9754 55.7459 31.0525 55.8831 31.1897C56.0203 31.3269 56.0974 31.513 56.0974 31.7071V35.1217C56.0974 35.2178 56.0785 35.3129 56.0418 35.4017C56.005 35.4905 55.9511 35.5712 55.8831 35.6391C55.8152 35.7071 55.7345 35.761 55.6457 35.7977C55.557 35.8345 55.4618 35.8534 55.3657 35.8534ZM8.04867 35.8534H4.63406C4.44001 35.8534 4.25391 35.7763 4.11669 35.639C3.97948 35.5018 3.90237 35.3157 3.90234 35.1217V31.7071C3.90234 31.513 3.97944 31.3269 4.11666 31.1897C4.25388 31.0524 4.44 30.9754 4.63406 30.9754H8.04867C8.24273 30.9754 8.42882 31.0525 8.56604 31.1897C8.70326 31.3269 8.78036 31.513 8.78039 31.7071V35.1217C8.78039 35.3157 8.7033 35.5019 8.56608 35.6391C8.42885 35.7763 8.24274 35.8534 8.04867 35.8534Z" fill="#0087FF"/>
</g>
<defs>
<clipPath id="clip0_208_1632">
<rect width="60" height="60" fill="white"/>
</clipPath>
</defs>
</svg>
