<svg width="55" height="55" viewBox="0 0 55 55" fill="none" xmlns="http://www.w3.org/2000/svg">
<g clip-path="url(#clip0_1_1098)">
<path d="M27.5001 34.6941V54.0067L25.8888 55H2.04121C1.97354 55 1.18292 54.986 0.712409 54.2996C0.241903 53.6132 0.51368 52.8709 0.538387 52.8075L4.16064 43.9807C4.59892 43.1482 5.46044 41.77 7.00408 40.5368C8.41775 39.4067 9.81315 38.8707 10.6876 38.6086L12.8908 37.92L25.8888 35.0497L27.5001 34.6941Z" fill="#047CE7"/>
<path d="M54.2877 54.2996C53.8172 54.986 53.0266 55 52.9589 55H29.1113L27.5 53.8287V34.6941L27.862 34.7736L29.1113 35.0497L42.1093 37.92L44.3125 38.6086C45.1869 38.8707 46.5823 39.4067 47.996 40.5368C49.5397 41.77 50.4012 43.1482 50.8395 43.9807L54.4617 52.8075C54.4864 52.8709 54.7582 53.6132 54.2877 54.2996Z" fill="#0087FF"/>
<path d="M27.5002 0.000213623C28.0205 4.30771 28.5409 8.61531 29.0612 12.9228C28.5409 17.388 28.0205 21.8533 27.5002 26.3185C26.6187 26.8388 25.7373 27.3592 24.8558 27.8795C23.6963 27.3592 22.5367 26.8388 21.3772 26.3185C21.3772 23.3257 20.1214 20.3867 17.9311 18.2522C15.8589 16.2337 14.717 13.5278 14.717 10.6349C14.717 7.79364 15.8235 5.12314 17.8312 3.11436C19.84 1.10665 22.5105 0.000213623 25.3518 0.000213623H27.5002Z" fill="#FFE14D"/>
<path d="M40.2821 10.5168C40.3143 13.4032 39.2079 16.1156 37.169 18.1555C37.1121 18.2114 37.0551 18.2683 36.9971 18.3231C34.853 20.3727 33.623 23.287 33.623 26.3185C32.6025 26.7048 31.582 27.0909 30.5615 27.4772C29.541 27.0909 28.5205 26.7048 27.5 26.3185V0.000213623H29.5335C35.3976 0.000213623 40.2187 4.71816 40.2821 10.5168Z" fill="#FFBB33"/>
<path d="M27.5 12.6759C27.7797 14.8822 28.0593 17.0884 28.3388 19.2946C28.0592 21.6359 27.7795 23.9772 27.5 26.3185C27.2304 26.5463 26.9609 26.7741 26.6913 27.0019C26.4238 26.774 26.1562 26.5462 25.8887 26.3185V15.717C24.9251 15.4979 24.0164 15.0811 23.2075 14.4785C22.4942 13.9467 22.346 12.9381 22.8777 12.2237C23.4084 11.5104 24.4181 11.3622 25.1325 11.8939C25.82 12.4052 26.6385 12.6759 27.5 12.6759Z" fill="#FFBB33"/>
<path d="M31.7926 14.4785C30.9837 15.0811 30.0749 15.4979 29.1113 15.717V26.3185C28.8264 26.5097 28.5415 26.7009 28.2566 26.8921C28.0043 26.7009 27.7522 26.5097 27.5 26.3185C27.5 21.771 27.5 17.2234 27.5 12.6759C28.3615 12.6759 29.1801 12.4052 29.8676 11.8939C30.5819 11.3622 31.5906 11.5104 32.1223 12.2237C32.6541 12.9381 32.5058 13.9467 31.7926 14.4785Z" fill="#FF9933"/>
<path d="M27.5 26.3185C27.9533 27.5885 28.4066 28.8584 28.8599 30.1285C28.4066 31.2346 27.9533 33.5878 27.5 34.694L22.26 33.7063L21.377 30.5455V26.3185H27.5Z" fill="#624D8C"/>
<path d="M33.623 26.3185L33.6139 29.4337L32.2475 34.3567L27.5 34.694C27.5 32.3178 27.5 28.6946 27.5 26.3185H33.623Z" fill="#493373"/>
<path d="M50.166 12.7692H45.4394C44.5496 12.7692 43.8281 12.0477 43.8281 11.1579C43.8281 10.268 44.5496 9.54654 45.4394 9.54654H50.166C51.0559 9.54654 51.7773 10.268 51.7773 11.1579C51.7773 12.0477 51.0559 12.7692 50.166 12.7692Z" fill="#FFBB33"/>
<path d="M48.2872 22.3156C47.9895 22.3156 47.6886 22.2332 47.4194 22.0608L43.4396 19.5112C42.6902 19.0311 42.4719 18.0344 42.9521 17.2852C43.4321 16.5358 44.4287 16.3177 45.1781 16.7976L49.158 19.3472C49.9073 19.8273 50.1256 20.824 49.6454 21.5732C49.3378 22.0535 48.818 22.3156 48.2872 22.3156Z" fill="#FFBB33"/>
<path d="M44.3103 5.77272C43.7796 5.77272 43.2598 5.51061 42.9521 5.03043C42.4719 4.28106 42.6902 3.28451 43.4396 2.80445L47.4194 0.254798C48.1685 -0.225054 49.1654 -0.00709585 49.6454 0.742384C50.1256 1.49176 49.9073 2.4883 49.1579 2.96837L45.1781 5.51802C44.909 5.69043 44.608 5.77272 44.3103 5.77272Z" fill="#FFBB33"/>
<path d="M9.56077 12.7692H4.83422C3.94434 12.7692 3.2229 12.0477 3.2229 11.1579C3.2229 10.268 3.94434 9.54654 4.83422 9.54654H9.56077C10.4506 9.54654 11.1721 10.268 11.1721 11.1579C11.1721 12.0477 10.4506 12.7692 9.56077 12.7692Z" fill="#FFE14D"/>
<path d="M6.71293 22.3156C6.18216 22.3156 5.66235 22.0535 5.35469 21.5733C4.87452 20.824 5.0928 19.8274 5.84217 19.3474L9.82203 16.7977C10.5711 16.3179 11.5679 16.5358 12.048 17.2853C12.5282 18.0347 12.3099 19.0312 11.5605 19.5113L7.58068 22.0609C7.31159 22.2333 7.01059 22.3156 6.71293 22.3156Z" fill="#FFE14D"/>
<path d="M10.6898 5.77272C10.3921 5.77272 10.0912 5.69033 9.82203 5.51791L5.84217 2.96827C5.0928 2.4882 4.87452 1.49154 5.35469 0.742279C5.83476 -0.0072009 6.83131 -0.225266 7.58068 0.254693L11.5605 2.80434C12.3099 3.28441 12.5282 4.28106 12.048 5.03033C11.7404 5.51061 11.2205 5.77272 10.6898 5.77272Z" fill="#FFE14D"/>
<path d="M28.7693 44.9692L27.5 55H25.8887V35.0497L27.5 34.6941L28.7693 44.9692Z" fill="#CFDFE6"/>
<path d="M29.1113 35.0497V55H27.5V34.6941L27.862 34.7736L29.1113 35.0497Z" fill="#B9C9D9"/>
<path d="M19.7197 42.4699L27.4957 34.6939L21.3772 29.4336L12.8909 37.9199L17.4409 42.4699C18.0701 43.0992 19.0904 43.0992 19.7197 42.4699Z" fill="#80BFFF"/>
<path d="M35.2714 42.4699L27.4954 34.6939L33.6139 29.4336L42.1002 37.9199L37.5501 42.4699C36.9209 43.0992 35.9007 43.0992 35.2714 42.4699Z" fill="#6699FF"/>
</g>
<defs>
<clipPath id="clip0_1_1098">
<rect width="55" height="55" fill="white"/>
</clipPath>
</defs>
</svg>
