<svg width="53" height="53" viewBox="0 0 53 53" fill="none" xmlns="http://www.w3.org/2000/svg">
<g clip-path="url(#clip0_1_21569)">
<path d="M31.2802 17.8896V13.3907L26.7773 12.9139C26.4965 11.7625 26.0416 10.6793 25.4424 9.69362L28.29 6.1716L25.1087 2.99036L21.5866 5.83797C20.601 5.23872 19.5177 4.78397 18.3663 4.50303L17.8896 0H13.3907L12.9139 4.50293C11.7625 4.78377 10.6793 5.23862 9.69362 5.83787L6.1715 2.99026L2.99026 6.1715L5.83787 9.69351C5.23862 10.6792 4.78387 11.7625 4.50293 12.9138L0 13.3907V17.8896L4.50293 18.3664C4.78377 19.5178 5.23862 20.601 5.83787 21.5866L2.99026 25.1087L6.1715 28.29L9.69351 25.4424C10.6792 26.0416 11.7625 26.4964 12.9138 26.7773L13.3906 31.2802H17.8895L18.3663 26.7773C19.5177 26.4965 20.6009 26.0416 21.5866 25.4424L25.1087 28.29L28.29 25.1087L25.4424 21.5867C26.0416 20.6011 26.4964 19.5178 26.7773 18.3665L31.2802 17.8896ZM15.6402 20.9105C12.7294 20.9105 10.3699 18.5508 10.3699 15.6402C10.3699 12.7295 12.7295 10.3699 15.6402 10.3699C18.5508 10.3699 20.9105 12.7295 20.9105 15.6402C20.9105 18.5508 18.5508 20.9105 15.6402 20.9105Z" fill="#FE7858"/>
<path d="M31.2802 17.8896V13.3907L26.7773 12.9139C26.4964 11.7625 26.0416 10.6793 25.4423 9.69362L28.29 6.1716L25.1087 2.99026L21.5866 5.83787C20.6009 5.23862 19.5176 4.78387 18.3663 4.50293L17.8895 0H15.6401V10.3699C18.5509 10.3699 20.9104 12.7295 20.9104 15.6402C20.9104 18.5508 18.5508 20.9105 15.6401 20.9105V31.2802H17.8896L18.3664 26.7773C19.5178 26.4965 20.601 26.0416 21.5867 25.4424L25.1088 28.29L28.2901 25.1087L25.4424 21.5867C26.0417 20.6011 26.4965 19.5178 26.7774 18.3665L31.2802 17.8896Z" fill="#FD4E26"/>
<path d="M53 36.7369V31.2729L47.5311 30.6938C47.19 29.2954 46.6376 27.9799 45.9098 26.7827L49.3683 22.5051L45.5046 18.6415L41.2271 22.1C40.0299 21.3721 38.7143 20.8198 37.3159 20.4787L36.7369 15.0098H31.2729L30.6938 20.4787C29.2954 20.8198 27.9799 21.3721 26.7827 22.1L22.5051 18.6415L18.6415 22.5051L22.1 26.7827C21.3721 27.9799 20.8198 29.2954 20.4787 30.6938L15.0098 31.2729V36.7369L20.4787 37.3159C20.8198 38.7143 21.3721 40.0299 22.1 41.2271L18.6415 45.5046L22.5051 49.3683L26.7827 45.9098C27.9799 46.6376 29.2954 47.19 30.6938 47.5311L31.2729 53H36.7369L37.3159 47.5311C38.7143 47.19 40.0299 46.6376 41.2271 45.9098L45.5046 49.3683L49.3683 45.5046L45.9098 41.2271C46.6376 40.0299 47.19 38.7143 47.5311 37.3159L53 36.7369ZM34.0049 40.4058C30.4698 40.4058 27.604 37.54 27.604 34.0049C27.604 30.4697 30.4697 27.604 34.0049 27.604C37.54 27.604 40.4058 30.4697 40.4058 34.0049C40.4058 37.54 37.5399 40.4058 34.0049 40.4058Z" fill="#81C8EE"/>
<path d="M53 36.7369V31.2729L47.5312 30.6938C47.1901 29.2954 46.6377 27.9799 45.9099 26.7827L49.3684 22.5051L45.5047 18.6415L41.2272 22.1C40.03 21.3721 38.7144 20.8198 37.316 20.4787L36.7369 15.0098H34.0049V27.604C37.5399 27.604 40.4058 30.4697 40.4058 34.0049C40.4058 37.54 37.54 40.4058 34.0049 40.4058V53H36.7369L37.3159 47.5311C38.7143 47.19 40.0299 46.6376 41.2271 45.9098L45.5046 49.3683L49.3683 45.5046L45.9098 41.2271C46.6376 40.0299 47.19 38.7143 47.5311 37.3159L53 36.7369Z" fill="#159CE4"/>
</g>
<defs>
<clipPath id="clip0_1_21569">
<rect width="53" height="53" fill="white"/>
</clipPath>
</defs>
</svg>
