<svg width="53" height="57" viewBox="0 0 53 57" fill="none" xmlns="http://www.w3.org/2000/svg">
<path fill-rule="evenodd" clip-rule="evenodd" d="M34.0509 0H18.21C17.5918 0 17.0859 0.505781 17.0859 1.12406V30.4755C17.0859 31.0938 17.5917 31.5996 18.21 31.5996H34.0509C34.6692 31.5996 35.175 31.0938 35.175 30.4755V1.12406C35.1749 0.505781 34.6691 0 34.0509 0Z" fill="#0087FF"/>
<path fill-rule="evenodd" clip-rule="evenodd" d="M34.0502 0H31.8164C32.4347 0 32.9405 0.505781 32.9405 1.12406V30.4754C32.9405 31.0937 32.4347 31.5995 31.8164 31.5995H34.0502C34.6685 31.5995 35.1743 31.0938 35.1743 30.4754V1.12406C35.1743 0.505781 34.6685 0 34.0502 0Z" fill="#006DF0"/>
<path d="M26.8645 27.3882C28.5785 26.9817 29.6385 25.2627 29.2321 23.5487C28.8256 21.8346 27.1067 20.7746 25.3926 21.1811C23.6786 21.5875 22.6186 23.3065 23.025 25.0205C23.4314 26.7346 25.1504 27.7946 26.8645 27.3882Z" fill="#FFE177"/>
<path fill-rule="evenodd" clip-rule="evenodd" d="M26.129 21.1084C27.8906 21.1084 29.3186 22.5364 29.3186 24.2981C29.3186 26.0597 27.8906 27.4877 26.129 27.4877C25.9289 27.4877 25.733 27.4691 25.543 27.4338C27.0247 27.1587 28.1466 25.8594 28.1466 24.2981C28.1466 22.7367 27.0247 21.4375 25.543 21.1623C25.7363 21.1264 25.9324 21.1084 26.129 21.1084Z" fill="#FFD064"/>
<path fill-rule="evenodd" clip-rule="evenodd" d="M30.6009 5.84082C30.8496 5.84082 31.088 5.93959 31.2639 6.11541C31.4397 6.29122 31.5384 6.52968 31.5384 6.77832C31.5384 7.02696 31.4397 7.26542 31.2639 7.44123C31.088 7.61705 30.8496 7.71582 30.6009 7.71582H21.6562C21.4076 7.71582 21.1692 7.61705 20.9933 7.44123C20.8175 7.26542 20.7188 7.02696 20.7188 6.77832C20.7188 6.52968 20.8175 6.29122 20.9933 6.11541C21.1692 5.93959 21.4076 5.84082 21.6562 5.84082H30.6009ZM30.6009 12.2764C30.8496 12.2764 31.088 12.3752 31.2639 12.551C31.4397 12.7268 31.5384 12.9653 31.5384 13.2139C31.5384 13.4625 31.4397 13.701 31.2639 13.8768C31.088 14.0526 30.8496 14.1514 30.6009 14.1514H21.6562C21.4076 14.1514 21.1692 14.0526 20.9933 13.8768C20.8175 13.701 20.7188 13.4625 20.7188 13.2139C20.7188 12.9653 20.8175 12.7268 20.9933 12.551C21.1692 12.3752 21.4076 12.2764 21.6562 12.2764H30.6009Z" fill="#ECEFF1"/>
<path fill-rule="evenodd" clip-rule="evenodd" d="M16.9649 8.19922H1.12406C0.505781 8.19922 0 8.705 0 9.32316V38.6746C0 39.2929 0.505781 39.7986 1.12406 39.7986H16.965C17.5832 39.7986 18.0891 39.2928 18.0891 38.6746V9.32316C18.0889 8.705 17.5832 8.19922 16.9649 8.19922Z" fill="#0087FF"/>
<path fill-rule="evenodd" clip-rule="evenodd" d="M16.9643 8.19922H14.7305C15.3488 8.19922 15.8545 8.705 15.8545 9.32328V38.6746C15.8545 39.2929 15.3488 39.7987 14.7305 39.7987H16.9643C17.5826 39.7987 18.0884 39.2929 18.0884 38.6746V9.32328C18.0884 8.705 17.5826 8.19922 16.9643 8.19922Z" fill="#006DF0"/>
<path d="M9.0452 35.6871C10.8068 35.6871 12.2349 34.259 12.2349 32.4973C12.2349 30.7357 10.8068 29.3076 9.0452 29.3076C7.28356 29.3076 5.85547 30.7357 5.85547 32.4973C5.85547 34.259 7.28356 35.6871 9.0452 35.6871Z" fill="#FFE177"/>
<path fill-rule="evenodd" clip-rule="evenodd" d="M9.04297 29.3086C10.8045 29.3086 12.2326 30.7366 12.2326 32.4983C12.2326 34.2599 10.8045 35.6879 9.04297 35.6879C8.84281 35.6879 8.64699 35.6693 8.45703 35.634C9.93875 35.3589 11.0607 34.0596 11.0607 32.4983C11.0607 30.9369 9.93875 29.6378 8.45703 29.3625C8.65028 29.3266 8.84642 29.3086 9.04297 29.3086Z" fill="#FFD064"/>
<path fill-rule="evenodd" clip-rule="evenodd" d="M13.515 14.2734C13.7636 14.2734 14.0021 14.3722 14.1779 14.548C14.3537 14.7238 14.4525 14.9623 14.4525 15.2109C14.4525 15.4596 14.3537 15.698 14.1779 15.8739C14.0021 16.0497 13.7636 16.1484 13.515 16.1484H4.57031C4.32167 16.1484 4.08322 16.0497 3.9074 15.8739C3.73158 15.698 3.63281 15.4596 3.63281 15.2109C3.63281 14.9623 3.73158 14.7238 3.9074 14.548C4.08322 14.3722 4.32167 14.2734 4.57031 14.2734H13.515ZM13.515 20.7091C13.7636 20.7091 14.0021 20.8079 14.1779 20.9837C14.3537 21.1595 14.4525 21.398 14.4525 21.6466C14.4525 21.8953 14.3537 22.1337 14.1779 22.3096C14.0021 22.4854 13.7636 22.5841 13.515 22.5841H4.57031C4.32167 22.5841 4.08322 22.4854 3.9074 22.3096C3.73158 22.1337 3.63281 21.8953 3.63281 21.6466C3.63281 21.398 3.73158 21.1595 3.9074 20.9837C4.08322 20.8079 4.32167 20.7091 4.57031 20.7091H13.515Z" fill="#ECEFF1"/>
<path fill-rule="evenodd" clip-rule="evenodd" d="M51.1368 8.19922H35.2959C34.6777 8.19922 34.1719 8.705 34.1719 9.32316V38.6746C34.1719 39.2929 34.6777 39.7986 35.2959 39.7986H51.1369C51.7552 39.7986 52.2609 39.2928 52.2609 38.6746V9.32316C52.2608 8.705 51.755 8.19922 51.1368 8.19922Z" fill="#0087FF"/>
<path fill-rule="evenodd" clip-rule="evenodd" d="M51.1362 8.19922H48.9023C49.5206 8.19922 50.0264 8.705 50.0264 9.32328V38.6746C50.0264 39.2929 49.5206 39.7987 48.9023 39.7987H51.1362C51.7545 39.7987 52.2602 39.2929 52.2602 38.6746V9.32328C52.2602 8.705 51.7545 8.19922 51.1362 8.19922Z" fill="#006DF0"/>
<path d="M42.4788 36.7181C44.2404 36.7181 45.6685 35.29 45.6685 33.5285C45.6685 31.7669 44.2404 30.3389 42.4788 30.3389C40.7172 30.3389 39.2891 31.7669 39.2891 33.5285C39.2891 35.29 40.7172 36.7181 42.4788 36.7181Z" fill="#FFE177"/>
<path fill-rule="evenodd" clip-rule="evenodd" d="M43.2148 29.3086C44.9764 29.3086 46.4045 30.7366 46.4045 32.4983C46.4045 34.2599 44.9764 35.6879 43.2148 35.6879C43.0147 35.6879 42.8189 35.6693 42.6289 35.634C44.1105 35.3589 45.2326 34.0596 45.2326 32.4983C45.2326 30.9369 44.1106 29.6378 42.6289 29.3625C42.8222 29.3266 43.0183 29.3086 43.2148 29.3086Z" fill="#FFD064"/>
<path fill-rule="evenodd" clip-rule="evenodd" d="M47.6869 14.2734C47.9355 14.2734 48.174 14.3722 48.3498 14.548C48.5256 14.7238 48.6244 14.9623 48.6244 15.2109C48.6244 15.4596 48.5256 15.698 48.3498 15.8739C48.174 16.0497 47.9355 16.1484 47.6869 16.1484H38.7422C38.4935 16.1484 38.2551 16.0497 38.0793 15.8739C37.9035 15.698 37.8047 15.4596 37.8047 15.2109C37.8047 14.9623 37.9035 14.7238 38.0793 14.548C38.2551 14.3722 38.4935 14.2734 38.7422 14.2734H47.6869ZM47.6869 20.7091C47.9355 20.7091 48.174 20.8079 48.3498 20.9837C48.5256 21.1595 48.6244 21.398 48.6244 21.6466C48.6244 21.8953 48.5256 22.1337 48.3498 22.3096C48.174 22.4854 47.9355 22.5841 47.6869 22.5841H38.7422C38.4935 22.5841 38.2551 22.4854 38.0793 22.3096C37.9035 22.1337 37.8047 21.8953 37.8047 21.6466C37.8047 21.398 37.9035 21.1595 38.0793 20.9837C38.2551 20.8079 38.4935 20.7091 38.7422 20.7091H47.6869Z" fill="#ECEFF1"/>
<path d="M26.1291 56.017C33.3866 56.017 39.2699 50.1336 39.2699 42.8762C39.2699 35.6187 33.3866 29.7354 26.1291 29.7354C18.8716 29.7354 12.9883 35.6187 12.9883 42.8762C12.9883 50.1336 18.8716 56.017 26.1291 56.017Z" fill="#FFE177"/>
<path fill-rule="evenodd" clip-rule="evenodd" d="M26.1314 29.7354C33.3889 29.7354 39.2723 35.6187 39.2723 42.8762C39.2723 50.1336 33.389 56.017 26.1314 56.017C25.8338 56.017 25.5387 56.0061 25.2461 55.9866C32.0905 55.5311 37.5017 49.8361 37.5017 42.8762C37.5017 35.9163 32.0907 30.2211 25.2461 29.7657C25.5387 29.7463 25.8338 29.7354 26.1314 29.7354Z" fill="#FFD064"/>
<path d="M26.128 52.9104C31.6698 52.9104 36.1623 48.4179 36.1623 42.8761C36.1623 37.3343 31.6698 32.8418 26.128 32.8418C20.5863 32.8418 16.0938 37.3343 16.0938 42.8761C16.0938 48.4179 20.5863 52.9104 26.128 52.9104Z" fill="#FFC338"/>
<path fill-rule="evenodd" clip-rule="evenodd" d="M26.128 32.8418C20.5863 32.8418 16.0938 37.3343 16.0938 42.8761C16.0938 48.4179 20.5863 52.9104 26.128 52.9104C26.4005 52.9104 26.6704 52.8991 26.9373 52.8778C21.7739 52.4657 17.7122 48.1454 17.7122 42.8761C17.7122 37.6068 21.7739 33.2865 26.9373 32.8744C26.6681 32.8528 26.3981 32.8419 26.128 32.8418Z" fill="#F5B829"/>
<path fill-rule="evenodd" clip-rule="evenodd" d="M29.9491 39.4651C30.04 39.6933 30.0378 39.9481 29.9427 40.1747C29.8477 40.4013 29.6675 40.5815 29.4409 40.6766C29.2144 40.7716 28.9595 40.7739 28.7313 40.683C28.503 40.592 28.3196 40.4151 28.2205 40.1902C27.9331 39.5055 27.3872 39.1102 26.7877 38.9582C26.4108 38.8636 26.0176 38.854 25.6366 38.9303C25.2767 39.0028 24.9453 39.1493 24.6864 39.3598C24.3627 39.6229 24.1574 40.0021 24.1803 40.4717C24.2011 40.9009 24.4251 41.1951 24.7373 41.3989C25.1582 41.6737 25.7382 41.8263 26.2901 41.9169C27.08 42.0465 27.9422 42.263 28.6639 42.6987C29.4948 43.2004 30.1216 43.955 30.2624 45.1149C30.2733 45.2046 30.2801 45.311 30.283 45.4333C30.3084 46.4953 29.8243 47.2863 29.0968 47.8384C28.5184 48.2772 27.7894 48.5471 27.0684 48.668V49.2256C27.0684 49.4743 26.9696 49.7127 26.7938 49.8885C26.6179 50.0644 26.3795 50.1631 26.1309 50.1631C25.8822 50.1631 25.6438 50.0644 25.4679 49.8885C25.2921 49.7127 25.1934 49.4743 25.1934 49.2256V48.65C24.6061 48.5367 24.0461 48.3185 23.5608 47.9953C22.8159 47.4991 22.245 46.767 22.0036 45.7986C21.9743 45.6793 21.9687 45.5555 21.9873 45.434C22.0058 45.3126 22.0481 45.1961 22.1117 45.091C22.1753 44.9859 22.259 44.8944 22.3579 44.8216C22.4569 44.7489 22.5692 44.6964 22.6885 44.667C22.8077 44.6377 22.9316 44.6321 23.053 44.6507C23.1744 44.6692 23.291 44.7115 23.3961 44.7751C23.5012 44.8387 23.5927 44.9224 23.6654 45.0213C23.7382 45.1203 23.7907 45.2326 23.82 45.3519C23.9384 45.8265 24.2221 46.188 24.5935 46.4353C25.0526 46.741 25.6419 46.8869 26.24 46.8726C26.34 46.8703 26.461 46.8605 26.6017 46.8436C27.108 46.7821 27.6125 46.6222 27.9688 46.3517C28.2422 46.1443 28.4243 45.8553 28.4153 45.4774C28.4129 45.4297 28.4085 45.3821 28.4021 45.3348C28.3432 44.8502 28.0661 44.5257 27.6971 44.3029C27.2188 44.0142 26.5847 43.8604 25.9898 43.7627C25.226 43.6373 24.3971 43.409 23.7191 42.9664C22.9326 42.4529 22.3675 41.693 22.3125 40.5597C22.2579 39.434 22.7426 38.5313 23.5073 37.9098C23.9829 37.523 24.5685 37.253 25.1934 37.1157V36.5264C25.1934 36.2777 25.2921 36.0393 25.4679 35.8635C25.6438 35.6876 25.8822 35.5889 26.1309 35.5889C26.3795 35.5889 26.6179 35.6876 26.7938 35.8635C26.9696 36.0393 27.0684 36.2777 27.0684 36.5264V37.1019C27.1265 37.1141 27.1844 37.1273 27.2419 37.142C28.3757 37.4292 29.4073 38.1747 29.9491 39.4651Z" fill="#FFE177"/>
</svg>
