<svg width="56" height="56" viewBox="0 0 56 56" fill="none" xmlns="http://www.w3.org/2000/svg">
<path d="M11.9517 13.668L24.2069 9.20914L24.8054 10.8541L12.5502 15.313L11.9517 13.668Z" fill="#68607C"/>
<path d="M30.0015 11.9961L31.2387 10.7588L45.2363 24.7565L43.9991 25.9937L30.0015 11.9961Z" fill="#68607C"/>
<path d="M32.2544 26.8145L32.4923 25.0811L42.9958 26.5225L42.7579 28.2559L32.2544 26.8145Z" fill="#68607C"/>
<path d="M10.9756 17.8506L11.7578 16.2861L25.7515 23.2829L24.9693 24.8474L10.9756 17.8506Z" fill="#68607C"/>
<path d="M11.562 40.9014L12.3464 39.3361L24.8765 45.6151L24.0921 47.1804L11.562 40.9014Z" fill="#68607C"/>
<path d="M27.125 28.875H28.875V43.75H27.125V28.875Z" fill="#68607C"/>
<path d="M10.2666 34.5166L25.0102 11.7778L26.4785 12.7298L11.7349 35.4686L10.2666 34.5166Z" fill="#68607C"/>
<path d="M30.3052 44.4316L44.11 29.9875L45.3752 31.1968L31.5704 45.6409L30.3052 44.4316Z" fill="#68607C"/>
<path d="M10.2344 19.9346L11.7394 19.0403L26.1623 43.3137L24.6573 44.208L10.2344 19.9346Z" fill="#68607C"/>
<path d="M14.875 38.5C14.875 39.4887 14.6475 40.4163 14.2275 41.2388C13.23 43.2513 11.1475 44.625 8.75 44.625C5.36375 44.625 2.625 41.8862 2.625 38.5C2.625 35.1137 5.36375 32.375 8.75 32.375C9.98375 32.375 11.1213 32.7337 12.075 33.355C13.7638 34.4487 14.875 36.3387 14.875 38.5Z" fill="#4E9BB9"/>
<path d="M32.6463 43.2688C33.5738 44.3363 34.125 45.7275 34.125 47.25C34.125 50.6362 31.3862 53.375 28 53.375C24.6137 53.375 21.875 50.6362 21.875 47.25C21.875 46.5413 21.9975 45.8675 22.2162 45.2375C22.6362 44.0038 23.4412 42.9625 24.4912 42.2275C25.48 41.5275 26.6875 41.125 28 41.125C29.8637 41.125 31.535 41.9563 32.6463 43.2688Z" fill="#91CBD7"/>
<path d="M47.25 21.875C50.6362 21.875 53.375 24.6137 53.375 28C53.375 31.3862 50.6362 34.125 47.25 34.125C45.605 34.125 44.1175 33.4862 43.0237 32.4187C41.8512 31.3162 41.125 29.7413 41.125 28C41.125 27.72 41.1425 27.4487 41.1862 27.1775C41.3612 25.8125 41.9912 24.5962 42.9187 23.6687C44.03 22.5575 45.5525 21.875 47.25 21.875Z" fill="#FFD086"/>
<path d="M34.0638 26.1975C33.67 29.19 31.1062 31.5 28 31.5C24.6137 31.5 21.875 28.7612 21.875 25.375C21.875 24.3863 22.1025 23.4588 22.5225 22.6363C23.52 20.6238 25.6025 19.25 28 19.25C31.3862 19.25 34.125 21.9887 34.125 25.375C34.125 25.655 34.1075 25.9263 34.0638 26.1975Z" fill="#ED6571"/>
<path d="M28 2.625C31.3862 2.625 34.125 5.36375 34.125 8.75C34.125 10.4475 33.4425 11.97 32.3313 13.0813C31.22 14.1925 29.6975 14.875 28 14.875C26.7663 14.875 25.6288 14.5162 24.675 13.895C23.5638 13.1775 22.6975 12.11 22.2425 10.8413C22.0063 10.1938 21.875 9.485 21.875 8.75C21.875 5.36375 24.6137 2.625 28 2.625Z" fill="#F69489"/>
<path d="M14.5075 13.6587C14.7437 14.3062 14.875 15.015 14.875 15.75C14.875 16.7387 14.6475 17.6662 14.2275 18.4887C13.7025 19.5387 12.8888 20.4138 11.8825 21.0087C10.9725 21.56 9.89625 21.875 8.75 21.875C5.36375 21.875 2.625 19.1362 2.625 15.75C2.625 12.3637 5.36375 9.625 8.75 9.625C11.4012 9.625 13.65 11.305 14.5075 13.6587Z" fill="#91CBD7"/>
</svg>
