<svg width="45" height="45" viewBox="0 0 45 45" fill="none" xmlns="http://www.w3.org/2000/svg">
<path d="M36.2705 5.59793H35.0177L22.4997 7.40879L9.98174 5.59793H8.54799C7.00214 5.59793 5.74902 4.34481 5.74902 2.79896C5.74893 1.25312 7.00214 0 8.54799 0H36.2705C37.8164 0 39.0695 1.25312 39.0695 2.79896C39.0696 4.34481 37.8164 5.59793 36.2705 5.59793Z" fill="#0087FF"/>
<path d="M36.4516 0H33.7354C35.2812 0 36.5343 1.25312 36.5343 2.79896C36.5343 4.34481 35.2812 5.59793 33.7354 5.59793H36.4516C37.9975 5.59793 39.2506 4.34481 39.2506 2.79896C39.2507 1.25312 37.9975 0 36.4516 0Z" fill="#2D9CFF"/>
<path d="M34.8368 9.11137V5.59766H9.98193V9.11137C9.98193 14.5621 13.4659 19.1984 18.3283 20.9166C18.9994 21.1537 19.4481 21.788 19.4481 22.4996C19.4481 23.2114 18.9994 23.8457 18.3283 24.0827C13.4659 25.8008 9.98193 30.4372 9.98193 35.8879V39.4016H34.8367V35.8879C34.8367 30.4372 31.3528 25.8008 26.4903 24.0827C25.8192 23.8456 25.3705 23.2113 25.3705 22.4996H25.5516C25.5516 21.7879 25.8192 21.1537 26.4903 20.9166C31.3528 19.1985 34.8368 14.5621 34.8368 9.11137Z" fill="#EFEDEF"/>
<path d="M9.98193 5.59766V7.37221H30.5624C31.5229 7.37221 32.3016 8.15089 32.3016 9.11137C32.3016 14.5451 28.8392 19.1696 24.0005 20.9005C23.4018 21.1146 22.9438 21.6257 22.853 22.255C22.7365 23.0625 23.208 23.8187 23.9552 24.0827C28.8176 25.8008 32.3016 30.4373 32.3016 35.8879V39.4016H35.0179V35.8879C35.0179 30.4541 31.5555 25.8296 26.7168 24.0988C26.1181 23.8847 25.6601 23.3736 25.5693 22.7443C25.4528 21.9368 25.9243 21.1806 26.6715 20.9166C31.5339 19.1984 35.0179 14.562 35.0179 9.11137V7.3723V5.59766H9.98193Z" fill="#D7D0D6"/>
<path d="M36.2705 44.9996H8.54799C7.00214 44.9996 5.74902 43.7465 5.74902 42.2006C5.74902 40.6548 7.00214 39.4017 8.54799 39.4017H9.98192L22.4999 37.5908L35.0179 39.4017H36.2707C37.8165 39.4017 39.0697 40.6548 39.0697 42.2006C39.0696 43.7465 37.8164 44.9996 36.2705 44.9996Z" fill="#0087FF"/>
<path d="M36.4516 39.4023H33.7354C35.2812 39.4023 36.5343 40.6555 36.5343 42.2013C36.5343 43.7472 35.2812 45.0003 33.7354 45.0003H36.4516C37.9975 45.0003 39.2506 43.7472 39.2506 42.2013C39.2507 40.6555 37.9975 39.4023 36.4516 39.4023Z" fill="#2D9CFF"/>
<path d="M28.5277 29.5825H27.2093C25.8835 29.5825 24.5713 28.6233 24.3544 27.3154L23.8165 24.071C23.5427 22.4197 24.8164 20.9174 26.4903 20.9174C29.7386 19.7696 32.3697 17.3185 33.7599 14.1934H11.0586C12.4488 17.3186 15.08 19.7696 18.3282 20.9174C20.0021 20.9174 21.2758 22.4197 21.002 24.071L20.4641 27.3154C20.2473 28.6233 19.116 29.5825 17.7903 29.5825H16.2908C12.8344 29.5825 10.0008 32.3635 9.98211 35.8198C9.98202 35.8428 9.98193 35.8658 9.98193 35.8888V39.4025H34.8367V35.8888C34.8367 35.8658 34.8366 35.8428 34.8365 35.8198C34.8178 32.3635 31.9841 29.5825 28.5277 29.5825Z" fill="#FED402"/>
<path d="M35.0176 35.8198C34.9989 32.3635 32.1653 29.5825 28.7089 29.5825H27.2094C25.8835 29.5825 24.7524 28.6233 24.5355 27.3154L23.9976 24.071C23.7238 22.4197 24.9976 20.9174 26.6714 20.9174C29.9197 19.7696 32.5508 17.3185 33.9411 14.1934H31.2248C29.8346 17.3186 27.2034 19.7696 23.9551 20.9174C22.2813 20.9174 21.0075 22.4197 21.2813 24.071L21.8192 27.3154C22.0361 28.6233 23.1673 29.5825 24.4931 29.5825H25.9926C29.449 29.5825 32.2827 32.3635 32.3013 35.8198C32.3014 35.8428 32.3015 35.8658 32.3015 35.8888V39.4025H35.0178V35.8888C35.0178 35.8658 35.0177 35.8428 35.0176 35.8198Z" fill="#FAC600"/>
</svg>
