<svg width="44" height="45" viewBox="0 0 44 45" fill="none" xmlns="http://www.w3.org/2000/svg">
<path d="M15.7803 20.6676C15.7803 23.8511 18.3708 26.4416 21.5543 26.4416C24.7378 26.4416 27.3283 23.8511 27.3283 20.6676C27.3283 17.4841 24.7378 14.8936 21.5543 14.8936C18.3708 14.8936 15.7803 17.4841 15.7803 20.6676ZM21.5543 17.0159C23.5706 17.0159 25.206 18.6513 25.206 20.6676C25.206 22.6839 23.5706 24.3193 21.5543 24.3193C19.538 24.3193 17.9026 22.6839 17.9026 20.6676C17.9026 18.6514 19.538 17.0159 21.5543 17.0159Z" fill="white"/>
<path d="M25.4057 28.1588L17.6716 28.1338C17.6716 28.1338 17.6715 28.1338 17.6653 28.1338C13.4331 28.1338 9.99365 31.5732 9.99365 35.8055V43.034C9.99365 44.1201 10.8738 45.0003 11.9599 45.0003H31.0923C32.1971 45.0003 33.0586 44.1451 33.0586 43.0528V35.8242C33.0586 31.5982 29.6254 28.1588 25.4057 28.1588ZM30.9362 42.8779H28.583V35.8555C28.583 35.3749 28.1896 34.9815 27.709 34.9815C27.2284 34.9815 26.8351 35.3749 26.8351 35.8555V42.8779H16.2172V35.8555C16.2172 35.3749 15.8239 34.9815 15.3433 34.9815C14.8627 34.9815 14.4694 35.3749 14.4694 35.8555V42.8779H12.1161V35.7993C12.1161 32.7406 14.6068 30.2561 17.6655 30.2561L25.3933 30.2811C25.3933 30.2811 25.3933 30.2811 25.3996 30.2811C28.452 30.2811 30.9363 32.7656 30.9363 35.8242L30.9362 42.8779Z" fill="white"/>
<path d="M11.5357 11.5481C14.7193 11.5481 17.3098 8.95755 17.3098 5.77403C17.3098 2.59051 14.7193 0 11.5357 0C8.35223 0 5.76172 2.59051 5.76172 5.77403C5.76172 8.95755 8.35223 11.5481 11.5357 11.5481ZM11.5357 2.12235C13.552 2.12235 15.1874 3.75775 15.1874 5.77403C15.1874 7.79031 13.552 9.42571 11.5357 9.42571C9.51947 9.42571 7.88406 7.79031 7.88406 5.77403C7.88406 3.75775 9.51947 2.12235 11.5357 2.12235Z" fill="white"/>
<path d="M11.1361 28.8637C11.1361 28.2769 10.6617 27.8025 10.0749 27.8025H6.22354V20.7862C6.22354 20.3056 5.83023 19.9123 5.34963 19.9123C4.86903 19.9123 4.47573 20.3056 4.47573 20.7862V27.8087H2.12235V20.7363C2.12235 17.6776 4.61301 15.1869 7.67168 15.1869H15.412C15.8177 15.1869 16.2047 15.2306 16.6042 15.318C16.6791 15.3368 16.7603 15.343 16.8351 15.343C17.3221 15.343 17.759 15.0059 17.8713 14.5127C17.9962 13.9385 17.6404 13.3767 17.0661 13.2455C16.5167 13.1207 15.9737 13.0645 15.4119 13.0645H7.67168C3.43942 13.0645 0 16.5039 0 20.7361V27.9646C0 29.0508 0.880125 29.9309 1.96629 29.9309H10.0749C10.6617 29.9248 11.1361 29.4505 11.1361 28.8637Z" fill="white"/>
<path d="M31.548 11.5481C34.7315 11.5481 37.322 8.95755 37.322 5.77403C37.322 2.59051 34.7315 0 31.548 0C28.3644 0 25.7739 2.59051 25.7739 5.77403C25.7739 8.95755 28.3644 11.5481 31.548 11.5481ZM31.548 2.12235C33.5642 2.12235 35.1996 3.75775 35.1996 5.77403C35.1996 7.79031 33.5642 9.42571 31.548 9.42571C29.5317 9.42571 27.8963 7.79031 27.8963 5.77403C27.8963 3.75775 29.5317 2.12235 31.548 2.12235Z" fill="white"/>
<path d="M40.8055 15.3058C39.3573 13.8576 37.4285 13.0586 35.3872 13.0586L27.6531 13.0648C27.0975 13.0648 26.5607 13.121 26.0177 13.2459C25.4435 13.3707 25.0876 13.9387 25.2124 14.5131C25.3248 15.0062 25.7618 15.3433 26.2486 15.3433C26.3235 15.3433 26.4047 15.3371 26.4795 15.3183C26.8728 15.2309 27.2474 15.1873 27.6531 15.1873L35.3872 15.1811C36.8665 15.1811 38.2586 15.7616 39.3073 16.8102C40.3561 17.859 40.9365 19.2509 40.9365 20.7304V27.8028H38.5833V20.7866C38.5833 20.306 38.19 19.9127 37.7094 19.9127C37.2288 19.9127 36.8355 20.306 36.8355 20.7866V27.8091H32.9841C32.3973 27.8091 31.9229 28.2834 31.9229 28.8702C31.9229 29.457 32.3973 29.9314 32.9841 29.9314H41.0865C42.1727 29.9314 43.0528 29.0513 43.0528 27.9651V20.7351V20.7305C43.0527 18.6829 42.2536 16.7603 40.8055 15.3058Z" fill="white"/>
</svg>
