<svg width="62" height="53" viewBox="0 0 62 53" fill="none" xmlns="http://www.w3.org/2000/svg">
<path d="M41.8005 33.1935H31.7102C31.4189 33.1893 31.1399 33.0754 30.9289 32.8744L27.8149 29.7604C27.5103 29.4516 27.147 29.2068 26.7464 29.0405C26.3457 28.8742 25.9159 28.7897 25.4822 28.792H19.7933C18.9186 28.7947 18.0804 29.1433 17.4619 29.7618C16.8434 30.3803 16.4948 31.2184 16.4922 32.0931V49.6989C16.4948 50.5736 16.8434 51.4118 17.4619 52.0303C18.0804 52.6488 18.9186 52.9974 19.7933 53H41.8005C42.6752 52.9974 43.5134 52.6488 44.1319 52.0303C44.7504 51.4118 45.099 50.5736 45.1016 49.6989V36.4946C45.099 35.6199 44.7504 34.7818 44.1319 34.1632C43.5134 33.5447 42.6752 33.1961 41.8005 33.1935Z" fill="#FDB43A"/>
<path d="M30.4759 41.5562H28.0724C28.0554 41.3573 28.0099 41.1769 27.9361 41.015C27.8651 40.8531 27.7656 40.7139 27.6378 40.5974C27.5128 40.4781 27.3608 40.3872 27.1818 40.3247C27.0028 40.2593 26.7997 40.2267 26.5724 40.2267C26.1747 40.2267 25.8381 40.3232 25.5625 40.5164C25.2898 40.7096 25.0824 40.9866 24.9403 41.3474C24.8011 41.7082 24.7315 42.1414 24.7315 42.6471C24.7315 43.1812 24.8026 43.6286 24.9446 43.9894C25.0895 44.3474 25.2983 44.6173 25.571 44.7991C25.8438 44.9781 26.1719 45.0676 26.5554 45.0676C26.7741 45.0676 26.9702 45.0406 27.1435 44.9866C27.3168 44.9298 27.4673 44.8488 27.5952 44.7437C27.723 44.6386 27.8267 44.5122 27.9062 44.3644C27.9886 44.2139 28.044 44.0448 28.0724 43.8573L30.4759 43.8744C30.4474 44.2437 30.3438 44.6201 30.1648 45.0036C29.9858 45.3843 29.7315 45.7366 29.402 46.0605C29.0753 46.3815 28.6705 46.64 28.1875 46.836C27.7045 47.032 27.1435 47.1301 26.5043 47.1301C25.7031 47.1301 24.9844 46.9582 24.348 46.6144C23.7145 46.2707 23.2131 45.765 22.8438 45.0974C22.4773 44.4298 22.294 43.613 22.294 42.6471C22.294 41.6755 22.4815 40.8573 22.8565 40.1926C23.2315 39.5249 23.7372 39.0207 24.3736 38.6798C25.0099 38.336 25.7202 38.1642 26.5043 38.1642C27.0554 38.1642 27.5625 38.2394 28.0256 38.39C28.4886 38.5406 28.8949 38.7607 29.2443 39.0505C29.5938 39.3374 29.875 39.6911 30.0881 40.1116C30.3011 40.532 30.4304 41.0136 30.4759 41.5562ZM31.5508 47.0107V38.2835H35.3178C35.9656 38.2835 36.5323 38.4113 37.0181 38.667C37.5039 38.9227 37.8817 39.282 38.1516 39.7451C38.4215 40.2082 38.5565 40.7494 38.5565 41.3687C38.5565 41.9937 38.4173 42.5349 38.1388 42.9923C37.8633 43.4497 37.4755 43.8019 36.9755 44.0491C36.4783 44.2963 35.8974 44.4198 35.2326 44.4198H32.9826V42.5789H34.7553C35.0337 42.5789 35.271 42.5306 35.467 42.434C35.6658 42.3346 35.8178 42.194 35.9229 42.0122C36.0309 41.8303 36.0849 41.6159 36.0849 41.3687C36.0849 41.1187 36.0309 40.9056 35.9229 40.7295C35.8178 40.5505 35.6658 40.4142 35.467 40.3204C35.271 40.2238 35.0337 40.1755 34.7553 40.1755H33.9201V47.0107H31.5508Z" fill="white"/>
<path d="M53.3735 21.5813C53.4365 21.2052 53.4661 20.8237 53.4621 20.4417C53.4583 18.3273 52.6649 16.3006 51.2556 14.8054C49.8463 13.3103 47.936 12.4686 45.943 12.4645C45.546 12.4642 45.1496 12.4996 44.7581 12.5703C44.2636 9.07513 42.6034 5.88425 40.0794 3.57754C37.5554 1.27084 34.3351 0.00142345 31.0037 1.19641e-06C27.6724 -0.00142106 24.4511 1.26524 21.9254 3.56979C19.3996 5.87434 17.7371 9.0638 17.2398 12.5585C16.8438 12.4972 16.4441 12.4657 16.0438 12.4645C14.0508 12.4686 12.1405 13.3103 10.7313 14.8054C9.32197 16.3006 8.52856 18.3273 8.52476 20.4417C8.52077 20.8275 8.55043 21.213 8.61335 21.593C6.16001 21.8731 3.90115 23.1401 2.30148 25.1332C0.701813 27.1264 -0.116996 29.6942 0.0135114 32.3084C0.144019 34.9225 1.21392 37.3842 3.00309 39.187C4.79227 40.9897 7.16464 41.9964 9.63213 42H14.3828V31.0622C14.3834 29.5045 14.9669 28.0107 16.0051 26.9092C17.0434 25.8078 18.4514 25.1887 19.9197 25.188H25.6448C26.3766 25.1829 27.1018 25.3343 27.7772 25.633C28.4526 25.9317 29.0644 26.3718 29.576 26.9268L32.3666 29.8874H42.0672C43.5355 29.888 44.9435 30.5071 45.9817 31.6086C47.02 32.7101 47.6035 34.2039 47.6041 35.7616V42H52.3547C54.9117 41.996 57.3628 40.9166 59.1708 38.9984C60.9788 37.0802 61.9962 34.4798 62 31.7671C61.9992 29.2396 61.118 26.8014 59.5257 24.9213C57.9334 23.0412 55.7423 21.8516 53.3735 21.5813Z" fill="#0087FF"/>
<path d="M18.8643 23.9629L16.2905 15.2356H18.9325L20.1257 20.6049H20.1939L21.6087 15.2356H23.6882L25.103 20.622H25.1712L26.3643 15.2356H29.0064L26.4325 23.9629H24.1655L22.6825 19.0879H22.6143L21.1314 23.9629H18.8643ZM29.7734 23.9629V15.2356H32.1428V18.6447H35.2791V15.2356H37.6484V23.9629H35.2791V20.5538H32.1428V23.9629H29.7734ZM38.7734 15.2356H41.7223L43.7507 20.1788H43.853L45.8814 15.2356H48.8303V23.9629H46.5121V18.9174H46.4439L44.5007 23.8947H43.103L41.1598 18.8833H41.0916V23.9629H38.7734V15.2356Z" fill="white"/>
</svg>
