<svg width="49" height="49" viewBox="0 0 49 49" fill="none" xmlns="http://www.w3.org/2000/svg">
<path d="M0 21.0083V27.9297L6.05258 28.6602C6.52479 30.7572 7.3532 32.7578 8.5018 34.5748L4.70981 39.3473L9.60437 44.2415L14.4023 40.4766C16.2188 41.6261 18.2191 42.4556 20.3161 42.9288L21.0083 48.9844H27.9297L28.6602 42.9318C30.7572 42.4596 32.7578 41.6312 34.5748 40.4826L39.3465 44.2754L44.2406 39.3809L40.4766 34.5821C41.6261 32.7656 42.4556 30.7653 42.9288 28.6683L48.9844 27.9761V21.0547L42.9318 20.3242C42.4595 18.227 41.6311 16.2263 40.4826 14.4091L44.2754 9.63961L39.38 4.74289L34.5821 8.50781C32.7657 7.35779 30.7654 6.52792 28.6683 6.0543L27.9761 0H21.0547L20.3242 6.05258C18.2271 6.52479 16.2266 7.3532 14.4096 8.5018L9.64004 4.70895L4.74289 9.60437L8.50781 14.4023C7.35779 16.2187 6.52792 18.219 6.0543 20.3161L0 21.0083Z" fill="#0087FF"/>
<path d="M28.6613 36.2389C31.4297 35.256 33.7619 33.3266 35.246 30.7914C36.7302 28.2561 37.2709 25.2779 36.7726 22.3828C36.2744 19.4876 34.7693 16.8615 32.523 14.9682C30.2768 13.0749 27.4338 12.0361 24.4961 12.0352C21.5583 12.0342 18.7147 13.0713 16.4673 14.9632C14.2199 16.8552 12.7131 19.4803 12.2131 22.3752C11.7131 25.2701 12.2519 28.2485 13.7345 30.7847C15.2171 33.3209 17.5481 35.2517 20.3159 36.2363L28.6613 36.2389Z" fill="#F1F1FB"/>
<path d="M15.4688 24.4923C15.4689 26.1407 15.9208 27.7575 16.7754 29.167C17.63 30.5765 18.8546 31.7248 20.3161 32.4871V42.9285L21.0083 48.9845H27.9297L28.6602 42.932V32.4905C30.1236 31.7291 31.3501 30.5807 32.2061 29.1704C33.062 27.7601 33.5146 26.142 33.5146 24.4923C33.5146 22.8426 33.062 21.2245 32.2061 19.8143C31.3501 18.404 30.1236 17.2556 28.6602 16.4941V24.4923H20.3161V16.4976C18.8546 17.2599 17.63 18.4082 16.7754 19.8177C15.9208 21.2272 15.4689 22.844 15.4688 24.4923Z" fill="#FDB43A"/>
<path d="M22.5586 22.7734H26.4258V26.2109H22.5586V22.7734Z" fill="#0087FF"/>
</svg>
