<svg width="64" height="64" viewBox="0 0 64 64" fill="none" xmlns="http://www.w3.org/2000/svg">
<path d="M58 7H6C2.7 7 0 9.7 0 13V50C0 53.3 2.7 56 6 56H58C61.3 56 64 53.3 64 50V13C64 9.7 61.3 7 58 7ZM6 11H58C59.1 11 60 11.9 60 13V19H4V13C4 11.9 4.9 11 6 11ZM58 52H6C4.9 52 4 51.1 4 50V23H60V50C60 51.1 59.1 52 58 52Z" fill="white"/>
<path d="M28.3 27.6C27.5 26.8 26.2 26.8 25.5 27.6L17.6 35.6C16.8 36.4 16.8 37.6 17.6 38.4L25.5 46.4C25.9 46.8 26.4 47 26.9 47C27.4 47 27.9 46.8 28.3 46.4C29.1 45.6 29.1 44.4 28.3 43.6L21.8 37L28.3 30.4C29.1 29.6 29.1 28.4 28.3 27.6Z" fill="white"/>
<path d="M38.4996 27.6C37.6996 26.8 36.4996 26.8 35.6996 27.6C34.8996 28.4 34.8996 29.6 35.6996 30.4L42.1996 37L35.6996 43.6C34.8996 44.4 34.8996 45.7 35.6996 46.4C36.0996 46.8 36.5996 47 37.0996 47C37.5996 47 38.0996 46.8 38.4996 46.4L46.3996 38.4C47.1996 37.6 47.1996 36.4 46.3996 35.6L38.4996 27.6Z" fill="white"/>
</svg>
