<svg width="513" height="513" viewBox="0 0 513 513" fill="none" xmlns="http://www.w3.org/2000/svg">
<g clip-path="url(#clip0_325_193)">
<path d="M176.884 390.503L101.36 480.196C82.8911 502.129 49.6071 503.554 29.3321 483.279C9.0571 463.004 10.4821 429.719 32.4151 411.251L122.248 335.608" stroke="white" stroke-width="30" stroke-miterlimit="10" stroke-linecap="round" stroke-linejoin="round"/>
<path d="M55.676 399.013L114.927 458.264" stroke="white" stroke-width="30" stroke-miterlimit="10" stroke-linecap="round" stroke-linejoin="round"/>
<path d="M292.037 425.645C405.295 425.645 497.109 333.831 497.109 220.573C497.109 107.315 405.295 15.501 292.037 15.501C178.779 15.501 86.9651 107.315 86.9651 220.573C86.9651 333.831 178.779 425.645 292.037 425.645Z" stroke="white" stroke-width="30" stroke-miterlimit="10" stroke-linecap="round" stroke-linejoin="round"/>
<path d="M296.729 174.355H256.66V269.45H296.729" stroke="white" stroke-width="27" stroke-miterlimit="10" stroke-linecap="round" stroke-linejoin="round"/>
<path d="M293.775 221.902H256.66" stroke="white" stroke-width="27" stroke-miterlimit="10" stroke-linecap="round" stroke-linejoin="round"/>
<path d="M203.38 183.782C203.38 183.782 186.159 169.306 165.851 175.424C147.204 181.041 144.596 202.542 158.087 211.337C158.087 211.337 171.325 217.243 186.007 222.658C221.35 235.695 206.126 269.887 177.674 269.887C163.426 269.887 151.468 263.647 144.23 255.661" stroke="white" stroke-width="27" stroke-miterlimit="10" stroke-linecap="round" stroke-linejoin="round"/>
<path d="M391.86 269.888C418.362 269.888 439.846 248.404 439.846 221.902C439.846 195.4 418.362 173.916 391.86 173.916C365.358 173.916 343.874 195.4 343.874 221.902C343.874 248.404 365.358 269.888 391.86 269.888Z" stroke="white" stroke-width="27" stroke-miterlimit="10" stroke-linecap="round" stroke-linejoin="round"/>
</g>
<defs>
<clipPath id="clip0_325_193">
<rect width="512.11" height="512.11" fill="white" transform="translate(0 0.5)"/>
</clipPath>
</defs>
</svg>
