<svg width="60" height="60" viewBox="0 0 60 60" fill="none" xmlns="http://www.w3.org/2000/svg">
<path d="M56.9215 43.1251H27.095C26.9841 43.1251 26.8742 43.1032 26.7717 43.0607C26.6691 43.0183 26.576 42.956 26.4975 42.8776C26.419 42.7991 26.3568 42.7059 26.3143 42.6034C26.2719 42.5009 26.25 42.391 26.25 42.28V13.1251L29.7472 10.3408H54.6036L57.7665 13.1251V42.28C57.7665 42.391 57.7447 42.5009 57.7022 42.6034C57.6598 42.706 57.5975 42.7991 57.5191 42.8776C57.4406 42.9561 57.3474 43.0183 57.2449 43.0608C57.1424 43.1032 57.0325 43.1251 56.9215 43.1251Z" fill="#F0FCFF"/>
<path d="M56.8366 10.3408H53.2148L56.3777 13.1251V42.28C56.3777 42.391 56.3559 42.5009 56.3134 42.6034C56.2709 42.7059 56.2087 42.7991 56.1302 42.8776C56.0518 42.956 55.9586 43.0183 55.8561 43.0607C55.7536 43.1032 55.6437 43.1251 55.5327 43.1251H59.1545C59.2655 43.1251 59.3753 43.1032 59.4779 43.0607C59.5804 43.0183 59.6736 42.956 59.752 42.8776C59.8305 42.7991 59.8927 42.7059 59.9352 42.6034C59.9777 42.5009 59.9995 42.391 59.9995 42.28V13.1251L56.8366 10.3408Z" fill="#D7ECFE"/>
<path d="M30.1178 54.3753H0.845039C0.62093 54.3752 0.406009 54.2862 0.247541 54.1277C0.0890717 53.9693 3.10723e-05 53.7543 0 53.5302L0 24.3753L3.19875 21.6602H27.6035L30.9628 24.3753V53.5302C30.9628 53.7543 30.8737 53.9693 30.7153 54.1277C30.5568 54.2862 30.3419 54.3752 30.1178 54.3753Z" fill="#F0FCFF"/>
<path d="M30.3913 21.6602H26.7695L30.1288 24.3753V53.5302C30.1288 53.7544 30.0398 53.9693 29.8813 54.1278C29.7228 54.2862 29.5079 54.3753 29.2838 54.3753H32.9056C33.1297 54.3753 33.3446 54.2862 33.5031 54.1278C33.6616 53.9693 33.7506 53.7544 33.7506 53.5302V24.3753L30.3913 21.6602Z" fill="#D7ECFE"/>
<path d="M56.3782 13.125H26.25V6.47004C26.25 6.24592 26.339 6.03098 26.4975 5.87251C26.656 5.71403 26.8709 5.625 27.095 5.625H57.3441C57.5682 5.625 57.7831 5.71403 57.9416 5.87251C58.1001 6.03098 58.1891 6.24592 58.1891 6.47004L56.3782 13.125Z" fill="#0087FF"/>
<path d="M59.153 5.625H55.5312C55.7554 5.625 55.9703 5.71403 56.1288 5.87251C56.2873 6.03098 56.3763 6.24592 56.3763 6.47004V13.125H59.9981V6.47004C59.9981 6.24593 59.909 6.03101 59.7505 5.87254C59.5921 5.71407 59.3772 5.62503 59.153 5.625Z" fill="#323FD4"/>
<path d="M30.1282 24.375H0V17.72C0 17.4959 0.0890306 17.281 0.247506 17.1225C0.405982 16.964 0.620921 16.875 0.845039 16.875H30.3906C30.6147 16.875 30.8296 16.964 30.9881 17.1225C31.1466 17.281 31.2356 17.4959 31.2356 17.72L30.1282 24.375Z" fill="#0087FF"/>
<path d="M32.903 16.875H29.2812C29.5054 16.875 29.7203 16.964 29.8788 17.1225C30.0373 17.281 30.1263 17.4959 30.1263 17.72V24.375H33.7481V17.72C33.7481 17.4959 33.659 17.281 33.5005 17.1225C33.3421 16.9641 33.1272 16.875 32.903 16.875Z" fill="#323FD4"/>
<path d="M21.3355 33.681L17.2201 37.7964C14.7567 40.2598 14.3652 44.0106 16.0456 46.8834C16.3632 47.4262 20.6912 51.5609 26.1422 46.8497L30.2576 42.7343C34.8767 38.395 31.001 32.8516 30.4794 32.5402C27.5995 30.821 23.8153 31.2013 21.3355 33.681ZM29.2904 36.3327C30.7549 37.7972 30.7549 40.1716 29.2904 41.636L25.175 45.7514C23.7105 47.2159 21.3362 47.2159 19.8717 45.7514C18.4072 44.2869 18.4072 41.9126 19.8717 40.4481L23.9871 36.3327C25.4516 34.8682 27.8259 34.8682 29.2904 36.3327Z" fill="#FFC344"/>
<path d="M31.9434 33.6809C31.5048 33.2416 31.0134 32.8584 30.4806 32.54C32.1611 35.4127 31.7696 39.1635 29.3062 41.6269L25.1908 45.7423C22.711 48.2221 18.9268 48.6022 16.0469 46.8831C16.3717 47.4378 16.7664 47.9485 17.2213 48.4028C20.1503 51.3316 24.899 51.3316 27.828 48.4028L31.9434 44.2874C34.8722 41.3585 34.8722 36.6098 31.9434 33.6809Z" fill="#FEB137"/>
<path d="M35.9203 19.0971L31.9428 23.0746C29.5631 25.4543 29.1168 29.0355 30.6042 31.8658C30.9474 32.5189 35.7952 37.0582 41.1999 32.1279L45.1774 28.1505C50.1056 23.0877 45.6698 18.3334 45.1976 18.038C42.3022 16.2257 38.4385 16.5788 35.9203 19.0971ZM43.8752 21.7487C45.3397 23.2132 45.3397 25.5876 43.8752 27.0521L39.8977 31.0295C38.4332 32.494 36.0589 32.494 34.5944 31.0295C33.1299 29.565 33.1299 27.1907 34.5944 25.7262L38.5719 21.7487C40.0364 20.2842 42.4107 20.2842 43.8752 21.7487Z" fill="#FFC344"/>
<path d="M46.5274 19.0972C46.1258 18.6951 45.6799 18.3398 45.1982 18.0381C46.6596 20.6674 46.4186 23.9889 44.4757 26.39C44.3161 26.5872 44.1468 26.7761 43.9684 26.9563C43.9381 26.9886 43.9073 27.0206 43.8758 27.0523L39.8983 31.0297C39.8216 31.1064 39.7416 31.1798 39.6586 31.2497C37.1411 33.5027 33.468 33.7591 30.6875 32.019C31.0268 32.6288 31.4494 33.1883 31.9433 33.6813C34.8723 36.6102 39.6209 36.6102 42.5499 33.6813L46.5274 29.7039C49.4564 26.7749 49.4564 22.0261 46.5274 19.0972Z" fill="#FEB137"/>
<path d="M34.8796 31.4847L29.5763 36.7881C28.8441 37.5202 27.4714 36.9413 27.4284 36.5286C27.399 36.2509 27.4321 35.9701 27.5254 35.7068C27.6187 35.4436 27.7697 35.2045 27.9674 35.0073L33.2707 29.704C33.6026 29.3711 34.0478 29.1756 34.5174 29.1565C35.0233 29.1352 35.6119 30.7525 34.8796 31.4847Z" fill="#FFE177"/>
<path d="M35.9196 29.7036C35.7363 29.5198 35.5167 29.3762 35.2748 29.2819C35.0329 29.1877 34.774 29.1448 34.5147 29.1561C34.5441 29.4338 34.5109 29.7146 34.4177 29.9778C34.3244 30.2411 34.1734 30.4801 33.9757 30.6774L28.6724 35.9807C28.3405 36.3135 27.8954 36.509 27.4258 36.5282C27.47 36.9558 27.6603 37.355 27.9647 37.6585C28.6969 38.3907 29.8841 38.3907 30.6163 37.6585L35.9196 32.3552C36.6518 31.623 36.6518 30.4359 35.9196 29.7036Z" fill="#F9D45D"/>
<path d="M30.467 8.47031C29.9738 8.47031 29.5631 8.87062 29.5631 9.37535C29.5631 9.88184 29.9782 10.2807 30.4685 10.2807C30.9628 10.2807 31.3739 9.87902 31.3739 9.37535C31.3739 8.87496 30.9683 8.47031 30.467 8.47031ZM34.2221 8.46973C33.7827 8.46973 33.3126 8.8125 33.3126 9.37535C33.3126 9.86344 33.7092 10.2807 34.218 10.2807C34.7103 10.2807 35.1234 9.88137 35.1234 9.37535C35.1236 8.85668 34.6981 8.46973 34.2221 8.46973ZM37.9677 8.47031C37.4627 8.47031 37.0626 8.88211 37.0626 9.37535C37.0626 9.85898 37.4571 10.2807 37.968 10.2807C38.4894 10.2807 38.8746 9.85207 38.8746 9.37535C38.8746 8.89078 38.4826 8.47031 37.9677 8.47031ZM4.2152 19.7201C3.73074 19.7201 3.3125 20.1158 3.3125 20.6245C3.3125 21.1355 3.7332 21.5312 4.21918 21.5312C4.70855 21.5312 5.12328 21.1339 5.12328 20.6245C5.12333 20.5054 5.09985 20.3875 5.05418 20.2775C5.00852 20.1675 4.94157 20.0676 4.85719 19.9836C4.77281 19.8996 4.67266 19.833 4.56248 19.7878C4.45231 19.7426 4.33429 19.7196 4.2152 19.7201ZM7.96449 19.7201C7.44078 19.7201 7.06344 20.1478 7.06344 20.6245C7.06344 21.1167 7.45883 21.5299 7.96883 21.5299C8.48352 21.5299 8.87422 21.1089 8.87422 20.6245C8.87434 20.0657 8.40887 19.7201 7.96449 19.7201ZM11.722 19.7201C11.2188 19.7201 10.8132 20.1252 10.8132 20.6258C10.8132 21.0579 11.1554 21.53 11.7186 21.53C12.2191 21.53 12.624 21.1227 12.624 20.6258C12.624 20.1282 12.2182 19.7201 11.722 19.7201Z" fill="white"/>
<path d="M4.21789 30.9055H14.9995C15.2396 30.9055 15.4699 30.8101 15.6397 30.6403C15.8095 30.4705 15.9049 30.2402 15.9049 30.0001C15.9049 29.76 15.8095 29.5297 15.6397 29.3599C15.4699 29.1901 15.2396 29.0947 14.9995 29.0947H4.21789C3.97777 29.0947 3.74748 29.1901 3.57768 29.3599C3.40789 29.5297 3.3125 29.76 3.3125 30.0001C3.3125 30.2402 3.40789 30.4705 3.57768 30.6403C3.74748 30.8101 3.97777 30.9055 4.21789 30.9055ZM4.21789 34.5866H12.1719C12.412 34.5866 12.6423 34.4912 12.8121 34.3214C12.9819 34.1516 13.0773 33.9213 13.0773 33.6812C13.0773 33.4411 12.9819 33.2108 12.8121 33.041C12.6423 32.8712 12.412 32.7758 12.1719 32.7758H4.21789C3.98029 32.7796 3.75371 32.8767 3.58704 33.0461C3.42036 33.2155 3.32695 33.4436 3.32695 33.6812C3.32695 33.9188 3.42036 34.147 3.58704 34.3163C3.75371 34.4857 3.98029 34.5828 4.21789 34.5866ZM55.6531 38.2975H44.8715C44.6314 38.2975 44.4011 38.3929 44.2313 38.5626C44.0615 38.7324 43.9661 38.9627 43.9661 39.2029C43.9661 39.443 44.0615 39.6733 44.2313 39.8431C44.4011 40.0129 44.6314 40.1082 44.8715 40.1082H55.6531C55.772 40.1083 55.8898 40.0848 55.9996 40.0394C56.1095 39.9939 56.2093 39.9272 56.2934 39.8431C56.3774 39.759 56.4441 39.6592 56.4896 39.5493C56.5351 39.4395 56.5585 39.3218 56.5585 39.2029C56.5585 39.0839 56.5351 38.9662 56.4896 38.8564C56.4441 38.7465 56.3774 38.6467 56.2934 38.5626C56.2093 38.4785 56.1095 38.4118 55.9996 38.3663C55.8898 38.3209 55.772 38.2974 55.6531 38.2975ZM55.6531 34.7542H47.699C47.4589 34.7542 47.2286 34.8496 47.0588 35.0194C46.889 35.1892 46.7936 35.4194 46.7936 35.6596C46.7936 35.8997 46.889 36.13 47.0588 36.2998C47.2286 36.4696 47.4589 36.565 47.699 36.565H55.6531C55.772 36.565 55.8898 36.5416 55.9996 36.4961C56.1095 36.4506 56.2093 36.3839 56.2934 36.2998C56.3774 36.2157 56.4441 36.1159 56.4896 36.0061C56.5351 35.8962 56.5585 35.7785 56.5585 35.6596C56.5585 35.5407 56.5351 35.4229 56.4896 35.3131C56.4441 35.2032 56.3774 35.1034 56.2934 35.0193C56.2093 34.9353 56.1095 34.8686 55.9996 34.8231C55.8898 34.7776 55.772 34.7542 55.6531 34.7542ZM4.21789 49.6555H11.2495C11.4896 49.6555 11.7199 49.5601 11.8897 49.3903C12.0595 49.2205 12.1549 48.9902 12.1549 48.7501C12.1549 48.51 12.0595 48.2797 11.8897 48.1099C11.7199 47.9401 11.4896 47.8447 11.2495 47.8447H4.21789C3.97777 47.8447 3.74748 47.9401 3.57768 48.1099C3.40789 48.2797 3.3125 48.51 3.3125 48.7501C3.3125 48.9902 3.40789 49.2205 3.57768 49.3903C3.74748 49.5601 3.97777 49.6555 4.21789 49.6555ZM4.21789 46.1435H11.2495C11.4896 46.1435 11.7199 46.0481 11.8897 45.8783C12.0595 45.7085 12.1549 45.4783 12.1549 45.2381C12.1549 44.998 12.0595 44.7677 11.8897 44.5979C11.7199 44.4281 11.4896 44.3327 11.2495 44.3327H4.21789C3.98029 44.3366 3.75371 44.4336 3.58704 44.603C3.42036 44.7724 3.32695 45.0005 3.32695 45.2381C3.32695 45.4758 3.42036 45.7039 3.58704 45.8732C3.75371 46.0426 3.98029 46.1397 4.21789 46.1435Z" fill="#0087FF"/>
</svg>
