<svg width="24" height="24" viewBox="0 0 24 24" fill="none" xmlns="http://www.w3.org/2000/svg">
<path d="M4.2901 2.6377H4.28442C3.41635 2.6504 2.71031 3.36731 2.71031 4.23581V6.51957H0.35325C0.158156 6.51957 0 6.67773 0 6.87282C0 7.06792 0.158156 7.22608 0.35325 7.22608H2.71036V9.08337H0.35325C0.158156 9.08337 0 9.24152 0 9.43662C0 9.63171 0.158156 9.78987 0.35325 9.78987H2.71036V11.6471H0.35325C0.158156 11.6472 0 11.8053 0 12.0004C0 12.1955 0.158156 12.3537 0.35325 12.3537H2.71036V14.2109H0.35325C0.158156 14.2109 0 14.3691 0 14.5642C0 14.7593 0.158156 14.9174 0.35325 14.9174H2.71036V16.7747H0.35325C0.158156 16.7747 0 16.9329 0 17.128C0 17.323 0.158156 17.4812 0.35325 17.4812H2.71036V18.6892C2.71036 18.8842 2.86861 19.0424 3.06361 19.0424C3.25861 19.0424 3.41686 18.8842 3.41686 18.6892V4.23586C3.41686 3.75117 3.81061 3.35132 4.2953 3.34378C4.4903 3.34096 4.64621 3.18079 4.64293 2.98532C4.64007 2.7922 4.48275 2.6377 4.2901 2.6377Z" fill="black" fill-opacity="0.3"/>
<path d="M19.2268 20.5103H4.3091C3.94502 20.5103 3.62097 20.2927 3.48297 19.9559C3.409 19.7751 3.20317 19.6889 3.02233 19.7628C2.84144 19.8368 2.75528 20.0431 2.8292 20.2234C3.076 20.8268 3.65678 21.2168 4.3091 21.2168H6.51939V23.6469C6.51939 23.842 6.67755 24.0001 6.87264 24.0001C7.06774 24.0001 7.22589 23.842 7.22589 23.6469V21.2168H9.08318V23.6469C9.08318 23.842 9.24133 24.0001 9.43643 24.0001C9.63152 24.0001 9.78968 23.842 9.78968 23.6469V21.2168H11.6469V23.6469C11.6469 23.842 11.8051 24.0001 12.0002 24.0001C12.1953 24.0001 12.3534 23.842 12.3534 23.6469V21.2168H14.2107V23.6469C14.2107 23.842 14.3688 24.0001 14.5639 24.0001C14.759 24.0001 14.9171 23.842 14.9171 23.6469V21.2168H16.7744V23.6469C16.7744 23.842 16.9326 24.0001 17.1277 24.0001C17.3228 24.0001 17.4809 23.842 17.4809 23.6469V21.2168H19.2268C19.4218 21.2168 19.58 21.0585 19.58 20.8635C19.58 20.6681 19.4218 20.5103 19.2268 20.5103Z" fill="black" fill-opacity="0.3"/>
<path d="M16.7912 6.00684H7.20906C6.58638 6.00684 6.08008 6.51318 6.08008 7.13583V16.7185C6.08008 17.3412 6.58642 17.8475 7.20906 17.8475H16.7912C17.4139 17.8475 17.9202 17.3411 17.9202 16.7185V7.13583C17.9202 6.51314 17.4139 6.00684 16.7912 6.00684ZM6.78653 7.13583C6.78653 6.90267 6.97586 6.71334 7.20902 6.71334H14.5161V10.4027C13.8775 10.5407 13.373 11.0452 13.2351 11.6839H10.6318V9.8724C11.2992 9.74195 11.8042 9.15268 11.8042 8.44758C11.8042 7.64733 11.1528 6.99595 10.3521 6.99595C9.64699 6.99595 9.05781 7.50084 8.92727 8.16778H6.78653V7.13583ZM14.8695 11.0716C15.4017 11.0716 15.8346 11.5049 15.8346 12.0371C15.8346 12.5694 15.4017 13.0023 14.8695 13.0023C14.3334 13.0023 13.9039 12.5651 13.9039 12.0371C13.9039 11.5082 14.3346 11.0716 14.8695 11.0716ZM10.3521 9.19318C9.94357 9.19318 9.60649 8.86093 9.60649 8.44758C9.60649 8.03686 9.94089 7.70245 10.3521 7.70245C10.7633 7.70245 11.0977 8.03686 11.0977 8.44758C11.0977 8.86233 10.76 9.19318 10.3521 9.19318ZM8.82649 14.9668C8.6216 14.8519 8.48313 14.6319 8.48313 14.3809C8.48313 14.0102 8.78505 13.7087 9.15574 13.7087C9.52642 13.7087 9.82788 14.0102 9.82788 14.3809C9.82783 14.8945 9.27227 15.2188 8.82649 14.9668ZM11.6835 17.141H9.31352V15.7506C9.99977 15.6724 10.5344 15.0878 10.5344 14.3809C10.5344 13.6206 9.91596 13.0022 9.15574 13.0022C8.39505 13.0022 7.77663 13.6206 7.77663 14.3809C7.77663 14.9461 8.11858 15.4336 8.60702 15.646V17.141H7.20906C6.97591 17.141 6.78658 16.9512 6.78658 16.7185V8.87429H8.96402C8.96702 8.87916 9.15686 9.59949 9.92533 9.83565V12.0371C9.92533 12.2321 10.0836 12.3904 10.2786 12.3904H11.6835V17.141ZM17.2137 16.7185C17.2137 16.9512 17.0244 17.141 16.7912 17.141H12.39V15.6133H17.2137V16.7185ZM17.2137 14.9068H12.39V12.3904H13.2351C13.3976 13.1431 14.0688 13.7088 14.8695 13.7088C15.7912 13.7088 16.5411 12.9589 16.5411 12.0371C16.5411 11.2364 15.9754 10.5653 15.2227 10.4027C15.2227 10.4027 15.2227 10.4027 15.2226 10.4027V6.71334H16.7912C17.0243 6.71334 17.2136 6.90267 17.2136 7.13583V14.9068H17.2137Z" fill="black" fill-opacity="0.3"/>
<path d="M23.6465 9.78956C23.8416 9.78956 23.9997 9.63141 23.9997 9.43631C23.9997 9.24122 23.8416 9.08306 23.6465 9.08306H21.2894V7.22577H23.6465C23.8416 7.22577 23.9997 7.06761 23.9997 6.87252C23.9997 6.67742 23.8416 6.51927 23.6465 6.51927H21.2894V4.23551C21.2894 3.35425 20.5725 2.63692 19.6908 2.63692H17.4805V0.353252C17.4805 0.158157 17.3223 0 17.1272 0C16.9321 0 16.774 0.158157 16.774 0.353252V2.63687H14.9167V0.353252C14.9167 0.158157 14.7586 0 14.5635 0C14.3684 0 14.2102 0.158157 14.2102 0.353252V2.63687H12.353V0.353252C12.353 0.158157 12.1948 0 11.9997 0C11.8046 0 11.6465 0.158157 11.6465 0.353252V2.63687H9.78924V0.353252C9.78924 0.158157 9.63108 0 9.43599 0C9.24089 0 9.08274 0.158157 9.08274 0.353252V2.63687H7.22545V0.353252C7.22545 0.158157 7.0673 0 6.8722 0C6.67711 0 6.51895 0.158157 6.51895 0.353252V2.63687H5.70286C5.50739 2.63687 5.34961 2.79512 5.34961 2.99012C5.34961 3.18512 5.50739 3.34338 5.70286 3.34338C7.55335 3.34338 18.2098 3.34338 19.6908 3.34338C20.183 3.34338 20.5829 3.74374 20.5829 4.23546V19.6181C20.5829 19.8645 20.4849 20.0939 20.3064 20.2639C20.1651 20.3986 20.1594 20.6223 20.2942 20.7631C20.3639 20.8361 20.4567 20.8729 20.5499 20.8729C20.6375 20.8729 20.7251 20.8404 20.7939 20.7754C21.1133 20.4706 21.2894 20.0595 21.2894 19.6181V17.4809H23.6465C23.8416 17.4809 23.9998 17.3227 23.9998 17.1276C23.9998 16.9325 23.8416 16.7743 23.6465 16.7743H21.2894V14.9171H23.6465C23.8416 14.9171 23.9998 14.7589 23.9998 14.5638C23.9998 14.3687 23.8416 14.2106 23.6465 14.2106H21.2894V12.3533H23.6465C23.8416 12.3533 23.9998 12.1952 23.9998 12.0001C23.9998 11.805 23.8416 11.6468 23.6465 11.6468H21.2894V9.78956H23.6465Z" fill="black" fill-opacity="0.3"/>
</svg>
