<svg width="24" height="24" viewBox="0 0 24 24" fill="none" xmlns="http://www.w3.org/2000/svg">
<g clip-path="url(#clip0_255_1435)">
<path d="M9.89062 6.32812C9.50231 6.32812 9.1875 6.64294 9.1875 7.03125V12.6562C9.1875 13.0446 9.50231 13.3594 9.89062 13.3594C10.2789 13.3594 10.5938 13.0446 10.5938 12.6562V7.03125C10.5938 6.64294 10.2789 6.32812 9.89062 6.32812ZM14.1094 6.32812H12.7031C12.3148 6.32812 12 6.64294 12 7.03125V12.6562C12 13.0446 12.3148 13.3594 12.7031 13.3594C13.0914 13.3594 13.4062 13.0446 13.4062 12.6562V10.5469H14.1094C15.2725 10.5469 16.2188 9.60061 16.2188 8.4375C16.2188 7.27439 15.2725 6.32812 14.1094 6.32812ZM14.1094 9.14062H13.4062V7.73438H14.1094C14.4971 7.73438 14.8125 8.0498 14.8125 8.4375C14.8125 8.8252 14.4971 9.14062 14.1094 9.14062Z" fill="black" fill-opacity="0.3"/>
<path d="M12 0C6.57216 0 2.15625 4.41591 2.15625 9.84375C2.15625 12.3496 3.10205 14.7387 4.81622 16.5674L11.4839 23.7744C11.5497 23.8456 11.6295 23.9023 11.7183 23.9412C11.8072 23.98 11.9031 24.0001 12 24.0001C12.0969 24.0001 12.1928 23.98 12.2817 23.9412C12.3705 23.9023 12.4503 23.8456 12.5161 23.7744L19.1806 16.5708C20.898 14.7387 21.8438 12.3496 21.8438 9.84375C21.8438 4.41591 17.4278 0 12 0ZM18.1515 15.6124L12 22.2615L5.84536 15.609C4.3732 14.0385 3.5625 11.991 3.5625 9.84375C3.5625 5.19131 7.34756 1.40625 12 1.40625C16.6524 1.40625 20.4375 5.19131 20.4375 9.84375C20.4375 11.9911 19.6267 14.0385 18.1515 15.6124Z" fill="black" fill-opacity="0.3"/>
<path d="M12 2.8125C8.12297 2.8125 4.96875 5.96672 4.96875 9.84375C4.96875 13.7208 8.12297 16.875 12 16.875C15.877 16.875 19.0312 13.7208 19.0312 9.84375C19.0312 5.96672 15.877 2.8125 12 2.8125ZM12 15.4688C8.89838 15.4688 6.375 12.9454 6.375 9.84375C6.375 6.74213 8.89838 4.21875 12 4.21875C15.1016 4.21875 17.625 6.74213 17.625 9.84375C17.625 12.9454 15.1016 15.4688 12 15.4688Z" fill="black" fill-opacity="0.3"/>
</g>
<defs>
<clipPath id="clip0_255_1435">
<rect width="24" height="24" fill="white"/>
</clipPath>
</defs>
</svg>
