<svg width="60" height="60" viewBox="0 0 60 60" fill="none" xmlns="http://www.w3.org/2000/svg">
<g clip-path="url(#clip0_208_1582)">
<path d="M10.9642 0C10.2974 0 9.75695 0.540469 9.75695 1.20727V55.122C9.75695 57.816 7.57293 60 4.87891 60H43.9033C46.5973 60 48.7813 57.816 48.7813 55.122V1.20727C48.7813 0.540469 48.2409 0 47.5741 0H10.9642Z" fill="#E4F6FF"/>
<path d="M10.9642 0C10.2974 0 9.75695 0.540469 9.75695 1.20727V55.122C9.75695 57.816 7.57293 60 4.87891 60H43.9033C46.5973 60 48.7813 57.816 48.7813 55.122V1.20727C48.7813 0.540469 48.2409 0 47.5741 0H10.9642Z" fill="#F1F1FB"/>
<path d="M43.6603 42.9268H14.8797C14.2062 42.9268 13.6602 43.4727 13.6602 44.1463V54.878C13.6602 55.5515 14.2061 56.0975 14.8797 56.0975H43.6603C44.3338 56.0975 44.8797 55.5515 44.8797 54.878V44.1463C44.8797 43.4727 44.3338 42.9268 43.6603 42.9268Z" fill="#0087FF"/>
<path d="M45.8537 0V55.122C45.8537 57.816 43.6697 60 40.9757 60H43.9025C46.5966 60 48.7806 57.816 48.7806 55.122V1.20727C48.7805 0.540469 48.24 0 47.5732 0H45.8537ZM9.75609 55.122C9.75609 57.7842 7.62328 59.9484 4.9732 59.9991C2.2384 60.0514 0 57.7608 0 55.0256V12.4391C0 11.092 1.09195 10.0001 2.43902 10.0001H9.75609V55.122Z" fill="#006DF0"/>
<path d="M2.4375 10C3.78457 10 4.87652 11.092 4.87652 12.439V49.7684C4.87652 50.4352 5.41699 50.9757 6.08379 50.9757H9.75457V10H2.4375Z" fill="#0087FF"/>
<path d="M57.561 3.90234H32.439C31.092 3.90234 30 4.9943 30 6.34137V30.2438C30 31.5908 31.092 32.6828 32.439 32.6828H33.422C33.5171 32.6828 33.6113 32.7015 33.6992 32.7379C33.7871 32.7743 33.8669 32.8276 33.9342 32.8949C34.0015 32.9622 34.0548 33.042 34.0912 33.1299C34.1276 33.2178 34.1463 33.312 34.1463 33.4071V36.5583C34.1463 37.1627 34.8429 37.5013 35.3182 37.1278L40.6473 32.9407C40.86 32.7736 41.1227 32.6828 41.3932 32.6828H57.561C58.908 32.6828 60 31.5908 60 30.2438V6.34137C60 4.9943 58.908 3.90234 57.561 3.90234Z" fill="#FDB43A"/>
<path d="M53.9833 16.5494L45.013 7.57774C44.4839 7.05 43.6281 7.05624 43.106 7.57707C42.5809 8.10351 42.5809 8.95828 43.106 9.48404L52.0776 18.4551C52.6032 18.9807 53.4577 18.9807 53.9833 18.4551C54.5103 17.9281 54.5103 17.0763 53.9833 16.5494ZM42.4405 10.7242L42.373 11.0627C41.8974 13.4417 40.7415 15.7017 39.1782 17.5335L44.0588 22.4141C45.8904 20.8511 48.1193 19.6642 50.4984 19.1881L50.8374 19.1206L42.4405 10.7242ZM38.2834 18.5444L34.9478 21.8793C34.1597 22.6675 34.1564 23.947 34.9478 24.7385L36.8535 26.6442C37.6416 27.4323 38.9212 27.4355 39.7126 26.6442L43.0479 23.3089L38.2834 18.5444ZM38.7598 23.7857C38.4966 24.0489 38.0702 24.0489 37.807 23.7857C37.5438 23.5225 37.5438 23.096 37.807 22.8328L38.7598 21.88C39.023 21.6168 39.4495 21.6168 39.7127 21.88C39.9759 22.1432 39.9759 22.5697 39.7127 22.8328L38.7598 23.7857ZM45.8613 27.0027L46.7779 26.0861C47.5694 25.2947 47.5668 24.0152 46.778 23.2277L46.0972 22.5463C45.7208 22.7991 45.3615 23.0738 45.0121 23.3668L45.8252 24.1811C46.0877 24.4424 46.0896 24.8675 45.8252 25.1333L44.8934 26.0651L43.5241 24.7384L41.6183 26.6442L44.6756 29.6066C45.1973 30.1297 46.0539 30.1327 46.5806 29.6059C47.1063 29.0802 47.1063 28.2254 46.5806 27.6996L45.8613 27.0027ZM48.5835 7C48.211 7 47.9097 7.30138 47.9097 7.67383V9.02148C47.9097 9.39393 48.211 9.69531 48.5835 9.69531C48.9559 9.69531 49.2573 9.39393 49.2573 9.02148V7.67383C49.2573 7.30138 48.9559 7 48.5835 7ZM53.9741 12.3906H52.6265C52.254 12.3906 51.9526 12.692 51.9526 13.0645C51.9526 13.4369 52.254 13.7383 52.6265 13.7383H53.9741C54.3466 13.7383 54.6479 13.4369 54.6479 13.0645C54.6479 12.692 54.3466 12.3906 53.9741 12.3906ZM53.1029 8.54504C52.8397 8.28185 52.4132 8.28185 52.15 8.54504L50.8024 9.8927C50.5392 10.1559 50.5392 10.5823 50.8024 10.8455C51.0656 11.1087 51.492 11.1088 51.7552 10.8455L53.1029 9.49788C53.3661 9.23468 53.3661 8.80824 53.1029 8.54504Z" fill="white"/>
<path d="M25.7843 19.5122H13.9735C13.3 19.5122 12.7539 18.9662 12.7539 18.2927V5.12191C12.7539 4.44844 13.2999 3.90234 13.9735 3.90234H25.7843C26.4578 3.90234 27.0039 4.44832 27.0039 5.12191V18.2926C27.0039 18.9662 26.4578 19.5122 25.7843 19.5122Z" fill="#0087FF"/>
<path d="M26.0983 24.3196H13.6593C13.4192 24.3196 13.1889 24.2242 13.0191 24.0544C12.8493 23.8846 12.7539 23.6543 12.7539 23.4142C12.7539 23.1741 12.8493 22.9438 13.0191 22.774C13.1889 22.6042 13.4192 22.5088 13.6593 22.5088H26.0983C26.3384 22.5088 26.5687 22.6042 26.7385 22.774C26.9083 22.9438 27.0037 23.1741 27.0037 23.4142C27.0037 23.6543 26.9083 23.8846 26.7385 24.0544C26.5687 24.2242 26.3384 24.3196 26.0983 24.3196ZM26.0983 28.222H13.6593C13.4192 28.222 13.1889 28.1266 13.0191 27.9568C12.8493 27.7871 12.7539 27.5568 12.7539 27.3166C12.7539 27.0765 12.8493 26.8462 13.0191 26.6764C13.1889 26.5066 13.4192 26.4113 13.6593 26.4113H26.0983C26.3384 26.4113 26.5687 26.5066 26.7385 26.6764C26.9083 26.8462 27.0037 27.0765 27.0037 27.3166C27.0037 27.5568 26.9083 27.7871 26.7385 27.9568C26.5687 28.1266 26.3384 28.222 26.0983 28.222ZM26.0983 32.1245H13.6593C13.4192 32.1245 13.1889 32.0291 13.0191 31.8593C12.8493 31.6895 12.7539 31.4592 12.7539 31.2191C12.7539 30.979 12.8493 30.7487 13.0191 30.5789C13.1889 30.4091 13.4192 30.3137 13.6593 30.3137H26.0983C26.3384 30.3137 26.5687 30.4091 26.7385 30.5789C26.9083 30.7487 27.0037 30.979 27.0037 31.2191C27.0037 31.4592 26.9083 31.6895 26.7385 31.8593C26.5687 32.0291 26.3384 32.1245 26.0983 32.1245ZM26.0983 36.027H13.6593C13.4192 36.027 13.1889 35.9316 13.0191 35.7618C12.8493 35.592 12.7539 35.3617 12.7539 35.1216C12.7539 34.8814 12.8493 34.6512 13.0191 34.4814C13.1889 34.3116 13.4192 34.2162 13.6593 34.2162H26.0983C26.3384 34.2162 26.5687 34.3116 26.7385 34.4814C26.9083 34.6512 27.0037 34.8814 27.0037 35.1216C27.0037 35.3617 26.9083 35.592 26.7385 35.7618C26.5687 35.9316 26.3384 36.027 26.0983 36.027ZM22.4398 39.9293H13.6593C13.4192 39.9293 13.1889 39.8339 13.0191 39.6641C12.8493 39.4943 12.7539 39.264 12.7539 39.0239C12.7539 38.7838 12.8493 38.5535 13.0191 38.3837C13.1889 38.2139 13.4192 38.1185 13.6593 38.1185H22.4398C22.6799 38.1185 22.9102 38.2139 23.08 38.3837C23.2498 38.5535 23.3452 38.7838 23.3452 39.0239C23.3452 39.264 23.2498 39.4943 23.08 39.6641C22.9102 39.8339 22.6799 39.9293 22.4398 39.9293Z" fill="#0087FF"/>
</g>
<defs>
<clipPath id="clip0_208_1582">
<rect width="60" height="60" fill="white"/>
</clipPath>
</defs>
</svg>
