<svg width="58" height="58" viewBox="0 0 58 58" fill="none" xmlns="http://www.w3.org/2000/svg">
<path d="M18.1334 4.27388H25.337V20.7198H18.1334V4.27388Z" fill="#A4C9FF"/>
<path d="M25.337 21.173H18.1334C17.8833 21.173 17.6803 20.9699 17.6803 20.7198V4.27388C17.6803 4.02375 17.8833 3.82076 18.1334 3.82076H25.337C25.5871 3.82076 25.7901 4.02375 25.7901 4.27388V20.7198C25.7901 20.9702 25.5873 21.173 25.337 21.173ZM18.5865 20.2667H24.8839V4.727H18.5865V20.2667Z" fill="#3762CC"/>
<path d="M27.4437 6.99217H16.0268C14.5256 6.99217 13.3085 5.77508 13.3085 4.27388C13.3085 2.77267 14.5256 1.55558 16.0268 1.55558H27.4437C28.9449 1.55558 30.162 2.77267 30.162 4.27388C30.162 5.77508 28.9449 6.99217 27.4437 6.99217Z" fill="#0087FF"/>
<path d="M27.4437 7.4453H16.0265C14.2777 7.4453 12.8551 6.02271 12.8551 4.27388C12.8551 2.52504 14.2779 1.10246 16.0265 1.10246H27.4437C29.1925 1.10246 30.6151 2.52504 30.6151 4.27388C30.6151 6.02271 29.1925 7.4453 27.4437 7.4453ZM16.0265 2.00871C14.7775 2.00871 13.7614 3.02484 13.7614 4.27388C13.7614 5.52292 14.7775 6.53905 16.0265 6.53905H27.4437C28.6927 6.53905 29.7089 5.52292 29.7089 4.27388C29.7089 3.02484 28.6927 2.00871 27.4437 2.00871H16.0265Z" fill="#3762CC"/>
<path d="M21.8019 51.8348C33.4674 51.8348 42.9241 42.3781 42.9241 30.7126C42.9241 19.0471 33.4674 9.59039 21.8019 9.59039C10.1364 9.59039 0.679688 19.0471 0.679688 30.7126C0.679688 42.3781 10.1364 51.8348 21.8019 51.8348Z" fill="#0087FF"/>
<path d="M21.8019 52.2877C9.90531 52.2877 0.226562 42.6089 0.226562 30.7126C0.226562 18.8162 9.90531 9.13727 21.8019 9.13727C33.6985 9.13727 43.3772 18.816 43.3772 30.7126C43.3772 42.6092 33.6982 52.2877 21.8019 52.2877ZM21.8019 10.0435C10.4049 10.0435 1.13281 19.3156 1.13281 30.7126C1.13281 42.1096 10.4049 51.3817 21.8019 51.3817C33.1989 51.3817 42.471 42.1096 42.471 30.7126C42.471 19.3156 33.1987 10.0435 21.8019 10.0435Z" fill="#0087FF"/>
<path d="M21.8019 47.19C30.9021 47.19 38.2793 39.8128 38.2793 30.7126C38.2793 21.6124 30.9021 14.2352 21.8019 14.2352C12.7017 14.2352 5.32446 21.6124 5.32446 30.7126C5.32446 39.8128 12.7017 47.19 21.8019 47.19Z" fill="#E0EBFC"/>
<path d="M21.8517 47.6431C21.6066 47.6431 21.4047 47.4474 21.3991 47.2009L21.3488 45.1204C21.3427 44.8702 21.5407 44.6625 21.7908 44.6566C21.7944 44.6564 21.798 44.6564 21.8019 44.6564C22.047 44.6564 22.2489 44.8521 22.2546 45.0986L22.3049 47.1791C22.311 47.4293 22.113 47.637 21.8628 47.6429C21.8592 47.6431 21.8556 47.6431 21.8517 47.6431Z" fill="#3762CC"/>
<path d="M21.8019 47.6432C12.4664 47.6432 4.87134 40.0481 4.87134 30.7124C4.87134 21.3766 12.4662 13.7818 21.8019 13.7818C31.1376 13.7818 38.7325 21.3766 38.7325 30.7124C38.7325 40.0481 31.1374 47.6432 21.8019 47.6432ZM21.8019 14.6883C12.9662 14.6883 5.77759 21.8769 5.77759 30.7126C5.77759 39.5485 12.9662 46.7371 21.8019 46.7371C30.6376 46.7371 37.8262 39.5485 37.8262 30.7126C37.826 21.8769 30.6376 14.6883 21.8019 14.6883Z" fill="#3762CC"/>
<path d="M16.7498 37.499C16.4598 37.499 16.17 37.3885 15.9487 37.1671C15.5062 36.7249 15.5062 36.0076 15.9487 35.5653L20.7192 30.7946V19.7993C20.7192 19.1735 21.2265 18.6665 21.852 18.6665C22.4775 18.6665 22.9848 19.1735 22.9848 19.7993V31.264C22.9848 31.5645 22.8654 31.8527 22.6531 32.0649L17.5509 37.1674C17.3296 37.3883 17.0398 37.499 16.7498 37.499Z" fill="#0087FF"/>
<path d="M21.8517 16.7688C21.6066 16.7688 21.4047 16.5731 21.3991 16.3266L21.3488 14.246C21.3427 13.9959 21.5407 13.7881 21.7908 13.7823C21.7944 13.782 21.798 13.782 21.8019 13.782C22.047 13.782 22.2489 13.9778 22.2546 14.2243L22.3049 16.3048C22.311 16.5549 22.113 16.7627 21.8628 16.7686C21.8592 16.7688 21.8556 16.7688 21.8517 16.7688Z" fill="#3762CC"/>
<path d="M36.2237 31.1909C35.9785 31.1909 35.7767 30.9951 35.771 30.7486C35.7649 30.4985 35.9629 30.2907 36.213 30.2848L38.2936 30.2345C38.2972 30.2343 38.3008 30.2343 38.3047 30.2343C38.5498 30.2343 38.7517 30.4301 38.7573 30.6766C38.7634 30.9267 38.5654 31.1344 38.3153 31.1403L36.2348 31.1906C36.2312 31.1909 36.2273 31.1909 36.2237 31.1909Z" fill="#3762CC"/>
<path d="M5.34917 31.1909C5.10403 31.1909 4.90216 30.9951 4.8965 30.7486C4.89038 30.4985 5.0884 30.2907 5.33852 30.2848L7.41905 30.2345C7.42267 30.2343 7.4263 30.2343 7.43015 30.2343C7.67529 30.2343 7.87716 30.4301 7.88282 30.6766C7.88894 30.9267 7.69092 31.1344 7.4408 31.1403L5.36027 31.1906C5.35688 31.1909 5.35302 31.1909 5.34917 31.1909Z" fill="#3762CC"/>
<path d="M33.4959 42.7992C33.3835 42.7992 33.2711 42.7576 33.1832 42.6742L31.6768 41.2385C31.4955 41.0656 31.4887 40.779 31.6614 40.5977C31.8345 40.4165 32.1211 40.4104 32.3021 40.5823L33.8085 42.0181C33.9898 42.1909 33.9966 42.4775 33.8239 42.6588C33.7347 42.7521 33.6153 42.7992 33.4959 42.7992Z" fill="#3762CC"/>
<path d="M11.6643 20.9679C11.5519 20.9679 11.4396 20.9262 11.3517 20.8428L9.84525 19.4071C9.664 19.2343 9.65721 18.9477 9.82985 18.7664C10.0032 18.5854 10.2895 18.579 10.4706 18.751L11.977 20.1867C12.1582 20.3596 12.165 20.6462 11.9924 20.8274C11.9033 20.9208 11.7839 20.9679 11.6643 20.9679Z" fill="#3762CC"/>
<path d="M10.1933 42.8346C10.0809 42.8346 9.96856 42.7929 9.88066 42.7095C9.69941 42.5367 9.69261 42.2501 9.86525 42.0688L11.301 40.5624C11.4743 40.3814 11.7607 40.375 11.9417 40.547C12.1229 40.7199 12.1297 41.0065 11.9571 41.1877L10.5214 42.6941C10.4323 42.7875 10.3129 42.8346 10.1933 42.8346Z" fill="#3762CC"/>
<path d="M32.0249 21.0033C31.9125 21.0033 31.8001 20.9616 31.7122 20.8782C31.5309 20.7053 31.5242 20.4187 31.6968 20.2375L33.1325 18.7311C33.3056 18.55 33.5922 18.5437 33.7732 18.7157C33.9545 18.8885 33.9613 19.1751 33.7886 19.3564L32.3529 20.8628C32.2637 20.9561 32.1443 21.0033 32.0249 21.0033Z" fill="#3762CC"/>
<path d="M21.8517 47.6431C21.6066 47.6431 21.4047 47.4474 21.3991 47.2009L21.3488 45.1204C21.3427 44.8702 21.5407 44.6625 21.7908 44.6566C21.7944 44.6564 21.798 44.6564 21.8019 44.6564C22.047 44.6564 22.2489 44.8521 22.2546 45.0986L22.3049 47.1791C22.311 47.4293 22.113 47.637 21.8628 47.6429C21.8592 47.6431 21.8556 47.6431 21.8517 47.6431Z" fill="#3762CC"/>
<path d="M21.8517 16.7688C21.6066 16.7688 21.4047 16.5731 21.3991 16.3266L21.3488 14.246C21.3427 13.9959 21.5407 13.7881 21.7908 13.7823C21.7944 13.782 21.798 13.782 21.8019 13.782C22.047 13.782 22.2489 13.9778 22.2546 14.2243L22.3049 16.3048C22.311 16.5549 22.113 16.7627 21.8628 16.7686C21.8592 16.7688 21.8556 16.7688 21.8517 16.7688Z" fill="#3762CC"/>
<path d="M36.2237 31.1909C35.9785 31.1909 35.7767 30.9951 35.771 30.7486C35.7649 30.4985 35.9629 30.2907 36.213 30.2848L38.2936 30.2345C38.2972 30.2343 38.3008 30.2343 38.3047 30.2343C38.5498 30.2343 38.7517 30.4301 38.7573 30.6766C38.7634 30.9267 38.5654 31.1344 38.3153 31.1403L36.2348 31.1906C36.2312 31.1909 36.2273 31.1909 36.2237 31.1909Z" fill="#3762CC"/>
<path d="M5.34917 31.1909C5.10403 31.1909 4.90216 30.9951 4.8965 30.7486C4.89038 30.4985 5.0884 30.2907 5.33852 30.2848L7.41905 30.2345C7.42267 30.2343 7.4263 30.2343 7.43015 30.2343C7.67529 30.2343 7.87716 30.4301 7.88282 30.6766C7.88894 30.9267 7.69092 31.1344 7.4408 31.1403L5.36027 31.1906C5.35688 31.1909 5.35302 31.1909 5.34917 31.1909Z" fill="#3762CC"/>
<path d="M33.4959 42.7992C33.3835 42.7992 33.2711 42.7576 33.1832 42.6742L31.6768 41.2385C31.4955 41.0656 31.4887 40.779 31.6614 40.5977C31.8345 40.4165 32.1211 40.4104 32.3021 40.5823L33.8085 42.0181C33.9898 42.1909 33.9966 42.4775 33.8239 42.6588C33.7347 42.7521 33.6153 42.7992 33.4959 42.7992Z" fill="#3762CC"/>
<path d="M11.6643 20.9679C11.5519 20.9679 11.4396 20.9262 11.3517 20.8428L9.84525 19.4071C9.664 19.2343 9.65721 18.9477 9.82985 18.7664C10.0032 18.5854 10.2895 18.579 10.4706 18.751L11.977 20.1867C12.1582 20.3596 12.165 20.6462 11.9924 20.8274C11.9033 20.9208 11.7839 20.9679 11.6643 20.9679Z" fill="#3762CC"/>
<path d="M10.1933 42.8346C10.0809 42.8346 9.96856 42.7929 9.88066 42.7095C9.69941 42.5367 9.69261 42.2501 9.86525 42.0688L11.301 40.5624C11.4743 40.3814 11.7607 40.375 11.9417 40.547C12.1229 40.7199 12.1297 41.0065 11.9571 41.1877L10.5214 42.6941C10.4323 42.7875 10.3129 42.8346 10.1933 42.8346Z" fill="#3762CC"/>
<path d="M32.0249 21.0033C31.9125 21.0033 31.8001 20.9616 31.7122 20.8782C31.5309 20.7053 31.5242 20.4187 31.6968 20.2375L33.1325 18.7311C33.3056 18.55 33.5922 18.5437 33.7732 18.7157C33.9545 18.8885 33.9613 19.1751 33.7886 19.3564L32.3529 20.8628C32.2637 20.9561 32.1443 21.0033 32.0249 21.0033Z" fill="#3762CC"/>
<path d="M16.7498 37.9522C16.3263 37.9522 15.928 37.787 15.6285 37.4875C15.329 37.1882 15.1638 36.7899 15.1638 36.3662C15.1638 35.9426 15.329 35.5443 15.6285 35.2447L20.2662 30.607V19.7993C20.2662 18.925 20.9779 18.2134 21.8522 18.2134C22.7265 18.2134 23.4381 18.925 23.4381 19.7993V31.264C23.4381 31.6877 23.2732 32.086 22.9737 32.3853L17.8712 37.4875C17.5717 37.787 17.1734 37.9522 16.7498 37.9522ZM21.8519 19.1196C21.4772 19.1196 21.1723 19.4246 21.1723 19.7993V30.7946C21.1723 30.9147 21.1245 31.03 21.0395 31.115L16.269 35.8857C16.1408 36.0139 16.0698 36.1848 16.0698 36.3662C16.0698 36.5477 16.1408 36.7185 16.269 36.8465C16.5264 37.1039 16.9734 37.1032 17.2303 36.8468L22.3327 31.7444C22.4609 31.6161 22.5316 31.4455 22.5316 31.2638V19.7993C22.5316 19.4243 22.2267 19.1196 21.8519 19.1196Z" fill="#3762CC"/>
<path d="M21.8267 33.3437C23.266 33.3437 24.4327 32.1769 24.4327 30.7377C24.4327 29.2985 23.266 28.1318 21.8267 28.1318C20.3875 28.1318 19.2208 29.2985 19.2208 30.7377C19.2208 32.1769 20.3875 33.3437 21.8267 33.3437Z" fill="#FFEA92"/>
<path d="M21.8267 33.7968C20.14 33.7968 18.7677 32.4245 18.7677 30.7377C18.7677 29.051 20.14 27.6785 21.8267 27.6785C23.5135 27.6785 24.886 29.051 24.886 30.7377C24.886 32.4245 23.5135 33.7968 21.8267 33.7968ZM21.8267 28.5847C20.6398 28.5847 19.674 29.5506 19.674 30.7377C19.674 31.9247 20.6398 32.8905 21.8267 32.8905C23.0139 32.8905 23.9798 31.9247 23.9798 30.7377C23.9798 29.5506 23.0139 28.5847 21.8267 28.5847Z" fill="#3762CC"/>
<path d="M41.0733 31.4455C36.4974 31.4455 32.7745 35.1684 32.7745 39.7445C32.7745 44.3208 36.4974 48.0442 41.0733 48.0442C45.6494 48.0442 49.3727 44.3211 49.3727 39.7445C49.3727 35.1684 45.6494 31.4455 41.0733 31.4455Z" fill="#E0EBFC"/>
<path d="M55.8134 36.0762H52.828C52.6074 35.3714 52.3219 34.6835 51.9775 34.029L54.0902 31.9161C54.3748 31.6315 54.5315 31.2529 54.5315 30.8506C54.5315 30.4482 54.3748 30.0696 54.0902 29.785L51.033 26.7278C50.7484 26.4432 50.3701 26.2865 49.9674 26.2865C49.5651 26.2865 49.1867 26.4432 48.9021 26.7278L46.7895 28.8407C46.1349 28.4963 45.4471 28.2107 44.7422 27.99V25.0048C44.7422 24.174 44.0664 23.4982 43.2356 23.4982H38.9119C38.0811 23.4982 37.4052 24.174 37.4052 25.0048V27.99C36.7006 28.2104 36.0128 28.4961 35.358 28.8407L33.2453 26.7278C32.9608 26.4432 32.5822 26.2865 32.18 26.2865C31.7774 26.2865 31.3991 26.4432 31.1145 26.7278L28.0573 29.785C27.7727 30.0696 27.6159 30.4482 27.6159 30.8506C27.6159 31.2532 27.7727 31.6315 28.0573 31.9161L30.17 34.029C29.8256 34.6835 29.5399 35.3714 29.3194 36.0762H26.334C25.5032 36.0762 24.8274 36.7521 24.8274 37.5829V41.9066C24.8274 42.7374 25.5032 43.4132 26.334 43.4132H29.3194C29.5401 44.1181 29.8256 44.8057 30.17 45.4604L28.0573 47.5731C27.7727 47.8577 27.6159 48.2363 27.6159 48.6387C27.6159 49.0413 27.7727 49.4196 28.0573 49.7042L31.1145 52.7614C31.3991 53.046 31.7776 53.2028 32.18 53.2028C32.5824 53.2028 32.9608 53.046 33.2453 52.7614L35.358 50.6485C36.0126 50.9929 36.7004 51.2788 37.4052 51.4992V54.4844C37.4052 55.3152 38.0811 55.9911 38.9119 55.9911H43.2356C44.0664 55.9911 44.7422 55.315 44.7422 54.4844V51.4992C45.4468 51.2788 46.1347 50.9931 46.7895 50.6485L48.9021 52.7614C49.1867 53.046 49.5653 53.2028 49.9674 53.2028C50.3701 53.2028 50.7484 53.046 51.033 52.7614L54.0902 49.7042C54.3748 49.4196 54.5315 49.0413 54.5315 48.6387C54.5315 48.2363 54.3748 47.8579 54.0902 47.5734L51.9775 45.4604C52.3219 44.8059 52.6076 44.1181 52.828 43.4132H55.8134C56.6445 43.4132 57.3203 42.7372 57.3203 41.9066V37.5829C57.3203 36.7521 56.6445 36.0762 55.8134 36.0762ZM41.0733 48.0439C36.4974 48.0439 32.7745 44.3208 32.7745 39.7443C32.7745 35.1684 36.4974 31.4453 41.0733 31.4453C45.6494 31.4453 49.3727 35.1682 49.3727 39.7443C49.3727 44.3208 45.6494 48.0439 41.0733 48.0439Z" fill="#FFB725"/>
<path d="M41.0733 31.4455C36.4974 31.4455 32.7745 35.1684 32.7745 39.7445C32.7745 44.3208 36.4974 48.0442 41.0733 48.0442C45.6494 48.0442 49.3727 44.3211 49.3727 39.7445C49.3727 35.1684 45.6494 31.4455 41.0733 31.4455ZM41.0733 44.5621C38.4168 44.5621 36.2557 42.4009 36.2557 39.7443C36.2557 37.0883 38.4168 34.9271 41.0733 34.9271C43.73 34.9271 45.8911 37.0881 45.8911 39.7443C45.8911 42.4009 43.73 44.5621 41.0733 44.5621Z" fill="#0087FF"/>
<path d="M43.2354 56.4444H38.9116C37.8309 56.4444 36.9519 55.5651 36.9519 54.4847V51.8278C36.4373 51.6517 35.9328 51.4421 35.4455 51.2018L33.5654 53.0818C33.1955 53.452 32.7034 53.6559 32.1798 53.6559C31.6562 53.6559 31.1639 53.452 30.7937 53.0818L27.7367 50.0245C27.3665 49.6543 27.1626 49.162 27.1626 48.6387C27.1626 48.1153 27.3665 47.6232 27.7367 47.253L29.6167 45.373C29.3765 44.8857 29.1672 44.3811 28.9909 43.8666H26.3338C25.2531 43.8666 24.374 42.9873 24.374 41.9068V37.5831C24.374 36.5024 25.2533 35.6233 26.3338 35.6233H28.9909C29.167 35.1083 29.3765 34.604 29.6167 34.1169L27.7367 32.2367C27.3665 31.8667 27.1626 31.3746 27.1626 30.851C27.1626 30.3277 27.3662 29.8358 27.7364 29.4651L30.7939 26.4079C31.1641 26.0377 31.6562 25.834 32.1798 25.834C32.7034 25.834 33.1952 26.0377 33.5654 26.4079L35.4455 28.2881C35.9335 28.0475 36.4383 27.8382 36.9519 27.6621V25.005C36.9519 23.9243 37.8312 23.0453 38.9116 23.0453H43.2354C44.3161 23.0453 45.1951 23.9245 45.1951 25.005V27.6621C45.7096 27.8382 46.2142 28.0478 46.7015 28.2881L48.5815 26.4079C48.9517 26.0377 49.4438 25.834 49.9672 25.834C50.491 25.834 50.9829 26.0377 51.3531 26.4079L54.4103 29.4651C54.7808 29.8358 54.9844 30.3279 54.9844 30.851C54.9844 31.3746 54.7805 31.8667 54.4103 32.2369L52.5303 34.1169C52.7707 34.6043 52.98 35.1088 53.1563 35.6233H55.8134C56.8941 35.6233 57.7732 36.5026 57.7732 37.5831V41.9068C57.7732 42.9875 56.8939 43.8666 55.8134 43.8666H53.1563C52.9803 44.3811 52.7707 44.8857 52.5303 45.373L54.4103 47.253C54.7805 47.6232 54.9844 48.1153 54.9844 48.6387C54.9844 49.162 54.7805 49.6543 54.4103 50.0245L51.3531 53.0818C50.9831 53.452 50.4908 53.6559 49.9672 53.6559C49.4436 53.6559 48.9515 53.452 48.5813 53.0818L46.7015 51.2018C46.2137 51.4421 45.7092 51.6515 45.1951 51.8278V54.4847C45.1951 55.5651 44.3161 56.4444 43.2354 56.4444ZM35.358 50.1956C35.4296 50.1956 35.5021 50.2126 35.5689 50.2477C36.1979 50.5787 36.8612 50.8544 37.5405 51.067C37.7294 51.1261 37.8581 51.3012 37.8581 51.4992V54.4844C37.8581 55.0653 38.3307 55.5379 38.9116 55.5379H43.2354C43.8163 55.5379 44.2889 55.0653 44.2889 54.4844V51.4992C44.2889 51.3012 44.4176 51.1261 44.6065 51.067C45.2851 50.8544 45.9484 50.5789 46.5783 50.2475C46.7539 50.1553 46.9693 50.1879 47.1096 50.3281L49.2223 52.4408C49.4212 52.64 49.6858 52.7494 49.9672 52.7494C50.2488 52.7494 50.5134 52.64 50.7121 52.4408L53.7696 49.3836C53.9688 49.1845 54.0782 48.9198 54.0782 48.6384C54.0782 48.3573 53.9688 48.0926 53.7696 47.8935L51.6569 45.7808C51.5164 45.6406 51.4838 45.4251 51.5765 45.2493C51.9075 44.6203 52.1832 43.957 52.3957 43.2777C52.4549 43.0888 52.63 42.9601 52.828 42.9601H55.8134C56.3943 42.9601 56.8669 42.4875 56.8669 41.9066V37.5829C56.8669 37.002 56.3943 36.5294 55.8134 36.5294H52.828C52.63 36.5294 52.4549 36.4007 52.3955 36.2117C52.183 35.5322 51.9075 34.8689 51.5765 34.2402C51.484 34.0646 51.5164 33.8489 51.6569 33.7086L53.7696 31.596C53.9688 31.3968 54.0782 31.1322 54.0782 30.8508C54.0782 30.5696 53.9685 30.3048 53.7694 30.1056L50.7124 27.0484C50.5134 26.8495 50.2488 26.74 49.9672 26.74C49.6858 26.74 49.4212 26.8495 49.2223 27.0484L47.1096 29.1613C46.9698 29.3016 46.7539 29.3349 46.5781 29.2417C45.9493 28.9107 45.286 28.635 44.6065 28.4227C44.4176 28.3634 44.2889 28.1882 44.2889 27.9902V25.0048C44.2889 24.4239 43.8163 23.9513 43.2354 23.9513H38.9116C38.3307 23.9513 37.8581 24.4239 37.8581 25.0048V27.9902C37.8581 28.1885 37.7294 28.3634 37.5403 28.4227C36.8626 28.6348 36.1992 28.9103 35.5687 29.242C35.3931 29.3342 35.1774 29.3016 35.0374 29.1613L32.9247 27.0484C32.7258 26.8495 32.4612 26.74 32.1798 26.74C31.8982 26.74 31.6335 26.8495 31.4346 27.0484L28.3774 30.1056C28.1785 30.3048 28.0688 30.5696 28.0688 30.8508C28.0688 31.1322 28.1782 31.3968 28.3774 31.5955L30.4901 33.7086C30.6305 33.8489 30.6632 34.0644 30.5705 34.2402C30.24 34.8682 29.9642 35.5316 29.7517 36.2117C29.6923 36.4007 29.5172 36.5294 29.3192 36.5294H26.3338C25.7529 36.5294 25.2803 37.002 25.2803 37.5829V41.9066C25.2803 42.4875 25.7529 42.9601 26.3338 42.9601H29.3192C29.5172 42.9601 29.6923 43.0888 29.7517 43.2777C29.9642 43.9572 30.2397 44.6206 30.5705 45.2493C30.6629 45.4249 30.6305 45.6406 30.4901 45.7808L28.3774 47.8935C28.1782 48.0926 28.0688 48.3573 28.0688 48.6384C28.0688 48.9198 28.1782 49.1845 28.3774 49.3836L31.4346 52.4408C31.6335 52.64 31.8982 52.7494 32.1798 52.7494C32.4612 52.7494 32.7258 52.64 32.9245 52.4408L35.0374 50.3281C35.1242 50.2411 35.2404 50.1956 35.358 50.1956Z" fill="#3762CC"/>
<path d="M43.2354 56.4444H38.9116C37.8309 56.4444 36.9519 55.5651 36.9519 54.4847V51.8278C36.4373 51.6517 35.9328 51.4421 35.4455 51.2018L33.5654 53.0818C33.1955 53.452 32.7034 53.6559 32.1798 53.6559C31.6562 53.6559 31.1639 53.452 30.7937 53.0818L27.7367 50.0245C27.3665 49.6543 27.1626 49.162 27.1626 48.6387C27.1626 48.1153 27.3665 47.6232 27.7367 47.253L29.6167 45.373C29.3765 44.8857 29.1672 44.3811 28.9909 43.8666H26.3338C25.2531 43.8666 24.374 42.9873 24.374 41.9068V37.5831C24.374 36.5024 25.2533 35.6233 26.3338 35.6233H28.9909C29.167 35.1083 29.3765 34.604 29.6167 34.1169L27.7367 32.2367C27.3665 31.8667 27.1626 31.3746 27.1626 30.851C27.1626 30.3277 27.3662 29.8358 27.7364 29.4651L30.7939 26.4079C31.1641 26.0377 31.6562 25.834 32.1798 25.834C32.7034 25.834 33.1952 26.0377 33.5654 26.4079L35.4455 28.2881C35.9335 28.0475 36.4383 27.8382 36.9519 27.6621V25.005C36.9519 23.9243 37.8312 23.0453 38.9116 23.0453H43.2354C44.3161 23.0453 45.1951 23.9245 45.1951 25.005V27.6621C45.7096 27.8382 46.2142 28.0478 46.7015 28.2881L48.5815 26.4079C48.9517 26.0377 49.4438 25.834 49.9672 25.834C50.491 25.834 50.9829 26.0377 51.3531 26.4079L54.4103 29.4651C54.7808 29.8358 54.9844 30.3279 54.9844 30.851C54.9844 31.3746 54.7805 31.8667 54.4103 32.2369L52.5303 34.1169C52.7707 34.6043 52.98 35.1088 53.1563 35.6233H55.8134C56.8941 35.6233 57.7732 36.5026 57.7732 37.5831V41.9068C57.7732 42.9875 56.8939 43.8666 55.8134 43.8666H53.1563C52.9803 44.3811 52.7707 44.8857 52.5303 45.373L54.4103 47.253C54.7805 47.6232 54.9844 48.1153 54.9844 48.6387C54.9844 49.162 54.7805 49.6543 54.4103 50.0245L51.3531 53.0818C50.9831 53.452 50.4908 53.6559 49.9672 53.6559C49.4436 53.6559 48.9515 53.452 48.5813 53.0818L46.7015 51.2018C46.2137 51.4421 45.7092 51.6515 45.1951 51.8278V54.4847C45.1951 55.5651 44.3161 56.4444 43.2354 56.4444ZM35.358 50.1956C35.4296 50.1956 35.5021 50.2126 35.5689 50.2477C36.1979 50.5787 36.8612 50.8544 37.5405 51.067C37.7294 51.1261 37.8581 51.3012 37.8581 51.4992V54.4844C37.8581 55.0653 38.3307 55.5379 38.9116 55.5379H43.2354C43.8163 55.5379 44.2889 55.0653 44.2889 54.4844V51.4992C44.2889 51.3012 44.4176 51.1261 44.6065 51.067C45.2851 50.8544 45.9484 50.5789 46.5783 50.2475C46.7539 50.1553 46.9693 50.1879 47.1096 50.3281L49.2223 52.4408C49.4212 52.64 49.6858 52.7494 49.9672 52.7494C50.2488 52.7494 50.5134 52.64 50.7121 52.4408L53.7696 49.3836C53.9688 49.1845 54.0782 48.9198 54.0782 48.6384C54.0782 48.3573 53.9688 48.0926 53.7696 47.8935L51.6569 45.7808C51.5164 45.6406 51.4838 45.4251 51.5765 45.2493C51.9075 44.6203 52.1832 43.957 52.3957 43.2777C52.4549 43.0888 52.63 42.9601 52.828 42.9601H55.8134C56.3943 42.9601 56.8669 42.4875 56.8669 41.9066V37.5829C56.8669 37.002 56.3943 36.5294 55.8134 36.5294H52.828C52.63 36.5294 52.4549 36.4007 52.3955 36.2117C52.183 35.5322 51.9075 34.8689 51.5765 34.2402C51.484 34.0646 51.5164 33.8489 51.6569 33.7086L53.7696 31.596C53.9688 31.3968 54.0782 31.1322 54.0782 30.8508C54.0782 30.5696 53.9685 30.3048 53.7694 30.1056L50.7124 27.0484C50.5134 26.8495 50.2488 26.74 49.9672 26.74C49.6858 26.74 49.4212 26.8495 49.2223 27.0484L47.1096 29.1613C46.9698 29.3016 46.7539 29.3349 46.5781 29.2417C45.9493 28.9107 45.286 28.635 44.6065 28.4227C44.4176 28.3634 44.2889 28.1882 44.2889 27.9902V25.0048C44.2889 24.4239 43.8163 23.9513 43.2354 23.9513H38.9116C38.3307 23.9513 37.8581 24.4239 37.8581 25.0048V27.9902C37.8581 28.1885 37.7294 28.3634 37.5403 28.4227C36.8626 28.6348 36.1992 28.9103 35.5687 29.242C35.3931 29.3342 35.1774 29.3016 35.0374 29.1613L32.9247 27.0484C32.7258 26.8495 32.4612 26.74 32.1798 26.74C31.8982 26.74 31.6335 26.8495 31.4346 27.0484L28.3774 30.1056C28.1785 30.3048 28.0688 30.5696 28.0688 30.8508C28.0688 31.1322 28.1782 31.3968 28.3774 31.5955L30.4901 33.7086C30.6305 33.8489 30.6632 34.0644 30.5705 34.2402C30.24 34.8682 29.9642 35.5316 29.7517 36.2117C29.6923 36.4007 29.5172 36.5294 29.3192 36.5294H26.3338C25.7529 36.5294 25.2803 37.002 25.2803 37.5829V41.9066C25.2803 42.4875 25.7529 42.9601 26.3338 42.9601H29.3192C29.5172 42.9601 29.6923 43.0888 29.7517 43.2777C29.9642 43.9572 30.2397 44.6206 30.5705 45.2493C30.6629 45.4249 30.6305 45.6406 30.4901 45.7808L28.3774 47.8935C28.1782 48.0926 28.0688 48.3573 28.0688 48.6384C28.0688 48.9198 28.1782 49.1845 28.3774 49.3836L31.4346 52.4408C31.6335 52.64 31.8982 52.7494 32.1798 52.7494C32.4612 52.7494 32.7258 52.64 32.9245 52.4408L35.0374 50.3281C35.1242 50.2411 35.2404 50.1956 35.358 50.1956Z" fill="#3762CC"/>
<path d="M41.0733 48.4971C36.2475 48.4971 32.3214 44.5705 32.3214 39.7443C32.3214 34.9185 36.2475 30.9924 41.0733 30.9924C45.8995 30.9924 49.8259 34.9185 49.8259 39.7443C49.8259 44.5705 45.8995 48.4971 41.0733 48.4971ZM41.0733 31.8986C36.7471 31.8986 33.2277 35.4181 33.2277 39.7443C33.2277 44.0709 36.7471 47.5908 41.0733 47.5908C45.3997 47.5908 48.9196 44.0709 48.9196 39.7443C48.9196 35.4181 45.3997 31.8986 41.0733 31.8986Z" fill="#3762CC"/>
<path d="M41.0733 48.4971C36.2475 48.4971 32.3214 44.5707 32.3214 39.7445C32.3214 34.9185 36.2475 30.9924 41.0733 30.9924C45.8995 30.9924 49.8259 34.9185 49.8259 39.7445C49.8259 44.5707 45.8995 48.4971 41.0733 48.4971ZM41.0733 31.8986C36.7471 31.8986 33.2277 35.4183 33.2277 39.7445C33.2277 44.0709 36.7471 47.5908 41.0733 47.5908C45.3997 47.5908 48.9196 44.0709 48.9196 39.7445C48.9196 35.4183 45.3997 31.8986 41.0733 31.8986ZM41.0733 45.0153C38.1672 45.0153 35.8025 42.6506 35.8025 39.7443C35.8025 36.8384 38.1672 34.474 41.0733 34.474C43.9796 34.474 46.3443 36.8384 46.3443 39.7443C46.3443 42.6508 43.9796 45.0153 41.0733 45.0153ZM41.0733 35.3805C38.6667 35.3805 36.7088 37.3382 36.7088 39.7445C36.7088 42.1513 38.6667 44.1092 41.0733 44.1092C43.4801 44.1092 45.438 42.1513 45.438 39.7445C45.438 37.3382 43.4801 35.3805 41.0733 35.3805Z" fill="#3762CC"/>
</svg>
