<svg width="55" height="55" viewBox="0 0 55 55" fill="none" xmlns="http://www.w3.org/2000/svg">
<g clip-path="url(#clip0_1_688)">
<path d="M55 9.48277V36.0345H0V9.48277C0 7.38804 1.69838 5.68967 3.7931 5.68967H51.2069C53.3016 5.68967 55 7.38804 55 9.48277Z" fill="#0087FF"/>
<path d="M55 9.48277V36.0345H12.9059C26.2531 29.7198 37.0212 19.0049 43.4026 5.68967H51.2069C53.3016 5.68967 55 7.38804 55 9.48277Z" fill="#5AAAE7"/>
<path d="M44.569 0V24.6552H31.2931C29.2164 24.6552 27.5259 26.3244 27.5 28.401V3.7931C27.5 1.69838 29.1984 0 31.2931 0H44.569Z" fill="#F5AF21"/>
<path d="M44.5689 5.05438V24.6552H31.4922C37.0198 18.9817 41.4528 12.3368 44.5689 5.05438Z" fill="#FFB655"/>
<path d="M0 39.8276C0 41.9223 1.69838 43.6207 3.7931 43.6207H51.2069C53.3016 43.6207 55 41.9223 55 39.8276V36.0345H0V39.8276Z" fill="#D7D6FB"/>
<path d="M23.7069 0H10.431V24.6552H23.7069C25.8016 24.6552 27.5 26.3535 27.5 28.4483V3.7931C27.5 1.69838 25.8016 0 23.7069 0Z" fill="#FFB725"/>
<path d="M33.1896 51.2069H21.8103L22.7586 43.6207H32.2413L33.1896 51.2069Z" fill="#D7D6FB"/>
<path d="M18.0172 51.2069V55H36.9827V51.2069H18.0172Z" fill="#AEACFF"/>
<path d="M44.569 28.4483H48.3621V3.79309H44.569V28.4483Z" fill="#FF7956"/>
<path d="M31.2931 24.6552C29.1984 24.6552 27.5 26.3536 27.5 28.4483H44.569V24.6552H31.2931Z" fill="#0D7EE2"/>
<path d="M44.569 24.6552V26.5517H31.2931C29.9383 26.5494 28.6863 27.2731 28.0121 28.4483H27.5C27.5 26.3536 29.1984 24.6552 31.2931 24.6552H44.569Z" fill="#57565C"/>
<path d="M10.431 28.4483V3.79309H6.63794V28.4483H10.431Z" fill="#FF7956"/>
<path d="M23.7069 24.6552H10.431V28.4483H27.5C27.5 26.3536 25.8016 24.6552 23.7069 24.6552Z" fill="#065BA6"/>
<path d="M27.5 28.4483H26.9879C26.3137 27.2731 25.0617 26.5494 23.7069 26.5517H10.431V24.6552H23.7069C25.8016 24.6552 27.5 26.3536 27.5 28.4483Z" fill="#57565C"/>
<path d="M32.4785 45.5172H22.5216L22.7587 43.6207H32.2414L32.4785 45.5172Z" fill="#AEACFF"/>
<path d="M49.3103 40.7759C48.9931 40.7791 48.6954 40.6217 48.5194 40.3578C48.3435 40.0938 48.3129 39.7591 48.438 39.4674C48.4861 39.3525 48.5533 39.2465 48.6371 39.1543C48.7278 39.0687 48.8338 39.0011 48.9501 38.9552C49.1807 38.8594 49.4399 38.8594 49.6705 38.9552C49.7877 38.9988 49.8946 39.0664 49.9835 39.1543C50.0673 39.2465 50.1345 39.3525 50.1826 39.4674C50.334 39.8202 50.2549 40.2295 49.9835 40.5008C49.8914 40.5846 49.7854 40.6518 49.6705 40.6999C49.5566 40.7485 49.4344 40.7745 49.3103 40.7759Z" fill="#AEACFF"/>
<path d="M32.2413 5.68967H39.8275V7.58622H32.2413V5.68967Z" fill="white"/>
<path d="M32.2413 11.3793H39.8275V13.2759H32.2413V11.3793Z" fill="white"/>
<path d="M32.2413 17.069H39.8275V18.9655H32.2413V17.069Z" fill="white"/>
<path d="M15.1724 5.68967H22.7586V7.58622H15.1724V5.68967Z" fill="white"/>
<path d="M15.1724 11.3793H22.7586V13.2759H15.1724V11.3793Z" fill="white"/>
<path d="M15.1724 17.069H22.7586V18.9655H15.1724V17.069Z" fill="white"/>
</g>
<defs>
<clipPath id="clip0_1_688">
<rect width="55" height="55" fill="white"/>
</clipPath>
</defs>
</svg>
