<svg width="49" height="45" viewBox="0 0 49 45" fill="none" xmlns="http://www.w3.org/2000/svg">
<path d="M1.71875 13.75H32.6562C33.1121 13.75 33.5493 13.5689 33.8716 13.2466C34.1939 12.9243 34.375 12.4871 34.375 12.0312V1.71875C34.375 1.26291 34.1939 0.825738 33.8716 0.50341C33.5493 0.181082 33.1121 0 32.6562 0H1.71875C1.26291 0 0.825738 0.181082 0.50341 0.50341C0.181082 0.825738 0 1.26291 0 1.71875V12.0312C0 12.4871 0.181082 12.9243 0.50341 13.2466C0.825738 13.5689 1.26291 13.75 1.71875 13.75Z" fill="#0087FF"/>
<path d="M24.0625 13.75H32.6562C33.1121 13.75 33.5493 13.5689 33.8716 13.2466C34.1939 12.9243 34.375 12.4871 34.375 12.0312V1.71875C34.375 1.26291 34.1939 0.825738 33.8716 0.50341C33.5493 0.181082 33.1121 0 32.6562 0H24.0625V13.75ZM4.29688 7.73438H19.7656C19.9935 7.73438 20.2121 7.82492 20.3733 7.98608C20.5345 8.14724 20.625 8.36583 20.625 8.59375C20.625 8.82167 20.5345 9.04026 20.3733 9.20142C20.2121 9.36258 19.9935 9.45312 19.7656 9.45312H4.29688C4.06895 9.45312 3.85037 9.36258 3.68921 9.20142C3.52804 9.04026 3.4375 8.82167 3.4375 8.59375C3.4375 8.36583 3.52804 8.14724 3.68921 7.98608C3.85037 7.82492 4.06895 7.73438 4.29688 7.73438ZM4.29688 4.29688H19.7656C19.9935 4.29688 20.2121 4.38742 20.3733 4.54858C20.5345 4.70974 20.625 4.92833 20.625 5.15625C20.625 5.38417 20.5345 5.60276 20.3733 5.76392C20.2121 5.92508 19.9935 6.01562 19.7656 6.01562H4.29688C4.06895 6.01562 3.85037 5.92508 3.68921 5.76392C3.52804 5.60276 3.4375 5.38417 3.4375 5.15625C3.4375 4.92833 3.52804 4.70974 3.68921 4.54858C3.85037 4.38742 4.06895 4.29688 4.29688 4.29688Z" fill="#FFC729"/>
<path d="M29.2188 8.59375C30.168 8.59375 30.9375 7.82424 30.9375 6.875C30.9375 5.92576 30.168 5.15625 29.2188 5.15625C28.2695 5.15625 27.5 5.92576 27.5 6.875C27.5 7.82424 28.2695 8.59375 29.2188 8.59375Z" fill="#0087FF"/>
<path d="M1.71875 29.2188H32.6562C33.1121 29.2188 33.5493 29.0377 33.8716 28.7153C34.1939 28.393 34.375 27.9558 34.375 27.5V17.1875C34.375 16.7317 34.1939 16.2945 33.8716 15.9722C33.5493 15.6498 33.1121 15.4688 32.6562 15.4688H1.71875C1.26291 15.4688 0.825738 15.6498 0.50341 15.9722C0.181082 16.2945 0 16.7317 0 17.1875V27.5C0 27.9558 0.181082 28.393 0.50341 28.7153C0.825738 29.0377 1.26291 29.2188 1.71875 29.2188Z" fill="#0087FF"/>
<path d="M24.0625 29.2188H32.6562C33.1121 29.2188 33.5493 29.0377 33.8716 28.7153C34.1939 28.393 34.375 27.9558 34.375 27.5V17.1875C34.375 16.7317 34.1939 16.2945 33.8716 15.9722C33.5493 15.6498 33.1121 15.4688 32.6562 15.4688H24.0625V29.2188ZM4.29688 23.2031H19.7656C19.9935 23.2031 20.2121 23.2937 20.3733 23.4548C20.5345 23.616 20.625 23.8346 20.625 24.0625C20.625 24.2904 20.5345 24.509 20.3733 24.6702C20.2121 24.8313 19.9935 24.9219 19.7656 24.9219H4.29688C4.06895 24.9219 3.85037 24.8313 3.68921 24.6702C3.52804 24.509 3.4375 24.2904 3.4375 24.0625C3.4375 23.8346 3.52804 23.616 3.68921 23.4548C3.85037 23.2937 4.06895 23.2031 4.29688 23.2031ZM4.29688 19.7656H19.7656C19.9935 19.7656 20.2121 19.8562 20.3733 20.0173C20.5345 20.1785 20.625 20.3971 20.625 20.625C20.625 20.8529 20.5345 21.0715 20.3733 21.2327C20.2121 21.3938 19.9935 21.4844 19.7656 21.4844H4.29688C4.06895 21.4844 3.85037 21.3938 3.68921 21.2327C3.52804 21.0715 3.4375 20.8529 3.4375 20.625C3.4375 20.3971 3.52804 20.1785 3.68921 20.0173C3.85037 19.8562 4.06895 19.7656 4.29688 19.7656Z" fill="#FFC729"/>
<path d="M29.2188 24.0625C30.168 24.0625 30.9375 23.293 30.9375 22.3438C30.9375 21.3945 30.168 20.625 29.2188 20.625C28.2695 20.625 27.5 21.3945 27.5 22.3438C27.5 23.293 28.2695 24.0625 29.2188 24.0625Z" fill="#FAB400"/>
<path d="M1.71875 44.6875H32.6562C33.1121 44.6875 33.5493 44.5064 33.8716 44.1841C34.1939 43.8618 34.375 43.4246 34.375 42.9688V32.6562C34.375 32.2004 34.1939 31.7632 33.8716 31.4409C33.5493 31.1186 33.1121 30.9375 32.6562 30.9375H1.71875C1.26291 30.9375 0.825738 31.1186 0.50341 31.4409C0.181082 31.7632 0 32.2004 0 32.6562V42.9688C0 43.4246 0.181082 43.8618 0.50341 44.1841C0.825738 44.5064 1.26291 44.6875 1.71875 44.6875Z" fill="#0087FF"/>
<path d="M24.0625 44.6875H32.6562C33.1121 44.6875 33.5493 44.5064 33.8716 44.1841C34.1939 43.8618 34.375 43.4246 34.375 42.9688V32.6562C34.375 32.2004 34.1939 31.7632 33.8716 31.4409C33.5493 31.1186 33.1121 30.9375 32.6562 30.9375H24.0625V44.6875ZM4.29688 38.6719H19.7656C19.9935 38.6719 20.2121 38.7624 20.3733 38.9236C20.5345 39.0847 20.625 39.3033 20.625 39.5312C20.625 39.7592 20.5345 39.9778 20.3733 40.1389C20.2121 40.3001 19.9935 40.3906 19.7656 40.3906H4.29688C4.06895 40.3906 3.85037 40.3001 3.68921 40.1389C3.52804 39.9778 3.4375 39.7592 3.4375 39.5312C3.4375 39.3033 3.52804 39.0847 3.68921 38.9236C3.85037 38.7624 4.06895 38.6719 4.29688 38.6719ZM4.29688 35.2344H19.7656C19.9935 35.2344 20.2121 35.3249 20.3733 35.4861C20.5345 35.6472 20.625 35.8658 20.625 36.0938C20.625 36.3217 20.5345 36.5403 20.3733 36.7014C20.2121 36.8626 19.9935 36.9531 19.7656 36.9531H4.29688C4.06895 36.9531 3.85037 36.8626 3.68921 36.7014C3.52804 36.5403 3.4375 36.3217 3.4375 36.0938C3.4375 35.8658 3.52804 35.6472 3.68921 35.4861C3.85037 35.3249 4.06895 35.2344 4.29688 35.2344Z" fill="#FFC729"/>
<path d="M29.2188 39.5312C30.168 39.5312 30.9375 38.7617 30.9375 37.8125C30.9375 36.8633 30.168 36.0938 29.2188 36.0938C28.2695 36.0938 27.5 36.8633 27.5 37.8125C27.5 38.7617 28.2695 39.5312 29.2188 39.5312Z" fill="#00A0C8"/>
<path d="M1.71875 13.75H32.6562V15.4688H1.71875V13.75Z" fill="#EE9D15"/>
<path d="M1.71875 13.75H32.6562V14.6094H1.71875V13.75Z" fill="#EE9D15"/>
<path d="M1.71875 29.2188H32.6562V30.9375H1.71875V29.2188Z" fill="#EE9D15"/>
<path d="M1.71875 29.2188H32.6562V30.0781H1.71875V29.2188Z" fill="#EE9D15"/>
<path d="M32.6555 29.2188V30.9375H21.3203C21.1227 30.3789 20.968 29.8031 20.8477 29.2188H32.6555Z" fill="#00325A"/>
<path d="M34.375 17.1875V27.5C34.375 28.4453 33.6016 29.2187 32.6562 29.2187H20.8484C20.7023 28.4625 20.625 27.6891 20.625 26.8984V15.4688H32.6562C33.6016 15.4688 34.375 16.2422 34.375 17.1875ZM24.0625 30.9375V35.3031C22.8508 34.0742 21.9141 32.5789 21.3211 30.9375H24.0625Z" fill="#0082AA"/>
<path d="M34.375 32.6563V40.2789C34.1688 40.2789 33.9625 40.2359 33.7734 40.1672L30.5078 38.9469C30.7742 38.6461 30.9375 38.2508 30.9375 37.8125C30.9375 36.8672 30.1641 36.0938 29.2188 36.0938C28.2906 36.0938 27.5258 36.8414 27.5 37.7695C26.1938 37.1508 25.0422 36.3172 24.0625 35.3031V30.9375H32.6562C33.6016 30.9375 34.375 31.7109 34.375 32.6563Z" fill="#00325A"/>
<path d="M32.6555 29.2188V30.9375H21.3203C21.1227 30.3789 20.968 29.8031 20.8477 29.2188H32.6555Z" fill="#A00028"/>
<path d="M30.9375 37.8125C30.9375 38.2508 30.7742 38.6461 30.5078 38.9469L28.4281 38.1648C28.1102 38.0445 27.8008 37.9156 27.5 37.7695C27.5134 37.3219 27.7001 36.8969 28.0207 36.5843C28.3414 36.2717 28.7709 36.0958 29.2188 36.0938C30.1641 36.0937 30.9375 36.8672 30.9375 37.8125Z" fill="#0087FF"/>
<path d="M40.3184 37.3033L34.9791 39.3057C34.5898 39.4518 34.161 39.4518 33.7726 39.3057L28.4333 37.3033C26.1398 36.4436 24.1633 34.9043 22.768 32.8912C21.3727 30.8781 20.625 28.4871 20.625 26.0378V10.9841C20.625 10.7925 20.689 10.6064 20.8069 10.4554C20.9248 10.3044 21.0897 10.1971 21.2755 10.1505L33.9573 6.98027C34.2306 6.91152 34.5177 6.91152 34.7909 6.98027L47.4727 10.1505C47.659 10.1966 47.8244 10.3037 47.9426 10.4548C48.0608 10.6059 48.125 10.7923 48.125 10.9841V26.0378C48.1251 28.4869 47.3777 30.8778 45.9827 32.8909C44.5878 34.9039 42.6116 36.4433 40.3184 37.3033Z" fill="#FAB400"/>
<path d="M40.3184 37.3033L34.9791 39.3057C34.5898 39.4518 34.161 39.4518 33.7726 39.3057L28.4333 37.3033C26.1398 36.4436 24.1633 34.9043 22.768 32.8912C21.3727 30.8781 20.625 28.4871 20.625 26.0378V10.9841C20.625 10.7925 20.689 10.6064 20.8069 10.4554C20.9248 10.3044 21.0897 10.1971 21.2755 10.1505L33.9573 6.98027C34.2306 6.91152 34.5177 6.91152 34.7909 6.98027L47.4727 10.1505C47.659 10.1966 47.8244 10.3037 47.9426 10.4548C48.0608 10.6059 48.125 10.7923 48.125 10.9841V26.0378C48.1251 28.4869 47.3777 30.8778 45.9827 32.8909C44.5878 34.9039 42.6116 36.4433 40.3184 37.3033Z" fill="#FDB43A"/>
<path d="M29.6381 34.0843C28.0034 33.4651 26.5951 32.3642 25.5995 30.9273C24.604 29.4904 24.068 27.7852 24.0625 26.0371V12.9961L34.375 10.418L44.6875 12.9961V26.0371C44.6875 29.5992 42.4471 32.833 39.1119 34.0843L34.375 35.8598L29.6381 34.0843Z" fill="#0087FF"/>
<path d="M38.6719 20.625V18.9062C38.6719 16.0626 36.3593 13.75 33.5156 13.75C30.672 13.75 28.3594 16.0626 28.3594 18.9062V20.625C27.9035 20.625 27.4664 20.8061 27.144 21.1284C26.8217 21.4507 26.6406 21.8879 26.6406 22.3438V29.2188C26.6406 29.6746 26.8217 30.1118 27.144 30.4341C27.4664 30.7564 27.9035 30.9375 28.3594 30.9375H38.6719C39.1277 30.9375 39.5649 30.7564 39.8872 30.4341C40.2095 30.1118 40.3906 29.6746 40.3906 29.2188V22.3438C40.3906 21.8879 40.2095 21.4507 39.8872 21.1284C39.5649 20.8061 39.1277 20.625 38.6719 20.625ZM30.0781 20.625V18.9062C30.0781 17.0105 31.6198 15.4688 33.5156 15.4688C35.4114 15.4688 36.9531 17.0105 36.9531 18.9062V20.625H30.0781Z" fill="#00325A"/>
<path d="M39.5312 30.9375H29.2188C28.7629 30.9375 28.3257 30.7564 28.0034 30.4341C27.6811 30.1118 27.5 29.6746 27.5 29.2188V22.3438C27.5 21.8879 27.6811 21.4507 28.0034 21.1284C28.3257 20.8061 28.7629 20.625 29.2188 20.625H39.5312C39.9871 20.625 40.4243 20.8061 40.7466 21.1284C41.0689 21.4507 41.25 21.8879 41.25 22.3438V29.2188C41.25 29.6746 41.0689 30.1118 40.7466 30.4341C40.4243 30.7564 39.9871 30.9375 39.5312 30.9375Z" fill="#FDB43A"/>
<path d="M39.5312 20.625H37.8125V18.9062C37.8125 17.0105 36.2708 15.4688 34.375 15.4688C32.4792 15.4688 30.9375 17.0105 30.9375 18.9062V20.625H29.2188V18.9062C29.2188 16.0626 31.5313 13.75 34.375 13.75C37.2187 13.75 39.5312 16.0626 39.5312 18.9062V20.625Z" fill="#F1F1FB"/>
<path d="M36.0954 24.0621C36.0946 23.6446 35.9421 23.2417 35.6662 22.9283C35.3904 22.615 35.01 22.4126 34.5959 22.359C34.1819 22.3054 33.7625 22.4041 33.4159 22.6368C33.0693 22.8695 32.8191 23.2203 32.712 23.6238C32.6168 23.9889 32.644 24.375 32.7895 24.7231C32.935 25.0711 33.1906 25.3618 33.5173 25.5506V28.359C33.5173 28.5869 33.6078 28.8055 33.769 28.9667C33.9301 29.1278 34.1487 29.2184 34.3766 29.2184C34.6045 29.2184 34.8231 29.1278 34.9843 28.9667C35.1455 28.8055 35.236 28.5869 35.236 28.359V25.5506C35.7499 25.2532 36.0954 24.6981 36.0954 24.0621Z" fill="#00325A"/>
</svg>
