<svg width="60" height="60" viewBox="0 0 60 60" fill="none" xmlns="http://www.w3.org/2000/svg">
<g clip-path="url(#clip0_249_1598)">
<path fill-rule="evenodd" clip-rule="evenodd" d="M3.7611 0H56.2391C57.9615 0 59.4026 1.40598 59.4026 3.16344V46.2566C59.4026 48.0141 57.9615 49.42 56.2391 49.42H3.7611C2.00363 49.42 0.597656 48.0141 0.597656 46.2566V3.16344C0.597656 1.40598 2.00363 0 3.7611 0Z" fill="#323FD4"/>
<path fill-rule="evenodd" clip-rule="evenodd" d="M3.7611 0H54.9738C56.7312 0 58.1372 1.40598 58.1372 3.16344V46.2566C58.1372 48.0141 56.7312 49.42 54.9738 49.42H3.7611C2.00363 49.42 0.597656 48.0141 0.597656 46.2566V3.16344C0.597656 1.40598 2.00363 0 3.7611 0Z" fill="#0087FF"/>
<path fill-rule="evenodd" clip-rule="evenodd" d="M3.7611 0H56.2391C57.9615 0 59.4026 1.40598 59.4026 3.16344V13.9543H0.597656V3.16344C0.597656 1.40598 2.00363 0 3.7611 0Z" fill="#044C66"/>
<path fill-rule="evenodd" clip-rule="evenodd" d="M3.7611 0H54.9738C56.7312 0 58.1372 1.40598 58.1372 3.16344V13.9543H0.597656V3.16344C0.597656 1.40598 2.00363 0 3.7611 0Z" fill="#202BA7"/>
<path fill-rule="evenodd" clip-rule="evenodd" d="M3.7611 0H56.2391C57.9615 0 59.4026 1.40598 59.4026 3.16344V12.5132H0.597656V3.16344C0.597656 1.40598 2.00363 0 3.7611 0Z" fill="#5664FD"/>
<path fill-rule="evenodd" clip-rule="evenodd" d="M3.7611 0H54.9738C56.7312 0 58.1372 1.40598 58.1372 3.16344V12.5132H0.597656V3.16344C0.597656 1.40598 2.00363 0 3.7611 0Z" fill="#323FD4"/>
<path d="M10.9325 3.69043H6.89036C6.15269 3.69043 5.55469 4.28843 5.55469 5.02611V7.45141C5.55469 8.18909 6.15269 8.78709 6.89036 8.78709H10.9325C11.6702 8.78709 12.2682 8.18909 12.2682 7.45141V5.02611C12.2682 4.28843 11.6702 3.69043 10.9325 3.69043Z" fill="white"/>
<path d="M21.4404 3.69043H17.3982C16.6605 3.69043 16.0625 4.28843 16.0625 5.02611V7.45141C16.0625 8.18909 16.6605 8.78709 17.3982 8.78709H21.4404C22.178 8.78709 22.776 8.18909 22.776 7.45141V5.02611C22.776 4.28843 22.178 3.69043 21.4404 3.69043Z" fill="#E7E7E7"/>
<path d="M31.9872 3.69043H27.9451C27.2074 3.69043 26.6094 4.28843 26.6094 5.02611V7.45141C26.6094 8.18909 27.2074 8.78709 27.9451 8.78709H31.9872C32.7249 8.78709 33.3229 8.18909 33.3229 7.45141V5.02611C33.3229 4.28843 32.7249 3.69043 31.9872 3.69043Z" fill="white"/>
<path d="M16.5542 41.2654C16.5542 40.5624 15.9918 39.9648 15.2537 39.9648C14.5507 39.9648 13.9531 40.5624 13.9531 41.2654V46.2566C13.9883 46.9947 14.5507 47.5571 15.2537 47.5571C15.9918 47.5571 16.5542 46.9596 16.5542 46.2566V41.2654Z" fill="#B9870E"/>
<path d="M13.9531 44.9561V46.2566C13.9883 46.9947 14.5507 47.5571 15.2537 47.5571C15.9918 47.5571 16.5542 46.9596 16.5542 46.2566V44.9561H13.9531Z" fill="#FFF261"/>
<path d="M15.2555 42.0736C21.7199 42.0736 26.9603 36.8332 26.9603 30.3688C26.9603 23.9045 21.7199 18.6641 15.2555 18.6641C8.79117 18.6641 3.55078 23.9045 3.55078 30.3688C3.55078 36.8332 8.79117 42.0736 15.2555 42.0736Z" fill="#B9870E"/>
<path d="M15.2557 41.2653C21.2736 41.2653 26.152 36.3868 26.152 30.369C26.152 24.3511 21.2736 19.4727 15.2557 19.4727C9.23782 19.4727 4.35938 24.3511 4.35938 30.369C4.35938 36.3868 9.23782 41.2653 15.2557 41.2653Z" fill="#FDB62F"/>
<path d="M15.3406 36.8178C18.9179 36.8178 21.8178 33.9179 21.8178 30.3406C21.8178 26.7633 18.9179 23.8633 15.3406 23.8633C11.7633 23.8633 8.86328 26.7633 8.86328 30.3406C8.86328 33.9179 11.7633 36.8178 15.3406 36.8178Z" fill="#202BA7"/>
<path fill-rule="evenodd" clip-rule="evenodd" d="M13.32 46.2568H17.2216C17.9949 46.2568 18.6276 46.8895 18.6276 47.6628V56.6259C18.6276 58.4888 17.1162 60.0002 15.2533 60.0002C13.4255 60.0002 11.9141 58.4888 11.9141 56.6259V47.6628C11.9141 46.8895 12.5468 46.2568 13.32 46.2568Z" fill="#FCBF29"/>
<path d="M23 37.2C22.0667 37.2 21.2267 37.0867 20.48 36.86C19.7333 36.62 19.02 36.2067 18.34 35.62C18.1667 35.4733 18.0333 35.3067 17.94 35.12C17.8467 34.9333 17.8 34.7467 17.8 34.56C17.8 34.2533 17.9067 33.9867 18.12 33.76C18.3467 33.52 18.6267 33.4 18.96 33.4C19.2133 33.4 19.44 33.48 19.64 33.64C20.1467 34.0533 20.6467 34.3667 21.14 34.58C21.6467 34.7933 22.2667 34.9 23 34.9C23.4933 34.9 23.9467 34.8267 24.36 34.68C24.7733 34.52 25.1067 34.3133 25.36 34.06C25.6133 33.7933 25.74 33.4933 25.74 33.16C25.74 32.76 25.62 32.42 25.38 32.14C25.14 31.86 24.7733 31.6267 24.28 31.44C23.7867 31.24 23.16 31.0867 22.4 30.98C21.68 30.8733 21.0467 30.7133 20.5 30.5C19.9533 30.2733 19.4933 29.9933 19.12 29.66C18.76 29.3133 18.4867 28.9133 18.3 28.46C18.1133 27.9933 18.02 27.4733 18.02 26.9C18.02 26.0333 18.24 25.2933 18.68 24.68C19.1333 24.0667 19.74 23.6 20.5 23.28C21.26 22.96 22.1 22.8 23.02 22.8C23.8867 22.8 24.6867 22.9333 25.42 23.2C26.1667 23.4533 26.7733 23.78 27.24 24.18C27.6267 24.4867 27.82 24.84 27.82 25.24C27.82 25.5333 27.7067 25.8 27.48 26.04C27.2533 26.28 26.9867 26.4 26.68 26.4C26.48 26.4 26.3 26.34 26.14 26.22C25.9267 26.0333 25.64 25.86 25.28 25.7C24.92 25.5267 24.54 25.3867 24.14 25.28C23.74 25.16 23.3667 25.1 23.02 25.1C22.4467 25.1 21.96 25.1733 21.56 25.32C21.1733 25.4667 20.88 25.6667 20.68 25.92C20.48 26.1733 20.38 26.4667 20.38 26.8C20.38 27.2 20.4933 27.5333 20.72 27.8C20.96 28.0533 21.3 28.26 21.74 28.42C22.18 28.5667 22.7067 28.7 23.32 28.82C24.12 28.9667 24.82 29.14 25.42 29.34C26.0333 29.54 26.54 29.8 26.94 30.12C27.34 30.4267 27.64 30.82 27.84 31.3C28.04 31.7667 28.14 32.34 28.14 33.02C28.14 33.8867 27.9 34.6333 27.42 35.26C26.94 35.8867 26.3067 36.3667 25.52 36.7C24.7467 37.0333 23.9067 37.2 23 37.2ZM31.6536 23H38.3536C38.7003 23 38.9869 23.1133 39.2136 23.34C39.4536 23.5533 39.5736 23.8333 39.5736 24.18C39.5736 24.5133 39.4536 24.7867 39.2136 25C38.9869 25.2 38.7003 25.3 38.3536 25.3H32.7536L32.9336 24.96V28.86L32.7736 28.7H37.4536C37.8003 28.7 38.0869 28.8133 38.3136 29.04C38.5536 29.2533 38.6736 29.5333 38.6736 29.88C38.6736 30.2133 38.5536 30.4867 38.3136 30.7C38.0869 30.9 37.8003 31 37.4536 31H32.8336L32.9336 30.84V34.88L32.7736 34.7H38.3536C38.7003 34.7 38.9869 34.82 39.2136 35.06C39.4536 35.2867 39.5736 35.5533 39.5736 35.86C39.5736 36.1933 39.4536 36.4667 39.2136 36.68C38.9869 36.8933 38.7003 37 38.3536 37H31.6536C31.3069 37 31.0136 36.8867 30.7736 36.66C30.5469 36.42 30.4336 36.1267 30.4336 35.78V24.22C30.4336 23.8733 30.5469 23.5867 30.7736 23.36C31.0136 23.12 31.3069 23 31.6536 23ZM54.7589 30C54.7589 31 54.5922 31.9333 54.2589 32.8C53.9256 33.6667 53.4522 34.4333 52.8389 35.1C52.2389 35.7533 51.5189 36.2667 50.6789 36.64C49.8522 37.0133 48.9456 37.2 47.9589 37.2C46.9722 37.2 46.0656 37.0133 45.2389 36.64C44.4122 36.2667 43.6922 35.7533 43.0789 35.1C42.4789 34.4333 42.0122 33.6667 41.6789 32.8C41.3456 31.9333 41.1789 31 41.1789 30C41.1789 29 41.3456 28.0667 41.6789 27.2C42.0122 26.3333 42.4789 25.5733 43.0789 24.92C43.6922 24.2533 44.4122 23.7333 45.2389 23.36C46.0656 22.9867 46.9722 22.8 47.9589 22.8C48.9456 22.8 49.8522 22.9867 50.6789 23.36C51.5189 23.7333 52.2389 24.2533 52.8389 24.92C53.4522 25.5733 53.9256 26.3333 54.2589 27.2C54.5922 28.0667 54.7589 29 54.7589 30ZM52.1589 30C52.1589 29.1067 51.9789 28.3 51.6189 27.58C51.2589 26.8467 50.7656 26.2667 50.1389 25.84C49.5122 25.4133 48.7856 25.2 47.9589 25.2C47.1322 25.2 46.4056 25.4133 45.7789 25.84C45.1522 26.2667 44.6589 26.84 44.2989 27.56C43.9522 28.28 43.7789 29.0933 43.7789 30C43.7789 30.8933 43.9522 31.7067 44.2989 32.44C44.6589 33.16 45.1522 33.7333 45.7789 34.16C46.4056 34.5867 47.1322 34.8 47.9589 34.8C48.7856 34.8 49.5122 34.5867 50.1389 34.16C50.7656 33.7333 51.2589 33.16 51.6189 32.44C51.9789 31.7067 52.1589 30.8933 52.1589 30Z" fill="white"/>
</g>
<defs>
<clipPath id="clip0_249_1598">
<rect width="60" height="60" fill="white"/>
</clipPath>
</defs>
</svg>
