<svg width="42" height="42" viewBox="0 0 42 42" fill="none" xmlns="http://www.w3.org/2000/svg">
<g clip-path="url(#clip0_96_5676)">
<path d="M17.4795 10.3582C18.1175 9.72022 18.8153 9.16363 19.5599 8.69335V4.39844H0V14.6336C0 15.1756 0.439359 15.615 0.98134 15.615H14.4213C14.9495 13.6882 15.9686 11.8691 17.4795 10.3582Z" fill="#F2FBFF"/>
<path d="M17.4795 10.3582C18.1175 9.72022 18.8152 9.16363 19.5598 8.69335V4.39844H15.9683V12.206C16.401 11.5529 16.9046 10.9332 17.4795 10.3582Z" fill="#DFF6FD"/>
<path d="M11.6604 12.3174H3.77686C3.43708 12.3174 3.16162 12.0419 3.16162 11.7021C3.16162 11.3624 3.43708 11.0869 3.77686 11.0869H11.6604C12.0002 11.0869 12.2756 11.3624 12.2756 11.7021C12.2756 12.0419 12.0002 12.3174 11.6604 12.3174Z" fill="#60B7FF"/>
<path d="M15.7833 12.3183C15.8244 12.3183 15.8646 12.3141 15.9035 12.3064C16.0567 12.07 16.2192 11.838 16.3908 11.6107C16.3461 11.3149 16.0915 11.0879 15.7833 11.0879H14.1138C13.774 11.0879 13.4985 11.3634 13.4985 11.7031C13.4985 12.0429 13.774 12.3184 14.1138 12.3184H15.7833V12.3183Z" fill="#60B7FF"/>
<path d="M15.7832 8.58594H3.77686C3.43708 8.58594 3.16162 8.31048 3.16162 7.9707C3.16162 7.63093 3.43708 7.35547 3.77686 7.35547H15.7832C16.123 7.35547 16.3984 7.63093 16.3984 7.9707C16.3984 8.31048 16.123 8.58594 15.7832 8.58594Z" fill="#60B7FF"/>
<path d="M19.5599 4.4963H0V1.61708C0 1.0751 0.439359 0.635742 0.98134 0.635742H18.5786C19.1206 0.635742 19.5599 1.0751 19.5599 1.61708V4.4963H19.5599Z" fill="#FD4755"/>
<path d="M18.5784 0.635742H14.9868C15.5288 0.635742 15.9682 1.0751 15.9682 1.61708V4.4963H19.5597V1.61708C19.5596 1.0751 19.1203 0.635742 18.5784 0.635742Z" fill="#FB2B3A"/>
<path d="M29.5155 30.1475C28.3633 30.5121 27.1493 30.702 25.906 30.702C24.7143 30.702 23.5493 30.5282 22.4399 30.1927V40.3826C22.4399 40.9246 22.8793 41.3639 23.4213 41.3639H41.0185C41.5605 41.3639 41.9999 40.9246 41.9999 40.3826V30.1475H29.5155Z" fill="#F2FBFF"/>
<path d="M38.4472 30.1475V40.3827C38.4472 40.9246 38.0078 41.364 37.4658 41.364H41.0186C41.5606 41.364 41.9999 40.9246 41.9999 40.3827V30.1475H38.4472Z" fill="#DFF6FD"/>
<path d="M38.2234 38.0664H30.3398C30 38.0664 29.7246 37.7909 29.7246 37.4512C29.7246 37.1114 30 36.8359 30.3398 36.8359H38.2234C38.5632 36.8359 38.8386 37.1114 38.8386 37.4512C38.8386 37.7909 38.5632 38.0664 38.2234 38.0664Z" fill="#60B7FF"/>
<path d="M27.8863 38.0664H26.2168C25.8769 38.0664 25.6016 37.7909 25.6016 37.4512C25.6016 37.1114 25.8769 36.8359 26.2168 36.8359H27.8863C28.2262 36.8359 28.5015 37.1114 28.5015 37.4512C28.5015 37.7909 28.2262 38.0664 27.8863 38.0664Z" fill="#60B7FF"/>
<path d="M38.2231 34.335H26.2168C25.8769 34.335 25.6016 34.0595 25.6016 33.7197C25.6016 33.38 25.8769 33.1045 26.2168 33.1045H38.2231C38.5629 33.1045 38.8383 33.38 38.8383 33.7197C38.8383 34.0595 38.5629 34.335 38.2231 34.335Z" fill="#60B7FF"/>
<path d="M41.0185 26.3848H35.0856C34.8487 26.6699 34.5979 26.9459 34.3326 27.2113C32.8783 28.6655 31.1142 29.6969 29.1895 30.2453H41.9999V27.3661C41.9999 26.8241 41.5605 26.3848 41.0185 26.3848Z" fill="#FD4755"/>
<path d="M41.0186 26.3848H37.4658C38.0078 26.3848 38.4472 26.8241 38.4472 27.3661V30.2453H41.9999V27.3661C41.9999 26.8241 41.5606 26.3848 41.0186 26.3848Z" fill="#FB2B3A"/>
<path d="M17.4812 27.2098C17.0548 26.7834 16.668 26.3324 16.3198 25.8613L12.4321 29.749L14.942 32.2589L18.8284 28.3724C18.3555 28.0218 17.9053 27.6338 17.4812 27.2098Z" fill="#C5D3DD"/>
<path d="M11.0539 29.4458L4.19506 36.3046C3.03784 37.4618 3.03784 39.338 4.19506 40.4952C5.35227 41.6524 7.22841 41.6524 8.38563 40.4952L15.2445 33.6363C15.5745 33.3063 15.5745 32.7712 15.2445 32.4412L12.2491 29.4458C11.919 29.1157 11.384 29.1157 11.0539 29.4458Z" fill="#17D6B0"/>
<path d="M15.2444 32.4414L14.0149 31.2119C13.9741 31.325 13.9092 31.4313 13.8186 31.5221L6.95972 38.381C5.98363 39.357 4.49608 39.5098 3.35986 38.8393C3.45018 39.4453 3.72835 40.0288 4.19494 40.4954C5.35216 41.6526 7.22829 41.6526 8.38551 40.4954L15.2444 33.6365C15.5745 33.3065 15.5745 32.7714 15.2444 32.4414Z" fill="#6DEDD4"/>
<path d="M33.2863 15.3299L29.6906 18.9255C29.5909 19.0253 29.4804 19.0462 29.4052 19.0462C29.2025 19.0462 28.993 18.893 28.993 18.6366V15.3299H25.6539C24.8875 15.3299 24.2641 14.7063 24.2641 13.9399V6.89844C21.7611 7.24231 19.3459 8.37574 17.4217 10.2999C12.7357 14.9859 12.7357 22.5832 17.4217 27.2692C22.1076 31.9551 29.705 31.9551 34.3909 27.2692C37.6226 24.0375 38.6251 19.4211 37.3993 15.3299H33.2863Z" fill="#26A6FE"/>
<path d="M34.6465 15.3301C35.9759 18.7076 35.2783 22.705 32.5523 25.431C31.005 26.9782 29.0476 27.8722 27.0269 28.113C25.7192 29.1734 24.2408 29.9184 22.6929 30.347C26.7233 31.4631 31.2224 30.4376 34.3906 27.2694C37.6223 24.0377 38.6248 19.4213 37.3989 15.3301H34.6465Z" fill="#0593FC"/>
<path d="M33.2861 15.3302L29.6904 18.9259C29.5907 19.0256 29.4803 19.0466 29.4051 19.0466C29.2024 19.0466 28.9929 18.8933 28.9929 18.637V15.3302H25.6538C24.8874 15.3302 24.2639 14.7067 24.2639 13.9403V10.1553C22.59 10.4722 20.9905 11.2781 19.6949 12.5736C16.2645 16.004 16.2645 21.5657 19.6949 24.996C23.1252 28.4264 28.687 28.4264 32.1173 24.996C34.7306 22.3828 35.3527 18.5326 33.9843 15.3301H33.2861V15.3302Z" fill="#DFF6FD"/>
<path d="M33.2864 15.3301L30.3638 18.2526C30.5099 20.6745 29.6583 23.1454 27.8077 24.996C26.6452 26.1585 25.2377 26.9266 23.7515 27.3011C26.6506 28.0318 29.8498 27.2637 32.1176 24.996C34.7309 22.3827 35.3529 18.5326 33.9845 15.3301H33.2864Z" fill="#C8EFFE"/>
<path d="M33.3086 15.3294C34.7162 18.3534 34.1742 22.0682 31.6822 24.5603C28.4972 27.7454 23.3148 27.7451 20.1298 24.5603C16.9449 21.3752 16.9449 16.1929 20.1298 13.0079C21.3034 11.8343 22.7479 11.0938 24.2639 10.7851V9.5332C22.4297 9.85608 20.6737 10.724 19.2598 12.1378C15.595 15.8025 15.595 21.7655 19.2598 25.4303C21.0924 27.2629 23.4988 28.1788 25.906 28.1788C28.3127 28.1788 30.7201 27.2625 32.5523 25.4303C35.2782 22.7042 35.9759 18.7068 34.6465 15.3294H33.3086Z" fill="#60B7FF"/>
<path d="M37.4862 0.635742H25.6541C24.8412 0.635742 24.1821 1.29478 24.1821 2.10771V13.9398C24.1821 14.7527 24.8412 15.4118 25.6541 15.4118H28.9111V18.6365C28.9111 19.0737 29.4397 19.2925 29.7488 18.9834L33.3204 15.4118H37.4862C38.2991 15.4118 38.9582 14.7527 38.9582 13.9398V2.10771C38.9582 1.29478 38.2991 0.635742 37.4862 0.635742Z" fill="#FFE177"/>
<path d="M37.4861 0.635742H34.2324C35.0454 0.635742 35.7044 1.29478 35.7044 2.10771V13.9398C35.7044 14.7527 35.0454 15.4118 34.2324 15.4118H37.4861C38.299 15.4118 38.9581 14.7527 38.9581 13.9398V2.10771C38.9581 1.29478 38.299 0.635742 37.4861 0.635742Z" fill="#FFD15B"/>
<path d="M31.5702 10.3539C31.2303 10.3539 30.9549 10.0805 30.9549 9.74076C30.9549 8.87788 31.464 8.10875 32.2516 7.77702C32.9397 7.48728 33.3708 6.79043 33.3243 6.04288C33.2706 5.17655 32.5499 4.45582 31.6835 4.40201C31.1912 4.37141 30.7238 4.53941 30.3668 4.87508C30.0094 5.211 29.8125 5.66594 29.8125 6.15616C29.8125 6.49594 29.5371 6.7714 29.1973 6.7714C28.8574 6.7714 28.582 6.49594 28.582 6.15616C28.582 5.33487 28.9254 4.54113 29.524 3.9784C30.1312 3.40779 30.9252 3.12265 31.7597 3.17383C33.2587 3.26694 34.4594 4.46755 34.5523 5.96659C34.6312 7.23528 33.8985 8.41858 32.7291 8.91102C32.3988 9.05014 32.1853 9.37417 32.1853 9.7365C32.1854 10.0763 31.91 10.3539 31.5702 10.3539Z" fill="#F6AB31"/>
<path d="M31.5703 12.8805C31.2305 12.8805 30.9551 12.605 30.9551 12.2653V11.8613C30.9551 11.5216 31.2305 11.2461 31.5703 11.2461C31.9102 11.2461 32.1855 11.5216 32.1855 11.8613V12.2653C32.1855 12.605 31.9101 12.8805 31.5703 12.8805Z" fill="#F6AB31"/>
</g>
<defs>
<clipPath id="clip0_96_5676">
<rect width="42" height="42" fill="white"/>
</clipPath>
</defs>
</svg>
