<svg width="61" height="61" viewBox="0 0 61 61" fill="none" xmlns="http://www.w3.org/2000/svg">
<g clip-path="url(#clip0_1_1186)">
<path d="M53.8898 35.0216C53.965 35.1034 54.0233 35.1993 54.0615 35.3036C54.0996 35.408 54.1168 35.5189 54.1121 35.6299C54.1074 35.7409 54.0809 35.8499 54.034 35.9507C53.9872 36.0514 53.921 36.142 53.8391 36.2171C53.7573 36.2923 53.6615 36.3506 53.5571 36.3888C53.4528 36.4269 53.3419 36.4441 53.2309 36.4394C53.1199 36.4347 53.0109 36.4082 52.9101 36.3613C52.8093 36.3145 52.7188 36.2483 52.6436 36.1664L50.6815 34.0354C50.8351 34.9453 50.9243 35.865 50.9483 36.7875C51.0371 40.9836 49.758 45.0946 47.3042 48.4996C45.586 50.9185 43.3248 52.9009 40.702 54.288C38.0791 55.6751 35.1678 56.4282 32.2014 56.4868C31.977 56.4922 31.7597 56.4082 31.5973 56.2534C31.4348 56.0986 31.3406 55.8855 31.3352 55.6612C31.3298 55.4368 31.4138 55.2195 31.5686 55.0571C31.7235 54.8947 31.9365 54.8004 32.1608 54.795C33.7286 54.7605 35.2846 54.5163 36.7876 54.069C40.4773 52.9559 43.693 50.649 45.9297 47.5104C48.1683 44.405 49.3359 40.6556 49.2562 36.8283C49.2322 35.8483 49.1249 34.8722 48.9354 33.9104L47.8953 37.2336C47.8626 37.3403 47.8092 37.4394 47.7381 37.5254C47.667 37.6114 47.5796 37.6825 47.481 37.7346C47.3824 37.7867 47.2744 37.8188 47.1633 37.8291C47.0522 37.8394 46.9402 37.8276 46.8337 37.7945C46.7271 37.7613 46.6282 37.7075 46.5425 37.636C46.4569 37.5645 46.3862 37.4768 46.3345 37.3779C46.2829 37.2791 46.2512 37.171 46.2415 37.0598C46.2317 36.9487 46.244 36.8367 46.2776 36.7303L48.1688 30.6851C48.212 30.5428 48.2925 30.4145 48.4019 30.3137C48.4837 30.2381 48.5796 30.1793 48.6842 30.1408C48.7887 30.1023 48.8999 30.0847 49.0112 30.0892C49.1225 30.0936 49.2319 30.1199 49.333 30.1666C49.4342 30.2133 49.5252 30.2795 49.6008 30.3613L53.8898 35.0216Z" fill="#FFC966"/>
<path fill-rule="evenodd" clip-rule="evenodd" d="M13.8322 44.6906C17.501 44.6907 21.0195 46.1481 23.6137 48.7423C26.208 51.3364 27.6655 54.8549 27.6656 58.5237H0C0.000189545 54.8551 1.45754 51.3369 4.05152 48.7427C6.6455 46.1486 10.1637 44.691 13.8322 44.6906Z" fill="#309EFF"/>
<path fill-rule="evenodd" clip-rule="evenodd" d="M13.8322 58.5237H0C0.000189545 54.8551 1.45754 51.3369 4.05152 48.7427C6.6455 46.1486 10.1637 44.691 13.8322 44.6906V58.5237Z" fill="#0087FF"/>
<path fill-rule="evenodd" clip-rule="evenodd" d="M13.8322 43.674C14.9383 43.674 16.0197 43.346 16.9394 42.7315C17.8591 42.117 18.576 41.2435 18.9993 40.2216C19.4226 39.1996 19.5334 38.0751 19.3176 36.9902C19.1018 35.9053 18.5691 34.9088 17.787 34.1267C17.0048 33.3445 16.0083 32.8118 14.9234 32.596C13.8385 32.3803 12.714 32.491 11.692 32.9143C10.6701 33.3376 9.79664 34.0545 9.18212 34.9742C8.56759 35.894 8.2396 36.9753 8.23962 38.0814C8.24261 39.5637 8.83279 40.9845 9.88096 42.0327C10.9291 43.0808 12.3499 43.671 13.8322 43.674Z" fill="#0087FF"/>
<path d="M8.65883 24.7076C8.53746 24.5186 8.49614 24.2892 8.54395 24.0697C8.59177 23.8503 8.7248 23.6588 8.91379 23.5374C9.00737 23.4773 9.11186 23.4363 9.22131 23.4166C9.33077 23.3968 9.44303 23.3989 9.55169 23.4226C9.77115 23.4704 9.96262 23.6034 10.084 23.7924L11.4585 25.9369C11.4699 25.1272 11.5365 24.3191 11.6577 23.5184C12.2677 19.5613 14.1658 15.9158 17.0579 13.1469C19.9617 10.339 23.7276 8.59229 27.7468 8.18915C29.2489 8.04315 30.7633 8.08397 32.2553 8.31067C32.3656 8.3271 32.4715 8.36507 32.567 8.42243C32.6625 8.47978 32.7459 8.5554 32.8122 8.64495C32.8785 8.7345 32.9265 8.83624 32.9535 8.94435C32.9805 9.05246 32.986 9.16484 32.9695 9.27505C32.9531 9.38527 32.9151 9.49117 32.8578 9.58671C32.8004 9.68225 32.7248 9.76556 32.6353 9.83188C32.5457 9.8982 32.444 9.94623 32.3359 9.97323C32.2277 10.0002 32.1154 10.0057 32.0051 9.98924C30.6507 9.78187 29.2759 9.74329 27.912 9.87439C24.2724 10.2409 20.8625 11.8232 18.2328 14.366C15.61 16.8768 13.8888 20.1829 13.3362 23.7715C13.209 24.6097 13.1481 25.4566 13.1539 26.3044L14.559 23.5864C14.6097 23.487 14.6795 23.3985 14.7645 23.3261C14.8495 23.2537 14.9479 23.1989 15.0541 23.1646C15.1604 23.1304 15.2723 23.1175 15.3836 23.1267C15.4948 23.1358 15.6031 23.1669 15.7023 23.218C15.8015 23.2692 15.8896 23.3394 15.9616 23.4247C16.0336 23.5101 16.088 23.6087 16.1217 23.7151C16.1554 23.8215 16.1678 23.9336 16.1581 24.0448C16.1484 24.1559 16.1168 24.2641 16.0652 24.3631L13.3465 29.6215C13.2813 29.7578 13.1808 29.8742 13.0555 29.9586C12.9302 30.0431 12.7846 30.0925 12.6338 30.1018C12.4829 30.1111 12.3324 30.0799 12.1976 30.0115C12.0629 29.9431 11.9489 29.8399 11.8674 29.7126L8.65883 24.7076Z" fill="#0087FF"/>
<path d="M38.399 41.5125C38.4016 41.289 38.4923 41.0755 38.6513 40.9184C38.8103 40.7612 39.0248 40.6731 39.2484 40.6731C39.4719 40.6731 39.6865 40.7612 39.8455 40.9184C40.0045 41.0755 40.0951 41.289 40.0978 41.5125V43.2823H41.864C42.0889 43.2823 42.3045 43.3716 42.4635 43.5305C42.6224 43.6895 42.7117 43.9051 42.7117 44.1299C42.7117 44.3548 42.6224 44.5704 42.4635 44.7293C42.3045 44.8883 42.0889 44.9776 41.864 44.9776H40.0972V46.7439C40.0985 46.8563 40.0775 46.9678 40.0354 47.072C39.9934 47.1763 39.931 47.2711 39.852 47.351C39.773 47.431 39.6789 47.4945 39.5752 47.5378C39.4715 47.5811 39.3602 47.6034 39.2478 47.6034C39.1354 47.6034 39.0241 47.5811 38.9204 47.5378C38.8167 47.4945 38.7226 47.431 38.6436 47.351C38.5646 47.2711 38.5022 47.1763 38.4601 47.072C38.418 46.9678 38.397 46.8563 38.3984 46.7439V44.9776H36.6321C36.4073 44.9776 36.1917 44.8883 36.0327 44.7293C35.8737 44.5704 35.7844 44.3548 35.7844 44.1299C35.7844 43.9051 35.8737 43.6895 36.0327 43.5305C36.1917 43.3716 36.4073 43.2823 36.6321 43.2823H38.399V41.5125Z" fill="#56A5E6"/>
<path d="M28.6823 36.7609C28.6823 36.5356 28.7718 36.3196 28.9311 36.1603C29.0904 36.001 29.3064 35.9115 29.5316 35.9115C29.7569 35.9115 29.9729 36.001 30.1322 36.1603C30.2915 36.3196 30.381 36.5356 30.381 36.7609V39.0405H32.6566C32.8819 39.0405 33.0979 39.13 33.2572 39.2893C33.4165 39.4485 33.5059 39.6646 33.5059 39.8898C33.5059 40.1151 33.4165 40.3311 33.2572 40.4904C33.0979 40.6497 32.8819 40.7392 32.6566 40.7392H30.3809V43.0155C30.3809 43.2408 30.2914 43.4568 30.1321 43.6161C29.9728 43.7754 29.7568 43.8649 29.5315 43.8649C29.3063 43.8649 29.0902 43.7754 28.9309 43.6161C28.7717 43.4568 28.6822 43.2408 28.6822 43.0155V40.7392H26.406C26.1807 40.7392 25.9647 40.6497 25.8054 40.4904C25.6461 40.3311 25.5566 40.1151 25.5566 39.8898C25.5566 39.6646 25.6461 39.4485 25.8054 39.2893C25.9647 39.13 26.1807 39.0405 26.406 39.0405H28.6823V36.7609Z" fill="#3BB54A"/>
<path fill-rule="evenodd" clip-rule="evenodd" d="M28.6687 19.868L38.2094 36.3927L42.0966 34.1469L32.5559 17.6255L28.6687 19.868Z" fill="#309DFF"/>
<path fill-rule="evenodd" clip-rule="evenodd" d="M28.6687 19.868L38.2094 36.3927L40.1512 35.2681L30.614 18.7468L28.6687 19.868Z" fill="#0087FF"/>
<path fill-rule="evenodd" clip-rule="evenodd" d="M40.1547 14.0153L45.2475 11.0738C46.0683 10.6041 47.0415 10.4779 47.955 10.7228C48.8685 10.9676 49.6482 11.5635 50.1241 12.3807C50.5954 13.2012 50.7224 14.175 50.4775 15.0889C50.2326 16.0028 49.6356 16.7825 48.8172 17.2574L43.7209 20.199C42.9008 20.6693 41.9279 20.7958 41.0148 20.5509C40.1017 20.306 39.3227 19.7096 38.8481 18.892C38.3771 18.0715 38.2501 17.0978 38.495 16.1839C38.74 15.2701 39.3368 14.4904 40.155 14.0153H40.1547Z" fill="#FFBA57"/>
<path fill-rule="evenodd" clip-rule="evenodd" d="M40.1548 14.0153L45.2476 11.0738C46.0684 10.6041 47.0417 10.4779 47.9551 10.7228C48.8686 10.9676 49.6483 11.5635 50.1242 12.3807L38.8478 18.892C38.3768 18.0715 38.2499 17.0978 38.4948 16.1839C38.7397 15.2701 39.3366 14.4904 40.1548 14.0153Z" fill="#E6A74E"/>
<path fill-rule="evenodd" clip-rule="evenodd" d="M32.556 17.6256L41.1138 5.77487L51.313 23.4377L36.8016 24.9746L31.8608 27.8249C31.378 28.1082 30.844 28.2931 30.2895 28.369C29.735 28.445 29.1709 28.4105 28.6298 28.2675C28.0887 28.1245 27.5812 27.8758 27.1366 27.5358C26.692 27.1958 26.3191 26.7712 26.0393 26.2864C25.7595 25.8017 25.5784 25.2664 25.5064 24.7113C25.4344 24.1563 25.473 23.5925 25.6199 23.0524C25.7667 22.5123 26.019 22.0066 26.3622 21.5645C26.7054 21.1223 27.1326 20.7524 27.6194 20.4761L32.556 17.6256Z" fill="#FFBA57"/>
<path fill-rule="evenodd" clip-rule="evenodd" d="M32.5559 17.6256L41.1138 5.77487L46.2266 14.6305L26.0646 26.2717C25.5045 25.2966 25.3535 24.1394 25.6446 23.0532C25.9358 21.9671 26.6454 21.0405 27.6181 20.4763L32.5559 17.6256Z" fill="#E6A74E"/>
<path fill-rule="evenodd" clip-rule="evenodd" d="M35.9366 23.4817L36.8012 24.9744L31.8603 27.8247C30.8852 28.3848 29.728 28.5358 28.6418 28.2447C27.5557 27.9535 26.6291 27.2439 26.0649 26.2712C25.5048 25.2961 25.3538 24.1389 25.645 23.0527C25.9362 21.9666 26.6458 21.04 27.6185 20.4759L32.5559 17.6255L35.9366 23.4817Z" fill="#309DFF"/>
<path fill-rule="evenodd" clip-rule="evenodd" d="M26.0649 26.2712C25.5048 25.2961 25.3538 24.1389 25.645 23.0527C25.9362 21.9666 26.6458 21.04 27.6185 20.4759L32.5559 17.6255L34.6766 21.3L26.0649 26.2712Z" fill="#0087FF"/>
<path d="M50.1582 8.10157C50.1303 8.2101 50.0811 8.31201 50.0135 8.40141C49.946 8.49081 49.8614 8.56594 49.7646 8.62244C49.6678 8.67895 49.5608 8.71571 49.4498 8.7306C49.3387 8.7455 49.2258 8.73823 49.1175 8.70921C49.0093 8.6802 48.9079 8.63002 48.8191 8.56158C48.7304 8.49313 48.6561 8.40777 48.6006 8.31045C48.5451 8.21312 48.5094 8.10574 48.4956 7.99454C48.4818 7.88333 48.4902 7.77049 48.5203 7.66254L49.7428 3.10327C49.8028 2.88805 49.9453 2.7052 50.1393 2.59447C50.3334 2.48374 50.5633 2.45407 50.7791 2.51191C50.9949 2.56976 51.1791 2.71044 51.2918 2.90338C51.4045 3.09632 51.4364 3.32593 51.3807 3.5423L50.1582 8.10157ZM53.5963 16.4533C53.4877 16.4254 53.3858 16.3762 53.2964 16.3087C53.207 16.2411 53.1319 16.1565 53.0754 16.0597C53.0189 15.963 52.9821 15.8559 52.9672 15.7449C52.9523 15.6338 52.9596 15.5209 52.9886 15.4127C53.0176 15.3044 53.0678 15.203 53.1363 15.1143C53.2047 15.0255 53.2901 14.9513 53.3874 14.8957C53.4847 14.8402 53.5921 14.8045 53.7033 14.7907C53.8145 14.7769 53.9273 14.7853 54.0353 14.8154L58.5944 16.0379C58.8097 16.0979 58.9925 16.2404 59.1032 16.4344C59.214 16.6285 59.2436 16.8584 59.1858 17.0742C59.128 17.29 58.9873 17.4743 58.7943 17.5869C58.6014 17.6996 58.3718 17.7315 58.1554 17.6758L53.5963 16.4533ZM53.3937 11.4685C53.2974 11.5272 53.1902 11.5661 53.0786 11.5828C52.967 11.5995 52.8532 11.5938 52.7438 11.5658C52.6345 11.5379 52.5319 11.4883 52.442 11.4201C52.3521 11.3519 52.2767 11.2664 52.2204 11.1686C52.1641 11.0708 52.1278 10.9627 52.1139 10.8507C52.1 10.7387 52.1086 10.6251 52.1392 10.5165C52.1699 10.4079 52.222 10.3065 52.2924 10.2183C52.3628 10.1301 52.4502 10.057 52.5494 10.0031L59.7324 5.85601C59.9273 5.74525 60.1582 5.7161 60.3746 5.77494C60.591 5.83378 60.7754 5.97582 60.8874 6.17007C60.943 6.26599 60.9791 6.37196 60.9935 6.48188C61.008 6.5918 61.0006 6.70349 60.9717 6.81053C60.9428 6.91756 60.893 7.01783 60.8253 7.10556C60.7575 7.19328 60.673 7.26673 60.5767 7.32168L53.3937 11.4685Z" fill="#0087FF"/>
<path fill-rule="evenodd" clip-rule="evenodd" d="M39.2158 3.90054C38.8482 4.11336 38.58 4.46318 38.4698 4.87339C38.3597 5.2836 38.4166 5.72074 38.6282 6.08904L49.8237 25.4842C50.0378 25.8514 50.3886 26.119 50.7993 26.2284C51.2101 26.3378 51.6475 26.2801 52.0159 26.068C52.3828 25.8546 52.6504 25.5048 52.7605 25.0948C52.8706 24.6849 52.8142 24.2481 52.6036 23.8796L41.4044 4.48421C41.1911 4.11707 40.841 3.84945 40.4308 3.74002C40.0206 3.63059 39.5837 3.68827 39.2159 3.90043L39.2158 3.90054Z" fill="#0087FF"/>
<path fill-rule="evenodd" clip-rule="evenodd" d="M39.2158 3.90056C38.8482 4.11337 38.58 4.4632 38.4698 4.87341C38.3597 5.28361 38.4166 5.72075 38.6282 6.08905L44.2278 15.785L47.0038 14.1842L41.4042 4.48483C41.1909 4.11768 40.8408 3.85006 40.4306 3.74063C40.0203 3.6312 39.5834 3.68888 39.2157 3.90104L39.2158 3.90056Z" fill="#309DFF"/>
</g>
<defs>
<clipPath id="clip0_1_1186">
<rect width="61" height="61" fill="white"/>
</clipPath>
</defs>
</svg>
