<svg width="56" height="56" viewBox="0 0 56 56" fill="none" xmlns="http://www.w3.org/2000/svg">
<g clip-path="url(#clip0_1_1225)">
<path d="M29.1655 0C28.5218 0 28 0.521816 28 1.16546V26.8047C28 27.4484 28.5218 27.9702 29.1655 27.9702H54.8047C55.4484 27.9702 55.9702 27.4484 55.9702 26.8047C55.9534 12.0078 43.9623 0.0167165 29.1655 0Z" fill="#FFC107"/>
<path d="M41.7403 49.3974L25.6692 28.7369V3.49625C25.6692 2.85261 25.1474 2.3308 24.5037 2.3308C11.0082 2.3308 0.0299072 14.3556 0.0299072 29.1354C0.0466237 43.9323 12.0377 55.9234 26.8345 55.9401C32.2071 56.3576 37.5194 54.5799 41.5585 51.0127C42.0465 50.6124 42.1271 49.8963 41.7403 49.3974Z" fill="#0087FF"/>
<path d="M54.8047 30.3009H31.4963C30.8527 30.301 30.331 30.8229 30.3312 31.4665C30.3312 31.7328 30.4224 31.991 30.5897 32.1981L45.7402 50.9544C45.9434 51.2065 46.2423 51.3627 46.5653 51.3856H46.6469C46.9418 51.3858 47.2259 51.2742 47.4418 51.0732C52.8708 45.9961 55.9577 38.8994 55.9703 31.4662C55.9701 30.8227 55.4484 30.3009 54.8047 30.3009Z" fill="#4CAF50"/>
</g>
<defs>
<clipPath id="clip0_1_1225">
<rect width="56" height="56" fill="white"/>
</clipPath>
</defs>
</svg>
