<svg width="60" height="60" viewBox="0 0 60 60" fill="none" xmlns="http://www.w3.org/2000/svg">
<path d="M1.87891 10.3154V36.5577C1.87891 38.1026 3.14389 39.3782 4.68526 39.3782H40.3139C41.8553 39.3782 43.1238 38.1026 43.1238 36.5577V10.3154H1.87891Z" fill="#0087FF"/>
<path d="M4.68526 1.87109C3.94025 1.87669 3.22755 2.1761 2.70206 2.70425C2.17657 3.23239 1.88075 3.94659 1.87891 4.69162V11.2469H43.1238V4.69162C43.121 3.94626 42.8244 3.23207 42.2984 2.70402C41.7723 2.17598 41.0593 1.87669 40.3139 1.87109H4.68526Z" fill="#006DF0"/>
<path d="M27.096 5.62312C26.8469 5.63486 26.6128 5.74506 26.445 5.92946C26.2772 6.11386 26.1895 6.35737 26.2013 6.6064C26.213 6.85544 26.3232 7.08961 26.5076 7.2574C26.692 7.42519 26.9355 7.51285 27.1846 7.50111H38.4383C38.6874 7.50111 38.9262 7.40218 39.1023 7.22608C39.2784 7.04998 39.3773 6.81115 39.3773 6.56211C39.3773 6.31307 39.2784 6.07424 39.1023 5.89814C38.9262 5.72205 38.6874 5.62312 38.4383 5.62312H27.1846C27.1551 5.62172 27.1255 5.62172 27.096 5.62312ZM16.8804 29.0661V55.3083C16.8804 56.8497 18.1454 58.1253 19.6868 58.1253H55.3154C56.8568 58.1253 58.1253 56.8497 58.1253 55.3083V29.0661H16.8804ZM12.189 14.9953C10.9346 14.9953 10.9346 16.8733 12.189 16.8733H29.0661C30.3169 16.8733 30.3169 14.9953 29.0661 14.9953H12.189ZM8.43301 28.1236H14.0599C15.3107 28.1236 15.3107 26.2491 14.0599 26.2491H8.39049C7.09362 26.3093 7.18574 28.1838 8.43301 28.1271V28.1236ZM8.43301 33.7504H14.0599C15.3107 33.7504 15.3107 31.876 14.0599 31.876H8.39049C7.09362 31.9362 7.18574 33.8107 8.43301 33.754V33.7504ZM8.43301 20.6222C7.18574 20.6222 7.18574 22.5002 8.43301 22.5002H14.0599C15.3107 22.5002 15.3107 20.6222 14.0599 20.6222H8.43301ZM32.815 14.9953C31.5642 14.9953 31.5642 16.8733 32.815 16.8733H36.5603C37.8112 16.8733 37.8112 14.9953 36.5603 14.9953H32.815Z" fill="#F1F1FB"/>
<path d="M50.6123 2.7998C50.3682 2.80796 50.1369 2.91091 49.9674 3.08682L47.1504 5.89672C47.0631 5.98392 46.9939 6.08749 46.9466 6.20149C46.8993 6.31549 46.875 6.43769 46.875 6.5611C46.875 6.68451 46.8993 6.80671 46.9466 6.92071C46.9939 7.03471 47.0631 7.13827 47.1504 7.22548L49.9674 10.0354C50.0506 10.1365 50.1541 10.2192 50.2711 10.278C50.3882 10.3368 50.5162 10.3705 50.6471 10.3768C50.7779 10.3832 50.9086 10.3621 51.0308 10.3149C51.153 10.2677 51.264 10.1955 51.3566 10.1029C51.4492 10.0103 51.5215 9.8993 51.5686 9.7771C51.6158 9.6549 51.6369 9.52418 51.6305 9.39335C51.6242 9.26251 51.5905 9.13445 51.5317 9.0174C51.4729 8.90036 51.3903 8.79691 51.2891 8.7137L49.1454 6.55933L51.2891 4.41558C51.4245 4.28404 51.5171 4.11472 51.5549 3.92974C51.5926 3.74476 51.5737 3.5527 51.5006 3.37863C51.4275 3.20455 51.3037 3.05654 51.1452 2.95392C50.9868 2.8513 50.8011 2.79528 50.6123 2.7998Z" fill="#FDB43A"/>
<path d="M47.8157 7.5014H51.5646C53.1414 7.5014 54.3745 8.73804 54.3745 10.3113V15.9382C54.3745 17.189 56.2525 17.189 56.2525 15.9382V10.3113C56.2525 7.73172 54.1478 5.62695 51.5646 5.62695H47.8157V7.5014ZM6.54603 43.123C6.30467 43.1292 6.07498 43.2282 5.90468 43.3994L3.0877 46.2092C3.00045 46.2965 2.93124 46.4001 2.88402 46.5141C2.8368 46.6281 2.8125 46.7502 2.8125 46.8736C2.8125 46.997 2.8368 47.1192 2.88402 47.2332C2.93124 47.3472 3.00045 47.4508 3.0877 47.538C3.17494 47.6253 3.27852 47.6945 3.39252 47.7417C3.50651 47.7889 3.62869 47.8132 3.75208 47.8132C3.87547 47.8132 3.99765 47.7889 4.11164 47.7417C4.22564 47.6945 4.32921 47.6253 4.41646 47.538L6.56021 45.3836L8.71458 47.538C8.89078 47.7142 9.12977 47.8132 9.37896 47.8132C9.62815 47.8132 9.86714 47.7142 10.0433 47.538C10.2196 47.3618 10.3185 47.1228 10.3185 46.8736C10.3185 46.6244 10.2196 46.3855 10.0433 46.2092L7.22636 43.3994C7.13735 43.3099 7.03122 43.2394 6.91433 43.1919C6.79744 43.1444 6.67218 43.121 6.54603 43.123Z" fill="#FDB43A"/>
<path d="M5.625 44.0625V51.5674C5.625 54.147 7.72977 56.2517 10.3129 56.2517H12.1909C13.4381 56.2517 13.4381 54.3737 12.1909 54.3737H10.3129C9.94313 54.3775 9.57634 54.3075 9.23395 54.1679C8.89156 54.0282 8.58045 53.8217 8.31882 53.5604C8.05718 53.2991 7.85028 52.9883 7.7102 52.646C7.57011 52.3038 7.49967 51.9371 7.50299 51.5674V44.0625H5.625Z" fill="#FDB43A"/>
<path d="M42.6741 33.751C41.5899 33.751 40.5056 34.1585 39.6906 34.9841L38.415 36.2172C38.3176 36.3005 38.2382 36.4029 38.1818 36.518C38.1255 36.6332 38.0933 36.7587 38.0873 36.8867C38.0813 37.0148 38.1015 37.1427 38.1468 37.2627C38.1921 37.3826 38.2615 37.492 38.3507 37.5841C38.4399 37.6762 38.547 37.749 38.6654 37.7982C38.7838 37.8473 38.9111 37.8716 39.0392 37.8697C39.1674 37.8678 39.2939 37.8397 39.4108 37.787C39.5277 37.7344 39.6326 37.6584 39.719 37.5637L41.0123 36.3199C41.0171 36.3153 41.0218 36.3105 41.0265 36.3058C41.2411 36.0856 41.4975 35.9106 41.7808 35.7911C42.0641 35.6716 42.3685 35.6101 42.6759 35.6101C42.9834 35.6101 43.2877 35.6716 43.571 35.7911C43.8543 35.9106 44.1108 36.0856 44.3254 36.3058C44.5451 36.5221 44.7196 36.7799 44.8387 37.0643C44.9578 37.3487 45.0192 37.654 45.0192 37.9623C45.0192 38.2706 44.9578 38.5759 44.8387 38.8603C44.7196 39.1447 44.5451 39.4025 44.3254 39.6188L39.6127 44.3138C39.2194 44.7117 38.6958 44.9544 38.138 44.9973C37.5802 45.0403 37.0256 44.8806 36.576 44.5476C36.4764 44.4748 36.3635 44.4223 36.2436 44.3932C36.1237 44.364 35.9993 44.3587 35.8774 44.3776C35.7555 44.3965 35.6385 44.4393 35.5331 44.5034C35.4277 44.5676 35.336 44.6518 35.2632 44.7514C35.1903 44.851 35.1378 44.9639 35.1087 45.0838C35.0795 45.2037 35.0742 45.3281 35.0931 45.45C35.1121 45.5719 35.1548 45.6889 35.2189 45.7943C35.2831 45.8997 35.3673 45.9914 35.4669 46.0642C36.2792 46.6569 37.2766 46.9398 38.2792 46.8618C39.2817 46.7839 40.2234 46.3502 40.9343 45.639L45.6541 40.944C45.6541 40.9417 45.6541 40.9393 45.6541 40.9369C46.4383 40.1448 46.8782 39.0752 46.8782 37.9605C46.8782 36.8459 46.4383 35.7762 45.6541 34.9841C45.2627 34.5929 44.7981 34.2827 44.2868 34.0711C43.7755 33.8595 43.2275 33.7507 42.6741 33.751Z" fill="#0087FF"/>
<path d="M36.7434 39.3711C35.7655 39.4419 34.8088 39.8565 34.0646 40.5971L29.352 45.2956L29.3449 45.3027C28.5616 46.0958 28.123 47.1659 28.1243 48.2806C28.1257 49.3952 28.5668 50.4643 29.352 51.2555C29.744 51.6467 30.2092 51.9568 30.7211 52.1681C31.2329 52.3794 31.7814 52.4878 32.3352 52.4872C32.8889 52.4865 33.4372 52.3768 33.9485 52.1642C34.4599 51.9517 34.9244 51.6405 35.3155 51.2485L36.5911 50.0154C36.6934 49.9337 36.7775 49.8316 36.838 49.7155C36.8985 49.5995 36.9341 49.4721 36.9425 49.3414C36.9508 49.2108 36.9318 49.0799 36.8866 48.9571C36.8414 48.8342 36.771 48.7222 36.6799 48.6282C36.5889 48.5342 36.4792 48.4602 36.3579 48.4111C36.2366 48.362 36.1063 48.3387 35.9755 48.3429C35.8447 48.3471 35.7162 48.3785 35.5983 48.4353C35.4803 48.492 35.3755 48.5728 35.2907 48.6724L33.9938 49.9197L33.9796 49.9339C33.7645 50.1536 33.5077 50.328 33.2241 50.4469C32.9406 50.5658 32.6361 50.6267 32.3287 50.626C32.0212 50.6254 31.717 50.5631 31.434 50.4431C31.151 50.323 30.8948 50.1474 30.6807 49.9268C30.4602 49.7113 30.285 49.4539 30.1654 49.1697C30.0458 48.8855 29.9842 48.5803 29.9842 48.272C29.9842 47.9637 30.0458 47.6585 30.1654 47.3743C30.285 47.0902 30.4602 46.8328 30.6807 46.6173L35.3934 41.9187C35.7851 41.5207 36.3076 41.2778 36.8644 41.2348C37.4212 41.1918 37.9748 41.3517 38.423 41.6849C38.5218 41.7621 38.6351 41.8187 38.7562 41.8515C38.8772 41.8842 39.0036 41.8923 39.1279 41.8754C39.2522 41.8585 39.3718 41.8168 39.4797 41.7529C39.5876 41.689 39.6816 41.6041 39.7562 41.5033C39.8307 41.4024 39.8844 41.2877 39.9138 41.1658C39.9433 41.0439 39.9481 40.9173 39.9279 40.7935C39.9076 40.6698 39.8628 40.5513 39.7961 40.4451C39.7293 40.339 39.642 40.2473 39.5392 40.1754C38.7319 39.5819 37.7391 39.2966 36.7399 39.3711H36.7434ZM19.6892 20.623C18.9448 20.6286 18.2326 20.9276 17.7072 21.4549C17.1818 21.9823 16.8856 22.6956 16.8828 23.44V29.9988H58.1277V23.4436C58.1249 22.6982 57.8283 21.984 57.3023 21.456C56.7762 20.9279 56.0632 20.6286 55.3178 20.623H19.6892Z" fill="#004FAC"/>
<path d="M42.1887 26.2491H53.4425C54.6933 26.2491 54.6933 24.3711 53.4425 24.3711H42.1426C40.8493 24.4349 40.9379 26.3093 42.1887 26.2491Z" fill="white"/>
<path d="M6.56436 5.62695C6.31688 5.62695 6.07948 5.72502 5.90415 5.89969C5.72882 6.07435 5.62985 6.31138 5.62891 6.55886C5.62845 6.682 5.6523 6.80403 5.6991 6.91793C5.7459 7.03183 5.81473 7.13538 5.90164 7.22262C5.98856 7.30986 6.09184 7.37908 6.20556 7.42631C6.31929 7.47354 6.44122 7.49786 6.56436 7.49786C6.68721 7.49739 6.80876 7.47273 6.92208 7.42529C7.03539 7.37785 7.13826 7.30856 7.22479 7.22136C7.31133 7.13417 7.37984 7.03079 7.42642 6.91711C7.473 6.80344 7.49674 6.68171 7.49627 6.55886C7.49534 6.31199 7.39686 6.0755 7.22229 5.90093C7.04773 5.72637 6.81123 5.62789 6.56436 5.62695ZM10.3168 5.62695C10.0693 5.62695 9.83192 5.72502 9.65659 5.89969C9.48126 6.07435 9.38229 6.31138 9.38135 6.55886C9.38088 6.682 9.40473 6.80403 9.45154 6.91793C9.49834 7.03183 9.56717 7.13538 9.65408 7.22262C9.74099 7.30986 9.84427 7.37908 9.958 7.42631C10.0717 7.47354 10.1937 7.49786 10.3168 7.49786C10.4399 7.49786 10.5619 7.47354 10.6756 7.42631C10.7893 7.37908 10.8926 7.30986 10.9795 7.22262C11.0664 7.13538 11.1353 7.03183 11.1821 6.91793C11.2289 6.80403 11.2527 6.682 11.2523 6.55886C11.2513 6.31138 11.1523 6.07435 10.977 5.89969C10.8017 5.72502 10.5643 5.62695 10.3168 5.62695ZM14.0657 5.62695C13.8182 5.62695 13.5808 5.72502 13.4055 5.89969C13.2301 6.07435 13.1312 6.31138 13.1302 6.55886C13.1298 6.682 13.1536 6.80403 13.2004 6.91793C13.2472 7.03183 13.3161 7.13538 13.403 7.22262C13.4899 7.30986 13.5932 7.37908 13.7069 7.42631C13.8206 7.47354 13.9425 7.49786 14.0657 7.49786C14.1888 7.49786 14.3108 7.47354 14.4245 7.42631C14.5382 7.37908 14.6415 7.30986 14.7284 7.22262C14.8153 7.13538 14.8842 7.03183 14.931 6.91793C14.9778 6.80403 15.0016 6.682 15.0011 6.55886C15.0002 6.31138 14.9012 6.07435 14.7259 5.89969C14.5506 5.72502 14.3132 5.62695 14.0657 5.62695Z" fill="white"/>
<path d="M21.5605 24.3789C21.313 24.3789 21.0756 24.477 20.9002 24.6516C20.7249 24.8263 20.6259 25.0633 20.625 25.3108C20.625 25.5589 20.7236 25.7968 20.899 25.9723C21.0744 26.1477 21.3124 26.2463 21.5605 26.2463C21.8085 26.2463 22.0465 26.1477 22.2219 25.9723C22.3973 25.7968 22.4959 25.5589 22.4959 25.3108C22.495 25.0633 22.396 24.8263 22.2207 24.6516C22.0453 24.477 21.8079 24.3789 21.5605 24.3789ZM25.3129 24.3789C25.0654 24.3789 24.828 24.477 24.6527 24.6516C24.4773 24.8263 24.3784 25.0633 24.3774 25.3108C24.3774 25.5589 24.476 25.7968 24.6514 25.9723C24.8269 26.1477 25.0648 26.2463 25.3129 26.2463C25.561 26.2463 25.7989 26.1477 25.9744 25.9723C26.1498 25.7968 26.2483 25.5589 26.2483 25.3108C26.2474 25.0633 26.1484 24.8263 25.9731 24.6516C25.7978 24.477 25.5604 24.3789 25.3129 24.3789ZM29.0618 24.3789C28.8149 24.3798 28.5784 24.4783 28.4039 24.6529C28.2293 24.8275 28.1308 25.0639 28.1299 25.3108C28.1299 25.5583 28.2279 25.7957 28.4026 25.971C28.5773 26.1464 28.8143 26.2453 29.0618 26.2463C29.3099 26.2463 29.5478 26.1477 29.7232 25.9723C29.8987 25.7968 29.9972 25.5589 29.9972 25.3108C29.9963 25.0633 29.8973 24.8263 29.722 24.6516C29.5467 24.477 29.3093 24.3789 29.0618 24.3789Z" fill="white"/>
</svg>
