<svg width="53" height="53" viewBox="0 0 53 53" fill="none" xmlns="http://www.w3.org/2000/svg">
<path d="M18.9834 53H0V46.3136C0 43.783 1.02501 41.5386 2.88643 39.9942C4.59144 38.5794 6.9372 37.8004 9.49166 37.8004C12.046 37.8004 14.3918 38.5794 16.0969 39.9942C17.9583 41.5386 18.9835 43.783 18.9835 46.3136V53H18.9834Z" fill="#50C5FF"/>
<path d="M18.9835 46.3136C18.9835 43.783 17.9583 41.5386 16.0968 39.9942C14.3917 38.5795 12.0461 37.8004 9.4917 37.8004V53H18.9834L18.9835 46.3136Z" fill="#488AFF"/>
<path d="M9.49162 40.9058C6.11277 40.9058 3.36401 38.1569 3.36401 34.7782C3.36401 31.3994 6.11287 28.6505 9.49162 28.6505C12.8705 28.6505 15.6192 31.3994 15.6192 34.7782C15.6192 38.1569 12.8705 40.9058 9.49162 40.9058Z" fill="#FFB19E"/>
<path d="M9.4917 28.6505V40.9059C12.8706 40.9059 15.6193 38.157 15.6193 34.7783C15.6193 31.3995 12.8706 28.6505 9.4917 28.6505Z" fill="#E59788"/>
<path d="M53 53H34.0166V46.3136C34.0166 43.783 35.0416 41.5386 36.903 39.9942C38.608 38.5794 40.9538 37.8004 43.5083 37.8004C46.0626 37.8004 48.4084 38.5794 50.1135 39.9942C51.9749 41.5386 53 43.783 53 46.3136V53Z" fill="#50C5FF"/>
<path d="M53.0001 46.3136C53.0001 43.783 51.9749 41.5386 50.1134 39.9942C48.4084 38.5795 46.0627 37.8004 43.5083 37.8004V53H53.0001V46.3136Z" fill="#488AFF"/>
<path d="M43.5082 40.9058C40.1294 40.9058 37.3806 38.1569 37.3806 34.7782C37.3806 31.3994 40.1295 28.6505 43.5082 28.6505C46.8871 28.6505 49.6358 31.3994 49.6358 34.7782C49.6358 38.1569 46.887 40.9058 43.5082 40.9058Z" fill="#FFB19E"/>
<path d="M43.5083 28.6505V40.9059C46.8872 40.9059 49.6359 38.157 49.6359 34.7783C49.6359 31.3995 46.8871 28.6505 43.5083 28.6505Z" fill="#E59788"/>
<path d="M26.5 15.5357L32.5879 18.7363L31.4252 11.9574L36.3503 7.15655L29.544 6.16767L26.5 0L23.456 6.16767L16.6497 7.15655L21.5748 11.9574L20.4121 18.7362L26.5 15.5357Z" fill="#FFB725"/>
<path d="M36.3503 7.15655L29.544 6.16767L26.5 0V15.5357L32.5879 18.7363L31.4252 11.9574L36.3503 7.15655Z" fill="#FF9000"/>
<path d="M41.5416 53H11.4583V51.3505C11.4583 47.3219 13.0184 43.8979 15.9702 41.4487C18.6727 39.2063 22.4121 37.9714 26.4997 37.9714C30.5871 37.9714 34.3266 39.2063 37.0293 41.4487C39.9813 43.898 41.5416 47.322 41.5416 51.3505V53Z" fill="#48568C"/>
<path d="M41.5416 51.3505C41.5416 47.322 39.9814 43.8979 37.0294 41.4487C34.3268 39.2063 30.5874 37.9714 26.5 37.9714V53H41.5416V51.3505Z" fill="#2C3B73"/>
<path d="M26.4999 41.0769C21.3577 41.0769 17.1741 36.8933 17.1741 31.751C17.1741 26.6088 21.3577 22.4252 26.4999 22.4252C31.6423 22.4252 35.8259 26.6088 35.8259 31.751C35.8259 36.8933 31.6423 41.0769 26.4999 41.0769Z" fill="#F9C4B9"/>
<path d="M35.8259 31.751C35.8259 26.6088 31.6423 22.4253 26.5 22.4252V41.0769C31.6423 41.0768 35.8259 36.8933 35.8259 31.751Z" fill="#FFB19E"/>
<path d="M14.3305 23.4655L12.4652 18.2112L15.7362 13.6961L10.1631 13.8465L6.87965 9.34032L5.3 14.6875L0 16.4175L4.59744 19.572L4.6052 25.1475L9.02584 21.75L14.3305 23.4655Z" fill="#FFB725"/>
<path d="M14.3305 23.4655L12.4653 18.2112L15.7363 13.6962L10.1631 13.8465L6.87988 9.34063L9.02587 21.75L14.3305 23.4655Z" fill="#FF9000"/>
<path d="M38.6694 23.4655L40.5347 18.2112L37.2637 13.6961L42.8369 13.8465L46.1203 9.34032L47.6999 14.6875L52.9999 16.4175L48.4025 19.572L48.3947 25.1475L43.9741 21.75L38.6694 23.4655Z" fill="#FF9000"/>
<path d="M38.6694 23.4655L40.5347 18.2112L37.2637 13.6962L42.8369 13.8465L46.1201 9.34063L43.9741 21.75L38.6694 23.4655Z" fill="#FFB725"/>
</svg>
