<svg width="56" height="56" viewBox="0 0 56 56" fill="none" xmlns="http://www.w3.org/2000/svg">
<g clip-path="url(#clip0_1_21707)">
<path d="M56 27.5C56 42.688 43.688 55 28.5 55C13.312 55 1 42.688 1 27.5C1 12.312 13.312 0 28.5 0C43.688 0 56 12.312 56 27.5Z" fill="#4A7AFF"/>
<path d="M56.0001 27.5003C56.0001 26.7207 55.9661 25.949 55.9023 25.1861L44.1312 13.415L12.8169 41.5268L26.193 54.9034C26.9538 54.9663 27.7229 55.0003 28.5001 55.0003C43.6881 55.0003 56.0001 42.6883 56.0001 27.5003Z" fill="#0053BF"/>
<path d="M49.5419 27.4997C49.5419 39.1206 40.121 48.5414 28.5002 48.5414C16.8793 48.5414 7.4585 39.1206 7.4585 27.4997C7.4585 15.8788 16.8793 6.45801 28.5002 6.45801C40.121 6.45801 49.5419 15.8788 49.5419 27.4997Z" fill="#A3D4FF"/>
<path d="M28.5002 6.45801C28.4855 6.45801 28.4712 6.45843 28.4565 6.45843V48.5409C28.4712 48.5409 28.4855 48.5414 28.5002 48.5414C40.121 48.5414 49.5419 39.1206 49.5419 27.4997C49.5419 15.8788 40.121 6.45801 28.5002 6.45801Z" fill="#65B1FC"/>
<path d="M44.7807 27.5004C44.7807 18.5089 37.4915 11.2197 28.4999 11.2197C19.5084 11.2197 12.2192 18.5089 12.2192 27.5004C12.2192 31.6517 13.7735 35.4392 16.3315 38.3152H40.6684C43.2264 35.4396 44.7807 31.6517 44.7807 27.5004Z" fill="white"/>
<path d="M44.7809 27.5004C44.7809 18.5089 37.4917 11.2197 28.5002 11.2197C28.4855 11.2197 28.4712 11.2201 28.4565 11.2201V38.3152H40.6686C43.2266 35.4396 44.7809 31.6517 44.7809 27.5004Z" fill="#E9EDF5"/>
<path d="M26.8887 12.9053H30.1113V17.72H26.8887V12.9053Z" fill="#FFCE00"/>
<path d="M28.4565 12.9053H30.1115V17.72H28.4565V12.9053Z" fill="#FFA300"/>
<path d="M38.2798 25.8887H43.0945V29.1113H38.2798V25.8887Z" fill="#FFA300"/>
<path d="M13.9058 25.8887H18.7204V29.1113H13.9058V25.8887Z" fill="#FFCE00"/>
<path d="M34.2754 19.4454L37.6797 16.041L39.9583 18.3195L36.5539 21.7239L34.2754 19.4454Z" fill="#FFA300"/>
<path d="M17.0405 18.3195L19.3195 16.041L22.7238 19.4454L20.4449 21.7239L17.0405 18.3195Z" fill="#FFCE00"/>
<path d="M26.7902 39.2033C25.4915 37.5463 17.0903 20.6416 17.0903 20.6416C17.0903 20.6416 31.4933 32.8441 32.792 34.5015C34.0903 36.1586 33.7995 38.555 32.142 39.8533C30.4845 41.1516 28.0885 40.8608 26.7902 39.2033Z" fill="#FE6A16"/>
<path d="M32.2221 39.7875C33.8074 38.4753 34.0689 36.1313 32.792 34.5015C31.4933 32.8441 17.0903 20.6416 17.0903 20.6416L32.2221 39.7875Z" fill="#F24500"/>
<path d="M19.4766 39.1553H37.5234V45.4932H19.4766V39.1553Z" fill="#FFCE00"/>
<path d="M28.4565 39.1553H37.5236V45.4932H28.4565V39.1553Z" fill="#FFA300"/>
</g>
<defs>
<clipPath id="clip0_1_21707">
<rect width="55" height="55" fill="white" transform="translate(1)"/>
</clipPath>
</defs>
</svg>
