<svg width="40" height="54" viewBox="0 0 40 54" fill="none" xmlns="http://www.w3.org/2000/svg">
<path d="M36.4419 6.68378H34.946L19.9999 8.84591L5.05376 6.68378H3.34189C1.49619 6.68378 5.85757e-09 5.18759 5.85757e-09 3.34189C-0.000108101 1.49619 1.49619 0 3.34189 0H36.4419C38.2876 0 39.7838 1.49619 39.7838 3.34189C39.7839 5.18759 38.2876 6.68378 36.4419 6.68378Z" fill="#0087FF"/>
<path d="M36.6582 0H33.415C35.2607 0 36.7569 1.49619 36.7569 3.34189C36.7569 5.18759 35.2607 6.68378 33.415 6.68378H36.6582C38.5039 6.68378 40.0001 5.18759 40.0001 3.34189C40.0002 1.49619 38.5039 0 36.6582 0Z" fill="#2D9CFF"/>
<path d="M34.7293 10.8789V6.68359H5.05322V10.8789C5.05322 17.3869 9.21294 22.9226 15.0186 24.974C15.8199 25.2571 16.3556 26.0144 16.3556 26.8641C16.3556 27.714 15.8199 28.4712 15.0186 28.7543C9.21305 30.8057 5.05322 36.3414 5.05322 42.8494V47.0447H34.7292V42.8494C34.7292 36.3414 30.5695 30.8057 24.7638 28.7543C23.9625 28.4711 23.4268 27.7138 23.4268 26.8641H23.643C23.643 26.0143 23.9625 25.2571 24.7638 24.974C30.5695 22.9227 34.7293 17.3869 34.7293 10.8789Z" fill="#EFEDEF"/>
<path d="M5.05322 6.68359V8.80237H29.6258C30.7726 8.80237 31.7023 9.73209 31.7023 10.8789C31.7023 17.3667 27.5683 22.8882 21.791 24.9548C21.0762 25.2104 20.5294 25.8207 20.421 26.572C20.2818 27.5361 20.8449 28.439 21.737 28.7543C27.5425 30.8057 31.7023 36.3415 31.7023 42.8494V47.0447H34.9455V42.8494C34.9455 36.3616 30.8115 30.8401 25.0342 28.7735C24.3194 28.5178 23.7726 27.9076 23.6642 27.1562C23.525 26.1921 24.0881 25.2892 24.9801 24.974C30.7857 22.9226 34.9455 17.3868 34.9455 10.8789V8.80248V6.68359H5.05322Z" fill="#D7D0D6"/>
<path d="M36.4419 53.7287H3.34189C1.49619 53.7287 0 52.2325 0 50.3868C0 48.5411 1.49619 47.0449 3.34189 47.0449H5.05397L20.0001 44.8828L34.9462 47.0449H36.4421C38.2878 47.0449 39.784 48.5411 39.784 50.3868C39.7839 52.2325 38.2876 53.7287 36.4419 53.7287Z" fill="#0087FF"/>
<path d="M36.6582 47.0449H33.415C35.2607 47.0449 36.7569 48.5411 36.7569 50.3868C36.7569 52.2325 35.2607 53.7287 33.415 53.7287H36.6582C38.5039 53.7287 40.0001 52.2325 40.0001 50.3868C40.0002 48.5411 38.5039 47.0449 36.6582 47.0449Z" fill="#2D9CFF"/>
<path d="M27.1964 35.3205H25.6223C24.0393 35.3205 22.4725 34.1753 22.2136 32.6137L21.5713 28.7399C21.2444 26.7683 22.7653 24.9746 24.7638 24.9746C28.6421 23.6042 31.7836 20.6776 33.4436 16.9463H6.33872C7.99858 20.6777 11.1402 23.6042 15.0185 24.9746C17.017 24.9746 18.5379 26.7683 18.211 28.7399L17.5687 32.6137C17.3098 34.1753 15.9591 35.3205 14.3762 35.3205H12.5859C8.45901 35.3205 5.07571 38.641 5.05344 42.7677C5.05333 42.7952 5.05322 42.8226 5.05322 42.8501V47.0454H34.7292V42.8501C34.7292 42.8226 34.7291 42.7952 34.729 42.7677C34.7066 38.641 31.3233 35.3205 27.1964 35.3205Z" fill="#FED402"/>
<path d="M34.9462 42.7677C34.9238 38.641 31.5406 35.3205 27.4137 35.3205H25.6233C24.0403 35.3205 22.6897 34.1753 22.4308 32.6137L21.7885 28.7399C21.4616 26.7683 22.9825 24.9746 24.981 24.9746C28.8593 23.6042 32.0008 20.6776 33.6608 16.9463H30.4176C28.7577 20.6777 25.6162 23.6042 21.7378 24.9746C19.7393 24.9746 18.2184 26.7683 18.5454 28.7399L19.1876 32.6137C19.4465 34.1753 20.7972 35.3205 22.3801 35.3205H24.1706C28.2974 35.3205 31.6807 38.641 31.703 42.7677C31.7031 42.7952 31.7032 42.8226 31.7032 42.8501V47.0454H34.9464V42.8501C34.9464 42.8226 34.9463 42.7952 34.9462 42.7677Z" fill="#FAC600"/>
</svg>
