<svg width="52" height="55" viewBox="0 0 52 55" fill="none" xmlns="http://www.w3.org/2000/svg">
<path d="M0 22.787H10.2688C10.3203 19.0527 10.8649 15.3416 11.8885 11.75H3.16975C1.23841 15.1195 0.150899 18.9062 0 22.787Z" fill="#29B6F6"/>
<path d="M23.2255 24.7246H12.2012C12.2567 28.4655 12.8342 32.1803 13.9168 35.7616H23.2255V24.7246Z" fill="#29B6F6"/>
<path d="M23.2258 46.9237V37.6992H14.5942C16.6034 42.8762 19.7034 46.3753 23.2258 46.9237Z" fill="#29B6F6"/>
<path d="M23.2255 22.787V11.75H13.9168C12.8342 15.3312 12.2567 19.0461 12.2012 22.787H23.2255Z" fill="#29B6F6"/>
<path d="M25.1631 0.587891V9.81233H33.7946C31.7845 4.63533 28.6855 1.13523 25.1631 0.587891Z" fill="#0288D1"/>
<path d="M14.5938 9.81233H23.2253V0.587891C19.7029 1.13523 16.6029 4.63436 14.5938 9.81233Z" fill="#29B6F6"/>
<path d="M36.1865 22.787C36.1314 19.046 35.554 15.3311 34.4708 11.75H25.1631V22.787H36.1865Z" fill="#0288D1"/>
<path d="M10.2639 24.7246H0C0.149275 28.6049 1.23478 32.3915 3.16394 35.7616H11.8827C10.8596 32.1699 10.3153 28.4588 10.2639 24.7246Z" fill="#29B6F6"/>
<path d="M33.7946 37.6992H25.1631V46.9237C28.6855 46.3753 31.7845 42.8762 33.7946 37.6992Z" fill="#0288D1"/>
<path d="M35.8687 9.81247H43.9907C40.4115 4.72756 35.0136 1.21416 28.915 0C31.8058 1.82319 34.2315 5.28937 35.8687 9.81247Z" fill="#0288D1"/>
<path d="M12.5185 37.6992H4.39746C7.97683 42.7838 13.3747 46.2968 19.4731 47.5107C16.5824 45.6875 14.1566 42.2213 12.5185 37.6992Z" fill="#29B6F6"/>
<path d="M35.8687 37.6992C34.2315 42.2213 31.8058 45.6875 28.915 47.5107C35.0135 46.2968 40.4114 42.7838 43.9907 37.6992H35.8687Z" fill="#0288D1"/>
<path d="M12.5185 9.81247C14.1566 5.28937 16.5824 1.82319 19.4731 0C13.3746 1.21416 7.97665 4.72756 4.39746 9.81247H12.5185Z" fill="#29B6F6"/>
<path d="M36.5039 11.75C37.528 15.3415 38.0726 19.0527 38.1237 22.787H48.3924C48.2433 18.9067 47.1578 15.12 45.2285 11.75H36.5039Z" fill="#0288D1"/>
<path d="M25.1631 24.7246V35.7616H34.4708C35.5539 32.1804 36.1314 28.4655 36.1865 24.7246H25.1631Z" fill="#0288D1"/>
<path d="M48.3885 24.7246H38.1198C38.0686 28.4589 37.5239 32.17 36.5 35.7616H45.2188C47.1499 32.392 48.2374 28.6054 48.3885 24.7246Z" fill="#0288D1"/>
<path d="M50.0342 22.3125C43.9572 21.9018 38.4741 18.6758 36.5424 17.4155C36.3236 17.2718 36.0675 17.1953 35.8057 17.1953C35.5439 17.1953 35.2878 17.2718 35.069 17.4155C33.1315 18.6749 27.6532 21.9018 21.5772 22.3125C21.2304 22.3357 20.9059 22.4919 20.6716 22.7486C20.4373 23.0053 20.3112 23.3426 20.3197 23.6901C20.4379 29.0763 21.7922 49.1682 35.3421 54.1679C35.6415 54.2774 35.9699 54.2774 36.2692 54.1679C49.8182 49.1682 51.1735 29.0773 51.2907 23.6901C51.2994 23.3427 51.1736 23.0054 50.9394 22.7487C50.7053 22.4919 50.3809 22.3357 50.0342 22.3125Z" fill="#FFB300"/>
<path d="M51.2873 23.6898C51.173 29.0799 49.8186 49.1679 36.2716 54.1696C36.1225 54.2232 35.9651 54.2504 35.8066 54.25V17.1953C36.068 17.1949 36.3236 17.2721 36.541 17.4172C38.4785 18.6765 43.9587 21.9044 50.0356 22.3152C50.3819 22.3369 50.7062 22.4925 50.9398 22.7491C51.1734 23.0056 51.298 23.343 51.2873 23.6898Z" fill="#FF8F00"/>
<path d="M35.8061 49.9878C26.8936 45.8512 24.9154 32.1918 24.4775 26.0258C28.474 25.2514 32.3063 23.7916 35.8051 21.7109C39.3038 23.7918 43.1362 25.2517 47.1327 26.0258C46.6958 32.1909 44.7157 45.8522 35.8061 49.9878Z" fill="#EEEEEE"/>
<path d="M47.1303 26.0209C46.6925 32.1928 44.7182 45.8493 35.8047 49.9858V21.709C39.302 23.7906 43.1341 25.2496 47.1303 26.0209Z" fill="#E0E0E0"/>
<path d="M30.7188 33.9062H28.5391C28.2821 33.9062 28.0357 33.8042 27.8541 33.6225C27.6724 33.4408 27.5703 33.1944 27.5703 32.9375C27.5703 32.6806 27.6724 32.4342 27.8541 32.2525C28.0357 32.0708 28.2821 31.9688 28.5391 31.9688H30.7188C30.8472 31.9688 30.9704 31.9177 31.0613 31.8269C31.1521 31.736 31.2031 31.6128 31.2031 31.4844C31.2031 31.3559 31.1521 31.2327 31.0613 31.1419C30.9704 31.051 30.8472 31 30.7188 31H29.9922C29.3499 31 28.7339 30.7448 28.2797 30.2907C27.8255 29.8365 27.5703 29.2204 27.5703 28.5781C27.5703 27.9358 27.8255 27.3198 28.2797 26.8656C28.7339 26.4114 29.3499 26.1563 29.9922 26.1562H32.1719C32.4288 26.1562 32.6752 26.2583 32.8569 26.44C33.0386 26.6217 33.1406 26.8681 33.1406 27.125C33.1406 27.3819 33.0386 27.6283 32.8569 27.81C32.6752 27.9917 32.4288 28.0938 32.1719 28.0938H29.9922C29.8637 28.0938 29.7405 28.1448 29.6497 28.2356C29.5588 28.3265 29.5078 28.4497 29.5078 28.5781C29.5078 28.7066 29.5588 28.8298 29.6497 28.9206C29.7405 29.0115 29.8637 29.0625 29.9922 29.0625H30.7188C31.3611 29.0625 31.9771 29.3177 32.4313 29.7718C32.8855 30.226 33.1406 30.8421 33.1406 31.4844C33.1406 32.1267 32.8855 32.7427 32.4313 33.1969C31.9771 33.6511 31.3611 33.9062 30.7188 33.9062Z" fill="black"/>
<path d="M36.5312 33.9062H34.3516C34.0946 33.9062 33.8482 33.8042 33.6666 33.6225C33.4849 33.4408 33.3828 33.1944 33.3828 32.9375C33.3828 32.6806 33.4849 32.4342 33.6666 32.2525C33.8482 32.0708 34.0946 31.9688 34.3516 31.9688H36.5312C36.6597 31.9688 36.7829 31.9177 36.8738 31.8269C36.9646 31.736 37.0156 31.6128 37.0156 31.4844C37.0156 31.3559 36.9646 31.2327 36.8738 31.1419C36.7829 31.051 36.6597 31 36.5312 31H35.8047C35.1624 31 34.5464 30.7448 34.0922 30.2907C33.638 29.8365 33.3828 29.2204 33.3828 28.5781C33.3828 27.9358 33.638 27.3198 34.0922 26.8656C34.5464 26.4114 35.1624 26.1563 35.8047 26.1562H37.9844C38.2413 26.1562 38.4877 26.2583 38.6694 26.44C38.8511 26.6217 38.9531 26.8681 38.9531 27.125C38.9531 27.3819 38.8511 27.6283 38.6694 27.81C38.4877 27.9917 38.2413 28.0938 37.9844 28.0938H35.8047C35.6762 28.0938 35.553 28.1448 35.4622 28.2356C35.3713 28.3265 35.3203 28.4497 35.3203 28.5781C35.3203 28.7066 35.3713 28.8298 35.4622 28.9206C35.553 29.0115 35.6762 29.0625 35.8047 29.0625H36.5312C37.1736 29.0625 37.7896 29.3177 38.2438 29.7718C38.698 30.226 38.9531 30.8421 38.9531 31.4844C38.9531 32.1267 38.698 32.7427 38.2438 33.1969C37.7896 33.6511 37.1736 33.9062 36.5312 33.9062Z" fill="black"/>
<path d="M43.0703 33.9062H41.2539C40.7081 33.9057 40.1848 33.6887 39.7988 33.3027C39.4129 32.9168 39.1958 32.3935 39.1953 31.8477V27.125C39.1953 26.8681 39.2974 26.6217 39.4791 26.44C39.6607 26.2583 39.9071 26.1562 40.1641 26.1562C40.421 26.1562 40.6674 26.2583 40.8491 26.44C41.0307 26.6217 41.1328 26.8681 41.1328 27.125V31.8477C41.1328 31.8798 41.1456 31.9106 41.1683 31.9333C41.191 31.956 41.2218 31.9688 41.2539 31.9688H43.0703C43.3272 31.9688 43.5736 32.0708 43.7553 32.2525C43.937 32.4342 44.0391 32.6806 44.0391 32.9375C44.0391 33.1944 43.937 33.4408 43.7553 33.6225C43.5736 33.8042 43.3272 33.9062 43.0703 33.9062Z" fill="black"/>
<path d="M33.9639 38.75C33.9509 38.4929 33.9903 38.2359 34.0798 37.9945C34.1692 37.7531 34.3068 37.5324 34.4841 37.3458C34.6615 37.1593 34.875 37.0107 35.1115 36.9092C35.3481 36.8077 35.6028 36.7554 35.8602 36.7554C36.1177 36.7554 36.3724 36.8077 36.6089 36.9092C36.8455 37.0107 37.059 37.1593 37.2363 37.3458C37.4137 37.5324 37.5513 37.7531 37.6407 37.9945C37.7301 38.2359 37.7696 38.4929 37.7566 38.75H39.6941C39.6478 37.7446 39.2305 36.792 38.5229 36.0764C37.8152 35.3607 36.8675 34.9326 35.8627 34.875C34.8578 34.9326 33.9101 35.3607 33.2024 36.0764C32.4948 36.792 32.0775 37.7446 32.0312 38.75H33.9639Z" fill="black"/>
<path d="M39.6943 38.75H31.9443C31.4093 38.75 30.9756 39.1837 30.9756 39.7188V43.5938C30.9756 44.1288 31.4093 44.5625 31.9443 44.5625H39.6943C40.2294 44.5625 40.6631 44.1288 40.6631 43.5938V39.7188C40.6631 39.1837 40.2294 38.75 39.6943 38.75Z" fill="#29B6F6"/>
<path d="M39.6943 38.75H35.8193V44.5625H39.6943C39.9513 44.5625 40.1977 44.4604 40.3793 44.2788C40.561 44.0971 40.6631 43.8507 40.6631 43.5938V39.7188C40.6631 39.4618 40.561 39.2154 40.3793 39.0337C40.1977 38.8521 39.9513 38.75 39.6943 38.75Z" fill="#0288D1"/>
</svg>
