<svg width="41" height="54" viewBox="0 0 41 54" fill="none" xmlns="http://www.w3.org/2000/svg">
<path d="M34.7988 14.7986V22.4273H27.6933V15.076C27.6933 12.9518 26.8326 11.028 25.4404 9.63579C24.0482 8.24358 22.1244 7.38294 20.0002 7.38294C15.7508 7.38294 12.3072 10.8276 12.3072 15.076V22.4273H5.20166V14.7986C5.20166 6.63832 11.84 0 20.0002 0C28.1605 0 34.7988 6.63832 34.7988 14.7986Z" fill="#FFEC45"/>
<path d="M34.8005 14.7986V22.4273H27.695V15.076C27.695 12.9518 26.8343 11.028 25.4421 9.63579C24.0499 8.24358 22.1261 7.38294 20.002 7.38294V0C28.1622 0 34.8005 6.63832 34.8005 14.7986Z" fill="#FFE600"/>
<path d="M40.0008 20.8447H0V54.0005H40.0008V20.8447Z" fill="#00A5FF"/>
<path d="M40.0023 20.8447H20.002V54.0005H40.0023V20.8447Z" fill="#0087FF"/>
<path d="M24.2805 35.2672C24.2805 36.3894 23.8481 37.4104 23.1415 38.174V44.0687H16.8617V38.174C16.1551 37.4104 15.7227 36.3894 15.7227 35.2672C15.7227 32.9036 17.638 30.9883 20.0016 30.9883C22.3652 30.9883 24.2805 32.9036 24.2805 35.2672Z" fill="#00459D"/>
<path d="M24.2809 35.2672C24.2809 36.3894 23.8485 37.4104 23.1418 38.174V44.0687H20.002V30.9883C22.3655 30.9883 24.2809 32.9036 24.2809 35.2672Z" fill="#002D6B"/>
</svg>
