<svg width="56" height="56" viewBox="0 0 56 56" fill="none" xmlns="http://www.w3.org/2000/svg">
<path fill-rule="evenodd" clip-rule="evenodd" d="M45.2878 36.1825C45.0975 36.1825 44.905 36.177 44.7136 36.1672C44.3658 36.1486 44.0923 35.8609 44.0923 35.512V32.6497C44.0923 32.4112 43.8911 32.21 43.6537 32.21C43.2917 32.21 42.9975 31.9168 42.9975 31.5548C42.9975 31.1928 43.2917 30.8986 43.6537 30.8986C43.8911 30.8986 44.0923 30.6973 44.0923 30.4589V21.3271C44.0923 21.0854 43.8954 20.8886 43.6537 20.8886H12.3473C12.1056 20.8886 11.9076 21.0854 11.9076 21.3271V30.4589C11.9076 30.7017 12.1045 30.8986 12.3473 30.8986C12.7094 30.8986 13.0036 31.1928 13.0036 31.5548C13.0036 31.9168 12.7094 32.21 12.3473 32.21C12.1056 32.21 11.9076 32.4079 11.9076 32.6497V35.0471C11.9076 35.2265 11.8344 35.3982 11.7042 35.5229C11.5729 35.6465 11.3979 35.71 11.2186 35.7023C10.8281 35.6815 10.4387 35.6596 10.0494 35.6356C7.19357 35.4551 4.57842 34.1743 2.68623 32.0284C0.794043 29.8814 -0.149863 27.1262 0.0306057 24.2715C0.359824 19.0204 4.41435 14.8346 9.57685 14.29C9.57685 14.0209 9.5856 13.754 9.60201 13.4893C10.0384 6.55387 15.8189 1.12012 22.7609 1.12012C23.0398 1.12012 23.3231 1.12887 23.602 1.14637C27.1698 1.37059 30.5014 3.04402 32.8169 5.75652C34.055 5.37262 35.3565 5.2173 36.6636 5.29934C41.9004 5.62855 46.0972 9.68746 46.644 14.8445C49.2494 15.1759 51.6151 16.4359 53.3542 18.432C55.219 20.5703 56.1476 23.309 55.9694 26.1418C55.6161 31.7714 50.9228 36.1825 45.2878 36.1825Z" fill="#16D3FF"/>
<path fill-rule="evenodd" clip-rule="evenodd" d="M43.6419 32.2503H12.3585C11.373 32.2503 10.5713 31.4486 10.5713 30.4642V21.338C10.5713 20.3525 11.373 19.5519 12.3585 19.5519L43.6419 19.5508C44.6274 19.5508 45.4291 20.3525 45.4291 21.338V30.4642C45.4291 31.4486 44.6274 32.2503 43.6419 32.2503Z" fill="#529FFB"/>
<path fill-rule="evenodd" clip-rule="evenodd" d="M43.6419 54.8802H12.3585C11.373 54.8802 10.5713 54.0785 10.5713 53.093V43.9679C10.5713 42.9824 11.373 42.1807 12.3585 42.1807H43.6419C44.6274 42.1807 45.4291 42.9824 45.4291 43.9679V53.093C45.4291 54.0785 44.6274 54.8802 43.6419 54.8802Z" fill="#529FFB"/>
<path fill-rule="evenodd" clip-rule="evenodd" d="M17.7669 29.2896C15.8987 29.2896 14.3784 27.7693 14.3784 25.9011C14.3784 24.033 15.8987 22.5127 17.7669 22.5127C19.635 22.5127 21.1553 24.033 21.1553 25.9011C21.1553 27.7693 19.635 29.2896 17.7669 29.2896Z" fill="#4AFFA8"/>
<path fill-rule="evenodd" clip-rule="evenodd" d="M40.667 25.039H24.6578C24.275 25.039 23.9644 24.7284 23.9644 24.3466C23.9644 23.9638 24.275 23.6543 24.6578 23.6543H40.667C41.0498 23.6543 41.3594 23.9638 41.3594 24.3466C41.3594 24.7284 41.0498 25.039 40.667 25.039Z" fill="#ACD2FB"/>
<path fill-rule="evenodd" clip-rule="evenodd" d="M31.7694 28.1474H24.6578C24.275 28.1474 23.9644 27.8379 23.9644 27.455C23.9644 27.0722 24.275 26.7627 24.6578 26.7627H31.7694C32.1511 26.7627 32.4617 27.0722 32.4617 27.455C32.4617 27.8379 32.1511 28.1474 31.7694 28.1474Z" fill="#ACD2FB"/>
<path fill-rule="evenodd" clip-rule="evenodd" d="M17.7669 51.9185C15.8987 51.9185 14.3784 50.3993 14.3784 48.53C14.3784 46.6619 15.8987 45.1416 17.7669 45.1416C19.635 45.1416 21.1553 46.6619 21.1553 48.53C21.1553 50.3993 19.635 51.9185 17.7669 51.9185Z" fill="#4AFFA8"/>
<path fill-rule="evenodd" clip-rule="evenodd" d="M40.667 47.6679H24.6578C24.275 47.6679 23.9644 47.3584 23.9644 46.9755C23.9644 46.5938 24.275 46.2832 24.6578 46.2832H40.667C41.0498 46.2832 41.3594 46.5938 41.3594 46.9755C41.3594 47.3584 41.0498 47.6679 40.667 47.6679Z" fill="#ACD2FB"/>
<path fill-rule="evenodd" clip-rule="evenodd" d="M31.7694 50.7763H24.6578C24.275 50.7763 23.9644 50.4668 23.9644 50.0839C23.9644 49.7022 24.275 49.3916 24.6578 49.3916H31.7694C32.1511 49.3916 32.4617 49.7022 32.4617 50.0839C32.4617 50.4668 32.1511 50.7763 31.7694 50.7763Z" fill="#ACD2FB"/>
<path fill-rule="evenodd" clip-rule="evenodd" d="M43.6419 43.5648H12.3585C11.373 43.5648 10.5713 42.763 10.5713 41.7787V32.6524C10.5713 31.667 11.373 30.8652 12.3585 30.8652H43.6419C44.6274 30.8652 45.4291 31.667 45.4291 32.6524V41.7787C45.4291 42.763 44.6274 43.5648 43.6419 43.5648Z" fill="#488BD9"/>
<path fill-rule="evenodd" clip-rule="evenodd" d="M17.7669 40.604C15.8987 40.604 14.3784 39.0837 14.3784 37.2156C14.3784 35.3464 15.8987 33.8271 17.7669 33.8271C19.635 33.8271 21.1553 35.3464 21.1553 37.2156C21.1553 39.0837 19.635 40.604 17.7669 40.604Z" fill="#4AFFA8"/>
<path fill-rule="evenodd" clip-rule="evenodd" d="M40.667 36.3545H24.6578C24.275 36.3545 23.9644 36.0439 23.9644 35.6611C23.9644 35.2794 24.275 34.9688 24.6578 34.9688H40.667C41.0498 34.9688 41.3594 35.2794 41.3594 35.6611C41.3594 36.0439 41.0498 36.3545 40.667 36.3545Z" fill="#ACD2FB"/>
<path fill-rule="evenodd" clip-rule="evenodd" d="M31.7694 39.4629H24.6578C24.275 39.4629 23.9644 39.1523 23.9644 38.7706C23.9644 38.3878 24.275 38.0771 24.6578 38.0771H31.7694C32.1511 38.0771 32.4617 38.3878 32.4617 38.7706C32.4617 39.1523 32.1511 39.4629 31.7694 39.4629Z" fill="#ACD2FB"/>
</svg>
