<svg width="49" height="49" viewBox="0 0 49 49" fill="none" xmlns="http://www.w3.org/2000/svg">
<g clip-path="url(#clip0_1_21883)">
<path d="M28.9195 16.5394V12.3801L24.7564 11.9393C24.4967 10.8747 24.0762 9.87331 23.5222 8.96202L26.1549 5.70582L23.2137 2.76467L19.9575 5.39737C19.0462 4.84334 18.0446 4.42292 16.9801 4.16318L16.5394 0H12.3801L11.9393 4.16309C10.8747 4.42273 9.87331 4.84325 8.96202 5.39727L5.70572 2.76458L2.76458 5.70572L5.39727 8.96193C4.84325 9.87321 4.42282 10.8747 4.16309 11.9392L0 12.3801V16.5394L4.16309 16.9802C4.42273 18.0447 4.84325 19.0462 5.39727 19.9575L2.76458 23.2137L5.70572 26.1549L8.96193 23.5222C9.87321 24.0762 10.8747 24.4966 11.9392 24.7564L12.38 28.9195H16.5393L16.9801 24.7564C18.0446 24.4967 19.0461 24.0762 19.9575 23.5222L23.2137 26.1549L26.1549 23.2137L23.5222 19.9575C24.0762 19.0463 24.4966 18.0447 24.7564 16.9803L28.9195 16.5394ZM14.4598 19.3323C11.7687 19.3323 9.58725 17.1508 9.58725 14.4598C9.58725 11.7688 11.7688 9.58725 14.4598 9.58725C17.1508 9.58725 19.3323 11.7688 19.3323 14.4598C19.3323 17.1508 17.1508 19.3323 14.4598 19.3323Z" fill="#FE7858"/>
<path d="M28.9197 16.5394V12.3801L24.7566 11.9393C24.4969 10.8747 24.0764 9.87331 23.5224 8.96202L26.1551 5.70582L23.2139 2.76458L19.9576 5.39727C19.0463 4.84325 18.0448 4.42282 16.9804 4.16309L16.5396 0H14.46V9.58725C17.151 9.58725 19.3325 11.7688 19.3325 14.4598C19.3325 17.1508 17.1509 19.3323 14.46 19.3323V28.9195H16.5397L16.9805 24.7564C18.045 24.4967 19.0464 24.0762 19.9577 23.5222L23.214 26.1549L26.1552 23.2137L23.5225 19.9575C24.0765 19.0463 24.497 18.0447 24.7567 16.9803L28.9197 16.5394Z" fill="#FD4E26"/>
<path d="M49 33.9643V28.9127L43.9438 28.3773C43.6285 27.0845 43.1178 25.8682 42.4449 24.7614L45.6423 20.8066L42.0703 17.2346L38.1156 20.432C37.0088 19.7592 35.7925 19.2485 34.4996 18.9331L33.9643 13.877H28.9127L28.3773 18.9331C27.0845 19.2485 25.8682 19.7592 24.7614 20.432L20.8066 17.2346L17.2346 20.8066L20.432 24.7614C19.7592 25.8682 19.2485 27.0845 18.9331 28.3773L13.877 28.9127V33.9643L18.9331 34.4996C19.2485 35.7925 19.7592 37.0088 20.432 38.1156L17.2346 42.0703L20.8066 45.6423L24.7614 42.4449C25.8682 43.1178 27.0845 43.6285 28.3773 43.9438L28.9127 49H33.9643L34.4996 43.9438C35.7925 43.6285 37.0088 43.1178 38.1156 42.4449L42.0703 45.6423L45.6423 42.0703L42.4449 38.1156C43.1178 37.0088 43.6285 35.7925 43.9438 34.4996L49 33.9643ZM31.4385 37.3563C28.1702 37.3563 25.5207 34.7068 25.5207 31.4385C25.5207 28.1701 28.1701 25.5207 31.4385 25.5207C34.7068 25.5207 37.3563 28.1701 37.3563 31.4385C37.3563 34.7068 34.7067 37.3563 31.4385 37.3563Z" fill="#81C8EE"/>
<path d="M49 33.9643V28.9127L43.9439 28.3773C43.6286 27.0845 43.1179 25.8682 42.445 24.7614L45.6424 20.8066L42.0704 17.2346L38.1157 20.432C37.0089 19.7592 35.7926 19.2485 34.4997 18.9331L33.9643 13.877H31.4385V25.5207C34.7067 25.5207 37.3563 28.1701 37.3563 31.4385C37.3563 34.7068 34.7068 37.3563 31.4385 37.3563V49H33.9643L34.4996 43.9438C35.7925 43.6285 37.0088 43.1178 38.1156 42.4449L42.0703 45.6423L45.6424 42.0703L42.4449 38.1156C43.1178 37.0088 43.6285 35.7925 43.9438 34.4996L49 33.9643Z" fill="#159CE4"/>
</g>
<defs>
<clipPath id="clip0_1_21883">
<rect width="49" height="49" fill="white"/>
</clipPath>
</defs>
</svg>
