<svg width="47" height="47" viewBox="0 0 47 47" fill="none" xmlns="http://www.w3.org/2000/svg">
<path d="M24.9688 38.1875H13.2188C10.7894 38.1875 8.8125 36.2106 8.8125 33.7812V8.8125C8.8125 6.38319 10.7894 4.40625 13.2188 4.40625H30.8438C33.2731 4.40625 35.25 6.38319 35.25 8.8125V16.2444C35.25 17.0551 35.9065 17.7131 36.7188 17.7131C37.531 17.7131 38.1875 17.0551 38.1875 16.2444V8.8125C38.1875 4.76316 34.8931 1.46875 30.8438 1.46875H13.2188C9.16941 1.46875 5.875 4.76316 5.875 8.8125V33.7812C5.875 37.8306 9.16941 41.125 13.2188 41.125H24.9688C25.781 41.125 26.4375 40.467 26.4375 39.6562C26.4375 38.8455 25.781 38.1875 24.9688 38.1875Z" fill="white"/>
<path d="M14.6875 13.2188H24.9688C25.781 13.2188 26.4375 12.5608 26.4375 11.75C26.4375 10.9392 25.781 10.2812 24.9688 10.2812H14.6875C13.8753 10.2812 13.2188 10.9392 13.2188 11.75C13.2188 12.5608 13.8753 13.2188 14.6875 13.2188Z" fill="white"/>
<path d="M28.435 19.0938C28.435 18.283 27.7785 17.625 26.9663 17.625H14.6875C13.8753 17.625 13.2188 18.283 13.2188 19.0938C13.2188 19.9045 13.8753 20.5625 14.6875 20.5625H26.9663C27.7785 20.5625 28.435 19.9045 28.435 19.0938Z" fill="white"/>
<path d="M24.2638 24.9688C24.2638 24.158 23.6072 23.5 22.795 23.5H14.6875C13.8753 23.5 13.2188 24.158 13.2188 24.9688C13.2188 25.7795 13.8753 26.4375 14.6875 26.4375H22.795C23.6072 26.4375 24.2638 25.7795 24.2638 24.9688Z" fill="white"/>
<path d="M14.6875 29.375C13.8753 29.375 13.2188 30.033 13.2188 30.8438C13.2188 31.6545 13.8753 32.3125 14.6875 32.3125H22.1194C22.9316 32.3125 23.5881 31.6545 23.5881 30.8438C23.5881 30.033 22.9316 29.375 22.1194 29.375H14.6875Z" fill="white"/>
<path d="M44.0625 29.375C44.0625 24.5149 40.1101 20.5625 35.25 20.5625C30.3899 20.5625 26.4375 24.5149 26.4375 29.375C26.4375 31.9762 27.5773 34.31 29.375 35.9256V43.3237C29.375 44.1374 29.823 44.8835 30.5412 45.2683C31.2638 45.6561 32.1274 45.6135 32.8089 45.1597L35.25 43.5205L37.6969 45.1626C38.0641 45.4079 38.4871 45.5298 38.9131 45.5298C39.27 45.5298 39.6298 45.4431 39.9588 45.2669C40.677 44.8821 41.125 44.1359 41.125 43.3223V35.9242C42.9228 34.31 44.0625 31.9776 44.0625 29.375ZM38.1875 41.9534L36.0696 40.5316C35.5731 40.1982 34.9283 40.1982 34.4319 40.5316L32.314 41.9534V37.6734C33.2349 38.001 34.2204 38.1875 35.2515 38.1875C36.2825 38.1875 37.2681 37.9995 38.189 37.6734L38.1875 41.9534ZM35.25 35.25C32.0099 35.25 29.375 32.6151 29.375 29.375C29.375 26.1349 32.0099 23.5 35.25 23.5C38.4901 23.5 41.125 26.1349 41.125 29.375C41.125 32.6151 38.4901 35.25 35.25 35.25Z" fill="white"/>
</svg>
