<svg width="45" height="45" viewBox="0 0 45 45" fill="none" xmlns="http://www.w3.org/2000/svg">
<path d="M44.4349 10.8464L22.9577 0.10777C22.6698 -0.0359234 22.3302 -0.0359234 22.0428 0.10777L0.565568 10.8464C0.218864 11.0198 0 11.3737 0 11.7613V33.2386C0 33.6262 0.218864 33.9801 0.565057 34.1534L22.0423 44.8921C22.1865 44.9642 22.343 45 22.5 45C22.657 45 22.8135 44.9642 22.9577 44.8921L44.4349 34.1534C44.7811 33.9801 45 33.6262 45 33.2386V11.7613C45 11.3737 44.7811 11.0198 44.4349 10.8464ZM22.5 2.16601L41.6905 11.7613L37.5852 13.8139L18.3953 4.21863L22.5 2.16601ZM29.4034 17.9048L10.213 8.30956L16.108 5.36205L35.2984 14.9573L29.4034 17.9048ZM30.1705 19.8081L36.3068 16.7399V24.3475L34.3442 22.9458C34.1218 22.7868 33.8436 22.7239 33.5741 22.7704C33.3046 22.818 33.0648 22.9709 32.9088 23.1959L30.1705 27.1523V19.8081ZM7.92614 9.45297L27.1161 19.0482L22.5 21.3565L3.30955 11.7613L7.92614 9.45297ZM2.04545 13.416L21.4773 23.132V42.322L2.04545 32.606V13.416ZM23.5227 42.3225V23.132L28.125 20.8308V30.4261C28.125 30.8735 28.4155 31.2688 28.8424 31.4023C28.9437 31.434 29.046 31.4488 29.1477 31.4488C29.477 31.4488 29.7941 31.2893 29.9889 31.0085L34.0006 25.2143L36.7359 27.1677C37.0478 27.3901 37.4579 27.4203 37.798 27.2444C38.138 27.0695 38.3523 26.7182 38.3523 26.3352V15.7172L42.9545 13.416V32.606L23.5227 42.3225Z" fill="#E7F4FF"/>
</svg>
