<svg width="60" height="60" viewBox="0 0 60 60" fill="none" xmlns="http://www.w3.org/2000/svg">
<path d="M10.9997 38.0001C8.54219 37.9972 6.17179 37.0894 4.34095 35.45C2.51011 33.8106 1.34706 31.5545 1.07377 29.1122C0.800477 26.6699 1.43609 24.2125 2.85929 22.209C4.2825 20.2055 6.39362 18.7962 8.78973 18.2501C8.85363 18.2367 8.91423 18.2108 8.96802 18.1738C9.0218 18.1368 9.06771 18.0895 9.10306 18.0346C9.13841 17.9797 9.16251 17.9183 9.17395 17.854C9.1854 17.7898 9.18396 17.7239 9.16973 17.6601C9.00509 16.8544 8.96127 16.0287 9.03973 15.2101C9.16045 13.9685 9.57031 12.7724 10.2365 11.7176C10.9026 10.6629 11.8066 9.77879 12.8759 9.13624C13.9452 8.49368 15.1501 8.11051 16.3941 8.01741C17.6382 7.92432 18.8867 8.12389 20.0397 8.60014C20.1546 8.64668 20.2826 8.64892 20.399 8.60643C20.5154 8.56393 20.6119 8.47973 20.6697 8.37014C22.0912 5.73189 24.3205 3.61845 27.0307 2.33969C29.741 1.06093 32.7897 0.684126 35.7298 1.26453C38.6698 1.84494 41.3466 3.35202 43.3676 5.5648C45.3886 7.77758 46.6475 10.5796 46.9597 13.5601C46.9718 13.6805 47.027 13.7925 47.1153 13.8752C47.2035 13.958 47.3188 14.0059 47.4397 14.0101C50.4044 14.1258 53.2212 15.3357 55.3462 17.4062C57.4712 19.4768 58.7539 22.2611 58.9465 25.2218C59.1392 28.1825 58.2282 31.1096 56.3894 33.4381C54.5506 35.7665 51.9144 37.3312 48.9897 37.8301L10.9997 38.0001Z" fill="#FDB43A"/>
<path d="M49 32V26C49 25.2044 48.6839 24.4413 48.1213 23.8787C47.5587 23.3161 46.7957 23 46 23H14C13.2044 23 12.4413 23.3161 11.8787 23.8787C11.3161 24.4413 11 25.2044 11 26V32C11 32.7956 11.3161 33.5587 11.8787 34.1213C12.4413 34.6839 13.2044 35 14 35C13.2044 35 12.4413 35.3161 11.8787 35.8787C11.3161 36.4413 11 37.2044 11 38V44C11 44.7956 11.3161 45.5587 11.8787 46.1213C12.4413 46.6839 13.2044 47 14 47C13.2044 47 12.4413 47.3161 11.8787 47.8787C11.3161 48.4413 11 49.2044 11 50V56C11 56.7956 11.3161 57.5587 11.8787 58.1213C12.4413 58.6839 13.2044 59 14 59H46C46.7957 59 47.5587 58.6839 48.1213 58.1213C48.6839 57.5587 49 56.7956 49 56V50C49 49.2044 48.6839 48.4413 48.1213 47.8787C47.5587 47.3161 46.7957 47 46 47C46.7957 47 47.5587 46.6839 48.1213 46.1213C48.6839 45.5587 49 44.7956 49 44V38C49 37.2044 48.6839 36.4413 48.1213 35.8787C47.5587 35.3161 46.7957 35 46 35C46.7957 35 47.5587 34.6839 48.1213 34.1213C48.6839 33.5587 49 32.7956 49 32Z" fill="#0087FF"/>
<path d="M46 35H14C12.3431 35 11 36.3431 11 38V44C11 45.6569 12.3431 47 14 47H46C47.6569 47 49 45.6569 49 44V38C49 36.3431 47.6569 35 46 35Z" fill="#0571F9"/>
<path d="M17 43C18.1046 43 19 42.1046 19 41C19 39.8954 18.1046 39 17 39C15.8954 39 15 39.8954 15 41C15 42.1046 15.8954 43 17 43Z" fill="white"/>
<path d="M25 43C26.1046 43 27 42.1046 27 41C27 39.8954 26.1046 39 25 39C23.8954 39 23 39.8954 23 41C23 42.1046 23.8954 43 25 43Z" fill="white"/>
<path d="M17 31C18.1046 31 19 30.1046 19 29C19 27.8954 18.1046 27 17 27C15.8954 27 15 27.8954 15 29C15 30.1046 15.8954 31 17 31Z" fill="white"/>
<path d="M25 31C26.1046 31 27 30.1046 27 29C27 27.8954 26.1046 27 25 27C23.8954 27 23 27.8954 23 29C23 30.1046 23.8954 31 25 31Z" fill="white"/>
<path d="M17 55C18.1046 55 19 54.1046 19 53C19 51.8954 18.1046 51 17 51C15.8954 51 15 51.8954 15 53C15 54.1046 15.8954 55 17 55Z" fill="white"/>
<path d="M25 55C26.1046 55 27 54.1046 27 53C27 51.8954 26.1046 51 25 51C23.8954 51 23 51.8954 23 53C23 54.1046 23.8954 55 25 55Z" fill="white"/>
<path d="M24.9998 19.0002C24.7346 19.0001 24.4803 18.8948 24.2928 18.7072L21.2928 15.7072C21.1053 15.5197 21 15.2654 21 15.0002C21 14.735 21.1053 14.4807 21.2928 14.2932L24.2928 11.2932C24.4814 11.111 24.734 11.0102 24.9962 11.0125C25.2584 11.0148 25.5092 11.12 25.6946 11.3054C25.88 11.4908 25.9852 11.7416 25.9875 12.0038C25.9897 12.266 25.8889 12.5186 25.7068 12.7072L23.4138 15.0002L25.7068 17.2932C25.8466 17.4331 25.9418 17.6112 25.9804 17.8052C26.0189 17.9991 25.9991 18.2002 25.9235 18.3829C25.8478 18.5656 25.7197 18.7217 25.5552 18.8316C25.3908 18.9415 25.1975 19.0002 24.9998 19.0002ZM34.9998 19.0002C34.802 19.0002 34.6087 18.9415 34.4443 18.8316C34.2799 18.7217 34.1518 18.5656 34.0761 18.3829C34.0004 18.2002 33.9806 17.9991 34.0192 17.8052C34.0578 17.6112 34.153 17.4331 34.2928 17.2932L36.5858 15.0002L34.2928 12.7072C34.1106 12.5186 34.0098 12.266 34.0121 12.0038C34.0144 11.7416 34.1196 11.4908 34.305 11.3054C34.4904 11.12 34.7412 11.0148 35.0034 11.0125C35.2656 11.0102 35.5182 11.111 35.7068 11.2932L38.7068 14.2932C38.8943 14.4807 38.9996 14.735 38.9996 15.0002C38.9996 15.2654 38.8943 15.5197 38.7068 15.7072L35.7068 18.7072C35.5193 18.8948 35.265 19.0001 34.9998 19.0002ZM28.9998 19.0002C28.8414 19.0001 28.6853 18.9623 28.5444 18.8901C28.4035 18.8179 28.2817 18.7132 28.1892 18.5847C28.0966 18.4562 28.0359 18.3076 28.012 18.151C27.9881 17.9944 28.0017 17.8345 28.0518 17.6842L30.0518 11.6842C30.1356 11.4322 30.3161 11.2239 30.5535 11.105C30.7909 10.9861 31.0658 10.9664 31.3178 11.0502C31.5697 11.134 31.7781 11.3145 31.897 11.5519C32.0159 11.7893 32.0356 12.0642 31.9518 12.3162L29.9518 18.3162C29.8853 18.5159 29.7575 18.6895 29.5865 18.8123C29.4156 18.9351 29.2103 19.0009 28.9998 19.0002Z" fill="white"/>
<path d="M35 40H34C33.7348 40 33.4804 39.8946 33.2929 39.7071C33.1054 39.5196 33 39.2652 33 39C33 38.7348 33.1054 38.4804 33.2929 38.2929C33.4804 38.1054 33.7348 38 34 38H35C35.2652 38 35.5196 38.1054 35.7071 38.2929C35.8946 38.4804 36 38.7348 36 39C36 39.2652 35.8946 39.5196 35.7071 39.7071C35.5196 39.8946 35.2652 40 35 40ZM35 44H34C33.7348 44 33.4804 43.8946 33.2929 43.7071C33.1054 43.5196 33 43.2652 33 43C33 42.7348 33.1054 42.4804 33.2929 42.2929C33.4804 42.1054 33.7348 42 34 42H35C35.2652 42 35.5196 42.1054 35.7071 42.2929C35.8946 42.4804 36 42.7348 36 43C36 43.2652 35.8946 43.5196 35.7071 43.7071C35.5196 43.8946 35.2652 44 35 44ZM40 40H39C38.7348 40 38.4804 39.8946 38.2929 39.7071C38.1054 39.5196 38 39.2652 38 39C38 38.7348 38.1054 38.4804 38.2929 38.2929C38.4804 38.1054 38.7348 38 39 38H40C40.2652 38 40.5196 38.1054 40.7071 38.2929C40.8946 38.4804 41 38.7348 41 39C41 39.2652 40.8946 39.5196 40.7071 39.7071C40.5196 39.8946 40.2652 40 40 40ZM40 44H39C38.7348 44 38.4804 43.8946 38.2929 43.7071C38.1054 43.5196 38 43.2652 38 43C38 42.7348 38.1054 42.4804 38.2929 42.2929C38.4804 42.1054 38.7348 42 39 42H40C40.2652 42 40.5196 42.1054 40.7071 42.2929C40.8946 42.4804 41 42.7348 41 43C41 43.2652 40.8946 43.5196 40.7071 43.7071C40.5196 43.8946 40.2652 44 40 44ZM45 40H44C43.7348 40 43.4804 39.8946 43.2929 39.7071C43.1054 39.5196 43 39.2652 43 39C43 38.7348 43.1054 38.4804 43.2929 38.2929C43.4804 38.1054 43.7348 38 44 38H45C45.2652 38 45.5196 38.1054 45.7071 38.2929C45.8946 38.4804 46 38.7348 46 39C46 39.2652 45.8946 39.5196 45.7071 39.7071C45.5196 39.8946 45.2652 40 45 40ZM45 44H44C43.7348 44 43.4804 43.8946 43.2929 43.7071C43.1054 43.5196 43 43.2652 43 43C43 42.7348 43.1054 42.4804 43.2929 42.2929C43.4804 42.1054 43.7348 42 44 42H45C45.2652 42 45.5196 42.1054 45.7071 42.2929C45.8946 42.4804 46 42.7348 46 43C46 43.2652 45.8946 43.5196 45.7071 43.7071C45.5196 43.8946 45.2652 44 45 44Z" fill="white"/>
<path d="M35 52H34C33.7348 52 33.4804 51.8946 33.2929 51.7071C33.1054 51.5196 33 51.2652 33 51C33 50.7348 33.1054 50.4804 33.2929 50.2929C33.4804 50.1054 33.7348 50 34 50H35C35.2652 50 35.5196 50.1054 35.7071 50.2929C35.8946 50.4804 36 50.7348 36 51C36 51.2652 35.8946 51.5196 35.7071 51.7071C35.5196 51.8946 35.2652 52 35 52ZM35 56H34C33.7348 56 33.4804 55.8946 33.2929 55.7071C33.1054 55.5196 33 55.2652 33 55C33 54.7348 33.1054 54.4804 33.2929 54.2929C33.4804 54.1054 33.7348 54 34 54H35C35.2652 54 35.5196 54.1054 35.7071 54.2929C35.8946 54.4804 36 54.7348 36 55C36 55.2652 35.8946 55.5196 35.7071 55.7071C35.5196 55.8946 35.2652 56 35 56ZM40 52H39C38.7348 52 38.4804 51.8946 38.2929 51.7071C38.1054 51.5196 38 51.2652 38 51C38 50.7348 38.1054 50.4804 38.2929 50.2929C38.4804 50.1054 38.7348 50 39 50H40C40.2652 50 40.5196 50.1054 40.7071 50.2929C40.8946 50.4804 41 50.7348 41 51C41 51.2652 40.8946 51.5196 40.7071 51.7071C40.5196 51.8946 40.2652 52 40 52ZM40 56H39C38.7348 56 38.4804 55.8946 38.2929 55.7071C38.1054 55.5196 38 55.2652 38 55C38 54.7348 38.1054 54.4804 38.2929 54.2929C38.4804 54.1054 38.7348 54 39 54H40C40.2652 54 40.5196 54.1054 40.7071 54.2929C40.8946 54.4804 41 54.7348 41 55C41 55.2652 40.8946 55.5196 40.7071 55.7071C40.5196 55.8946 40.2652 56 40 56ZM45 52H44C43.7348 52 43.4804 51.8946 43.2929 51.7071C43.1054 51.5196 43 51.2652 43 51C43 50.7348 43.1054 50.4804 43.2929 50.2929C43.4804 50.1054 43.7348 50 44 50H45C45.2652 50 45.5196 50.1054 45.7071 50.2929C45.8946 50.4804 46 50.7348 46 51C46 51.2652 45.8946 51.5196 45.7071 51.7071C45.5196 51.8946 45.2652 52 45 52ZM45 56H44C43.7348 56 43.4804 55.8946 43.2929 55.7071C43.1054 55.5196 43 55.2652 43 55C43 54.7348 43.1054 54.4804 43.2929 54.2929C43.4804 54.1054 43.7348 54 44 54H45C45.2652 54 45.5196 54.1054 45.7071 54.2929C45.8946 54.4804 46 54.7348 46 55C46 55.2652 45.8946 55.5196 45.7071 55.7071C45.5196 55.8946 45.2652 56 45 56ZM35 28H34C33.7348 28 33.4804 27.8946 33.2929 27.7071C33.1054 27.5196 33 27.2652 33 27C33 26.7348 33.1054 26.4804 33.2929 26.2929C33.4804 26.1054 33.7348 26 34 26H35C35.2652 26 35.5196 26.1054 35.7071 26.2929C35.8946 26.4804 36 26.7348 36 27C36 27.2652 35.8946 27.5196 35.7071 27.7071C35.5196 27.8946 35.2652 28 35 28ZM35 32H34C33.7348 32 33.4804 31.8946 33.2929 31.7071C33.1054 31.5196 33 31.2652 33 31C33 30.7348 33.1054 30.4804 33.2929 30.2929C33.4804 30.1054 33.7348 30 34 30H35C35.2652 30 35.5196 30.1054 35.7071 30.2929C35.8946 30.4804 36 30.7348 36 31C36 31.2652 35.8946 31.5196 35.7071 31.7071C35.5196 31.8946 35.2652 32 35 32ZM40 28H39C38.7348 28 38.4804 27.8946 38.2929 27.7071C38.1054 27.5196 38 27.2652 38 27C38 26.7348 38.1054 26.4804 38.2929 26.2929C38.4804 26.1054 38.7348 26 39 26H40C40.2652 26 40.5196 26.1054 40.7071 26.2929C40.8946 26.4804 41 26.7348 41 27C41 27.2652 40.8946 27.5196 40.7071 27.7071C40.5196 27.8946 40.2652 28 40 28ZM40 32H39C38.7348 32 38.4804 31.8946 38.2929 31.7071C38.1054 31.5196 38 31.2652 38 31C38 30.7348 38.1054 30.4804 38.2929 30.2929C38.4804 30.1054 38.7348 30 39 30H40C40.2652 30 40.5196 30.1054 40.7071 30.2929C40.8946 30.4804 41 30.7348 41 31C41 31.2652 40.8946 31.5196 40.7071 31.7071C40.5196 31.8946 40.2652 32 40 32ZM45 28H44C43.7348 28 43.4804 27.8946 43.2929 27.7071C43.1054 27.5196 43 27.2652 43 27C43 26.7348 43.1054 26.4804 43.2929 26.2929C43.4804 26.1054 43.7348 26 44 26H45C45.2652 26 45.5196 26.1054 45.7071 26.2929C45.8946 26.4804 46 26.7348 46 27C46 27.2652 45.8946 27.5196 45.7071 27.7071C45.5196 27.8946 45.2652 28 45 28ZM45 32H44C43.7348 32 43.4804 31.8946 43.2929 31.7071C43.1054 31.5196 43 31.2652 43 31C43 30.7348 43.1054 30.4804 43.2929 30.2929C43.4804 30.1054 43.7348 30 44 30H45C45.2652 30 45.5196 30.1054 45.7071 30.2929C45.8946 30.4804 46 30.7348 46 31C46 31.2652 45.8946 31.5196 45.7071 31.7071C45.5196 31.8946 45.2652 32 45 32Z" fill="white"/>
</svg>
