<svg width="60" height="60" viewBox="0 0 60 60" fill="none" xmlns="http://www.w3.org/2000/svg">
<path d="M24.5508 44.1853V58.3206L21.7969 59.9998H5.27344C4.30313 59.9998 3.51562 59.2123 3.51562 58.242V44.9998L24.5508 44.1853ZM45.5859 15.0449L24.5508 13.873L3.51562 15.0449V29.9998L24.5508 31.1717L45.5859 29.9998V15.0449Z" fill="#323FD4"/>
<path d="M45.5859 15.0449V30.0004L24.5508 31.1723V13.873L45.5859 15.0449Z" fill="#0087FF"/>
<path d="M45.5859 1.75781C45.5859 0.787031 44.7989 0 43.8281 0H5.27344C4.30266 0 3.51562 0.787031 3.51562 1.75781V15.0451H45.5859V1.75781Z" fill="#0087FF"/>
<path d="M45.5859 1.75781V15.0445H24.5508V0H43.8281C44.7984 0 45.5859 0.7875 45.5859 1.75781Z" fill="#323FD4"/>
<path d="M3.51562 30H45.5859V44.9998H3.51562V30Z" fill="#0087FF"/>
<path d="M24.5508 30H45.5859V45.0002H24.5508V30Z" fill="#323FD4"/>
<path d="M32.8125 9.25781C33.7833 9.25781 34.5703 8.47081 34.5703 7.5C34.5703 6.52919 33.7833 5.74219 32.8125 5.74219C31.8417 5.74219 31.0547 6.52919 31.0547 7.5C31.0547 8.47081 31.8417 9.25781 32.8125 9.25781Z" fill="white"/>
<path d="M39.8438 9.25781C40.8146 9.25781 41.6016 8.47081 41.6016 7.5C41.6016 6.52919 40.8146 5.74219 39.8438 5.74219C38.8729 5.74219 38.0859 6.52919 38.0859 7.5C38.0859 8.47081 38.8729 9.25781 39.8438 9.25781Z" fill="white"/>
<path d="M32.8125 24.2578C33.7833 24.2578 34.5703 23.4708 34.5703 22.5C34.5703 21.5292 33.7833 20.7422 32.8125 20.7422C31.8417 20.7422 31.0547 21.5292 31.0547 22.5C31.0547 23.4708 31.8417 24.2578 32.8125 24.2578Z" fill="white"/>
<path d="M39.8438 24.2578C40.8146 24.2578 41.6016 23.4708 41.6016 22.5C41.6016 21.5292 40.8146 20.7422 39.8438 20.7422C38.8729 20.7422 38.0859 21.5292 38.0859 22.5C38.0859 23.4708 38.8729 24.2578 39.8438 24.2578Z" fill="white"/>
<path d="M32.8125 39.2578C33.7833 39.2578 34.5703 38.4708 34.5703 37.5C34.5703 36.5292 33.7833 35.7422 32.8125 35.7422C31.8417 35.7422 31.0547 36.5292 31.0547 37.5C31.0547 38.4708 31.8417 39.2578 32.8125 39.2578Z" fill="white"/>
<path d="M39.8438 39.2578C40.8146 39.2578 41.6016 38.4708 41.6016 37.5C41.6016 36.5292 40.8146 35.7422 39.8438 35.7422C38.8729 35.7422 38.0859 36.5292 38.0859 37.5C38.0859 38.4708 38.8729 39.2578 39.8438 39.2578Z" fill="white"/>
<path d="M8.42578 9.25781H19.4414C20.4122 9.25781 21.1992 8.47078 21.1992 7.5C21.1992 6.52922 20.4122 5.74219 19.4414 5.74219H8.42578C7.455 5.74219 6.66797 6.52922 6.66797 7.5C6.66797 8.47078 7.455 9.25781 8.42578 9.25781Z" fill="#182084"/>
<path d="M19.4414 20.7422H8.42578C7.455 20.7422 6.66797 21.5292 6.66797 22.5C6.66797 23.4708 7.455 24.2578 8.42578 24.2578H19.4414C20.4122 24.2578 21.1992 23.4708 21.1992 22.5C21.1992 21.5292 20.4122 20.7422 19.4414 20.7422Z" fill="#0087FF"/>
<path d="M21.082 35.7422H8.42578C7.455 35.7422 6.66797 36.5292 6.66797 37.5C6.66797 38.4708 7.455 39.2578 8.42578 39.2578H21.082C22.0528 39.2578 22.8398 38.4708 22.8398 37.5C22.8398 36.5292 22.0528 35.7422 21.082 35.7422Z" fill="#182084"/>
<path d="M21.7852 50.7422H8.42578C7.455 50.7422 6.66797 51.5292 6.66797 52.5C6.66797 53.4708 7.455 54.2578 8.42578 54.2578H21.7852C22.7559 54.2578 23.543 53.4708 23.543 52.5C23.543 51.5292 22.7559 50.7422 21.7852 50.7422Z" fill="#0087FF"/>
<path d="M20.0391 41.0757V58.2425C20.0391 59.2132 20.8261 60.0003 21.7969 60.0003H54.7266C55.6973 60.0003 56.4844 59.2132 56.4844 58.2425V40.9316L20.0391 41.0757Z" fill="#FDBF00"/>
<path d="M56.4844 40.9316V58.2426C56.4844 59.2129 55.6969 60.0004 54.7266 60.0004H38.2617V41.0043L56.4844 40.9316Z" fill="#FF9100"/>
<path d="M56.4844 40.9314V34.6875C56.4844 33.7167 55.6973 32.9297 54.7266 32.9297H21.7969C20.8261 32.9297 20.0391 33.7167 20.0391 34.6875V41.0754L38.2617 51.0938L56.4844 40.9314Z" fill="#FFDA2D"/>
<path d="M56.4844 34.6875V40.9312L38.2617 51.0938V32.9297H54.7266C55.6969 32.9297 56.4844 33.7172 56.4844 34.6875Z" fill="#FDBF00"/>
<path d="M38.2617 32.9297V51.0938L20.0391 41.0754V34.6875C20.0391 33.7172 20.8266 32.9297 21.7969 32.9297H38.2617Z" fill="#FFDA2D"/>
<path d="M28.3892 46C28.3703 45.7633 28.2815 45.5786 28.1229 45.446C27.9666 45.3134 27.7287 45.2472 27.4091 45.2472C27.2055 45.2472 27.0386 45.272 26.9084 45.3217C26.7805 45.3691 26.6858 45.4342 26.6243 45.517C26.5627 45.5999 26.5308 45.6946 26.5284 45.8011C26.5237 45.8887 26.5391 45.968 26.5746 46.0391C26.6125 46.1077 26.6716 46.1705 26.7521 46.2273C26.8326 46.2817 26.9356 46.3314 27.0611 46.3764C27.1866 46.4214 27.3357 46.4616 27.5085 46.4972L28.1051 46.625C28.5076 46.7102 28.852 46.8227 29.1385 46.9624C29.425 47.102 29.6593 47.2666 29.8416 47.456C30.0239 47.643 30.1577 47.8537 30.2429 48.0881C30.3305 48.3224 30.3755 48.5781 30.3778 48.8551C30.3755 49.3333 30.2559 49.7382 30.0192 50.0696C29.7824 50.401 29.4439 50.6532 29.0036 50.826C28.5656 50.9988 28.0388 51.0852 27.4233 51.0852C26.7912 51.0852 26.2396 50.9917 25.7685 50.8047C25.2997 50.6177 24.9351 50.33 24.6747 49.9418C24.4167 49.5511 24.2865 49.0516 24.2841 48.4432H26.1591C26.1709 48.6657 26.2266 48.8527 26.326 49.0043C26.4254 49.1558 26.5651 49.2706 26.745 49.3487C26.9273 49.4268 27.1439 49.4659 27.3949 49.4659C27.6056 49.4659 27.782 49.4399 27.924 49.3878C28.0661 49.3357 28.1738 49.2635 28.2472 49.1712C28.3205 49.0788 28.3584 48.9735 28.3608 48.8551C28.3584 48.7438 28.3217 48.6468 28.2507 48.5639C28.1821 48.4787 28.0684 48.4029 27.9098 48.3366C27.7512 48.268 27.5369 48.2041 27.267 48.1449L26.5426 47.9886C25.8987 47.849 25.3909 47.6158 25.0192 47.2891C24.6499 46.96 24.4664 46.5114 24.4688 45.9432C24.4664 45.4815 24.5895 45.0779 24.8381 44.7322C25.089 44.3842 25.4358 44.1132 25.8786 43.919C26.3236 43.7249 26.8338 43.6278 27.4091 43.6278C27.9962 43.6278 28.504 43.7261 28.9325 43.9226C29.361 44.1191 29.6913 44.3961 29.9233 44.7536C30.1577 45.1087 30.276 45.5241 30.2784 46H28.3892ZM31.1289 43.7273H33.5863L35.2766 47.8466H35.3619L37.0522 43.7273H39.5096V51H37.5778V46.7955H37.521L35.9016 50.9432H34.7369L33.1175 46.767H33.0607V51H31.1289V43.7273ZM40.2464 45.3182V43.7273H46.5675V45.3182H44.38V51H42.4339V45.3182H40.2464ZM47.3105 51V43.7273H50.4498C50.9895 43.7273 51.4618 43.8338 51.8667 44.0469C52.2715 44.2599 52.5864 44.5594 52.8113 44.9453C53.0362 45.3312 53.1486 45.7822 53.1486 46.2983C53.1486 46.8191 53.0326 47.2701 52.8006 47.6513C52.571 48.0324 52.2478 48.326 51.8311 48.532C51.4168 48.7379 50.9327 48.8409 50.3787 48.8409H48.5037V47.3068H49.981C50.213 47.3068 50.4107 47.2666 50.574 47.1861C50.7398 47.1032 50.8664 46.986 50.954 46.8345C51.044 46.683 51.089 46.5043 51.089 46.2983C51.089 46.09 51.044 45.9124 50.954 45.7656C50.8664 45.6165 50.7398 45.5028 50.574 45.4247C50.4107 45.3442 50.213 45.304 49.981 45.304H49.285V51H47.3105Z" fill="white"/>
</svg>
