<svg width="60" height="60" viewBox="0 0 60 60" fill="none" xmlns="http://www.w3.org/2000/svg">
<path d="M38.6562 50.7378H51.211C52.1818 50.7378 52.9688 49.9507 52.9688 48.98C52.9688 48.0092 52.1818 47.2221 51.211 47.2221H38.6562C37.6855 47.2221 36.8984 48.0092 36.8984 48.98C36.8984 49.9507 37.6855 50.7378 38.6562 50.7378ZM41.9611 16.0175C42.9318 16.0175 43.7189 15.2304 43.7189 14.2596V8.73145H51.211C52.1818 8.73145 52.9688 7.94441 52.9688 6.97363C52.9688 6.00285 52.1818 5.21582 51.211 5.21582H41.9611C40.9903 5.21582 40.2032 6.00285 40.2032 6.97363V14.2596C40.2032 15.2304 40.9903 16.0175 41.9611 16.0175ZM49.4368 29.6302H58.2423C59.213 29.6302 60.0001 28.8432 60.0001 27.8724C60.0001 26.9016 59.213 26.1146 58.2423 26.1146H49.4368C48.466 26.1146 47.679 26.9016 47.679 27.8724C47.679 28.8432 48.466 29.6302 49.4368 29.6302ZM46.8492 37.9559H54.245C55.2158 37.9559 56.0028 37.1689 56.0028 36.1981C56.0028 35.2273 55.2158 34.4403 54.245 34.4403H46.8492C45.8784 34.4403 45.0914 35.2273 45.0914 36.1981C45.0914 37.1689 45.8784 37.9559 46.8492 37.9559Z" fill="#0087FF"/>
<path d="M54.726 10.1688C56.4904 10.1688 57.9208 8.73848 57.9208 6.97406C57.9208 5.20964 56.4904 3.7793 54.726 3.7793C52.9616 3.7793 51.5312 5.20964 51.5312 6.97406C51.5312 8.73848 52.9616 10.1688 54.726 10.1688Z" fill="#FFE370"/>
<path d="M54.726 52.1747C56.4904 52.1747 57.9208 50.7443 57.9208 48.9799C57.9208 47.2155 56.4904 45.7852 54.726 45.7852C52.9616 45.7852 51.5312 47.2155 51.5312 48.9799C51.5312 50.7443 52.9616 52.1747 54.726 52.1747Z" fill="#FFE370"/>
<path d="M49.4531 6.97363C49.4531 4.06586 51.8188 1.7002 54.7266 1.7002C57.6343 1.7002 60 4.06586 60 6.97363C60 9.88141 57.6343 12.2471 54.7266 12.2471C51.8188 12.2471 49.4531 9.88152 49.4531 6.97363ZM52.9688 6.97363C52.9688 7.94289 53.7573 8.73145 54.7266 8.73145C55.6958 8.73145 56.4844 7.94289 56.4844 6.97363C56.4844 6.00438 55.6958 5.21582 54.7266 5.21582C53.7573 5.21582 52.9688 6.00438 52.9688 6.97363ZM49.4531 48.98C49.4531 46.0722 51.8188 43.7065 54.7266 43.7065C57.6343 43.7065 60 46.0722 60 48.98C60 51.8877 57.6343 54.2534 54.7266 54.2534C51.8188 54.2534 49.4531 51.8877 49.4531 48.98ZM52.9688 48.98C52.9688 49.9492 53.7573 50.7378 54.7266 50.7378C55.6958 50.7378 56.4844 49.9492 56.4844 48.98C56.4844 48.0107 55.6958 47.2221 54.7266 47.2221C53.7573 47.2221 52.9688 48.0106 52.9688 48.98Z" fill="#0087FF"/>
<path d="M21.3438 50.7378H8.78906C7.81828 50.7378 7.03125 49.9507 7.03125 48.98C7.03125 48.0092 7.81828 47.2221 8.78906 47.2221H21.3438C22.3146 47.2221 23.1016 48.0092 23.1016 48.98C23.1016 49.9507 22.3146 50.7378 21.3438 50.7378ZM18.039 16.0175C17.0682 16.0175 16.2812 15.2304 16.2812 14.2596V8.73145H8.78906C7.81828 8.73145 7.03125 7.94441 7.03125 6.97363C7.03125 6.00285 7.81828 5.21582 8.78906 5.21582H18.039C19.0098 5.21582 19.7968 6.00285 19.7968 6.97363V14.2596C19.7968 15.2304 19.0098 16.0175 18.039 16.0175ZM10.5633 29.6302H1.75781C0.787031 29.6302 0 28.8432 0 27.8724C0 26.9016 0.787031 26.1146 1.75781 26.1146H10.5633C11.5341 26.1146 12.3211 26.9016 12.3211 27.8724C12.3211 28.8432 11.5341 29.6302 10.5633 29.6302ZM13.1509 37.9559H5.75508C4.7843 37.9559 3.99727 37.1689 3.99727 36.1981C3.99727 35.2273 4.7843 34.4403 5.75508 34.4403H13.1509C14.1217 34.4403 14.9087 35.2273 14.9087 36.1981C14.9087 37.1689 14.1217 37.9559 13.1509 37.9559Z" fill="#0087FF"/>
<path d="M5.27289 10.1688C7.03731 10.1688 8.46766 8.73848 8.46766 6.97406C8.46766 5.20964 7.03731 3.7793 5.27289 3.7793C3.50847 3.7793 2.07812 5.20964 2.07812 6.97406C2.07812 8.73848 3.50847 10.1688 5.27289 10.1688Z" fill="#FFEFB2"/>
<path d="M5.27289 52.1747C7.03731 52.1747 8.46766 50.7443 8.46766 48.9799C8.46766 47.2155 7.03731 45.7852 5.27289 45.7852C3.50847 45.7852 2.07812 47.2155 2.07812 48.9799C2.07812 50.7443 3.50847 52.1747 5.27289 52.1747Z" fill="#FFEFB2"/>
<path d="M5.27344 12.2471C2.36566 12.2471 0 9.88141 0 6.97363C0 4.06586 2.36566 1.7002 5.27344 1.7002C8.18121 1.7002 10.5469 4.06586 10.5469 6.97363C10.5469 9.88141 8.18121 12.2471 5.27344 12.2471ZM5.27344 5.21582C4.30418 5.21582 3.51562 6.00438 3.51562 6.97363C3.51562 7.94289 4.30418 8.73145 5.27344 8.73145C6.2427 8.73145 7.03125 7.94289 7.03125 6.97363C7.03125 6.00438 6.2427 5.21582 5.27344 5.21582ZM5.27344 54.2534C2.36566 54.2534 0 51.8877 0 48.98C0 46.0722 2.36566 43.7065 5.27344 43.7065C8.18121 43.7065 10.5469 46.0722 10.5469 48.98C10.5469 51.8877 8.18121 54.2534 5.27344 54.2534ZM5.27344 47.2221C4.30418 47.2221 3.51562 48.0107 3.51562 48.98C3.51562 49.9492 4.30418 50.7378 5.27344 50.7378C6.2427 50.7378 7.03125 49.9492 7.03125 48.98C7.03125 48.0107 6.2427 47.2221 5.27344 47.2221Z" fill="#0087FF"/>
<path d="M48.7969 30.2623C46.7344 37.6252 41.7984 48.0982 30 56.7443C20.5523 49.8338 14.2488 40.9873 11.25 30.4264C9.52499 24.3502 9.43241 19.3545 9.50507 17.1373C21.6082 13.2807 27.5051 9.16152 30 6.97363C32.4949 9.16152 38.3918 13.2818 50.4973 17.1373C50.5723 19.3264 50.4867 24.2271 48.7969 30.2623Z" fill="#0087FF"/>
<path d="M48.7969 30.2623C46.7344 37.6252 41.7984 48.0982 30 56.7443V6.97363C32.4949 9.16152 38.3918 13.2818 50.4973 17.1373C50.5723 19.3264 50.4867 24.2271 48.7969 30.2623Z" fill="#323FD4"/>
<path d="M31.0851 55.694L29.9981 54.3822C21.4481 48.1279 15.7422 40.1205 13.0282 30.5627C11.4672 25.0631 11.384 20.542 11.4497 18.5357C22.4032 15.0447 27.7399 11.317 29.9981 9.33652L31.0851 8.25594V6.70742L29.9981 5.06738C29.4356 5.06738 28.9305 5.33691 28.6001 5.7916C28.4161 6.01426 24.168 10.976 9.25591 15.5381C8.58794 15.742 8.10396 16.3232 8.02427 17.0182C7.99497 17.2701 7.33989 23.2889 9.60044 31.3619C10.9214 36.0819 12.9847 40.5616 15.7129 44.6334C19.1196 49.7217 23.5868 54.2135 28.9926 57.9834C29.295 58.1943 29.6465 58.2998 29.9981 58.2998L31.0851 56.8857V55.694Z" fill="#0087FF"/>
<path d="M31.0127 18.3165L29.9984 16.874C25.8488 16.874 22.4727 20.2502 22.4727 24.3998V27.1221C22.4727 28.0924 23.2602 28.8799 24.2305 28.8799C25.202 28.8799 25.9883 28.0924 25.9883 27.1221V24.3998C25.9883 22.1885 27.7871 20.3896 29.9984 20.3896L31.0127 19.2664V18.3165Z" fill="white"/>
<path d="M50.3977 31.3619C49.0767 36.0819 47.0134 40.5616 44.2852 44.6334C40.8785 49.7217 36.4113 54.2135 31.0055 57.9834C30.7031 58.1943 30.3516 58.2998 30 58.2998V54.3822C40.6781 46.5564 45.1453 37.0783 47.0121 30.4139C48.5414 24.9518 48.6187 20.5162 48.5508 18.5357C37.5949 15.0459 32.2582 11.317 30 9.33652V5.06738C30.5625 5.06738 31.0676 5.33691 31.398 5.7916C31.582 6.01426 35.8301 10.976 50.7422 15.5381C51.4102 15.742 51.8941 16.3232 51.9738 17.0182C52.0031 17.2701 52.6582 23.2889 50.3977 31.3619Z" fill="#323FD4"/>
<path d="M37.5258 24.3998V27.1221C37.5258 28.0924 36.7383 28.8799 35.768 28.8799C34.7965 28.8799 34.0102 28.0924 34.0102 27.1221V24.3998C34.0102 22.1885 32.2113 20.3896 30 20.3896V16.874C34.1496 16.874 37.5258 20.2502 37.5258 24.3998Z" fill="white"/>
<path d="M31.5737 28.8794L30.0008 25.3643H23.532C21.7648 25.3643 20.3281 26.801 20.3281 28.5682V38.6346C20.3281 40.4018 21.7648 41.8385 23.532 41.8385H30.0008L31.5737 37.6432V28.8794Z" fill="#FFE370"/>
<path d="M39.6727 28.5682V38.6346C39.6727 40.4018 38.2359 41.8385 36.4688 41.8385H30V25.3643H36.4688C38.2359 25.3643 39.6727 26.801 39.6727 28.5682Z" fill="#FFB54C"/>
<path d="M31.7578 32.7471V34.4557C31.7578 35.4272 30.9703 36.2135 30 36.2135C29.0297 36.2135 28.2422 35.4272 28.2422 34.4557V32.7471C28.2422 31.7756 29.0297 30.9893 30 30.9893C30.9703 30.9893 31.7578 31.7755 31.7578 32.7471Z" fill="#404A80"/>
<path d="M31.7578 32.7471V34.4557C31.7578 35.4272 30.9703 36.2135 30 36.2135V30.9893C30.9703 30.9893 31.7578 31.7755 31.7578 32.7471Z" fill="#283366"/>
</svg>
