<svg width="60" height="60" viewBox="0 0 60 60" fill="none" xmlns="http://www.w3.org/2000/svg">
<path d="M24.0275 35.0511H2.34375V23.0857C2.34375 20.2179 4.67684 17.8848 7.54465 17.8848H18.8266C21.6945 17.8848 24.0275 20.2179 24.0275 23.0857V35.0511Z" fill="#FEDB41"/>
<path d="M24.0295 35.0511H13.1875V17.8848H18.8284C21.6962 17.8848 24.0293 20.2179 24.0293 23.0857L24.0295 35.0511Z" fill="#FCBF29"/>
<path d="M13.1874 15.2136C9.78215 15.2136 7.01172 12.4432 7.01172 9.03797C7.01172 5.63273 9.78215 2.8623 13.1874 2.8623C16.5926 2.8623 19.363 5.63273 19.363 9.03797C19.3629 12.4432 16.5926 15.2136 13.1874 15.2136Z" fill="#FEDB41"/>
<path d="M13.1875 15.2136V2.8623C16.5927 2.8623 19.3632 5.63273 19.3632 9.03797C19.363 12.4432 16.5927 15.2136 13.1875 15.2136Z" fill="#FCBF29"/>
<path d="M57.5861 35.0511H35.9023V23.0857C35.9023 20.2179 38.2354 17.8848 41.1032 17.8848H52.3852C55.253 17.8848 57.5861 20.2179 57.5861 23.0857V35.0511Z" fill="#FEDB41"/>
<path d="M57.5879 35.0511H46.7461V17.8848H52.387C55.2548 17.8848 57.5879 20.2179 57.5879 23.0857V35.0511Z" fill="#FCBF29"/>
<path d="M46.746 15.2136C43.3407 15.2136 40.5703 12.4432 40.5703 9.03797C40.5703 5.63273 43.3407 2.8623 46.746 2.8623C50.1512 2.8623 52.9216 5.63273 52.9216 9.03797C52.9216 12.4432 50.1512 15.2136 46.746 15.2136Z" fill="#FEDB41"/>
<path d="M46.7461 15.2136V2.8623C50.1513 2.8623 52.9218 5.63273 52.9218 9.03797C52.9218 12.4432 50.1513 15.2136 46.7461 15.2136Z" fill="#FCBF29"/>
<path d="M41.8072 35.0512H18.1953V22.0218C18.1953 18.899 20.7359 16.3584 23.8588 16.3584H36.1439C39.2667 16.3584 41.8073 18.899 41.8073 22.0218V35.0512H41.8072Z" fill="#0087FF"/>
<path d="M41.8059 35.0512H30V16.3584H36.1426C39.2654 16.3584 41.8061 18.899 41.8061 22.0218V35.0512H41.8059Z" fill="#323FD4"/>
<path d="M29.9982 13.4496C26.2902 13.4496 23.2734 10.4329 23.2734 6.7248C23.2734 3.01676 26.2902 0 29.9982 0C33.7063 0 36.723 3.01676 36.723 6.7248C36.723 10.4329 33.7063 13.4496 29.9982 13.4496Z" fill="#0087FF"/>
<path d="M30 13.4496V0C33.708 0 36.7248 3.01676 36.7248 6.7248C36.7248 10.4329 33.708 13.4496 30 13.4496Z" fill="#323FD4"/>
<path d="M2.34375 32.3438V36.3214L10.3063 37.1646C10.7964 39.1726 11.5925 41.0932 12.6668 42.859L7.63148 49.087L13.2568 54.7124L19.4849 49.6771C21.2507 50.7513 23.1713 51.5474 25.1793 52.0376L26.0223 60H33.9777L34.8209 52.0375C36.8288 51.5474 38.7494 50.7512 40.5152 49.677L46.7433 54.7123L52.3686 49.0869L47.3332 42.859C48.4074 41.0931 49.2036 39.1726 49.6937 37.1646L57.6562 36.3214V32.3438H2.34375Z" fill="#323FD4"/>
<path d="M30 32.3438V60H33.9777L34.8209 52.0375C36.8288 51.5474 38.7494 50.7512 40.5152 49.677L46.7433 54.7123L52.3686 49.0869L47.3332 42.859C48.4074 41.0931 49.2036 39.1726 49.6937 37.1646L57.6562 36.3214V32.3438H30Z" fill="#0087FF"/>
<path d="M18.1953 32.3438C18.1953 38.8641 23.4811 44.1497 30.0013 44.1497C36.5214 44.1497 41.8072 38.8641 41.8072 32.3438H18.1953Z" fill="#0087FF"/>
<path d="M30 32.3438V44.1497C36.5203 44.1497 41.8059 38.8639 41.8059 32.3438H30Z" fill="#323FD4"/>
</svg>
