<svg width="60" height="60" viewBox="0 0 60 60" fill="none" xmlns="http://www.w3.org/2000/svg">
<path d="M0.910156 1H47.0011V58.9091H0.910156V1Z" fill="#0087FF"/>
<path d="M16.8192 1H0.910156V59H23.9102V1H16.8192Z" fill="#323FD4"/>
<path d="M7 30H31.5835V33.4378H7V30ZM7 36.8756H31.5835V40.3134H7V36.8756ZM7 43.6863H31.5835V47.1241H7V43.6863ZM7 50.5619H31.5835V53.9997H7V50.5619Z" fill="white"/>
<path d="M7 30H19.2593V33.4378H7V30ZM7 36.8756H19.2593V40.3134H7V36.8756ZM7 43.6863H19.2593V47.1241H7V43.6863ZM7 50.5619H19.2593V53.9997H7V50.5619Z" fill="white"/>
<path d="M54.8376 29H34.7297C34.3243 29 34 29.3243 34 29.7297V32.0811C34 32.4865 34.3243 32.8108 34.7297 32.8108H54.8376C55.243 32.8108 55.5674 32.4865 55.5674 32.0811V29.7297C55.5674 29.3243 55.243 29 54.8376 29Z" fill="#FEDB41"/>
<path d="M45.918 44.6484V43.1079C49.8098 42.3782 52.8909 37.8377 52.972 32.3242H36.5938C36.7559 37.8377 39.7559 42.3782 43.6477 43.1079V44.6484C39.7559 45.3781 36.6748 49.9186 36.5938 55.4321H52.972C52.8098 49.9186 49.8098 45.3781 45.918 44.6484Z" fill="#E6E6E8"/>
<path d="M44.7829 32.8115H36.5938C36.837 38.1628 39.837 42.4601 43.6477 43.1087V44.6493C39.7559 45.379 36.7559 49.7573 36.5938 55.1897H44.7829V32.8115Z" fill="#D4D8DB"/>
<path d="M54.8352 29H44.7812V32.8108H54.8352C55.2406 32.8108 55.5649 32.4865 55.5649 32.0811V29.7297C55.5649 29.3243 55.2406 29 54.8352 29Z" fill="#FCBF29"/>
<path d="M39.595 37.1895C40.568 39.3786 42.1896 40.9191 44.0544 41.2435L44.5409 41.3245V48.9461L44.0544 49.0272C41.4599 49.5137 39.3518 52.3515 38.7031 56.0001H44.7841V37.1895H39.595Z" fill="#323FD4"/>
<path d="M45.511 49.0272L45.0245 48.865V41.2435L45.511 41.1624C47.3758 40.8381 48.9163 39.2976 49.9704 37.1084H44.7812V55.919H50.8623C50.2136 52.3515 48.1055 49.5137 45.511 49.0272Z" fill="#0087FF"/>
<path d="M36.5946 55.1895H34.7297C34.3243 55.1895 34 55.5138 34 55.9192V58.2705C34 58.6759 34.3243 59.0002 34.7297 59.0002H44.7837V55.1895H36.5946Z" fill="#FEDB41"/>
<path d="M54.8352 55.1895H44.7812V59.0002H54.8352C55.2406 59.0002 55.5649 58.6759 55.5649 58.2705V55.9192C55.5649 55.5138 55.2406 55.1895 54.8352 55.1895Z" fill="#FCBF29"/>
<path d="M4.6321 13V5.72727H9.44744V6.99503H6.16974V8.72798H9.12784V9.99574H6.16974V13H4.6321ZM11.9403 13.103C11.5923 13.103 11.2822 13.0426 11.0099 12.9219C10.7377 12.7988 10.5223 12.6177 10.3636 12.3786C10.2074 12.1371 10.1293 11.8364 10.1293 11.4766C10.1293 11.1735 10.1849 10.919 10.2962 10.7131C10.4074 10.5071 10.5589 10.3414 10.7507 10.2159C10.9425 10.0904 11.1603 9.99574 11.4041 9.93182C11.6503 9.8679 11.9084 9.82292 12.1783 9.79688C12.4955 9.76373 12.7512 9.73295 12.9453 9.70455C13.1394 9.67377 13.2803 9.62879 13.3679 9.5696C13.4555 9.51042 13.4993 9.42282 13.4993 9.30682V9.28551C13.4993 9.06061 13.4283 8.8866 13.2862 8.76349C13.1465 8.64039 12.9477 8.57884 12.6896 8.57884C12.4174 8.57884 12.2008 8.6392 12.0398 8.75994C11.8788 8.87831 11.7723 9.02746 11.7202 9.20739L10.321 9.09375C10.392 8.76231 10.5317 8.47585 10.7401 8.23438C10.9484 7.99053 11.2171 7.8035 11.5462 7.6733C11.8776 7.54072 12.2611 7.47443 12.6967 7.47443C12.9998 7.47443 13.2898 7.50994 13.5668 7.58097C13.8461 7.65199 14.0935 7.76207 14.3089 7.91122C14.5268 8.06037 14.6984 8.25213 14.8239 8.48651C14.9493 8.71851 15.0121 8.99669 15.0121 9.32102V13H13.5774V12.2436H13.5348C13.4472 12.4141 13.33 12.5644 13.1832 12.6946C13.0365 12.8224 12.8601 12.9231 12.6541 12.9964C12.4482 13.0675 12.2102 13.103 11.9403 13.103ZM12.3736 12.0589C12.5961 12.0589 12.7926 12.0152 12.9631 11.9276C13.1335 11.8376 13.2673 11.7169 13.3643 11.5653C13.4614 11.4138 13.5099 11.2422 13.5099 11.0504V10.4716C13.4626 10.5024 13.3975 10.5308 13.3146 10.5568C13.2341 10.5805 13.143 10.603 13.0412 10.6243C12.9394 10.6432 12.8376 10.661 12.7358 10.6776C12.634 10.6918 12.5417 10.7048 12.4588 10.7166C12.2813 10.7427 12.1262 10.7841 11.9936 10.8409C11.861 10.8977 11.758 10.9747 11.6847 11.0717C11.6113 11.1664 11.5746 11.2848 11.5746 11.4268C11.5746 11.6328 11.6491 11.7902 11.7983 11.8991C11.9498 12.0057 12.1416 12.0589 12.3736 12.0589ZM20.7241 9.10085L19.3391 9.18608C19.3155 9.06771 19.2646 8.96117 19.1864 8.86648C19.1083 8.76941 19.0053 8.69247 18.8775 8.63565C18.752 8.57647 18.6017 8.54688 18.4265 8.54688C18.1921 8.54688 17.9944 8.59659 17.8335 8.69602C17.6725 8.79309 17.592 8.9233 17.592 9.08665C17.592 9.21686 17.6441 9.32694 17.7482 9.4169C17.8524 9.50687 18.0311 9.57907 18.2844 9.63352L19.2717 9.83239C19.802 9.94129 20.1973 10.1165 20.4577 10.358C20.7182 10.5994 20.8484 10.9167 20.8484 11.3097C20.8484 11.6671 20.743 11.9808 20.5323 12.2507C20.324 12.5206 20.0375 12.7313 19.6729 12.8828C19.3107 13.032 18.8929 13.1065 18.4194 13.1065C17.6973 13.1065 17.122 12.9562 16.6935 12.6555C16.2674 12.3525 16.0176 11.9406 15.9442 11.4197L17.4322 11.3416C17.4772 11.5618 17.5861 11.7299 17.7589 11.8459C17.9317 11.9595 18.1531 12.0163 18.4229 12.0163C18.6881 12.0163 18.9012 11.9654 19.0621 11.8636C19.2255 11.7595 19.3084 11.6257 19.3107 11.4624C19.3084 11.325 19.2504 11.2126 19.1367 11.125C19.0231 11.035 18.8479 10.9664 18.6112 10.919L17.6665 10.7308C17.1339 10.6243 16.7373 10.4396 16.4769 10.1768C16.2189 9.91406 16.0898 9.57907 16.0898 9.17188C16.0898 8.8215 16.1845 8.51965 16.3739 8.26634C16.5657 8.01302 16.8344 7.81771 17.18 7.6804C17.5281 7.54309 17.9353 7.47443 18.4016 7.47443C19.0906 7.47443 19.6327 7.62003 20.0281 7.91122C20.4258 8.20241 20.6578 8.59896 20.7241 9.10085ZM24.7022 7.54545V8.68182H21.4174V7.54545H24.7022ZM22.1632 6.23864H23.676V11.3239C23.676 11.4635 23.6973 11.5724 23.7399 11.6506C23.7825 11.7263 23.8417 11.7796 23.9174 11.8104C23.9956 11.8411 24.0855 11.8565 24.1873 11.8565C24.2583 11.8565 24.3294 11.8506 24.4004 11.8388C24.4714 11.8246 24.5259 11.8139 24.5637 11.8068L24.8017 12.9325C24.7259 12.9562 24.6194 12.9834 24.4821 13.0142C24.3448 13.0473 24.1779 13.0675 23.9814 13.0746C23.6168 13.0888 23.2972 13.0402 23.0225 12.929C22.7503 12.8177 22.5384 12.6449 22.3869 12.4105C22.2354 12.1761 22.1608 11.8802 22.1632 11.5227V6.23864Z" fill="white"/>
<path d="M7.21023 23H4.6321V15.7273H7.23153C7.96307 15.7273 8.5928 15.8729 9.12074 16.1641C9.64867 16.4529 10.0547 16.8684 10.3388 17.4105C10.6252 17.9527 10.7685 18.6013 10.7685 19.3565C10.7685 20.1141 10.6252 20.7652 10.3388 21.3097C10.0547 21.8542 9.64631 22.272 9.11364 22.5632C8.58333 22.8544 7.94886 23 7.21023 23ZM6.16974 21.6825H7.14631C7.60085 21.6825 7.98319 21.602 8.29332 21.4411C8.60582 21.2777 8.8402 21.0256 8.99645 20.6847C9.15507 20.3414 9.23438 19.8987 9.23438 19.3565C9.23438 18.8191 9.15507 18.38 8.99645 18.0391C8.8402 17.6982 8.60701 17.4472 8.29688 17.2862C7.98674 17.1252 7.6044 17.0447 7.14986 17.0447H6.16974V21.6825ZM14.3649 23.1065C13.8038 23.1065 13.3208 22.9929 12.916 22.7656C12.5136 22.536 12.2034 22.2116 11.9856 21.7926C11.7678 21.3712 11.6589 20.8729 11.6589 20.2976C11.6589 19.7365 11.7678 19.2441 11.9856 18.8203C12.2034 18.3965 12.51 18.0663 12.9054 17.8295C13.3031 17.5928 13.7695 17.4744 14.3045 17.4744C14.6644 17.4744 14.9993 17.5324 15.3095 17.6484C15.622 17.7621 15.8942 17.9337 16.1262 18.1634C16.3606 18.393 16.5429 18.6818 16.6731 19.0298C16.8033 19.3755 16.8684 19.7803 16.8684 20.2443V20.6598H12.2626V19.7223H15.4444C15.4444 19.5045 15.3971 19.3116 15.3024 19.1435C15.2077 18.9754 15.0763 18.844 14.9082 18.7493C14.7425 18.6522 14.5495 18.6037 14.3294 18.6037C14.0997 18.6037 13.8961 18.657 13.7186 18.7635C13.5434 18.8677 13.4061 19.0085 13.3066 19.1861C13.2072 19.3613 13.1563 19.5566 13.1539 19.772V20.6634C13.1539 20.9332 13.2037 21.1664 13.3031 21.3629C13.4049 21.5594 13.5481 21.7109 13.7328 21.8175C13.9174 21.924 14.1364 21.9773 14.3897 21.9773C14.5578 21.9773 14.7117 21.9536 14.8514 21.9062C14.9911 21.8589 15.1106 21.7879 15.21 21.6932C15.3095 21.5985 15.3852 21.4825 15.4373 21.3452L16.8365 21.4375C16.7654 21.7737 16.6199 22.0672 16.3997 22.3182C16.1819 22.5668 15.9002 22.7609 15.5545 22.9006C15.2112 23.0379 14.8147 23.1065 14.3649 23.1065ZM19.3684 15.7273V23H17.8556V15.7273H19.3684ZM20.5803 23V17.5455H22.093V23H20.5803ZM21.3402 16.8423C21.1153 16.8423 20.9223 16.7678 20.7614 16.6186C20.6027 16.4671 20.5234 16.286 20.5234 16.0753C20.5234 15.867 20.6027 15.6882 20.7614 15.5391C20.9223 15.3875 21.1153 15.3118 21.3402 15.3118C21.5651 15.3118 21.7569 15.3875 21.9155 15.5391C22.0765 15.6882 22.157 15.867 22.157 16.0753C22.157 16.286 22.0765 16.4671 21.9155 16.6186C21.7569 16.7678 21.5651 16.8423 21.3402 16.8423ZM28.3901 17.5455L26.4831 23H24.7786L22.8716 17.5455H24.4696L25.6025 21.4482H25.6593L26.7885 17.5455H28.3901ZM31.4743 23.1065C30.9132 23.1065 30.4302 22.9929 30.0254 22.7656C29.6229 22.536 29.3128 22.2116 29.095 21.7926C28.8772 21.3712 28.7683 20.8729 28.7683 20.2976C28.7683 19.7365 28.8772 19.2441 29.095 18.8203C29.3128 18.3965 29.6194 18.0663 30.0147 17.8295C30.4125 17.5928 30.8788 17.4744 31.4139 17.4744C31.7737 17.4744 32.1087 17.5324 32.4189 17.6484C32.7314 17.7621 33.0036 17.9337 33.2356 18.1634C33.47 18.393 33.6523 18.6818 33.7825 19.0298C33.9127 19.3755 33.9778 19.7803 33.9778 20.2443V20.6598H29.372V19.7223H32.5538C32.5538 19.5045 32.5065 19.3116 32.4118 19.1435C32.3171 18.9754 32.1857 18.844 32.0176 18.7493C31.8519 18.6522 31.6589 18.6037 31.4387 18.6037C31.2091 18.6037 31.0055 18.657 30.8279 18.7635C30.6528 18.8677 30.5154 19.0085 30.416 19.1861C30.3166 19.3613 30.2657 19.5566 30.2633 19.772V20.6634C30.2633 20.9332 30.313 21.1664 30.4125 21.3629C30.5143 21.5594 30.6575 21.7109 30.8422 21.8175C31.0268 21.924 31.2458 21.9773 31.4991 21.9773C31.6672 21.9773 31.8211 21.9536 31.9608 21.9062C32.1004 21.8589 32.22 21.7879 32.3194 21.6932C32.4189 21.5985 32.4946 21.4825 32.5467 21.3452L33.9458 21.4375C33.8748 21.7737 33.7292 22.0672 33.5091 22.3182C33.2913 22.5668 33.0095 22.7609 32.6639 22.9006C32.3206 23.0379 31.9241 23.1065 31.4743 23.1065ZM34.965 23V17.5455H36.4316V18.4972H36.4885C36.5879 18.1586 36.7548 17.9029 36.9892 17.7301C37.2235 17.5549 37.4934 17.4673 37.7988 17.4673C37.8746 17.4673 37.9563 17.4721 38.0439 17.4815C38.1315 17.491 38.2084 17.504 38.2747 17.5206V18.8629C38.2037 18.8416 38.1054 18.8227 37.9799 18.8061C37.8545 18.7895 37.7396 18.7812 37.6355 18.7812C37.4129 18.7812 37.2141 18.8298 37.0389 18.9268C36.8661 19.0215 36.7288 19.1541 36.627 19.3246C36.5275 19.495 36.4778 19.6915 36.4778 19.9141V23H34.965ZM40.1568 25.0455C39.965 25.0455 39.7851 25.0301 39.617 24.9993C39.4513 24.9709 39.314 24.9342 39.2051 24.8892L39.546 23.7599C39.7235 23.8144 39.8833 23.844 40.0254 23.8487C40.1698 23.8535 40.2941 23.8203 40.3983 23.7493C40.5048 23.6783 40.5912 23.5575 40.6575 23.3871L40.7463 23.1562L38.7896 17.5455H40.3805L41.5098 21.5511H41.5666L42.7065 17.5455H44.3081L42.188 23.5895C42.0862 23.883 41.9477 24.1387 41.7725 24.3565C41.5997 24.5767 41.3807 24.746 41.1156 24.8643C40.8504 24.9851 40.5308 25.0455 40.1568 25.0455Z" fill="white"/>
</svg>
