<svg width="60" height="60" viewBox="0 0 60 60" fill="none" xmlns="http://www.w3.org/2000/svg">
<g clip-path="url(#clip0_224_1425)">
<path fill-rule="evenodd" clip-rule="evenodd" d="M49.0358 8.27539H53.7944C54.8919 8.27539 55.9444 8.71135 56.7204 9.48736C57.4964 10.2634 57.9324 11.3159 57.9324 12.4133V51.7237H2.07031V12.4133C2.07031 11.3159 2.50627 10.2634 3.28228 9.48736C4.0583 8.71135 5.1108 8.27539 6.20824 8.27539H49.0358Z" fill="#0087FF"/>
<path fill-rule="evenodd" clip-rule="evenodd" d="M54.7772 8.39955C42.9738 9.13403 2.07031 14.2444 2.07031 49.6547V12.4133C2.07031 11.3159 2.50627 10.2634 3.28228 9.48738C4.0583 8.71137 5.1108 8.27541 6.20824 8.27541H53.7944C54.1255 8.27438 54.4565 8.31575 54.7772 8.39955Z" fill="#040E86"/>
<path fill-rule="evenodd" clip-rule="evenodd" d="M7.24138 5.17285V39.3108C7.24138 42.166 15.1138 44.4832 24.8276 44.4832C26.8624 44.4832 28.8962 44.3797 30.9207 44.1729L42.4138 15.3729V5.17285H7.24138ZM53.7931 60.0004H6.2069C4.56073 60.0004 2.98198 59.3465 1.81796 58.1825C0.653939 57.0185 0 55.4397 0 53.7935L0 50.6901C0 50.4157 0.10899 50.1526 0.302993 49.9586C0.496996 49.7646 0.760121 49.6556 1.03448 49.6556H58.9655C59.2399 49.6556 59.503 49.7646 59.697 49.9586C59.891 50.1526 60 50.4157 60 50.6901V53.7935C60 55.4397 59.3461 57.0185 58.182 58.1825C57.018 59.3465 55.4393 60.0004 53.7931 60.0004Z" fill="#323FD4"/>
<path fill-rule="evenodd" clip-rule="evenodd" d="M19.6548 49.6553H40.3444V51.7242C40.3444 52.5473 40.0175 53.3367 39.4354 53.9187C38.8534 54.5007 38.0641 54.8277 37.241 54.8277H22.7582C21.9351 54.8277 21.1458 54.5007 20.5637 53.9187C19.9817 53.3367 19.6548 52.5473 19.6548 51.7242V49.6553ZM15.5168 54.8277H12.4134C12.139 54.8277 11.8759 54.7187 11.6819 54.5247C11.4879 54.3307 11.3789 54.0676 11.3789 53.7932C11.3789 53.5188 11.4879 53.2557 11.6819 53.0617C11.8759 52.8677 12.139 52.7587 12.4134 52.7587H15.5168C15.7912 52.7587 16.0543 52.8677 16.2483 53.0617C16.4423 53.2557 16.5513 53.5188 16.5513 53.7932C16.5513 54.0676 16.4423 54.3307 16.2483 54.5247C16.0543 54.7187 15.7912 54.8277 15.5168 54.8277Z" fill="white"/>
<path d="M4.13605 54.8278C4.70737 54.8278 5.17053 54.3646 5.17053 53.7933C5.17053 53.2219 4.70737 52.7588 4.13605 52.7588C3.56472 52.7588 3.10156 53.2219 3.10156 53.7933C3.10156 54.3646 3.56472 54.8278 4.13605 54.8278Z" fill="white"/>
<path d="M8.27667 54.8278C8.848 54.8278 9.31115 54.3646 9.31115 53.7933C9.31115 53.2219 8.848 52.7588 8.27667 52.7588C7.70534 52.7588 7.24219 53.2219 7.24219 53.7933C7.24219 54.3646 7.70534 54.8278 8.27667 54.8278Z" fill="white"/>
<path d="M24.8284 10.3448C34.541 10.3448 42.4146 8.02906 42.4146 5.17241C42.4146 2.31577 34.541 0 24.8284 0C15.1158 0 7.24219 2.31577 7.24219 5.17241C7.24219 8.02906 15.1158 10.3448 24.8284 10.3448Z" fill="#0010C9"/>
<path fill-rule="evenodd" clip-rule="evenodd" d="M21.7249 30C21.727 31.0169 21.8232 32.0318 22.0146 33.0311C13.6353 32.638 7.24219 30.5069 7.24219 27.9311V16.5518C7.24219 19.3345 14.7422 21.6104 24.1249 21.7138C22.5526 24.1912 21.7199 27.0658 21.7249 30Z" fill="#0010C9"/>
<path fill-rule="evenodd" clip-rule="evenodd" d="M52.7571 29.9997C52.754 38.5683 45.8085 45.5138 37.2399 45.5169C35.0615 45.5221 32.9068 45.0637 30.9192 44.1721C28.6535 43.1602 26.6627 41.6208 25.1133 39.6826C23.5638 37.7444 22.5005 35.4636 22.0123 33.0307C21.8213 32.0316 21.7243 31.0168 21.7227 29.9997C21.7227 21.43 28.6702 14.4824 37.2399 14.4824C45.8096 14.4824 52.7571 21.43 52.7571 29.9997Z" fill="#FFB600"/>
<path fill-rule="evenodd" clip-rule="evenodd" d="M49.3507 29.2686L46.2473 26.1652C46.0533 25.9712 45.7902 25.8623 45.5159 25.8623C45.2416 25.8623 44.9785 25.9712 44.7845 26.1652L41.6811 29.2686C41.4926 29.4637 41.3884 29.725 41.3907 29.9963C41.3931 30.2675 41.5019 30.527 41.6937 30.7188C41.8855 30.9106 42.1449 31.0194 42.4162 31.0217C42.6874 31.0241 42.9487 30.9198 43.1438 30.7314L44.4814 29.3938V30C44.4814 31.4322 44.0567 32.8322 43.261 34.0231C42.4653 35.2139 41.3344 36.1421 40.0112 36.6901C38.688 37.2382 37.232 37.3816 35.8273 37.1022C34.4226 36.8228 33.1323 36.1331 32.1196 35.1204C31.1069 34.1077 30.4172 32.8174 30.1378 31.4127C29.8584 30.008 30.0018 28.552 30.5499 27.2288C31.098 25.9056 32.0261 24.7747 33.2169 23.979C34.4078 23.1833 35.8078 22.7586 37.24 22.7586C38.8863 22.7522 40.4845 23.313 41.7659 24.3465C41.8715 24.4345 41.9936 24.5006 42.1251 24.5409C42.2565 24.5811 42.3947 24.5948 42.5315 24.581C42.6683 24.5673 42.8009 24.5264 42.9218 24.4608C43.0426 24.3952 43.1491 24.3062 43.2351 24.1989C43.3211 24.0917 43.3849 23.9684 43.4227 23.8362C43.4605 23.704 43.4716 23.5656 43.4553 23.4291C43.439 23.2926 43.3956 23.1607 43.3277 23.0411C43.2599 22.9216 43.1689 22.8167 43.06 22.7327C41.4131 21.4138 39.367 20.6933 37.257 20.6895C35.147 20.6856 33.0982 21.3986 31.4465 22.7116C29.7948 24.0246 28.638 25.8597 28.1658 27.9162C27.6936 29.9727 27.934 32.1286 28.8475 34.0306C29.761 35.9326 31.2935 37.4679 33.1938 38.3849C35.0941 39.3019 37.2496 39.5462 39.3069 39.0778C41.3643 38.6094 43.2015 37.456 44.5176 35.8067C45.8336 34.1574 46.5503 32.11 46.5504 30V29.3938L47.888 30.7314C48.0831 30.9198 48.3444 31.0241 48.6156 31.0217C48.8869 31.0194 49.1463 30.9106 49.3381 30.7188C49.5299 30.527 49.6387 30.2675 49.6411 29.9963C49.6434 29.725 49.5392 29.4637 49.3507 29.2686Z" fill="white"/>
</g>
<defs>
<clipPath id="clip0_224_1425">
<rect width="60" height="60" fill="white"/>
</clipPath>
</defs>
</svg>
