<svg width="60" height="60" viewBox="0 0 60 60" fill="none" xmlns="http://www.w3.org/2000/svg">
<path d="M8.64062 47.0399V32.8799H51.3606V46.4399H49.5606V34.6799H10.4406V47.0399H8.64062Z" fill="#0087FF"/>
<path d="M1.19922 54.6006V55.8006C1.19922 56.1606 1.55922 56.5206 1.91922 56.5206H17.1592C17.5192 56.5206 17.8792 56.1606 17.8792 55.8006V54.6006H1.19922Z" fill="#0087FF"/>
<path d="M17.8792 44.0403C17.8792 43.6803 17.5192 43.3203 17.1592 43.3203H1.91922C1.55922 43.3203 1.19922 43.6803 1.19922 44.0403V54.6003H17.8792V44.0403Z" fill="#323FD4"/>
<path d="M2.39844 44.6406H16.6784V53.4006H2.39844V44.6406Z" fill="#FDB43A"/>
<path d="M12.8383 58.3204C12.8383 58.5604 12.5983 58.8004 12.3583 58.8004H6.71828C6.47828 58.8004 6.23828 58.5604 6.23828 58.3204C6.23828 58.0804 6.47828 57.8404 6.71828 57.8404H6.95828L7.19828 56.4004H11.9983L12.2383 57.8404H12.4783C12.5983 57.9604 12.8383 58.0804 12.8383 58.3204Z" fill="#323FD4"/>
<path d="M21.5977 54.6006V55.8006C21.5977 56.1606 21.9577 56.5206 22.3177 56.5206H37.5577C37.9177 56.5206 38.2777 56.1606 38.2777 55.8006V54.6006H21.5977Z" fill="#0087FF"/>
<path d="M38.3988 44.0403C38.3988 43.6803 38.0387 43.3203 37.6787 43.3203H22.4388C22.0788 43.3203 21.7188 43.6803 21.7188 44.0403V54.6003H38.3988V44.0403Z" fill="#323FD4"/>
<path d="M22.918 44.6406H37.198V53.4006H22.918V44.6406Z" fill="#FDB43A"/>
<path d="M33.3606 58.3204C33.3606 58.5604 33.1206 58.8004 32.8806 58.8004H27.1206C26.8806 58.8004 26.6406 58.5604 26.6406 58.3204C26.6406 58.0804 26.8806 57.8404 27.1206 57.8404H27.3606L27.6006 56.4004H32.4006L32.6406 57.8404H32.8806C33.1206 57.9604 33.3606 58.0804 33.3606 58.3204Z" fill="#323FD4"/>
<path d="M42.1211 54.6006V55.8006C42.1211 56.1606 42.4811 56.5206 42.8411 56.5206H58.0811C58.4411 56.5206 58.8011 56.1606 58.8011 55.8006V54.6006H42.1211Z" fill="#0087FF"/>
<path d="M58.8011 44.0403C58.8011 43.6803 58.4411 43.3203 58.0811 43.3203H42.8411C42.4811 43.3203 42.1211 43.6803 42.1211 44.0403V54.6003H58.8011V44.0403Z" fill="#323FD4"/>
<path d="M43.3203 44.6406H57.6003V53.4006H43.3203V44.6406Z" fill="#FDB43A"/>
<path d="M53.7591 58.3204C53.7591 58.5604 53.5191 58.8004 53.2791 58.8004H47.5191C47.2791 58.8004 47.0391 58.5604 47.0391 58.3204C47.0391 58.0804 47.2791 57.8404 47.5191 57.8404H47.7591L47.9991 56.4004H52.7991L53.0391 57.8404H53.2791C53.5191 57.9604 53.7591 58.0804 53.7591 58.3204Z" fill="#323FD4"/>
<path d="M29.1602 21H30.9602V34.08H29.1602V21Z" fill="#0087FF"/>
<path d="M29.3984 21.3604H30.5984V33.8404H29.3984V21.3604Z" fill="#0087FF"/>
<path d="M43.3197 15.1201V22.5601C43.3197 24.2401 37.3197 25.5601 29.9997 25.5601C22.6797 25.5601 16.6797 24.2401 16.6797 22.5601V15.1201H43.3197Z" fill="#323FD4"/>
<path d="M29.9997 18.1201C37.3561 18.1201 43.3197 16.777 43.3197 15.1201C43.3197 13.4633 37.3561 12.1201 29.9997 12.1201C22.6433 12.1201 16.6797 13.4633 16.6797 15.1201C16.6797 16.777 22.6433 18.1201 29.9997 18.1201Z" fill="#0087FF"/>
<path d="M18.2383 7.68066V14.2807C18.2383 15.7207 23.5183 16.9207 29.9983 16.9207C36.4783 16.9207 41.7583 15.7207 41.7583 14.2807V7.68066H18.2383Z" fill="#1422C1"/>
<path d="M29.9983 10.32C36.4932 10.32 41.7583 9.13807 41.7583 7.68004C41.7583 6.22201 36.4932 5.04004 29.9983 5.04004C23.5034 5.04004 18.2383 6.22201 18.2383 7.68004C18.2383 9.13807 23.5034 10.32 29.9983 10.32Z" fill="#676767"/>
<path d="M43.3197 4.2002V11.6402C43.3197 13.3202 37.3197 14.6402 29.9997 14.6402C22.6797 14.6402 16.6797 13.3202 16.6797 11.6402V4.2002H43.3197Z" fill="#323FD4"/>
<path d="M29.9997 7.20019C37.3561 7.20019 43.3197 5.85705 43.3197 4.2002C43.3197 2.54334 37.3561 1.2002 29.9997 1.2002C22.6433 1.2002 16.6797 2.54334 16.6797 4.2002C16.6797 5.85705 22.6433 7.20019 29.9997 7.20019Z" fill="#0087FF"/>
<path d="M29.9959 36.0007C31.1889 36.0007 32.1559 35.0336 32.1559 33.8407C32.1559 32.6477 31.1889 31.6807 29.9959 31.6807C28.803 31.6807 27.8359 32.6477 27.8359 33.8407C27.8359 35.0336 28.803 36.0007 29.9959 36.0007Z" fill="#323FD4"/>
<path d="M50.3983 36.0007C51.5912 36.0007 52.5583 35.0336 52.5583 33.8407C52.5583 32.6477 51.5912 31.6807 50.3983 31.6807C49.2053 31.6807 48.2383 32.6477 48.2383 33.8407C48.2383 35.0336 49.2053 36.0007 50.3983 36.0007Z" fill="#323FD4"/>
<path d="M9.5975 36.0007C10.7904 36.0007 11.7575 35.0336 11.7575 33.8407C11.7575 32.6477 10.7904 31.6807 9.5975 31.6807C8.40457 31.6807 7.4375 32.6477 7.4375 33.8407C7.4375 35.0336 8.40457 36.0007 9.5975 36.0007Z" fill="#323FD4"/>
</svg>
