<svg width="512" height="512" viewBox="0 0 512 512" fill="none" xmlns="http://www.w3.org/2000/svg">
<g clip-path="url(#clip0_325_244)">
<path d="M255.166 190.761C217.328 190.761 186.535 221.544 186.535 259.382C186.535 297.221 217.328 328.004 255.166 328.004C293.005 328.004 323.788 297.221 323.788 259.382C323.788 221.544 293.005 190.761 255.166 190.761ZM255.166 297.505C234.143 297.505 217.033 280.406 217.033 259.382C217.033 238.359 234.143 221.259 255.166 221.259C276.18 221.259 293.289 238.359 293.289 259.382C293.289 280.405 276.18 297.505 255.166 297.505Z" fill="white"/>
<path d="M396.872 180.736C371.223 180.736 350.352 201.607 350.352 227.268V257.97C350.352 310 308.03 352.322 256.01 352.322C203.98 352.322 161.648 310 161.648 257.97V227.268C161.648 201.608 140.777 180.736 115.118 180.736C89.4684 180.736 68.6074 201.607 68.6074 227.268V257.4C68.6074 315.164 95.4664 369.848 140.858 405.257V496.752C140.858 505.17 147.68 512.001 156.107 512.001H354.134C362.552 512.001 369.383 505.17 369.383 496.752V406.141C415.873 370.336 443.393 314.636 443.393 255.54V227.268C443.393 201.608 422.532 180.736 396.872 180.736ZM338.885 398.435V481.503H171.357V397.612C171.357 392.691 168.968 388.066 164.962 385.199C123.718 355.768 99.1059 307.997 99.1059 257.4V227.268C99.1059 218.423 106.283 211.235 115.118 211.235C123.962 211.235 131.15 218.422 131.15 227.268V257.97C131.15 326.815 187.155 382.82 256.01 382.82C324.845 382.82 380.851 326.815 380.851 257.97V227.268C380.851 218.423 388.038 211.235 396.883 211.235C405.717 211.235 412.894 218.422 412.894 227.268V255.54C412.894 307.418 387.642 356.175 345.35 385.972C341.294 388.828 338.885 393.474 338.885 398.435Z" fill="white"/>
<path d="M195.918 114.504L193.57 159.723C193.002 170.855 204.171 178.769 214.431 174.677L256 158.157L297.569 174.677C307.846 178.754 318.998 170.864 318.43 159.723L316.082 114.504L344.141 80.4167C351.126 71.9605 347.119 59.0312 336.496 56.0484L293.137 43.8592L268.728 6.84424C262.721 -2.28497 249.274 -2.27785 243.272 6.84424L218.863 43.8592L175.504 56.0484C164.863 59.0362 160.886 71.9757 167.859 80.4167L195.918 114.504ZM241.198 65.4023L256 42.9453L270.802 65.4023C272.825 68.4623 275.875 70.6989 279.413 71.685L305.743 79.0859L288.776 99.6927C286.356 102.631 285.126 106.362 285.319 110.174L286.742 137.562L261.632 127.578C258.032 126.142 253.97 126.141 250.368 127.578L225.258 137.562L226.681 110.174C226.874 106.362 225.644 102.631 223.224 99.6927L206.257 79.0859L232.587 71.685C236.125 70.6989 239.175 68.4613 241.198 65.4023Z" fill="white"/>
<path d="M138.759 147.854C144.714 153.809 154.369 153.809 160.324 147.854C166.28 141.9 166.28 132.244 160.324 126.289L102.978 68.9423C97.0239 62.988 87.3681 62.988 81.4128 68.9423C75.4575 74.8966 75.4575 84.5524 81.4128 90.5078L138.759 147.854Z" fill="white"/>
<path d="M376.826 147.854L434.172 90.5078C440.127 84.5534 440.127 74.8976 434.172 68.9423C428.218 62.988 418.562 62.988 412.607 68.9423L355.26 126.289C349.305 132.243 349.305 141.899 355.26 147.854C361.216 153.809 370.871 153.808 376.826 147.854Z" fill="white"/>
</g>
<defs>
<clipPath id="clip0_325_244">
<rect width="512" height="512" fill="white"/>
</clipPath>
</defs>
</svg>
