<svg width="512" height="512" viewBox="0 0 512 512" fill="none" xmlns="http://www.w3.org/2000/svg">
<g clip-path="url(#clip0_325_220)">
<path d="M7.751 329.968H504.249L504.25 35.7998C504.25 20.1699 491.58 7.5 475.95 7.5H36.0508C20.4209 7.5 7.751 20.1699 7.751 35.7998V329.968ZM7.751 329.968L7.75 379.562C7.75 395.192 20.4199 407.862 36.0498 407.862H475.949C491.579 407.862 504.249 395.192 504.248 379.563V329.968H7.751Z" stroke="white" stroke-width="19.9999" stroke-miterlimit="10" stroke-linecap="round" stroke-linejoin="round"/>
<path d="M309.762 471.098V504.5H202.235V407.861H309.762V435.876M165.794 504.345H346.203M241.029 368.914H270.971M254.348 227.951C234.525 259.857 199.16 281.1 158.834 281.1C96.7755 281.1 46.4678 230.792 46.4678 168.734C46.4678 143.394 54.8557 120.014 69.0056 101.217M93.8265 77.0701C112.176 64.0321 134.61 56.3672 158.834 56.3672C199.689 56.3672 235.451 78.1701 255.12 110.776M199.924 135.244V202.222" stroke="white" stroke-width="19.9999" stroke-miterlimit="10" stroke-linecap="round" stroke-linejoin="round"/>
<path d="M117.744 135.244V181.333C117.744 189.182 121.637 194.466 128.252 198.692C131.473 200.75 135.542 202.216 140.598 202.223C144.977 202.229 148.636 201.215 151.662 199.691C159.37 195.809 164.285 189.915 164.285 181.284V135.243" stroke="white" stroke-width="19.9999" stroke-miterlimit="10" stroke-linecap="round" stroke-linejoin="round"/>
<path d="M353.163 281.1C415.221 281.1 465.529 230.792 465.529 168.734C465.529 106.675 415.221 56.3672 353.163 56.3672C291.105 56.3672 240.796 106.675 240.796 168.734C240.796 230.792 291.105 281.1 353.163 281.1Z" stroke="white" stroke-width="19.9999" stroke-miterlimit="10" stroke-linecap="round" stroke-linejoin="round"/>
<path d="M368.874 135.244L415.993 202.223M412.677 135.244L365.492 202.223M290.334 135.244V181.333C290.334 189.182 294.227 194.466 300.842 198.692C304.063 200.75 308.132 202.216 313.188 202.223C317.567 202.229 321.226 201.215 324.252 199.691C331.96 195.809 336.875 189.915 336.875 181.284V135.243" stroke="white" stroke-width="19.9999" stroke-miterlimit="10" stroke-linecap="round" stroke-linejoin="round"/>
</g>
<defs>
<clipPath id="clip0_325_220">
<rect width="512" height="512" fill="white"/>
</clipPath>
</defs>
</svg>
