<svg width="512" height="512" viewBox="0 0 512 512" fill="none" xmlns="http://www.w3.org/2000/svg">
<path d="M458.859 456.363L417.259 414.635C427.051 394.168 429.292 370.898 423.584 348.939C417.876 326.98 404.587 307.747 386.067 294.64C367.548 281.533 344.99 275.396 322.382 277.316C299.775 279.235 278.574 289.086 262.529 305.127C246.484 321.169 236.628 342.367 234.703 364.974C232.779 387.581 238.91 410.14 252.012 428.663C265.115 447.186 284.345 460.479 306.303 466.192C328.261 471.906 351.531 469.671 372 459.883L413.717 501.483C416.682 504.449 420.202 506.803 424.076 508.41C427.951 510.016 432.104 510.844 436.298 510.845C440.492 510.847 444.646 510.022 448.521 508.418C452.397 506.815 455.918 504.463 458.885 501.499C461.852 498.534 464.206 495.014 465.812 491.139C467.419 487.265 468.246 483.112 468.248 478.918C468.249 474.724 467.425 470.57 465.821 466.695C464.217 462.819 461.866 459.297 458.901 456.331L458.859 456.363ZM277.867 426.133C267.425 415.691 260.315 402.386 257.434 387.903C254.554 373.419 256.033 358.406 261.684 344.763C267.336 331.12 276.906 319.459 289.185 311.255C301.464 303.051 315.899 298.672 330.667 298.672C345.434 298.672 359.87 303.051 372.148 311.255C384.427 319.459 393.997 331.12 399.649 344.763C405.3 358.406 406.78 373.419 403.899 387.903C401.019 402.386 393.908 415.691 383.467 426.133C369.454 440.119 350.465 447.974 330.667 447.974C310.869 447.974 291.879 440.119 277.867 426.133ZM443.733 486.4C441.737 488.374 439.042 489.481 436.235 489.481C433.427 489.481 430.733 488.374 428.736 486.4L390.539 448.288C396.142 443.876 401.205 438.816 405.621 433.216L443.733 471.467C444.722 472.449 445.507 473.617 446.042 474.904C446.578 476.191 446.854 477.571 446.854 478.965C446.854 480.359 446.578 481.739 446.042 483.026C445.507 484.313 444.722 485.482 443.733 486.464V486.4Z" fill="white"/>
<path d="M266.667 469.333H128C119.513 469.333 111.374 465.962 105.372 459.961C99.3713 453.96 95.9998 445.82 95.9998 437.333V74.6666C95.9998 66.1796 99.3713 58.0403 105.372 52.0392C111.374 46.038 119.513 42.6666 128 42.6666H313.387C315.61 42.6723 317.827 42.9118 320 43.3812V106.667C320 115.153 323.371 123.293 329.372 129.294C335.374 135.295 343.513 138.667 352 138.667H415.179C415.705 140.944 415.981 143.273 416 145.611V288C416 290.829 417.124 293.542 419.124 295.542C421.124 297.543 423.838 298.667 426.667 298.667C429.495 298.667 432.209 297.543 434.209 295.542C436.209 293.542 437.333 290.829 437.333 288V145.611C437.348 138.626 435.983 131.708 433.318 125.252C430.653 118.796 426.74 112.93 421.803 107.989L351.189 37.0452C346.246 32.0489 340.358 28.0864 333.867 25.3889C327.377 22.6914 320.415 21.3127 313.387 21.3332H128C113.86 21.3502 100.304 26.9746 90.3062 36.9729C80.3079 46.9712 74.6834 60.5269 74.6665 74.6666V437.333C74.6834 451.473 80.3079 465.029 90.3062 475.027C100.304 485.025 113.86 490.65 128 490.667H266.667C269.495 490.667 272.209 489.543 274.209 487.542C276.209 485.542 277.333 482.829 277.333 480C277.333 477.171 276.209 474.458 274.209 472.457C272.209 470.457 269.495 469.333 266.667 469.333ZM401.003 117.333H352C349.171 117.333 346.458 116.209 344.457 114.209C342.457 112.209 341.333 109.496 341.333 106.667V57.3866L401.003 117.333Z" fill="white"/>
<path d="M149.333 138.666H266.667C269.495 138.666 272.209 137.543 274.209 135.542C276.209 133.542 277.333 130.829 277.333 128C277.333 125.171 276.209 122.458 274.209 120.457C272.209 118.457 269.495 117.333 266.667 117.333H149.333C146.504 117.333 143.791 118.457 141.791 120.457C139.79 122.458 138.667 125.171 138.667 128C138.667 130.829 139.79 133.542 141.791 135.542C143.791 137.543 146.504 138.666 149.333 138.666Z" fill="white"/>
<path d="M362.667 181.333H181.333C178.504 181.333 175.791 182.457 173.791 184.457C171.79 186.458 170.667 189.171 170.667 192C170.667 194.829 171.79 197.542 173.791 199.542C175.791 201.543 178.504 202.666 181.333 202.666H362.667C365.495 202.666 368.209 201.543 370.209 199.542C372.209 197.542 373.333 194.829 373.333 192C373.333 189.171 372.209 186.458 370.209 184.457C368.209 182.457 365.495 181.333 362.667 181.333Z" fill="white"/>
<path d="M373.333 245.334C373.333 242.505 372.209 239.792 370.209 237.791C368.209 235.791 365.495 234.667 362.667 234.667H149.333C146.504 234.667 143.791 235.791 141.791 237.791C139.79 239.792 138.667 242.505 138.667 245.334C138.667 248.163 139.79 250.876 141.791 252.876C143.791 254.877 146.504 256 149.333 256H362.667C365.495 256 368.209 254.877 370.209 252.876C372.209 250.876 373.333 248.163 373.333 245.334Z" fill="white"/>
<path d="M224 298.667C224 295.838 222.876 293.125 220.876 291.124C218.875 289.124 216.162 288 213.333 288H149.333C146.504 288 143.791 289.124 141.791 291.124C139.79 293.125 138.667 295.838 138.667 298.667C138.667 301.496 139.79 304.209 141.791 306.209C143.791 308.21 146.504 309.333 149.333 309.333H213.333C216.162 309.333 218.875 308.21 220.876 306.209C222.876 304.209 224 301.496 224 298.667Z" fill="white"/>
<path d="M149.333 362.666H192C194.829 362.666 197.542 361.543 199.542 359.542C201.543 357.542 202.667 354.829 202.667 352C202.667 349.171 201.543 346.458 199.542 344.457C197.542 342.457 194.829 341.333 192 341.333H149.333C146.504 341.333 143.791 342.457 141.791 344.457C139.79 346.458 138.667 349.171 138.667 352C138.667 354.829 139.79 357.542 141.791 359.542C143.791 361.543 146.504 362.666 149.333 362.666Z" fill="white"/>
<path d="M149.333 416H202.667C205.495 416 208.209 414.877 210.209 412.876C212.209 410.876 213.333 408.163 213.333 405.334C213.333 402.505 212.209 399.792 210.209 397.791C208.209 395.791 205.495 394.667 202.667 394.667H149.333C146.504 394.667 143.791 395.791 141.791 397.791C139.79 399.792 138.667 402.505 138.667 405.334C138.667 408.163 139.79 410.876 141.791 412.876C143.791 414.877 146.504 416 149.333 416Z" fill="white"/>
<path d="M330.666 405.334C322.179 405.334 314.04 401.962 308.039 395.961C302.038 389.96 298.666 381.821 298.666 373.334C298.666 370.505 297.543 367.792 295.542 365.791C293.542 363.791 290.829 362.667 288 362.667C285.171 362.667 282.458 363.791 280.457 365.791C278.457 367.792 277.333 370.505 277.333 373.334C277.35 387.473 282.974 401.029 292.973 411.027C302.971 421.026 316.527 426.65 330.666 426.667C333.495 426.667 336.208 425.543 338.209 423.543C340.209 421.542 341.333 418.829 341.333 416C341.333 413.171 340.209 410.458 338.209 408.458C336.208 406.457 333.495 405.334 330.666 405.334Z" fill="white"/>
</svg>
