<svg width="68" height="69" viewBox="0 0 68 69" fill="none" xmlns="http://www.w3.org/2000/svg">
<path d="M6 0V69H34.1998L37 38.4462L34.1998 0H6Z" fill="#0860CA"/>
<path d="M63 12.8847L53.7357 9.44047L47.7889 0H33V69H63V12.8847Z" fill="#0087FF"/>
<path d="M63 13H48V0L63 13Z" fill="#0860CA"/>
<path d="M0 29.0379V61L33.1067 60.9621L37 45.1374L33.1067 29L0 29.0379Z" fill="#FDB43A"/>
<path d="M68 29.0379L33 29V37.2666L35.5408 43.6157L33 49.8206V60.9621L68 61V29.0379Z" fill="#E89A19"/>
<path d="M10.123 42.8589L10.1421 42.8716C10.1421 42.897 10.1463 42.9224 10.1548 42.9478C10.1675 42.9731 10.1844 42.9964 10.2056 43.0176C10.231 43.0345 10.2542 43.0514 10.2754 43.0684C10.3008 43.0811 10.3325 43.0959 10.3706 43.1128C10.4129 43.1255 10.4468 43.1361 10.4722 43.1445C10.5018 43.153 10.5399 43.1636 10.5864 43.1763C10.6372 43.1847 10.6753 43.1911 10.7007 43.1953C10.7261 43.1995 10.7642 43.2059 10.8149 43.2144C10.8657 43.2228 10.8996 43.2292 10.9165 43.2334C11.8687 43.4027 12.5521 43.5592 12.9668 43.7031C13.902 44.0247 14.522 44.5326 14.8267 45.2266C14.9959 45.6032 15.0806 46.0475 15.0806 46.5596C15.0806 47.2917 15.0002 47.8947 14.8394 48.3687C14.6828 48.8426 14.4225 49.2192 14.0586 49.4985C13.6989 49.7778 13.2588 49.9725 12.7383 50.0825C12.222 50.1925 11.5682 50.2476 10.7769 50.2476C10.4891 50.2476 10.231 50.2412 10.0024 50.2285C9.77393 50.2201 9.51156 50.1968 9.21533 50.1587C8.92334 50.1206 8.6652 50.0677 8.44092 50C8.21663 49.9323 7.986 49.8371 7.74902 49.7144C7.51628 49.5916 7.3195 49.4478 7.15869 49.2827C7.00212 49.1134 6.8667 48.904 6.75244 48.6543C6.63818 48.4046 6.56624 48.1232 6.53662 47.8101C6.51123 47.5223 6.49854 47.2197 6.49854 46.9023H10.1357V48.5083H11.2339V46.9214C11.2339 46.841 11.2127 46.7712 11.1704 46.7119C11.1281 46.6484 11.0604 46.5934 10.9673 46.5469C10.8742 46.4961 10.8001 46.4601 10.7451 46.439C10.6901 46.4178 10.6034 46.3882 10.4849 46.3501C10.3452 46.3035 10.1632 46.2485 9.93896 46.1851C9.71468 46.1174 9.52425 46.0602 9.36768 46.0137C9.21533 45.9671 9.03337 45.9079 8.82178 45.8359C8.61442 45.764 8.43669 45.6963 8.28857 45.6328C8.14046 45.5651 7.97754 45.4826 7.7998 45.3853C7.6263 45.2837 7.47819 45.18 7.35547 45.0742C7.23698 44.9642 7.11637 44.8372 6.99365 44.6934C6.87093 44.5452 6.7736 44.3887 6.70166 44.2236C6.62972 44.0544 6.57048 43.8618 6.52393 43.646C6.48161 43.4302 6.46045 43.1974 6.46045 42.9478C6.46045 42.5584 6.49642 42.2051 6.56836 41.8877C6.6403 41.5703 6.73975 41.2974 6.8667 41.0688C6.99365 40.8403 7.15446 40.6414 7.34912 40.4722C7.54801 40.2987 7.75749 40.159 7.97754 40.0532C8.20182 39.9474 8.45785 39.8628 8.74561 39.7993C9.0376 39.7316 9.32747 39.6851 9.61523 39.6597C9.90723 39.6343 10.231 39.6216 10.5864 39.6216C10.9588 39.6216 11.2889 39.6322 11.5767 39.6533C11.8687 39.6702 12.1585 39.7062 12.4463 39.7612C12.7383 39.812 12.9901 39.884 13.2017 39.9771C13.4132 40.0659 13.6121 40.1823 13.7983 40.3262C13.9845 40.4701 14.1348 40.6436 14.249 40.8467C14.3633 41.0456 14.4543 41.2847 14.522 41.564C14.5897 41.8433 14.6235 42.1585 14.6235 42.5098H11.2212V41.3799H10.123V42.8589ZM24.1133 46.5786L24.1196 47.7656C24.1196 48.0153 24.0921 48.2459 24.0371 48.4575C23.9821 48.6649 23.9102 48.8468 23.8213 49.0034C23.7324 49.1558 23.6139 49.2933 23.4658 49.416C23.3219 49.5387 23.1738 49.6424 23.0215 49.7271C22.8734 49.8075 22.6935 49.8773 22.4819 49.9365C22.2746 49.9958 22.0799 50.0402 21.8979 50.0698C21.716 50.1037 21.5023 50.1291 21.2568 50.146C21.0156 50.1672 20.8019 50.1799 20.6157 50.1841C20.4338 50.1883 20.2179 50.1904 19.9683 50.1904C19.6466 50.1904 19.361 50.1841 19.1113 50.1714C18.8659 50.1629 18.5908 50.1396 18.2861 50.1016C17.9857 50.0635 17.7233 50.0106 17.499 49.9429C17.2747 49.8752 17.0505 49.7799 16.8262 49.6572C16.6019 49.5345 16.4178 49.3885 16.2739 49.2192C16.1343 49.05 16.02 48.8405 15.9312 48.5908C15.8423 48.3411 15.7979 48.0597 15.7979 47.7466V43.938C15.7979 43.6925 15.8254 43.4683 15.8804 43.2651C15.9396 43.0578 16.0158 42.88 16.1089 42.7319C16.202 42.5796 16.3247 42.4442 16.4771 42.3257C16.6294 42.2072 16.7817 42.1077 16.9341 42.0273C17.0864 41.9469 17.2684 41.8792 17.48 41.8242C17.6958 41.765 17.8947 41.7205 18.0767 41.6909C18.2629 41.6571 18.4787 41.6317 18.7241 41.6147C18.9696 41.5978 19.1833 41.5872 19.3652 41.583C19.5472 41.5788 19.7609 41.5767 20.0063 41.5767C20.3237 41.5767 20.5734 41.5788 20.7554 41.583C20.9373 41.5872 21.1912 41.6042 21.5171 41.6338C21.8472 41.6592 22.1117 41.6994 22.3105 41.7544C22.5137 41.8052 22.7422 41.8856 22.9961 41.9956C23.25 42.1014 23.4489 42.2326 23.5928 42.3892C23.7367 42.5415 23.8594 42.7383 23.9609 42.9795C24.0625 43.2165 24.1133 43.4873 24.1133 43.792V45.0044H20.4888V42.9858H19.4287V48.7368H20.4888V46.5786H24.1133ZM25.1543 50L25.1606 41.748H28.2456L28.5059 42.6812C28.6455 42.3468 28.9036 42.0824 29.2803 41.8877C29.6569 41.693 30.0949 41.5894 30.5942 41.5767V43.9761L28.7788 44.3315V50H25.1543ZM34.9487 39.1519V40.9546H31.3242V39.1519H34.9487ZM34.9487 50H31.3242V41.748H34.9487V50ZM39.7603 48.7368H40.8203V42.9858H39.7603V48.7368ZM41.7852 50.1904C41.3324 50.1904 40.9282 50.127 40.5728 50C40.2215 49.8773 39.9507 49.6932 39.7603 49.4478V52.6025H36.1357V41.748H39.2461L39.481 42.459C39.6883 42.1797 39.9972 41.9639 40.4077 41.8115C40.8224 41.6549 41.2752 41.5767 41.7661 41.5767C43.5562 41.5767 44.4512 42.4251 44.4512 44.1221V47.6831C44.4512 49.3547 43.5625 50.1904 41.7852 50.1904ZM50.6719 50.0444C50.6719 50.0444 50.6592 50.0465 50.6338 50.0508C50.6084 50.055 50.5724 50.0592 50.5259 50.0635C50.4793 50.0719 50.4243 50.0804 50.3608 50.0889C50.3016 50.0973 50.2318 50.1058 50.1514 50.1143C50.071 50.1227 49.9884 50.1291 49.9038 50.1333C49.8192 50.1418 49.7261 50.1481 49.6245 50.1523C49.5272 50.1566 49.4299 50.1587 49.3325 50.1587C48.8755 50.1587 48.484 50.146 48.1582 50.1206C47.8366 50.0952 47.534 50.0487 47.2505 49.981C46.9712 49.9132 46.7427 49.8223 46.5649 49.708C46.3872 49.5938 46.2349 49.4456 46.1079 49.2637C45.981 49.0817 45.89 48.8659 45.835 48.6162C45.7799 48.3623 45.7524 48.064 45.7524 47.7212V43.0176H44.8828V41.748H45.7524V39.8755H49.377V41.748H50.3862V43.0176H49.377V47.918C49.377 48.0492 49.4108 48.1613 49.4785 48.2544C49.5462 48.3433 49.6436 48.411 49.7705 48.4575C49.8975 48.5041 50.0308 48.5379 50.1704 48.5591C50.3143 48.576 50.4814 48.5845 50.6719 48.5845V50.0444ZM55.9404 47.1689H55.9468C55.9129 47.1309 55.8198 47.1012 55.6675 47.0801C55.5871 47.0674 55.4453 47.0483 55.2422 47.0229C55.0433 46.9976 54.8867 46.9785 54.7725 46.9658C54.6624 46.9489 54.5228 46.9277 54.3535 46.9023C54.1885 46.8727 54.0361 46.8431 53.8965 46.8135C53.7568 46.7839 53.6235 46.7521 53.4966 46.7183C53.1834 46.6336 52.8978 46.5236 52.6396 46.3882C52.3857 46.2528 52.1509 46.0877 51.9351 45.8931C51.7235 45.6984 51.5584 45.4657 51.4399 45.1948C51.3215 44.9198 51.2622 44.6172 51.2622 44.2871C51.2622 43.9613 51.3003 43.6672 51.3765 43.4048C51.4526 43.1424 51.5563 42.9181 51.6875 42.7319C51.8187 42.5457 51.9858 42.3849 52.189 42.2495C52.3963 42.1099 52.6143 41.9977 52.8428 41.9131C53.0713 41.8285 53.3358 41.7607 53.6362 41.71C53.9367 41.6592 54.2329 41.6253 54.5249 41.6084C54.8169 41.5872 55.1449 41.5767 55.5088 41.5767C55.805 41.5767 56.0589 41.5809 56.2705 41.5894C56.4863 41.5978 56.7381 41.619 57.0259 41.6528C57.3136 41.6867 57.5591 41.7354 57.7622 41.7988C57.9653 41.8581 58.1748 41.9469 58.3906 42.0654C58.6064 42.1839 58.7799 42.3236 58.9111 42.4844C59.0423 42.6452 59.1502 42.8504 59.2349 43.1001C59.3237 43.3455 59.3682 43.6227 59.3682 43.9316C59.3682 44.2236 59.366 44.4014 59.3618 44.4648L55.9404 44.2744V43.2524H54.8804V44.5347C54.9185 44.5728 55.0137 44.6045 55.166 44.6299C55.2803 44.6468 55.5046 44.6807 55.8389 44.7314C56.1732 44.778 56.4567 44.8224 56.6895 44.8647C56.9222 44.9071 57.138 44.9557 57.3369 45.0107C57.6416 45.0954 57.9188 45.2012 58.1685 45.3281C58.4224 45.4508 58.6572 45.6053 58.873 45.7915C59.0889 45.9735 59.2581 46.1978 59.3809 46.4644C59.5036 46.7267 59.5649 47.0166 59.5649 47.334C59.5649 47.6556 59.5332 47.9476 59.4697 48.21C59.4105 48.4723 59.3195 48.6987 59.1968 48.8892C59.0783 49.0796 58.9429 49.2467 58.7905 49.3906C58.6424 49.5345 58.4604 49.653 58.2446 49.7461C58.0288 49.8392 57.8172 49.9175 57.6099 49.981C57.4025 50.0402 57.1613 50.0846 56.8862 50.1143C56.6112 50.1439 56.3573 50.1629 56.1245 50.1714C55.8918 50.1841 55.6252 50.1904 55.3247 50.1904C54.9692 50.1904 54.6624 50.1841 54.4043 50.1714C54.1462 50.1587 53.8732 50.1291 53.5854 50.0825C53.2977 50.0402 53.0544 49.981 52.8555 49.9048C52.6608 49.8244 52.4683 49.7165 52.2778 49.5811C52.0874 49.4456 51.9351 49.2848 51.8208 49.0986C51.7108 48.9082 51.6219 48.6776 51.5542 48.4067C51.4865 48.1359 51.4526 47.827 51.4526 47.48C51.4526 47.3826 51.4548 47.3086 51.459 47.2578L54.8804 47.4609V48.521H55.9404V47.1689Z" fill="white"/>
<g clip-path="url(#clip0_210_1689)">
<path d="M44.9438 8.47549C44.9527 8.5073 44.9572 8.54008 44.9573 8.57303V13.6932C44.9573 13.7589 44.9394 13.8235 44.9053 13.8804C44.8713 13.9372 44.8223 13.9844 44.7634 14.0171L40.3202 16.4913V21.3954C40.3202 21.5289 40.2468 21.6521 40.1272 21.7193L30.8523 26.8834C30.8311 26.895 30.808 26.9025 30.7848 26.9104C30.7761 26.9132 30.7679 26.9184 30.7587 26.9207C30.6939 26.9372 30.6258 26.9372 30.5609 26.9207C30.5503 26.9179 30.5407 26.9123 30.5305 26.9086C30.5093 26.9011 30.4871 26.8946 30.4668 26.8834L21.194 21.7193C21.1351 21.6866 21.0861 21.6394 21.0521 21.5825C21.018 21.5257 21 21.4611 21 21.3954V6.03486C21 6.00126 21.0048 5.9686 21.0135 5.93687C21.0164 5.92613 21.0232 5.91633 21.027 5.9056C21.0343 5.886 21.041 5.86593 21.0516 5.84773C21.0589 5.8356 21.0695 5.8258 21.0782 5.8146C21.0893 5.79967 21.0994 5.78427 21.1124 5.7712C21.1235 5.76047 21.138 5.75254 21.1505 5.7432C21.1645 5.732 21.1771 5.71987 21.193 5.711L25.8302 3.12897C25.8889 3.0963 25.9554 3.0791 26.0232 3.0791C26.0909 3.0791 26.1574 3.0963 26.2161 3.12897L30.8528 5.711H30.8538C30.8692 5.72034 30.8823 5.732 30.8963 5.74274C30.9088 5.75207 30.9228 5.76047 30.9339 5.77073C30.9474 5.78427 30.957 5.79967 30.9686 5.8146C30.9768 5.8258 30.9879 5.8356 30.9947 5.84773C31.0058 5.8664 31.0121 5.886 31.0198 5.9056C31.0236 5.91633 31.0304 5.92613 31.0333 5.93733C31.0422 5.96913 31.0467 6.00192 31.0468 6.03486V15.6289L34.9105 13.4772V8.57256C34.9105 8.53989 34.9154 8.50676 34.924 8.47549C34.9274 8.46429 34.9337 8.45449 34.9376 8.44376C34.9453 8.42416 34.952 8.4041 34.9626 8.3859C34.9699 8.37376 34.9805 8.36396 34.9887 8.35276C35.0003 8.33783 35.0099 8.32243 35.0234 8.30936C35.0345 8.29863 35.0485 8.2907 35.0611 8.28136C35.0755 8.27016 35.0881 8.25803 35.1035 8.24916L39.7412 5.66714C39.7999 5.63442 39.8664 5.61719 39.9342 5.61719C40.0019 5.61719 40.0685 5.63442 40.1272 5.66714L44.7638 8.24916C44.7802 8.2585 44.7928 8.27016 44.8073 8.2809C44.8193 8.29023 44.8333 8.29863 44.8444 8.3089C44.8579 8.32243 44.8676 8.33783 44.8792 8.35276C44.8878 8.36396 44.8985 8.37376 44.9052 8.3859C44.9163 8.4041 44.9226 8.42416 44.9303 8.44376C44.9346 8.45449 44.9409 8.46429 44.9438 8.47549ZM44.1844 13.4772V9.21935L42.5618 10.1228L40.3202 11.3711V15.6289L44.1849 13.4772H44.1844ZM39.5477 21.1794V16.9188L37.3427 18.1367L31.0463 21.6124V25.9132L39.5477 21.1794ZM21.7729 6.68119V21.1794L30.2734 25.9127V21.6129L25.8326 19.1821L25.8311 19.1811L25.8292 19.1802C25.8142 19.1718 25.8017 19.1597 25.7877 19.1494C25.7756 19.1401 25.7616 19.1326 25.751 19.1223L25.7501 19.1209C25.7375 19.1093 25.7288 19.0948 25.7182 19.0817C25.7086 19.0691 25.697 19.0584 25.6893 19.0453L25.6888 19.0439C25.6801 19.0299 25.6748 19.0131 25.6685 18.9973C25.6623 18.9833 25.6541 18.9702 25.6502 18.9553C25.6454 18.9375 25.6444 18.9184 25.6425 18.9002C25.6405 18.8862 25.6367 18.8722 25.6367 18.8582V8.83296L23.3955 7.58417L21.7729 6.68119ZM26.0236 3.88403L22.1604 6.03486L26.0227 8.1857L29.8854 6.0344L26.0227 3.88403H26.0236ZM28.0327 17.307L30.2738 16.0592V6.68119L28.6513 7.58464L26.4096 8.83296V18.2109L28.0327 17.307ZM39.9342 6.42219L36.0714 8.57303L39.9342 10.7239L43.7965 8.57256L39.9342 6.42219ZM39.5477 11.3711L37.3061 10.1228L35.6835 9.21935V13.4772L37.9246 14.725L39.5477 15.6289V11.3711ZM30.6594 20.9661L36.3252 17.8376L39.1574 16.2743L35.2975 14.1249L30.8533 16.5996L26.8029 18.8549L30.6594 20.9661Z" fill="white"/>
</g>
<defs>
<clipPath id="clip0_210_1689">
<rect width="24" height="24" fill="white" transform="translate(21 3)"/>
</clipPath>
</defs>
</svg>
