<svg width="60" height="60" viewBox="0 0 60 60" fill="none" xmlns="http://www.w3.org/2000/svg">
<g clip-path="url(#clip0_220_6318)">
<path d="M33.1251 53.917H27.0223L25.9492 54.8868V56.4521C25.9492 58.4118 27.5378 60.0004 29.4977 60.0004H30.505C32.4647 60.0004 34.0534 58.4117 34.0534 56.4521V54.8868L33.1251 53.917Z" fill="#323FD4"/>
<path d="M31.4189 47.7295H25.2417L24.1953 48.6384V52.8963C24.1953 54.0052 25.0944 54.9043 26.2033 54.9043H32.4508L31.4189 47.7295Z" fill="#323FD4"/>
<path d="M34.8143 47.7295H31.6789L30.4414 48.6839V52.8962C30.4414 54.0051 31.3402 54.9041 32.4491 54.9042H33.7979C34.9068 54.9042 35.8059 54.0051 35.8059 52.8962V48.6383L34.8143 47.7295Z" fill="#0087FF"/>
<path d="M30.9914 48.6838H24.7182C23.0196 48.6838 21.6424 47.3068 21.6424 45.608V43.2849C21.6424 41.9325 21.0699 40.6338 20.0428 39.754C16.7025 36.8929 14.5811 32.6495 14.5665 27.9099C14.54 19.372 21.4621 12.3248 29.9994 12.2061C30.966 12.2195 31.9293 12.3232 32.8767 12.5157L34.8138 14.6642V45.1942L30.9914 48.6838Z" fill="#FBC700"/>
<path d="M32.8782 12.5156C27.2613 13.9691 23.0129 20.3554 23.0313 27.91C23.0369 30.2052 23.4308 32.3832 24.1323 34.3451H25.9489V37.9907C26.3708 38.6237 26.8313 39.2136 27.3262 39.754C28.1318 40.6337 28.5807 41.9325 28.5807 43.2848V45.608C28.5807 47.3067 29.6607 48.6838 30.9929 48.6838H35.2821C36.9808 48.6838 38.3579 47.3067 38.3579 45.608V43.2848C38.3579 41.9325 38.9305 40.6337 39.9575 39.754C43.2978 36.8929 45.4192 32.6495 45.4338 27.9098C45.4572 20.3554 40.0403 13.9691 32.8782 12.5156Z" fill="#FFE02F"/>
<path d="M26.3299 23.9666C26.0898 23.9666 25.8595 23.8712 25.6897 23.7014C25.5199 23.5316 25.4245 23.3013 25.4245 23.0612V18.7814C25.4245 18.5412 25.5199 18.311 25.6897 18.1412C25.8595 17.9714 26.0898 17.876 26.3299 17.876C26.57 17.876 26.8003 17.9714 26.9701 18.1412C27.1399 18.311 27.2353 18.5412 27.2353 18.7814V23.0612C27.2352 23.3013 27.1398 23.5316 26.9701 23.7013C26.8003 23.8711 26.57 23.9665 26.3299 23.9666ZM30.0002 23.9666C29.7601 23.9666 29.5298 23.8712 29.36 23.7014C29.1902 23.5316 29.0948 23.3013 29.0948 23.0612V18.7814C29.0948 18.5412 29.1902 18.311 29.36 18.1412C29.5298 17.9714 29.7601 17.876 30.0002 17.876C30.2403 17.876 30.4706 17.9714 30.6404 18.1412C30.8102 18.311 30.9056 18.5412 30.9056 18.7814V23.0612C30.9056 23.3013 30.8102 23.5316 30.6404 23.7014C30.4706 23.8712 30.2403 23.9666 30.0002 23.9666ZM33.6705 23.9666C33.4304 23.9666 33.2001 23.8712 33.0303 23.7014C32.8605 23.5316 32.7651 23.3013 32.7651 23.0612V18.7814C32.7651 18.5412 32.8605 18.311 33.0303 18.1412C33.2001 17.9714 33.4304 17.876 33.6705 17.876C33.9106 17.876 34.1409 17.9714 34.3107 18.1412C34.4805 18.311 34.5759 18.5412 34.5759 18.7814V23.0612C34.5759 23.3013 34.4805 23.5316 34.3107 23.7013C34.1409 23.8711 33.9106 23.9665 33.6705 23.9666ZM26.3299 39.7515C26.0898 39.7515 25.8595 39.6561 25.6897 39.4863C25.5199 39.3165 25.4245 39.0862 25.4245 38.8461V34.8922C25.4245 34.6521 25.5199 34.4218 25.6897 34.252C25.8595 34.0822 26.0898 33.9868 26.3299 33.9868C26.57 33.9868 26.8003 34.0822 26.9701 34.252C27.1399 34.4218 27.2353 34.6521 27.2353 34.8922V38.8461C27.2353 39.0862 27.1399 39.3165 26.9701 39.4863C26.8003 39.6561 26.57 39.7515 26.3299 39.7515ZM30.0002 39.7515C29.7601 39.7515 29.5298 39.6561 29.36 39.4863C29.1902 39.3165 29.0948 39.0862 29.0948 38.8461V34.8922C29.0948 34.6521 29.1902 34.4218 29.36 34.252C29.5298 34.0822 29.7601 33.9868 30.0002 33.9868C30.2403 33.9868 30.4706 34.0822 30.6404 34.252C30.8102 34.4218 30.9056 34.6521 30.9056 34.8922V38.8461C30.9056 38.965 30.8822 39.0827 30.8367 39.1926C30.7912 39.3024 30.7245 39.4023 30.6404 39.4863C30.5564 39.5704 30.4565 39.6371 30.3467 39.6826C30.2368 39.7281 30.1191 39.7515 30.0002 39.7515ZM33.6705 39.7515C33.4304 39.7515 33.2001 39.6561 33.0303 39.4863C32.8605 39.3165 32.7651 39.0862 32.7651 38.8461V34.8922C32.7651 34.6521 32.8605 34.4218 33.0303 34.252C33.2001 34.0822 33.4304 33.9868 33.6705 33.9868C33.9106 33.9868 34.1409 34.0822 34.3107 34.252C34.4805 34.4218 34.5759 34.6521 34.5759 34.8922V38.8461C34.5759 39.0862 34.4805 39.3165 34.3107 39.4863C34.1409 39.6561 33.9106 39.7515 33.6705 39.7515ZM24.0937 33.3895H19.9679C19.7278 33.3895 19.4975 33.2941 19.3277 33.1243C19.1579 32.9545 19.0625 32.7242 19.0625 32.4841C19.0625 32.244 19.1579 32.0137 19.3277 31.8439C19.4975 31.6741 19.7278 31.5787 19.9679 31.5787H24.0937C24.3338 31.5787 24.5641 31.6741 24.7339 31.8439C24.9037 32.0137 24.9991 32.244 24.9991 32.4841C24.9991 32.7242 24.9037 32.9545 24.7339 33.1243C24.5641 33.2941 24.3338 33.3895 24.0937 33.3895ZM24.0937 29.7192H19.9679C19.7278 29.7192 19.4975 29.6238 19.3277 29.454C19.1579 29.2842 19.0625 29.0539 19.0625 28.8138C19.0625 28.5737 19.1579 28.3434 19.3277 28.1736C19.4975 28.0038 19.7278 27.9084 19.9679 27.9084H24.0937C24.3338 27.9084 24.5641 28.0038 24.7339 28.1736C24.9037 28.3434 24.9991 28.5737 24.9991 28.8138C24.9991 29.0539 24.9037 29.2842 24.7339 29.454C24.5641 29.6238 24.3338 29.7192 24.0937 29.7192ZM24.0937 26.0489H19.9679C19.7278 26.0489 19.4975 25.9535 19.3277 25.7837C19.1579 25.6139 19.0625 25.3836 19.0625 25.1435C19.0625 24.9034 19.1579 24.6731 19.3277 24.5033C19.4975 24.3335 19.7278 24.2381 19.9679 24.2381H24.0937C24.3338 24.2381 24.5641 24.3335 24.7339 24.5033C24.9037 24.6731 24.9991 24.9034 24.9991 25.1435C24.9991 25.3836 24.9037 25.6139 24.7339 25.7837C24.5641 25.9535 24.3338 26.0489 24.0937 26.0489ZM40.0326 33.3894H36.2064C35.9663 33.3894 35.736 33.294 35.5662 33.1242C35.3964 32.9544 35.3011 32.7241 35.3011 32.484C35.3011 32.2439 35.3964 32.0136 35.5662 31.8438C35.736 31.674 35.9663 31.5786 36.2064 31.5786H40.0326C40.2727 31.5786 40.503 31.674 40.6728 31.8438C40.8426 32.0136 40.938 32.2439 40.938 32.484C40.938 32.7241 40.8426 32.9544 40.6728 33.1242C40.503 33.294 40.2727 33.3894 40.0326 33.3894ZM40.0326 29.7192H36.2064C35.9663 29.7192 35.736 29.6238 35.5662 29.454C35.3964 29.2842 35.3011 29.0539 35.3011 28.8138C35.3011 28.5737 35.3964 28.3434 35.5662 28.1736C35.736 28.0038 35.9663 27.9084 36.2064 27.9084H40.0326C40.2727 27.9084 40.503 28.0038 40.6728 28.1736C40.8426 28.3434 40.938 28.5737 40.938 28.8138C40.938 29.0539 40.8426 29.2842 40.6728 29.454C40.503 29.6238 40.2727 29.7192 40.0326 29.7192ZM40.0326 26.0489H36.2064C35.9663 26.0489 35.736 25.9535 35.5662 25.7837C35.3964 25.6139 35.3011 25.3836 35.3011 25.1435C35.3011 24.9034 35.3964 24.6731 35.5662 24.5033C35.736 24.3335 35.9663 24.2381 36.2064 24.2381H40.0326C40.2727 24.2381 40.503 24.3335 40.6728 24.5033C40.8426 24.6731 40.938 24.9034 40.938 25.1435C40.938 25.3836 40.8426 25.6139 40.6728 25.7837C40.503 25.9535 40.2727 26.0489 40.0326 26.0489Z" fill="#0087FF"/>
<path d="M42.1456 14.0073C41.9055 14.0073 41.6752 13.9119 41.5054 13.7421C41.3356 13.5723 41.2402 13.342 41.2402 13.1019V10.2332C41.2402 9.99304 41.3356 9.76275 41.5054 9.59296C41.6752 9.42316 41.9055 9.32777 42.1456 9.32777H48.8139V3.50402C48.8139 3.2639 48.9093 3.03361 49.0791 2.86382C49.2489 2.69402 49.4792 2.59863 49.7193 2.59863C49.9595 2.59863 50.1898 2.69402 50.3595 2.86382C50.5293 3.03361 50.6247 3.2639 50.6247 3.50402V10.2332C50.6247 10.4733 50.5293 10.7036 50.3595 10.8734C50.1898 11.0432 49.9595 11.1386 49.7193 11.1386H43.051V13.1018C43.051 13.2207 43.0276 13.3385 42.9821 13.4483C42.9366 13.5582 42.87 13.658 42.7859 13.7421C42.7018 13.8262 42.602 13.8929 42.4921 13.9384C42.3823 13.9839 42.2645 14.0073 42.1456 14.0073ZM17.8506 14.0073C17.6104 14.0073 17.3801 13.9119 17.2103 13.7421C17.0406 13.5723 16.9452 13.342 16.9452 13.1019V11.1386H10.2767C10.0366 11.1386 9.80631 11.0432 9.63652 10.8734C9.46672 10.7036 9.37133 10.4733 9.37133 10.2332V3.50402C9.37133 3.2639 9.46672 3.03361 9.63652 2.86382C9.80631 2.69402 10.0366 2.59863 10.2767 2.59863C10.5168 2.59863 10.7471 2.69402 10.9169 2.86382C11.0867 3.03361 11.1821 3.2639 11.1821 3.50402V9.32766H17.8504C18.0906 9.32766 18.3208 9.42305 18.4906 9.59284C18.6604 9.76263 18.7558 9.99292 18.7558 10.233V13.1018C18.7559 13.2207 18.7325 13.3384 18.687 13.4483C18.6415 13.5582 18.5748 13.658 18.4908 13.7421C18.4067 13.8262 18.3069 13.8929 18.197 13.9384C18.0872 13.9839 17.9695 14.0073 17.8506 14.0073ZM24.2783 10.2949C24.0382 10.2949 23.8079 10.1995 23.6381 10.0297C23.4683 9.85995 23.3729 9.62966 23.3729 9.38953V3.50402C23.3729 3.2639 23.4683 3.03361 23.6381 2.86382C23.8079 2.69402 24.0382 2.59863 24.2783 2.59863C24.5184 2.59863 24.7487 2.69402 24.9185 2.86382C25.0883 3.03361 25.1837 3.2639 25.1837 3.50402V9.38953C25.1837 9.62966 25.0883 9.85995 24.9185 10.0297C24.7487 10.1995 24.5184 10.2949 24.2783 10.2949ZM35.7179 10.2949C35.4778 10.2949 35.2475 10.1995 35.0777 10.0297C34.9079 9.85995 34.8125 9.62966 34.8125 9.38953V3.50402C34.8125 3.2639 34.9079 3.03361 35.0777 2.86382C35.2475 2.69402 35.4778 2.59863 35.7179 2.59863C35.958 2.59863 36.1883 2.69402 36.3581 2.86382C36.5279 3.03361 36.6233 3.2639 36.6233 3.50402V9.38953C36.6233 9.50843 36.5999 9.62617 36.5544 9.73603C36.5089 9.84588 36.4422 9.9457 36.3581 10.0298C36.2741 10.1139 36.1742 10.1805 36.0644 10.226C35.9545 10.2715 35.8368 10.2949 35.7179 10.2949ZM51.4231 19.6873H47.2355C46.9954 19.6873 46.7651 19.5919 46.5953 19.4221C46.4255 19.2523 46.3302 19.022 46.3302 18.7819C46.3302 18.5418 46.4255 18.3115 46.5953 18.1417C46.7651 17.9719 46.9954 17.8765 47.2355 17.8765H51.0188L55.8404 12.4977C55.9197 12.4091 56.0158 12.3371 56.123 12.2857C56.2302 12.2342 56.3465 12.2044 56.4652 12.1979C56.5839 12.1914 56.7027 12.2084 56.8149 12.2479C56.9271 12.2873 57.0304 12.3485 57.1189 12.4279C57.2075 12.5072 57.2795 12.6032 57.3309 12.7104C57.3824 12.8176 57.4122 12.9339 57.4187 13.0526C57.4252 13.1714 57.4082 13.2902 57.3687 13.4024C57.3293 13.5145 57.2681 13.6178 57.1888 13.7064L52.0973 19.3863C52.0123 19.481 51.9084 19.5567 51.7922 19.6086C51.6761 19.6604 51.5503 19.6872 51.4231 19.6873ZM12.7606 19.6873H8.57305C8.44583 19.6873 8.32004 19.6605 8.20387 19.6086C8.08771 19.5567 7.98378 19.481 7.89887 19.3862L2.80743 13.7063C2.72805 13.6177 2.66689 13.5144 2.62744 13.4023C2.58799 13.2901 2.57102 13.1713 2.57751 13.0525C2.584 12.9338 2.61381 12.8175 2.66524 12.7103C2.71667 12.6031 2.78872 12.5071 2.87727 12.4277C2.96579 12.3483 3.06909 12.2872 3.18126 12.2477C3.29342 12.2083 3.41227 12.1913 3.531 12.1978C3.64973 12.2043 3.76602 12.2341 3.87322 12.2855C3.98042 12.337 4.07644 12.409 4.15579 12.4976L8.97735 17.8764H12.7606C13.0008 17.8764 13.231 17.9718 13.4008 18.1416C13.5706 18.3113 13.666 18.5416 13.666 18.7818C13.666 18.9007 13.6426 19.0184 13.5971 19.1283C13.5516 19.2381 13.485 19.338 13.4009 19.422C13.3168 19.5061 13.217 19.5728 13.1071 19.6183C12.9973 19.6638 12.8795 19.6873 12.7606 19.6873ZM3.24887 33.5469C3.07403 33.5468 2.90294 33.4962 2.75628 33.401C2.60962 33.3058 2.49365 33.1702 2.42239 33.0105C2.35112 32.8508 2.3276 32.674 2.35467 32.5012C2.38174 32.3285 2.45824 32.1673 2.57493 32.0371L7.89887 26.0978C7.98378 26.003 8.08771 25.9273 8.20387 25.8754C8.32004 25.8235 8.44583 25.7967 8.57305 25.7967H11.2773C11.3962 25.7967 11.5139 25.8201 11.6237 25.8656C11.7336 25.9111 11.8334 25.9778 11.9175 26.0619C12.0016 26.146 12.0682 26.2458 12.1137 26.3556C12.1592 26.4655 12.1827 26.5832 12.1827 26.7021C12.1827 26.821 12.1592 26.9387 12.1137 27.0486C12.0682 27.1584 12.0016 27.2582 11.9175 27.3423C11.8334 27.4264 11.7336 27.4931 11.6237 27.5386C11.5139 27.5841 11.3962 27.6075 11.2773 27.6075H8.97747L3.92352 33.2456C3.83867 33.3406 3.73469 33.4165 3.61842 33.4684C3.50215 33.5204 3.37621 33.5471 3.24887 33.5469ZM10.2767 46.5871C10.0366 46.5871 9.80631 46.4917 9.63652 46.3219C9.46672 46.1521 9.37133 45.9218 9.37133 45.6817V35.2511C9.37133 35.0109 9.46672 34.7806 9.63652 34.6108C9.80631 34.4411 10.0366 34.3457 10.2767 34.3457H12.7606C13.0008 34.3457 13.231 34.4411 13.4008 34.6108C13.5706 34.7806 13.666 35.0109 13.666 35.2511C13.666 35.4912 13.5706 35.7215 13.4008 35.8913C13.231 36.0611 13.0008 36.1564 12.7606 36.1564H11.1821V45.6817C11.1821 45.8006 11.1587 45.9183 11.1132 46.0282C11.0677 46.138 11.001 46.2378 10.917 46.3219C10.8329 46.406 10.7331 46.4727 10.6232 46.5182C10.5134 46.5637 10.3956 46.5871 10.2767 46.5871ZM56.5148 33.2876C56.3875 33.2878 56.2616 33.261 56.1454 33.2091C56.0291 33.1573 55.9251 33.0814 55.8403 32.9865L51.0187 27.6077H48.7189C48.4788 27.6077 48.2485 27.5123 48.0787 27.3426C47.9089 27.1728 47.8135 26.9425 47.8135 26.7023C47.8135 26.4622 47.9089 26.2319 48.0787 26.0621C48.2485 25.8923 48.4788 25.797 48.7189 25.797H51.4231C51.6805 25.797 51.9256 25.9064 52.0973 26.098L57.1888 31.7779C57.3055 31.908 57.3821 32.0692 57.4092 32.242C57.4363 32.4147 57.4128 32.5916 57.3415 32.7513C57.2702 32.911 57.1542 33.0466 57.0075 33.1418C56.8608 33.237 56.6897 33.2876 56.5148 33.2876ZM49.7195 46.5871C49.4793 46.5871 49.249 46.4917 49.0792 46.3219C48.9095 46.1521 48.8141 45.9218 48.8141 45.6817V36.1563H47.2355C46.9954 36.1563 46.7651 36.0609 46.5953 35.8912C46.4255 35.7214 46.3302 35.4911 46.3302 35.2509C46.3302 35.0108 46.4255 34.7805 46.5953 34.6107C46.7651 34.4409 46.9954 34.3456 47.2355 34.3456H49.7195C49.9596 34.3456 50.1899 34.4409 50.3597 34.6107C50.5295 34.7805 50.6248 35.0108 50.6248 35.2509V45.6816C50.6248 45.9217 50.5295 46.152 50.3597 46.3218C50.1899 46.4916 49.9596 46.587 49.7195 46.5871Z" fill="#0087FF"/>
<path d="M35.067 21.9453H24.7329C23.797 21.9453 23.0312 22.7111 23.0312 23.647V33.9811C23.0312 34.917 23.7971 35.6827 24.7329 35.6827H35.067C36.003 35.6827 36.7687 34.9169 36.7687 33.9811V23.647C36.7687 22.711 36.003 21.9453 35.067 21.9453Z" fill="#323FD4"/>
<path d="M29.8991 31.8618C31.5823 31.8618 32.9467 30.4973 32.9467 28.8142C32.9467 27.131 31.5823 25.7666 29.8991 25.7666C28.216 25.7666 26.8516 27.131 26.8516 28.8142C26.8516 30.4973 28.216 31.8618 29.8991 31.8618Z" fill="#8896E0"/>
<path d="M57.5152 14.6641C58.887 14.6641 59.9991 13.552 59.9991 12.1802C59.9991 10.8084 58.887 9.69629 57.5152 9.69629C56.1433 9.69629 55.0312 10.8084 55.0312 12.1802C55.0312 13.552 56.1433 14.6641 57.5152 14.6641Z" fill="#323FD4"/>
<path d="M49.7222 4.96781C51.094 4.96781 52.2061 3.85573 52.2061 2.48391C52.2061 1.11208 51.094 0 49.7222 0C48.3504 0 47.2383 1.11208 47.2383 2.48391C47.2383 3.85573 48.3504 4.96781 49.7222 4.96781Z" fill="#323FD4"/>
<path d="M2.48391 14.6641C3.85573 14.6641 4.96781 13.552 4.96781 12.1802C4.96781 10.8084 3.85573 9.69629 2.48391 9.69629C1.11208 9.69629 0 10.8084 0 12.1802C0 13.552 1.11208 14.6641 2.48391 14.6641Z" fill="#323FD4"/>
<path d="M10.2769 4.96781C11.6487 4.96781 12.7608 3.85573 12.7608 2.48391C12.7608 1.11208 11.6487 0 10.2769 0C8.90505 0 7.79297 1.11208 7.79297 2.48391C7.79297 3.85573 8.90505 4.96781 10.2769 4.96781Z" fill="#323FD4"/>
<path d="M24.2808 4.96781C25.6526 4.96781 26.7647 3.85573 26.7647 2.48391C26.7647 1.11208 25.6526 0 24.2808 0C22.909 0 21.7969 1.11208 21.7969 2.48391C21.7969 3.85573 22.909 4.96781 24.2808 4.96781Z" fill="#323FD4"/>
<path d="M35.7183 4.96781C37.0901 4.96781 38.2022 3.85573 38.2022 2.48391C38.2022 1.11208 37.0901 0 35.7183 0C34.3465 0 33.2344 1.11208 33.2344 2.48391C33.2344 3.85573 34.3465 4.96781 35.7183 4.96781Z" fill="#323FD4"/>
<path d="M2.48391 35.7871C3.85573 35.7871 4.96781 34.6751 4.96781 33.3032C4.96781 31.9314 3.85573 30.8193 2.48391 30.8193C1.11208 30.8193 0 31.9314 0 33.3032C0 34.6751 1.11208 35.7871 2.48391 35.7871Z" fill="#323FD4"/>
<path d="M10.2769 48.6563C11.6487 48.6563 12.7608 47.5442 12.7608 46.1724C12.7608 44.8006 11.6487 43.6885 10.2769 43.6885C8.90505 43.6885 7.79297 44.8006 7.79297 46.1724C7.79297 47.5442 8.90505 48.6563 10.2769 48.6563Z" fill="#323FD4"/>
<path d="M57.5152 35.7871C58.887 35.7871 59.9991 34.6751 59.9991 33.3032C59.9991 31.9314 58.887 30.8193 57.5152 30.8193C56.1433 30.8193 55.0312 31.9314 55.0312 33.3032C55.0312 34.6751 56.1433 35.7871 57.5152 35.7871Z" fill="#323FD4"/>
<path d="M49.7222 48.6563C51.094 48.6563 52.2061 47.5442 52.2061 46.1724C52.2061 44.8006 51.094 43.6885 49.7222 43.6885C48.3504 43.6885 47.2383 44.8006 47.2383 46.1724C47.2383 47.5442 48.3504 48.6563 49.7222 48.6563Z" fill="#323FD4"/>
</g>
<defs>
<clipPath id="clip0_220_6318">
<rect width="60" height="60" fill="white"/>
</clipPath>
</defs>
</svg>
