<svg width="60" height="60" viewBox="0 0 60 60" fill="none" xmlns="http://www.w3.org/2000/svg">
<g clip-path="url(#clip0_208_1438)">
<path d="M33.75 4.68848C40.897 4.68848 35.9752 7.55861 42.1513 10.1701C48.3275 12.778 47.0979 7.4594 51.8 12.2252C56.5056 16.984 51.1834 15.6694 53.6957 21.8632C56.2115 28.0535 59.117 23.4259 59.0603 30.0024C59.1206 36.5753 56.2115 31.9477 53.6957 38.1415C51.1799 44.3318 56.5056 43.0172 51.8 47.7795C47.0979 52.5453 48.3275 47.2232 42.1513 49.8346C35.9752 52.4461 40.897 55.3127 33.75 55.3127V4.68848Z" fill="#FDB43A"/>
<path d="M33.75 4.68848V5.36172C35.1992 6.36095 34.0406 8.32752 38.4025 10.1701C41.0246 11.2756 42.2966 10.9532 43.2675 10.5811C42.8891 10.4621 42.5166 10.325 42.1513 10.1701C35.9752 7.55861 40.897 4.68848 33.75 4.68848ZM48.7243 10.163C47.9235 10.085 47.3318 10.5421 46.3999 10.7831C46.8605 11.102 47.392 11.5555 48.0511 12.2217C52.7531 16.984 47.4345 15.6694 49.9468 21.8597C52.4626 28.0535 55.3681 23.4259 55.3115 30.0024C55.3681 36.5753 52.4626 31.9477 49.9468 38.1415C47.431 44.3318 52.7531 43.0172 48.0511 47.7795C47.5457 48.3084 46.993 48.7899 46.3999 49.2181C48.1715 49.6787 48.696 50.926 51.8 47.7795C56.5056 43.0172 51.1834 44.3318 53.6992 38.1415C56.215 31.9477 59.1206 36.5753 59.0603 30.0024C59.117 23.4259 56.2115 28.0535 53.6992 21.8632C51.1834 15.6694 56.5056 16.984 51.8 12.2217C50.3295 10.7335 49.4401 10.2303 48.7243 10.163ZM41.8537 49.0764C41.0281 49.0197 39.9438 49.1791 38.4025 49.8311C34.0441 51.6737 35.1992 53.6402 33.75 54.6395V55.3127C40.897 55.3127 35.9752 52.439 42.1478 49.8311C42.5553 49.661 42.9238 49.5264 43.2675 49.4165C42.817 49.2297 42.3399 49.1149 41.8537 49.0764Z" fill="#E89A19"/>
<path d="M33.7492 56.2655C33.7464 56.7605 33.6458 57.2502 33.4531 57.7062C33.2605 58.1622 32.9796 58.5757 32.6265 58.9227C32.2735 59.2698 31.8554 59.5437 31.3962 59.7286C30.9369 59.9135 30.4457 60.0058 29.9507 60.0002H4.73246C4.23802 60.0053 3.74744 59.9128 3.28886 59.7279C2.83027 59.543 2.41271 59.2694 2.06012 58.9227C1.70754 58.5761 1.42687 58.1632 1.23422 57.7078C1.04157 57.2524 0.940739 56.7635 0.9375 56.269V3.73847C0.939808 3.24342 1.03996 2.75371 1.23219 2.29751C1.42442 1.8413 1.70494 1.4276 2.05762 1.08019C2.4103 0.732779 2.82818 0.458516 3.28723 0.273172C3.74627 0.087828 4.23743 -0.00494003 4.73246 0.000202686H29.9507C32.0554 0.000202686 33.7492 1.66559 33.7492 3.73847V56.2655Z" fill="#006DF0"/>
<path d="M30.5053 0.0537109C32.7908 25.3144 11.5164 55.1745 1.14844 57.4493C1.6516 58.9305 3.05477 60.0006 4.73433 60.0006H29.9525C32.0573 60.0006 33.751 58.3352 33.751 56.2658V3.73882C33.751 1.85375 32.3443 0.315921 30.5053 0.0537109Z" fill="#0860CA"/>
<path d="M2.8125 52.5029V5.62402H31.8753V52.5029H2.8125Z" fill="#3993FF"/>
<path d="M30.4686 5.62402C29.3701 32.3411 11.2705 47.2445 2.8125 50.6249V54.3773H31.8753V5.62402H30.4686Z" fill="#005ECE"/>
<path d="M47.8109 30.0021C47.8109 31.849 47.4472 33.6778 46.7404 35.3841C46.0336 37.0904 44.9977 38.6407 43.6918 39.9467C42.3858 41.2526 40.8355 42.2885 39.1292 42.9953C37.4229 43.702 35.5941 44.0658 33.7473 44.0658C31.9004 44.0658 30.0716 43.702 28.3653 42.9953C26.659 42.2885 25.1087 41.2526 23.8027 39.9467C22.4968 38.6407 21.4609 37.0904 20.7541 35.3841C20.0474 33.6778 19.6836 31.849 19.6836 30.0021C19.6836 26.2722 21.1653 22.6951 23.8027 20.0576C26.4402 17.4202 30.0173 15.9385 33.7473 15.9385C37.4772 15.9385 41.0543 17.4202 43.6918 20.0576C46.3292 22.6951 47.8109 26.2722 47.8109 30.0021Z" fill="#E4EFF8"/>
<path d="M33.7477 15.9385C30.8526 15.9416 28.0291 16.8381 25.6625 18.5056C23.2959 20.1731 21.5016 22.5303 20.5245 25.2554C19.5474 27.9806 19.4351 30.9409 20.2029 33.7323C20.9708 36.5236 22.5814 39.01 24.8148 40.852C22.7159 38.3314 21.5641 35.1566 21.5585 31.8766C21.5602 29.2121 22.3187 26.6029 23.7459 24.3529C25.173 22.1028 27.21 20.3045 29.6196 19.1672C32.0292 18.03 34.7123 17.6007 37.3565 17.9293C40.0006 18.2578 42.497 19.3308 44.555 21.0232C43.2371 19.4345 41.5857 18.1554 39.7179 17.2766C37.8501 16.3978 35.8118 15.941 33.7477 15.9385Z" fill="#C4DCF0"/>
<path d="M29.0379 24.3685C28.7955 24.3767 28.5657 24.4782 28.3966 24.652L23.7051 29.3363C23.6178 29.4235 23.5485 29.5271 23.5013 29.6411C23.454 29.7551 23.4297 29.8773 23.4297 30.0007C23.4297 30.1241 23.454 30.2463 23.5013 30.3603C23.5485 30.4743 23.6178 30.5779 23.7051 30.6651L28.393 35.353C29.2789 36.2388 30.6076 34.9101 29.7218 34.0242L25.6965 30.0025L29.7253 25.9737C29.8589 25.8411 29.9496 25.6714 29.9856 25.4866C30.0216 25.3019 30.0012 25.1105 29.9271 24.9375C29.853 24.7645 29.7286 24.6177 29.57 24.5162C29.4115 24.4148 29.2261 24.3633 29.0379 24.3685Z" fill="#C4DCF0"/>
<path d="M28.1047 24.3684C27.8611 24.3756 27.6298 24.4773 27.4598 24.6519L22.7754 29.3362C22.6881 29.4235 22.6189 29.527 22.5716 29.641C22.5243 29.755 22.5 29.8772 22.5 30.0006C22.5 30.124 22.5243 30.2462 22.5716 30.3602C22.6189 30.4742 22.6881 30.5778 22.7754 30.665L27.4598 35.3529C28.3456 36.2387 29.6744 34.91 28.7886 34.0241L24.7597 30.0024L28.7886 25.9736C28.9219 25.8412 29.0125 25.6718 29.0486 25.4874C29.0846 25.303 29.0646 25.112 28.9909 24.9391C28.9172 24.7662 28.7934 24.6194 28.6354 24.5177C28.4774 24.4159 28.2925 24.364 28.1047 24.3684Z" fill="#FFCA28"/>
<path d="M40.2076 24.3679C40.0299 24.3857 39.861 24.4538 39.7206 24.5642C39.5803 24.6746 39.4743 24.8227 39.4152 24.9912C39.3561 25.1597 39.3462 25.3416 39.3868 25.5155C39.4273 25.6894 39.5166 25.8481 39.6442 25.973L43.6659 30.0019L39.6442 34.0236C38.7016 34.9023 40.0836 36.2914 40.9659 35.3524L45.6608 30.6645C45.7481 30.5773 45.8174 30.4737 45.8647 30.3597C45.9119 30.2457 45.9363 30.1235 45.9363 30.0001C45.9363 29.8767 45.9119 29.7545 45.8647 29.6405C45.8174 29.5265 45.7481 29.4229 45.6608 29.3357L40.9659 24.6514C40.8686 24.5505 40.75 24.4728 40.6188 24.4237C40.4876 24.3747 40.3471 24.3556 40.2076 24.3679Z" fill="#C4DCF0"/>
<path d="M39.2748 24.3682C39.0974 24.3866 38.9289 24.4551 38.7891 24.5657C38.6492 24.6764 38.5438 24.8245 38.485 24.9929C38.4263 25.1613 38.4167 25.3429 38.4575 25.5166C38.4982 25.6902 38.5875 25.8486 38.7149 25.9733L42.7367 30.0021L38.7149 34.0239C37.7724 34.9026 39.1508 36.2916 40.0366 35.3526L44.7281 30.6648C44.8154 30.5776 44.8846 30.474 44.9319 30.36C44.9792 30.246 45.0035 30.1238 45.0035 30.0004C45.0035 29.877 44.9792 29.7548 44.9319 29.6408C44.8846 29.5268 44.8154 29.4232 44.7281 29.336L40.0402 24.6516C39.9425 24.5503 39.8234 24.4723 39.6915 24.4232C39.5597 24.3741 39.4185 24.3553 39.2783 24.3682H39.2748Z" fill="#FFCA28"/>
<path d="M36.5305 24.3614C36.3464 24.368 36.1682 24.4286 36.0183 24.5358C35.8683 24.6429 35.7532 24.7917 35.6872 24.9638L31.9383 34.336C31.4706 35.5018 33.2139 36.1999 33.6817 35.0376L37.4306 25.6583C37.4912 25.5133 37.5144 25.3553 37.498 25.199C37.4817 25.0426 37.4264 24.8929 37.3372 24.7635C37.248 24.634 37.1277 24.5291 36.9874 24.4582C36.8471 24.3874 36.6912 24.3529 36.5341 24.3579L36.5305 24.3614Z" fill="#C4DCF0"/>
<path d="M35.5995 24.3616C35.4154 24.3681 35.2372 24.4288 35.0872 24.5359C34.9373 24.643 34.8222 24.7919 34.7562 24.9639L31.0038 34.3362C30.5396 35.5019 32.2794 36.2 32.7471 35.0378L36.4995 25.6584C36.5603 25.5131 36.5835 25.3548 36.567 25.1982C36.5505 25.0415 36.4949 24.8916 36.4053 24.762C36.3156 24.6325 36.1948 24.5276 36.054 24.457C35.9132 24.3864 35.7569 24.3559 35.5995 24.3616Z" fill="#FFCA28"/>
<path d="M5.61868 12.1901C5.38008 12.2047 5.15605 12.3099 4.99229 12.484C4.82852 12.6582 4.73734 12.8882 4.73734 13.1273C4.73734 13.3663 4.82852 13.5964 4.99229 13.7706C5.15605 13.9447 5.38008 14.0498 5.61868 14.0645H7.49667C7.74571 14.0645 7.98455 13.9656 8.16064 13.7895C8.33674 13.6134 8.43567 13.3746 8.43567 13.1255C8.43567 12.8765 8.33674 12.6376 8.16064 12.4615C7.98455 12.2855 7.74571 12.1865 7.49667 12.1865L5.61868 12.1901ZM11.2456 12.1901C11.007 12.2047 10.7829 12.3099 10.6192 12.484C10.4554 12.6582 10.3642 12.8882 10.3642 13.1273C10.3642 13.3663 10.4554 13.5964 10.6192 13.7706C10.7829 13.9447 11.007 14.0498 11.2456 14.0645H13.1236C13.3726 14.0645 13.6114 13.9656 13.7875 13.7895C13.9636 13.6134 14.0625 13.3746 14.0625 13.1255C14.0625 12.8765 13.9636 12.6376 13.7875 12.4615C13.6114 12.2855 13.3726 12.1865 13.1236 12.1865L11.2456 12.1901ZM16.8724 12.1901C16.7445 12.1822 16.6163 12.2006 16.4958 12.2441C16.3753 12.2877 16.2649 12.3554 16.1715 12.4432C16.0782 12.531 16.0038 12.637 15.9529 12.7547C15.902 12.8723 15.8758 12.9991 15.8758 13.1273C15.8758 13.2555 15.902 13.3823 15.9529 13.4999C16.0038 13.6176 16.0782 13.7235 16.1715 13.8113C16.2649 13.8991 16.3753 13.9669 16.4958 14.0104C16.6163 14.054 16.7445 14.0724 16.8724 14.0645H18.7504C18.9995 14.0645 19.2383 13.9656 19.4144 13.7895C19.5905 13.6134 19.6894 13.3746 19.6894 13.1255C19.6894 12.8765 19.5905 12.6376 19.4144 12.4615C19.2383 12.2855 18.9995 12.1865 18.7504 12.1865L16.8724 12.1901ZM22.4993 12.1901C22.3714 12.1822 22.2432 12.2006 22.1227 12.2441C22.0021 12.2877 21.8918 12.3554 21.7984 12.4432C21.705 12.531 21.6306 12.637 21.5798 12.7547C21.5289 12.8723 21.5027 12.9991 21.5027 13.1273C21.5027 13.2555 21.5289 13.3823 21.5798 13.4999C21.6306 13.6176 21.705 13.7235 21.7984 13.8113C21.8918 13.8991 22.0021 13.9669 22.1227 14.0104C22.2432 14.054 22.3714 14.0724 22.4993 14.0645H24.3773C24.6264 14.0645 24.8652 13.9656 25.0413 13.7895C25.2174 13.6134 25.3163 13.3746 25.3163 13.1255C25.3163 12.8765 25.2174 12.6376 25.0413 12.4615C24.8652 12.2855 24.6264 12.1865 24.3773 12.1865L22.4993 12.1901ZM5.61868 17.8169C5.38008 17.8316 5.15605 17.9368 4.99229 18.1109C4.82852 18.2851 4.73734 18.5151 4.73734 18.7542C4.73734 18.9932 4.82852 19.2233 4.99229 19.3974C5.15605 19.5716 5.38008 19.6767 5.61868 19.6914H7.49667C7.74571 19.6914 7.98455 19.5925 8.16064 19.4164C8.33674 19.2403 8.43567 19.0014 8.43567 18.7524C8.43567 18.5034 8.33674 18.2645 8.16064 18.0884C7.98455 17.9123 7.74571 17.8134 7.49667 17.8134L5.61868 17.8169ZM11.2456 17.8169C11.007 17.8316 10.7829 17.9368 10.6192 18.1109C10.4554 18.2851 10.3642 18.5151 10.3642 18.7542C10.3642 18.9932 10.4554 19.2233 10.6192 19.3974C10.7829 19.5716 11.007 19.6767 11.2456 19.6914H13.1236C13.3726 19.6914 13.6114 19.5925 13.7875 19.4164C13.9636 19.2403 14.0625 19.0014 14.0625 18.7524C14.0625 18.5034 13.9636 18.2645 13.7875 18.0884C13.6114 17.9123 13.3726 17.8134 13.1236 17.8134L11.2456 17.8169ZM16.8724 17.8169C16.7445 17.8091 16.6163 17.8275 16.4958 17.871C16.3753 17.9146 16.2649 17.9823 16.1715 18.0701C16.0782 18.1579 16.0038 18.2639 15.9529 18.3816C15.902 18.4992 15.8758 18.626 15.8758 18.7542C15.8758 18.8823 15.902 19.0091 15.9529 19.1268C16.0038 19.2444 16.0782 19.3504 16.1715 19.4382C16.2649 19.526 16.3753 19.5938 16.4958 19.6373C16.6163 19.6809 16.7445 19.6993 16.8724 19.6914H18.7504C18.9995 19.6914 19.2383 19.5925 19.4144 19.4164C19.5905 19.2403 19.6894 19.0014 19.6894 18.7524C19.6894 18.5034 19.5905 18.2645 19.4144 18.0884C19.2383 17.9123 18.9995 17.8134 18.7504 17.8134L16.8724 17.8169ZM5.61868 23.4403C5.36965 23.4403 5.13081 23.5392 4.95471 23.7153C4.77862 23.8914 4.67969 24.1302 4.67969 24.3793C4.67969 24.6283 4.77862 24.8672 4.95471 25.0433C5.13081 25.2194 5.36965 25.3183 5.61868 25.3183H7.49667C7.74571 25.3183 7.98455 25.2194 8.16064 25.0433C8.33674 24.8672 8.43567 24.6283 8.43567 24.3793C8.43567 24.1302 8.33674 23.8914 8.16064 23.7153C7.98455 23.5392 7.74571 23.4403 7.49667 23.4403H5.61868ZM11.2456 23.4403C10.9965 23.4403 10.7577 23.5392 10.5816 23.7153C10.4055 23.8914 10.3066 24.1302 10.3066 24.3793C10.3066 24.6283 10.4055 24.8672 10.5816 25.0433C10.7577 25.2194 10.9965 25.3183 11.2456 25.3183H13.1236C13.3726 25.3183 13.6114 25.2194 13.7875 25.0433C13.9636 24.8672 14.0625 24.6283 14.0625 24.3793C14.0625 24.1302 13.9636 23.8914 13.7875 23.7153C13.6114 23.5392 13.3726 23.4403 13.1236 23.4403H11.2456ZM16.8724 23.4403C16.6234 23.4403 16.3846 23.5392 16.2085 23.7153C16.0324 23.8914 15.9335 24.1302 15.9335 24.3793C15.9335 24.6283 16.0324 24.8672 16.2085 25.0433C16.3846 25.2194 16.6234 25.3183 16.8724 25.3183H17.8079C18.0569 25.3183 18.2958 25.2194 18.4719 25.0433C18.648 24.8672 18.7469 24.6283 18.7469 24.3793C18.7469 24.1302 18.648 23.8914 18.4719 23.7153C18.2958 23.5392 18.0569 23.4403 17.8079 23.4403H16.8724ZM16.8654 29.0636C16.742 29.0636 16.6199 29.0879 16.506 29.1351C16.3921 29.1823 16.2886 29.2515 16.2014 29.3387C16.1142 29.4258 16.045 29.5294 15.9978 29.6433C15.9507 29.7572 15.9264 29.8793 15.9264 30.0026C15.9264 30.1259 15.9507 30.248 15.9978 30.362C16.045 30.4759 16.1142 30.5794 16.2014 30.6666C16.2886 30.7538 16.3921 30.823 16.506 30.8701C16.6199 30.9173 16.742 30.9416 16.8654 30.9416C17.1144 30.9416 17.3532 30.8427 17.5293 30.6666C17.7054 30.4905 17.8044 30.2517 17.8044 30.0026C17.8044 29.7536 17.7054 29.5147 17.5293 29.3387C17.3532 29.1626 17.1144 29.0636 16.8654 29.0636ZM5.61868 29.0672C5.38008 29.0819 5.15605 29.187 4.99229 29.3611C4.82852 29.5353 4.73734 29.7653 4.73734 30.0044C4.73734 30.2435 4.82852 30.4735 4.99229 30.6477C5.15605 30.8218 5.38008 30.9269 5.61868 30.9416H7.49667C7.61998 30.9416 7.74209 30.9173 7.85601 30.8701C7.96993 30.823 8.07345 30.7538 8.16064 30.6666C8.24784 30.5794 8.317 30.4759 8.36419 30.362C8.41138 30.248 8.43567 30.1259 8.43567 30.0026C8.43567 29.8793 8.41138 29.7572 8.36419 29.6433C8.317 29.5294 8.24784 29.4258 8.16064 29.3387C8.07345 29.2515 7.96993 29.1823 7.85601 29.1351C7.74209 29.0879 7.61998 29.0636 7.49667 29.0636L5.61868 29.0672ZM11.2456 29.0672C11.007 29.0819 10.7829 29.187 10.6192 29.3611C10.4554 29.5353 10.3642 29.7653 10.3642 30.0044C10.3642 30.2435 10.4554 30.4735 10.6192 30.6477C10.7829 30.8218 11.007 30.9269 11.2456 30.9416H13.1236C13.2469 30.9416 13.369 30.9173 13.4829 30.8701C13.5968 30.823 13.7003 30.7538 13.7875 30.6666C13.8747 30.5794 13.9439 30.4759 13.9911 30.362C14.0383 30.248 14.0625 30.1259 14.0625 30.0026C14.0625 29.8793 14.0383 29.7572 13.9911 29.6433C13.9439 29.5294 13.8747 29.4258 13.7875 29.3387C13.7003 29.2515 13.5968 29.1823 13.4829 29.1351C13.369 29.0879 13.2469 29.0636 13.1236 29.0636L11.2456 29.0672ZM5.61868 34.687C5.38008 34.7016 5.15605 34.8068 4.99229 34.9809C4.82852 35.1551 4.73734 35.3851 4.73734 35.6242C4.73734 35.8632 4.82852 36.0933 4.99229 36.2675C5.15605 36.4416 5.38008 36.5467 5.61868 36.5614H7.49667C7.74571 36.5614 7.98455 36.4625 8.16064 36.2864C8.33674 36.1103 8.43567 35.8715 8.43567 35.6224C8.43567 35.3734 8.33674 35.1345 8.16064 34.9585C7.98455 34.7824 7.74571 34.6834 7.49667 34.6834L5.61868 34.687ZM11.2456 34.687C11.007 34.7016 10.7829 34.8068 10.6192 34.9809C10.4554 35.1551 10.3642 35.3851 10.3642 35.6242C10.3642 35.8632 10.4554 36.0933 10.6192 36.2675C10.7829 36.4416 11.007 36.5467 11.2456 36.5614H13.1236C13.3726 36.5614 13.6114 36.4625 13.7875 36.2864C13.9636 36.1103 14.0625 35.8715 14.0625 35.6224C14.0625 35.3734 13.9636 35.1345 13.7875 34.9585C13.6114 34.7824 13.3726 34.6834 13.1236 34.6834L11.2456 34.687ZM16.8724 34.687C16.7445 34.6791 16.6163 34.6975 16.4958 34.741C16.3753 34.7846 16.2649 34.8523 16.1715 34.9401C16.0782 35.0279 16.0038 35.1339 15.9529 35.2516C15.902 35.3692 15.8758 35.496 15.8758 35.6242C15.8758 35.7524 15.902 35.8792 15.9529 35.9968C16.0038 36.1145 16.0782 36.2204 16.1715 36.3082C16.2649 36.396 16.3753 36.4638 16.4958 36.5073C16.6163 36.5509 16.7445 36.5693 16.8724 36.5614H17.8079C18.0569 36.5614 18.2958 36.4625 18.4719 36.2864C18.648 36.1103 18.7469 35.8715 18.7469 35.6224C18.7469 35.3734 18.648 35.1345 18.4719 34.9585C18.2958 34.7824 18.0569 34.6834 17.8079 34.6834L16.8724 34.687ZM5.61868 40.3139C5.38008 40.3285 5.15605 40.4337 4.99229 40.6078C4.82852 40.782 4.73734 41.012 4.73734 41.2511C4.73734 41.4901 4.82852 41.7202 4.99229 41.8943C5.15605 42.0685 5.38008 42.1736 5.61868 42.1883H7.49667C7.61998 42.1883 7.74209 42.164 7.85601 42.1168C7.96993 42.0696 8.07345 42.0005 8.16064 41.9133C8.24784 41.8261 8.317 41.7226 8.36419 41.6086C8.41138 41.4947 8.43567 41.3726 8.43567 41.2493C8.43567 41.126 8.41138 41.0039 8.36419 40.89C8.317 40.776 8.24784 40.6725 8.16064 40.5853C8.07345 40.4981 7.96993 40.429 7.85601 40.3818C7.74209 40.3346 7.61998 40.3103 7.49667 40.3103L5.61868 40.3139ZM11.2456 40.3139C11.007 40.3285 10.7829 40.4337 10.6192 40.6078C10.4554 40.782 10.3642 41.012 10.3642 41.2511C10.3642 41.4901 10.4554 41.7202 10.6192 41.8943C10.7829 42.0685 11.007 42.1736 11.2456 42.1883H13.1236C13.2469 42.1883 13.369 42.164 13.4829 42.1168C13.5968 42.0696 13.7003 42.0005 13.7875 41.9133C13.8747 41.8261 13.9439 41.7226 13.9911 41.6086C14.0383 41.4947 14.0625 41.3726 14.0625 41.2493C14.0625 41.126 14.0383 41.0039 13.9911 40.89C13.9439 40.776 13.8747 40.6725 13.7875 40.5853C13.7003 40.4981 13.5968 40.429 13.4829 40.3818C13.369 40.3346 13.2469 40.3103 13.1236 40.3103L11.2456 40.3139Z" fill="#E4EFF8"/>
<path d="M16.8717 40.3131C16.7437 40.3052 16.6155 40.3236 16.495 40.3672C16.3745 40.4107 16.2641 40.4785 16.1707 40.5663C16.0774 40.6541 16.003 40.7601 15.9521 40.8777C15.9012 40.9954 15.875 41.1222 15.875 41.2503C15.875 41.3785 15.9012 41.5053 15.9521 41.623C16.003 41.7406 16.0774 41.8466 16.1707 41.9344C16.2641 42.0222 16.3745 42.0899 16.495 42.1335C16.6155 42.177 16.7437 42.1954 16.8717 42.1876H18.7496C18.9987 42.1876 19.2375 42.0886 19.4136 41.9125C19.5897 41.7364 19.6886 41.4976 19.6886 41.2486C19.6886 40.9995 19.5897 40.7607 19.4136 40.5846C19.2375 40.4085 18.9987 40.3096 18.7496 40.3096L16.8717 40.3131Z" fill="#C4DCF0"/>
<path d="M5.61962 45.9401C5.38102 45.9547 5.15699 46.0599 4.99323 46.234C4.82946 46.4082 4.73828 46.6382 4.73828 46.8773C4.73828 47.1163 4.82946 47.3464 4.99323 47.5206C5.15699 47.6947 5.38102 47.7998 5.61962 47.8145H7.49761C7.74665 47.8145 7.98549 47.7156 8.16158 47.5395C8.33768 47.3634 8.43661 47.1246 8.43661 46.8755C8.43661 46.6265 8.33768 46.3876 8.16158 46.2115C7.98549 46.0355 7.74665 45.9365 7.49761 45.9365L5.61962 45.9401Z" fill="#E4EFF8"/>
<path d="M11.2446 45.9401C11.006 45.9547 10.782 46.0599 10.6182 46.234C10.4545 46.4082 10.3633 46.6382 10.3633 46.8773C10.3633 47.1163 10.4545 47.3464 10.6182 47.5206C10.782 47.6947 11.006 47.7998 11.2446 47.8145H13.1226C13.3716 47.8145 13.6105 47.7156 13.7866 47.5395C13.9627 47.3634 14.0616 47.1246 14.0616 46.8755C14.0616 46.6265 13.9627 46.3876 13.7866 46.2115C13.6105 46.0355 13.3716 45.9365 13.1226 45.9365L11.2446 45.9401ZM16.8715 45.9401C16.7436 45.9322 16.6154 45.9506 16.4949 45.9941C16.3743 46.0377 16.264 46.1054 16.1706 46.1932C16.0772 46.281 16.0028 46.387 15.952 46.5047C15.9011 46.6223 15.8749 46.7491 15.8749 46.8773C15.8749 47.0055 15.9011 47.1323 15.952 47.2499C16.0028 47.3676 16.0772 47.4735 16.1706 47.5613C16.264 47.6491 16.3743 47.7169 16.4949 47.7604C16.6154 47.804 16.7436 47.8224 16.8715 47.8145H18.7495C18.9985 47.8145 19.2374 47.7156 19.4135 47.5395C19.5896 47.3634 19.6885 47.1246 19.6885 46.8755C19.6885 46.6265 19.5896 46.3876 19.4135 46.2115C19.2374 46.0355 18.9985 45.9365 18.7495 45.9365L16.8715 45.9401ZM22.4984 45.9401C22.3705 45.9322 22.2423 45.9506 22.1217 45.9941C22.0012 46.0377 21.8908 46.1054 21.7975 46.1932C21.7041 46.281 21.6297 46.387 21.5788 46.5047C21.528 46.6223 21.5017 46.7491 21.5017 46.8773C21.5017 47.0055 21.528 47.1323 21.5788 47.2499C21.6297 47.3676 21.7041 47.4735 21.7975 47.5613C21.8908 47.6491 22.0012 47.7169 22.1217 47.7604C22.2423 47.804 22.3705 47.8224 22.4984 47.8145H24.3764C24.6254 47.8145 24.8643 47.7156 25.0403 47.5395C25.2164 47.3634 25.3154 47.1246 25.3154 46.8755C25.3154 46.6265 25.2164 46.3876 25.0403 46.2115C24.8643 46.0355 24.6254 45.9365 24.3764 45.9365L22.4984 45.9401Z" fill="#C4DCF0"/>
</g>
<defs>
<clipPath id="clip0_208_1438">
<rect width="60" height="60" fill="white"/>
</clipPath>
</defs>
</svg>
