<svg width="55" height="55" viewBox="0 0 55 55" fill="none" xmlns="http://www.w3.org/2000/svg">
<path d="M49.3122 11.3789H5.69154C3.59667 11.3789 1.89844 13.0772 1.89844 15.1721V43.6207C1.89844 45.7156 3.59667 47.4139 5.69154 47.4139H49.3122C51.4071 47.4139 53.1053 45.7156 53.1053 43.6207V15.1721C53.1053 13.0772 51.4071 11.3789 49.3122 11.3789Z" fill="#0087FF"/>
<path d="M5.69141 15.1719H49.3121V43.6205H5.69141V15.1719Z" fill="#F1F1FB"/>
<path d="M0 47.4141H55V51.2072C55 52.2132 54.6004 53.178 53.889 53.8894C53.1777 54.6007 52.2129 55.0004 51.2069 55.0004H3.7931C2.78711 55.0004 1.82232 54.6007 1.11097 53.8894C0.399629 53.178 0 52.2132 0 51.2072V47.4141Z" fill="#006DF0"/>
<path d="M49.3106 11.3789H47.4141C48.4201 11.3789 49.3848 11.7785 50.0962 12.4899C50.8075 13.2013 51.2072 14.1661 51.2072 15.1721V43.6207C51.2072 44.6267 50.8075 45.5915 50.0962 46.3029C49.3848 47.0142 48.4201 47.4139 47.4141 47.4139H49.3106C50.3166 47.4139 51.2814 47.0142 51.9927 46.3029C52.7041 45.5915 53.1037 44.6267 53.1037 43.6207V15.1721C53.1037 14.1661 52.7041 13.2013 51.9927 12.4899C51.2814 11.7785 50.3166 11.3789 49.3106 11.3789Z" fill="#2488FF"/>
<path d="M53.1017 47.4141V51.2072C53.1017 52.2132 52.7021 53.178 51.9907 53.8894C51.2794 54.6007 50.3146 55.0004 49.3086 55.0004H51.2051C52.2111 55.0004 53.1759 54.6007 53.8873 53.8894C54.5986 53.178 54.9982 52.2132 54.9982 51.2072V47.4141H53.1017Z" fill="#005ECE"/>
<path d="M24.6544 51.2072H30.344C30.847 51.2072 31.3294 51.0074 31.6851 50.6517C32.0408 50.296 32.2406 49.8136 32.2406 49.3106V47.4141H22.7578V49.3106C22.7578 49.8136 22.9576 50.296 23.3133 50.6517C23.669 51.0074 24.1514 51.2072 24.6544 51.2072Z" fill="#FFCD00"/>
<path d="M35.0866 28.3148C32.4876 29.8143 29.5023 30.5095 26.5082 30.3125C23.5141 30.1155 20.6457 29.0351 18.2655 27.2079C15.8854 25.3808 14.1005 22.8889 13.1364 20.0474C12.1724 17.2059 12.0725 14.1423 12.8495 11.244C13.6264 8.34574 15.2452 5.74291 17.5013 3.76461C19.7574 1.78632 22.5494 0.521399 25.5243 0.129786C28.4992 -0.261828 31.5234 0.237451 34.2146 1.5645C36.9057 2.89154 39.143 4.98676 40.6435 7.58524C42.6522 11.0718 43.1952 15.213 42.1534 19.0996C41.1115 22.9862 38.5699 26.3005 35.0866 28.3148Z" fill="#FDB43A"/>
<path d="M33.1887 25.0249C31.2398 26.1508 29.0008 26.6734 26.7548 26.5267C24.5088 26.38 22.3567 25.5705 20.5708 24.2006C18.7849 22.8308 17.4454 20.962 16.7216 18.8308C15.9978 16.6995 15.9223 14.4015 16.5046 12.2273C17.087 10.0531 18.301 8.10049 19.9931 6.61634C21.6853 5.13219 23.7795 4.18319 26.0111 3.88937C28.2426 3.59555 30.5111 3.97011 32.5297 4.96568C34.5484 5.96124 36.2264 7.53309 37.3517 9.48242C38.8576 12.0962 39.265 15.2007 38.4846 18.1146C37.7041 21.0285 35.7995 23.5137 33.1887 25.0249Z" fill="#FFCD00"/>
<path d="M40.0483 33.1124L36.7635 35.0089L35.1211 35.9572L41.6775 47.313C42.1805 48.1842 43.009 48.8198 43.9806 49.0802C44.9523 49.3406 45.9877 49.2043 46.8589 48.7013C47.73 48.1982 48.3657 47.3698 48.6261 46.3981C48.8864 45.4264 48.7501 44.391 48.2471 43.5198L41.6907 32.1641L40.0483 33.1124Z" fill="#004FAC"/>
<path d="M31.293 10.4307H34.1378V19.9135H31.293V10.4307Z" fill="#5EAC24"/>
<path d="M25.6016 13.2754H28.4464V19.9134H25.6016V13.2754Z" fill="#006DF0"/>
<path d="M19.9141 16.1201H22.7589V19.9133H19.9141V16.1201Z" fill="#ED1C24"/>
<path d="M36.5766 27.3215C35.6266 28.0447 34.5884 28.6441 33.4871 29.1053L33.3923 29.1612L36.7682 35.0093L40.053 33.1127L36.6771 27.2646L36.5766 27.3215ZM11.3819 36.9827H13.2784C13.5299 36.9827 13.7711 36.8828 13.949 36.705C14.1268 36.5271 14.2267 36.2859 14.2267 36.0344C14.2267 35.7829 14.1268 35.5417 13.949 35.3639C13.7711 35.186 13.5299 35.0861 13.2784 35.0861H11.3819C11.1304 35.0861 10.8892 35.186 10.7113 35.3639C10.5335 35.5417 10.4336 35.7829 10.4336 36.0344C10.4336 36.2859 10.5335 36.5271 10.7113 36.705C10.8892 36.8828 11.1304 36.9827 11.3819 36.9827ZM17.0715 36.9827H31.2957C31.5472 36.9827 31.7884 36.8828 31.9662 36.705C32.144 36.5271 32.2439 36.2859 32.2439 36.0344C32.2439 35.7829 32.144 35.5417 31.9662 35.3639C31.7884 35.186 31.5472 35.0861 31.2957 35.0861H17.0715C16.82 35.0861 16.5788 35.186 16.401 35.3639C16.2232 35.5417 16.1232 35.7829 16.1232 36.0344C16.1232 36.2859 16.2232 36.5271 16.401 36.705C16.5788 36.8828 16.82 36.9827 17.0715 36.9827ZM11.3819 33.1896H13.2784C13.5299 33.1896 13.7711 33.0896 13.949 32.9118C14.1268 32.734 14.2267 32.4928 14.2267 32.2413C14.2267 31.9898 14.1268 31.7486 13.949 31.5707C13.7711 31.3929 13.5299 31.293 13.2784 31.293H11.3819C11.1304 31.293 10.8892 31.3929 10.7113 31.5707C10.5335 31.7486 10.4336 31.9898 10.4336 32.2413C10.4336 32.4928 10.5335 32.734 10.7113 32.9118C10.8892 33.0896 11.1304 33.1896 11.3819 33.1896ZM17.0715 33.1896H20.8646C21.1161 33.1896 21.3573 33.0896 21.5352 32.9118C21.713 32.734 21.8129 32.4928 21.8129 32.2413C21.8129 31.9898 21.713 31.7486 21.5352 31.5707C21.3573 31.3929 21.1161 31.293 20.8646 31.293H17.0715C16.82 31.293 16.5788 31.3929 16.401 31.5707C16.2232 31.7486 16.1232 31.9898 16.1232 32.2413C16.1232 32.4928 16.2232 32.734 16.401 32.9118C16.5788 33.0896 16.82 33.1896 17.0715 33.1896ZM11.3819 40.7759H13.2784C13.5299 40.7759 13.7711 40.676 13.949 40.4981C14.1268 40.3203 14.2267 40.0791 14.2267 39.8276C14.2267 39.5761 14.1268 39.3349 13.949 39.157C13.7711 38.9792 13.5299 38.8793 13.2784 38.8793H11.3819C11.1304 38.8793 10.8892 38.9792 10.7113 39.157C10.5335 39.3349 10.4336 39.5761 10.4336 39.8276C10.4336 40.0791 10.5335 40.3203 10.7113 40.4981C10.8892 40.676 11.1304 40.7759 11.3819 40.7759ZM17.0715 40.7759H31.2957C31.5472 40.7759 31.7884 40.676 31.9662 40.4981C32.144 40.3203 32.2439 40.0791 32.2439 39.8276C32.2439 39.5761 32.144 39.3349 31.9662 39.157C31.7884 38.9792 31.5472 38.8793 31.2957 38.8793H17.0715C16.82 38.8793 16.5788 38.9792 16.401 39.157C16.2232 39.3349 16.1232 39.5761 16.1232 39.8276C16.1232 40.0791 16.2232 40.3203 16.401 40.4981C16.5788 40.676 16.82 40.7759 17.0715 40.7759Z" fill="#0087FF"/>
</svg>
