<svg width="55" height="55" viewBox="0 0 55 55" fill="none" xmlns="http://www.w3.org/2000/svg">
<path d="M49.8722 0.107422H5.13167C2.35782 0.107422 0.109375 2.35587 0.109375 5.12972V37.0035C18.1404 39.7685 36.3991 39.804 54.8945 37.0035V5.12972C54.8945 2.35587 52.6461 0.107422 49.8722 0.107422Z" fill="#0087FF"/>
<path d="M47.6787 19.9311L46.1726 19.4223L46.546 18.0113C45.5053 16.4311 44.2727 14.986 42.8765 13.709L41.5606 13.6363L41.1558 12.2834C39.6476 11.1519 38.0045 10.2126 36.2642 9.48708L34.7683 9.9187L34.1611 8.72911C32.3956 8.19018 30.5385 7.86039 28.6189 7.76758L27.501 8.57711L26.3829 7.76758C24.4632 7.86039 22.6061 8.19018 20.8407 8.72911L20.2335 9.9187L18.7376 9.48708C16.9974 10.2126 15.3542 11.1519 13.846 12.2834L13.4133 13.4686L12.1253 13.709C10.7291 14.9859 9.49649 16.4311 8.45581 18.0113L8.63359 19.3384L7.32326 19.931C5.6898 23.0324 4.75287 26.5566 4.71484 30.2954H20.2335L27.7246 28.8419L34.7684 30.2954H50.2871C50.249 26.5567 49.3122 23.0325 47.6787 19.9311Z" fill="#FDB43A"/>
<path d="M23.0312 45.165H31.9757V51.2026H23.0312V45.165Z" fill="#005ECE"/>
<path d="M28.62 7.76697V10.1697C28.62 10.7868 28.1191 11.2877 27.5019 11.2877C26.8848 11.2877 26.3839 10.7868 26.3839 10.1697V7.76697C27.1288 7.73132 27.875 7.73132 28.62 7.76697ZM20.6191 12.502C20.3896 12.502 20.1656 12.4314 19.9776 12.2998C19.7896 12.1682 19.6466 11.9819 19.5681 11.7663L18.7384 9.48658C19.4265 9.19938 20.1284 8.94638 20.8415 8.72851L21.6689 11.0016C21.9367 11.7352 21.387 12.502 20.6191 12.502ZM14.566 15.9959C14.4027 15.9962 14.2413 15.9606 14.0933 15.8916C13.9453 15.8227 13.8143 15.722 13.7095 15.5967L12.1476 13.7351C12.1397 13.7262 12.1331 13.7172 12.1263 13.7083C12.6757 13.2046 13.2499 12.7289 13.847 12.2828C13.8515 12.2873 13.8559 12.2929 13.8604 12.2985L15.4223 14.1589C16.0377 14.894 15.5028 15.9959 14.566 15.9959ZM11.0418 20.7913C10.9435 20.9614 10.8021 21.1026 10.632 21.2007C10.4618 21.2989 10.2688 21.3505 10.0724 21.3504C9.88236 21.3504 9.68997 21.3022 9.51444 21.2005L7.41026 19.9851C7.38008 19.9684 7.35215 19.9494 7.32422 19.9304C7.66945 19.2719 8.04744 18.6312 8.45677 18.0106C8.48137 18.0229 8.50489 18.0352 8.52831 18.0486L10.6325 19.264C11.167 19.5726 11.3504 20.2569 11.0418 20.7913ZM47.6796 19.9305C47.5835 19.9958 47.7602 19.8866 45.4893 21.2006C44.9594 21.5078 44.2736 21.3291 43.9619 20.7914C43.6533 20.257 43.8367 19.5727 44.3711 19.2641C46.2397 18.186 46.4799 18.0442 46.5468 18.0107C46.9563 18.6313 47.3344 19.272 47.6796 19.9305ZM42.8775 13.7084C42.8606 13.731 42.8953 13.6882 41.2943 15.5967C40.9006 16.066 40.1977 16.134 39.719 15.7342C39.246 15.3373 39.1846 14.6329 39.5815 14.1589L41.1434 12.2985C41.1479 12.2929 41.1523 12.2873 41.1568 12.2828C41.7538 12.729 42.3281 13.2048 42.8775 13.7084ZM36.2653 9.48658L35.4357 11.7663C35.3572 11.982 35.2142 12.1682 35.0262 12.2999C34.8381 12.4315 34.6142 12.5021 34.3846 12.502C33.616 12.502 33.0673 11.7345 33.3348 11.0016L34.1622 8.72851C34.8753 8.94638 35.5772 9.19938 36.2653 9.48658ZM27.5019 29.1768C26.8845 29.1768 26.3839 28.6762 26.3839 28.0588V16.5986C26.3839 15.9811 26.8845 15.4805 27.5019 15.4805C28.1194 15.4805 28.62 15.9811 28.62 16.5986V28.0588C28.62 28.6762 28.1194 29.1768 27.5019 29.1768Z" fill="white"/>
<path d="M9.05501 5.69801H7.28212L7.60954 5.37059C8.04621 4.93392 8.04621 4.22601 7.60954 3.78934C7.17276 3.35277 6.46507 3.35277 6.02829 3.78934L3.7922 6.02543C3.37057 6.44706 3.34113 7.15562 3.7922 7.60668L6.02829 9.84277C6.24668 10.0611 6.53275 10.1702 6.81892 10.1702C7.10509 10.1702 7.39115 10.0611 7.60954 9.84277C8.04621 9.4061 8.04621 8.69819 7.60954 8.26152L7.28212 7.9341H9.05512C9.67258 7.9341 10.1732 7.43352 10.1732 6.81606C10.1732 6.19859 9.67247 5.69801 9.05501 5.69801ZM51.214 6.02543L48.9779 3.78934C48.5411 3.35277 47.8335 3.35277 47.3967 3.78934C46.96 4.22601 46.96 4.93392 47.3967 5.37059L47.7241 5.69801H45.9511C45.3336 5.69801 44.8331 6.19859 44.8331 6.81606C44.8331 7.43352 45.3336 7.9341 45.9511 7.9341H47.7241L47.3967 8.26152C46.96 8.69819 46.96 9.4061 47.3967 9.84277C47.6151 10.0611 47.9011 10.1702 48.1873 10.1702C48.4735 10.1702 48.7595 10.0611 48.9779 9.84277L51.214 7.60668C51.6488 7.17205 51.655 6.46629 51.214 6.02543ZM27.5031 23.1017C23.5139 23.1017 20.2748 26.3151 20.2357 30.2954H25.267L27.5031 29.4568L29.7392 30.2954H34.7705C34.7314 26.3151 31.4923 23.1017 27.5031 23.1017Z" fill="#FFCD00"/>
<path d="M54.8945 37.0039V40.9261C54.8945 43.7 52.6461 45.9484 49.8722 45.9484H5.13178C2.35782 45.9485 0.109375 43.7 0.109375 40.9261V37.0039H54.8945Z" fill="#006DF0"/>
<path d="M50.4227 42.5935C51.0402 42.5935 51.5408 42.0929 51.5408 41.4755C51.5408 40.858 51.0402 40.3574 50.4227 40.3574C49.8053 40.3574 49.3047 40.858 49.3047 41.4755C49.3047 42.0929 49.8053 42.5935 50.4227 42.5935Z" fill="#FFC349"/>
<path d="M45.9509 42.5935H44.8329C44.2154 42.5935 43.7148 42.0929 43.7148 41.4755C43.7148 40.858 44.2154 40.3574 44.8329 40.3574H45.9509C46.5684 40.3574 47.069 40.858 47.069 41.4755C47.069 42.0929 46.5684 42.5935 45.9509 42.5935Z" fill="#FDB43A"/>
<path d="M40.3611 42.5935H39.243C38.6256 42.5935 38.125 42.0929 38.125 41.4755C38.125 40.858 38.6256 40.3574 39.243 40.3574H40.3611C40.9786 40.3574 41.4791 40.858 41.4791 41.4755C41.4791 42.0929 40.9786 42.5935 40.3611 42.5935Z" fill="#FDB43A"/>
<path d="M38.6817 54.8922H16.3203C16.3203 52.4236 18.3238 50.4199 20.7926 50.4199H34.2094C36.6792 50.4199 38.6817 52.4224 38.6817 54.8922Z" fill="#006DF0"/>
<path d="M27.5017 32.5308C28.7367 32.5308 29.7378 31.5296 29.7378 30.2947C29.7378 29.0597 28.7367 28.0586 27.5017 28.0586C26.2668 28.0586 25.2656 29.0597 25.2656 30.2947C25.2656 31.5296 26.2668 32.5308 27.5017 32.5308Z" fill="#FFCD00"/>
</svg>
