<svg width="29" height="28" viewBox="0 0 29 28" fill="none" xmlns="http://www.w3.org/2000/svg">
<path d="M14.5116 8.4001H15.4449C15.7027 8.4001 15.9116 8.19113 15.9116 7.93345C15.9116 7.67576 15.7026 7.4668 15.4449 7.4668H14.5116C14.2538 7.4668 14.0449 7.6757 14.0449 7.93345C14.0449 8.19119 14.2538 8.4001 14.5116 8.4001Z" fill="black" fill-opacity="0.3"/>
<path d="M11.7118 8.4001H12.6451C12.9029 8.4001 13.1118 8.19113 13.1118 7.93345C13.1118 7.67576 12.9029 7.4668 12.6451 7.4668H11.7118C11.454 7.4668 11.2451 7.6757 11.2451 7.93345C11.2451 8.19119 11.454 8.4001 11.7118 8.4001Z" fill="black" fill-opacity="0.3"/>
<path d="M4.71153 9.33321C5.4847 9.33321 6.11153 8.70638 6.11153 7.93321C6.11153 7.16003 5.4847 6.5332 4.71153 6.5332C3.93835 6.5332 3.31152 7.15998 3.31152 7.93321C3.31152 8.70643 3.93835 9.33321 4.71153 9.33321ZM4.71153 7.46656C4.96927 7.46656 5.17818 7.67546 5.17818 7.93321C5.17818 8.19095 4.96927 8.39986 4.71153 8.39986C4.45378 8.39986 4.24488 8.19089 4.24488 7.93321C4.24488 7.67552 4.45378 7.46656 4.71153 7.46656Z" fill="black" fill-opacity="0.3"/>
<path d="M14.5116 13.9997H15.4449C15.7027 13.9997 15.9116 13.7908 15.9116 13.5331C15.9116 13.2753 15.7026 13.0664 15.4449 13.0664H14.5116C14.2538 13.0664 14.0449 13.2753 14.0449 13.5331C14.0449 13.7908 14.2538 13.9997 14.5116 13.9997Z" fill="black" fill-opacity="0.3"/>
<path d="M11.7118 13.9997H12.6451C12.9029 13.9997 13.1118 13.7908 13.1118 13.5331C13.1118 13.2753 12.9029 13.0664 12.6451 13.0664H11.7118C11.454 13.0664 11.2451 13.2753 11.2451 13.5331C11.2451 13.7908 11.454 13.9997 11.7118 13.9997Z" fill="black" fill-opacity="0.3"/>
<path d="M4.71153 14.9328C5.4847 14.9328 6.11153 14.306 6.11153 13.5328C6.11153 12.7596 5.4847 12.1328 4.71153 12.1328C3.93835 12.1328 3.31152 12.7596 3.31152 13.5328C3.31152 14.306 3.93835 14.9328 4.71153 14.9328ZM4.71153 13.0662C4.96927 13.0662 5.17818 13.2751 5.17818 13.5328C5.17818 13.7906 4.96927 13.9995 4.71153 13.9995C4.45378 13.9995 4.24488 13.7906 4.24488 13.5328C4.24488 13.2751 4.45378 13.0662 4.71153 13.0662Z" fill="black" fill-opacity="0.3"/>
<path d="M15.4449 18.667H14.5116C14.2538 18.667 14.0449 18.8759 14.0449 19.1336C14.0449 19.3914 14.2538 19.6003 14.5116 19.6003H15.4449C15.7027 19.6003 15.9116 19.3914 15.9116 19.1336C15.9116 18.8759 15.7027 18.667 15.4449 18.667Z" fill="black" fill-opacity="0.3"/>
<path d="M12.6451 18.667H11.7118C11.454 18.667 11.2451 18.8759 11.2451 19.1336C11.2451 19.3914 11.454 19.6003 11.7118 19.6003H12.6451C12.9029 19.6003 13.1118 19.3914 13.1118 19.1336C13.1118 18.8759 12.9029 18.667 12.6451 18.667Z" fill="black" fill-opacity="0.3"/>
<path d="M4.71153 17.7334C3.93835 17.7334 3.31152 18.3602 3.31152 19.1334C3.31152 19.9066 3.9383 20.5334 4.71153 20.5334C5.48475 20.5334 6.11153 19.9066 6.11153 19.1334C6.11153 18.3602 5.48475 17.7334 4.71153 17.7334ZM4.71153 19.6001C4.45378 19.6001 4.24488 19.3912 4.24488 19.1335C4.24488 18.8757 4.45378 18.6668 4.71153 18.6668C4.96927 18.6668 5.17818 18.8757 5.17818 19.1335C5.17818 19.3912 4.96927 19.6001 4.71153 19.6001Z" fill="black" fill-opacity="0.3"/>
<path d="M19.6451 26.1336H14.9784C14.9784 25.6181 14.5606 25.2003 14.0451 25.2003H11.2451V22.4003H16.8451C18.1331 22.3987 19.1769 21.355 19.1785 20.0669V18.2003C19.1764 17.463 18.8247 16.7703 18.2307 16.3336C18.8247 15.8969 19.1764 15.2043 19.1785 14.467V12.6003C19.1764 11.863 18.8247 11.1704 18.2307 10.7337C18.8247 10.2969 19.1764 9.6043 19.1785 8.867V7.00035C19.1769 5.71235 18.1332 4.66858 16.8451 4.66699H2.84507C1.55702 4.66847 0.51325 5.71224 0.511719 7.00029V8.86695C0.513797 9.60424 0.865493 10.2969 1.45951 10.7336C0.865438 11.1703 0.513797 11.863 0.511719 12.6003V14.4669C0.513797 15.2042 0.865493 15.8968 1.45951 16.3336C0.865438 16.7703 0.513797 17.4629 0.511719 18.2002V20.0669C0.51325 21.3549 1.55702 22.3986 2.84507 22.4002H8.44509V25.2002H5.64508C5.1296 25.2002 4.71173 25.6181 4.71173 26.1336H0.978423C0.72068 26.1336 0.511773 26.3425 0.511773 26.6002C0.511773 26.858 0.72068 27.0669 0.978423 27.0669H4.71178C4.71178 27.5824 5.12965 28.0002 5.64514 28.0002H14.0452C14.5606 28.0002 14.9785 27.5824 14.9785 27.0669H19.6452C19.9029 27.0669 20.1118 26.858 20.1118 26.6002C20.1118 26.3425 19.9029 26.1336 19.6451 26.1336ZM1.44507 8.86695V7.00029C1.44507 6.22712 2.0719 5.60029 2.84507 5.60029H16.8451C17.6183 5.60029 18.2451 6.22707 18.2451 7.00029V8.86695C18.2451 9.64012 17.6183 10.2669 16.8451 10.2669H2.84507C2.07185 10.2669 1.44507 9.64012 1.44507 8.86695ZM1.44507 14.467V12.6003C1.44507 11.8271 2.0719 11.2003 2.84507 11.2003H16.8451C17.6183 11.2003 18.2451 11.8271 18.2451 12.6003V14.467C18.2451 15.2401 17.6183 15.867 16.8451 15.867H2.84507C2.07185 15.867 1.44507 15.2401 1.44507 14.467ZM2.84507 21.467C2.0719 21.467 1.44507 20.8402 1.44507 20.067V18.2003C1.44507 17.4271 2.0719 16.8003 2.84507 16.8003H16.8451C17.6183 16.8003 18.2451 17.4271 18.2451 18.2003V20.067C18.2451 20.8401 17.6183 21.467 16.8451 21.467H2.84507ZM10.3117 22.4003V25.2003H9.37838V22.4003H10.3117ZM14.0451 27.067H5.64508V26.1336H14.0451V27.067Z" fill="black" fill-opacity="0.3"/>
<path d="M24.1691 3.12421C24.3492 2.94418 24.3517 2.65313 24.1748 2.47003L21.8415 0.136678C21.798 0.0931467 21.7463 0.0586935 21.6893 0.0353965C21.5751 -0.0117988 21.4469 -0.0117988 21.3328 0.0353965C21.2759 0.0586935 21.2242 0.093092 21.1807 0.136678L18.8473 2.47003C18.6705 2.65313 18.673 2.94423 18.853 3.12421C19.033 3.30424 19.3241 3.30675 19.5072 3.12989L21.0448 1.59317V8.86668C21.0448 9.12442 21.2537 9.33333 21.5115 9.33333C21.7692 9.33333 21.9781 9.12442 21.9781 8.86668V1.59312L23.5148 3.12984C23.6981 3.30675 23.9891 3.30418 24.1691 3.12421Z" fill="black" fill-opacity="0.3"/>
<path d="M28.3702 9.94246C28.1902 9.76243 27.8991 9.75992 27.716 9.93678H27.7151L26.1784 11.4735V4.20005C26.1784 3.94231 25.9695 3.7334 25.7117 3.7334C25.454 3.7334 25.2451 3.94231 25.2451 4.20005V11.4736L23.7083 9.93683C23.5253 9.75997 23.2342 9.76249 23.0542 9.94252C22.8741 10.1226 22.8716 10.4136 23.0485 10.5967L25.3818 12.93C25.4694 13.0178 25.5883 13.0672 25.7123 13.0672C25.8362 13.0672 25.9551 13.0178 26.0427 12.93L28.376 10.5967C28.5527 10.4135 28.5502 10.1224 28.3702 9.94246Z" fill="black" fill-opacity="0.3"/>
</svg>
