<svg width="25" height="21" viewBox="0 0 25 21" fill="none" xmlns="http://www.w3.org/2000/svg">
<path d="M20.2932 1.30579L20.2955 1.31185L20.3043 1.33638L20.338 1.43075L20.4636 1.78515C20.5713 2.0896 20.7244 2.52315 20.9077 3.04275C21.2744 4.08195 21.7619 5.46529 22.2492 6.84815L23.589 10.6507L24.0309 11.9048L24.1551 12.257L24.188 12.3502L24.1966 12.3744L24.1989 12.3808L24.1995 12.3826L24.1996 12.3828C24.1996 12.383 24.1997 12.3831 24.1998 12.3833C24.2781 12.6061 24.3195 12.8435 24.3149 13.0958V13.0968V17.9877C24.3149 19.1456 23.4362 20.0838 22.3661 20.0838H2.36402C1.29394 20.0838 0.415234 19.1456 0.415234 17.9877V13.0968C0.415234 12.8492 0.461364 12.6059 0.535557 12.3819L0.537678 12.3755L0.538091 12.3742L0.538214 12.3739L0.54649 12.35L0.579013 12.2568L0.702595 11.9047C0.809084 11.6017 0.96123 11.1693 1.14385 10.6507C1.5091 9.6134 1.99624 8.23102 2.48383 6.84816C2.97142 5.4653 3.45945 4.08197 3.82646 3.04277C4.00997 2.52317 4.16322 2.08961 4.27104 1.78517L4.39677 1.43077L4.43048 1.3364L4.43936 1.31187L4.4416 1.30581C4.779 0.612428 5.44225 0.183789 6.16787 0.183789H18.567C19.2926 0.183789 19.9558 0.612411 20.2932 1.30579ZM3.61622 7.4709H3.58079L3.56905 7.50433L2.3641 10.9341L2.34071 11.0006H2.41128H22.3283H22.3989L22.3754 10.934L19.1953 1.90308L19.196 1.90285L19.192 1.89558C19.061 1.6575 18.8274 1.51454 18.5717 1.51454H6.16787C5.90788 1.51454 5.67397 1.65708 5.54741 1.8908L5.54685 1.8905L5.54419 1.89809L5.08584 3.20707L5.06255 3.27359H5.13303H7.55237C7.89004 3.27359 8.16863 3.56743 8.16863 3.93896C8.16863 4.3105 7.89004 4.60434 7.55237 4.60434H4.62743H4.59202L4.58027 4.63773L4.07466 6.07355L4.05121 6.14016H4.12182H5.54885C5.88652 6.14016 6.16512 6.434 6.16512 6.80553C6.16512 7.17706 5.88652 7.4709 5.54885 7.4709H3.61622ZM23.0824 17.9377V13.0968C23.0824 12.6768 22.7656 12.3314 22.3661 12.3314H2.36402C1.96455 12.3314 1.64776 12.6768 1.64776 13.0968V17.9877C1.64776 18.4076 1.96455 18.753 2.36402 18.753H22.3708C22.7703 18.753 23.0871 18.4076 23.0871 17.9877V17.9377H23.0824Z" fill="black" fill-opacity="0.3" stroke="white" stroke-width="0.1"/>
<path d="M13.456 14.8271H3.54712C3.17855 14.8271 2.88086 15.1468 2.88086 15.5425C2.88086 15.9383 3.17855 16.2579 3.54712 16.2579H13.456C13.8246 16.2579 14.1223 15.9383 14.1223 15.5425C14.1223 15.1468 13.8246 14.8271 13.456 14.8271Z" fill="black" fill-opacity="0.3"/>
<path d="M21.1928 14.8271H20.1721C19.8036 14.8271 19.5059 15.1468 19.5059 15.5425C19.5059 15.9383 19.8036 16.2579 20.1721 16.2579H21.1928C21.5614 16.2579 21.859 15.9383 21.859 15.5425C21.859 15.1468 21.5614 14.8271 21.1928 14.8271Z" fill="black" fill-opacity="0.3"/>
<path d="M17.1928 14.8271H16.1721C15.8036 14.8271 15.5059 15.1468 15.5059 15.5425C15.5059 15.9383 15.8036 16.2579 16.1721 16.2579H17.1928C17.5614 16.2579 17.859 15.9383 17.859 15.5425C17.859 15.1468 17.5614 14.8271 17.1928 14.8271Z" fill="black" fill-opacity="0.3"/>
</svg>
