<svg width="55" height="55" viewBox="0 0 55 55" fill="none" xmlns="http://www.w3.org/2000/svg">
<g clip-path="url(#clip0_1_438)">
<path d="M19.4485 8.49836L17.9643 9.15514L16.5036 9.8001L12.8568 1.54817L14.3196 0.902026L15.8017 0.246323L19.4485 8.49836Z" fill="#FFB74F"/>
<path d="M50.6483 41.3658L32.3229 41.6383L32.3122 41.6502L19.8016 55L19.939 13.6272V13.5919L50.6483 41.3658Z" fill="#0087FF"/>
<path d="M15.8017 0.246323L19.4485 8.49836L17.9643 9.15514L14.3196 0.902026L15.8017 0.246323Z" fill="#FF9B00"/>
<path d="M50.6483 41.3658L32.323 41.6383L32.3123 41.6502L19.9391 13.6272V13.5919L50.6483 41.3658Z" fill="#4B5BE5"/>
<path d="M5.51756 9.24268L4.35205 12.244L12.762 15.5099L13.9275 12.5085L5.51756 9.24268Z" fill="#FFB74F"/>
<path d="M12.8427 19.2688L4.58252 22.8964L5.87718 25.8444L14.1374 22.2169L12.8427 19.2688Z" fill="#FFB74F"/>
<path d="M26.4329 -0.000200956L23.186 8.41696L26.1901 9.57575L29.4369 1.15859L26.4329 -0.000200956Z" fill="#FF9B00"/>
<path d="M37.1553 8.49976L28.9122 12.1652L30.2204 15.107L38.4634 11.4415L37.1553 8.49976Z" fill="#FF9B00"/>
</g>
<defs>
<clipPath id="clip0_1_438">
<rect width="55" height="55" fill="white"/>
</clipPath>
</defs>
</svg>
