<svg width="78" height="78" viewBox="0 0 78 78" fill="none" xmlns="http://www.w3.org/2000/svg">
<path d="M36.893 66.4176C32.9919 63.1992 29.8671 59.1422 27.7511 54.5488C26.7952 54.6545 25.8322 54.4262 25.0255 53.9027C24.2188 53.3792 23.618 52.5927 23.3251 51.6767C23.0322 50.7607 23.0653 49.7715 23.4186 48.8771C23.772 47.9827 24.4239 47.238 25.2638 46.7695C24.0954 40.5868 24.6767 34.2006 26.9422 28.3305C26.5028 27.9649 26.1442 27.5121 25.8889 27.0007C25.6336 26.4894 25.4873 25.9306 25.4592 25.3597C24.675 25.302 23.8874 25.2709 23.1066 25.2709C19.4271 25.266 15.7753 25.908 12.3181 27.1675C10.4247 30.9329 9.44075 35.09 9.44533 39.3047C9.44533 54.2571 21.6101 66.4219 36.5625 66.4219C36.673 66.4219 36.7828 66.419 36.893 66.4176Z" fill="#0087FF"/>
<path d="M39.826 12.3869C34.8149 11.7752 29.7325 12.5773 25.1533 14.7024C20.574 16.8275 16.6804 20.191 13.9124 24.4128C16.9034 23.5646 19.9977 23.1356 23.1068 23.1381C24.0344 23.1381 24.971 23.1776 25.9015 23.2539C26.34 22.3834 27.0704 21.6947 27.9652 21.3081C28.86 20.9216 29.8622 20.8619 30.7966 21.1394C33.236 17.6858 36.2982 14.7176 39.826 12.3869Z" fill="#0087FF"/>
<path d="M52.9913 46.796C51.4555 42.2093 48.8864 38.0368 45.4822 34.6005C42.0779 31.1642 37.9297 28.5561 33.3575 26.9775C32.9583 27.7896 32.3052 28.4494 31.4972 28.8569C30.6892 29.2644 29.7703 29.3973 28.88 29.2355C27.5046 32.8265 26.8026 36.6401 26.809 40.4855C26.8087 42.4167 26.9853 44.3438 27.3366 46.2427C28.2126 46.251 29.0637 46.5354 29.7688 47.0554C30.4738 47.5754 30.9969 48.3045 31.2635 49.139C31.5302 49.9736 31.5268 50.8709 31.2539 51.7034C30.981 52.5359 30.4525 53.2611 29.7436 53.7758C32.0591 58.7445 35.6302 63.0235 40.1045 66.1906C45.439 65.4884 50.4425 63.2097 54.4739 59.6462C54.559 58.6948 54.6027 57.73 54.6027 56.7774C54.6027 56.0377 54.575 55.2932 54.5235 54.5532C53.6556 54.4431 52.8443 54.0626 52.2047 53.4655C51.5652 52.8685 51.1298 52.0853 50.9603 51.2269C50.7908 50.3686 50.8958 49.4787 51.2604 48.6833C51.625 47.888 52.2308 47.2277 52.9917 46.7959L52.9913 46.796Z" fill="#0087FF"/>
<path d="M65.446 14.3151C63.6448 12.5609 61.2298 11.5792 58.7155 11.5792C56.2012 11.5792 53.7862 12.5609 51.985 14.3151C50.2594 16.0082 49.2147 18.2753 49.0488 20.6871C48.9651 21.99 49.1616 23.2958 49.6251 24.5164C50.124 25.8079 50.8825 26.9834 51.8536 27.9703L58.7156 35.1328L65.5774 27.9703C66.5486 26.9835 67.3072 25.808 67.8062 24.5165C68.2696 23.2959 68.4661 21.9902 68.3823 20.6872C68.2164 18.2754 67.1716 16.0082 65.446 14.3151ZM58.7156 26.2353C57.5776 26.2411 56.4636 25.9089 55.5146 25.2809C54.5656 24.6529 53.8244 23.7574 53.3849 22.7077C52.9455 21.658 52.8275 20.5015 53.0459 19.3848C53.2644 18.268 53.8094 17.2412 54.612 16.4345C55.4146 15.6277 56.4386 15.0775 57.5543 14.8533C58.6699 14.6292 59.827 14.7413 60.8789 15.1754C61.9308 15.6095 62.8302 16.3461 63.463 17.2919C64.0958 18.2377 64.4336 19.35 64.4337 20.488C64.4358 22.0078 63.835 23.4665 62.763 24.544C61.691 25.6214 60.2355 26.2297 58.7156 26.2353Z" fill="#F8CE01"/>
<path d="M59.4856 37.4118C59.3861 37.5157 59.2666 37.5984 59.1342 37.6549C59.0019 37.7114 58.8594 37.7405 58.7155 37.7405C58.5716 37.7405 58.4292 37.7114 58.2969 37.6549C58.1645 37.5984 58.045 37.5157 57.9454 37.4118L50.313 29.4456C49.1403 28.2492 48.2256 26.8247 47.6257 25.2604C47.0561 23.756 46.8157 22.1471 46.9205 20.5419C47.0542 18.5939 47.6619 16.7081 48.6909 15.0487C46.7162 14.0614 44.6282 13.3196 42.4733 12.8397L42.6503 13.148C38.6931 15.4271 35.2729 18.5314 32.6223 22.25C33.3032 22.9601 33.7122 23.8875 33.7773 24.8692C38.7421 26.5344 43.2504 29.3341 46.9441 33.046C50.6378 36.7579 53.4153 41.2799 55.0561 46.2528C56.0196 46.2542 56.9528 46.5895 57.6969 47.2016C58.441 47.8138 58.9498 48.6649 59.1368 49.6101C59.3238 50.5553 59.1774 51.536 58.7225 52.3854C58.2676 53.2348 57.5324 53.9002 56.642 54.2684C56.7029 55.1024 56.7351 55.9429 56.7351 56.7775C56.7351 56.9892 56.7319 57.2017 56.7278 57.4142C59.586 54.2351 61.6522 50.4253 62.7576 46.2955C63.863 42.1658 63.9763 37.8332 63.0883 33.6514L59.4856 37.4118Z" fill="#0087FF"/>
<path d="M58.7156 16.8734C57.9995 16.8676 57.2977 17.0747 56.6994 17.4683C56.1012 17.8619 55.6333 18.4244 55.3552 19.0844C55.0771 19.7443 55.0013 20.472 55.1375 21.1751C55.2736 21.8783 55.6155 22.5251 56.1199 23.0335C56.6242 23.542 57.2682 23.8892 57.9702 24.031C58.6722 24.1729 59.4005 24.103 60.0627 23.8303C60.7249 23.5576 61.2912 23.0943 61.6896 22.4992C62.0881 21.9041 62.3009 21.2041 62.3009 20.4879C62.3037 19.5335 61.9277 18.617 61.2556 17.9394C60.5835 17.2617 59.67 16.8784 58.7156 16.8734Z" fill="#0087FF"/>
</svg>
