<svg width="56" height="56" viewBox="0 0 56 56" fill="none" xmlns="http://www.w3.org/2000/svg">
<path fill-rule="evenodd" clip-rule="evenodd" d="M14.6202 12.4721H35.9058C36.9247 12.4721 37.7585 13.3059 37.7585 14.3248C37.7585 15.344 36.9249 16.1778 35.9058 16.1778H14.6202C13.6012 16.1778 12.7675 15.344 12.7675 14.3248C12.7674 13.3059 13.6012 12.4721 14.6202 12.4721ZM35.9058 18.1466H14.6202C14.4241 18.1466 14.2311 18.1316 14.0428 18.1031C5.50464 26.7657 -1.09625 38.441 6.41366 48.2795C9.65324 52.5237 14.2481 54.7969 19.5876 54.7969H30.9382C34.5536 54.7969 37.827 53.7549 40.5702 51.7645L38.6798 49.7393C37.2261 48.1815 38.3351 45.6296 40.4657 45.6296H40.9386V30.7354C40.9386 29.0534 42.2616 27.6749 43.9216 27.5858C41.9574 24.21 39.3277 20.9893 36.483 18.1031C36.2948 18.1316 36.1019 18.1466 35.9058 18.1466ZM25.2631 25.1753C30.9583 25.1753 35.5751 29.7922 35.5751 35.4874C35.5751 41.1826 30.9583 45.7995 25.2631 45.7995C19.5678 45.7995 14.9509 41.1826 14.9509 35.4874C14.9508 29.7922 19.5676 25.1753 25.2631 25.1753ZM18.1215 5.28872C11.3398 2.78206 10.777 4.12453 13.5533 8.08752C14.3277 9.19286 14.7968 9.89723 15.1397 10.5035H35.3862C35.7291 9.89723 36.1982 9.19297 36.9726 8.08752C39.7491 4.12464 39.1864 2.78206 32.4044 5.28872C29.5577 6.34091 30.7564 1.20312 25.2631 1.20312C19.7696 1.20312 20.9682 6.34091 18.1215 5.28872ZM44.0929 29.5498H48.7631C49.4162 29.5498 49.9485 30.0824 49.9485 30.7354V47.5985H52.3902C52.8051 47.5985 53.02 48.0927 52.7369 48.3961L46.9914 54.552C46.6865 54.8785 46.1695 54.8786 45.8647 54.552L40.1193 48.3961C39.836 48.0927 40.051 47.5985 40.4658 47.5985H42.9075V30.7354C42.9075 30.0825 43.4401 29.5498 44.0929 29.5498ZM25.2631 27.9655C29.4172 27.9655 32.785 31.3332 32.785 35.4874C32.785 39.6415 29.4172 43.0093 25.2631 43.0093C21.1088 43.0093 17.7411 39.6415 17.7411 35.4874C17.7411 31.3332 21.1087 27.9655 25.2631 27.9655ZM24.3608 30.7499C24.3608 30.2062 24.8015 29.7655 25.3452 29.7655C25.8889 29.7655 26.3295 30.2062 26.3295 30.7499V30.9983C26.5246 31.0504 26.7126 31.1233 26.8905 31.2147C27.285 31.4174 27.6252 31.7107 27.8823 32.0663C28.1988 32.5059 28.0988 33.1186 27.6593 33.4352C27.3297 33.6724 26.9027 33.6756 26.5763 33.4772C26.4673 33.411 26.3697 33.3222 26.2905 33.2122C26.1331 32.9945 25.8963 32.8747 25.6282 32.8747H25.0621C24.6161 32.8747 24.2478 33.243 24.2478 33.6889C24.2478 34.1346 24.6163 34.503 25.0621 34.503H25.4642C26.9965 34.503 28.247 35.7536 28.247 37.2859C28.247 38.5745 27.3592 39.6657 26.1653 39.9786V40.2249C26.1653 40.7687 25.7246 41.2093 25.1809 41.2093C24.6372 41.2093 24.1965 40.7687 24.1965 40.2249V39.9766C23.5732 39.8102 23.0223 39.432 22.6437 38.9084C22.3273 38.4688 22.4273 37.856 22.8667 37.5396C23.3089 37.2213 23.9212 37.3257 24.2357 37.7626C24.393 37.9802 24.6298 38.0999 24.8979 38.0999H25.4643C25.9121 38.0999 26.2783 37.7335 26.2783 37.2858C26.2783 36.84 25.9101 36.4716 25.4643 36.4716H25.0622C24.9261 36.4716 24.7926 36.4618 24.6619 36.4428C23.3003 36.245 22.2792 35.068 22.2792 33.6887C22.2792 32.4231 23.1414 31.3142 24.3609 30.9957L24.3608 30.7499Z" fill="#0087FF"/>
<path d="M50 29.5H42.5V47.5H39.5L46 55L53 47.5H50V29.5Z" fill="#FFB725"/>
</svg>
