<svg width="59" height="59" viewBox="0 0 59 59" fill="none" xmlns="http://www.w3.org/2000/svg">
<path d="M3.50427 12.2291V44.8132C3.50427 46.7977 5.11336 48.3979 7.08897 48.3979H16.8776H42.1314H51.92C53.9046 48.3979 55.5047 46.7888 55.5047 44.8132V12.2291H3.50427Z" fill="#EBEBFD"/>
<path d="M51.92 12.2291V31.4488C51.92 38.8327 45.9306 44.8221 38.5467 44.8221H13.2929H3.51321H3.50427C3.50427 46.7977 5.11336 48.3979 7.08897 48.3979H16.8776H42.1314H51.92C53.9046 48.3979 55.5047 46.7888 55.5047 44.8132V12.2291H51.92Z" fill="#D7D6FB"/>
<path d="M55.4958 5.37257C55.4958 3.38802 53.8867 1.78787 51.9111 1.78787H7.08897C5.10442 1.78787 3.50427 3.39696 3.50427 5.37257V12.2291H55.5047V5.37257H55.4958Z" fill="#F8CE01"/>
<path d="M10.3965 8.80531C11.3889 8.80531 12.1934 8.00084 12.1934 7.00849C12.1934 6.01613 11.3889 5.21167 10.3965 5.21167C9.40419 5.21167 8.59973 6.01613 8.59973 7.00849C8.59973 8.00084 9.40419 8.80531 10.3965 8.80531Z" fill="#F09D00"/>
<path d="M16.9759 8.80531C17.9683 8.80531 18.7727 8.00084 18.7727 7.00849C18.7727 6.01613 17.9683 5.21167 16.9759 5.21167C15.9835 5.21167 15.1791 6.01613 15.1791 7.00849C15.1791 8.00084 15.9835 8.80531 16.9759 8.80531Z" fill="#F09D00"/>
<path d="M23.5643 8.80531C24.5566 8.80531 25.3611 8.00084 25.3611 7.00849C25.3611 6.01613 24.5566 5.21167 23.5643 5.21167C22.5719 5.21167 21.7675 6.01613 21.7675 7.00849C21.7675 8.00084 22.5719 8.80531 23.5643 8.80531Z" fill="#F09D00"/>
<path d="M10.7363 5.24741C10.7542 5.36362 10.772 5.47089 10.772 5.59604C10.772 6.58832 9.9675 7.39286 8.97522 7.39286C8.85901 7.39286 8.7428 7.38392 8.62659 7.3571C8.7875 8.17953 9.51159 8.80529 10.3876 8.80529C11.3799 8.80529 12.1845 8.00074 12.1845 7.00847C12.1845 6.13241 11.5587 5.40832 10.7363 5.24741Z" fill="#F09D00"/>
<path d="M23.904 5.24741C23.9219 5.36362 23.9398 5.47089 23.9398 5.59604C23.9398 6.58832 23.1352 7.39286 22.1429 7.39286C22.0267 7.39286 21.9105 7.38392 21.7943 7.3571C21.9552 8.17953 22.6793 8.80529 23.5554 8.80529C24.5476 8.80529 25.3522 8.00074 25.3522 7.00847C25.3522 6.13241 24.7354 5.40832 23.904 5.24741Z" fill="#F09D00"/>
<path d="M29.5 57.2121C36.9254 57.2121 42.9449 51.1927 42.9449 43.7673C42.9449 36.3419 36.9254 30.3224 29.5 30.3224C22.0746 30.3224 16.0552 36.3419 16.0552 43.7673C16.0552 51.1927 22.0746 57.2121 29.5 57.2121Z" fill="#0087FF"/>
<path d="M37.5634 33.0221C39.2529 35.2659 40.2631 38.055 40.2631 41.0855C40.2631 48.5052 34.2469 54.5303 26.8182 54.5303C23.7878 54.5303 21.0076 53.5202 18.7549 51.8306C21.2043 55.0935 25.1019 57.2121 29.5 57.2121C36.9287 57.2121 42.9449 51.187 42.9449 43.7673C42.9449 39.3691 40.8262 35.4715 37.5634 33.0221Z" fill="#0087FF"/>
<path d="M7.974 17.5927H16.9134V26.5321H7.974V17.5927Z" fill="#0D71CA"/>
<path d="M25.0303 17.5927H33.9697V26.5321H25.0303V17.5927Z" fill="#F09D00"/>
<path d="M42.0867 17.5927H51.0261V26.5321H42.0867V17.5927Z" fill="#0D71CA"/>
<path d="M48.3442 17.5927C48.3442 21.0433 45.5462 23.8503 42.0867 23.8503V26.5321H51.0261V17.5927H48.3442Z" fill="#0087FF"/>
<path d="M16.976 31.8153H7.97402C7.48235 31.8153 7.08008 31.413 7.08008 30.9213C7.08008 30.4297 7.48235 30.0274 7.97402 30.0274H16.976C17.4677 30.0274 17.8699 30.4297 17.8699 30.9213C17.8699 31.413 17.4677 31.8153 16.976 31.8153Z" fill="#0087FF"/>
<path d="M13.4002 35.3911H7.97402C7.48235 35.3911 7.08008 34.9888 7.08008 34.4971C7.08008 34.0055 7.48235 33.6032 7.97402 33.6032H13.4002C13.8919 33.6032 14.2942 34.0055 14.2942 34.4971C14.2942 34.9888 13.8919 35.3911 13.4002 35.3911Z" fill="#0087FF"/>
<path d="M51.0887 31.8153H42.0867C41.595 31.8153 41.1927 31.413 41.1927 30.9213C41.1927 30.4297 41.595 30.0274 42.0867 30.0274H51.0887C51.5803 30.0274 51.9826 30.4297 51.9826 30.9213C51.9826 31.413 51.5803 31.8153 51.0887 31.8153Z" fill="#0087FF"/>
<path d="M51.0887 35.3911H45.6625C45.1708 35.3911 44.7686 34.9888 44.7686 34.4971C44.7686 34.0055 45.1708 33.6032 45.6625 33.6032H51.0887C51.5804 33.6032 51.9826 34.0055 51.9826 34.4971C51.9826 34.9888 51.5804 35.3911 51.0887 35.3911Z" fill="#0087FF"/>
<path d="M42.9002 44.6612C42.9181 44.3662 42.9449 44.0712 42.9449 43.7673C42.9449 43.4633 42.9181 43.1683 42.9002 42.8733H37.5813C37.5008 40.4507 37.0985 38.2159 36.446 36.285C37.3757 35.7665 38.2607 35.1497 39.0741 34.4256C39.092 34.4077 39.101 34.3809 39.1188 34.363C38.6987 33.9339 38.2517 33.5406 37.7779 33.1741C37.1611 33.7194 36.4907 34.1932 35.7844 34.6044C35.0425 32.9953 34.0949 31.6901 33.0132 30.7962C31.8869 30.4923 30.7158 30.3135 29.4911 30.3135C28.2754 30.3135 27.0954 30.4923 25.9779 30.7962C24.8963 31.6991 23.9576 32.9953 23.2067 34.6044C22.5005 34.1932 21.839 33.7194 21.2132 33.1741C20.7394 33.5406 20.2925 33.9339 19.8723 34.363C19.8902 34.3809 19.8991 34.4077 19.917 34.4256C20.7216 35.1497 21.6066 35.7665 22.5452 36.285C21.8926 38.2159 21.4904 40.4507 21.4099 42.8733H16.091C16.0731 43.1683 16.0463 43.4633 16.0463 43.7673C16.0463 44.0712 16.0731 44.3662 16.091 44.6612H21.4099C21.4904 47.0838 21.8926 49.3186 22.5452 51.2406C21.6155 51.7591 20.7305 52.3759 19.917 53.1C19.8991 53.1179 19.8902 53.1447 19.8723 53.1626C20.2925 53.5917 20.7394 53.985 21.2132 54.3515C21.8301 53.8062 22.5005 53.3324 23.2067 52.9212C23.9487 54.5303 24.8963 55.8354 25.9779 56.7383C27.1043 57.0333 28.2843 57.2121 29.5001 57.2121C30.7158 57.2121 31.8958 57.0333 33.0222 56.7294C34.1038 55.8265 35.0425 54.5303 35.7934 52.9212C36.4996 53.3324 37.1611 53.8062 37.7779 54.3515C38.2517 53.985 38.6987 53.5917 39.1188 53.1626C39.101 53.1447 39.092 53.1179 39.0741 53.1C38.2696 52.3759 37.3846 51.7591 36.446 51.2406C37.0985 49.3097 37.5008 47.0748 37.5813 44.6612H42.9002ZM28.6061 56.1751C27.1311 55.7371 25.8081 54.2532 24.8426 52.1256C26.0405 51.6429 27.3099 51.3479 28.6061 51.2585V56.1751ZM28.6061 49.4617C27.0864 49.56 25.5935 49.8907 24.1901 50.4539C23.6358 48.7465 23.2782 46.762 23.1978 44.6612H28.6061V49.4617ZM28.6061 42.8733H23.2067C23.2872 40.7636 23.6358 38.788 24.199 37.0806C25.6025 37.6438 27.0864 37.9745 28.6151 38.0729V42.8733H28.6061ZM28.6061 36.2761C27.3099 36.1867 26.0405 35.8917 24.8426 35.4089C25.817 33.2814 27.1401 31.7974 28.6061 31.3594V36.2761ZM30.394 31.3594C31.869 31.7974 33.192 33.2814 34.1575 35.4089C32.9596 35.8917 31.6902 36.1867 30.394 36.2761V31.3594ZM30.394 56.1751V51.2585C31.6902 51.3479 32.9596 51.6429 34.1575 52.1256C33.192 54.2532 31.869 55.7371 30.394 56.1751ZM34.8101 50.4539C33.4066 49.8907 31.9226 49.56 30.394 49.4617V44.6612H35.7934C35.7129 46.762 35.3643 48.7465 34.8101 50.4539ZM30.394 42.8733V38.0729C31.9137 37.9745 33.4066 37.6438 34.8101 37.0806C35.3643 38.788 35.7219 40.7726 35.8023 42.8733H30.394Z" fill="#505FE1"/>
<path d="M14.2316 17.5927C14.2316 21.0433 11.4335 23.8503 7.974 23.8503V26.5321H16.9134V17.5927H14.2316Z" fill="#0087FF"/>
<path d="M31.2878 17.5927C31.2878 21.0433 28.4898 23.8503 25.0303 23.8503V26.5321H33.9697V17.5927H31.2878Z" fill="#F8CE01"/>
</svg>
