<svg width="75" height="54" viewBox="0 0 75 54" fill="none" xmlns="http://www.w3.org/2000/svg">
<path d="M17.0168 50.1789C26.0825 50.6492 33.8305 43.9966 34.2884 35.3494C34.5073 31.2144 33.0413 27.2258 30.1605 24.1185C27.2861 21.0181 23.3268 19.142 19.0112 18.8356L18.8859 18.8261C17.3737 18.704 16.0564 19.7842 15.9405 21.2252C15.8246 22.6661 16.9557 23.9283 18.4665 24.0444L18.618 24.056C24.5361 24.4725 29.1073 29.4115 28.808 35.0651C28.5027 40.83 23.3374 45.265 17.2936 44.9514C11.2498 44.6379 6.58114 39.6928 6.88638 33.928C7.26764 26.7275 9.41482 20.1763 13.2687 14.4562C16.149 10.1809 18.9638 7.9897 19.0164 7.94919C20.1957 7.05203 20.389 5.40984 19.4468 4.27762C18.9362 3.66418 18.1967 3.32586 17.4378 3.28649C16.7937 3.25321 16.1355 3.43503 15.5914 3.84646C15.453 3.95119 12.1628 6.4663 8.79386 11.4005C5.72252 15.8985 1.9479 23.4089 1.40598 33.6437C0.948115 42.2911 7.95115 49.7086 17.0168 50.1789Z" fill="#0087FF"/>
<path d="M56.0808 50.216C65.1465 50.6863 72.8945 44.0339 73.3523 35.3865C73.5713 31.2514 72.1053 27.2629 69.2245 24.1552C66.3501 21.0549 62.3907 19.1789 58.0752 18.8724L57.9498 18.8629C56.4409 18.7409 55.1202 19.8209 55.0045 21.2619C54.8886 22.7029 56.0197 23.9651 57.5305 24.0812L57.682 24.0927C63.6001 24.5095 68.1713 29.4486 67.8719 35.1022C67.5667 40.867 62.4013 45.3021 56.3576 44.9885C50.3138 44.675 45.6451 39.7299 45.9503 33.9651C46.3316 26.7645 48.4788 20.2133 52.3327 14.4933C55.2129 10.218 58.0278 8.02683 58.0803 7.98631C59.2598 7.08902 59.4529 5.44695 58.5108 4.31473C58.0002 3.70116 57.2607 3.36297 56.5018 3.3236C55.8577 3.29019 55.1995 3.47201 54.6552 3.88344C54.5169 3.98818 51.2266 6.50327 47.8577 11.4375C44.7865 15.9355 41.0119 23.4458 40.4699 33.6808C40.0121 42.3282 47.0151 49.7457 56.0808 50.216Z" fill="#0087FF"/>
</svg>
