<svg width="41" height="41" viewBox="0 0 41 41" fill="none" xmlns="http://www.w3.org/2000/svg">
<g clip-path="url(#clip0_103_5858)">
<path d="M26.5059 0V7.36719L24.1035 9.76953H17.4971L14.4941 7.36719V0H26.5059Z" fill="#FFB82B"/>
<path d="M31.6467 17.7695L21.8452 37.3965H19.1545L9.35303 17.7695L10.2179 17.1927C10.2658 17.1449 14.494 14.262 14.494 10.9707V7.36719H26.5057V10.9707C26.5057 14.262 30.7339 17.1449 30.7821 17.1927L31.6467 17.7695Z" fill="#0087FF"/>
<path d="M20.5 16.9766C18.5059 16.9766 16.8965 18.5859 16.8965 20.5801C16.8965 22.5742 18.5059 24.1836 20.5 24.1836C22.4941 24.1836 24.1035 22.5742 24.1035 20.5801C24.1035 18.5859 22.4941 16.9766 20.5 16.9766Z" fill="#E6ECFF"/>
<path d="M20.5 24.1836V16.9766C22.4941 16.9766 24.1035 18.5859 24.1035 20.5801C24.1035 22.5742 22.4941 24.1836 20.5 24.1836Z" fill="#E6ECFF"/>
<path d="M19.2988 22.9824H21.7012V37.3965H19.2988V22.9824Z" fill="#E6ECFF"/>
<path d="M20.5 22.9824H21.7012V37.3965H20.5V22.9824Z" fill="#E6ECFF"/>
<path d="M38.3252 23.151C37.0762 31.9674 29.4128 38.598 20.5 38.598C11.5872 38.598 3.92384 31.9674 2.6748 23.151L5.05306 22.8145C6.13412 30.43 12.7884 36.1956 20.5 36.1956C28.2116 36.1956 34.8659 30.43 35.9469 22.8145L38.3252 23.151Z" fill="#E6ECFF"/>
<path d="M6.08594 36.1953H34.9141V38.5977H6.08594V36.1953Z" fill="#E6ECFF"/>
<path d="M41 24.1836H33.7129V16.9766H41V24.1836Z" fill="#F93D66"/>
<path d="M37.3164 41C35.3295 41 33.7129 39.3834 33.7129 37.3965C33.7129 35.4095 35.3295 33.793 37.3164 33.793C39.3033 33.793 41 35.4095 41 37.3965C41 39.3834 39.3033 41 37.3164 41Z" fill="#FDB82C"/>
<path d="M3.68359 41C1.69666 41 0 39.3834 0 37.3965C0 35.4095 1.69666 33.793 3.68359 33.793C5.67053 33.793 7.28711 35.4095 7.28711 37.3965C7.28711 39.3834 5.67053 41 3.68359 41Z" fill="#FDB82C"/>
<path d="M7.28711 24.1836H0V16.9766H7.28711V24.1836Z" fill="#F93D66"/>
</g>
<defs>
<clipPath id="clip0_103_5858">
<rect width="41" height="41" fill="white"/>
</clipPath>
</defs>
</svg>
