<svg width="52" height="51" viewBox="0 0 52 51" fill="none" xmlns="http://www.w3.org/2000/svg">
<path d="M47.0705 18.8095V41.8228H4.93115V18.8095C4.93115 16.4462 6.88657 14.5381 9.29622 14.5381H42.7153C45.1249 14.5381 47.0705 16.4462 47.0705 18.8095Z" fill="#0C6DC2"/>
<path d="M47.0753 38.9881V41.826H4.93604V18.8128C4.93604 16.8563 6.26928 15.2194 8.09625 14.7061C7.96786 15.1032 7.89872 15.5293 7.89872 15.9749V33.4213C7.89872 36.4958 10.44 38.9881 13.5747 38.9881H47.0753Z" fill="#0087FF"/>
<path d="M44.7757 46.4896H7.22538C4.61427 46.4896 2.49756 44.4135 2.49756 41.8527V41.8223H49.5035V41.8527C49.5035 44.4135 47.3868 46.4896 44.7757 46.4896Z" fill="#0C6DC2"/>
<path d="M11.2266 46.4947H7.25664C4.62969 46.4947 2.49658 44.4026 2.49658 41.8262H6.46654C6.46654 44.4026 8.59971 46.4947 11.2266 46.4947Z" fill="#0087FF"/>
<path d="M7.89697 37.0276V19.3316C7.89697 18.2871 8.76028 17.4404 9.82522 17.4404H42.1825C43.2475 17.4404 44.1108 18.2871 44.1108 19.3316V37.0276C44.1108 38.0721 43.2475 38.9188 42.1825 38.9188H9.82522C8.76028 38.9188 7.89697 38.0721 7.89697 37.0276Z" fill="#6DEDD4"/>
<path d="M11.5524 38.9204H9.8242C8.75761 38.9204 7.89844 38.068 7.89844 37.0317V19.3359C7.89844 18.2898 8.75761 17.4375 9.8242 17.4375H11.5524C10.4858 17.4375 9.62667 18.2898 9.62667 19.3359V37.0317C9.62667 38.0777 10.4858 38.9204 11.5524 38.9204Z" fill="#FCB73E"/>
<path d="M31.3662 44.1565C31.3662 44.6504 30.9505 45.0581 30.4469 45.0581H21.5499C21.0463 45.0581 20.6387 44.6504 20.6387 44.1565C20.6387 43.6625 21.0463 43.2549 21.5499 43.2549H30.4469C30.9505 43.2549 31.3662 43.6625 31.3662 44.1565Z" fill="#DEDDFF"/>
<path d="M41.3914 6.6727V31.7467C41.3914 32.9439 40.4018 33.9145 39.1811 33.9145H12.8226C11.6019 33.9145 10.6123 32.9439 10.6123 31.7467V6.6727C10.6123 5.47545 11.6019 4.50488 12.8226 4.50488H39.1811C40.4018 4.50488 41.3914 5.47545 41.3914 6.6727Z" fill="#DEDDFF"/>
<path d="M14.9853 33.9126H12.8192C11.6035 33.9126 10.6089 32.9444 10.6089 31.7448V6.67563C10.6089 5.47613 11.6035 4.50781 12.8192 4.50781H14.9853C13.7623 4.50781 12.775 5.47613 12.775 6.67563V31.7448C12.775 32.9444 13.7623 33.9126 14.9853 33.9126Z" fill="#C6C6F7"/>
<path d="M41.3925 6.67563V9.68579H10.6089V6.67563C10.6089 5.47613 11.6035 4.50781 12.8192 4.50781H39.1821C40.4052 4.50781 41.3925 5.47613 41.3925 6.67563Z" fill="#FCB73E"/>
<path d="M14.9853 4.50781C13.7623 4.50781 12.775 5.47613 12.775 6.67563V9.68579H10.6089V6.67563C10.6089 5.47613 11.6035 4.50781 12.8192 4.50781H14.9853Z" fill="#E87F21"/>
<path d="M14.8413 7.65719C15.3046 7.65719 15.6802 7.28884 15.6802 6.83445C15.6802 6.38007 15.3046 6.01172 14.8413 6.01172C14.378 6.01172 14.0024 6.38007 14.0024 6.83445C14.0024 7.28884 14.378 7.65719 14.8413 7.65719Z" fill="#DEDDFF"/>
<path d="M17.6729 7.65719C18.1361 7.65719 18.5117 7.28884 18.5117 6.83445C18.5117 6.38007 18.1361 6.01172 17.6729 6.01172C17.2096 6.01172 16.834 6.38007 16.834 6.83445C16.834 7.28884 17.2096 7.65719 17.6729 7.65719Z" fill="#DEDDFF"/>
<path d="M20.5034 7.65719C20.9667 7.65719 21.3423 7.28884 21.3423 6.83445C21.3423 6.38007 20.9667 6.01172 20.5034 6.01172C20.0401 6.01172 19.6646 6.38007 19.6646 6.83445C19.6646 7.28884 20.0401 7.65719 20.5034 7.65719Z" fill="#DEDDFF"/>
<path d="M14.2789 15.9159L14.271 13.1708C14.269 12.4773 14.8417 11.9141 15.5488 11.9141H19.2117C19.9175 11.9141 20.4896 12.4752 20.4896 13.1673V15.9124C20.4896 16.6045 19.9175 17.1656 19.2117 17.1656H15.5567C14.8524 17.1656 14.2809 16.6067 14.2789 15.9159Z" fill="#E83D62"/>
<path d="M14.2789 23.5409L14.271 20.7959C14.269 20.1023 14.8417 19.5391 15.5488 19.5391H19.2117C19.9175 19.5391 20.4896 20.1002 20.4896 20.7923V23.5374C20.4896 24.2295 19.9175 24.7906 19.2117 24.7906H15.5567C14.8524 24.7906 14.2809 24.2317 14.2789 23.5409Z" fill="#65B9FF"/>
<path d="M14.2789 31.1669L14.271 28.4218C14.269 27.7283 14.8417 27.165 15.5488 27.165H19.2117C19.9175 27.165 20.4896 27.7261 20.4896 28.4183V31.1634C20.4896 31.8555 19.9175 32.4166 19.2117 32.4166H15.5567C14.8524 32.4166 14.2809 31.8577 14.2789 31.1669Z" fill="#46CC6B"/>
<path d="M16.8836 17.1659H15.559C14.8544 17.1659 14.2813 16.6038 14.2813 15.9128L14.272 13.1671C14.272 12.4761 14.845 11.9141 15.5496 11.9141H16.8742C16.1696 11.9141 15.5966 12.4761 15.5966 13.1671L15.606 15.9128C15.606 16.6038 16.179 17.1659 16.8836 17.1659Z" fill="#CE2955"/>
<path d="M16.8836 24.7948H15.559C14.8544 24.7948 14.2813 24.2328 14.2813 23.5418L14.272 20.7961C14.272 20.1051 14.845 19.543 15.5496 19.543H16.8742C16.1696 19.543 15.5966 20.1051 15.5966 20.7961L15.606 23.5418C15.606 24.2328 16.179 24.7948 16.8836 24.7948Z" fill="#3E7FFF"/>
<path d="M16.8836 32.4149H15.559C14.8544 32.4149 14.2813 31.8621 14.2813 31.171L14.272 28.4254C14.272 27.7251 14.845 27.1631 15.5496 27.1631H16.8742C16.1696 27.1631 15.5966 27.7251 15.5966 28.4254L15.606 31.171C15.606 31.8621 16.179 32.4149 16.8836 32.4149Z" fill="#179C5F"/>
<path d="M24.4775 15.8694V15.8298C24.4775 15.6252 24.6476 15.4609 24.8532 15.4609H24.9202C25.127 15.4609 25.2963 15.627 25.2963 15.8298V15.8694C25.2963 16.0715 25.1275 16.2379 24.9202 16.2379H24.8532C24.6492 16.2379 24.4775 16.0754 24.4775 15.8694Z" fill="#5B5E8B"/>
<path d="M24.9198 16.3345H24.8527C24.5873 16.3345 24.3794 16.1208 24.3794 15.8699V15.8304C24.3794 15.5772 24.5886 15.3652 24.8527 15.3652H24.9198C25.1852 15.3652 25.3941 15.578 25.3941 15.8304V15.8699C25.3941 16.1206 25.1865 16.3345 24.9198 16.3345ZM24.8527 15.5579C24.6996 15.5579 24.5749 15.682 24.5749 15.8304V15.8699C24.5749 16.0154 24.6976 16.1419 24.8527 16.1419H24.9198C25.0779 16.1419 25.1986 16.0138 25.1986 15.8699V15.8304C25.1986 15.6851 25.0768 15.5579 24.9198 15.5579H24.8527Z" fill="#5B5E8B"/>
<path d="M26.0142 14.5401C26.0142 13.4619 26.8292 12.7959 27.8063 12.7959C28.1693 12.7959 28.5024 12.8632 28.9004 13.1117C29.0618 13.2148 29.0743 13.399 28.9573 13.5229C28.8663 13.6209 28.7456 13.6265 28.632 13.5661C28.2745 13.3853 28.1186 13.3551 27.86 13.3551C27.0648 13.3551 26.6252 13.8521 26.6252 14.5401C26.6252 15.2248 27.0616 15.7251 27.86 15.7251C28.1208 15.7251 28.2773 15.6935 28.632 15.5141C28.7464 15.4533 28.8656 15.4594 28.9573 15.5573C29.0742 15.6822 29.0621 15.8653 28.9004 15.9685C28.4988 16.2193 28.165 16.2844 27.8063 16.2844C26.8313 16.2844 26.0142 15.6177 26.0142 14.5401Z" fill="#5B5E8B"/>
<path d="M27.8064 16.3805C26.7732 16.3805 25.916 15.6664 25.916 14.5401C25.916 13.4239 26.7614 12.6992 27.8064 12.6992C28.1909 12.6992 28.5449 12.7751 28.9533 13.0305C29.1635 13.1648 29.1876 13.4199 29.029 13.5887C28.9121 13.7136 28.7454 13.7338 28.5854 13.6511C28.248 13.4812 28.1126 13.4515 27.8601 13.4515C27.1182 13.4515 26.7228 13.905 26.7228 14.5401C26.7228 15.1685 27.1117 15.6288 27.8601 15.6288C28.1053 15.6288 28.2499 15.5991 28.5863 15.4286C28.7387 15.3473 28.9083 15.3652 29.029 15.492C29.1858 15.6577 29.1657 15.9126 28.9543 16.0488C28.5422 16.3045 28.1951 16.3805 27.8064 16.3805ZM27.8064 12.8919C26.8703 12.8919 26.1115 13.5287 26.1115 14.5401C26.1115 15.5629 26.8861 16.1879 27.8064 16.1879C28.1546 16.1879 28.469 16.1236 28.8479 15.8872C28.9566 15.8178 28.9609 15.7037 28.8853 15.6231C28.8253 15.5584 28.7558 15.5576 28.6783 15.5987C28.3176 15.781 28.1446 15.8214 27.8601 15.8214C27.0056 15.8214 26.5273 15.2774 26.5273 14.5401C26.5273 13.8039 27.0037 13.2588 27.8601 13.2588C28.142 13.2588 28.312 13.2963 28.6764 13.4806C28.7607 13.5248 28.8249 13.5229 28.8843 13.458C28.9616 13.3759 28.9567 13.2623 28.847 13.1926C28.4814 12.9642 28.1696 12.8919 27.8064 12.8919Z" fill="#5B5E8B"/>
<path d="M29.5649 14.5401C29.5649 13.5081 30.225 12.7959 31.2833 12.7959C32.3449 12.7959 33.0016 13.5275 33.0016 14.5401C33.0016 15.5626 32.3355 16.2844 31.2833 16.2844C30.2266 16.2844 29.5649 15.5737 29.5649 14.5401ZM32.3906 14.5334C32.3906 13.7673 31.8957 13.3421 31.2833 13.3421C30.655 13.3421 30.1759 13.7589 30.1759 14.5334C30.1759 15.3246 30.6694 15.7382 31.2833 15.7382C31.878 15.7382 32.3906 15.3186 32.3906 14.5334Z" fill="#5B5E8B"/>
<path d="M31.283 16.3805C30.177 16.3805 29.4673 15.6315 29.4673 14.5401C29.4673 13.4472 30.1774 12.6992 31.283 12.6992C32.38 12.6992 33.0996 13.4547 33.0996 14.5401C33.0996 15.6197 32.385 16.3805 31.283 16.3805ZM31.283 12.8919C30.269 12.8919 29.6627 13.5729 29.6627 14.5401C29.6627 15.5167 30.2779 16.1879 31.283 16.1879C32.288 16.1879 32.9041 15.4993 32.9041 14.5401C32.9041 13.5864 32.2942 12.8919 31.283 12.8919ZM31.283 15.8346C30.6095 15.8346 30.0776 15.3717 30.0776 14.5331C30.0776 12.7996 32.4883 12.8144 32.4883 14.5331C32.4883 15.3799 31.9228 15.8346 31.283 15.8346ZM31.283 13.4383C30.6942 13.4383 30.2731 13.8281 30.2731 14.5331C30.2731 16.0284 32.2928 16.0126 32.2928 14.5331C32.2928 13.8285 31.8493 13.4383 31.283 13.4383Z" fill="#5B5E8B"/>
<path d="M33.853 15.9555V13.1315C33.853 12.9651 33.9823 12.8287 34.1549 12.8287C34.3251 12.8287 34.4636 12.9626 34.4636 13.1315V13.4015C34.8088 12.9178 35.1891 12.7959 35.6048 12.7959C36.1114 12.7959 36.4817 13.1024 36.6314 13.4739C36.909 13.0217 37.3204 12.7959 37.8663 12.7959C38.5972 12.7959 38.9874 13.3905 38.9874 14.0596V15.9555C38.9874 16.1244 38.8482 16.2515 38.6787 16.2515C38.5026 16.2515 38.3764 16.1179 38.3764 15.9555V14.178C38.3764 13.6453 38.2227 13.3488 37.692 13.3488C37.3558 13.3488 37.043 13.4667 36.7255 13.9805V15.9555C36.7255 16.1245 36.5866 16.2515 36.4168 16.2515C36.2474 16.2515 36.1149 16.1247 36.1149 15.9555V14.178C36.1149 13.6425 35.9582 13.3488 35.4301 13.3488C35.0932 13.3488 34.7805 13.4677 34.4636 13.9805V15.9555C34.4636 16.1245 34.3247 16.2515 34.1549 16.2515C33.9855 16.2515 33.853 16.1247 33.853 15.9555Z" fill="#5B5E8B"/>
<path d="M38.6788 16.3476C38.4531 16.3476 38.2792 16.178 38.2792 15.9553V14.1779C38.2792 13.5899 38.0737 13.4449 37.6919 13.4449C37.3943 13.4449 37.1183 13.5446 36.8238 14.0078V15.9553C36.8238 16.4634 36.0171 16.4829 36.0171 15.9553V14.1779C36.0171 13.5884 35.81 13.4449 35.4307 13.4449C35.131 13.4449 34.8558 13.5452 34.5617 14.0078V15.9553C34.5617 16.4634 33.7559 16.4841 33.7559 15.9553V13.1315C33.7559 12.5967 34.5617 12.6149 34.5617 13.1315V13.1329C34.8558 12.8323 35.1487 12.6992 35.6051 12.6992C36.0752 12.6992 36.4409 12.9382 36.6446 13.2809C36.9369 12.8947 37.347 12.6992 37.8663 12.6992C38.6524 12.6992 39.085 13.3357 39.085 14.0595V15.9553C39.085 16.1827 38.8992 16.3476 38.6788 16.3476ZM37.6919 13.2522C38.2835 13.2522 38.4747 13.5964 38.4747 14.1779V15.9553C38.4747 16.2277 38.8896 16.2147 38.8896 15.9553V14.0595C38.8896 13.4484 38.5434 12.8919 37.8663 12.8919C37.3527 12.8919 36.9762 13.0981 36.7155 13.5233L36.613 13.6901L36.5402 13.5088C36.406 13.1752 36.0718 12.8919 35.6051 12.8919C35.2114 12.8919 34.865 13.0069 34.5444 13.4566L34.3662 13.7056V13.1315C34.3662 12.8686 33.9513 12.8491 33.9513 13.1315V15.9553C33.9513 16.2301 34.3662 16.2104 34.3662 15.9553V13.9537L34.3796 13.9307C34.7116 13.3923 35.0573 13.2522 35.4307 13.2522C36.0228 13.2522 36.2125 13.5977 36.2125 14.1779V15.9553C36.2125 16.2284 36.6284 16.212 36.6284 15.9553V13.9537L36.6418 13.9307C36.9738 13.3922 37.3199 13.2522 37.6919 13.2522Z" fill="#5B5E8B"/>
<path d="M24.4932 23.8492V23.8083C24.4932 23.5982 24.6679 23.4268 24.8822 23.4268H24.9519C25.1661 23.4268 25.3409 23.5981 25.3409 23.8083V23.8492C25.3409 24.0607 25.1656 24.2307 24.9519 24.2307H24.8822C24.6683 24.2307 24.4932 24.0606 24.4932 23.8492Z" fill="#5B5E8B"/>
<path d="M24.9522 24.3266H24.8822C24.6146 24.3266 24.3955 24.1118 24.3955 23.8488V23.8079C24.3955 23.5411 24.6176 23.3301 24.8822 23.3301H24.9522C25.217 23.3301 25.4389 23.5413 25.4389 23.8079V23.8488C25.4389 24.1166 25.2168 24.3266 24.9522 24.3266ZM24.8822 24.134H24.9522C25.1146 24.134 25.2435 24.0037 25.2435 23.8488V23.8079C25.2435 23.6529 25.1135 23.5227 24.9522 23.5227H24.8822C24.7181 23.5227 24.591 23.6554 24.591 23.8079V23.8488C24.591 24.0041 24.7203 24.134 24.8822 24.134Z" fill="#5B5E8B"/>
<path d="M26.3696 23.9377V21.0143C26.3696 20.8413 26.5044 20.7007 26.682 20.7007C26.8572 20.7007 27.0017 20.8395 27.0017 21.0143V21.2937C27.4587 20.7989 27.8638 20.667 28.2939 20.667C29.0788 20.667 29.5375 21.2672 29.5375 22.0023V23.9377C29.5375 24.1166 29.3898 24.2445 29.2182 24.2445C29.0424 24.2445 28.9054 24.1126 28.9054 23.9377V22.0706C28.9054 21.5164 28.6508 21.2393 28.1412 21.2393C27.6562 21.2393 27.3038 21.5207 27.0017 21.8934V23.9377C27.0017 24.1155 26.8544 24.2445 26.682 24.2445C26.508 24.2445 26.3696 24.1147 26.3696 23.9377Z" fill="#5B5E8B"/>
<path d="M29.2178 24.3414C28.995 24.3414 28.8077 24.1742 28.8077 23.9383V22.0711C28.8077 21.5697 28.5959 21.3362 28.1408 21.3362C27.6973 21.3362 27.3786 21.592 27.0993 21.9278V23.9383C27.0993 24.4633 26.2715 24.4803 26.2715 23.9383V21.0148C26.2715 20.4716 27.0993 20.4785 27.0993 21.0148V21.0599C27.4987 20.699 27.8533 20.5713 28.2941 20.5713C29.1249 20.5713 29.6355 21.2045 29.6355 22.0025V23.9383C29.6355 24.1684 29.4469 24.3414 29.2178 24.3414ZM28.1408 21.1436C28.5346 21.1436 29.0031 21.3047 29.0031 22.0711V23.9383C29.0031 24.2209 29.44 24.2135 29.44 23.9383V22.0025C29.44 21.3322 29.0329 20.7639 28.2941 20.7639C27.9003 20.7639 27.5138 20.881 27.0744 21.3588L26.9039 21.5434V21.0148C26.9039 20.7294 26.4669 20.7249 26.4669 21.0148V23.9383C26.4669 24.2267 26.9039 24.2078 26.9039 23.9383V21.8601L26.9249 21.8343C27.2475 21.4366 27.6247 21.1436 28.1408 21.1436Z" fill="#5B5E8B"/>
<path d="M30.3853 22.4729C30.3853 21.4699 30.9644 20.667 32.0458 20.667C33.0806 20.667 33.6994 21.4375 33.6994 22.3842C33.6994 22.5523 33.5803 22.6906 33.3797 22.6906H31.0247C31.0976 23.3223 31.5044 23.6993 32.2403 23.6993C32.5709 23.6993 32.8507 23.649 33.1784 23.4878C33.2709 23.443 33.4015 23.4486 33.4981 23.5355C33.6159 23.6425 33.6315 23.8482 33.4008 23.9786C32.9671 24.2183 32.6545 24.2783 32.1848 24.2783C31.0557 24.2783 30.3853 23.6226 30.3853 22.4729ZM33.0742 22.1863C33.0329 21.5399 32.5565 21.1916 32.0458 21.1916C31.5194 21.1916 31.0647 21.5402 31.0247 22.1863H33.0742Z" fill="#5B5E8B"/>
<path d="M32.1842 24.3752C31.0335 24.3752 30.2871 23.7075 30.2871 22.4733C30.2871 21.4232 30.9027 20.5713 32.0453 20.5713C33.1379 20.5713 33.7968 21.3856 33.7968 22.3845C33.7968 22.6045 33.6365 22.7871 33.38 22.7871H31.1389C31.2468 23.3527 31.6508 23.6033 32.2398 23.6033C32.5656 23.6033 32.8276 23.5533 33.1337 23.4022C33.2688 23.3369 33.4461 23.358 33.5639 23.4651C33.7258 23.611 33.7438 23.8956 33.4499 24.0623C33.0017 24.3089 32.6803 24.3752 32.1842 24.3752ZM32.0453 20.7639C31.0284 20.7639 30.4826 21.5175 30.4826 22.4733C30.4826 23.5587 31.1021 24.1826 32.1842 24.1826C32.6424 24.1826 32.9367 24.1251 33.3531 23.895C33.5123 23.805 33.5116 23.681 33.4317 23.607C33.3704 23.5521 33.2832 23.5441 33.2209 23.5746C32.8835 23.7412 32.5875 23.7959 32.2398 23.7959C31.4444 23.7959 31.0047 23.3733 30.9271 22.7016L30.9147 22.5945H33.38C33.5227 22.5945 33.6013 22.503 33.6013 22.3845C33.6013 21.4873 33.0252 20.7639 32.0453 20.7639ZM33.1788 22.283H30.9204L30.9271 22.181C31.0143 20.7338 33.0795 20.7342 33.1721 22.1805L33.1788 22.283ZM31.1331 22.0903H32.9661C32.8132 21.0282 31.2754 21.0125 31.1331 22.0903Z" fill="#5B5E8B"/>
<path d="M34.7417 23.379V21.2668H34.2486C34.1233 21.2668 34.0613 21.1111 34.1788 21.0212L35.1238 20.1151C35.2482 19.993 35.3738 20.0796 35.3738 20.1902V20.735H36.1591C36.3148 20.735 36.4302 20.844 36.4302 21.0009C36.4302 21.1403 36.3231 21.2668 36.1591 21.2668H35.3738V23.3246C35.3738 23.5019 35.4169 23.6143 35.5027 23.662C35.7251 23.7864 35.9828 23.7182 36.1623 23.6791C36.2706 23.656 36.3522 23.6837 36.416 23.7435C36.5303 23.8506 36.5302 24.0551 36.3329 24.156C36.1522 24.2379 35.96 24.2784 35.7559 24.2784C35.0797 24.2784 34.7417 23.9787 34.7417 23.379Z" fill="#5B5E8B"/>
<path d="M35.7563 24.3748C35.0281 24.3748 34.6439 24.0304 34.6439 23.3787V21.363H34.2482C34.0278 21.363 33.9287 21.0896 34.1188 20.9449L35.0549 20.0465C35.2399 19.8637 35.4717 19.9944 35.4717 20.1903V20.6385H36.1587C36.3654 20.6385 36.5276 20.7881 36.5276 21.0008C36.5276 21.1947 36.3764 21.363 36.1587 21.363H35.4717V23.3247C35.4717 23.4595 35.5005 23.5498 35.5513 23.5784C35.7735 23.702 36.0371 23.5991 36.1357 23.5864C36.266 23.5587 36.3858 23.5826 36.4835 23.6738C36.6404 23.8194 36.64 24.1073 36.3781 24.2414C36.1808 24.3307 35.9728 24.3748 35.7563 24.3748ZM35.2437 20.1551C35.2274 20.1551 35.213 20.1635 35.1939 20.1828L34.2482 21.0896C34.1911 21.1339 34.214 21.1704 34.2482 21.1704H34.8394V23.3787C34.8394 23.9271 35.1306 24.1822 35.7563 24.1822C35.947 24.1822 36.1223 24.1451 36.2919 24.0685C36.4186 24.0037 36.4184 23.8778 36.3484 23.8133C36.2948 23.7635 36.2258 23.7626 36.1827 23.7734C36.0845 23.7851 35.751 23.9114 35.4535 23.7457C35.3357 23.6794 35.2763 23.5375 35.2763 23.3247V21.1704H36.1587C36.2648 21.1704 36.3321 21.0903 36.3321 21.0008C36.3321 20.8956 36.2585 20.8312 36.1587 20.8312H35.2763V20.1903C35.2763 20.1818 35.2744 20.1715 35.2629 20.1588C35.2562 20.1565 35.2494 20.1551 35.2437 20.1551Z" fill="#5B5E8B"/>
<path d="M24.4834 30.3715V30.3314C24.4834 30.1239 24.6548 29.958 24.8637 29.958H24.932C25.1426 29.958 25.3128 30.1263 25.3128 30.3314V30.3715C25.3128 30.5753 25.1433 30.7444 24.932 30.7444H24.8637C24.654 30.7444 24.4834 30.5775 24.4834 30.3715Z" fill="#5B5E8B"/>
<path d="M24.9324 30.8405H24.8634C24.6023 30.8405 24.3862 30.6337 24.3862 30.3711V30.3312C24.3862 30.0679 24.6024 29.8613 24.8634 29.8613H24.9324C25.1944 29.8613 25.4105 30.0698 25.4105 30.3312V30.3711C25.4105 30.6328 25.1936 30.8405 24.9324 30.8405ZM24.8634 30.054C24.7065 30.054 24.5817 30.1793 24.5817 30.3312V30.3711C24.5817 30.5237 24.7076 30.6479 24.8634 30.6479H24.9324C25.0886 30.6479 25.215 30.5222 25.215 30.3711V30.3312C25.215 30.1791 25.0882 30.054 24.9324 30.054H24.8634Z" fill="#5B5E8B"/>
<path d="M26.04 29.0245C26.04 27.981 26.7062 27.2578 27.7804 27.2578C28.8452 27.2578 29.5207 27.9874 29.5207 29.0245C29.5207 30.0584 28.8485 30.7913 27.7804 30.7913C26.6959 30.7913 26.04 30.0568 26.04 29.0245ZM28.9019 29.0178C28.9019 28.2393 28.4081 27.8112 27.7804 27.8112C27.1509 27.8112 26.6588 28.2358 26.6588 29.0178C26.6588 29.8118 27.1607 30.2379 27.7804 30.2379C28.3882 30.2379 28.9019 29.8105 28.9019 29.0178Z" fill="#5B5E8B"/>
<path d="M27.7801 30.8871C26.64 30.8871 25.9424 30.1071 25.9424 29.0241C25.9424 27.93 26.65 27.1611 27.7801 27.1611C28.8957 27.1611 29.6188 27.9286 29.6188 29.0241C29.6188 30.1144 28.901 30.8871 27.7801 30.8871ZM27.7801 27.3538C26.7576 27.3538 26.1378 28.0405 26.1378 29.0241C26.1378 30.0045 26.7545 30.6944 27.7801 30.6944C28.7921 30.6944 29.4233 30.0054 29.4233 29.0241C29.4233 28.0462 28.7951 27.3538 27.7801 27.3538ZM27.7801 30.3341C27.1075 30.3341 26.5613 29.8673 26.5613 29.0175C26.5613 27.264 28.9998 27.2777 28.9998 29.0175C28.9998 29.8589 28.4464 30.3341 27.7801 30.3341ZM27.7801 27.9073C27.2114 27.9073 26.7568 28.2787 26.7568 29.0175C26.7568 30.5346 28.8043 30.5173 28.8043 29.0175C28.8043 28.3066 28.3669 27.9073 27.7801 27.9073Z" fill="#5B5E8B"/>
<path d="M30.3843 30.4579V27.5979C30.3843 27.4319 30.5121 27.2911 30.6902 27.2911C30.8626 27.2911 31.0026 27.4266 31.0026 27.5979V27.8845C31.32 27.4666 31.676 27.2578 32.07 27.2578H32.104C32.282 27.2578 32.4031 27.3926 32.4031 27.5579C32.4031 27.7308 32.269 27.8445 32.0907 27.8445H32.0563C31.6093 27.8445 31.2405 28.0772 31.0026 28.4311V30.4579C31.0026 30.634 30.8568 30.758 30.6902 30.758C30.517 30.758 30.3843 30.6282 30.3843 30.4579Z" fill="#5B5E8B"/>
<path d="M30.69 30.8542C30.4632 30.8542 30.2866 30.6818 30.2866 30.4576V27.5976C30.2866 27.0627 31.1001 27.0694 31.1001 27.5976V27.6188C31.3923 27.3148 31.7171 27.1611 32.0697 27.1611H32.1042C32.3359 27.1611 32.5009 27.3384 32.5009 27.5577C32.5009 27.7873 32.3191 27.9406 32.0908 27.9406H32.0563C31.6586 27.9406 31.3248 28.1419 31.1001 28.4603V30.4576C31.1001 30.6853 30.913 30.8542 30.69 30.8542ZM30.69 27.3871C30.5674 27.3871 30.4821 27.4826 30.4821 27.5976V30.4576C30.4821 30.7261 30.9046 30.7272 30.9046 30.4576V28.4016L30.9209 28.3776C31.1781 27.9964 31.5752 27.748 32.0563 27.748H32.0908C32.2124 27.748 32.3054 27.6779 32.3054 27.5577C32.3054 27.4493 32.2299 27.3538 32.1042 27.3538H32.0697C31.7095 27.3538 31.377 27.5516 31.0809 27.9416L30.9046 28.1746V27.5976C30.9046 27.4794 30.8081 27.3871 30.69 27.3871Z" fill="#5B5E8B"/>
<path d="M33.0487 31.9781C32.9043 31.8909 32.884 31.6823 33.0046 31.5547C33.0797 31.4746 33.187 31.4464 33.3207 31.498C33.6652 31.6667 34.039 31.7513 34.4427 31.7513C35.1358 31.7513 35.4826 31.3892 35.4826 30.6648V30.2181C35.1606 30.556 34.7734 30.7247 34.3202 30.7247C33.4675 30.7247 32.6748 30.0814 32.6748 28.9912C32.6748 27.9113 33.4723 27.2578 34.3202 27.2578C34.7734 27.2578 35.1606 27.4265 35.4826 27.7644V27.5979C35.4826 27.4327 35.6102 27.2911 35.7885 27.2911C35.9627 27.2911 36.1014 27.429 36.1014 27.5979V30.578C36.1014 31.642 35.5798 32.3249 34.5037 32.3249C33.9457 32.3249 33.3708 32.1604 33.0487 31.9781ZM35.4826 29.6778V28.3043C35.0875 27.906 34.771 27.8112 34.4491 27.8112C33.7884 27.8112 33.2936 28.2082 33.2936 28.9912C33.2936 29.7679 33.7819 30.1713 34.4491 30.1713C34.7739 30.1713 35.0911 30.0735 35.4826 29.6778Z" fill="#5B5E8B"/>
<path d="M34.504 32.4212C33.9188 32.4212 33.3264 32.2467 32.9997 32.0608C32.7968 31.9397 32.7735 31.6565 32.9326 31.4885C33.039 31.3786 33.1741 31.3377 33.3571 31.4086C33.6934 31.5731 34.0565 31.6548 34.4426 31.6548C35.0846 31.6548 35.3845 31.34 35.3845 30.6644V30.4421C35.0788 30.6935 34.7224 30.8208 34.32 30.8208C33.4251 30.8208 32.5771 30.149 32.5771 28.9908C32.5771 27.8511 33.4253 27.1611 34.32 27.1611C34.7234 27.1611 35.0817 27.2894 35.3874 27.5427C35.4526 27.0497 36.1989 27.1019 36.1989 27.5976V30.5779C36.1989 31.6829 35.6437 32.4212 34.504 32.4212ZM33.0763 31.6201C32.9991 31.6999 33.0066 31.8398 33.0993 31.8954C33.4139 32.0732 33.9747 32.2285 34.504 32.2285C35.5166 32.2285 36.0034 31.5951 36.0034 30.5779V27.5976C36.0034 27.3204 35.5799 27.3163 35.5799 27.5976V28.0078L35.4104 27.8297C35.1057 27.5093 34.7483 27.3538 34.32 27.3538C33.5542 27.3538 32.7726 27.929 32.7726 28.9908C32.7726 30.0384 33.5361 30.6282 34.32 30.6282C35.125 30.6282 35.4511 30.0755 35.5799 29.9742V30.6644C35.5799 31.4382 35.1871 31.8475 34.4426 31.8475C34.0259 31.8475 33.633 31.7587 33.2766 31.5839C33.202 31.5554 33.1304 31.5618 33.0763 31.6201ZM34.4493 30.2673C33.7389 30.2673 33.1961 29.8328 33.1961 28.9908C33.1961 28.1508 33.7373 27.7146 34.4493 27.7146C34.804 27.7146 35.1445 27.8258 35.5522 28.2366L35.5799 28.2648V29.7167L35.5522 29.7449C35.1432 30.157 34.8036 30.2673 34.4493 30.2673ZM34.4493 27.9073C33.8438 27.9073 33.3916 28.2568 33.3916 28.9908C33.3916 29.7217 33.8405 30.0747 34.4493 30.0747C34.7427 30.0747 35.0196 29.9923 35.3845 29.6382V28.3433C35.021 27.9906 34.7426 27.9073 34.4493 27.9073Z" fill="#5B5E8B"/>
<path d="M16.9514 15.1713L16.3062 14.5385C16.1746 14.4095 16.1746 14.2005 16.3062 14.0715C16.4377 13.9425 16.6507 13.9425 16.7822 14.0715L17.1894 14.4709L18.242 13.4385C18.3736 13.3096 18.5866 13.3096 18.7181 13.4385C18.8496 13.5675 18.8496 13.7765 18.7181 13.9055L17.4275 15.1713C17.296 15.3003 17.0829 15.3003 16.9514 15.1713Z" fill="#DEDDFF"/>
<path d="M16.9514 23.0521L16.3062 22.4193C16.1746 22.2903 16.1746 22.0814 16.3062 21.9524C16.4377 21.8234 16.6507 21.8234 16.7822 21.9524L17.1894 22.3518L18.242 21.3194C18.3736 21.1904 18.5866 21.1904 18.7181 21.3194C18.8496 21.4484 18.8496 21.6573 18.7181 21.7863L17.4275 23.0521C17.296 23.1811 17.0829 23.1811 16.9514 23.0521Z" fill="#DEDDFF"/>
<path d="M16.9514 30.933L16.3062 30.3002C16.1746 30.1712 16.1746 29.9622 16.3062 29.8332C16.4377 29.7043 16.6507 29.7043 16.7822 29.8332L17.1894 30.2326L18.242 29.2003C18.3736 29.0713 18.5866 29.0713 18.7181 29.2003C18.8496 29.3292 18.8496 29.5382 18.7181 29.6672L17.4275 30.933C17.296 31.062 17.0829 31.062 16.9514 30.933Z" fill="#DEDDFF"/>
</svg>
