<svg width="60" height="60" viewBox="0 0 60 60" fill="none" xmlns="http://www.w3.org/2000/svg">
<g clip-path="url(#clip0_211_1736)">
<path fill-rule="evenodd" clip-rule="evenodd" d="M46.5086 41.9496C46.1207 41.9496 45.8066 41.6355 45.8066 41.2477V30.273H14.6383V41.1129C14.6383 41.5008 14.323 41.8148 13.9363 41.8148C13.5484 41.8148 13.2344 41.5008 13.2344 41.1129V29.5711C13.2344 29.1832 13.5484 28.8691 13.9363 28.8691H46.5086C46.8965 28.8691 47.2105 29.1832 47.2105 29.5711V41.2477C47.2105 41.6355 46.8965 41.9496 46.5086 41.9496Z" fill="#6F6F71"/>
<path fill-rule="evenodd" clip-rule="evenodd" d="M16.8047 17.5652H13.8949C13.7467 17.5652 13.6045 17.5063 13.4997 17.4015C13.3948 17.2967 13.3359 17.1545 13.3359 17.0062V13.3734C13.3359 13.2252 13.3948 13.083 13.4997 12.9782C13.6045 12.8733 13.7467 12.8145 13.8949 12.8145H16.8047C17.1129 12.8145 17.3637 13.0652 17.3637 13.3734V17.0062C17.3637 17.1545 17.3048 17.2967 17.1999 17.4015C17.0951 17.5063 16.9529 17.5652 16.8047 17.5652ZM49.0418 17.5652H46.132C45.8238 17.5652 45.573 17.3145 45.573 17.0062V13.3734C45.573 13.0652 45.8238 12.8145 46.132 12.8145H49.0418C49.19 12.8145 49.3322 12.8733 49.4371 12.9782C49.5419 13.083 49.6008 13.2252 49.6008 13.3734V17.0062C49.6008 17.3156 49.3512 17.5652 49.0418 17.5652Z" fill="#375DBF"/>
<path fill-rule="evenodd" clip-rule="evenodd" d="M53.7652 13.9324H9.16602C8.30352 13.9324 7.60156 13.2316 7.60156 12.3691V1.56445C7.60156 0.701953 8.30352 0 9.16602 0H53.7652C54.6277 0 55.3297 0.701953 55.3297 1.56445V12.3691C55.3297 13.2316 54.6277 13.9324 53.7652 13.9324Z" fill="#0087FF"/>
<path fill-rule="evenodd" clip-rule="evenodd" d="M31.4598 7.52559H15.6266C15.3758 8.53809 14.4594 9.29043 13.3707 9.29043C12.0887 9.29043 11.0469 8.24863 11.0469 6.9666C11.0469 5.68457 12.0887 4.6416 13.3707 4.6416C14.4594 4.6416 15.3758 5.39512 15.6266 6.40762H31.4598C31.608 6.40762 31.7502 6.46651 31.855 6.57134C31.9599 6.67617 32.0188 6.81835 32.0188 6.9666C32.0188 7.11485 31.9599 7.25703 31.855 7.36186C31.7502 7.46669 31.608 7.52559 31.4598 7.52559Z" fill="white"/>
<path fill-rule="evenodd" clip-rule="evenodd" d="M37.3824 4.4002H35.9691C35.8209 4.4002 35.6787 4.3413 35.5739 4.23647C35.469 4.13164 35.4102 3.98946 35.4102 3.84121C35.4102 3.69296 35.469 3.55078 35.5739 3.44595C35.6787 3.34112 35.8209 3.28223 35.9691 3.28223H37.3824C37.5307 3.28223 37.6729 3.34112 37.7777 3.44595C37.8825 3.55078 37.9414 3.69296 37.9414 3.84121C37.9414 3.98946 37.8825 4.13164 37.7777 4.23647C37.6729 4.3413 37.5307 4.4002 37.3824 4.4002ZM40.8687 4.4002H39.4566C39.1473 4.4002 38.8965 4.14941 38.8965 3.84121C38.8965 3.53184 39.1473 3.28223 39.4566 3.28223H40.8687C40.9422 3.28223 41.0148 3.29669 41.0827 3.32478C41.1505 3.35287 41.2121 3.39404 41.264 3.44595C41.3159 3.49786 41.3571 3.55948 41.3852 3.6273C41.4133 3.69512 41.4277 3.7678 41.4277 3.84121C41.4277 3.91462 41.4133 3.98731 41.3852 4.05512C41.3571 4.12294 41.3159 4.18457 41.264 4.23647C41.2121 4.28838 41.1505 4.32955 41.0827 4.35765C41.0148 4.38574 40.9422 4.4002 40.8687 4.4002ZM44.3551 4.4002H42.943C42.6336 4.4002 42.3828 4.14941 42.3828 3.84121C42.3828 3.53184 42.6336 3.28223 42.943 3.28223H44.3551C44.4285 3.28223 44.5012 3.29669 44.569 3.32478C44.6368 3.35287 44.6984 3.39404 44.7503 3.44595C44.8022 3.49786 44.8434 3.55948 44.8715 3.6273C44.8996 3.69512 44.9141 3.7678 44.9141 3.84121C44.9141 3.91462 44.8996 3.98731 44.8715 4.05512C44.8434 4.12294 44.8022 4.18457 44.7503 4.23647C44.6984 4.28838 44.6368 4.32955 44.569 4.35765C44.5012 4.38574 44.4285 4.4002 44.3551 4.4002ZM47.8414 4.4002H46.4293C46.1199 4.4002 45.8691 4.14941 45.8691 3.84121C45.8691 3.53184 46.1199 3.28223 46.4293 3.28223H47.8414C48.1508 3.28223 48.4004 3.53184 48.4004 3.84121C48.4004 3.98946 48.3415 4.13164 48.2367 4.23647C48.1318 4.3413 47.9897 4.4002 47.8414 4.4002ZM51.3277 4.4002H49.9156C49.7674 4.4002 49.6252 4.3413 49.5204 4.23647C49.4155 4.13164 49.3566 3.98946 49.3566 3.84121C49.3566 3.53184 49.6062 3.28223 49.9156 3.28223H51.3277C51.6371 3.28223 51.8867 3.53184 51.8867 3.84121C51.8867 3.98946 51.8278 4.13164 51.723 4.23647C51.6182 4.3413 51.476 4.4002 51.3277 4.4002ZM37.3824 7.52559H35.9691C35.8227 7.52259 35.6833 7.46232 35.5808 7.3577C35.4783 7.25309 35.4209 7.11247 35.4209 6.96602C35.4209 6.81956 35.4783 6.67894 35.5808 6.57433C35.6833 6.46971 35.8227 6.40944 35.9691 6.40644H37.3824C37.5288 6.40944 37.6683 6.46971 37.7708 6.57433C37.8732 6.67894 37.9307 6.81956 37.9307 6.96602C37.9307 7.11247 37.8732 7.25309 37.7708 7.3577C37.6683 7.46232 37.5288 7.52259 37.3824 7.52559ZM40.8687 7.52559H39.4566C39.1473 7.52559 38.8965 7.2748 38.8965 6.9666C38.8965 6.81804 38.9555 6.67556 39.0605 6.57051C39.1656 6.46546 39.3081 6.40644 39.4566 6.40644H40.8687C41.0152 6.40944 41.1546 6.46971 41.2571 6.57433C41.3596 6.67894 41.417 6.81956 41.417 6.96602C41.417 7.11247 41.3596 7.25309 41.2571 7.3577C41.1546 7.46232 41.0152 7.52259 40.8687 7.52559ZM44.3551 7.52559H42.943C42.6336 7.52559 42.3828 7.2748 42.3828 6.9666C42.3828 6.81804 42.4418 6.67556 42.5469 6.57051C42.6519 6.46546 42.7944 6.40644 42.943 6.40644H44.3551C44.5015 6.40944 44.6409 6.46971 44.7434 6.57433C44.8459 6.67894 44.9033 6.81956 44.9033 6.96602C44.9033 7.11247 44.8459 7.25309 44.7434 7.3577C44.6409 7.46232 44.5015 7.52259 44.3551 7.52559ZM47.8414 7.52559H46.4293C46.1199 7.52559 45.8691 7.2748 45.8691 6.9666C45.8691 6.81804 45.9282 6.67556 46.0332 6.57051C46.1383 6.46546 46.2807 6.40644 46.4293 6.40644H47.8414C48.1508 6.40644 48.4004 6.65723 48.4004 6.9666C48.4004 7.11485 48.3415 7.25703 48.2367 7.36186C48.1318 7.46669 47.9897 7.52559 47.8414 7.52559ZM51.3277 7.52559H49.9156C49.7674 7.52559 49.6252 7.46669 49.5204 7.36186C49.4155 7.25703 49.3566 7.11485 49.3566 6.9666C49.3566 6.65723 49.6062 6.40644 49.9156 6.40644H51.3277C51.6371 6.40644 51.8867 6.65723 51.8867 6.9666C51.8867 7.11485 51.8278 7.25703 51.723 7.36186C51.6182 7.46669 51.476 7.52559 51.3277 7.52559ZM37.3824 10.651H35.9691C35.8227 10.648 35.6833 10.5877 35.5808 10.4831C35.4783 10.3785 35.4209 10.2379 35.4209 10.0914C35.4209 9.94495 35.4783 9.80433 35.5808 9.69972C35.6833 9.5951 35.8227 9.53483 35.9691 9.53183H37.3824C37.5288 9.53483 37.6683 9.5951 37.7708 9.69972C37.8732 9.80433 37.9307 9.94495 37.9307 10.0914C37.9307 10.2379 37.8732 10.3785 37.7708 10.4831C37.6683 10.5877 37.5288 10.648 37.3824 10.651ZM40.8687 10.651H39.4566C39.1473 10.651 38.8965 10.4002 38.8965 10.092C38.8965 9.94343 38.9555 9.80095 39.0605 9.6959C39.1656 9.59085 39.3081 9.53183 39.4566 9.53183H40.8687C41.0152 9.53483 41.1546 9.5951 41.2571 9.69972C41.3596 9.80433 41.417 9.94495 41.417 10.0914C41.417 10.2379 41.3596 10.3785 41.2571 10.4831C41.1546 10.5877 41.0152 10.648 40.8687 10.651ZM44.3551 10.651H42.943C42.6336 10.651 42.3828 10.4002 42.3828 10.092C42.3828 9.94343 42.4418 9.80095 42.5469 9.6959C42.6519 9.59085 42.7944 9.53183 42.943 9.53183H44.3551C44.5015 9.53483 44.6409 9.5951 44.7434 9.69972C44.8459 9.80433 44.9033 9.94495 44.9033 10.0914C44.9033 10.2379 44.8459 10.3785 44.7434 10.4831C44.6409 10.5877 44.5015 10.648 44.3551 10.651ZM47.8414 10.651H46.4293C46.1199 10.651 45.8691 10.4002 45.8691 10.092C45.8691 9.94343 45.9282 9.80095 46.0332 9.6959C46.1383 9.59085 46.2807 9.53183 46.4293 9.53183H47.8414C48.1508 9.53183 48.4004 9.78262 48.4004 10.092C48.4004 10.2402 48.3415 10.3824 48.2367 10.4873C48.1318 10.5921 47.9897 10.651 47.8414 10.651ZM51.3277 10.651H49.9156C49.7674 10.651 49.6252 10.5921 49.5204 10.4873C49.4155 10.3824 49.3566 10.2402 49.3566 10.092C49.3566 9.78262 49.6062 9.53183 49.9156 9.53183H51.3277C51.6371 9.53183 51.8867 9.78262 51.8867 10.092C51.8867 10.2402 51.8278 10.3824 51.723 10.4873C51.6182 10.5921 51.476 10.651 51.3277 10.651Z" fill="#EDEDED"/>
<path fill-rule="evenodd" clip-rule="evenodd" d="M53.7652 30.3797H9.16602C8.30352 30.3797 7.60156 29.6777 7.60156 28.8152V18.0117C7.60156 17.1492 8.30352 16.4473 9.16602 16.4473H53.7652C54.6277 16.4473 55.3297 17.1492 55.3297 18.0117V28.8152C55.3297 29.6777 54.6277 30.3797 53.7652 30.3797Z" fill="#FFD422"/>
<path fill-rule="evenodd" clip-rule="evenodd" d="M31.4598 23.9729H15.6266C15.3758 24.9854 14.4594 25.7377 13.3707 25.7377C12.0887 25.7377 11.0469 24.6947 11.0469 23.4127C11.0469 22.1318 12.0887 21.0889 13.3707 21.0889C14.4594 21.0889 15.3758 21.8412 15.6266 22.8537H31.4598C31.6062 22.8567 31.7456 22.917 31.8481 23.0216C31.9506 23.1262 32.008 23.2668 32.008 23.4133C32.008 23.5597 31.9506 23.7004 31.8481 23.805C31.7456 23.9096 31.6062 23.9699 31.4598 23.9729Z" fill="#FF9811"/>
<path fill-rule="evenodd" clip-rule="evenodd" d="M37.3834 20.8477H35.9701C35.8237 20.8447 35.6843 20.7844 35.5818 20.6798C35.4793 20.5752 35.4219 20.4345 35.4219 20.2881C35.4219 20.1416 35.4793 20.001 35.5818 19.8964C35.6843 19.7918 35.8237 19.7315 35.9701 19.7285H37.3834C37.5298 19.7315 37.6692 19.7918 37.7717 19.8964C37.8742 20.001 37.9316 20.1416 37.9316 20.2881C37.9316 20.4345 37.8742 20.5752 37.7717 20.6798C37.6692 20.7844 37.5298 20.8447 37.3834 20.8477ZM40.8697 20.8477H39.4576C39.309 20.8477 39.1666 20.7886 39.0615 20.6836C38.9565 20.5785 38.8975 20.4361 38.8975 20.2875C38.8975 19.9793 39.1482 19.7285 39.4576 19.7285H40.8697C41.0161 19.7315 41.1556 19.7918 41.2581 19.8964C41.3605 20.001 41.418 20.1416 41.418 20.2881C41.418 20.4345 41.3605 20.5752 41.2581 20.6798C41.1556 20.7844 41.0161 20.8447 40.8697 20.8477ZM44.356 20.8477H42.9439C42.7954 20.8477 42.6529 20.7886 42.5478 20.6836C42.4428 20.5785 42.3838 20.4361 42.3838 20.2875C42.3838 19.9793 42.6346 19.7285 42.9439 19.7285H44.356C44.5025 19.7315 44.6419 19.7918 44.7444 19.8964C44.8469 20.001 44.9043 20.1416 44.9043 20.2881C44.9043 20.4345 44.8469 20.5752 44.7444 20.6798C44.6419 20.7844 44.5025 20.8447 44.356 20.8477ZM47.8424 20.8477H46.4303C46.2817 20.8477 46.1392 20.7886 46.0342 20.6836C45.9291 20.5785 45.8701 20.4361 45.8701 20.2875C45.8701 19.9793 46.1209 19.7285 46.4303 19.7285H47.8424C47.9906 19.7285 48.1328 19.7874 48.2376 19.8922C48.3425 19.9971 48.4014 20.1392 48.4014 20.2875C48.4014 20.5969 48.1518 20.8477 47.8424 20.8477ZM51.3287 20.8477H49.9166C49.6072 20.8477 49.3576 20.5969 49.3576 20.2875C49.3576 20.1392 49.4165 19.9971 49.5213 19.8922C49.6262 19.7874 49.7683 19.7285 49.9166 19.7285H51.3287C51.477 19.7285 51.6191 19.7874 51.724 19.8922C51.8288 19.9971 51.8877 20.1392 51.8877 20.2875C51.8877 20.5969 51.6381 20.8477 51.3287 20.8477ZM37.3834 23.973H35.9701C35.8237 23.9701 35.6843 23.9098 35.5818 23.8052C35.4793 23.7006 35.4219 23.5599 35.4219 23.4135C35.4219 23.267 35.4793 23.1264 35.5818 23.0218C35.6843 22.9172 35.8237 22.8569 35.9701 22.8539H37.3834C37.5298 22.8569 37.6692 22.9172 37.7717 23.0218C37.8742 23.1264 37.9316 23.267 37.9316 23.4135C37.9316 23.5599 37.8742 23.7006 37.7717 23.8052C37.6692 23.9098 37.5298 23.9701 37.3834 23.973ZM40.8697 23.973H39.4576C39.309 23.973 39.1666 23.914 39.0615 23.809C38.9565 23.7039 38.8975 23.5615 38.8975 23.4129C38.8975 23.1047 39.1482 22.8539 39.4576 22.8539H40.8697C41.0161 22.8569 41.1556 22.9172 41.2581 23.0218C41.3605 23.1264 41.418 23.267 41.418 23.4135C41.418 23.5599 41.3605 23.7006 41.2581 23.8052C41.1556 23.9098 41.0161 23.9701 40.8697 23.973ZM44.356 23.973H42.9439C42.7954 23.973 42.6529 23.914 42.5478 23.809C42.4428 23.7039 42.3838 23.5615 42.3838 23.4129C42.3838 23.1047 42.6346 22.8539 42.9439 22.8539H44.356C44.5025 22.8569 44.6419 22.9172 44.7444 23.0218C44.8469 23.1264 44.9043 23.267 44.9043 23.4135C44.9043 23.5599 44.8469 23.7006 44.7444 23.8052C44.6419 23.9098 44.5025 23.9701 44.356 23.973ZM47.8424 23.973H46.4303C46.2817 23.973 46.1392 23.914 46.0342 23.809C45.9291 23.7039 45.8701 23.5615 45.8701 23.4129C45.8701 23.1047 46.1209 22.8539 46.4303 22.8539H47.8424C47.9158 22.8539 47.9885 22.8684 48.0563 22.8965C48.1241 22.9245 48.1857 22.9657 48.2376 23.0176C48.2895 23.0695 48.3307 23.1312 48.3588 23.199C48.3869 23.2668 48.4014 23.3395 48.4014 23.4129C48.4014 23.7223 48.1518 23.973 47.8424 23.973ZM51.3287 23.973H49.9166C49.6072 23.973 49.3576 23.7223 49.3576 23.4129C49.3576 23.3395 49.3721 23.2668 49.4002 23.199C49.4283 23.1312 49.4694 23.0695 49.5213 23.0176C49.5732 22.9657 49.6349 22.9245 49.7027 22.8965C49.7705 22.8684 49.8432 22.8539 49.9166 22.8539H51.3287C51.4021 22.8539 51.4748 22.8684 51.5426 22.8965C51.6104 22.9245 51.6721 22.9657 51.724 23.0176C51.7759 23.0695 51.817 23.1312 51.8451 23.199C51.8732 23.2668 51.8877 23.3395 51.8877 23.4129C51.8877 23.7223 51.6381 23.973 51.3287 23.973ZM37.3834 27.0984H35.9701C35.8237 27.0954 35.6843 27.0352 35.5818 26.9306C35.4793 26.8259 35.4219 26.6853 35.4219 26.5389C35.4219 26.3924 35.4793 26.2518 35.5818 26.1472C35.6843 26.0426 35.8237 25.9823 35.9701 25.9793H37.3834C37.5298 25.9823 37.6692 26.0426 37.7717 26.1472C37.8742 26.2518 37.9316 26.3924 37.9316 26.5389C37.9316 26.6853 37.8742 26.8259 37.7717 26.9306C37.6692 27.0352 37.5298 27.0954 37.3834 27.0984ZM40.8697 27.0984H39.4576C39.309 27.0984 39.1666 27.0394 39.0615 26.9344C38.9565 26.8293 38.8975 26.6868 38.8975 26.5383C38.8975 26.2301 39.1482 25.9793 39.4576 25.9793H40.8697C41.0161 25.9823 41.1556 26.0426 41.2581 26.1472C41.3605 26.2518 41.418 26.3924 41.418 26.5389C41.418 26.6853 41.3605 26.8259 41.2581 26.9306C41.1556 27.0352 41.0161 27.0954 40.8697 27.0984ZM44.356 27.0984H42.9439C42.7954 27.0984 42.6529 27.0394 42.5478 26.9344C42.4428 26.8293 42.3838 26.6868 42.3838 26.5383C42.3838 26.2301 42.6346 25.9793 42.9439 25.9793H44.356C44.5025 25.9823 44.6419 26.0426 44.7444 26.1472C44.8469 26.2518 44.9043 26.3924 44.9043 26.5389C44.9043 26.6853 44.8469 26.8259 44.7444 26.9306C44.6419 27.0352 44.5025 27.0954 44.356 27.0984ZM47.8424 27.0984H46.4303C46.2817 27.0984 46.1392 27.0394 46.0342 26.9344C45.9291 26.8293 45.8701 26.6868 45.8701 26.5383C45.8701 26.2301 46.1209 25.9793 46.4303 25.9793H47.8424C47.9906 25.9793 48.1328 26.0382 48.2376 26.143C48.3425 26.2478 48.4014 26.39 48.4014 26.5383C48.4014 26.8477 48.1518 27.0984 47.8424 27.0984ZM51.3287 27.0984H49.9166C49.6072 27.0984 49.3576 26.8477 49.3576 26.5383C49.3576 26.39 49.4165 26.2478 49.5213 26.143C49.6262 26.0382 49.7683 25.9793 49.9166 25.9793H51.3287C51.477 25.9793 51.6191 26.0382 51.724 26.143C51.8288 26.2478 51.8877 26.39 51.8877 26.5383C51.8877 26.8477 51.6381 27.0984 51.3287 27.0984Z" fill="#FF9811"/>
<path fill-rule="evenodd" clip-rule="evenodd" d="M56.3258 56.4482H35.8074C35.4195 56.4482 35.1055 56.1342 35.1055 55.7463V41.8186C35.1055 41.1178 35.6762 40.5459 36.3781 40.5459H55.7539C56.4559 40.5459 57.0277 41.1178 57.0277 41.8186V55.7463C57.0277 56.1342 56.7125 56.4482 56.3258 56.4482Z" fill="#0087FF"/>
<path fill-rule="evenodd" clip-rule="evenodd" d="M55.4574 59.9998H36.6746C34.3297 59.9998 32.4219 58.092 32.4219 55.7459C32.4219 55.3592 32.7359 55.0439 33.1238 55.0439H59.0094C59.3973 55.0439 59.7113 55.3592 59.7113 55.7459C59.7113 58.092 57.8035 59.9998 55.4574 59.9998Z" fill="#375DBF"/>
<path fill-rule="evenodd" clip-rule="evenodd" d="M46.0645 51.7488C44.2715 51.7488 42.8125 50.291 42.8125 48.4969C42.8125 46.7039 44.2715 45.2461 46.0645 45.2461C47.8574 45.2461 49.3164 46.7039 49.3164 48.4969C49.3164 50.291 47.8574 51.7488 46.0645 51.7488Z" fill="#B9BCBF"/>
<path fill-rule="evenodd" clip-rule="evenodd" d="M46.0645 51.5146C44.4004 51.5146 43.0469 50.1611 43.0469 48.4971C43.0469 46.833 44.4004 45.4795 46.0645 45.4795C47.7285 45.4795 49.082 46.833 49.082 48.4971C49.082 50.1611 47.7285 51.5146 46.0645 51.5146Z" fill="white"/>
<path fill-rule="evenodd" clip-rule="evenodd" d="M24.1918 56.3135H3.67461C3.28672 56.3135 2.97266 55.9994 2.97266 55.6115V41.6838C2.97266 40.9818 3.54336 40.4111 4.24531 40.4111H23.6211C24.323 40.4111 24.8938 40.9818 24.8938 41.6838V55.6115C24.8938 55.9994 24.5797 56.3135 24.1918 56.3135Z" fill="#0087FF"/>
<path fill-rule="evenodd" clip-rule="evenodd" d="M23.3258 59.865H4.54297C2.19687 59.865 0.289062 57.9561 0.289062 55.6111C0.289062 55.2232 0.603125 54.9092 0.991016 54.9092H26.8777C27.2645 54.9092 27.5785 55.2232 27.5785 55.6111C27.5785 57.9561 25.6707 59.865 23.3258 59.865Z" fill="#375DBF"/>
<path fill-rule="evenodd" clip-rule="evenodd" d="M13.9355 51.6143C12.1426 51.6143 10.6836 50.1553 10.6836 48.3623C10.6836 46.5693 12.1426 45.1104 13.9355 45.1104C15.7285 45.1104 17.1875 46.5693 17.1875 48.3623C17.1875 50.1553 15.7285 51.6143 13.9355 51.6143Z" fill="#B9BCBF"/>
<path fill-rule="evenodd" clip-rule="evenodd" d="M13.9355 51.3799C12.2715 51.3799 10.918 50.0264 10.918 48.3623C10.918 46.6982 12.2715 45.3447 13.9355 45.3447C15.5996 45.3447 16.9531 46.6982 16.9531 48.3623C16.9531 50.0264 15.5996 51.3799 13.9355 51.3799Z" fill="white"/>
</g>
<defs>
<clipPath id="clip0_211_1736">
<rect width="60" height="60" fill="white"/>
</clipPath>
</defs>
</svg>
