<svg width="51" height="51" viewBox="0 0 51 51" fill="none" xmlns="http://www.w3.org/2000/svg">
<path d="M11.8999 8.49902H35.6991V35.7009H11.8999V8.49902Z" fill="#E1F3FC"/>
<path d="M33.1489 30.5996L33.5947 31.9414C33.817 32.6049 34.5708 33.1506 35.2746 33.1506H36.1248C36.825 33.1506 37.5793 32.6049 37.8011 31.9414L38.2499 30.5996H33.1489Z" fill="#FEDA03"/>
<path d="M11.9002 11.899V8.4988H35.6993C35.6993 6.62914 34.1683 5.09863 32.2997 5.09863H11.9002C10.0305 5.09863 8.5 6.62863 8.5 8.4988V11.899H11.9002Z" fill="#468FF1"/>
<path d="M19.5493 40.3756C19.5493 39.6743 20.1236 39.1006 20.8243 39.1006H23.3743C24.0751 39.1006 24.6493 39.6743 24.6493 40.3756C24.6493 41.0758 24.0751 41.6506 23.3743 41.6506H20.8243C20.1236 41.6506 19.5493 41.0758 19.5493 40.3756Z" fill="#CFD8DB"/>
<path d="M21.2507 10.2676H11.9004V11.8996H21.2512C23.1204 11.8996 24.6514 13.4306 24.6514 15.2997V13.6677C24.6509 11.7986 23.1199 10.2676 21.2507 10.2676Z" fill="#B4E3F9"/>
<path d="M8.5 10.2676H11.9002V11.8991H8.5V10.2676Z" fill="#468FF1"/>
<path d="M8.5 15.2998H17.0002V17.8498H8.5V15.2998Z" fill="#E1F3FC"/>
<path d="M8.5 21.25H21.2505V23.8H8.5V21.25Z" fill="#E1F3FC"/>
<path d="M8.5 15.2998H10.54V17.8498H8.5V15.2998Z" fill="#B4E3F9"/>
<path d="M8.5 21.25H10.54V23.8H8.5V21.25Z" fill="#B4E3F9"/>
<path d="M30.4932 27.1996H40.9089C40.2821 25.61 39.9496 23.88 39.9496 22.0996V19.5496C39.9496 17.2057 38.0437 15.2998 35.6992 15.2998C33.3583 15.2998 31.4494 17.2057 31.4494 19.5496V22.0996C31.4494 23.88 31.1205 25.61 30.4932 27.1996Z" fill="#FFF8E1"/>
<path d="M36.7198 15.4288C36.3918 15.3477 36.0517 15.2998 35.6992 15.2998C33.3583 15.2998 31.4494 17.2057 31.4494 19.5496V22.0996C31.4494 23.8795 31.12 25.61 30.4932 27.1996H40.9089C40.6493 26.5422 40.4438 25.8599 40.2877 25.1601H33.2008C33.3925 24.1621 33.4894 23.1395 33.4894 22.1001V19.5501C33.4894 17.5581 34.8695 15.8873 36.7198 15.4288Z" fill="#FFEBB2"/>
<path d="M21.2508 11.8994H8.50027C6.63112 11.8994 5.1001 13.4299 5.1001 15.2996V23.7998C5.1001 25.6694 6.63112 27.1994 8.50027 27.1994H16.1503L19.5509 30.6001H21.2508V27.1994C23.1199 27.1994 24.6509 25.6694 24.6509 23.7998V15.2996C24.6509 13.4299 23.1199 11.8994 21.2508 11.8994ZM8.50027 15.2996H17.0004V17.8496H8.50027V15.2996ZM21.2508 23.8003H8.50027V21.2503H21.2508V23.8003Z" fill="#6DEDD4"/>
<path d="M35.6993 11.8996V10.2676C31.4725 10.2676 28.0488 13.6927 28.0488 17.9176V19.5496C28.0488 15.3247 31.4725 11.8996 35.6993 11.8996Z" fill="#B4E3F9"/>
<path d="M43.35 22.0994V19.5494C43.35 15.3246 39.9263 11.8994 35.6994 11.8994C31.4726 11.8994 28.0489 15.3246 28.0489 19.5494V22.0994C28.0489 24.7575 27.0779 27.1632 25.501 28.8992V30.5996H45.9V28.8992C44.323 27.1632 43.35 24.757 43.35 22.0994ZM30.4934 27.1989C31.1202 25.6092 31.4496 23.8793 31.4496 22.0989V19.5489C31.4496 17.2049 33.3585 15.2991 35.6994 15.2991C38.0439 15.2991 39.9498 17.2049 39.9498 19.5489V22.0989C39.9498 23.8788 40.2818 25.6092 40.9091 27.1989H30.4934Z" fill="#FEDA03"/>
<path d="M20.8243 40.3246H23.3743C23.8522 40.3246 24.2668 40.5944 24.4846 40.9871C24.5861 40.805 24.6493 40.5974 24.6493 40.3756C24.6493 39.6743 24.0751 39.1006 23.3743 39.1006H20.8243C20.1236 39.1006 19.5493 39.6743 19.5493 40.3756C19.5493 40.5979 19.6126 40.805 19.714 40.9871C19.9318 40.5949 20.3459 40.3246 20.8243 40.3246Z" fill="#AFBDC4"/>
<path d="M11.8987 35.7006V30.5996H8.49854V42.4999C8.49854 44.3696 10.029 45.9006 11.8987 45.9006H32.2997C34.1684 45.9006 35.6994 44.3696 35.6994 42.4999V35.7006H11.8987ZM23.3742 41.6503H20.8242C20.1235 41.6503 19.5492 41.0755 19.5492 40.3753C19.5492 39.674 20.1235 39.1003 20.8242 39.1003H23.3742C24.075 39.1003 24.6492 39.674 24.6492 40.3753C24.6492 41.0755 24.075 41.6503 23.3742 41.6503Z" fill="#468FF1"/>
</svg>
