<svg width="60" height="60" viewBox="0 0 60 60" fill="none" xmlns="http://www.w3.org/2000/svg">
<path fill-rule="evenodd" clip-rule="evenodd" d="M2.69531 7.14512V7.14395C2.69531 6.61074 3.83203 5.43066 8.07539 4.38652C11.8875 3.4502 16.9512 2.93457 22.3418 2.93457C27.7266 2.93457 32.7961 3.4502 36.6035 4.38652C40.8527 5.43066 41.9836 6.61074 41.9836 7.14395C41.9836 7.67598 40.8516 8.85605 36.6035 9.9002C32.7961 10.8365 27.7277 11.3521 22.3418 11.3521C16.9523 11.3521 11.8875 10.8365 8.07539 9.9002C3.83672 8.85723 2.7 7.67832 2.69531 7.14512ZM22.3418 12.9928C16.827 12.9928 11.6191 12.4607 7.6875 11.4939C5.47148 10.949 3.80273 10.3068 2.69531 9.57324V17.1916C2.69531 17.7271 3.82734 18.9096 8.06602 19.9514C11.8687 20.8865 16.9371 21.401 22.3418 21.401C27.7418 21.401 32.8102 20.8865 36.6129 19.9514C40.8516 18.9096 41.9836 17.7271 41.9836 17.1916V9.57324C40.8762 10.3068 39.2121 10.949 36.9961 11.4939C33.0598 12.4607 27.8566 12.9928 22.3418 12.9928ZM22.3418 23.0416C16.8082 23.0416 11.6004 22.5096 7.67812 21.5451C5.46211 21.0014 3.80391 20.3604 2.69531 19.6268V27.2404C2.69531 27.776 3.82734 28.9584 8.06602 30.0002C11.8687 30.9354 16.9371 31.4498 22.3418 31.4498C25.5879 31.4498 28.8059 31.2564 31.6641 30.8908C34.3781 28.2998 37.9934 26.6416 41.9836 26.4412V19.6268C40.8809 20.3604 39.2168 21.0014 37.0055 21.5451C33.0785 22.5096 27.8707 23.0416 22.3418 23.0416ZM22.3418 33.0904C16.8082 33.0904 11.6004 32.5584 7.67812 31.5939C5.46211 31.0502 3.80391 30.4092 2.69531 29.6756V37.2893C2.69531 37.8248 3.82734 39.0072 8.06602 40.049C11.8687 40.9842 16.9371 41.4986 22.3418 41.4986C23.8137 41.4986 25.2762 41.4564 26.7059 41.3803C26.9402 38.1389 28.1402 35.16 30.0141 32.7283C27.5836 32.9662 24.9691 33.0904 22.3418 33.0904ZM22.3418 43.1393C16.8082 43.1393 11.6004 42.6072 7.67812 41.6428C5.46211 41.099 3.80391 40.458 2.69531 39.7244V47.3381C2.69531 47.8725 3.82734 49.0561 8.06602 50.0979C11.8687 51.0318 16.9371 51.5475 22.3418 51.5475C24.7102 51.5475 27.0129 51.4467 29.2043 51.2521C27.675 48.8639 26.7539 46.0467 26.6672 43.0256C25.2527 43.0994 23.7996 43.1393 22.3418 43.1393ZM28.302 42.5639C28.302 50.5607 34.8094 57.0658 42.8027 57.0658C50.8008 57.0658 57.3035 50.5607 57.3035 42.5639C57.3035 34.567 50.8008 28.0607 42.8027 28.0607C34.8094 28.0607 28.302 34.567 28.302 42.5639ZM45.3785 47.8795C45.3785 49.6947 46.8551 51.1713 48.668 51.1713C50.4855 51.1713 51.9621 49.6947 51.9621 47.8795C51.9621 46.0643 50.4855 44.5877 48.668 44.5877C47.6086 44.5877 46.6641 45.0928 46.0594 45.8744L39.4605 43.0596C39.484 42.8979 39.4992 42.7326 39.4992 42.5639C39.4992 42.3951 39.4852 42.2287 39.4605 42.067L46.0594 39.2521C46.6641 40.035 47.6086 40.54 48.668 40.54C50.4855 40.54 51.9621 39.0635 51.9621 37.2482C51.9621 35.4318 50.4855 33.9553 48.668 33.9553C46.8551 33.9553 45.3785 35.4318 45.3785 37.2482C45.3785 37.417 45.3879 37.5822 45.4125 37.7439L38.8137 40.5588C38.2148 39.7771 37.2691 39.2721 36.2051 39.2721C34.3922 39.2721 32.9156 40.7486 32.9156 42.5639C32.9156 44.3791 34.3922 45.8557 36.2051 45.8557C37.2691 45.8557 38.2148 45.3506 38.8137 44.5678L45.4125 47.3826C45.3879 47.5443 45.3785 47.7107 45.3785 47.8795ZM34.5551 42.5639C34.5551 43.4744 35.298 44.215 36.2051 44.215C37.1156 44.215 37.8598 43.4744 37.8598 42.5639C37.8598 41.6533 37.1168 40.9127 36.2051 40.9127C35.2992 40.9127 34.5551 41.6533 34.5551 42.5639ZM47.0191 37.2482C47.0191 38.1588 47.7574 38.8994 48.6691 38.8994C49.5797 38.8994 50.3191 38.1588 50.3191 37.2482C50.3191 36.3365 49.5809 35.5959 48.6691 35.5959C47.7574 35.5959 47.0191 36.3365 47.0191 37.2482ZM48.668 46.2283C47.7574 46.2283 47.018 46.9689 47.018 47.8795C47.018 48.79 47.7562 49.5307 48.668 49.5307C49.5785 49.5307 50.318 48.79 50.318 47.8795C50.318 46.9689 49.5797 46.2283 48.668 46.2283Z" fill="#0087FF"/>
<circle cx="43" cy="43" r="15" fill="#FDB43A"/>
<path d="M48.9374 37C48.9374 38.3462 47.8462 39.4375 46.5 39.4375C45.1537 39.4375 44.0625 38.3462 44.0625 37C44.0625 35.6539 45.1537 34.5625 46.5 34.5625C47.8462 34.5625 48.9374 35.6539 48.9374 37Z" fill="white"/>
<path d="M46.5 40C44.8454 40 43.5 38.6545 43.5 37C43.5 35.3455 44.8454 34 46.5 34C48.1545 34 49.4999 35.3455 49.4999 37C49.4999 38.6545 48.1545 40 46.5 40ZM46.5 35.125C45.4657 35.125 44.625 35.9666 44.625 37C44.625 38.0335 45.4657 38.875 46.5 38.875C47.5342 38.875 48.3749 38.0335 48.3749 37C48.3749 35.9666 47.5342 35.125 46.5 35.125ZM48.9374 49C48.9374 50.3461 47.8462 51.4375 46.5 51.4375C45.1537 51.4375 44.0625 50.3461 44.0625 49C44.0625 47.6538 45.1537 46.5625 46.5 46.5625C47.8462 46.5625 48.9374 47.6538 48.9374 49Z" fill="white"/>
<path d="M46.5 52C44.8454 52 43.5 50.6544 43.5 49C43.5 47.3454 44.8455 45.9999 46.5 45.9999C48.1545 45.9999 49.5 47.3454 49.5 49C49.5 50.6544 48.1545 52 46.5 52ZM46.5 47.1249C45.4658 47.1249 44.625 47.9665 44.625 49C44.625 50.0334 45.4658 50.875 46.5 50.875C47.5342 50.875 48.375 50.0334 48.375 49C48.375 47.9665 47.5342 47.1249 46.5 47.1249ZM38.4375 43C38.4375 44.3462 37.3462 45.4374 36 45.4374C34.6539 45.4374 33.5625 44.3462 33.5625 43C33.5625 41.6537 34.6539 40.5625 36 40.5625C37.3462 40.5625 38.4375 41.6537 38.4375 43Z" fill="white"/>
<path d="M36 45.9999C34.3455 45.9999 33 44.6545 33 43C33 41.3454 34.3455 40 36 40C37.6545 40 39 41.3454 39 43C39 44.6545 37.6545 45.9999 36 45.9999ZM36 41.125C34.9657 41.125 34.125 41.9664 34.125 43C34.125 44.0335 34.9657 44.8749 36 44.8749C37.0343 44.8749 37.875 44.0335 37.875 43C37.875 41.9664 37.0343 41.125 36 41.125Z" fill="white"/>
<path d="M37.7703 42.6403C37.5092 42.6403 37.2557 42.5045 37.1177 42.2616C36.9129 41.9023 37.039 41.444 37.3983 41.2385L44.3574 37.271C44.7167 37.0648 45.1749 37.1908 45.3805 37.5515C45.5853 37.9107 45.4592 38.369 45.0999 38.5746L38.1407 42.542C38.0279 42.6065 37.9002 42.6404 37.7703 42.6403ZM44.7288 48.8278C44.6027 48.8278 44.4752 48.7962 44.3582 48.7295L37.399 44.7621C37.0397 44.5573 36.9138 44.099 37.1186 43.739C37.3225 43.379 37.7815 43.2523 38.1415 43.4585L45.1008 47.426C45.4601 47.6307 45.586 48.089 45.3812 48.4491C45.2425 48.692 44.989 48.8278 44.7288 48.8278H44.7288Z" fill="white"/>
</svg>
