<svg width="192" height="208" viewBox="0 0 192 208" fill="none" xmlns="http://www.w3.org/2000/svg">
<path d="M96 208C77.013 208 58.4524 202.37 42.6653 191.821C26.8782 181.272 14.5736 166.279 7.30757 148.738C0.041574 131.196 -1.85952 111.894 1.84468 93.271C5.54878 74.6493 14.692 57.5437 28.1178 44.1179C41.5436 30.692 58.6492 21.5488 77.271 17.8446C95.894 14.1404 115.196 16.0416 132.738 23.3076C150.279 30.5736 165.273 42.8782 175.821 58.6653C186.37 74.4524 192 93.013 192 112C191.971 137.452 181.848 161.853 163.851 179.851C145.853 197.848 121.452 207.971 96 208ZM96 24C78.595 24 61.5814 29.1611 47.1099 38.8307C32.6383 48.5003 21.3592 62.244 14.6986 78.3239C8.03808 94.404 6.29538 112.098 9.69088 129.168C13.0864 146.238 21.4676 161.918 33.7747 174.225C46.0817 186.532 61.7618 194.914 78.832 198.309C95.902 201.705 113.596 199.962 129.676 193.301C145.756 186.641 159.5 175.362 169.169 160.89C178.839 146.419 184 129.405 184 112C183.974 88.669 174.694 66.3014 158.196 49.8039C141.699 33.3065 119.331 24.0265 96 24Z" fill="#0087FF"/>
<path d="M96 192C80.178 192 64.7103 187.308 51.5544 178.518C38.3985 169.727 28.1447 157.233 22.0897 142.615C16.0347 127.997 14.4504 111.911 17.5372 96.393C20.624 80.8743 28.2433 66.6197 39.4315 55.4315C50.6197 44.2433 64.8743 36.624 80.393 33.5372C95.911 30.4504 111.997 32.0346 126.615 38.0896C141.233 44.1447 153.727 54.3985 162.518 67.5544C171.308 80.7103 176 96.178 176 112C175.976 133.21 167.539 153.544 152.542 168.542C137.544 183.539 117.21 191.976 96 192ZM96 40C81.76 40 67.8393 44.2227 55.999 52.1342C44.1586 60.0457 34.9302 71.2905 29.4807 84.447C24.0312 97.603 22.6054 112.08 25.3835 126.047C28.1616 140.013 35.019 152.842 45.0883 162.912C55.1577 172.981 67.9869 179.838 81.954 182.617C95.92 185.395 110.397 183.969 123.553 178.519C136.71 173.07 147.954 163.841 155.866 152.001C163.777 140.161 168 126.24 168 112C167.979 92.911 160.386 74.6097 146.888 61.1117C133.39 47.6137 115.089 40.0212 96 40Z" fill="#0087FF"/>
<path d="M124 28C122.939 28 121.922 27.5786 121.172 26.8284C120.422 26.0783 120 25.0609 120 24V12C120 10.9391 119.579 9.9217 118.829 9.1716C118.078 8.4214 117.061 8 116 8H76C74.939 8 73.922 8.4214 73.172 9.1716C72.422 9.9217 72 10.9391 72 12V24C72 25.0609 71.579 26.0783 70.829 26.8284C70.078 27.5786 69.061 28 68 28C66.9393 28 65.9218 27.5786 65.1717 26.8284C64.4215 26.0783 64.0001 25.0609 64.0001 24V12C64.0033 8.8184 65.2686 5.768 67.5183 3.5182C69.768 1.2685 72.818 0.0032 76 0H116C119.182 0.0032 122.232 1.2685 124.482 3.5182C126.732 5.768 127.997 8.8184 128 12V24C128 25.0609 127.579 26.0783 126.829 26.8284C126.078 27.5786 125.061 28 124 28ZM96 68C94.939 68 93.922 67.5786 93.172 66.8284C92.422 66.0783 92 65.0609 92 64V52C92 50.9391 92.422 49.9217 93.172 49.1716C93.922 48.4214 94.939 48 96 48C97.061 48 98.078 48.4214 98.829 49.1716C99.579 49.9217 100 50.9391 100 52V64C100 65.0609 99.579 66.0783 98.829 66.8284C98.078 67.5786 97.061 68 96 68ZM48.0001 116H36.0001C34.9393 116 33.9218 115.579 33.1717 114.828C32.4216 114.078 32.0001 113.061 32.0001 112C32.0001 110.939 32.4216 109.922 33.1717 109.172C33.9218 108.421 34.9393 108 36.0001 108H48.0001C49.061 108 50.0784 108.421 50.8286 109.172C51.5787 109.922 52.0001 110.939 52.0001 112C52.0001 113.061 51.5787 114.078 50.8286 114.828C50.0784 115.579 49.061 116 48.0001 116ZM96 176C94.939 176 93.922 175.579 93.172 174.828C92.422 174.078 92 173.061 92 172V160C92 158.939 92.422 157.922 93.172 157.172C93.922 156.421 94.939 156 96 156C97.061 156 98.078 156.421 98.829 157.172C99.579 157.922 100 158.939 100 160V172C100 173.061 99.579 174.078 98.829 174.828C98.078 175.579 97.061 176 96 176ZM156 116H144C142.939 116 141.922 115.579 141.172 114.828C140.422 114.078 140 113.061 140 112C140 110.939 140.422 109.922 141.172 109.172C141.922 108.421 142.939 108 144 108H156C157.061 108 158.078 108.421 158.829 109.172C159.579 109.922 160 110.939 160 112C160 113.061 159.579 114.078 158.829 114.828C158.078 115.579 157.061 116 156 116ZM96 116C95.475 116.001 94.955 115.897 94.469 115.696C93.984 115.495 93.543 115.2 93.172 114.828L77.172 98.828C76.443 98.074 76.04 97.063 76.049 96.014C76.059 94.966 76.479 93.962 77.221 93.221C77.962 92.479 78.966 92.058 80.015 92.049C81.063 92.04 82.074 92.443 82.828 93.172L96 106.344L129.172 73.172C129.927 72.4434 130.937 72.0402 131.986 72.0493C133.035 72.0584 134.038 72.4791 134.779 73.2207C135.521 73.9624 135.942 74.9656 135.951 76.0144C135.96 77.0632 135.557 78.0736 134.828 78.828L98.828 114.828C98.457 115.2 98.016 115.495 97.531 115.696C97.046 115.897 96.525 116.001 96 116ZM188 48C187.475 48.0005 186.955 47.8973 186.469 47.6962C185.984 47.495 185.543 47.2 185.172 46.828L161.172 22.828C160.443 22.0736 160.04 21.0632 160.049 20.0144C160.059 18.9656 160.479 17.9624 161.221 17.2207C161.962 16.4791 162.966 16.0584 164.015 16.0493C165.063 16.0402 166.074 16.4434 166.828 17.172L190.828 41.172C191.387 41.7314 191.768 42.4441 191.922 43.2199C192.077 43.9957 191.998 44.7998 191.695 45.5306C191.392 46.2614 190.88 46.8861 190.222 47.3256C189.564 47.7651 188.791 47.9998 188 48ZM4.00011 48C3.20911 47.9998 2.43591 47.7651 1.77831 47.3256C1.12071 46.8861 0.608114 46.2614 0.305414 45.5306C0.00271389 44.7998 -0.0764862 43.9957 0.0778138 43.2199C0.232114 42.4441 0.612913 41.7314 1.17211 41.172L25.1721 17.172C25.9265 16.4434 26.9369 16.0402 27.9857 16.0493C29.0345 16.0584 30.0378 16.4791 30.7794 17.2207C31.521 17.9624 31.9417 18.9656 31.9508 20.0144C31.9599 21.0632 31.5568 22.0736 30.8281 22.828L6.82811 46.828C6.45721 47.2 6.01641 47.495 5.53111 47.6962C5.04571 47.8973 4.52551 48.0005 4.00011 48Z" fill="#0087FF"/>
</svg>
