<svg width="45" height="52" viewBox="0 0 45 52" fill="none" xmlns="http://www.w3.org/2000/svg">
<path d="M40.7783 18.0001H40.5165C39.4139 17.988 38.339 17.6529 37.4248 17.0364C36.5106 16.4198 35.7972 15.5488 35.3729 14.531C34.2685 11.9854 32.4416 9.8197 30.1185 8.30217C27.7954 6.78464 25.0781 5.98196 22.3033 5.99358C19.5284 6.00519 16.818 6.83058 14.5076 8.3675C12.1973 9.90442 10.3886 12.0853 9.30558 14.6401C8.87966 15.6382 8.16954 16.4889 7.26367 17.0864C6.3578 17.6838 5.29619 18.0016 4.21104 18.0001H3.94922C4.48742 13.4945 6.65882 9.34255 10.0524 6.33023C13.4459 3.31792 17.8261 1.6543 22.3638 1.6543C26.9014 1.6543 31.2816 3.31792 34.6752 6.33023C38.0687 9.34255 40.2401 13.4945 40.7783 18.0001Z" fill="#323FD4"/>
<path d="M38.7269 42V46.9091C38.7269 47.0538 38.6694 47.1925 38.5672 47.2948C38.4649 47.3971 38.3261 47.4545 38.1815 47.4545H28.3633V49.6364H38.7269C39.3056 49.6364 39.8605 49.4065 40.2697 48.9973C40.6789 48.5882 40.9087 48.0332 40.9087 47.4545V42H38.7269Z" fill="#8FA2FF"/>
<path d="M28.3633 46.9092H30.5451C30.8344 46.9092 31.1119 47.0241 31.3165 47.2287C31.5211 47.4333 31.636 47.7108 31.636 48.0001V49.091C31.636 49.3803 31.5211 49.6578 31.3165 49.8624C31.1119 50.067 30.8344 50.1819 30.5451 50.1819H28.3633V46.9092Z" fill="#323FD4"/>
<path d="M2.72905 25.0908H4.91087C5.05553 25.0908 5.19427 25.1483 5.29656 25.2506C5.39885 25.3529 5.45632 25.4916 5.45632 25.6363V28.909H2.18359V25.6363C2.18359 25.4916 2.24106 25.3529 2.34335 25.2506C2.44565 25.1483 2.58438 25.0908 2.72905 25.0908Z" fill="#4E6AFF"/>
<path d="M11.4549 25.6367H9.27308C8.36934 25.6367 7.63672 26.3693 7.63672 27.2731V42.5458C7.63672 43.4495 8.36934 44.1822 9.27308 44.1822H11.4549C12.3586 44.1822 13.0913 43.4495 13.0913 42.5458V27.2731C13.0913 26.3693 12.3586 25.6367 11.4549 25.6367Z" fill="#0087FF"/>
<path d="M5.45455 27.2725H7.63636V42.5452H5.45455C4.00791 42.5452 2.62053 41.9705 1.5976 40.9476C0.574674 39.9247 0 38.5373 0 37.0906V32.727C0 31.2804 0.574674 29.893 1.5976 28.8701C2.62053 27.8471 4.00791 27.2725 5.45455 27.2725Z" fill="#323FD4"/>
<path d="M2.72656 22.9092H4.90838V25.091H2.72656V22.9092Z" fill="white"/>
<path d="M42.5462 28.909H39.2734V25.6363C39.2734 25.4916 39.3309 25.3529 39.4332 25.2506C39.5355 25.1483 39.6742 25.0908 39.8189 25.0908H42.0007C42.1454 25.0908 42.2841 25.1483 42.3864 25.2506C42.4887 25.3529 42.5462 25.4916 42.5462 25.6363V28.909Z" fill="#4E6AFF"/>
<path d="M33.2717 44.1816H35.4535C36.3572 44.1816 37.0898 43.449 37.0898 42.5453V27.2726C37.0898 26.3688 36.3572 25.6362 35.4535 25.6362H33.2717C32.3679 25.6362 31.6353 26.3688 31.6353 27.2726V42.5453C31.6353 43.449 32.3679 44.1816 33.2717 44.1816Z" fill="#0087FF"/>
<path d="M39.2717 42.5452H37.0898V27.2725H39.2717C39.988 27.2725 40.6973 27.4135 41.359 27.6877C42.0208 27.9618 42.6221 28.3636 43.1286 28.8701C43.6351 29.3766 44.0369 29.9779 44.311 30.6396C44.5851 31.3014 44.7262 32.0107 44.7262 32.727V37.0906C44.7262 37.8069 44.5851 38.5162 44.311 39.178C44.0369 39.8398 43.6351 40.4411 43.1286 40.9476C42.6221 41.4541 42.0208 41.8559 41.359 42.13C40.6973 42.4041 39.988 42.5452 39.2717 42.5452Z" fill="#323FD4"/>
<path d="M41.9982 25.091H39.8164V22.9092H41.9982V25.091Z" fill="white"/>
<path d="M22.3654 0C17.0129 0 11.8795 2.12629 8.09471 5.91112C4.30989 9.69594 2.18359 14.8293 2.18359 20.1818V21.2727C2.18359 21.7067 2.356 22.1229 2.66287 22.4298C2.96975 22.7367 3.38597 22.9091 3.81996 22.9091C4.25395 22.9091 4.67016 22.7367 4.97704 22.4298C5.28392 22.1229 5.45632 21.7067 5.45632 21.2727V20.1818C5.45632 15.6972 7.23781 11.3964 10.4089 8.22529C13.5799 5.05422 17.8808 3.27273 22.3654 3.27273C26.85 3.27273 31.1509 5.05422 34.3219 8.22529C37.493 11.3964 39.2745 15.6972 39.2745 20.1818V21.2727C39.2745 21.7067 39.4469 22.1229 39.7538 22.4298C40.0607 22.7367 40.4769 22.9091 40.9109 22.9091C41.3449 22.9091 41.7611 22.7367 42.068 22.4298C42.3748 22.1229 42.5472 21.7067 42.5472 21.2727V20.1818C42.5472 17.5315 42.0252 14.9071 41.011 12.4586C39.9967 10.01 38.5102 7.78517 36.6361 5.91112C34.7621 4.03706 32.5372 2.55048 30.0887 1.53625C27.6401 0.522018 25.0157 0 22.3654 0Z" fill="#0087FF"/>
<path d="M38.7276 22.9092H43.0913C43.3925 22.9092 43.6367 22.665 43.6367 22.3637V21.2728C43.6367 20.9716 43.3925 20.7274 43.0913 20.7274H38.7276C38.4264 20.7274 38.1822 20.9716 38.1822 21.2728V22.3637C38.1822 22.665 38.4264 22.9092 38.7276 22.9092Z" fill="#8FA2FF"/>
<path d="M22.3633 46.9092C28.9907 46.9092 34.3633 41.5366 34.3633 34.9092C34.3633 28.2818 28.9907 22.9092 22.3633 22.9092C15.7359 22.9092 10.3633 28.2818 10.3633 34.9092C10.3633 41.5366 15.7359 46.9092 22.3633 46.9092Z" fill="#FDB43A"/>
<path d="M17.6691 37.4995L19.0273 37.0904C19.9177 36.815 20.6802 36.2302 21.1772 35.4417C21.6741 34.6532 21.8727 33.713 21.737 32.7909C21.6013 31.8688 21.1403 31.0256 20.4373 30.4136C19.7343 29.8017 18.8357 29.4613 17.9036 29.4541C16.9184 29.4584 15.9747 29.8517 15.278 30.5484C14.5813 31.2451 14.1879 32.1888 14.1836 33.1741C14.1836 33.4634 14.2986 33.7409 14.5032 33.9454C14.7077 34.15 14.9852 34.265 15.2746 34.265C15.5639 34.265 15.8414 34.15 16.0459 33.9454C16.2505 33.7409 16.3655 33.4634 16.3655 33.1741C16.3683 32.767 16.5313 32.3774 16.8191 32.0896C17.107 31.8017 17.4966 31.6387 17.9036 31.6359C18.3186 31.6342 18.7202 31.7822 19.0347 32.0528C19.3493 32.3233 19.5557 32.6983 19.6161 33.1088C19.6764 33.5193 19.5867 33.9378 19.3633 34.2875C19.1399 34.6371 18.7979 34.8945 18.4 35.0122L17.0418 35.4159C16.2126 35.6634 15.486 36.173 14.9707 36.8682C14.4555 37.5634 14.1793 38.4069 14.1836 39.2722C14.1836 39.5616 14.2986 39.839 14.5032 40.0436C14.7077 40.2482 14.9852 40.3632 15.2746 40.3632H20.7291C21.0184 40.3632 21.2959 40.2482 21.5005 40.0436C21.7051 39.839 21.82 39.5616 21.82 39.2722C21.82 38.9829 21.7051 38.7054 21.5005 38.5009C21.2959 38.2963 21.0184 38.1813 20.7291 38.1813H16.7091C16.9433 37.8526 17.2815 37.6123 17.6691 37.4995ZM30.0018 35.6068V33.8177C30.0018 33.5284 29.8869 33.2509 29.6823 33.0463C29.4777 32.8417 29.2002 32.7268 28.9109 32.7268C28.6216 32.7268 28.3441 32.8417 28.1395 33.0463C27.9349 33.2509 27.82 33.5284 27.82 33.8177V35.4541H25.8564L26.7291 30.7413C26.7812 30.452 26.7162 30.1538 26.5484 29.9124C26.3807 29.671 26.1239 29.5061 25.8346 29.4541C25.5452 29.402 25.2471 29.467 25.0056 29.6347C24.7642 29.8025 24.5994 30.0593 24.5473 30.3486L23.4564 36.3486C23.4273 36.5074 23.4338 36.6706 23.4755 36.8266C23.5171 36.9825 23.5928 37.1273 23.6972 37.2504C23.8015 37.3736 23.9319 37.472 24.0789 37.5387C24.2259 37.6053 24.3859 37.6385 24.5473 37.6359H27.82V39.2722C27.82 39.5616 27.9349 39.839 28.1395 40.0436C28.3441 40.2482 28.6216 40.3632 28.9109 40.3632C29.2002 40.3632 29.4777 40.2482 29.6823 40.0436C29.8869 39.839 30.0018 39.5616 30.0018 39.2722V37.4832C30.1646 37.3866 30.2995 37.2493 30.3931 37.0848C30.4868 36.9203 30.536 36.7343 30.536 36.545C30.536 36.3557 30.4868 36.1696 30.3931 36.0052C30.2995 35.8407 30.1646 35.7034 30.0018 35.6068Z" fill="white"/>
<path d="M26.1829 51.8179C27.9904 51.8179 29.4556 50.3527 29.4556 48.5452C29.4556 46.7377 27.9904 45.2725 26.1829 45.2725C24.3754 45.2725 22.9102 46.7377 22.9102 48.5452C22.9102 50.3527 24.3754 51.8179 26.1829 51.8179Z" fill="#0087FF"/>
<path d="M5.99893 20.7275H1.6353C1.33405 20.7275 1.08984 20.9717 1.08984 21.273V22.3639C1.08984 22.6651 1.33405 22.9094 1.6353 22.9094H5.99893C6.30018 22.9094 6.54439 22.6651 6.54439 22.3639V21.273C6.54439 20.9717 6.30018 20.7275 5.99893 20.7275Z" fill="#8FA2FF"/>
</svg>
