<svg width="60" height="60" viewBox="0 0 60 60" fill="none" xmlns="http://www.w3.org/2000/svg">
<g clip-path="url(#clip0_208_1459)">
<path fill-rule="evenodd" clip-rule="evenodd" d="M49.2803 5.09663C52.8655 5.69417 55.6423 9.20911 55.6423 13.427V47.2407H4.35938V13.427C4.35938 9.20911 7.13618 5.69417 10.7214 5.09663C14.3067 4.49909 49.2803 5.09663 49.2803 5.09663Z" fill="#0087FF"/>
<path d="M49.4207 4.14803C51.4945 4.49952 53.3223 5.65945 54.5877 7.34662C55.853 8.99864 56.6263 11.1428 56.6263 13.4275V47.2412C56.6263 47.7684 56.1694 48.1902 55.6421 48.1902H4.35918C3.79679 48.1902 3.375 47.7684 3.375 47.2412V13.4275C3.375 11.1428 4.14829 8.99864 5.37851 7.34662C6.67904 5.65945 8.50681 4.49952 10.5455 4.14803C14.2362 3.51534 49.1746 4.11288 49.2801 4.11288C49.3504 4.11288 49.3855 4.14803 49.4207 4.14803ZM53.0411 8.5417C52.0569 7.24117 50.7212 6.32729 49.1746 6.04609C47.2766 6.04609 14.3065 5.4837 10.8618 6.04609C9.31525 6.32729 7.94442 7.20602 6.92509 8.5417C5.94091 9.84223 5.30822 11.5645 5.30822 13.4275V46.257H54.658V13.4275C54.658 11.5645 54.0604 9.84223 53.0411 8.5417Z" fill="#466288"/>
<path fill-rule="evenodd" clip-rule="evenodd" d="M0 48.1904C0 52.549 4.28822 56.1342 9.49033 56.1342H50.5097C55.7118 56.1342 60 52.549 60 48.1904H0Z" fill="#0860CA"/>
<path fill-rule="evenodd" clip-rule="evenodd" d="M24.5 48.1904H35.5018V52.1623H24.5V48.1904Z" fill="white"/>
<path d="M27.6965 24.3943C27.8371 23.867 28.3643 23.5858 28.8916 23.7264C29.4188 23.867 29.7352 24.3943 29.5946 24.8864L26.1148 37.7862C25.9742 38.3134 25.4469 38.6298 24.9549 38.4892C24.4276 38.3486 24.1113 37.8213 24.2519 37.2941L27.6965 24.3943ZM17.5735 26.6438C17.5735 26.1166 18.0304 25.6597 18.5577 25.6597C19.0849 25.6597 19.5418 26.1166 19.5418 26.6438V32.4435C19.6473 33.9901 18.8389 35.0094 17.7141 35.5366C17.1868 35.7827 16.5893 35.8881 15.9918 35.8881C15.3942 35.8881 14.7615 35.7827 14.2343 35.5366C13.1095 35.0094 12.3011 33.9901 12.4417 32.4435V26.6438C12.4417 26.1166 12.8635 25.6597 13.3907 25.6597C13.9179 25.6597 14.3749 26.1166 14.3749 26.6438V32.5489C14.3046 33.1465 14.6209 33.5683 15.0779 33.7792C15.3239 33.8846 15.6403 33.9549 15.9918 33.9549C16.3081 33.9549 16.6244 33.8846 16.9056 33.7792C17.3274 33.5683 17.6438 33.1816 17.6086 32.5841C17.6086 32.5489 17.5735 32.4786 17.5735 32.4435V26.6438ZM21.2993 26.6438C21.2993 26.1166 21.7211 25.6948 22.2484 25.6948C22.8107 25.6948 23.2325 26.1166 23.2325 26.6438V34.9039C23.2325 35.4663 22.8107 35.8881 22.2484 35.8881C21.7211 35.8881 21.2993 35.4663 21.2993 34.9039V26.6438ZM45.8336 26.8547C46.1499 26.3978 46.7475 26.3275 47.1693 26.6438C47.6262 26.9602 47.6965 27.5577 47.3802 28.0147L41.3345 36.099C41.0181 36.556 40.3854 36.6263 39.9636 36.3099C39.5418 35.9936 39.4364 35.396 39.7527 34.9391L45.8336 26.8547Z" fill="#FEFEFE"/>
<path d="M39.8225 27.8388C39.5413 27.417 39.6468 26.7843 40.0686 26.5031C40.4904 26.1868 41.123 26.2922 41.4042 26.714L47.3093 34.9741C47.6257 35.3959 47.5202 36.0286 47.0633 36.3098C46.6415 36.6262 46.044 36.5207 45.7276 36.0989L39.8225 27.8388ZM35.9912 27.2764C35.9912 26.714 36.4482 26.2922 36.9754 26.2922C37.5027 26.2922 37.9244 26.714 37.9244 27.2764V33.0761C38.065 34.5875 37.2566 35.642 36.1318 36.1341C35.5694 36.3801 34.9719 36.5207 34.3744 36.5207C33.7768 36.5207 33.1793 36.3801 32.652 36.1341C31.5273 35.642 30.7188 34.5875 30.8243 33.0761V27.2764C30.8243 26.714 31.2812 26.2922 31.8085 26.2922C32.3357 26.2922 32.7926 26.714 32.7926 27.2764V33.0761C32.7926 33.0761 32.7575 33.1112 32.7575 33.1464C32.7223 33.7791 33.0387 34.1657 33.4605 34.3766C33.7417 34.5172 34.058 34.5875 34.3744 34.5875C34.7259 34.5875 35.0422 34.5172 35.2882 34.3766C35.7452 34.2008 36.0264 33.7791 35.9912 33.2167V33.0761V27.2764ZM12.0545 14.5172C11.5273 14.5172 11.0703 14.0603 11.0703 13.533C11.0703 13.0058 11.5273 12.5488 12.0545 12.5488H47.942C48.4693 12.5488 48.8911 13.0058 48.8911 13.533C48.8911 14.0603 48.4693 14.5172 47.942 14.5172H12.0545ZM12.0545 19.7545C11.5273 19.7545 11.0703 19.2975 11.0703 18.7703C11.0703 18.243 11.5273 17.7861 12.0545 17.7861H47.942C48.4693 17.7861 48.8911 18.243 48.8911 18.7703C48.8911 19.2975 48.4693 19.7545 47.942 19.7545H12.0545Z" fill="#FEFEFE"/>
</g>
<defs>
<clipPath id="clip0_208_1459">
<rect width="60" height="60" fill="white"/>
</clipPath>
</defs>
</svg>
