<svg preserveAspectRatio="none" width="100%" height="100%" overflow="visible" style="display: block;" viewBox="0 0 44 32" fill="none" xmlns="http://www.w3.org/2000/svg">
<g id="artwork">
<g clip-path="url(#clip0_0_35)">
<rect width="44" height="32" rx="4" fill="var(--fill-0, #1A47B8)"/>
<path id="vector" fill-rule="evenodd" clip-rule="evenodd" d="M4.6807 0H0V5.33333L39.2939 32L44 32V26.6667L4.6807 0Z" fill="var(--fill-0, white)"/>
<path id="vector_2" d="M1.56116 0L44 28.8756V32H42.4754L0 3.09453V0H1.56116Z" fill="var(--fill-0, #F93939)"/>
<path id="vector_3" fill-rule="evenodd" clip-rule="evenodd" d="M39.8097 2.88486e-05H44.0002V5.33336C44.0002 5.33336 16.7826 23.0999 4.19063 32H0.000157952V26.6667L39.8097 2.88486e-05Z" fill="var(--fill-0, white)"/>
<path id="vector_4" d="M44 0H42.5789L0 28.9005V32H1.56116L44 3.1179V0Z" fill="var(--fill-0, #F93939)"/>
<path id="vector_5" fill-rule="evenodd" clip-rule="evenodd" d="M16.0015 0H28.0351V9.87054H44V22.1229H28.0351V32H16.0015V22.1229H0V9.87054H16.0015V0Z" fill="var(--fill-0, white)"/>
<path id="vector_6" fill-rule="evenodd" clip-rule="evenodd" d="M18.5263 0H25.4737V12.3077H44V19.6923H25.4737V32H18.5263V19.6923H0V12.3077H18.5263V0Z" fill="var(--fill-0, #F93939)"/>
</g>
</g>
<defs>
<clipPath id="clip0_0_35">
<rect width="44" height="32" rx="4" fill="white"/>
</clipPath>
</defs>
</svg>
