<svg width="60" height="60" viewBox="0 0 60 60" fill="none" xmlns="http://www.w3.org/2000/svg">
<path d="M31.9086 55.1907V34.9365H28.0901V55.1909H5.9309C5.77 55.1909 5.61569 55.2548 5.50191 55.3685C5.38814 55.4823 5.32422 55.6366 5.32422 55.7975V58.4026C5.32422 58.5635 5.38814 58.7178 5.50191 58.8316C5.61569 58.9454 5.77 59.0093 5.9309 59.0093H54.0678C54.1474 59.0093 54.2263 58.9936 54.2999 58.9631C54.3735 58.9326 54.4404 58.8879 54.4968 58.8316C54.5531 58.7753 54.5978 58.7084 54.6283 58.6348C54.6588 58.5612 54.6745 58.4823 54.6745 58.4026V55.7975C54.6745 55.7179 54.6588 55.639 54.6283 55.5654C54.5978 55.4918 54.5531 55.4249 54.4968 55.3685C54.4404 55.3122 54.3735 55.2675 54.2999 55.237C54.2263 55.2066 54.1474 55.1909 54.0678 55.1909H31.9086V55.1907Z" fill="#0087FF"/>
<path d="M9.32031 7.87207H50.9968V37.3118H9.32031V7.87207Z" fill="#066BC6"/>
<path d="M52.2317 12.3922H7.76699C6.41793 12.3922 5.32422 11.2985 5.32422 9.94945V2.44277C5.32422 1.09371 6.41793 0 7.76699 0H52.2317C53.5807 0 54.6745 1.09371 54.6745 2.44277V9.94945C54.6745 11.2985 53.5807 12.3922 52.2317 12.3922Z" fill="#0087FF"/>
<path d="M52.2317 28.7887H7.76699C6.41793 28.7887 5.32422 27.695 5.32422 26.3459V18.8393C5.32422 17.4902 6.41793 16.3965 7.76699 16.3965H52.2317C53.5807 16.3965 54.6745 17.4902 54.6745 18.8393V26.3459C54.6745 27.695 53.5807 28.7887 52.2317 28.7887Z" fill="#0087FF"/>
<path d="M52.2317 45.1842H7.76699C6.41793 45.1842 5.32422 44.0905 5.32422 42.7414V35.2348C5.32422 33.8857 6.41793 32.792 7.76699 32.792H52.2317C53.5807 32.792 54.6745 33.8857 54.6745 35.2348V42.7414C54.6745 44.0905 53.5807 45.1842 52.2317 45.1842Z" fill="#0087FF"/>
<path d="M52.2311 0H48.1797C49.2236 0 50.0699 0.846328 50.0699 1.89023V10.502C50.0699 11.5459 49.2236 12.3922 48.1797 12.3922H52.2311C53.5802 12.3922 54.6739 11.2985 54.6739 9.94945V2.44277C54.6739 1.09371 53.5802 0 52.2311 0Z" fill="#0571F9"/>
<path d="M52.2311 16.3965H48.1797C49.2236 16.3965 50.0699 17.2428 50.0699 18.2867V26.8985C50.0699 27.9424 49.2236 28.7887 48.1797 28.7887H52.2311C53.5802 28.7887 54.6739 27.695 54.6739 26.3459V18.8393C54.6739 17.4901 53.5802 16.3965 52.2311 16.3965Z" fill="#0571F9"/>
<path d="M52.2311 32.792H48.1797C49.2236 32.792 50.0699 33.6383 50.0699 34.6822V43.294C50.0699 44.3379 49.2236 45.1842 48.1797 45.1842H52.2311C53.5802 45.1842 54.6739 44.0905 54.6739 42.7414V35.2348C54.6739 33.8856 53.5802 32.792 52.2311 32.792Z" fill="#0571F9"/>
<path d="M32.6238 5.14281H9.32336C9.08324 5.14281 8.85295 5.04742 8.68315 4.87763C8.51336 4.70784 8.41797 4.47755 8.41797 4.23742C8.41797 3.9973 8.51336 3.76701 8.68315 3.59721C8.85295 3.42742 9.08324 3.33203 9.32336 3.33203H32.6238C33.1239 3.33203 33.5291 3.73738 33.5291 4.23742C33.5291 4.73746 33.1239 5.14281 32.6238 5.14281ZM32.6238 9.06098H9.32336C9.08324 9.06098 8.85295 8.96559 8.68315 8.79579C8.51336 8.626 8.41797 8.39571 8.41797 8.15559C8.41797 7.91546 8.51336 7.68517 8.68315 7.51538C8.85295 7.34558 9.08324 7.2502 9.32336 7.2502H32.6238C32.7427 7.25018 32.8604 7.27359 32.9702 7.31908C33.0801 7.36458 33.1799 7.43127 33.264 7.51534C33.3481 7.59942 33.4148 7.69924 33.4603 7.80909C33.5057 7.91894 33.5292 8.03668 33.5291 8.15559C33.5292 8.27449 33.5057 8.39223 33.4603 8.50208C33.4148 8.61194 33.3481 8.71175 33.264 8.79583C33.1799 8.8799 33.0801 8.94659 32.9702 8.99209C32.8604 9.03758 32.7427 9.06099 32.6238 9.06098ZM32.6238 21.5927H9.32336C9.08324 21.5927 8.85295 21.4973 8.68315 21.3275C8.51336 21.1577 8.41797 20.9274 8.41797 20.6873C8.41797 20.4471 8.51336 20.2169 8.68315 20.0471C8.85295 19.8773 9.08324 19.7819 9.32336 19.7819H32.6238C33.1239 19.7819 33.5291 20.1872 33.5291 20.6873C33.5291 21.1873 33.1239 21.5927 32.6238 21.5927ZM32.6238 25.5108H9.32336C9.20446 25.5108 9.08673 25.4874 8.97688 25.4419C8.86704 25.3964 8.76722 25.3297 8.68315 25.2456C8.59908 25.1616 8.53239 25.0618 8.48689 24.9519C8.44139 24.8421 8.41797 24.7243 8.41797 24.6054C8.41797 24.4865 8.44139 24.3688 8.48689 24.259C8.53239 24.1491 8.59908 24.0493 8.68315 23.9652C8.76722 23.8811 8.86704 23.8145 8.97688 23.769C9.08673 23.7235 9.20446 23.7 9.32336 23.7H32.6238C32.7427 23.7 32.8604 23.7234 32.9702 23.7689C33.0801 23.8144 33.1799 23.8811 33.264 23.9652C33.3481 24.0493 33.4148 24.1491 33.4603 24.2589C33.5057 24.3688 33.5292 24.4865 33.5291 24.6054C33.5292 24.7243 33.5057 24.8421 33.4603 24.9519C33.4148 25.0618 33.3481 25.1616 33.264 25.2457C33.1799 25.3297 33.0801 25.3964 32.9702 25.4419C32.8604 25.4874 32.7427 25.5108 32.6238 25.5108ZM32.6238 38.0425H9.32336C9.08324 38.0425 8.85295 37.9471 8.68315 37.7773C8.51336 37.6075 8.41797 37.3772 8.41797 37.1371C8.41797 36.897 8.51336 36.6667 8.68315 36.4969C8.85295 36.3271 9.08324 36.2317 9.32336 36.2317H32.6238C32.7427 36.2317 32.8604 36.2551 32.9702 36.3006C33.0801 36.3461 33.1799 36.4128 33.264 36.4969C33.3481 36.5809 33.4148 36.6808 33.4603 36.7906C33.5057 36.9005 33.5292 37.0182 33.5291 37.1371C33.5292 37.256 33.5057 37.3738 33.4603 37.4836C33.4148 37.5935 33.3481 37.6933 33.264 37.7774C33.1799 37.8614 33.0801 37.9281 32.9702 37.9736C32.8604 38.0191 32.7427 38.0425 32.6238 38.0425ZM32.6238 41.9607H9.32336C9.08324 41.9607 8.85295 41.8653 8.68315 41.6955C8.51336 41.5257 8.41797 41.2954 8.41797 41.0553C8.41797 40.8151 8.51336 40.5849 8.68315 40.4151C8.85295 40.2453 9.08324 40.1499 9.32336 40.1499H32.6238C32.7427 40.1499 32.8604 40.1733 32.9702 40.2188C33.0801 40.2643 33.1799 40.331 33.264 40.415C33.3481 40.4991 33.4148 40.5989 33.4603 40.7088C33.5057 40.8186 33.5292 40.9364 33.5291 41.0553C33.5292 41.1742 33.5057 41.2919 33.4603 41.4018C33.4148 41.5116 33.3481 41.6114 33.264 41.6955C33.1799 41.7796 33.0801 41.8463 32.9702 41.8918C32.8604 41.9373 32.7427 41.9607 32.6238 41.9607Z" fill="#D8EAFB"/>
<path d="M22.9766 59.3072V54.8927C22.9766 54.7088 23.0496 54.5325 23.1796 54.4025C23.3096 54.2725 23.486 54.1994 23.6698 54.1994H27.0979V52.038C27.0979 51.8541 27.171 51.6778 27.301 51.5478C27.431 51.4178 27.6073 51.3447 27.7912 51.3447H32.2057C32.3895 51.3447 32.5659 51.4178 32.6959 51.5478C32.8259 51.6778 32.8989 51.8541 32.8989 52.038V54.1994H36.2169C36.4007 54.1994 36.5771 54.2725 36.7071 54.4025C36.8371 54.5325 36.9102 54.7088 36.9102 54.8927V59.3072C36.9102 59.491 36.8371 59.6674 36.7071 59.7974C36.5771 59.9274 36.4007 60.0004 36.2169 60.0004H23.6698C23.486 60.0004 23.3096 59.9274 23.1796 59.7974C23.0496 59.6674 22.9766 59.491 22.9766 59.3072Z" fill="#0571F9"/>
<path d="M47.2944 8.97461C45.7621 8.97461 44.5156 7.72809 44.5156 6.19586C44.5156 4.66363 45.7621 3.41699 47.2944 3.41699C48.8266 3.41699 50.0731 4.66352 50.0731 6.19586C50.0731 7.72797 48.8266 8.97461 47.2944 8.97461Z" fill="#FBD307"/>
<path d="M47.2944 25.3691C45.7621 25.3691 44.5156 24.1226 44.5156 22.5903C44.5156 21.058 45.7621 19.8115 47.2944 19.8115C48.8266 19.8115 50.0731 21.058 50.0731 22.5903C50.0731 24.1226 48.8266 25.3691 47.2944 25.3691Z" fill="#FBD307"/>
<path d="M47.2944 41.7676C45.7621 41.7676 44.5156 40.5211 44.5156 38.9888C44.5156 37.4566 45.7621 36.21 47.2944 36.21C48.8266 36.21 50.0731 37.4565 50.0731 38.9888C50.0731 40.5211 48.8266 41.7676 47.2944 41.7676Z" fill="#FBD307"/>
</svg>
