<svg width="55" height="55" viewBox="0 0 55 55" fill="none" xmlns="http://www.w3.org/2000/svg">
<path d="M5.85905 12.623H4.05578C3.09926 12.623 2.18192 13.003 1.50555 13.6794C0.829194 14.3557 0.449219 15.2731 0.449219 16.2296L0.449219 45.0821C0.449219 46.0386 0.829194 46.9559 1.50555 47.6323C2.18192 48.3086 3.09926 48.6886 4.05578 48.6886H50.941C51.8975 48.6886 52.8149 48.3086 53.4912 47.6323C54.1676 46.9559 54.5476 46.0386 54.5476 45.0821V16.2296C54.5476 15.2731 54.1676 14.3557 53.4912 13.6794C52.8149 13.003 51.8975 12.623 50.941 12.623H5.85905Z" fill="#466288"/>
<path d="M4.05578 12.623H50.941C51.8975 12.623 52.8149 13.003 53.4912 13.6794C54.1676 14.3557 54.5476 15.2731 54.5476 16.2296V43.2788H0.449219V16.2296C0.449219 15.2731 0.829194 14.3557 1.50555 13.6794C2.18192 13.003 3.09926 12.623 4.05578 12.623Z" fill="#0087FF"/>
<path d="M0.449219 41.4756H54.5476V43.2789H0.449219V41.4756Z" fill="#148CE0"/>
<path d="M17.582 48.6885H37.4181V54.0983H17.582V48.6885Z" fill="#345076"/>
<path d="M6 0H49.2787V39.6721H6V0Z" fill="#F1F1FB"/>
<path d="M34.5313 18.375C34.407 18.375 34.2877 18.3256 34.1998 18.2377C34.1119 18.1498 34.0625 18.0306 34.0625 17.9063C34.0615 17.0363 33.7155 16.2023 33.1004 15.5872C32.4852 14.972 31.6512 14.626 30.7813 14.625H26.25V16.6563C26.25 17.0688 25.7538 17.2775 25.4575 16.995L22.02 13.7138C21.9742 13.6701 21.9377 13.6175 21.9128 13.5593C21.8879 13.501 21.875 13.4384 21.875 13.375C21.875 13.3117 21.8879 13.249 21.9128 13.1908C21.9377 13.1325 21.9742 13.08 22.02 13.0363L25.4575 9.75502C25.755 9.47127 26.25 9.68252 26.25 10.0938V12.125H30.1563C32.8269 12.125 35 14.2981 35 16.9688V17.9063C35 18.0306 34.9506 18.1498 34.8627 18.2377C34.7748 18.3256 34.6556 18.375 34.5313 18.375Z" fill="#0087FF"/>
<path d="M28.75 22.9062V20.875H24.8438C22.1731 20.875 20 18.7019 20 16.0312V15.0938C20 14.9694 20.0494 14.8502 20.1373 14.7623C20.2252 14.6744 20.3444 14.625 20.4688 14.625C20.5931 14.625 20.7123 14.6744 20.8002 14.7623C20.8881 14.8502 20.9375 14.9694 20.9375 15.0938C20.9385 15.9637 21.2845 16.7977 21.8997 17.4128C22.5148 18.028 23.3488 18.374 24.2188 18.375H28.75V16.3438C28.75 16.252 28.777 16.1622 28.8276 16.0857C28.8782 16.0091 28.9501 15.949 29.0345 15.913C29.1189 15.8769 29.212 15.8664 29.3023 15.8827C29.3926 15.8991 29.4761 15.9416 29.5425 16.005L32.98 19.2863C33.0258 19.33 33.0623 19.3825 33.0873 19.4408C33.1122 19.499 33.125 19.5617 33.125 19.625C33.125 19.6883 33.1122 19.751 33.0873 19.8092C33.0623 19.8675 33.0258 19.92 32.98 19.9637L29.5425 23.245C29.2444 23.5287 28.75 23.3175 28.75 22.9062Z" fill="#0087FF"/>
<path d="M38.6769 36.1379C38.4742 35.4897 38.2116 34.8619 37.8924 34.2625L39.6146 31.3682L35.7826 27.5363L32.9064 29.2764C32.3127 28.9583 31.691 28.6957 31.049 28.492L30.2015 25.2461H24.7916L23.9621 28.492C23.3201 28.6957 22.6984 28.9583 22.1047 29.2764L19.2105 27.5543L15.3785 31.3863L17.1006 34.2625C16.7825 34.8561 16.5199 35.4779 16.3162 36.1199L13.0703 36.9674V39.6723H22.0867C22.0867 38.2375 22.6567 36.8615 23.6712 35.847C24.6857 34.8324 26.0618 34.2625 27.4965 34.2625C28.9313 34.2625 30.3073 34.8324 31.3219 35.847C32.3364 36.8615 32.9064 38.2375 32.9064 39.6723H41.9228V36.9674L38.6769 36.1379Z" fill="#FDB43A"/>
<path d="M27.4969 30.6553C25.1056 30.6553 22.8122 31.6052 21.1213 33.2961C19.4304 34.987 18.4805 37.2804 18.4805 39.6717H22.087C22.087 38.2369 22.657 36.8609 23.6715 35.8463C24.6861 34.8318 26.0621 34.2618 27.4969 34.2618C28.9316 34.2618 30.3077 34.8318 31.3222 35.8463C32.3367 36.8609 32.9067 38.2369 32.9067 39.6717H36.5133C36.5133 37.2804 35.5633 34.987 33.8724 33.2961C32.1815 31.6052 29.8882 30.6553 27.4969 30.6553Z" fill="#FFC729"/>
<path d="M5.85938 0H49.1381V7.21311H5.85938V0Z" fill="#0087FF"/>
<path d="M5.85938 4.50781H49.1381V7.21273H5.85938V4.50781Z" fill="#0070D3"/>
<path d="M9.46414 4.50836C9.9621 4.50836 10.3658 4.10468 10.3658 3.60672C10.3658 3.10876 9.9621 2.70508 9.46414 2.70508C8.96618 2.70508 8.5625 3.10876 8.5625 3.60672C8.5625 4.10468 8.96618 4.50836 9.46414 4.50836Z" fill="white"/>
<path d="M13.0696 4.50836C13.5676 4.50836 13.9712 4.10468 13.9712 3.60672C13.9712 3.10876 13.5676 2.70508 13.0696 2.70508C12.5716 2.70508 12.168 3.10876 12.168 3.60672C12.168 4.10468 12.5716 4.50836 13.0696 4.50836Z" fill="white"/>
<path d="M16.679 4.50836C17.1769 4.50836 17.5806 4.10468 17.5806 3.60672C17.5806 3.10876 17.1769 2.70508 16.679 2.70508C16.181 2.70508 15.7773 3.10876 15.7773 3.60672C15.7773 4.10468 16.181 4.50836 16.679 4.50836Z" fill="white"/>
<path d="M41.0211 54.9996H13.972C13.7328 54.9996 13.5035 54.9046 13.3344 54.7355C13.1653 54.5664 13.0703 54.3371 13.0703 54.0979C13.0703 53.8588 13.1653 53.6295 13.3344 53.4604C13.5035 53.2913 13.7328 53.1963 13.972 53.1963H41.0211C41.2603 53.1963 41.4896 53.2913 41.6587 53.4604C41.8278 53.6295 41.9228 53.8588 41.9228 54.0979C41.9228 54.3371 41.8278 54.5664 41.6587 54.7355C41.4896 54.9046 41.2603 54.9996 41.0211 54.9996Z" fill="#466288"/>
<path d="M3.15555 18.0328C3.65351 18.0328 4.05718 17.6291 4.05718 17.1311C4.05718 16.6332 3.65351 16.2295 3.15555 16.2295C2.65758 16.2295 2.25391 16.6332 2.25391 17.1311C2.25391 17.6291 2.65758 18.0328 3.15555 18.0328Z" fill="white"/>
<path d="M3.15555 31.5572C2.91642 31.5572 2.68708 31.4623 2.51799 31.2932C2.3489 31.1241 2.25391 30.8947 2.25391 30.6556V20.7376C2.25391 20.4984 2.3489 20.2691 2.51799 20.1C2.68708 19.9309 2.91642 19.8359 3.15555 19.8359C3.39468 19.8359 3.62401 19.9309 3.7931 20.1C3.96219 20.2691 4.05718 20.4984 4.05718 20.7376V30.6556C4.05718 30.8947 3.96219 31.1241 3.7931 31.2932C3.62401 31.4623 3.39468 31.5572 3.15555 31.5572Z" fill="white"/>
</svg>
