<svg width="60" height="60" viewBox="0 0 60 60" fill="none" xmlns="http://www.w3.org/2000/svg">
<path d="M0.625 9.65625H59.375V46.0125C59.375 46.3958 59.2995 46.7753 59.1528 47.1295C59.0061 47.4836 58.7912 47.8053 58.5201 48.0764C58.2491 48.3474 57.9273 48.5624 57.5732 48.7091C57.2191 48.8558 56.8396 48.9313 56.4563 48.9313H3.54375C3.16045 48.9313 2.78091 48.8558 2.42679 48.7091C2.07267 48.5624 1.75091 48.3474 1.47988 48.0764C1.20885 47.8053 0.993858 47.4836 0.847177 47.1295C0.700496 46.7753 0.625 46.3958 0.625 46.0125V9.65625Z" fill="#F1F1FB"/>
<path d="M6.38672 9.65625H53.6117V44.0875C53.6117 44.4708 53.5362 44.8503 53.3895 45.2045C53.2429 45.5586 53.0279 45.8803 52.7568 46.1514C52.4858 46.4224 52.164 46.6374 51.8099 46.7841C51.4558 46.9308 51.0763 47.0063 50.693 47.0063H9.30547C8.92217 47.0063 8.54263 46.9308 8.18851 46.7841C7.83439 46.6374 7.51263 46.4224 7.2416 46.1514C6.97057 45.8803 6.75558 45.5586 6.6089 45.2045C6.46221 44.8503 6.38672 44.4708 6.38672 44.0875V9.65625Z" fill="#F1F1FB"/>
<path d="M38.2299 33.0389C37.4584 33.5333 36.6154 33.943 35.7211 34.2583L35.6441 34.2966L38.3855 38.2945L41.053 36.9979L38.3116 33L38.2299 33.0389ZM17.7701 39.6436H19.3102C19.5144 39.6436 19.7103 39.5753 19.8547 39.4537C19.9991 39.3321 20.0803 39.1672 20.0803 38.9953C20.0803 38.8234 19.9991 38.6585 19.8547 38.5369C19.7103 38.4153 19.5144 38.347 19.3102 38.347H17.7701C17.5658 38.347 17.37 38.4153 17.2255 38.5369C17.0811 38.6585 17 38.8234 17 38.9953C17 39.1672 17.0811 39.3321 17.2255 39.4537C17.37 39.5753 17.5658 39.6436 17.7701 39.6436ZM22.3905 39.6436H33.9414C34.1457 39.6436 34.3415 39.5753 34.486 39.4537C34.6304 39.3321 34.7115 39.1672 34.7115 38.9953C34.7115 38.8234 34.6304 38.6585 34.486 38.5369C34.3415 38.4153 34.1457 38.347 33.9414 38.347H22.3905C22.1862 38.347 21.9904 38.4153 21.8459 38.5369C21.7015 38.6585 21.6204 38.8234 21.6204 38.9953C21.6204 39.1672 21.7015 39.3321 21.8459 39.4537C21.9904 39.5753 22.1862 39.6436 22.3905 39.6436ZM17.7701 37.0504H19.3102C19.5144 37.0504 19.7103 36.9821 19.8547 36.8606C19.9991 36.739 20.0803 36.5741 20.0803 36.4022C20.0803 36.2302 19.9991 36.0653 19.8547 35.9438C19.7103 35.8222 19.5144 35.7539 19.3102 35.7539H17.7701C17.5658 35.7539 17.37 35.8222 17.2255 35.9438C17.0811 36.0653 17 36.2302 17 36.4022C17 36.5741 17.0811 36.739 17.2255 36.8606C17.37 36.9821 17.5658 37.0504 17.7701 37.0504ZM22.3905 37.0504H25.4707C25.675 37.0504 25.8708 36.9821 26.0152 36.8606C26.1597 36.739 26.2408 36.5741 26.2408 36.4022C26.2408 36.2302 26.1597 36.0653 26.0152 35.9438C25.8708 35.8222 25.675 35.7539 25.4707 35.7539H22.3905C22.1862 35.7539 21.9904 35.8222 21.8459 35.9438C21.7015 36.0653 21.6204 36.2302 21.6204 36.4022C21.6204 36.5741 21.7015 36.739 21.8459 36.8606C21.9904 36.9821 22.1862 37.0504 22.3905 37.0504ZM17.7701 42.2367H19.3102C19.5144 42.2367 19.7103 42.1684 19.8547 42.0468C19.9991 41.9252 20.0803 41.7603 20.0803 41.5884C20.0803 41.4165 19.9991 41.2516 19.8547 41.13C19.7103 41.0084 19.5144 40.9401 19.3102 40.9401H17.7701C17.5658 40.9401 17.37 41.0084 17.2255 41.13C17.0811 41.2516 17 41.4165 17 41.5884C17 41.7603 17.0811 41.9252 17.2255 42.0468C17.37 42.1684 17.5658 42.2367 17.7701 42.2367ZM22.3905 42.2367H33.9414C34.1457 42.2367 34.3415 42.1684 34.486 42.0468C34.6304 41.9252 34.7115 41.7603 34.7115 41.5884C34.7115 41.4165 34.6304 41.2516 34.486 41.13C34.3415 41.0084 34.1457 40.9401 33.9414 40.9401H22.3905C22.1862 40.9401 21.9904 41.0084 21.8459 41.13C21.7015 41.2516 21.6204 41.4165 21.6204 41.5884C21.6204 41.7603 21.7015 41.9252 21.8459 42.0468C21.9904 42.1684 22.1862 42.2367 22.3905 42.2367Z" fill="#0087FF"/>
<path d="M59.375 9.65645V5.18145C59.375 4.40734 59.0675 3.66495 58.5201 3.11758C57.9728 2.57021 57.2304 2.2627 56.4563 2.2627H3.54375C2.76965 2.2627 2.02725 2.57021 1.47988 3.11758C0.93251 3.66495 0.625 4.40734 0.625 5.18145V9.65645H59.375Z" fill="#0860CA"/>
<path d="M53.6125 9.65645V5.18145C53.6125 3.56895 52.5625 2.2627 51.2687 2.2627H8.75C7.45625 2.2627 6.40625 3.56895 6.40625 5.18145V9.65645H53.6125Z" fill="#0087FF"/>
<path d="M10.3242 31.0938H13.4867V48.9313H10.3242V31.0938Z" fill="#7282BF"/>
<path d="M10.3242 31.0938H13.4867V39.3125H10.3242V31.0938Z" fill="#619FFF"/>
<path d="M47.8298 42.4938C47.8298 45.9209 50.7982 47.4787 52.3285 44.8803C52.4367 44.6931 52.5958 44.5366 52.7895 44.4271C52.9832 44.3175 53.2043 44.2589 53.4301 44.2572H53.7401C54.0679 44.2522 54.3844 44.37 54.6205 44.5848C54.8566 44.7997 54.9931 45.0941 55 45.4037V50.0895C55 50.663 54.7588 51.2129 54.3296 51.6184C53.9003 52.0239 53.3181 52.2517 52.7111 52.2517H48.0937C47.7659 52.2517 47.4515 52.3743 47.2191 52.5926C46.9867 52.8109 46.8553 53.1073 46.8536 53.4169V53.7098C46.8556 53.9238 46.9177 54.1335 47.0336 54.3174C47.1495 54.5014 47.315 54.6529 47.5132 54.7566C50.2902 56.2147 48.5818 59 44.9934 59C41.405 59 39.7164 56.2022 42.4802 54.7566C42.6784 54.6529 42.8439 54.5014 42.9598 54.3174C43.0757 54.1335 43.1378 53.9238 43.1398 53.7098V53.4169C43.1381 53.1073 43.0067 52.8109 42.7743 52.5926C42.5419 52.3743 42.2275 52.2517 41.8997 52.2517H37.2823C36.9821 52.2517 36.6847 52.1957 36.4074 52.087C36.1301 51.9783 35.8782 51.8189 35.6661 51.618C35.4541 51.4172 35.2862 51.1788 35.1718 50.9165C35.0575 50.6542 34.9991 50.3732 35 50.0895V45.4037C35 45.093 35.1307 44.795 35.3632 44.5754C35.5958 44.3557 35.9112 44.2323 36.2401 44.2323H36.5435C36.7701 44.2341 36.9921 44.2928 37.1868 44.4023C37.3815 44.5118 37.5419 44.6681 37.6517 44.8554C39.2019 47.4724 42.1504 45.8461 42.1504 42.4751C42.1504 39.104 39.1821 37.4902 37.6517 40.0948C37.5425 40.2825 37.3822 40.4392 37.1873 40.5487C36.9925 40.6583 36.7703 40.7167 36.5435 40.7179H36.2401C35.9124 40.7179 35.5979 40.5953 35.3656 40.377C35.1332 40.1587 35.0018 39.8623 35 39.5527V34.9043C35 34.3319 35.2403 33.7829 35.6681 33.3776C36.0959 32.9723 36.6764 32.7437 37.2823 32.7421H41.8997C42.0623 32.7429 42.2234 32.7134 42.3738 32.6552C42.5242 32.597 42.661 32.5113 42.7762 32.403C42.8915 32.2947 42.9829 32.166 43.0453 32.0242C43.1077 31.8824 43.1398 31.7304 43.1398 31.5769V31.284C43.1339 31.0708 43.0702 30.8625 42.9547 30.6792C42.8392 30.496 42.6758 30.3437 42.4802 30.2372C39.7032 28.7853 41.405 26 44.9934 26C48.5818 26 50.2705 28.7915 47.5132 30.2372C47.3176 30.3437 47.1542 30.496 47.0387 30.6792C46.9232 30.8625 46.8595 31.0708 46.8536 31.284V31.5769C46.8536 31.7304 46.8857 31.8824 46.9481 32.0242C47.0105 32.166 47.1019 32.2947 47.2172 32.403C47.3324 32.5113 47.4692 32.597 47.6196 32.6552C47.77 32.7134 47.9311 32.7429 48.0937 32.7421H52.7111C53.3181 32.7421 53.9003 32.9699 54.3296 33.3754C54.7588 33.7809 55 34.3308 55 34.9043V39.5963C54.9983 39.9059 54.8668 40.2023 54.6345 40.4206C54.4021 40.639 54.0877 40.7615 53.7599 40.7615H53.4499C53.224 40.7605 53.0025 40.7021 52.8087 40.5925C52.6149 40.4828 52.4559 40.326 52.3483 40.1384C50.7718 37.4964 47.8298 39.129 47.8298 42.4938Z" fill="#FDB43A"/>
<g clip-path="url(#clip0_208_1651)">
<path d="M21.9005 18.0984H20.6304L24.0931 27.8868L26.0317 22.3471L24.5287 18.0984H23.1886V17.1657H29.123V18.0984H27.7333L31.196 27.8868L32.4407 24.3297C34.0735 19.7725 31.1024 18.3529 31.1024 17.3359C31.1024 16.3188 31.9269 15.4944 32.9439 15.4944C32.999 15.4944 33.0524 15.4974 33.1047 15.5023C31.3815 13.8755 29.0579 12.8779 26.5011 12.8779C23.1602 12.8779 20.2174 14.5809 18.4923 17.1657H21.9004V18.0984H21.9005ZM16.8789 22.5002C16.8789 26.1841 18.9495 29.384 21.99 31.0009L17.6477 18.726C17.153 19.8849 16.8789 21.1605 16.8789 22.5002ZM34.8754 17.7587C35.013 18.5691 34.9714 19.4799 34.7601 20.3943H34.7984L34.6529 20.8101C34.5667 21.1103 34.4582 21.4173 34.3348 21.7191L31.0239 30.9947C34.0581 29.3758 36.1234 26.1794 36.1234 22.5002C36.1234 20.7761 35.6695 19.1582 34.8754 17.7587Z" fill="#0087FF"/>
<path d="M23.5312 31.6551C24.466 31.9579 25.4632 32.1222 26.4989 32.1222C27.4867 32.1222 28.4397 31.9731 29.3369 31.6965L26.5222 23.7402L23.5312 31.6551Z" fill="#0087FF"/>
<path d="M34.6317 14.3683C32.4596 12.1962 29.5717 11 26.4999 11C23.4282 11 20.5403 12.1962 18.3683 14.3683C16.1962 16.5403 15 19.4282 15 22.5C15 25.5718 16.1962 28.4596 18.3683 30.6317C20.5403 32.8037 23.4282 34 26.5 34C29.5718 34 32.4596 32.8037 34.6317 30.6317C36.8038 28.4596 38 25.5717 38 22.5C37.9999 19.4282 36.8037 16.5403 34.6317 14.3683ZM26.4999 33.1887C20.6062 33.1887 15.8112 28.3938 15.8112 22.5C15.8112 16.6062 20.6062 11.8112 26.4999 11.8112C32.3937 11.8112 37.1887 16.6062 37.1887 22.5C37.1887 28.3938 32.3938 33.1887 26.4999 33.1887Z" fill="#0860CA"/>
</g>
<defs>
<clipPath id="clip0_208_1651">
<rect width="23" height="23" fill="white" transform="translate(15 11)"/>
</clipPath>
</defs>
</svg>
