<?xml version="1.0" standalone="no"?>
<!DOCTYPE svg PUBLIC "-//W3C//DTD SVG 1.1//EN" "http://www.w3.org/Graphics/SVG/1.1/DTD/svg11.dtd" >
<svg xmlns="http://www.w3.org/2000/svg">
<metadata>Generated by IcoMoon</metadata>
<defs>
<font id="icomoon" horiz-adv-x="1024">
<font-face units-per-em="1024" ascent="960" descent="-64" />
<missing-glyph horiz-adv-x="1024" />
<glyph unicode="&#x20;" horiz-adv-x="512" d="" />
<glyph unicode="&#xe900;" glyph-name="envato-new-outline" d="M527.867-33.792c-18.152 0.138-35.526 7.409-48.364 20.244s-20.107 30.213-20.241 48.364c-0.001 18.248 7.21 35.748 20.063 48.696s30.301 20.291 48.542 20.424c18.243-0.133 35.692-7.475 48.548-20.424 12.851-12.948 20.065-30.449 20.065-48.696-0.138-18.15-7.409-35.528-20.244-48.364-12.841-12.836-30.213-20.106-48.369-20.244zM527.867 41.984c-1.9 0-3.722-0.753-5.069-2.099-1.341-1.341-2.099-3.164-2.099-5.069 0-7.68 14.341-7.68 14.341 0 0 1.905-0.758 3.727-2.104 5.069-1.341 1.347-3.164 2.099-5.069 2.099zM641.531 86.016c-13.251 0.189-25.917 5.514-35.328 14.848-8.177 8.776-13.020 20.142-13.676 32.123-0.655 11.976 2.918 23.803 10.092 33.413l-246.783-60.928c-13.662-3.308-27.844-3.881-41.728-1.684s-27.197 7.117-39.169 14.484c-11.542 7.26-21.519 16.753-29.344 27.919-7.825 11.162-13.341 23.782-16.225 37.105-5.666 20.844-4.382 42.967 3.656 63.017s22.395 36.931 40.89 48.087l95.744 61.44-54.785-11.264c-12.008-2.35-24.37-2.253-36.338 0.302-11.967 2.55-23.29 7.501-33.293 14.546-10.266 6.702-19.059 15.421-25.838 25.636-6.779 10.209-11.401 21.699-13.587 33.756-2.546 14.469-1.748 29.326 2.334 43.437s11.338 27.1 21.216 37.972l364.033 370.176c23.429 23.418 55.194 36.574 88.32 36.574s64.896-13.156 88.32-36.574c12.764-12.516 22.661-27.644 29.025-44.347s9.037-34.587 7.839-52.421c-0.922-17.667-5.601-34.933-13.722-50.649s-19.502-29.518-33.382-40.487l-143.36-109.568 124.928 18.432c10.783 1.662 21.791 1.113 32.353-1.616s20.46-7.579 29.087-14.255c16.164-12.649 26.952-30.936 30.208-51.2 2.161-13.976 0.548-28.275-4.675-41.417s-13.86-24.651-25.021-33.335l-135.168-104.962 134.144 14.336c12.063-1.428 23.516-6.083 33.157-13.471s17.111-17.239 21.627-28.513c5.934-13.855 7.25-29.261 3.748-43.924-3.507-14.664-11.643-27.807-23.204-37.484l-166.912-136.704c-8.207-7.117-18.386-11.581-29.184-12.8zM523.259 451.074l14.336-25.602c3.098-7.424 3.564-15.683 1.331-23.409s-7.040-14.459-13.619-19.087l-217.599-139.264c-7.539-4.347-13.402-11.1-16.65-19.174-3.249-8.079-3.694-17.009-1.269-25.37 0.841-5.683 2.929-11.11 6.116-15.887 3.187-4.782 7.393-8.796 12.316-11.761 4.893-3.103 10.375-5.161 16.103-6.042s11.575-0.568 17.175 0.922l345.601 84.992 15.872-19.968c2.673-3.83 4.516-8.177 5.396-12.764s0.788-9.308-0.276-13.86l92.672 76.288c1.121 1.372 1.736 3.092 1.736 4.864 0 1.777-0.614 3.492-1.736 4.864-0.573 1.664-1.7 3.077-3.19 4.009s-3.256 1.326-5.002 1.111h-14.848l-221.696-23.552-12.8 23.552c-2.924 6.984-3.451 14.74-1.505 22.057 1.94 7.316 6.252 13.783 12.257 18.391l208.896 162.818c2.606 1.909 4.649 4.487 5.908 7.461 1.265 2.974 1.7 6.234 1.26 9.435-0.061 2.918-0.727 5.791-1.966 8.436-1.234 2.644-3.005 5.003-5.202 6.924-4.531 2.967-10.035 4.068-15.36 3.071l-249.345-36.351-13.822 23.551c-3.055 7.083-3.708 14.971-1.86 22.459s6.1 14.166 12.1 19.013l225.278 172.032c7.137 5.455 12.989 12.408 17.147 20.369s6.518 16.738 6.917 25.711c0.85 9.406-0.41 18.883-3.686 27.74s-8.489 16.872-15.258 23.46c-5.827 6.071-12.826 10.9-20.567 14.2s-16.072 5.001-24.489 5.001c-8.417 0-16.748-1.701-24.489-5.001s-14.735-8.129-20.567-14.2l-363.009-369.153c-3.378-3.879-5.825-8.479-7.156-13.448-1.331-4.97-1.508-10.178-0.522-15.226 0.801-3.968 2.391-7.736 4.678-11.080s5.221-6.19 8.631-8.376c7.093-4.669 15.686-6.497 24.066-5.12l221.695 40.962z" />
<glyph unicode="&#xe901;" glyph-name="envato-new" d="M562.248-64c25.344 0 45.783 20.439 45.783 45.783 0 25.349-20.439 45.788-45.783 45.788s-45.783-20.439-45.783-45.788c0-25.344 20.439-45.783 45.783-45.783zM825.231 293.545l-257.802-27.525c-4.634-0.543-7.086 5.453-3.272 8.448l252.355 196.488c16.353 13.353 26.706 34.337 22.349 56.684-4.362 34.337-32.707 56.684-68.403 52.051l-274.156-40.060c-4.905-0.817-7.358 5.451-3.543 8.449l271.703 207.66c53.683 41.696 58.045 123.724 8.991 171.415-44.692 44.693-116.091 43.331-160.783-1.363l-438.486-446.115c-16.351-17.986-23.709-41.696-19.349-67.040 7.358-40.33 47.691-67.041 88.024-59.679l236.002 48.236c5.178 1.085 7.903-5.724 3.543-8.724l-261.891-167.598c-32.702-20.982-47.691-58.045-37.335-95.38 10.356-49.055 59.682-77.399 107.373-65.679l391.608 96.471c4.362 1.091 7.634-4.086 4.91-7.629l-61.046-75.489c-16.353-20.982 10.353-49.050 32.701-32.701l201.119 165.422c35.702 29.701 11.991 88.023-34.335 83.389l-0.276 0.271z" />
<glyph unicode="&#xe902;" glyph-name="Direct-purchase-fill" d="M64 864.083c0 23.564 19.103 42.666 42.666 42.666h40.041c58.735 0 109.933-39.974 124.177-96.955l0.197-0.787 19.826-94.432h563.21c15.252-0.281 31.555-1.077 46.177-4.935 16.307-4.302 32.415-12.882 44.385-29.356 14.715-20.241 16.251-42.792 14.95-61.736-1.208-17.57-5.504-38.887-10.168-62.053l-0.497-2.471c-17.183-85.348-34.519-168.755-76.027-229.345-21.724-31.703-50.145-57.58-87.956-75.121-37.32-17.321-81.562-25.498-133.755-25.498h-291.59c-24.892-0.732-47.63-17.556-56.75-42.644l443.777-0.169c53.018 0 96-42.977 96-96 0-53.018-42.982-96-96-96s-96 42.982-96 96c0 3.666 0.205 7.281 0.609 10.839h-107.878c0.399-3.558 0.604-7.173 0.604-10.839 0-53.018-42.982-96-96-96s-96 42.982-96 96c0 3.666 0.205 7.281 0.605 10.839h-79.050c-34.884 0-60.221 28.943-60.221 60.948 0 57.687 31.598 109.194 79.1 134.973l-104.503 497.741c-4.972 18.646-21.87 31.666-41.224 31.666h-40.041c-23.564 0-42.666 19.103-42.666 42.667zM448 117.248c-17.673 0-32-14.321-32-32 0-17.674 14.327-32 32-32s32 14.326 32 32c0 17.679-14.327 32-32 32zM746.665 117.248c-17.669 0-32-14.321-32-32 0-17.674 14.331-32 32-32 17.674 0 32 14.326 32 32 0 17.679-14.326 32-32 32z" />
<glyph unicode="&#xe903;" glyph-name="direct-purchase-outline" d="M886.656 710.9c17.516-2.782 35.584-9.452 48.358-27.030 0 0 0 0 0 0 12.308-16.934 13.921-36.122 12.698-53.894-1.157-16.775-5.315-37.41-10.076-61.050l-0.389-1.936c-17.316-86.010-34.304-166.766-74.168-224.949-20.628-30.106-47.447-54.482-83.128-71.040-35.328-16.394-77.742-24.387-128.727-24.387h-309.895c-16.966 0-30.72 13.752-30.72 30.72 0 16.963 13.754 30.72 30.72 30.72h309.895c44.754 0 77.783 7.040 102.866 18.678 24.735 11.479 43.305 28.145 58.307 50.038 31.391 45.819 46.618 112.922 64.62 202.345 5.263 26.15 8.556 42.798 9.4 55.081 0.399 5.812 0.118 9.23-0.271 11.21-0.323 1.644-0.681 2.137-0.824 2.337-0.015 0.020-0.031 0.047-0.046 0.063-0.067 0.104-0.102 0.155-0.527 0.371-0.845 0.43-3.011 1.294-7.726 2.042-10.301 1.635-25.011 1.727-49.541 1.727h-571.484c-16.966 0-30.72 13.754-30.72 30.72s13.754 30.72 30.72 30.72l573.711 0.001c21.555 0.003 41.247 0.006 56.95-2.487zM75.95 874.668c0 16.966 13.754 30.72 30.72 30.72h40.040c53.253 0 99.673-36.243 112.588-87.906l0.141-0.567 111.961-533.266c3.486-16.604-7.148-32.891-23.752-36.378s-32.891 7.148-36.377 23.752l-111.707 532.062c-6.252 24.044-27.967 40.864-52.854 40.864h-40.040c-16.966 0-30.72 13.754-30.72 30.72zM225.275 167.624c0 76.365 59.74 140.431 136.046 140.431h17.554c16.966 0 30.72-13.752 30.72-30.72 0-16.963-13.754-30.72-30.72-30.72h-17.554c-36.24 0-68.005-28.006-73.699-66.56h459.039c16.968 0 30.72-13.752 30.72-30.72 0-16.963-13.752-30.72-30.72-30.72h-473.111c-27.833 0-48.274 23.137-48.274 49.009zM447.995 118.615c-18.38 0-33.28-14.899-33.28-33.28s14.9-33.28 33.28-33.28c18.38 0 33.28 14.899 33.28 33.28s-14.9 33.28-33.28 33.28zM353.275 85.335c0 52.316 42.408 94.72 94.72 94.72s94.72-42.404 94.72-94.72c0-52.311-42.407-94.72-94.72-94.72s-94.72 42.409-94.72 94.72zM746.67 118.615c-18.381 0-33.28-14.899-33.28-33.28s14.899-33.28 33.28-33.28c18.381 0 33.28 14.899 33.28 33.28s-14.899 33.28-33.28 33.28zM651.95 85.335c0 52.316 42.409 94.72 94.72 94.72s94.72-42.404 94.72-94.72c0-52.311-42.409-94.72-94.72-94.72s-94.72 42.409-94.72 94.72z" />
<glyph unicode="&#xe904;" glyph-name="add" d="M512 742.4c21.207 0 38.4-17.192 38.4-38.4v-217.6h217.6c21.207 0 38.4-17.192 38.4-38.4s-17.193-38.4-38.4-38.4h-217.6v-217.6c0-21.207-17.193-38.4-38.4-38.4s-38.4 17.193-38.4 38.4v217.6h-217.6c-21.208 0-38.4 17.193-38.4 38.4s17.192 38.4 38.4 38.4h217.6v217.6c0 21.208 17.192 38.4 38.4 38.4z" />
<glyph unicode="&#xe905;" glyph-name="Check" d="M53.333 448c0 252.34 206.327 458.667 458.667 458.667s458.667-206.327 458.667-458.667c0-252.339-206.327-458.667-458.667-458.667s-458.667 206.327-458.667 458.667zM512 842.667c-216.994 0-394.667-177.673-394.667-394.667s177.673-394.667 394.667-394.667c216.994 0 394.667 177.673 394.667 394.667s-177.673 394.667-394.667 394.667zM715.981 591.354c12.484-12.508 12.467-32.769-0.038-45.255l-241.92-241.493c-12.501-12.48-32.747-12.471-45.235 0.021l-120.748 120.747c-12.497 12.493-12.497 32.755 0 45.252s32.758 12.497 45.255 0l98.141-98.138 219.29 218.905c12.51 12.486 32.772 12.468 45.257-0.040z" />
<glyph unicode="&#xe906;" glyph-name="computer-desktop" d="M960 917.333h-896c-23.564 0-42.667-19.103-42.667-42.667v0-512h981.333v512c0 23.564-19.103 42.667-42.667 42.667v0zM21.333 234.667c0-23.564 19.103-42.667 42.667-42.667v0h896c23.564 0 42.667 19.103 42.667 42.667v0 85.333h-981.333zM512 277.333c11.782 0 21.333-9.551 21.333-21.333s-9.551-21.333-21.333-21.333v0c-11.782 0-21.333 9.551-21.333 21.333s9.551 21.333 21.333 21.333v0zM682.667 21.333h-42.667v128h-256v-128h-42.667c-11.782 0-21.333-9.551-21.333-21.333s9.551-21.333 21.333-21.333v0h341.333c11.782 0 21.333 9.551 21.333 21.333s-9.551 21.333-21.333 21.333v0z" />
<glyph unicode="&#xe907;" glyph-name="Dashbaord-outline" d="M843.52 480h-172.373c-85.76 0-127.147 37.973-127.147 116.48v193.707c0 78.507 41.813 116.48 127.147 116.48h172.373c85.76 0 127.147-37.973 127.147-116.48v-193.28c0-78.933-41.813-116.907-127.147-116.907zM671.147 842.667c-57.173 0-63.147-16.213-63.147-52.48v-193.28c0-36.693 5.973-52.48 63.147-52.48h172.373c57.173 0 63.147 16.213 63.147 52.48v193.28c0 36.693-5.973 52.48-63.147 52.48h-172.373zM843.52-10.667h-172.373c-85.76 0-127.147 41.813-127.147 127.147v172.373c0 85.76 41.813 127.147 127.147 127.147h172.373c85.76 0 127.147-41.813 127.147-127.147v-172.373c0-85.333-41.813-127.147-127.147-127.147zM671.147 352c-50.347 0-63.147-12.8-63.147-63.147v-172.373c0-50.347 12.8-63.147 63.147-63.147h172.373c50.347 0 63.147 12.8 63.147 63.147v172.373c0 50.347-12.8 63.147-63.147 63.147h-172.373zM352.853 480h-172.373c-85.76 0-127.147 37.973-127.147 116.48v193.707c0 78.507 41.813 116.48 127.147 116.48h172.373c85.76 0 127.147-37.973 127.147-116.48v-193.28c0-78.933-41.813-116.907-127.147-116.907zM180.48 842.667c-57.173 0-63.147-16.213-63.147-52.48v-193.28c0-36.693 5.973-52.48 63.147-52.48h172.373c57.173 0 63.147 16.213 63.147 52.48v193.28c0 36.693-5.973 52.48-63.147 52.48h-172.373zM352.853-10.667h-172.373c-85.76 0-127.147 41.813-127.147 127.147v172.373c0 85.76 41.813 127.147 127.147 127.147h172.373c85.76 0 127.147-41.813 127.147-127.147v-172.373c0-85.333-41.813-127.147-127.147-127.147zM180.48 352c-50.347 0-63.147-12.8-63.147-63.147v-172.373c0-50.347 12.8-63.147 63.147-63.147h172.373c50.347 0 63.147 12.8 63.147 63.147v172.373c0 50.347-12.8 63.147-63.147 63.147h-172.373z" />
<glyph unicode="&#xe908;" glyph-name="Domain-outline" d="M512-10.667c-253.013 0-458.667 205.653-458.667 458.667s205.653 458.667 458.667 458.667c253.013 0 458.667-205.653 458.667-458.667s-205.653-458.667-458.667-458.667zM512 842.667c-217.6 0-394.667-177.067-394.667-394.667s177.067-394.667 394.667-394.667c217.6 0 394.667 177.067 394.667 394.667s-177.067 394.667-394.667 394.667zM383.906 32h-42.667c-17.493 0-32 14.507-32 32s13.653 31.573 31.147 32c-66.987 229.888-66.987 474.113 0 704-8.356 0.168-16.309 3.621-22.139 9.61s-9.065 14.033-9.008 22.39c0 17.493 14.507 32 32 32h42.667c10.24 0 20.053-5.12 26.027-13.227 5.973-8.533 7.68-19.2 4.267-29.013-80.213-242.863-80.213-505.083 0-747.946 3.413-9.813 1.707-20.48-4.267-29.013-5.973-7.68-15.787-12.8-26.027-12.8zM639.906 32c-5.094-0.043-10.129 1.139-14.669 3.443-4.544 2.308-8.469 5.675-11.439 9.818-2.97 4.139-4.898 8.934-5.628 13.978s-0.235 10.189 1.442 15.002c80.213 242.863 80.213 505.083 0 747.946-1.344 3.978-1.894 8.183-1.613 12.372s1.382 8.284 3.243 12.047c1.865 3.764 4.45 7.124 7.612 9.889 3.157 2.765 6.835 4.88 10.812 6.225s8.183 1.893 12.373 1.613c4.19-0.28 8.282-1.382 12.045-3.244 3.767-1.862 7.125-4.448 9.89-7.608s4.881-6.835 6.225-10.813c84.907-255.823 84.907-532.228 0-788.053-4.267-14.080-17.067-22.613-30.293-22.613zM511.991 226.133c-119.041 0-237.654 16.64-352.001 50.347-0.427-17.067-14.507-31.147-32-31.147s-32 14.507-32 32v42.667c0 10.24 5.12 20.053 13.227 26.027 8.533 5.973 19.2 7.68 29.013 4.267 242.864-80.213 505.085-80.213 747.948 0 4.826 1.651 9.975 2.129 15.023 1.387s9.843-2.684 13.99-5.653c8.533-5.973 13.227-15.787 13.227-26.027v-42.667c0-17.493-14.507-32-32-32s-31.573 13.653-32 31.147c-114.773-33.707-233.387-50.347-352.427-50.347zM895.991 543.999c-3.413 0-6.827 0.427-10.24 1.707-242.863 80.213-505.084 80.213-747.948 0-17.067-5.547-34.987 3.413-40.533 20.053-5.12 17.067 3.84 34.987 20.48 40.533 255.824 84.905 532.229 84.905 788.054 0 16.64-5.547 26.027-23.893 20.053-40.533-2.005-6.34-5.986-11.872-11.358-15.788-5.376-3.916-11.861-6.008-18.509-5.972z" />
<glyph unicode="&#xe909;" glyph-name="domain" d="M961.78 203.56h-203.334c13.232 64.766 21.092 135.064 23.088 207.874h241.162c-5.326-74.85-26.764-145.298-60.916-207.874zM663.724-41.054c17.102 24.566 32.868 53.594 47.016 86.84 11.182 26.268 21.124 54.618 29.806 84.63h172.784c-63.364-79.896-150.020-140.51-249.606-171.47zM110.358 130.416h173.118c8.68-30.010 18.622-58.36 29.806-84.63 14.192-33.354 30.032-62.47 47.178-87.076-78.612 24.242-150.656 67.418-210.496 127.246-14.148 14.158-27.336 29.016-39.606 44.46zM360.296 937.054c-17.102-24.564-32.868-53.594-47.016-86.84-11.182-26.268-21.124-54.618-29.806-84.63h-172.782c63.364 79.886 150.020 140.51 249.604 171.47zM913.33 765.586h-172.784c-8.68 30.010-18.624 58.362-29.806 84.63-14.148 33.246-29.914 62.274-47.016 86.84 99.586-30.962 186.242-91.586 249.606-171.47zM781.534 484.578c-1.996 72.8-9.856 143.098-23.088 207.862h203.334c34.152-62.576 55.588-133.026 60.916-207.862zM683.77 692.44c13.576-61.368 22.418-131.364 24.598-207.862h-392.714c2.178 76.498 11.020 146.494 24.596 207.862zM512 960.002c-54.812 0-113.302-72.908-152.156-194.416h304.332c-38.852 121.508-97.342 194.416-152.176 194.416zM62.24 692.44h203.334c-13.23-64.764-21.092-135.062-23.088-207.862h-241.16c5.326 74.838 26.764 145.286 60.914 207.862zM1.304 411.434h241.184c1.994-72.81 9.856-143.108 23.088-207.874h-203.68c-34.702 63.666-55.428 134.232-60.592 207.874zM340.25 203.56c-13.576 61.368-22.418 131.354-24.596 207.874h392.714c-2.178-76.52-11.020-146.504-24.598-207.874zM512-64.002c54.834 0 113.324 72.908 152.176 194.416h-304.332c38.854-121.508 97.344-194.416 152.156-194.416z" />
<glyph unicode="&#xe90a;" glyph-name="envato-1-2" d="M823.618 954.388c-36.608 17.984-222.336-2.56-356.224-131.008-210.944-210.624-205.888-488.128-205.888-488.128s-6.976-28.544-36.672 12.864c-65.024 82.88-30.976 273.536-27.136 300.096 5.376 37.44-18.496 38.528-28.416 26.176-235.008-326.272-22.784-593.408 116.16-678.208 162.688-99.264 483.584-99.2 611.392 182.4 159.232 350.656-27.328 753.344-73.216 775.808z" />
<glyph unicode="&#xe90b;" glyph-name="envato-1" d="M823.631 954.388c-36.609 17.984-222.339-2.56-356.23-131.010-210.947-210.627-205.891-488.136-205.891-488.136s-6.976-28.544-36.673 12.864c-65.025 82.881-30.976 273.54-27.136 300.101 5.376 37.441-18.496 38.529-28.416 26.176-235.012-326.277-22.784-593.417 116.162-678.219 162.691-99.266 483.592-99.202 611.402 182.403 159.234 350.661-27.328 753.356-73.217 775.82z" />
<glyph unicode="&#xe90c;" glyph-name="envato" d="M251.819 631.168c9.515 66.901-53.205 86.485-83.115 48.981-0.341-0.427-0.683-0.896-0.981-1.323-88.747-124.416-120.832-251.264-95.403-377.003 87.168-431.061 657.024-496.256 826.197-119.509 147.755 328.405-14.208 735.275-82.944 769.109-47.317 23.424-235.307-0.683-367.701-128.981-153.813-155.051-182.869-322.005-194.304-414.805-27.691 82.475-2.091 217.472-1.749 223.531zM277.845 300.629c28.587 7.339 31.872 36.011 36.864 79.403 9.216 79.829 28.373 245.931 178.091 396.843 115.84 112.171 270.293 126.592 292.181 118.528 41.771-34.176 190.080-386.987 55.168-686.891-144.597-322.005-630.528-262.912-705.067 105.941-17.664 87.211-2.389 175.915 45.483 264.533-11.349-113.92 1.792-195.84 38.656-243.243 11.307-15.829 30.251-42.411 58.624-35.115z" />
<glyph unicode="&#xe90d;" glyph-name="Hosting-outline" d="M824.311 501.248h-624.215c-80.64 0-146.347 65.706-146.347 146.346v112.213c0 80.64 65.707 146.347 146.347 146.347h624.215c80.64 0 146.347-65.707 146.347-146.347v-112.213c0-80.64-65.707-146.346-146.347-146.346zM199.67 842.58c-45.653 0-82.347-37.12-82.347-82.347v-112.213c0-45.653 37.12-82.347 82.347-82.347h624.215c45.653 0 82.347 37.12 82.347 82.347v112.213c0 45.653-37.12 82.347-82.347 82.347h-624.215zM824.311-10.752h-624.215c-80.64 0-146.347 65.707-146.347 146.347v112.213c0 80.64 65.707 146.347 146.347 146.347h624.215c80.64 0 146.347-65.707 146.347-146.347v-112.213c0-80.64-65.707-146.347-146.347-146.347zM199.67 330.581c-45.653 0-82.347-37.12-82.347-82.347v-112.213c0-45.653 37.12-82.347 82.347-82.347h624.215c45.653 0 82.347 37.12 82.347 82.347v112.213c0 45.653-37.12 82.347-82.347 82.347h-624.215zM256 629.333c-17.493 0-32 14.507-32 32v85.333c0 17.493 14.507 32 32 32s32-14.507 32-32v-85.333c0-17.493-14.507-32-32-32zM426.667 629.333c-17.493 0-32 14.507-32 32v85.333c0 17.493 14.507 32 32 32s32-14.507 32-32v-85.333c0-17.493-14.507-32-32-32zM256 117.333c-17.493 0-32 14.507-32 32v85.333c0 17.493 14.507 32 32 32s32-14.507 32-32v-85.333c0-17.493-14.507-32-32-32zM426.667 117.333c-17.493 0-32 14.507-32 32v85.333c0 17.493 14.507 32 32 32s32-14.507 32-32v-85.333c0-17.493-14.507-32-32-32zM768 672h-170.667c-17.493 0-32 14.507-32 32s14.507 32 32 32h170.667c17.493 0 32-14.507 32-32s-14.507-32-32-32zM768 160h-170.667c-17.493 0-32 14.507-32 32s14.507 32 32 32h170.667c17.493 0 32-14.507 32-32s-14.507-32-32-32z" />
<glyph unicode="&#xe90e;" glyph-name="Invoice-outline" d="M682.667-10.667h-341.333c-155.733 0-245.333 89.6-245.333 245.333v426.667c0 155.733 89.6 245.333 245.333 245.333h341.333c155.733 0 245.333-89.6 245.333-245.333v-426.667c0-155.733-89.6-245.333-245.333-245.333zM341.333 842.667c-122.027 0-181.333-59.307-181.333-181.333v-426.667c0-122.027 59.307-181.333 181.333-181.333h341.333c122.027 0 181.333 59.307 181.333 181.333v426.667c0 122.027-59.307 181.333-181.333 181.333h-341.333zM789.333 565.333h-85.333c-64.853 0-117.333 52.48-117.333 117.333v85.333c0 17.493 14.507 32 32 32s32-14.507 32-32v-85.333c0-29.44 23.893-53.333 53.333-53.333h85.333c17.493 0 32-14.507 32-32s-14.507-32-32-32zM512 373.333h-170.667c-17.493 0-32 14.507-32 32s14.507 32 32 32h170.667c17.493 0 32-14.507 32-32s-14.507-32-32-32zM682.667 202.667h-341.333c-17.493 0-32 14.507-32 32s14.507 32 32 32h341.333c17.493 0 32-14.507 32-32s-14.507-32-32-32z" />
<glyph unicode="&#xe90f;" glyph-name="invoice" d="M886.906 704.107c-15.558-0.476-49.599-0.119-135.972-0.119-56.552 0-102.413 45.86-102.413 102.413 0 86.358-0.354 120.412 0.119 135.968 0.292 9.64-7.413 17.615-17.056 17.615h-443.856c-37.702 0-68.266-30.564-68.266-68.266v-887.452c0-37.702 30.564-68.266 68.266-68.266h648.523c37.702 0 68.266 30.564 68.266 68.266v682.785c0 9.645-7.972 17.352-17.61 17.056zM260.26 759.453h151.464c9.425 0 17.066-7.641 17.066-17.066s-7.641-17.066-17.066-17.066h-151.464c-9.425 0-17.066 7.641-17.066 17.066s7.641 17.066 17.066 17.066zM260.26 652.788h236.796c9.425 0 17.066-7.641 17.066-17.066s-7.641-17.066-17.066-17.066h-236.796c-9.425 0-17.066 7.641-17.066 17.066s7.641 17.066 17.066 17.066zM780.785 149.33c0-9.425-7.641-17.066-17.066-17.066h-503.458c-9.425 0-17.066 7.641-17.066 17.066v349.861c0 9.425 7.641 17.066 17.066 17.066h503.458c9.425 0 17.066-7.641 17.066-17.066zM588.788 282.362h-294.395c-9.425 0-17.066 7.641-17.066 17.066v49.665c0 9.425 7.641 17.066 17.066 17.066h294.395c9.425 0 17.066-7.641 17.066-17.066v-49.665c0-9.425-7.641-17.066-17.066-17.066zM657.054 482.124h72.532c9.425 0 17.066-7.641 17.066-17.066v-47.698c0-9.425-7.641-17.066-17.066-17.066h-72.532c-9.425 0-17.066 7.641-17.066 17.066v47.698c0 9.427 7.641 17.066 17.066 17.066zM277.327 417.359v47.698c0 9.425 7.641 17.066 17.066 17.066h294.395c9.425 0 17.066-7.641 17.066-17.066v-47.698c0-9.425-7.641-17.066-17.066-17.066h-294.395c-9.425 0-17.066 7.641-17.066 17.066zM729.586 282.362h-72.532c-9.425 0-17.066 7.641-17.066 17.066v49.665c0 9.425 7.641 17.066 17.066 17.066h72.532c9.425 0 17.066-7.641 17.066-17.066v-49.665c0-9.425-7.641-17.066-17.066-17.066zM588.788 166.396h-294.395c-9.425 0-17.066 7.641-17.066 17.066v47.698c0 9.425 7.641 17.066 17.066 17.066h294.395c9.425 0 17.066-7.641 17.066-17.066v-47.698c0-9.425-7.641-17.066-17.066-17.066zM746.652 231.163v-47.698c0-9.425-7.641-17.066-17.066-17.066h-72.532c-9.425 0-17.066 7.641-17.066 17.066v47.698c0 9.425 7.641 17.066 17.066 17.066h72.532c9.425 0 17.066-7.641 17.066-17.066zM887.45 738.12h-136.531c-37.631 0-68.266 30.634-68.266 68.266v136.531c0 15.129 18.359 22.809 29.141 12.074l187.73-187.73c10.733-10.733 3.078-29.141-12.074-29.141z" />
<glyph unicode="&#xe910;" glyph-name="iphone" d="M681.628 960h-340.713c-60.128-0.068-108.852-48.793-108.912-108.92v-806.165c0.060-60.128 48.784-108.852 108.912-108.912h340.713c60.128 0.060 108.852 48.784 108.92 108.912v806.165c-0.068 60.128-48.793 108.852-108.92 108.92zM511.276 29.088c-25.713 0-46.551 20.838-46.551 46.551 0 25.705 20.838 46.543 46.551 46.543 25.705 0 46.543-20.838 46.543-46.543 0-25.713-20.838-46.551-46.543-46.551zM581.094 820.364h-139.636c-12.852 0-23.276 10.423-23.276 23.276s10.423 23.267 23.276 23.267h139.636c12.852 0 23.267-10.415 23.267-23.267s-10.415-23.276-23.267-23.276z" />
<glyph unicode="&#xe911;" glyph-name="Logout" d="M281.524 676.393c-55.163-52.4-90.384-129.445-90.384-228.393s35.222-175.995 90.384-228.393c55.406-52.634 132.874-82.222 220.229-82.222 16.964 0 30.722-13.752 30.722-30.72 0-16.963-13.757-30.72-30.722-30.72-101.232 0-194.43 34.412-262.544 99.113-68.358 64.937-109.51 158.556-109.51 272.942s41.152 208.006 109.51 272.94c68.113 64.702 161.312 99.113 262.544 99.113 16.964 0 30.722-13.754 30.722-30.72s-13.757-30.72-30.722-30.72c-87.355 0-164.823-29.588-220.229-82.22zM722.376 576.389c12.001 11.997 31.452 11.997 43.448 0l109.225-109.226c11.996-11.997 11.996-31.45 0-43.446l-109.225-109.225c-11.996-11.996-31.447-11.996-43.448 0-11.996 11.996-11.996 31.447 0 43.443l56.786 56.786h-362.742c-16.966 0-30.72 13.752-30.72 30.72 0 16.966 13.754 30.72 30.72 30.72h362.742l-56.786 56.784c-11.996 11.997-11.996 31.448 0 43.444z" />
<glyph unicode="&#xe912;" glyph-name="megaphone-1" d="M934.14 534.843l-399.377 399.435c-23.554 23.496-61.656 23.218-84.902 0.030-23.378-23.438-23.378-61.494 0-84.902l399.435-399.407c23.4-23.4 61.442-23.4 84.844 0 23.464 23.464 23.464 61.384 0 84.844zM420.231 794.19l-3.006-15.068c-21.174-105.916-72.634-206.538-142.236-288.093l217.294-217.294c81.544 69.588 180.78 122.43 286.701 143.63l15.096 3.006-373.849 373.819zM235.15 446.021l-148.506-148.476c-35.090-35.090-35.236-92.058 0-127.294l84.844-84.844c35.090-35.090 92.058-35.234 127.294 0l148.492 148.492-212.124 212.122zM256.363 212.671c-11.718-11.718-30.704-11.718-42.422 0s-11.718 30.704 0 42.422l42.422 42.422c11.718 11.718 30.704 11.718 42.422 0s11.718-30.704 0-42.422l-42.422-42.422zM572.533 69.442l40.81 40.81c35.238 35.232 35.122 92.2 0.002 127.262l-30.312 30.334c-16.754-11.254-32.754-23.482-48.31-36.53l36.2-36.254c11.69-11.63 11.772-30.558 0-42.392l-41.484-41.484-60.964 59.066-84.848-84.848 136.114-131.894c23.228-23.288 61.366-23.42 84.814 0.030 23.408 23.408 23.408 61.464 0 84.874l-32.022 31.026zM693.729 960c-16.582 0-30-13.418-30-30v-60c0-16.582 13.418-30 30-30s30 13.418 30 30v60c0 16.582-13.418 30-30 30zM933.73 720h-60c-16.582 0-30-13.418-30-30s13.418-30 30-30h60c16.582 0 30 13.418 30 30s-13.418 30-30 30zM894.94 891.212c-11.718 11.718-30.704 11.718-42.422 0l-60-60c-11.718-11.718-11.718-30.704 0-42.422s30.704-11.72 42.422 0l60 60c11.718 11.718 11.718 30.704 0 42.422z" />
<glyph unicode="&#xe913;" glyph-name="megaphone-2" d="M692.701 899.804c-41.994 0-77.386-28.8-87.472-67.684l-339.059-113.020h-175.818c-49.82-0.002-90.352-40.534-90.352-90.354v-180.704c0-49.82 40.532-90.352 90.352-90.352h1.188l30.894-288.875c4.246-39.54 52.838-84.294 110.304-69.84 47.498 11.864 76.806 59.566 66.324 107.11l-6.558 70.998c0.63-0.040 1.256-0.096 1.894-0.096h36.892c49.82 0 90.352 40.532 90.352 90.352v38.528l183.586-61.196c10.084-38.886 45.476-67.684 87.472-67.684 49.82 0 90.352 40.532 90.352 90.352v542.111c0.002 49.822-40.53 90.354-90.35 90.354zM218.094 57.4c-15.394-3.87-31.252 4.956-36.026 20.256l-29.948 280.033h63.216c25.608-277.295 23.884-260.427 24.706-263.731 4.026-16.13-5.798-32.524-21.948-36.558zM240.94 417.925c-26.71 0-131.39 0-150.588 0-16.606 0-30.118 13.51-30.118 30.118v180.704c0 16.606 13.51 30.118 30.118 30.118h150.588v-240.94zM361.409 267.337c0-16.606-13.51-30.118-30.118-30.118h-36.892c-2.544 0-5.002-0.35-7.36-0.944l-10.906 118.092 85.276-28.424v-58.606zM602.349 309.123l-301.173 100.392v257.759l301.173 100.392v-458.543zM722.819 267.337c0-16.606-13.51-30.118-30.118-30.118-16.606 0-30.118 13.51-30.118 30.118v542.113c0 16.606 13.51 30.118 30.118 30.118 16.606 0 30.118-13.51 30.118-30.118v-542.113zM993.874 598.629h-120.47c-16.632 0-30.118-13.484-30.118-30.118 0-16.632 13.484-30.118 30.118-30.118h120.47c16.632 0 30.118 13.484 30.118 30.118s-13.484 30.118-30.118 30.118zM1020.814 762.684c-7.438 14.878-25.532 20.908-40.408 13.468l-120.47-60.234c-14.878-7.44-20.908-25.53-13.468-40.408 7.444-14.886 25.538-20.906 40.408-13.468l120.47 60.234c14.878 7.44 20.906 25.53 13.468 40.408zM1007.344 414.745l-120.47 60.234c-14.876 7.44-32.968 1.41-40.408-13.468-7.438-14.878-1.408-32.966 13.468-40.408l120.47-60.234c14.88-7.442 32.97-1.406 40.408 13.468 7.438 14.878 1.41 32.968-13.468 40.408z" />
<glyph unicode="&#xe914;" glyph-name="money-1" d="M694 596c-181.962 0-330-148.038-330-330s148.038-330 330-330 330 148.038 330 330-148.038 330-330 330zM694 296c49.628 0 90-40.372 90-90 0-39.060-25.156-72.048-60-84.474v-65.526h-60v65.526c-34.844 12.426-60 45.414-60 84.474h60c0-16.552 13.448-30 30-30s30 13.448 30 30-13.448 30-30 30c-49.628 0-90 40.372-90 90 0 39.060 25.156 72.048 60 84.474v65.526h60v-65.526c34.844-12.426 60-45.414 60-84.474h-60c0 16.552-13.448 30-30 30s-30-13.448-30-30 13.448-30 30-30zM334 596c185.040 0 330 79.072 330 180s-144.96 184-330 184-334-83.072-334-184 148.96-180 334-180zM0 284.882v-48.882c0-100.928 148.96-180 334-180 10.496 0 20.666 0.966 31 1.472-23.012 36.182-40.174 76.33-50.28 119.25-133.81 3.694-249.996 44.812-314.72 108.16zM305.442 237.528c-0.688 9.436-1.442 18.862-1.442 28.472 0 31.274 4.098 61.542 11.086 90.706-133.976 3.63-250.304 44.77-315.086 108.176v-48.882c0-95.574 134.524-170.684 305.442-178.472zM334 416c0.032 0 0.058 0.004 0.092 0.004 19.786 47.288 48.548 89.916 84.266 125.632-27.094-3.424-55.094-5.636-84.358-5.636-142.434 0-266.148 42.474-334 108.882v-48.882c0-100.928 148.96-180 334-180z" />
<glyph unicode="&#xe915;" glyph-name="Profile" d="M512.080-62.232c-128.567 0-257.16 0-385.779 0-15.218 0-30.009 2.667-42.048 13.165-13.706 11.976-18.126 28.044-17.447 45.341 1.144 30.729 6.068 60.861 16.924 89.84 17.68 47.189 46.643 85.887 86.093 116.852 31.303 24.865 68.154 41.708 107.379 49.081 21.15 4.043 42.619 6.175 64.148 6.367 113.731 0.61 227.527 0.663 341.387 0.156 46.022-0.156 90.588-8.299 131.824-30.11 49.651-25.769 89.863-66.734 114.822-116.972 18.169-36.192 27.688-76.141 27.799-116.678 0.37-35.853-19.073-56.752-57.945-56.966-100.962-0.525-201.942-0.174-302.904-0.174l-84.253 0.098zM892.238 3.985c-0.735 5.685-1.202 10.69-1.937 15.578-8.085 48.689-29.545 90.192-66.667 122.893-36.29 32.697-83.389 50.657-132.136 50.381-119.59 0.525-239.203 0.254-358.795 0-10.917-0.138-21.806-1.135-32.569-2.979-40.023-6.269-77.137-24.821-106.255-53.11-25.77-24.638-44.425-55.826-53.99-90.25-3.877-13.633-5.816-27.75-8.976-42.514h761.323zM577.87 321.318c-33.654 0-67.308-0.392-100.942 0.138-24.31 0.37-43.134 11.683-53.699 33.712-19.386 40.43 2.365 91.221 49.9 93.754 27.771 1.487 55.608 1.336 83.358-0.45 26.076-1.674 48.155-26.406 50.733-54.005 0.623-6.798 3.005-8.588 9.327-8.392 23.454 0.721 47.086-0.548 70.349 1.812 56.222 5.685 98.869 32.968 124.848 84.231 12.698 24.968 17.119 51.863 17.448 79.674 0.677 44.794-3.722 88.809-18.708 131.304-13.361 38.449-34.068 73.908-60.95 104.389-33.454 38.446-75.812 68.035-123.334 86.16-43.956 17.058-91.167 23.98-138.143 20.255-44.527-3.462-87.849-16.196-127.21-37.393-34.844-18.809-65.773-44.157-91.114-74.669-36.833-44.132-60.852-94.788-69.227-151.91-3.877-26.799-3.877-54.181-5.428-81.31-0.581-10.166-1.938-20.001-9.984-27.266-10.895-9.738-23.438-11.141-36.562-5.648-12 5.005-17.603 15.113-17.951 27.675-1.165 31.098 0.489 62.238 4.943 93.035 6.785 46.283 21.957 90.925 44.762 131.713 20.451 35.962 46.648 68.3 77.544 95.723 42.255 38.264 92.848 66.045 147.721 81.116 29.144 8.201 59.118 13.069 89.35 14.509 61.401 2.814 122.596-9.005 178.582-34.491 45.675-20.469 84.912-50.15 119.011-86.881 43.084-46.184 73.652-102.698 88.79-164.14 11.629-45.865 14.692-92.626 12.154-139.62-3.317-61.779-27.701-113.66-73.666-155.631-41.218-37.608-89.645-55.719-144.504-57.335-32.492-0.837-64.962-0.058-97.396-0.058zM351.235 377.019c-12.504 13.027-25.88 25.315-37.376 39.201-35.825 43.217-53.447 93.852-55.56 149.554-3.238 84.992 27.14 156.058 92.451 210.589 35.554 29.642 77.272 46.742 123.14 53.246 64.672 9.212 124.981-3.213 179.707-38.951 56.413-36.809 91.114-89.354 106.331-155.084 10.676-44.907 9.020-91.883-4.786-135.92-2.987-9.541-11.188-18.227-18.766-25.32-22.354-21.072-49.958-27.011-81.421-25.685 2.231 3.504 3.508 5.939 5.173 8.041 31.699 40.257 45.154 86.453 40.711 137.012-4.746 55.135-29.077 100.689-73.163 134.81-32.024 25.009-71.386 38.67-111.95 38.854-49.126 0.74-93.461-14.47-130.295-48.144-49.376-45.3-69.13-102.091-60.891-168.211 4.323-34.822 17.273-66.744 40.827-93.484 5.002-5.645 6.107-10.089 1.939-17.038-8.298-13.984-11.961-29.603-12.659-45.866-0.232-5.271-0.478-10.547-0.736-15.832l-2.675-1.772z" />
<glyph unicode="&#xe916;" glyph-name="Profile-1" d="M923.686 112c-60.919 105.323-154.799 180.843-264.363 216.64 54.195 32.26 96.299 81.421 119.851 139.93 23.552 58.505 27.243 123.127 10.513 183.937s-52.958 114.447-103.121 152.673c-50.167 38.227-111.492 58.929-174.562 58.929s-124.393-20.703-174.557-58.929c-50.164-38.227-86.394-91.863-103.124-152.673s-13.036-125.432 10.514-183.937c23.55-58.509 65.655-107.669 119.849-139.93-109.56-35.759-203.44-111.279-264.36-216.64-2.234-3.644-3.716-7.697-4.358-11.921s-0.432-8.533 0.619-12.676c1.050-4.143 2.92-8.030 5.498-11.439s5.813-6.263 9.513-8.401c3.7-2.138 7.791-3.511 12.032-4.045 4.24-0.529 8.544-0.205 12.656 0.951 4.113 1.161 7.952 3.132 11.291 5.798s6.109 5.978 8.148 9.732c75.36 130.24 208.56 208 356.279 208 147.721 0 280.922-77.76 356.279-208 2.039-3.755 4.813-7.066 8.149-9.732 3.341-2.667 7.181-4.638 11.29-5.798 4.113-1.156 8.418-1.481 12.659-0.951 4.241 0.533 8.329 1.907 12.032 4.045 3.699 2.138 6.933 4.992 9.51 8.401 2.581 3.409 4.45 7.296 5.5 11.439s1.263 8.452 0.619 12.676c-0.64 4.224-2.125 8.277-4.356 11.921zM288.006 576c0 44.303 13.137 87.611 37.751 124.448s59.597 65.547 100.528 82.501c40.933 16.954 85.972 21.39 129.423 12.747s83.362-29.977 114.688-61.304c31.33-31.327 52.663-71.24 61.308-114.691 8.64-43.452 4.207-88.492-12.749-129.423s-45.666-75.913-82.5-100.527c-36.838-24.614-80.145-37.751-124.45-37.751-59.388 0.064-116.326 23.684-158.32 65.677-41.995 41.997-65.615 98.935-65.679 158.324z" />
<glyph unicode="&#xe917;" glyph-name="Report-outline" d="M682.667-10.667h-341.333c-128.853 0-202.667 73.813-202.667 202.667v416c0 134.4 68.267 202.667 202.667 202.667 17.493 0 32-14.507 32-32-0.006-8.406 1.646-16.731 4.86-24.498s7.928-14.825 13.873-20.769c5.944-5.944 13.001-10.658 20.769-13.873s16.093-4.866 24.498-4.86h149.333c35.413 0 64 28.587 64 64 0 17.493 14.507 32 32 32 134.4 0 202.667-68.267 202.667-202.667v-416c0-128.853-73.813-202.667-202.667-202.667zM313.6 745.813c-67.413-5.547-110.933-35.84-110.933-137.813v-416c0-94.72 43.947-138.667 138.667-138.667h341.333c94.72 0 138.667 43.947 138.667 138.667v416c0 101.973-43.52 131.84-110.933 137.813-7.283-27.262-23.356-51.361-45.726-68.563s-49.788-26.545-78.007-26.584h-149.333c-34.133 0-66.133 13.227-90.453 37.547-16.213 16.213-27.307 35.84-33.28 57.6zM586.667 650.667h-149.333c-34.133 0-66.133 13.227-90.453 37.547s-37.547 56.32-37.547 90.453c0 70.4 57.6 128 128 128h149.333c34.133 0 66.133-13.227 90.453-37.547s37.547-56.32 37.547-90.453c0-70.4-57.6-128-128-128zM437.333 842.667c-12.668 0.030-25.059-3.706-35.6-10.732s-18.756-17.027-23.602-28.731c-4.847-11.705-6.106-24.585-3.617-37.007s8.612-23.823 17.593-32.757c11.947-11.947 28.16-18.773 45.227-18.773h149.333c12.668-0.030 25.058 3.706 35.601 10.732 10.539 7.026 18.756 17.027 23.603 28.731s6.106 24.585 3.614 37.007c-2.487 12.422-8.61 23.823-17.591 32.757-11.947 11.947-28.16 18.773-45.227 18.773h-149.333zM512 373.333h-170.667c-17.493 0-32 14.507-32 32s14.507 32 32 32h170.667c17.493 0 32-14.507 32-32s-14.507-32-32-32zM682.667 202.667h-341.333c-17.493 0-32 14.507-32 32s14.507 32 32 32h341.333c17.493 0 32-14.507 32-32s-14.507-32-32-32z" />
<glyph unicode="&#xe918;" glyph-name="save-money" d="M671.36 275.192c0.107 74.184 60.216 134.293 134.39 134.4h102.41v55.68c-0.8 56.8-49.44 91.040-103.68 85.12v122.24c-0.027 8.826-7.174 15.973-15.997 16h-105.603c-0.026-11.307-0.781-22.412-2.221-33.301l0.141 1.301h91.68v-106.24c-88.302-0.002-431.72 0.001-526.24 0h-79.84c-29.069 0.353-52.498 24-52.498 53.12s23.429 52.767 52.465 53.12h38.593c-1.312 9.601-2.068 20.706-2.080 31.986v0.014h-36.48c-46.972-0.095-85.025-38.148-85.12-85.111v-518.409c0.095-46.972 38.148-85.025 85.111-85.12h656.649c46.972 0.095 85.025 38.148 85.12 85.111v55.689h-102.4c-74.184 0.107-134.293 60.216-134.4 134.39v0.010zM321.28 95.992h-128c-8.74 0.128-15.775 7.242-15.775 16s7.036 15.872 15.763 16h128.012c8.742-0.124 15.781-7.24 15.781-16s-7.039-15.876-15.769-16h-0.012zM910.72 377.592h-104.96c-135.52-4.8-135.52-200 0-204.8h104.96c17.652 0.053 31.947 14.348 32 31.995v140.805c-0.053 17.652-14.348 31.947-31.995 32h-0.005zM805.76 259.192c-8.714 0.161-15.716 7.263-15.716 16s7.002 15.839 15.701 16h0.015c8.72-0.153 15.73-7.258 15.73-16s-7.010-15.847-15.716-16h-0.014zM263.52 582.392h163.36v17.6h-32c-8.837 0-16 7.163-16 16s7.163 16 16 16v0h60c11.046 0 20 8.954 20 20s-8.954 20-20 20v0h-24c-28.461 0.233-51.444 23.359-51.444 51.853 0 27.086 20.768 49.322 47.249 51.653l0.197 0.014-0.002 11.040c0 8.837 7.163 16 16 16s16-7.163 16-16v0-10.56h32c8.837 0 16-7.163 16-16s-7.163-16-16-16v0h-60c-10.922-0.163-19.713-9.055-19.713-20s8.792-19.838 19.699-20h24.014c28.467-0.225 51.457-23.354 51.457-51.853 0-27.091-20.775-49.33-47.262-51.654l-0.196-0.014 0.002-18.080h163.2c13.009 21.369 22.301 46.472 26.268 73.309l0.132 1.091c1.443 9.215 2.267 19.842 2.267 30.662 0 114.936-92.983 208.155-207.83 208.536h-0.037c-158.701 2.072-261.335-178.375-179.36-313.598z" />
<glyph unicode="&#xe919;" glyph-name="servers" d="M384 42.666c0 42.71 18.56 83.542 50.902 112 6.656 5.888 9.002 15.232 5.888 23.552s-11.094 13.824-19.968 13.824h-335.488c-47.062 0-85.334-38.272-85.334-85.332v-85.334c0-47.062 38.272-85.334 85.334-85.334h301.098c7.638 0 14.678 4.096 18.518 10.71s3.754 14.762-0.086 21.376c-13.824 23.68-20.864 48.768-20.864 74.538zM128 21.334c-23.51 0-42.666 19.158-42.666 42.666 0 23.51 19.158 42.666 42.666 42.666 23.51 0 42.666-19.158 42.666-42.666 0-23.51-19.156-42.666-42.666-42.666zM138.922 832h746.154c7.766 0 14.89 4.224 18.646 10.966s3.542 15.062-0.512 21.632l-28.074 45.098c-19.584 31.488-53.462 50.304-90.582 50.304h-545.152c-37.078 0-70.954-18.816-90.582-50.304l-28.030-45.098c-4.096-6.57-4.31-14.848-0.512-21.632 3.796-6.784 10.88-10.966 18.644-10.966zM874.666 234.666c-3.882 0-7.766-0.214-11.562-0.554-35.542 53.334-95.232 85.888-159.104 85.888-99.328 0-181.29-75.818-191.018-172.63-49.11-9.514-86.314-52.864-86.314-104.704 0-58.794 47.872-106.666 106.666-106.666h341.334c82.346 0 149.332 66.986 149.332 149.334s-66.986 149.332-149.334 149.332zM938.666 490.666h-853.332c-47.062 0-85.334-38.272-85.334-85.332v-85.334c0-47.062 38.272-85.334 85.334-85.334h397.952c7.594 0 14.592 4.054 18.432 10.624 42.154 72.406 119.68 117.376 202.282 117.376 66.474 0 130.134-28.842 174.72-79.104 3.584-4.054 8.576-6.57 13.994-7.126 25.814-2.432 51.328-10.624 75.734-24.448 7.638-4.31 17.194-3.542 24.022 2.090 20.052 16.386 31.53 40.408 31.53 65.88v85.334c0 47.102-38.272 85.374-85.334 85.374zM128 320c-23.51 0-42.666 19.158-42.666 42.666 0 23.51 19.158 42.666 42.666 42.666 23.51 0 42.666-19.158 42.666-42.666s-19.156-42.666-42.666-42.666zM938.666 789.334h-853.332c-47.062 0-85.334-38.272-85.334-85.334v-85.334c0-47.062 38.272-85.334 85.334-85.334h853.334c47.062 0 85.334 38.272 85.334 85.334v85.334c-0.002 47.062-38.274 85.334-85.336 85.334zM128 618.666c-23.51 0-42.666 19.158-42.666 42.666 0 23.51 19.156 42.668 42.666 42.668s42.666-19.158 42.666-42.666c0-23.51-19.156-42.668-42.666-42.668zM917.334 618.666h-341.334c-11.776 0-21.334 9.558-21.334 21.334s9.558 21.334 21.334 21.334h341.334c11.776 0 21.334-9.558 21.334-21.334s-9.558-21.334-21.334-21.334z" />
<glyph unicode="&#xe91a;" glyph-name="transaction" d="M464 272h-272c-8.837 0-16 7.163-16 16v0 29.216l-71.408-61.216 71.408-61.216v29.216c0 8.837 7.163 16 16 16v0h272zM560 608h272c8.837 0 16-7.163 16-16v0-29.216l71.408 61.216-71.408 61.216v-29.216c0-8.837-7.163-16-16-16v0h-272zM400 624c0 97.202-78.798 176-176 176s-176-78.798-176-176c0-97.202 78.798-176 176-176v0c97.155 0.118 175.882 78.845 176 175.989v0.011zM160 576h32c0-17.673 14.327-32 32-32s32 14.327 32 32c0 17.673-14.327 32-32 32v0c-0.024 0-0.052 0-0.080 0-35.276 0-63.872 28.596-63.872 63.872 0 29.618 20.16 54.528 47.506 61.756l0.445 0.1v34.272h32v-34.272c27.746-7.339 47.886-32.166 48-61.715v-0.013h-32c0 17.673-14.327 32-32 32s-32-14.327-32-32c0-17.673 14.327-32 32-32v0c0.024 0 0.052 0 0.080 0 35.276 0 63.872-28.596 63.872-63.872 0-29.618-20.16-54.528-47.506-61.756l-0.445-0.1v-34.272h-32v34.272c-27.746 7.339-47.886 32.166-48 61.715v0.013zM617.376 880l32 32h-274.752l32-32h210.752zM608 16h-192c-8.837 0-16-7.163-16-16v0-16h224v16c0 8.837-7.163 16-16 16v0zM592 272c0.18 97.736 67.668 179.659 158.573 201.897l1.427 0.295v101.808h-208c-8.837 0-16 7.163-16 16v0 64c0 8.837 7.163 16 16 16v0h208v176c-0.111 33.115-25.405 60.287-57.726 63.372l-0.258 0.020-58.704-58.704c-2.895-2.896-6.894-4.687-11.312-4.688h-224c-4.418 0.001-8.417 1.792-11.312 4.688l-58.704 58.704c-32.579-3.105-57.873-30.277-57.984-63.381v-21.819c92.417-22.387 159.983-104.399 159.983-202.192s-67.566-179.805-158.563-201.901l-1.421-0.291v-117.808h208c8.837 0 16-7.163 16-16v0-64c0-8.837-7.163-16-16-16v0h-208v-160c0-35.346 28.654-64 64-64v0h32v16c0 26.51 21.49 48 48 48v0h192c26.51 0 48-21.49 48-48v0-16h32c35.346 0 64 28.654 64 64v0 21.808c-92.332 22.533-159.82 104.456-160 202.172v0.020zM544 800h128v-32h-128zM448 704v32h192v-32zM384 144v32h192v-32zM608 82.288h-128v32h128zM800 448c-97.202 0-176-78.798-176-176s78.798-176 176-176c97.202 0 176 78.798 176 176v0c-0.118 97.155-78.845 175.882-175.989 176h-0.011zM800 288c0.024 0 0.052 0 0.080 0 35.276 0 63.872-28.596 63.872-63.872 0-29.618-20.16-54.528-47.506-61.756l-0.445-0.1v-34.272h-32v34.272c-27.746 7.339-47.886 32.166-48 61.715v0.013h32c0-17.673 14.327-32 32-32s32 14.327 32 32c0 17.673-14.327 32-32 32v0c-0.024 0-0.052 0-0.080 0-35.276 0-63.872 28.596-63.872 63.872 0 29.618 20.16 54.528 47.506 61.756l0.445 0.1v34.272h32v-34.272c27.746-7.339 47.886-32.166 48-61.715v-0.013h-32c0 17.673-14.327 32-32 32s-32-14.327-32-32c0-17.673 14.327-32 32-32v0z" />
<glyph unicode="&#xe91b;" glyph-name="Vector-Stroke" d="M11.636 448c0 275.28 225.084 500.364 500.364 500.364s500.364-225.084 500.364-500.364c0-275.279-225.085-500.364-500.364-500.364s-500.364 225.085-500.364 500.364zM512 878.545c-236.72 0-430.545-193.825-430.545-430.545s193.825-430.545 430.545-430.545c236.721 0 430.545 193.825 430.545 430.545s-193.825 430.545-430.545 430.545zM476.9 634.182c0 19.28 15.63 34.909 34.909 34.909h0.419c19.279 0 34.909-15.629 34.909-34.909s-15.63-34.909-34.909-34.909h-0.419c-19.279 0-34.909 15.629-34.909 34.909zM512 529.455c19.279 0 34.909-15.629 34.909-34.909v-232.727c0-19.279-15.63-34.909-34.909-34.909s-34.909 15.63-34.909 34.909v232.727c0 19.28 15.63 34.909 34.909 34.909z" />
<glyph unicode="&#xe91c;" glyph-name="Warning" d="M53.333 448c0 252.34 206.327 458.667 458.667 458.667s458.667-206.327 458.667-458.667c0-252.339-206.327-458.667-458.667-458.667s-458.667 206.327-458.667 458.667zM512 842.667c-216.994 0-394.667-177.673-394.667-394.667s177.673-394.667 394.667-394.667c216.994 0 394.667 177.673 394.667 394.667s-177.673 394.667-394.667 394.667zM512 650.667c17.673 0 32-14.327 32-32v-213.333c0-17.673-14.327-32-32-32s-32 14.327-32 32v213.333c0 17.673 14.327 32 32 32zM469.124 277.333c0 23.565 19.102 42.667 42.667 42.667h0.384c23.565 0 42.667-19.102 42.667-42.667s-19.102-42.667-42.667-42.667h-0.384c-23.565 0-42.667 19.102-42.667 42.667z" />
</font>
</defs>
</svg>
