<svg xmlns="http://www.w3.org/2000/svg" viewBox="0 0 30 34" enable-background="new 0 0 30 34"><path d="M30 22.499c0 1.1-.749 2.5-1.665 3.111l-11.67 7.78c-.916.61-2.414.61-3.33 0l-11.67-7.78c-.916-.611-1.665-2.01-1.665-3.111v-10.998c0-1.1.749-2.5 1.665-3.111l11.67-7.78c.916-.61 2.414-.61 3.33 0l11.67 7.78c.916.611 1.665 2.01 1.665 3.111v10.998z" fill="#F95858"/><g><path fill="#fff" d="M23.399 16.497l-5.732-1.879-5.623 1.879-5.51-1.879-1.534 9.149 6.51 2.233 6.668-2.233 6.822 2.233zM15 20.5c-.164 0-.318-.081-.411-.215l-4.006-5.786c-1.625-2.166-1.383-5.755.528-7.666 1.039-1.039 2.421-1.611 3.889-1.611s2.85.572 3.889 1.611c1.912 1.911 2.15 5.504.511 7.689l-3.989 5.762c-.093.135-.246.216-.411.216zm0-10.945c-.643 0-1.167.523-1.167 1.167s.523 1.167 1.167 1.167 1.167-.523 1.167-1.167c0-.643-.524-1.167-1.167-1.167z"/><path d="M15 5.722c1.336 0 2.591.52 3.536 1.465 1.748 1.748 1.965 5.036.464 7.036l-4 5.777-4.006-5.786c-1.495-1.993-1.277-5.28.47-7.028.945-.944 2.201-1.464 3.536-1.464m0 6.666c.919 0 1.667-.748 1.667-1.667s-.748-1.666-1.667-1.666-1.667.748-1.667 1.667.748 1.666 1.667 1.666m0-7.666c-1.603 0-3.11.624-4.243 1.758-2.111 2.111-2.369 5.928-.563 8.335l3.984 5.755c.187.269.494.43.822.43.328 0 .635-.161.822-.431l4-5.778c1.787-2.381 1.532-6.201-.58-8.312-1.132-1.133-2.639-1.757-4.242-1.757zm0 6.666c-.368 0-.667-.299-.667-.667s.299-.667.667-.667.667.299.667.667-.299.667-.667.667z" fill="#F95858"/></g></svg>