<svg width="97" height="97" viewBox="0 0 97 97" fill="none" xmlns="http://www.w3.org/2000/svg">
<path d="M41.4429 38.2409C38.1484 38.2412 36.7214 35.8622 36.0688 34.2984C33.2499 35.676 30.8303 36.246 30.6178 36.2944C30.0594 36.4214 29.505 36.0728 29.3778 35.5153C29.2504 34.9577 29.5994 34.4024 30.157 34.2752C30.2253 34.2593 32.6006 33.6937 35.3099 32.3455C33.7202 28.0816 35.4468 23.2814 39.4477 21.1615C42.2881 19.4586 45.9021 22.6026 44.7168 25.661C43.4992 29.1778 40.6948 31.6426 37.9043 33.3072C38.6016 35.0855 39.7306 36.6921 42.7985 36.0068C43.9989 35.7387 44.8987 34.7373 44.9865 33.5717C44.8492 32.4646 46.4086 31.9247 46.9377 32.9271C47.4794 33.9101 49.0069 35.9138 50.2552 35.8181C51.2141 35.746 52.2209 34.4092 53.09 32.0545C53.3528 31.2637 54.5177 31.1419 54.9379 31.8615C55.3546 32.5185 56.8268 34.3738 58.0687 34.2641C58.8417 34.1959 59.6393 33.2519 60.3145 31.6057C60.5732 30.9189 61.5508 30.7418 62.033 31.2958C62.841 32.1003 64.3892 32.9395 65.735 31.1983C66.0977 30.7559 66.7499 30.6913 67.1925 31.0537C67.6349 31.4162 67.6996 32.0688 67.3371 32.5112C66.3926 33.6634 65.2974 34.2661 64.0818 34.3022C63.1135 34.3326 62.2753 33.9886 61.6533 33.6116C60.7263 35.2999 59.5832 36.2122 58.245 36.3278C56.6444 36.4672 55.2521 35.3993 54.3317 34.4252C53.2462 36.6341 51.9533 37.7695 50.4055 37.8837C48.7531 38.0044 47.3516 36.8524 46.4038 35.7532C45.4865 37.4446 43.3005 38.2987 41.4429 38.2409ZM40.4168 22.9918C37.3717 24.4481 36.1025 28.1052 37.1474 31.3259C39.504 29.8678 41.7836 27.8019 42.7593 24.9833C43.1419 23.7729 41.7589 22.35 40.4168 22.9918Z" fill="#0087FF"/>
<path d="M67.7238 14.4911H30.6616C30.0897 14.4911 29.626 14.0274 29.626 13.4555C29.626 12.8837 30.0897 12.4199 30.6616 12.4199H67.7238C68.2957 12.4199 68.7594 12.8837 68.7594 13.4555C68.7594 14.0274 68.2957 14.4911 67.7238 14.4911Z" fill="#0087FF"/>
<path d="M85.1223 1.03516H85.0747C85.0904 1.03516 85.1056 1.03655 85.1212 1.03683L85.1223 1.03516Z" fill="black"/>
<path d="M96.4423 62.1793L82.6407 38.4453C81.6534 36.7469 79.4654 36.1651 77.7641 37.1469L71.465 40.7831C70.1359 41.5227 69.4182 43.1612 69.7573 44.6355L64.3826 45.9921C62.9802 46.3461 61.52 46.2742 60.1594 45.7844L52.6727 43.0887C50.0052 42.1281 47.0873 42.4249 44.6673 43.9027L37.6961 48.1606C35.983 47.4662 34.3671 47.0265 32.8881 46.8585C31.2841 46.6764 29.7218 46.2125 28.3091 45.5128C28.993 43.9922 28.4282 42.0473 27.0214 41.136L20.9911 37.0692C19.3624 35.9707 17.1394 36.3986 16.0358 38.0238L0.613758 60.7365C-0.501992 62.3087 -0.04633 64.6676 1.57375 65.7123L7.60319 69.7787C8.84011 70.6156 10.4631 70.5792 11.6652 69.7319C12.7903 71.1318 14.0974 72.3542 15.5721 73.3803L14.3478 75.1288C12.8429 77.278 13.3671 80.2508 15.5164 81.7555C16.3453 82.3359 17.2966 82.6145 18.239 82.6145C18.3529 82.6145 18.4666 82.6091 18.5799 82.601C18.204 84.4077 18.9021 86.3503 20.5073 87.4741C21.7449 88.3357 23.2409 88.5449 24.6362 88.1213C24.6495 88.2997 24.6717 88.4784 24.7052 88.6572C24.943 89.9253 25.6648 91.0187 26.7366 91.7354C28.3725 92.8691 30.558 92.8337 32.1679 91.7136C32.4813 92.7043 33.1028 93.5624 33.9684 94.1684C36.0934 95.6629 39.0815 95.1634 40.5954 92.9998L41.0574 92.3399L45.914 96.0509C47.9226 97.6283 50.7253 97.1747 52.3579 95.1619C53.065 94.2887 53.4332 93.2488 53.4794 92.203C55.5249 93.7318 58.6584 93.3113 60.2282 91.2905C60.8907 90.4723 61.2689 89.4879 61.3271 88.4571L61.405 88.5202C63.5323 90.2433 66.6652 89.9139 68.3882 87.7866C69.1593 86.8343 69.5193 85.6806 69.4909 84.5419C71.4176 85.1788 73.6255 84.6045 74.9771 82.9365C76.6875 80.8256 76.3882 77.6842 74.3178 75.9409L49.3321 54.474C49.0645 54.2441 48.6983 54.1665 48.3605 54.2673L42.5997 55.9899C42.4004 56.0496 42.2235 56.1679 42.0924 56.3296L38.3471 60.9436C35.9984 63.8375 31.8804 64.7146 28.5564 63.0287C28.0027 62.7658 27.8136 62.0022 28.1805 61.5113L34.1811 53.0313C34.4261 52.6849 34.7339 52.3973 35.0959 52.1763L45.7475 45.6705C47.6287 44.5214 49.8973 44.2904 51.9716 45.0375L59.4583 47.7331C61.2083 48.3632 63.0866 48.4556 64.89 48.0005L70.6632 46.5432L77.0808 57.5783L83.6653 68.9007C82.3735 70.3777 80.3775 72.2142 77.6373 73.512C77.1204 73.7568 76.8998 74.3742 77.1446 74.8912C77.3902 75.4133 78.0186 75.6265 78.5238 75.3839C80.9181 74.25 83.1337 72.5833 84.988 70.5299C86.1153 71.3273 87.6281 71.4147 88.8398 70.7113L95.1379 67.0758C96.8269 66.1471 97.4458 63.8253 96.4423 62.1793ZM10.3359 62.8911C9.71394 63.8124 8.46211 64.0554 7.53981 63.4338C6.61751 62.8122 6.37394 61.5614 6.99592 60.6402C7.6179 59.7189 8.86972 59.476 9.79202 60.0975C10.7143 60.7191 10.9579 61.9699 10.3359 62.8911ZM20.0225 79.8705C19.1321 80.6849 17.6857 80.7717 16.7042 80.0588C15.4905 79.209 15.1945 77.5303 16.0443 76.3166L17.9144 73.6458C18.7692 72.424 20.4566 72.1421 21.6568 72.9859C22.6933 73.7117 23.0576 75.0414 22.6135 76.1702L20.0225 79.8705ZM25.4374 85.1175C24.5874 86.3314 22.9085 86.6272 21.6951 85.7776C20.4814 84.9276 20.1853 83.2491 21.0351 82.0354L26.4639 74.2825C27.3188 73.0605 29.006 72.7786 30.2063 73.6224C31.4196 74.472 31.7158 76.1497 30.8672 77.3634L25.4374 85.1175ZM31.6474 89.3539C30.8169 90.5486 29.1574 90.8628 27.9487 90.0546C26.6697 89.2837 26.2965 87.4451 27.1803 86.2399L33.7491 76.8588C34.5991 75.6451 36.2776 75.3489 37.4938 76.2006L37.5188 76.218C38.7284 77.0649 39.0269 78.7405 38.1839 79.953L31.6474 89.3539ZM38.8982 91.8122C38.0482 93.0255 36.3697 93.3217 35.1558 92.4721C34.1676 91.8049 33.7486 90.4496 34.1772 89.3438L37.9474 83.921C38.8688 83.0801 40.2675 82.9821 41.2946 83.7051C42.4951 84.5092 42.8074 86.2813 41.9545 87.4474L38.8982 91.8122ZM34.0158 50.4087C33.4119 50.7776 32.8986 51.2575 32.49 51.8349L26.4893 60.315C25.3916 61.7918 25.9591 64.0825 27.6194 64.876C31.8075 66.9996 36.9956 65.8948 39.9552 62.2489L43.4992 57.8828L48.4118 56.4137L72.9755 77.5187C74.1967 78.5469 74.3725 80.3925 73.3672 81.6333C72.343 82.8974 70.4808 83.0931 69.2161 82.0691L56.372 71.668C55.9276 71.308 55.2755 71.3766 54.9156 71.8211C54.5556 72.2656 54.6242 72.9176 55.0686 73.2775L66.3498 82.4129L66.3504 82.4136L66.3516 82.4146C67.5906 83.4191 67.7822 85.244 66.7785 86.4836C65.7744 87.7237 63.9486 87.9155 62.7084 86.9109L50.0122 76.6296C49.5678 76.2696 48.9157 76.3381 48.5558 76.7826C48.1958 77.2271 48.2644 77.8791 48.7088 78.2391L58.1905 85.9174C59.4196 86.8712 59.6223 88.799 58.6184 89.9875C57.6645 91.2167 55.7374 91.4185 54.5483 90.415L47.7252 84.8897C47.2808 84.5297 46.6287 84.5982 46.2688 85.0427C45.9088 85.4872 45.9774 86.1392 46.4218 86.4992L50.3078 89.6459C50.308 89.6461 50.3082 89.6466 50.3086 89.6468C50.309 89.6472 50.3095 89.6474 50.3101 89.6478C51.5894 90.6884 51.786 92.5771 50.7483 93.8587C49.8132 95.0134 48.255 95.2636 47.1861 94.4167L42.2465 90.6422L43.6518 88.6354C45.1623 86.5706 44.6087 83.4322 42.4833 82.0084C41.6875 81.4513 40.7787 81.1729 39.8734 81.1516L39.885 81.135C41.3777 78.988 40.8493 76.0212 38.705 74.5196L38.6799 74.5022C37.0025 73.3277 34.8232 73.3894 33.2317 74.4952C32.94 73.4892 32.3179 72.5721 31.3951 71.9259C29.2463 70.421 26.2731 70.9454 24.7682 73.0944L24.5347 73.4277C24.2038 72.5928 23.6346 71.842 22.8455 71.2896C20.9619 69.9709 18.4457 70.2107 16.8395 71.7368C15.3849 70.7378 14.1084 69.5287 13.0334 68.1257L27.1946 47.2717C28.8726 48.1327 30.7402 48.6992 32.6551 48.9168C33.5237 49.0154 34.4551 49.224 35.4398 49.5394L34.0158 50.4087ZM89.3452 64.3863C88.3818 64.942 87.1499 64.6123 86.5936 63.6498C86.0373 62.6873 86.3674 61.4566 87.3309 60.9009C88.2942 60.3452 89.5262 60.675 90.0825 61.6375C90.6386 62.5999 90.3085 63.8306 89.3452 64.3863Z" fill="#00284C"/>
<path d="M85.5182 0.0128414V0H24.2288C21.3736 0 19.0508 2.32284 19.0508 5.17797V31.5314C19.0508 32.1032 19.5145 32.567 20.0864 32.567C20.6582 32.567 21.122 32.1032 21.122 31.5314V5.17797C21.122 3.46489 22.5157 2.07119 24.2288 2.07119H79.6904C78.0662 3.53697 77.0441 5.65414 77.0441 8.00515V26.4269C77.0441 26.9988 77.5078 27.4625 78.0797 27.4625C78.6515 27.4625 79.1153 26.9988 79.1153 26.4269V18.6094H92.0693C92.6412 18.6094 93.1049 18.1457 93.1049 17.5738V8.00515C93.1047 3.73953 89.7405 0.243365 85.5182 0.0128414Z" fill="#0087FF"/>
<path d="M78.0797 33.1974C78.8232 33.1974 79.4259 32.5947 79.4259 31.8512C79.4259 31.1076 78.8232 30.5049 78.0797 30.5049C77.3361 30.5049 76.7334 31.1076 76.7334 31.8512C76.7334 32.5947 77.3361 33.1974 78.0797 33.1974Z" fill="#0087FF"/>
</svg>
