<svg width="8016" height="6263" viewBox="0 0 8016 6263" fill="none" xmlns="http://www.w3.org/2000/svg">
<path d="M1997.43 5958.39H2643.66C2962.51 5904.3 3272.82 5779.04 3577.43 5648.09C3958.91 5485.82 4340.38 5315.01 4741.79 5255.23C5143.19 5198.29 5573.07 5263.77 5900.45 5542.75C6005.79 5633.85 6091.19 5739.18 6156.67 5861.6C6173.75 5895.76 6196.53 5927.08 6216.45 5955.54H7406.43C7443.44 5907.15 7471.91 5853.06 7494.69 5793.27C7600.02 5528.52 7656.96 5240.99 7651.26 4947.77C7642.72 4460.96 7486.15 3994.09 7306.79 3555.68C7007.88 2812.66 6640.63 2098.1 6139.59 1525.89C5641.39 956.531 4998 535.202 4309.07 464.031C3768.17 407.095 3221.57 566.517 2726.22 834.118C2230.87 1104.57 1783.92 1480.35 1356.89 1878.9C1055.13 2160.73 753.36 2462.5 565.469 2858.2C246.622 3532.9 317.793 4423.96 702.117 5047.41C1009.58 5545.6 1490.69 5864.45 1997.43 5958.39Z" fill="#0056FF" fill-opacity="0.0509804"/>
<path d="M7266.94 1807.73V2778.49C7266.94 2841.12 7215.69 2892.37 7153.06 2892.37H5217.21L4773.1 3228.29C4741.79 3253.91 4693.39 3231.14 4693.39 3188.44V2892.37H4494.11C4431.48 2892.37 4380.24 2841.12 4380.24 2778.49V1807.73C4380.24 1745.1 4431.48 1693.86 4494.11 1693.86H7153.06C7215.69 1693.86 7266.94 1745.1 7266.94 1807.73Z" fill="#8EB6FF"/>
<path d="M3648.6 2519.43C3648.6 2647.54 3585.97 2750.03 3509.1 2750.03H3457.86C3534.73 2750.03 3597.36 2647.54 3597.36 2519.43C3597.36 2391.33 3534.73 2288.84 3457.86 2288.84H3509.1C3583.12 2288.84 3648.6 2391.33 3648.6 2519.43Z" fill="#497BFD"/>
<path d="M3594.51 2519.43C3594.51 2647.54 3531.88 2750.03 3455.01 2750.03C3378.15 2750.03 3315.52 2647.54 3315.52 2519.43C3315.52 2391.33 3378.15 2288.84 3455.01 2288.84C3531.88 2288.84 3594.51 2391.33 3594.51 2519.43Z" fill="#9EBBFB"/>
<path d="M3520.49 2519.43C3520.49 2584.91 3489.18 2636.15 3449.32 2636.15C3409.47 2636.15 3378.15 2584.91 3378.15 2519.43C3378.15 2453.96 3409.47 2399.87 3449.32 2399.87C3489.18 2402.71 3520.49 2453.96 3520.49 2519.43Z" fill="#497BFD"/>
<path d="M5817.89 3672.4C5817.89 3672.4 5305.46 4643.16 4986.62 4722.87C4852.81 4754.19 4405.86 4591.92 4405.86 4591.92L4585.21 4019.71L4864.2 4082.34L4875.59 4085.18L5573.07 3356.4L5780.89 3626.85L5817.89 3672.4Z" fill="#F6A285"/>
<path d="M5817.89 3672.4C5817.89 3672.4 5305.46 4643.16 4986.62 4722.87C4852.81 4754.19 4405.86 4591.92 4405.86 4591.92L4585.21 4019.71L4864.2 4082.34C4855.66 4110.81 4847.12 4139.27 4841.43 4167.74C4830.04 4233.22 4844.27 4301.54 4858.51 4369.87C4867.05 4412.57 4878.44 4458.12 4898.36 4497.97C4918.29 4537.83 4955.3 4571.99 4998 4580.53C5057.79 4594.76 5120.42 4557.76 5157.43 4509.36C5194.44 4460.96 5211.52 4401.18 5234.29 4341.4C5336.78 4053.87 5533.21 3800.5 5783.73 3626.85L5817.89 3672.4Z" fill="url(#paint0_linear_8_147)"/>
<path d="M5817.89 3672.4C5826.43 3638.23 5914.69 3547.14 5948.85 3535.75C6008.63 3515.82 6045.64 3495.89 6079.8 3475.96C6113.97 3453.19 6145.28 3427.57 6187.98 3399.1C6287.62 3333.62 6210.76 3268.15 6210.76 3268.15C6321.79 3182.74 6199.37 3142.89 6199.37 3142.89C6324.63 3054.64 6179.44 3006.24 6179.44 3006.24C6384.42 2826.89 6392.96 2664.62 6341.71 2639C6276.24 2604.84 6096.89 2872.44 5897.61 2974.92C5698.33 3077.41 5575.91 3359.25 5575.91 3359.25L5817.89 3672.4Z" fill="#F6A285"/>
<path d="M6196.53 3142.89C6159.52 3157.12 6119.66 3168.51 6079.8 3174.2L6020.02 3182.74H6005.79C6000.09 3182.74 5994.4 3179.9 5991.55 3174.2C5985.86 3165.66 5988.71 3154.27 5991.55 3142.89C5997.25 3122.96 6011.48 3105.88 6028.56 3094.49L6079.8 3060.33L6131.05 3029.01C6148.13 3017.63 6165.21 3009.09 6185.14 3003.39C6165.21 3009.09 6148.13 3020.47 6131.05 3031.86L6079.8 3066.02C6062.72 3077.41 6045.64 3085.95 6028.56 3100.18C6011.48 3111.57 5997.25 3128.65 5991.55 3145.73C5988.71 3154.27 5988.71 3165.66 5991.55 3174.2C5997.25 3182.74 6008.63 3182.74 6017.17 3179.9L6076.96 3171.36C6119.66 3168.51 6159.52 3157.12 6196.53 3142.89Z" fill="#E17659"/>
<path d="M6207.91 3270.99C6170.9 3285.23 6131.05 3299.46 6094.04 3308C6074.11 3313.7 6054.18 3316.54 6034.25 3319.39H6020.02C6014.33 3319.39 6011.48 3313.7 6008.63 3308C6005.79 3299.46 6005.79 3288.08 6008.63 3276.69C6014.33 3256.76 6031.41 3242.53 6045.64 3228.29L6096.89 3194.13L6148.13 3162.82C6165.21 3151.43 6182.29 3142.89 6202.22 3137.19C6182.29 3142.89 6165.21 3154.28 6148.13 3162.82L6096.89 3194.13C6079.8 3205.52 6062.72 3214.06 6045.64 3225.45C6028.56 3236.83 6014.33 3251.07 6008.63 3270.99C6005.79 3279.53 6002.94 3290.92 6008.63 3299.46C6011.48 3305.16 6014.33 3308 6017.17 3308H6031.41C6051.34 3305.16 6071.26 3302.31 6091.19 3296.62C6131.05 3296.62 6170.9 3282.38 6207.91 3270.99Z" fill="#E17659"/>
<path d="M6216.45 3376.33C6185.14 3387.71 6153.82 3401.95 6119.66 3410.49C6102.58 3416.18 6085.5 3419.03 6071.26 3421.88H6057.03C6051.34 3421.88 6048.49 3419.03 6045.64 3413.33C6042.8 3404.79 6042.8 3396.25 6045.64 3387.71C6051.34 3370.63 6062.72 3359.25 6076.96 3347.86C6091.19 3336.47 6105.43 3330.78 6119.66 3319.39L6162.36 3293.77C6176.6 3285.23 6190.83 3273.84 6207.91 3270.99C6190.83 3276.69 6179.44 3285.23 6165.21 3296.62L6122.51 3325.08C6094.04 3342.16 6059.88 3356.4 6048.49 3390.56C6045.64 3399.1 6045.64 3407.64 6048.49 3413.33C6051.34 3421.88 6062.72 3421.88 6068.42 3419.03C6085.5 3416.18 6102.58 3413.33 6116.81 3410.49C6150.98 3399.1 6185.14 3387.71 6216.45 3376.33Z" fill="#E17659"/>
<path d="M5817.89 3330.78C5971.62 3225.44 5869.14 3122.96 5869.14 3122.96C5971.62 3080.26 6099.73 3040.4 6076.96 2969.23C6048.49 2880.98 5775.19 3006.24 5678.4 3094.49C5621.46 3148.58 5584.45 3225.44 5570.22 3362.09" fill="#F6A285"/>
<path d="M5817.89 3330.78L5843.52 3310.85C5852.06 3305.16 5857.75 3296.62 5866.29 3288.08C5880.53 3270.99 5891.91 3256.76 5897.61 3236.83C5903.3 3216.9 5903.3 3196.98 5900.45 3177.05C5894.76 3157.12 5886.22 3140.04 5871.98 3122.96C5911.84 3105.88 5951.7 3091.64 5988.71 3074.56C6008.63 3066.02 6025.71 3054.64 6042.8 3043.25C6059.88 3031.86 6076.96 3014.78 6079.8 2994.85V2980.62C6079.8 2974.93 6076.96 2969.23 6074.11 2966.38C6068.42 2957.84 6059.88 2952.15 6051.34 2949.3C6031.41 2943.61 6008.63 2946.46 5988.71 2949.3C5946 2957.84 5906.15 2972.08 5866.29 2989.16C5826.44 3006.24 5789.43 3026.17 5752.42 3048.94C5715.41 3071.72 5681.25 3097.34 5655.62 3128.65C5601.53 3194.13 5584.45 3282.38 5573.07 3367.79C5581.61 3285.23 5601.53 3196.98 5655.62 3128.65C5681.25 3094.49 5718.26 3068.87 5752.42 3046.1C5789.43 3023.32 5826.44 3003.39 5866.29 2986.31C5906.15 2969.23 5946 2955 5988.71 2946.46C6008.63 2943.61 6031.41 2940.76 6051.34 2946.46C6062.72 2949.3 6071.26 2955 6076.96 2966.38C6079.8 2972.08 6079.8 2977.77 6082.65 2980.62C6085.5 2986.31 6082.65 2992.01 6082.65 2997.7C6079.8 3020.47 6062.72 3034.71 6045.64 3048.94C6028.56 3060.33 6008.63 3071.72 5988.71 3080.26C5948.85 3097.34 5908.99 3111.57 5871.98 3128.65C5886.22 3142.89 5897.61 3162.82 5900.45 3182.74C5906.15 3202.67 5906.15 3225.45 5897.61 3245.37C5891.91 3265.3 5877.68 3282.38 5866.29 3296.62L5843.52 3319.39L5817.89 3330.78Z" fill="#E17659"/>
<path d="M4659.23 4745.65L4309.07 4654.55L3748.24 4509.36L3574.58 3421.88L3679.92 3470.27L4793.03 3979.85C4867.05 4042.48 4716.17 4754.19 4659.23 4745.65Z" fill="#C5ADFF"/>
<path d="M4309.07 4654.55L3748.24 4509.36L3577.43 3421.88L3682.76 3470.27C3779.55 3524.36 3901.97 3598.38 3924.74 3618.31C4143.95 3817.58 4254.98 4201.9 4309.07 4654.55Z" fill="#976FF8"/>
<path d="M1724.13 4751.34C1732.67 4774.11 1741.21 4799.74 1752.6 4825.36C1781.07 4899.37 1812.39 4976.24 1840.85 5058.8C1846.55 5073.03 1852.24 5090.11 1857.94 5107.19C1869.32 5144.2 1883.56 5184.06 1894.94 5223.91L1912.03 5292.23C1912.03 5295.08 1914.87 5297.93 1914.87 5300.78L1923.41 5334.94C1926.26 5346.32 1929.11 5360.56 1931.95 5371.95V5377.64C1934.8 5389.03 1937.65 5403.26 1940.49 5414.65C1954.73 5480.12 1966.12 5551.3 1974.66 5625.31C1977.5 5642.39 1977.5 5662.32 1980.35 5679.4C1980.35 5685.1 1980.35 5687.94 1983.2 5693.64C1983.2 5713.56 1986.04 5733.49 1986.04 5753.42C1986.04 5767.65 1988.89 5781.89 1988.89 5798.97V5841.67C1988.89 5864.45 1986.04 5895.76 1977.5 5932.77H4021.54C4032.92 4685.86 4249.28 4107.96 3921.9 3683.78C3785.25 3504.43 3566.04 3399.1 3213.03 3285.23C3207.34 3282.38 3201.65 3282.38 3193.11 3279.53C3084.93 3245.37 2985.29 3219.75 2914.11 3216.9C2820.17 3214.06 2694.91 3236.83 2558.26 3285.23C2555.41 3288.07 2549.72 3288.08 2544.02 3290.92C2424.46 3333.62 2296.35 3396.25 2173.94 3475.97C1877.86 3666.7 1624.49 3951.38 1624.49 4287.31C1624.49 4429.65 1655.81 4554.91 1698.51 4680.17C1707.05 4700.1 1715.59 4725.72 1724.13 4751.34Z" fill="#C5ADFF"/>
<path d="M1974.66 5622.47C1977.5 5639.55 1977.5 5659.47 1980.35 5676.56C1980.35 5682.25 1980.35 5685.1 1983.2 5690.79C1983.2 5710.72 1986.04 5730.65 1986.04 5750.57C1986.04 5764.81 1988.89 5779.04 1988.89 5796.12V5838.82C1988.89 5861.6 1986.04 5892.91 1977.5 5929.92H2148.31C2151.16 5793.28 2136.93 5656.63 2108.46 5522.83C2097.07 5465.89 2074.3 5317.86 1994.58 5309.32C1963.27 5306.47 1946.19 5334.94 1934.8 5371.95C1937.65 5383.33 1940.49 5397.57 1943.34 5408.95C1954.73 5477.28 1966.12 5548.45 1974.66 5622.47ZM1724.13 4751.34C1732.67 4776.96 1744.06 4799.74 1752.6 4825.36C1781.07 4899.37 1812.39 4976.24 1840.85 5058.8L1849.39 5084.42H1892.1C1866.48 5018.94 1840.85 4953.46 1818.08 4893.68C1809.54 4868.06 1798.15 4845.28 1789.61 4819.66C1781.07 4794.04 1772.53 4768.42 1763.99 4745.65C1721.29 4620.39 1692.82 4495.13 1692.82 4352.79C1692.82 4016.86 1946.19 3732.18 2242.26 3541.44C2361.83 3461.73 2492.78 3401.95 2612.35 3356.4C2618.04 3353.55 2620.89 3353.55 2626.58 3350.71C2760.38 3302.31 2885.65 3279.53 2982.44 3282.38C3053.61 3285.23 3153.25 3310.85 3261.43 3345.01C3267.12 3347.86 3275.66 3347.86 3281.36 3350.71C3563.19 3441.8 3759.63 3527.21 3896.28 3649.62C3756.78 3490.2 3546.11 3393.41 3215.88 3285.23C3210.19 3282.38 3204.49 3282.38 3195.95 3279.53C3087.77 3245.37 2988.13 3219.75 2916.96 3216.9C2820.17 3214.06 2694.91 3236.83 2561.11 3285.23C2555.41 3288.07 2552.57 3288.08 2546.87 3290.92C2427.3 3333.62 2299.2 3396.25 2176.78 3473.12C1880.71 3663.86 1627.34 3948.54 1627.34 4284.46C1627.34 4426.8 1658.66 4552.06 1701.36 4680.17C1707.05 4700.1 1715.59 4725.72 1724.13 4751.34Z" fill="#976FF8"/>
<path d="M3213.03 3282.38C3207.34 3325.08 3187.41 3362.09 3156.1 3393.41C3096.31 3453.19 2993.83 3487.35 2877.11 3487.35C2694.91 3487.35 2563.95 3404.79 2546.87 3285.23C2552.57 3282.38 2555.41 3282.38 2561.11 3279.53C2697.75 3231.14 2823.02 3208.36 2916.96 3211.21C2990.98 3214.06 3087.77 3236.83 3195.95 3273.84C3198.8 3276.69 3207.34 3279.53 3213.03 3282.38Z" fill="white"/>
<path d="M3124.78 3253.91V2775.65H2632.28V3256.76C2632.28 3447.5 3124.78 3444.65 3124.78 3253.91Z" fill="url(#paint1_linear_8_147)"/>
<path d="M2575.34 2530.82C2575.34 2841.12 2749 3060.33 3065 3091.64C3332.6 3120.11 3534.73 3014.78 3554.65 2530.82C3574.58 2046.86 3335.45 1970 3065 1970C2794.55 1970 2575.34 2220.52 2575.34 2530.82Z" fill="url(#paint2_linear_8_147)"/>
<path d="M2381.75 2530.82C2378.91 2530.82 2376.06 2527.97 2373.21 2525.13C2347.59 2471.04 2262.19 2286 2230.87 2143.65C2216.64 2075.33 2199.56 1984.23 2219.48 1898.83C2239.41 1807.73 2293.5 1733.71 2364.67 1702.4C2404.53 1685.32 2452.93 1679.62 2504.17 1685.32C2600.96 1696.7 2694.91 1759.33 2760.38 1850.43C2763.23 1853.28 2763.23 1861.82 2757.54 1864.67C2754.69 1867.51 2746.15 1867.51 2743.3 1861.82C2680.67 1776.41 2589.57 1716.63 2498.48 1705.24C2450.08 1699.55 2404.53 1705.24 2367.52 1722.32C2302.04 1750.79 2250.8 1819.12 2233.72 1904.52C2216.64 1987.08 2230.87 2075.33 2245.11 2143.65C2270.73 2254.68 2333.36 2411.26 2387.45 2522.28C2390.3 2527.97 2387.45 2533.67 2381.75 2533.67C2384.6 2527.97 2381.75 2530.82 2381.75 2530.82Z" fill="#894852"/>
<path d="M2501.32 2758.57C2544.02 2806.96 2637.97 2815.5 2637.97 2815.5C2643.66 2681.7 2646.51 2530.82 2680.67 2453.96C2689.21 2434.03 2700.6 2419.8 2711.99 2414.1C2714.84 2411.26 2714.84 2411.25 2717.68 2411.25C2777.47 2382.79 2788.85 2510.89 2817.32 2596.3C2857.18 2599.14 2786.01 2103.8 3070.69 2211.98C3193.11 2257.53 3284.2 2277.45 3352.53 2286C3435.09 2314.46 3523.34 2328.7 3608.74 2328.7C3631.52 2328.7 3657.14 2328.7 3679.92 2325.85C3722.62 2323 3773.86 2314.46 3810.87 2280.3C3839.34 2254.68 3862.11 2214.82 3870.65 2157.89C3890.58 2061.1 3876.35 1961.46 3836.49 1870.36C3779.55 1702.4 3588.82 1554.36 3304.13 1579.98C3204.49 1588.52 3121.93 1616.99 3050.76 1648.31C2862.87 1739.41 2788.85 1881.75 2788.85 1881.75C2786.01 1870.36 2683.52 1645.46 2467.16 1745.1C2142.62 1895.98 2324.82 2562.14 2501.32 2758.57ZM3432.24 2291.69C3477.79 2288.84 3497.72 2283.15 3497.72 2283.15C3731.16 2260.37 3839.34 2137.96 3850.73 2001.31C3859.27 2052.56 3856.42 2106.65 3847.88 2157.89C3836.49 2209.13 3819.41 2246.14 3793.79 2268.91C3759.63 2297.38 3711.23 2305.92 3674.22 2308.77C3594.51 2317.31 3511.95 2311.62 3432.24 2291.69Z" fill="#894852"/>
<path d="M3181.72 2508.05C3181.72 2525.13 3195.95 2539.36 3213.03 2539.36C3230.11 2539.36 3244.35 2525.13 3244.35 2508.05C3244.35 2490.97 3230.11 2476.73 3213.03 2476.73C3195.95 2476.73 3181.72 2490.97 3181.72 2508.05Z" fill="#111D33"/>
<path d="M3213.03 2508.05C3213.03 2513.74 3218.73 2519.43 3224.42 2519.43C3230.11 2519.43 3235.81 2513.74 3235.81 2508.05C3235.81 2502.35 3230.11 2496.66 3224.42 2496.66C3215.88 2496.66 3213.03 2502.35 3213.03 2508.05Z" fill="white"/>
<path d="M3275.66 2490.97C3252.89 2479.58 3227.27 2476.73 3201.65 2479.58C3178.87 2485.27 3156.1 2496.66 3133.32 2508.05C3141.86 2496.66 3150.4 2488.12 3161.79 2479.58C3173.18 2473.89 3187.41 2468.19 3198.8 2468.19C3230.11 2468.19 3255.74 2476.73 3275.66 2490.97ZM3437.93 2508.05C3437.93 2525.13 3452.17 2539.36 3469.25 2539.36C3486.33 2539.36 3500.56 2525.13 3500.56 2508.05C3500.56 2490.97 3486.33 2476.73 3469.25 2476.73C3452.17 2476.73 3437.93 2490.97 3437.93 2508.05Z" fill="#111D33"/>
<path d="M3469.25 2508.05C3469.25 2513.74 3474.94 2519.43 3480.64 2519.43C3486.33 2519.43 3492.02 2513.74 3492.02 2508.05C3492.02 2502.35 3486.33 2496.66 3480.64 2496.66C3474.94 2496.66 3469.25 2502.35 3469.25 2508.05Z" fill="white"/>
<path d="M3540.42 2490.97C3517.64 2479.58 3492.02 2476.73 3466.4 2479.58C3443.63 2485.27 3420.85 2496.66 3398.08 2508.05C3406.62 2496.66 3415.16 2488.12 3426.55 2479.58C3437.93 2473.89 3452.17 2468.19 3463.55 2468.19C3492.02 2468.19 3517.64 2476.73 3540.42 2490.97ZM3278.51 2388.48C3264.28 2382.79 3247.19 2379.94 3232.96 2377.09C3201.65 2371.4 3167.48 2377.09 3136.17 2382.79C3076.38 2394.17 3062.15 2428.34 3065 2431.18C3076.38 2439.72 3110.55 2419.8 3124.78 2419.8C3164.64 2416.95 3207.34 2425.49 3247.19 2422.64C3258.58 2422.64 3267.12 2419.8 3275.66 2414.1C3284.2 2408.41 3289.9 2394.17 3278.51 2388.48ZM3392.38 2388.48C3403.77 2382.79 3420.85 2379.94 3435.09 2377.09C3463.55 2374.25 3494.87 2377.09 3523.34 2382.79C3577.43 2394.17 3591.66 2422.64 3585.97 2428.34C3577.43 2436.88 3546.11 2419.8 3531.88 2419.8C3494.87 2416.95 3457.86 2425.49 3420.85 2419.8C3412.31 2419.8 3400.92 2416.95 3395.23 2411.25C3389.54 2408.41 3383.84 2394.17 3392.38 2388.48Z" fill="#111D33"/>
<path d="M3412.31 2664.62C3412.31 2693.09 3389.54 2718.71 3358.22 2718.71C3329.75 2718.71 3304.13 2695.94 3304.13 2664.62C3304.13 2636.15 3326.91 2681.7 3358.22 2681.7C3386.69 2681.7 3412.31 2633.31 3412.31 2664.62ZM3218.73 2801.27C3218.73 2801.27 3326.91 2883.83 3435.09 2815.5C3435.09 2815.5 3403.77 2940.76 3326.91 2915.14C3250.04 2889.52 3218.73 2801.27 3218.73 2801.27Z" fill="#E17659"/>
<path d="M3887.74 5742.03C3867.81 5773.35 3748.24 5736.34 3725.47 5719.26C3728.31 5736.34 3859.27 5773.35 3833.65 5813.2C3805.18 5855.91 3719.77 5816.05 3697 5801.82C3699.84 5818.9 3785.25 5855.91 3773.86 5887.22C3762.47 5915.69 3671.38 5909.99 3617.29 5872.99C3620.13 5890.07 3719.77 5921.38 3705.54 5949.85C3685.61 5989.71 3548.96 5969.78 3480.64 5958.39C3469.25 5955.54 3457.86 5955.54 3452.17 5955.54C3400.93 5949.85 3321.21 5924.23 3215.88 5838.82C3215.88 5838.82 1786.76 5952.7 1467.92 5596.84C1225.94 5326.4 1507.77 4751.34 1507.77 4751.34L2393.14 4683.02L2273.57 5044.56L2256.49 5095.8L2213.79 5226.76L3352.53 5477.28C3449.32 5437.42 3708.38 5337.78 3719.77 5426.04C3728.31 5491.51 3563.2 5528.52 3671.38 5562.68C3665.68 5562.68 3933.28 5676.56 3887.74 5742.03Z" fill="#F6A285"/>
<path d="M3480.64 5958.39C3469.25 5955.54 3457.86 5955.54 3452.17 5955.54C3400.92 5949.85 3321.21 5924.23 3215.88 5838.82C3215.88 5838.82 1786.76 5952.7 1467.92 5596.84C1225.94 5326.4 1507.77 4751.34 1507.77 4751.34L2393.14 4683.02L2273.57 5044.56L2256.49 5095.8C2179.63 5132.81 2094.22 5158.43 2014.51 5169.82C1923.41 5186.9 1829.47 5189.75 1735.52 5175.52C1667.2 5166.98 1587.49 5149.89 1533.4 5195.44C1470.77 5246.69 1485 5352.02 1533.4 5417.5C1627.34 5542.76 1801 5574.07 1954.73 5559.84C2108.46 5548.45 2262.19 5500.05 2415.92 5502.9C2546.87 5505.75 2674.98 5545.6 2800.24 5588.3L3150.4 5699.33C3230.11 5724.95 3312.67 5750.57 3381 5801.82C3432.24 5841.67 3474.94 5898.61 3480.64 5958.39Z" fill="url(#paint3_linear_8_147)"/>
<path d="M2452.93 4031.09L1829.47 3766.34C1732.67 3871.67 1499.23 4133.58 1408.13 4873.75C1376.82 5118.58 2114.15 5075.88 2339.05 4953.46C2509.86 4862.37 2632.28 4367.02 2452.93 4031.09Z" fill="#C5ADFF"/>
<path d="M1408.13 4876.6C1399.59 4950.62 1459.38 4999.01 1559.02 5024.63C1516.31 4996.17 1496.39 4962 1502.08 4913.61C1593.18 4173.44 1826.62 3908.68 1923.41 3803.35L1832.31 3763.49C1732.67 3871.67 1502.08 4136.43 1408.13 4876.6Z" fill="#976FF8"/>
<path d="M3030.83 2923.68C2783.16 2923.68 2717.68 2721.56 2717.68 2718.71L2731.92 2715.86C2734.76 2727.25 2820.17 2989.16 3190.26 2886.67L3193.1 2900.91C3130.47 2915.14 3076.38 2923.68 3030.83 2923.68Z" fill="#111D33"/>
<path d="M3213.03 2900.91C3213.03 2935.07 3184.56 2963.54 3150.4 2963.54C3116.24 2963.54 3087.77 2935.07 3087.77 2900.91C3087.77 2866.75 3116.24 2838.28 3150.4 2838.28C3184.56 2838.28 3213.03 2866.75 3213.03 2900.91Z" fill="#111D33"/>
<path d="M2871.41 2562.14C2871.41 2690.24 2808.78 2792.73 2731.92 2792.73H2680.67C2757.54 2792.73 2820.17 2690.24 2820.17 2562.14C2820.17 2434.03 2757.54 2331.54 2680.67 2331.54H2731.92C2805.93 2331.54 2871.41 2434.03 2871.41 2562.14Z" fill="#497BFD"/>
<path d="M2817.32 2562.14C2817.32 2690.24 2754.69 2792.73 2677.83 2792.73C2600.96 2792.73 2538.33 2690.24 2538.33 2562.14C2538.33 2434.03 2600.96 2331.54 2677.83 2331.54C2754.69 2331.54 2817.32 2434.03 2817.32 2562.14Z" fill="#9EBBFB"/>
<path d="M2743.3 2562.14C2743.3 2627.61 2711.99 2678.86 2672.13 2678.86C2632.28 2678.86 2600.96 2627.61 2600.96 2562.14C2600.96 2496.66 2632.28 2442.57 2672.13 2442.57C2711.99 2442.57 2743.3 2496.66 2743.3 2562.14Z" fill="#111D33"/>
<path d="M2660.75 2499.51C2660.75 2499.51 2649.36 2004.16 2854.33 1796.34C2854.33 1796.34 2897.03 1745.1 2976.74 1693.86C2976.74 1693.86 2655.05 2123.73 2677.83 2476.73L2660.75 2499.51Z" fill="#111D33"/>
<path d="M4408.71 4244.61C4366 4244.61 4329 4270.23 4311.91 4310.08L3728.31 5781.89H3788.1V5975.47H3799.48H2262.19C2154.01 5975.47 2068.6 5887.22 2068.6 5781.89H3605.9L4189.5 4310.08C4203.73 4270.23 4243.59 4244.61 4286.29 4244.61H4408.71Z" fill="url(#paint4_linear_8_147)"/>
<path d="M7010.72 4386.95L6404.34 5912.84C6390.11 5952.7 6350.25 5978.32 6307.55 5978.32H3799.48C3728.31 5978.32 3679.92 5907.15 3705.54 5838.82L4311.91 4310.08C4326.15 4270.23 4366 4244.61 4408.71 4244.61H6913.93C6987.95 4244.61 7036.34 4318.62 7010.72 4386.95Z" fill="white"/>
<path opacity="0.6" d="M6489.75 5696.48L6404.34 5912.84C6387.26 5952.7 6350.25 5978.32 6307.55 5978.32H3799.48C3728.31 5978.32 3679.92 5907.15 3705.54 5838.82L3839.34 5505.75C4229.36 5719.26 4781.64 5853.06 5393.71 5853.06C5795.12 5853.06 6170.9 5796.12 6489.75 5696.48ZM5655.62 5158.43C5612.92 5283.69 5481.97 5380.49 5362.4 5380.49C5237.14 5380.49 5165.97 5275.15 5205.82 5144.2C5242.83 5016.09 5373.79 4910.76 5496.2 4907.91C5493.35 4913.61 5493.35 4916.46 5490.51 4922.15C5450.65 5053.1 5521.82 5158.43 5647.08 5158.43H5655.62Z" fill="#CFCDF1"/>
<path d="M5382.33 2277.45C5382.33 2473.89 5222.9 2630.46 5029.32 2630.46C4835.73 2630.46 4676.31 2473.89 4676.31 2277.45C4676.31 2083.87 4835.73 1924.45 5029.32 1924.45C5225.75 1924.45 5382.33 2083.87 5382.33 2277.45ZM6814.29 2021.24C6814.29 2052.56 6788.67 2078.18 6757.35 2078.18H5914.69C5883.37 2078.18 5857.75 2052.56 5857.75 2021.24C5857.75 1989.93 5883.37 1964.3 5914.69 1964.3H6757.35C6788.67 1964.3 6814.29 1989.93 6814.29 2021.24ZM6979.41 2251.83C6979.41 2283.15 6953.79 2308.77 6922.47 2308.77H5752.42C5721.1 2308.77 5695.48 2283.15 5695.48 2251.83C5695.48 2220.52 5721.1 2194.9 5752.42 2194.9H6922.47C6953.79 2194.9 6979.41 2220.52 6979.41 2251.83ZM6159.52 2422.64H5752.42C5721.1 2422.64 5695.48 2448.26 5695.48 2479.58C5695.48 2510.89 5721.1 2536.52 5752.42 2536.52H6159.52C6190.83 2536.52 6216.45 2510.89 6216.45 2479.58C6216.45 2448.26 6190.83 2422.64 6159.52 2422.64Z" fill="white"/>
<path d="M5006.54 2391.33H4995.16C4983.77 2391.33 4972.38 2382.79 4963.84 2374.25L4892.67 2286C4875.59 2266.07 4878.44 2237.6 4898.36 2220.52C4918.29 2203.44 4946.76 2206.28 4963.84 2226.21L5003.7 2277.45L5126.11 2174.97C5146.04 2157.89 5174.51 2160.73 5191.59 2180.66C5208.67 2200.59 5205.82 2229.06 5185.89 2246.14L5026.47 2377.09C5023.62 2385.63 5015.08 2388.48 5006.54 2391.33Z" fill="#8EB6FF"/>
<path d="M1678.58 2539.36V3245.37C1678.58 3322.24 1615.95 3384.87 1539.09 3384.87V3518.67C1539.09 3552.83 1499.23 3572.76 1473.61 3549.98L1274.33 3384.87H716.351C639.487 3384.87 576.856 3322.24 576.856 3245.37V2539.36C576.856 2462.5 639.487 2399.87 716.351 2399.87H1539.09C1615.95 2399.87 1678.58 2462.5 1678.58 2539.36Z" fill="#FFD375"/>
<path d="M3950.37 401.401V982.152C3950.37 1044.78 4001.61 1098.87 4067.09 1098.87V1209.9C4067.09 1238.37 4101.25 1252.6 4121.18 1235.52L4286.29 1098.87H4747.48C4810.11 1098.87 4864.2 1047.63 4864.2 982.152V401.401C4864.2 338.771 4812.96 284.682 4747.48 284.682H4067.09C4001.61 284.682 3950.37 338.771 3950.37 401.401Z" fill="#F35170"/>
<path d="M4508.35 515.274L4471.34 762.947C4468.49 777.181 4457.1 785.722 4445.72 785.722H4411.55C4397.32 785.722 4385.93 777.181 4385.93 762.947L4348.92 515.274C4346.08 498.193 4360.31 483.959 4374.55 483.959H4479.88C4499.81 483.959 4511.19 498.193 4508.35 515.274ZM4474.18 876.82V862.586C4474.18 845.505 4459.95 834.118 4445.72 834.118H4417.25C4400.17 834.118 4388.78 848.352 4388.78 862.586V876.82C4388.78 893.901 4403.01 905.288 4417.25 905.288H4445.72C4459.95 905.288 4474.18 893.901 4474.18 876.82Z" fill="white"/>
<path d="M2168.24 623.453V1318.08C2168.24 1394.94 2105.61 1454.72 2031.59 1457.57V1588.52C2031.59 1622.69 1991.74 1639.77 1966.12 1619.84L1769.68 1457.57H1217.4C1140.53 1457.57 1080.75 1394.94 1080.75 1318.08V620.606C1080.75 543.742 1143.38 483.959 1217.4 483.959H2028.75C2105.61 483.959 2168.24 546.589 2168.24 623.453Z" fill="#6EB854"/>
<path d="M1245.86 2656.08C1214.55 2630.46 1174.69 2616.23 1123.45 2616.23C1097.83 2616.23 1075.05 2619.07 1055.13 2624.77C1035.2 2630.46 1012.42 2639 992.495 2653.23C978.261 2661.78 969.72 2673.16 969.72 2687.4C969.72 2695.94 972.567 2704.48 981.108 2713.02C992.495 2724.41 1012.42 2727.25 1026.66 2715.86C1038.04 2707.32 1052.28 2701.63 1069.36 2698.78C1086.44 2695.94 1100.68 2693.09 1117.76 2693.09C1183.23 2693.09 1214.55 2715.86 1214.55 2764.26C1214.55 2775.65 1211.7 2787.04 1203.16 2795.58C1194.62 2806.96 1180.39 2818.35 1163.31 2832.58C1146.22 2846.82 1131.99 2858.21 1120.6 2869.59C1109.22 2880.98 1100.68 2895.21 1092.13 2912.3C1083.59 2929.38 1080.75 2949.3 1080.75 2972.08C1080.75 2980.62 1083.59 2989.16 1092.13 2997.7C1100.68 3003.39 1109.22 3009.09 1120.6 3009.09C1131.99 3009.09 1140.53 3006.24 1146.22 2997.7C1154.77 2992.01 1157.61 2983.47 1157.61 2972.08C1157.61 2955 1163.31 2940.76 1171.85 2926.53C1183.23 2915.14 1197.47 2898.06 1217.4 2883.83C1234.48 2872.44 1245.86 2858.21 1257.25 2849.67C1268.64 2838.28 1277.18 2826.89 1282.87 2812.66C1291.41 2798.42 1294.26 2778.49 1294.26 2758.57C1294.26 2718.71 1277.18 2681.7 1245.86 2656.08ZM1117.76 3048.94C1103.52 3048.94 1092.13 3054.64 1083.59 3063.18C1075.05 3071.72 1069.36 3085.95 1069.36 3097.34C1069.36 3111.57 1075.05 3122.96 1083.59 3134.35C1092.13 3142.89 1106.37 3148.58 1117.76 3148.58C1131.99 3148.58 1143.38 3142.89 1154.77 3134.35C1163.31 3125.81 1169 3111.57 1169 3097.34C1169 3083.1 1163.31 3071.72 1154.77 3063.18C1143.38 3054.64 1131.99 3048.94 1117.76 3048.94ZM1912.03 973.612C1912.03 1135.88 1781.07 1266.83 1618.8 1266.83C1456.53 1266.83 1325.58 1135.88 1325.58 973.612C1325.58 811.343 1456.53 680.39 1618.8 680.39C1781.07 680.39 1912.03 811.343 1912.03 973.612Z" fill="white"/>
<path d="M1584.64 1067.56H1576.1C1564.71 1067.56 1556.17 1061.86 1550.48 1053.32L1490.69 979.305C1476.46 962.224 1479.31 936.603 1496.39 922.369C1513.47 908.135 1539.09 910.982 1553.32 928.063L1587.49 970.765L1689.97 885.36C1707.05 871.126 1732.67 873.973 1746.91 891.054C1761.14 908.135 1758.3 933.756 1741.21 947.99L1607.41 1059.02C1598.87 1064.71 1593.18 1067.56 1584.64 1067.56Z" fill="#4B9434"/>
<defs>
<linearGradient id="paint0_linear_8_147" x1="4404.81" y1="4176.82" x2="5817.44" y2="4176.82" gradientUnits="userSpaceOnUse">
<stop stop-color="#F6A285"/>
<stop offset="1" stop-color="#FC6B58"/>
</linearGradient>
<linearGradient id="paint1_linear_8_147" x1="3200.17" y1="3146.05" x2="2072.84" y2="2854.58" gradientUnits="userSpaceOnUse">
<stop stop-color="#FDE0BB"/>
<stop offset="1" stop-color="#FC6B58"/>
</linearGradient>
<linearGradient id="paint2_linear_8_147" x1="3714.16" y1="2573.5" x2="1912.88" y2="2451.62" gradientUnits="userSpaceOnUse">
<stop stop-color="#FDE0BB"/>
<stop offset="1" stop-color="#FC6B58"/>
</linearGradient>
<linearGradient id="paint3_linear_8_147" x1="1367.23" y1="5319.68" x2="3480.72" y2="5319.68" gradientUnits="userSpaceOnUse">
<stop stop-color="#F6A285"/>
<stop offset="1" stop-color="#FC6B58"/>
</linearGradient>
<linearGradient id="paint4_linear_8_147" x1="2068.06" y1="5111.21" x2="4409.19" y2="5111.21" gradientUnits="userSpaceOnUse">
<stop stop-color="#57B2FD"/>
<stop offset="1" stop-color="#497BFD"/>
</linearGradient>
</defs>
</svg>
