<svg width="37" height="37" viewBox="0 0 37 37" fill="none" xmlns="http://www.w3.org/2000/svg">
<g clip-path="url(#clip0_61_7388)">
<path d="M18.3296 18.3082C18.3296 14.9737 21.0328 12.2705 24.3673 12.2705C27.7018 12.2705 30.405 14.9738 30.405 18.3082C30.405 21.6428 27.7018 24.346 24.3673 24.346C21.0327 24.346 18.3296 21.6428 18.3296 18.3082Z" fill="#00BCFF"/>
<path d="M6.25439 30.3839C6.25439 27.0494 8.95758 24.3462 12.2921 24.3462L15.5097 22.6475L18.3298 24.3462V30.3839C18.3298 33.7185 15.6266 36.4217 12.2921 36.4217C8.95758 36.4217 6.25439 33.7185 6.25439 30.3839Z" fill="#00CF7F"/>
<path d="M18.3299 0.195312L15.0444 5.9031L18.3299 12.2708H24.2829C27.6175 12.2708 30.3206 9.56757 30.3206 6.23303C30.3206 2.8985 27.6174 0.195312 24.2829 0.195312H18.3299Z" fill="#FF7361"/>
<path d="M6.16943 6.23303C6.16943 9.56757 8.87262 12.2708 12.2072 12.2708L15.41 13.5078L18.3296 12.2708V0.195312H12.2071C8.87262 0.195312 6.16943 2.8985 6.16943 6.23303Z" fill="#FF4D12"/>
<path d="M6.25439 18.3083C6.25439 21.6429 8.95758 24.346 12.2921 24.346H18.3298V12.2705H12.2921C8.95758 12.2705 6.25439 14.9738 6.25439 18.3083Z" fill="#B659FF"/>
</g>
<defs>
<clipPath id="clip0_61_7388">
<rect width="36.2265" height="36.2265" fill="white" transform="translate(0.174316 0.195312)"/>
</clipPath>
</defs>
</svg>
