<svg version="1.1" id="Small" xmlns="http://www.w3.org/2000/svg" x="0" y="0" viewBox="0 0 30 34" style="enable-background:new 0 0 30 34" xml:space="preserve"><style>.st1{fill:#fff}.st2{fill:none;stroke:#f38844;stroke-linecap:round;stroke-linejoin:round;stroke-miterlimit:10}</style><path d="M30 22.5c0 1.1-.7 2.5-1.7 3.1l-11.7 7.8c-.9.6-2.4.6-3.3 0L1.7 25.6c-1-.6-1.7-2-1.7-3.1v-11C0 10.4.7 9 1.7 8.4L13.4.6c.9-.6 2.4-.6 3.3 0l11.7 7.8c.9.6 1.7 2 1.7 3.1-.1 0-.1 11-.1 11z" style="fill:#f38844"/><path class="st1" d="M18.6 13.4c.7-.1 1.3-.5 1.6-1 .3-.6.3-1.3-.2-2.1-.9-1.5-.4-2.7-.4-2.8 0-.1 0-.2-.1-.3-.1-.1-.2-.1-.3 0-.1.1-2.9 1.5-2.9 4 0 1.1.8 2.1 1.7 2.2h.6z"/><path class="st2" d="M18.4 12v6"/><path class="st1" d="M12 13.4c.7-.1 1.3-.5 1.6-1 .3-.6.3-1.3-.2-2.1-.8-1.4-.4-2.7-.4-2.8s0-.2-.1-.3c-.1-.1-.2-.1-.3 0s-2.9 1.5-2.9 4c0 1.1.8 2.1 1.7 2.2h.6z"/><path class="st2" d="M11.8 12v6"/><path class="st1" d="M10.1 15.4c.5-.4.9-.5 1.3-.5.6 0 1.7.2 1.7 1.9v8.5c0 1.3-.9 1.6-1.4 1.6s-1.4-.2-1.4-1.6v-7.2l-1.3 1c-.3.2-.6.3-.9.3-.7 0-1.2-.5-1.2-1.2 0-.4.2-.7.7-1.1.1 0 2.5-1.7 2.5-1.7zM18.4 27c-3.3 0-4.6-2.9-4.6-6.2s1.3-6.1 4.6-6.1 4.6 2.8 4.6 6.1c-.1 3.4-1.3 6.2-4.6 6.2zm0-9.9c-1.5 0-1.7 2.3-1.7 3.8s.3 3.8 1.7 3.8c1.5 0 1.7-2.3 1.7-3.8s-.3-3.8-1.7-3.8z"/></svg>