<svg width="2778" height="2187" viewBox="0 0 2778 2187" fill="none" xmlns="http://www.w3.org/2000/svg">
<path d="M2089.97 890.275C2089.97 890.075 2089.87 889.975 2089.87 889.775C2066.87 816.175 2027.47 753.875 1972.87 704.475C1926.27 662.375 1868.97 629.875 1802.47 607.975C1685.77 569.375 1561.17 571.175 1494.87 589.175C1493.07 589.675 1492.07 591.475 1492.57 593.175C1493.07 594.875 1494.97 595.875 1496.77 595.375C1613.47 563.675 1984.47 575.175 2083.47 891.575C2083.97 893.275 2085.87 894.275 2087.67 893.775C2089.17 893.275 2090.17 891.775 2089.97 890.275ZM503.666 822.675C503.466 822.675 503.266 822.775 503.166 822.775C424.466 845.975 358.266 884.075 306.466 936.075C262.266 980.375 228.766 1034.38 206.766 1096.58C168.166 1205.78 173.266 1321.28 194.366 1382.28C194.966 1383.98 196.866 1384.88 198.666 1384.28C200.466 1383.78 201.466 1381.98 200.966 1380.28C163.866 1272.88 166.766 928.575 505.266 828.675C507.066 828.175 508.066 826.375 507.466 824.675C506.866 823.275 505.266 822.475 503.666 822.675Z" fill="#F7FBFF"/>
<path d="M2320.27 2097.18C2491.07 2074.08 3229.37 1302.88 2300.57 741.075C2093.47 615.775 2039.67 646.075 1822.47 438.675C1657.37 281.075 1351.27 320.375 1139.97 304.075C885.466 284.375 516.366 311.175 414.866 573.075C368.466 692.775 346.066 796.076 344.666 920.576C341.266 1238.88 101.866 1266.48 41.566 1479.48C-55.334 1821.88 159.066 2090.68 291.766 2096.88C415.766 2102.78 2189.37 2112.08 2320.27 2097.18Z" fill="#F7FBFF"/>
<path d="M2532.47 1883.28C2524.77 1887.68 2516.67 1891.98 2508.27 1896.18C2419.87 1940.08 2302.37 1964.18 2177.47 1964.08C2052.57 1963.98 1935.17 1939.68 1846.77 1895.68C1803.57 1874.18 1769.67 1849.08 1745.87 1821.08C1720.97 1791.78 1708.37 1760.68 1708.47 1728.48C1708.47 1696.28 1721.17 1665.18 1746.07 1635.88C1769.87 1607.98 1803.87 1582.88 1847.07 1561.48C1935.47 1517.58 2052.97 1493.48 2177.87 1493.58C2302.77 1493.68 2420.17 1517.98 2508.57 1561.98C2551.77 1583.48 2585.67 1608.58 2609.47 1636.58C2634.37 1665.88 2646.97 1696.98 2646.87 1729.18C2646.87 1761.38 2634.17 1792.48 2609.27 1821.78C2590.17 1844.28 2564.37 1864.88 2532.47 1883.28ZM1826.77 1581.38C1755.47 1622.48 1716.47 1674.18 1716.47 1728.58C1716.47 1788.78 1763.97 1845.68 1850.47 1888.68C1937.77 1932.18 2053.97 1956.18 2177.67 1956.18C2317.97 1956.28 2443.97 1925.28 2528.67 1876.48C2597.47 1836.78 2639.17 1785.28 2639.17 1729.08C2639.17 1668.88 2591.67 1611.98 2505.17 1568.98C2417.87 1525.48 2301.67 1501.48 2177.97 1501.48C2054.27 1501.38 1938.07 1525.28 1850.67 1568.58C1842.27 1572.78 1834.27 1576.98 1826.77 1581.38Z" fill="#E6F2FF"/>
<path d="M2607.47 1660.38C2609.97 1659.38 2617.67 1656.38 2618.37 1649.68C2620.37 1629.88 2607.87 1623.68 2602.27 1624.58C2584.47 1627.18 2590.17 1650.58 2591.07 1652.38C2594.07 1658.08 2600.97 1662.88 2607.47 1660.38ZM2522.27 1903.28C2544.57 1898.48 2547.47 1886.38 2548.97 1882.88C2552.17 1875.38 2554.17 1866.48 2550.17 1859.58C2549.17 1857.88 2544.17 1849.38 2537.07 1857.98C2531.37 1864.88 2530.97 1875.58 2513.77 1872.68C2507.17 1871.58 2500.07 1873.28 2494.07 1876.38C2488.07 1879.48 2483.07 1885.08 2481.97 1891.58C2481.37 1895.08 2481.27 1905.48 2488.67 1908.28C2492.77 1909.88 2498.17 1907.58 2502.37 1906.68C2509.07 1905.28 2515.77 1904.68 2522.27 1903.28Z" fill="#D8EBFE"/>
<path d="M722.466 1897.08C716.566 1900.48 710.366 1903.78 703.966 1906.98C636.166 1940.68 546.066 1959.18 450.266 1959.08C354.466 1958.98 264.466 1940.38 196.666 1906.68C163.566 1890.18 137.466 1870.98 119.266 1849.48C100.166 1827.08 90.5659 1803.18 90.5659 1778.48C90.5659 1753.78 100.266 1729.88 119.366 1707.48C137.666 1686.08 163.666 1666.88 196.866 1650.38C264.666 1616.68 354.766 1598.18 450.566 1598.28C546.366 1598.38 636.366 1616.98 704.166 1650.68C737.266 1667.18 763.366 1686.38 781.566 1707.88C800.666 1730.28 810.266 1754.18 810.266 1778.88C810.266 1803.58 800.566 1827.48 781.466 1849.88C766.666 1867.08 746.866 1882.98 722.466 1897.08ZM181.166 1665.58C126.466 1697.08 96.5659 1736.68 96.5659 1778.48C96.5659 1824.68 133.066 1868.28 199.266 1901.28C266.266 1934.58 355.366 1952.98 450.166 1953.08C557.766 1953.18 654.366 1929.38 719.366 1891.98C772.166 1861.58 804.066 1822.08 804.066 1778.98C804.066 1732.78 767.566 1689.18 701.366 1656.18C634.366 1622.88 545.266 1604.48 450.466 1604.38C355.666 1604.28 266.466 1622.58 199.466 1655.88C193.066 1658.88 186.966 1662.18 181.166 1665.58Z" fill="#E6F2FF"/>
<path d="M95.7656 1791.68C98.4656 1790.58 106.766 1787.38 107.466 1780.28C109.566 1759.08 96.2656 1752.38 90.1656 1753.28C71.0656 1756.08 77.1656 1781.18 78.1656 1783.08C81.3656 1789.28 88.7656 1794.38 95.7656 1791.68ZM188.566 1919.18C206.966 1932.68 217.866 1926.88 221.566 1925.58C229.366 1922.98 237.366 1918.58 239.866 1910.98C240.466 1909.18 243.466 1899.68 232.366 1900.18C223.466 1900.48 215.166 1907.28 205.866 1892.58C202.266 1886.88 196.366 1882.78 190.066 1880.28C183.766 1877.88 176.166 1877.88 170.666 1881.28C167.666 1883.18 159.866 1889.98 162.666 1897.38C164.166 1901.48 169.466 1904.08 172.966 1906.58C178.266 1910.58 183.166 1915.28 188.566 1919.18Z" fill="#D8EBFE"/>
<path d="M746.266 1734.28C737.366 1734.28 728.266 1733.98 718.866 1733.38C620.366 1727.28 506.466 1689.48 398.366 1627.08C290.266 1564.68 200.566 1484.98 146.066 1402.68C119.366 1362.48 102.466 1323.78 95.8657 1287.68C88.9657 1249.88 93.5657 1216.58 109.666 1188.78C125.766 1160.88 152.266 1140.28 188.466 1127.38C223.066 1115.08 264.966 1110.38 313.166 1113.38C411.666 1119.48 525.566 1157.28 633.666 1219.68C741.766 1282.08 831.466 1361.78 885.966 1444.08C912.666 1484.28 929.566 1522.98 936.166 1559.08C943.066 1596.88 938.466 1630.18 922.366 1657.98C906.266 1685.88 879.766 1706.48 843.566 1719.38C815.666 1729.28 783.066 1734.28 746.266 1734.28ZM285.566 1120.28C203.266 1120.28 143.766 1145.58 116.466 1192.68C86.3657 1244.78 99.1657 1317.88 152.566 1398.28C206.466 1479.58 295.166 1558.38 402.266 1620.18C523.766 1690.38 648.366 1726.38 746.166 1726.38C825.666 1726.38 887.366 1702.58 915.466 1653.88C945.566 1601.78 932.766 1528.68 879.366 1448.28C825.466 1366.98 736.766 1288.18 629.666 1226.38C522.566 1164.58 409.966 1127.18 312.666 1121.08C303.366 1120.48 294.366 1120.28 285.566 1120.28Z" fill="#E6F2FF"/>
<path d="M301.066 1140.08C303.766 1138.98 312.066 1135.78 312.766 1128.68C314.866 1107.48 301.566 1100.78 295.466 1101.68C276.366 1104.48 282.466 1129.58 283.466 1131.48C286.666 1137.68 294.166 1142.78 301.066 1140.08ZM429.866 1118.38C407.966 1101.18 394.466 1107.98 389.966 1109.28C380.366 1112.18 370.466 1117.18 367.166 1126.28C366.366 1128.48 362.366 1139.88 375.866 1139.78C386.766 1139.68 397.066 1131.78 407.866 1150.08C411.966 1157.08 419.066 1162.38 426.666 1165.68C434.266 1168.88 443.466 1169.18 450.366 1165.18C454.166 1162.98 463.866 1154.98 460.766 1145.88C459.066 1140.88 452.666 1137.48 448.566 1134.28C442.066 1129.18 436.366 1123.38 429.866 1118.38Z" fill="#D8EBFE"/>
<path d="M848.366 1481.78C838.866 1474.68 829.466 1466.98 819.966 1458.88C720.066 1373.18 628.966 1241.98 563.666 1089.18C498.366 936.476 466.466 780.476 473.866 649.876C477.466 586.076 490.366 531.676 512.066 488.376C534.766 442.976 566.266 411.676 605.566 395.176C644.866 378.776 689.566 378.276 738.266 393.776C784.866 408.576 833.266 437.276 882.066 479.176C982.066 564.876 1073.07 696.076 1138.37 848.876C1203.67 1001.58 1235.57 1157.58 1228.17 1288.18C1224.57 1351.98 1211.67 1406.38 1189.97 1449.68C1167.27 1495.08 1135.77 1526.38 1096.47 1542.88C1057.17 1559.28 1012.47 1559.78 963.766 1544.28C926.266 1532.38 887.566 1511.38 848.366 1481.78ZM847.166 464.376C759.566 398.176 676.166 376.976 609.666 404.776C536.166 435.576 491.666 522.776 484.366 650.476C477.066 779.476 508.666 933.776 573.366 1085.08C646.766 1256.68 750.566 1394.78 854.666 1473.38C939.166 1537.28 1023.87 1561.78 1092.47 1533.08C1165.97 1502.28 1210.47 1415.08 1217.77 1287.38C1225.07 1158.38 1193.47 1004.08 1128.77 852.776C1063.97 701.576 973.966 571.676 875.266 487.076C865.866 478.976 856.466 471.476 847.166 464.376Z" fill="#EEEFF0"/>
<path d="M502.866 529.875C504.766 529.175 510.466 526.875 510.966 521.975C512.466 507.175 503.166 502.575 498.966 503.175C485.666 505.175 489.866 522.575 490.566 523.975C492.866 528.175 497.966 531.775 502.866 529.875ZM464.066 593.175C462.366 596.675 457.266 607.275 462.966 614.875C479.966 637.575 499.066 632.075 504.166 625.675C520.366 605.675 491.766 586.675 489.066 585.675C480.266 582.675 468.366 584.275 464.066 593.175ZM812.966 438.275C811.266 441.775 806.166 452.375 811.866 459.975C828.866 482.675 847.966 477.175 853.066 470.775C869.266 450.775 840.666 431.775 837.966 430.775C829.266 427.675 817.266 429.375 812.966 438.275Z" fill="#D8EBFE"/>
<path d="M1893.07 1671.88C1844.37 1687.38 1799.67 1686.88 1760.37 1670.48C1721.07 1654.08 1689.57 1622.68 1666.87 1577.28C1645.17 1533.88 1632.37 1479.58 1628.67 1415.78C1621.27 1285.18 1653.17 1129.18 1718.47 976.475C1783.77 823.775 1874.87 692.475 1974.77 606.775C2023.57 564.875 2071.97 536.175 2118.57 521.375C2167.27 505.875 2211.97 506.375 2251.27 522.775C2290.57 539.175 2322.07 570.575 2344.77 615.975C2366.47 659.375 2379.27 713.675 2382.97 777.475C2390.37 908.075 2358.47 1064.08 2293.17 1216.78C2227.87 1369.48 2136.77 1500.78 2036.87 1586.48C2027.37 1594.58 2017.87 1602.28 2008.47 1609.38C1969.27 1638.98 1930.57 1659.98 1893.07 1671.88ZM1981.57 614.675C1882.87 699.275 1792.77 829.175 1728.07 980.475C1663.37 1131.78 1631.77 1286.08 1639.07 1415.08C1646.37 1542.78 1690.87 1630.08 1764.37 1660.78C1832.97 1689.48 1917.67 1664.98 2002.17 1601.08C2106.17 1522.48 2209.97 1384.38 2283.47 1212.78C2348.17 1061.48 2379.77 907.175 2372.47 778.175C2365.17 650.475 2320.67 563.175 2247.17 532.475C2180.67 504.675 2097.27 525.875 2009.67 592.075C2000.37 599.075 1990.97 606.575 1981.57 614.675Z" fill="#EEEFF0"/>
<path d="M2353.97 657.476C2352.07 656.776 2346.37 654.476 2345.87 649.576C2344.37 634.776 2353.67 630.176 2357.87 630.776C2371.17 632.776 2366.97 650.176 2366.27 651.576C2363.97 655.776 2358.87 659.376 2353.97 657.476ZM2392.77 720.776C2394.47 724.276 2399.57 734.876 2393.87 742.476C2376.87 765.176 2357.77 759.676 2352.67 753.276C2336.47 733.276 2365.07 714.276 2367.77 713.276C2376.57 710.176 2388.47 711.876 2392.77 720.776ZM2043.87 565.875C2045.57 569.375 2050.67 579.976 2044.97 587.576C2027.97 610.276 2008.87 604.775 2003.77 598.375C1987.57 578.375 2016.17 559.375 2018.87 558.375C2027.57 555.275 2039.47 556.975 2043.87 565.875Z" fill="#D8EBFE"/>
<path d="M2645.27 1344.48C2642.47 1352.88 2639.37 1361.48 2635.87 1370.28C2599.37 1461.98 2528.07 1558.48 2435.07 1641.78C2342.07 1725.08 2238.47 1785.48 2143.27 1811.78C2096.77 1824.58 2054.77 1828.58 2018.37 1823.68C1980.27 1818.48 1950.17 1803.78 1928.67 1779.78C1907.17 1755.78 1895.77 1724.18 1894.77 1685.78C1893.87 1649.08 1902.37 1607.78 1920.27 1562.88C1956.77 1471.18 2028.07 1374.68 2121.07 1291.38C2214.07 1208.08 2317.67 1147.68 2412.87 1121.38C2459.37 1108.58 2501.37 1104.58 2537.77 1109.48C2575.87 1114.68 2605.97 1129.38 2627.47 1153.38C2648.97 1177.38 2660.37 1208.98 2661.37 1247.38C2662.07 1276.98 2656.67 1309.48 2645.27 1344.48ZM1918.37 1591.28C1892.77 1669.58 1898.27 1733.98 1934.57 1774.48C1974.77 1819.28 2048.17 1829.88 2141.27 1804.18C2235.27 1778.18 2337.77 1718.48 2429.87 1635.88C2534.37 1542.18 2607.37 1435.08 2637.87 1342.18C2662.57 1266.68 2659.17 1200.58 2621.67 1158.68C2581.47 1113.88 2508.07 1103.28 2414.97 1128.98C2320.97 1154.98 2218.47 1214.68 2126.37 1297.28C2034.27 1379.78 1963.67 1475.18 1927.67 1565.78C1924.17 1574.48 1921.07 1582.98 1918.37 1591.28Z" fill="#E6F2FF"/>
<path d="M2611.37 1443.68C2613.87 1442.68 2621.57 1439.68 2622.27 1432.98C2624.27 1413.18 2611.77 1406.98 2606.17 1407.88C2588.37 1410.48 2594.07 1433.88 2594.97 1435.68C2597.97 1441.38 2604.97 1446.18 2611.37 1443.68ZM2595.27 1150.38C2598.77 1148.98 2609.27 1144.88 2610.17 1135.78C2612.87 1108.78 2595.87 1100.28 2588.07 1101.38C2563.67 1104.98 2571.47 1136.98 2572.77 1139.38C2576.87 1147.28 2586.37 1153.78 2595.27 1150.38ZM2393.57 1100.38C2390.87 1105.88 2382.77 1122.78 2391.77 1134.78C2418.77 1170.78 2448.97 1161.98 2457.17 1151.88C2482.87 1120.18 2437.47 1089.98 2433.17 1088.38C2419.37 1083.58 2400.47 1086.28 2393.57 1100.38Z" fill="#D8EBFE"/>
<path d="M589.166 1193.58C639.566 1244.48 675.666 1309.68 711.266 1371.88C746.566 1433.38 804.166 1515.58 808.866 1592.28C811.266 1631.38 661.766 1739.38 637.366 1726.48C617.366 1715.88 605.666 1680.68 592.966 1662.98C536.166 1583.18 473.366 1510.28 420.666 1426.48C358.166 1327.18 338.066 1223.78 332.466 1100.08C332.066 1090.68 323.566 1057.18 337.666 1047.28C357.866 1033.08 414.466 1077.78 431.866 1086.58C490.666 1115.98 543.766 1147.68 589.166 1193.58Z" fill="#CFE7FF"/>
<path d="M674.366 1620.98C674.066 1621.58 673.566 1622.18 672.866 1622.68C671.266 1623.68 669.466 1623.48 668.666 1622.18L347.966 1066.28C347.166 1064.98 347.866 1063.08 349.466 1062.08C351.066 1061.08 352.866 1061.28 353.666 1062.58L674.466 1618.48C674.766 1619.18 674.766 1620.18 674.366 1620.98Z" fill="#AECAE1"/>
<path d="M599.666 1492.68C599.066 1493.88 597.666 1494.78 596.466 1494.58C595.066 1494.38 594.366 1493.18 594.866 1491.78L648.666 1338.98C649.166 1337.58 650.666 1336.58 652.066 1336.78C653.466 1336.98 654.166 1338.18 653.666 1339.58L599.866 1492.38C599.766 1492.48 599.666 1492.58 599.666 1492.68ZM651.466 1576.48C650.866 1577.78 649.266 1578.68 647.966 1578.38C646.666 1578.08 646.066 1576.78 646.666 1575.38L708.266 1436.48C708.866 1435.08 710.466 1434.28 711.766 1434.48C713.066 1434.78 713.666 1436.08 713.066 1437.48L651.466 1576.48Z" fill="#AECAE1"/>
<path d="M646.766 1573.28C647.966 1573.68 648.466 1574.98 647.766 1575.98C647.166 1577.08 645.566 1577.68 644.366 1577.18L518.466 1534.78C517.266 1534.38 516.766 1533.08 517.366 1531.98C517.966 1530.88 519.566 1530.28 520.766 1530.78L646.766 1573.28ZM594.166 1487.98C595.366 1488.38 595.866 1489.68 595.166 1490.68C594.566 1491.78 592.966 1492.38 591.766 1491.88L465.966 1449.58C464.766 1449.18 464.266 1447.88 464.866 1446.78C465.466 1445.68 467.066 1445.08 468.266 1445.58L594.166 1487.98ZM412.566 1174.88L353.866 1148.18C352.666 1147.68 352.366 1146.18 353.266 1144.88C354.066 1143.58 355.766 1142.98 356.966 1143.48L407.666 1166.58L409.766 1098.58C409.766 1097.18 411.066 1095.88 412.466 1095.58C413.866 1095.28 415.066 1096.18 414.966 1097.58L412.566 1174.88ZM468.966 1276.78L365.966 1237.58C364.766 1237.08 364.366 1235.68 365.166 1234.38C365.966 1233.08 367.566 1232.38 368.766 1232.78L465.366 1269.58L488.666 1154.48C488.966 1153.08 490.366 1151.88 491.766 1151.88C493.166 1151.88 494.066 1152.98 493.866 1154.38L468.966 1276.78ZM532.266 1390.28L387.066 1336.78C385.866 1336.28 385.466 1334.88 386.166 1333.58C386.966 1332.28 388.566 1331.58 389.766 1331.98L528.766 1383.18L564.466 1225.18C564.766 1223.78 566.166 1222.68 567.566 1222.58C568.966 1222.58 569.866 1223.68 569.566 1225.08L532.266 1390.28Z" fill="#AECAE1"/>
<path d="M2442.17 1564.08C2390.07 1574.68 2340.87 1599.98 2293.07 1623.58C2245.87 1646.98 2176.37 1673.78 2141.77 1719.28C2124.17 1742.38 2171.67 1870.88 2192.07 1872.98C2208.77 1874.68 2230.57 1857.88 2245.77 1852.08C2313.87 1826.28 2382.67 1807.38 2449.87 1777.38C2529.47 1741.98 2584.67 1686.48 2639.27 1612.48C2643.47 1606.88 2662.47 1589.68 2657.87 1577.68C2651.27 1560.48 2597.87 1564.78 2583.47 1562.98C2535.07 1556.88 2489.07 1554.58 2442.17 1564.08Z" fill="#E4F1FE"/>
<path d="M2212.87 1792.58C2212.77 1793.08 2212.87 1793.68 2213.07 1794.18C2213.57 1795.48 2214.87 1796.08 2215.87 1795.58L2643.67 1585.28C2644.67 1584.78 2645.07 1583.38 2644.47 1582.08C2643.97 1580.78 2642.67 1580.18 2641.67 1580.68L2213.87 1790.98C2213.27 1791.28 2212.97 1791.88 2212.87 1792.58Z" fill="#B6CBDC"/>
<path d="M2311.97 1744.28C2311.77 1745.28 2312.37 1746.38 2313.17 1746.78C2314.07 1747.28 2315.07 1746.78 2315.27 1745.68L2345.27 1629.18C2345.57 1628.08 2345.07 1626.88 2344.07 1626.38C2343.17 1625.88 2342.17 1626.38 2341.97 1627.48L2311.97 1743.98V1744.28ZM2245.37 1774.58C2245.17 1775.68 2245.77 1776.78 2246.67 1777.18C2247.57 1777.58 2248.47 1776.98 2248.67 1775.88L2268.07 1664.68C2268.27 1663.58 2267.67 1662.38 2266.77 1662.08C2265.87 1661.68 2264.97 1662.28 2264.77 1663.38L2245.37 1774.58Z" fill="#B6CBDC"/>
<path d="M2249.57 1774.58C2248.67 1774.38 2247.87 1774.88 2247.77 1775.88C2247.67 1776.78 2248.47 1777.78 2249.37 1778.08L2344.57 1803.88C2345.47 1804.18 2346.37 1803.58 2346.37 1802.58C2346.47 1801.68 2345.67 1800.68 2344.77 1800.38L2249.57 1774.58ZM2317.27 1743.68C2316.37 1743.48 2315.57 1743.98 2315.47 1744.98C2315.37 1745.88 2316.17 1746.88 2317.07 1747.18L2412.27 1772.98C2413.17 1773.28 2414.07 1772.68 2414.07 1771.68C2414.17 1770.78 2413.37 1769.78 2412.47 1769.48L2317.27 1743.68ZM2558.77 1625.58L2606.07 1633.38C2607.07 1633.58 2607.77 1632.78 2607.87 1631.58C2607.87 1630.48 2607.17 1629.38 2606.17 1629.18L2565.37 1622.48L2592.17 1579.68C2592.67 1578.78 2592.57 1577.48 2591.77 1576.68C2590.97 1575.88 2589.87 1575.98 2589.37 1576.88L2558.77 1625.58ZM2481.87 1665.08L2561.67 1683.48C2562.57 1683.68 2563.47 1682.98 2563.57 1681.78C2563.67 1680.68 2562.97 1679.58 2561.97 1679.28L2487.17 1662.08L2520.37 1581.38C2520.77 1580.38 2520.37 1579.08 2519.57 1578.48C2518.67 1577.88 2517.67 1578.18 2517.27 1579.18L2481.87 1665.08ZM2395.87 1708.98L2507.67 1736.08C2508.57 1736.28 2509.47 1735.58 2509.57 1734.48C2509.67 1733.38 2508.97 1732.28 2507.97 1731.98L2400.97 1706.08L2444.27 1593.88C2444.67 1592.88 2444.27 1591.58 2443.37 1590.98C2442.47 1590.38 2441.47 1590.68 2441.07 1591.68L2395.87 1708.98Z" fill="#B6CBDC"/>
<path d="M578.166 1899.58C540.966 1731.58 436.266 1744.58 345.466 1650.98C287.766 1591.48 254.866 1565.18 185.566 1587.38C142.066 1601.28 85.266 1580.08 46.366 1597.58C-94.334 1660.98 177.766 1813.88 238.066 1806.78C297.066 1799.78 338.466 1774.08 400.766 1814.98C456.666 1851.58 514.766 1892.98 578.166 1899.58Z" fill="#E4F1FE"/>
<path d="M569.766 1883.68C569.666 1882.98 569.266 1882.38 568.866 1881.88C567.966 1880.98 478.266 1792.78 353.666 1725.48C350.066 1723.58 346.266 1721.48 342.066 1719.28C334.666 1715.08 326.766 1710.98 318.066 1706.88C314.166 1705.08 310.266 1703.18 305.866 1701.28L303.066 1700.08C262.666 1682.78 220.966 1664.88 179.366 1658.38C175.666 1657.68 171.766 1657.08 167.966 1656.48C160.766 1655.28 153.266 1654.18 144.966 1653.08C141.166 1652.58 137.266 1652.08 133.466 1651.58C129.866 1651.08 125.866 1650.58 121.966 1650.08C120.866 1649.88 119.966 1651.08 119.966 1652.68C119.966 1654.28 120.866 1655.68 121.966 1655.88C125.966 1656.48 129.866 1656.98 133.566 1657.48C137.366 1657.98 141.266 1658.48 145.066 1658.98C153.266 1660.08 160.766 1661.18 167.966 1662.38C171.766 1662.98 175.566 1663.68 179.366 1664.28C220.566 1670.68 262.066 1688.48 302.266 1705.68L305.066 1706.88C309.366 1708.78 313.366 1710.58 317.166 1712.48C325.766 1716.58 333.566 1720.58 340.966 1724.78C345.166 1726.98 348.966 1728.98 352.566 1730.98C476.666 1797.88 565.866 1885.68 566.766 1886.58C567.766 1887.58 568.966 1887.28 569.466 1885.98C569.866 1885.28 569.966 1884.48 569.766 1883.68Z" fill="#BBCEE4"/>
<path d="M362.166 1731.48C361.966 1730.48 361.366 1729.58 360.566 1729.28C357.966 1728.18 355.166 1727.08 352.266 1726.18C349.566 1725.28 346.666 1724.38 343.666 1723.58H343.566C325.766 1719.88 307.466 1717.58 289.366 1716.88C284.966 1716.78 280.466 1716.88 275.966 1716.98C269.566 1717.18 263.066 1717.48 256.066 1718.08C249.866 1718.58 243.366 1719.18 236.266 1720.08C231.266 1720.68 226.466 1721.38 221.866 1722.08C204.366 1724.78 192.666 1727.68 192.566 1727.68C191.466 1727.98 190.866 1729.38 191.166 1730.98C191.466 1732.58 192.566 1733.58 193.666 1733.38C193.766 1733.38 205.266 1730.58 222.766 1727.88C227.366 1727.18 232.166 1726.48 237.066 1725.88C244.166 1725.08 250.666 1724.38 256.766 1723.88C263.766 1723.28 270.166 1722.98 276.566 1722.78C281.066 1722.68 285.566 1722.58 289.766 1722.68C307.666 1723.38 325.666 1725.68 343.366 1729.28C346.266 1730.08 349.066 1730.88 351.766 1731.78C354.566 1732.68 357.266 1733.78 359.766 1734.78C360.866 1735.28 361.866 1734.38 362.066 1732.88C362.266 1732.48 362.266 1731.98 362.166 1731.48ZM422.666 1767.98C422.566 1767.48 422.366 1766.98 422.066 1766.58C409.466 1749.68 390.866 1731.68 366.766 1712.98C363.266 1710.28 359.666 1707.48 356.166 1704.88L353.766 1703.08C348.466 1698.48 342.866 1694.08 337.166 1689.78C331.766 1685.78 326.166 1681.98 320.166 1677.98C305.766 1668.68 290.966 1660.48 276.666 1652.48C263.066 1644.88 248.966 1636.98 235.466 1628.38C234.366 1627.68 233.266 1628.28 232.966 1629.78C232.666 1631.18 233.166 1632.98 234.266 1633.58C247.866 1642.28 262.066 1650.18 275.666 1657.78C289.866 1665.68 304.566 1673.88 318.866 1683.18C324.866 1687.08 330.366 1690.88 335.666 1694.78C341.366 1698.98 346.866 1703.38 352.066 1707.88L352.166 1707.98L354.566 1709.78C358.066 1712.38 361.666 1715.18 365.166 1717.88C388.966 1736.28 407.266 1753.98 419.466 1770.48C420.366 1771.68 421.566 1771.68 422.266 1770.58C422.766 1769.88 422.866 1768.88 422.666 1767.98Z" fill="#BBCEE4"/>
<path d="M2030.47 1229.48C1994.37 1273.78 2054.87 1321.98 2055.47 1367.78C2056.17 1421.38 2001.77 1418.48 1982.07 1459.88C1966.07 1493.48 1981.27 1554.58 1990.57 1588.98C2003.97 1638.68 2026.07 1643.18 2066.47 1615.08C2088.77 1599.58 2108.57 1580.18 2135.97 1572.08C2160.27 1564.88 2187.17 1573.28 2210.67 1566.78C2257.27 1553.98 2245.27 1520.18 2250.87 1484.18C2263.87 1401.38 2425.67 1419.18 2436.87 1316.38C2442.47 1264.98 2395.97 1266.08 2376.47 1230.78C2348.87 1180.78 2418.37 1140.58 2443.97 1105.38C2497.07 1032.08 2457.17 925.275 2346.47 935.775C2241.97 945.675 2210.97 1058.98 2197.97 1138.08C2192.27 1172.48 2191.87 1217.48 2144.17 1220.28C2097.87 1222.88 2069.07 1179.28 2030.47 1229.48Z" fill="#E4F1FE"/>
<path d="M2021.17 1622.18C2019.67 1621.48 2019.17 1619.88 2019.87 1618.58L2044.87 1575.38C2050.27 1566.08 2056.07 1556.08 2062.77 1545.08C2076.97 1521.88 2093.67 1499.88 2109.67 1478.58C2123.57 1460.28 2137.87 1441.28 2150.67 1421.48C2170.67 1389.48 2185.47 1354.68 2199.77 1321.08L2202.07 1315.78C2204.77 1309.48 2207.97 1301.98 2211.27 1294.28C2228.97 1241.68 2250.17 1192.58 2274.37 1148.38C2300.97 1099.88 2332.07 1055.58 2366.87 1016.68C2367.87 1015.58 2369.67 1015.38 2370.97 1016.28C2372.17 1017.18 2372.37 1018.88 2371.37 1019.98C2304.57 1094.68 2253.97 1184.88 2216.67 1295.88L2216.57 1296.08C2213.17 1303.78 2209.97 1311.28 2207.27 1317.68L2204.97 1322.98C2190.57 1356.78 2175.77 1391.68 2155.47 1424.08C2142.47 1443.98 2128.17 1463.08 2114.17 1481.48C2098.17 1502.68 2081.57 1524.58 2067.47 1547.58C2060.77 1558.48 2054.97 1568.38 2049.57 1577.68L2024.57 1620.88C2024.27 1622.38 2022.57 1622.88 2021.17 1622.18Z" fill="#B9D0E6"/>
<path d="M2142.17 1438.38L2141.57 1438.08C2140.37 1437.18 2140.17 1435.48 2141.17 1434.38C2170.07 1402.08 2200.37 1375.38 2231.27 1355.08C2256.07 1338.78 2281.27 1326.48 2306.27 1318.68C2348.97 1305.18 2375.87 1309.18 2377.07 1309.28C2378.67 1309.48 2379.67 1310.88 2379.47 1312.38C2379.17 1313.78 2377.67 1314.78 2376.17 1314.58C2375.77 1314.48 2349.17 1310.68 2307.77 1323.88C2269.37 1336.08 2210.17 1365.78 2145.67 1437.88C2144.77 1438.58 2143.37 1438.88 2142.17 1438.38ZM2088.17 1511.08C2086.87 1510.48 2086.17 1509.08 2086.77 1507.78C2124.57 1411.48 2122.97 1353.98 2114.97 1322.78C2106.47 1289.58 2089.37 1278.78 2089.17 1278.58C2087.87 1277.78 2087.47 1276.08 2088.37 1274.88C2089.27 1273.68 2091.07 1273.38 2092.37 1274.18C2093.17 1274.68 2111.47 1286.28 2120.57 1321.48C2125.77 1341.88 2126.87 1366.08 2123.67 1393.38C2119.67 1427.38 2109.07 1466.48 2092.17 1509.48C2091.67 1510.88 2089.97 1511.58 2088.47 1511.08C2088.27 1511.18 2088.17 1511.08 2088.17 1511.08Z" fill="#B9D0E6"/>
<path d="M2122.27 1732.88C2122.37 1732.28 2125.97 1717.48 2135.97 1694.08C2139.47 1685.88 2144.07 1675.98 2149.97 1664.88C2150.07 1664.68 2150.17 1664.38 2150.37 1664.18C2150.67 1663.68 2150.87 1663.18 2151.17 1662.68C2152.67 1653.48 2155.07 1629.48 2150.57 1619.28C2150.47 1619.18 2150.47 1619.08 2150.37 1618.98V1618.88C2149.87 1617.78 2145.17 1607.38 2141.57 1595.58C2136.07 1577.98 2135.77 1566.78 2140.67 1561.38C2142.77 1558.98 2146.97 1556.68 2154.47 1558.78C2161.07 1560.58 2165.67 1564.48 2168.07 1570.18C2174.57 1585.78 2161.57 1611.18 2157.97 1617.78C2160.87 1625.38 2160.97 1636.98 2160.37 1646.68C2167.27 1635.08 2175.37 1622.68 2184.87 1609.88V1609.08L2191.97 1568.08C2191.17 1566.38 2185.97 1555.58 2181.97 1543.28C2175.67 1524.48 2175.17 1512.28 2180.37 1506.18C2182.67 1503.48 2187.27 1500.68 2195.97 1502.68C2204.57 1504.68 2210.17 1509.48 2212.67 1516.68C2218.57 1533.78 2204.57 1559.48 2199.77 1566.98L2194.57 1597.38C2197.87 1593.28 2201.17 1589.18 2204.67 1585.18C2204.67 1585.18 2204.67 1585.08 2204.77 1585.08C2218.87 1568.68 2234.17 1553.28 2250.67 1538.88C2251.77 1537.68 2262.37 1525.68 2260.47 1507.98C2259.27 1505.48 2254.37 1494.48 2250.37 1481.98C2244.07 1462.08 2243.77 1449.18 2249.27 1442.68C2251.77 1439.78 2256.57 1436.78 2265.77 1438.78C2273.77 1440.58 2279.17 1444.68 2281.97 1451.18C2289.87 1469.68 2271.77 1501.48 2267.97 1507.78C2268.67 1514.78 2267.67 1520.88 2266.07 1526.08C2268.27 1524.28 2270.57 1522.48 2272.87 1520.78C2272.97 1520.68 2272.97 1520.68 2273.07 1520.68C2281.97 1513.88 2291.07 1507.28 2300.57 1501.08C2305.57 1497.78 2310.67 1494.48 2315.87 1491.38L2329.07 1458.18C2328.27 1454.18 2326.87 1446.18 2326.27 1437.38C2324.97 1419.88 2327.47 1408.78 2333.77 1403.58C2336.77 1401.08 2342.27 1398.78 2351.17 1402.08C2358.57 1404.88 2362.87 1409.38 2363.97 1415.58C2365.47 1423.68 2361.07 1434.18 2350.87 1446.68C2343.67 1455.58 2336.17 1462.28 2335.77 1462.58L2334.97 1463.28L2326.27 1485.18C2331.97 1481.88 2337.77 1478.68 2343.67 1475.68C2343.87 1475.58 2343.97 1475.48 2344.17 1475.38C2368.67 1462.58 2394.67 1451.38 2422.17 1442.08L2432.47 1418.88C2432.57 1416.58 2433.17 1408.88 2435.07 1400.28C2438.17 1386.18 2443.37 1376.98 2450.47 1373.08C2456.37 1369.88 2463.07 1370.18 2470.47 1374.18C2477.57 1377.98 2480.97 1382.68 2480.57 1388.38C2480.07 1395.88 2472.77 1403.88 2458.07 1412.58C2449.97 1417.38 2442.07 1420.98 2438.97 1422.38L2431.57 1438.98C2449.47 1433.18 2468.07 1428.18 2487.17 1423.88C2489.47 1421.98 2496.87 1416.18 2506.07 1410.48C2521.17 1401.08 2533.27 1396.98 2542.07 1398.18C2547.17 1398.88 2551.17 1401.28 2553.97 1405.38C2555.87 1408.08 2558.17 1414.08 2554.77 1419.88C2548.27 1430.78 2525.67 1434.68 2485.47 1431.88C2485.27 1431.88 2485.07 1431.88 2484.87 1431.78C2464.07 1436.58 2444.57 1442.18 2426.07 1448.48C2402.17 1456.58 2380.27 1465.78 2360.07 1475.68L2414.17 1477.58C2422.27 1474.08 2451.77 1462.58 2469.17 1470.38C2475.47 1473.18 2479.57 1478.08 2481.37 1484.98C2483.37 1492.68 2480.77 1496.78 2478.07 1498.88C2475.77 1500.68 2472.57 1501.68 2468.47 1501.88C2461.37 1502.18 2451.57 1500.28 2438.87 1495.88C2424.77 1491.08 2412.47 1485.28 2411.87 1484.98L2411.27 1484.68L2346.67 1482.48C2337.67 1487.18 2329.07 1492.08 2320.77 1497.08C2311.67 1502.58 2303.07 1508.28 2294.77 1513.98C2304.47 1511.58 2315.47 1509.68 2323.17 1510.78C2326.07 1509.88 2335.67 1507.18 2346.87 1505.58C2365.17 1502.88 2378.47 1504.28 2386.17 1509.78C2391.47 1513.48 2394.07 1518.98 2393.97 1525.98C2393.87 1534.28 2389.87 1537.98 2386.57 1539.68C2384.47 1540.78 2382.07 1541.38 2379.27 1541.48C2371.37 1541.88 2360.57 1538.68 2346.47 1531.78C2334.67 1526.08 2324.57 1519.68 2321.87 1517.98C2310.57 1516.28 2287.07 1523.28 2277.47 1526.68C2269.77 1532.58 2262.57 1538.48 2255.67 1544.48C2241.47 1556.78 2228.97 1569.18 2218.07 1581.18C2229.27 1578.28 2245.07 1574.48 2253.07 1573.48L2253.37 1573.28C2254.57 1572.48 2283.37 1554.68 2300.47 1560.58C2305.87 1562.48 2309.57 1566.38 2311.47 1572.18C2313.67 1578.98 2311.37 1582.88 2309.07 1584.98C2306.57 1587.28 2302.77 1588.48 2297.57 1588.78C2292.07 1589.08 2284.97 1588.18 2276.37 1586.18C2267.57 1584.18 2259.57 1581.58 2255.97 1580.38C2250.87 1580.48 2226.47 1586.38 2209.57 1590.88C2204.47 1596.78 2199.77 1602.68 2195.37 1608.28L2192.37 1612.18C2181.47 1626.68 2172.37 1640.78 2164.77 1653.68C2174.47 1647.38 2187.67 1640.18 2198.77 1639.48C2200.77 1637.28 2205.67 1632.18 2211.77 1627.08C2222.97 1617.88 2232.57 1613.68 2240.47 1614.48C2244.57 1614.88 2250.37 1616.98 2254.47 1624.68C2258.27 1631.98 2256.67 1636.78 2254.57 1639.58C2250.87 1644.58 2242.77 1647.28 2230.07 1647.98C2227.77 1648.08 2225.37 1648.18 2222.77 1648.08C2213.67 1647.98 2205.37 1647.08 2201.87 1646.58H2201.77C2187.97 1645.48 2165.07 1661.58 2156.47 1668.48C2150.87 1679.18 2146.37 1688.68 2142.97 1696.58C2138.07 1708.08 2134.67 1717.48 2132.57 1724.08C2130.47 1730.68 2129.57 1734.48 2129.57 1734.48C2129.17 1736.08 2127.77 1737.28 2126.07 1737.28C2125.77 1737.28 2125.47 1737.28 2125.07 1737.18C2123.07 1736.78 2121.77 1734.88 2122.27 1732.88Z" fill="#82AED7"/>
<path d="M2343.37 1475.48C2343.57 1475.38 2343.67 1475.28 2343.87 1475.18Z" fill="#CCE1F4"/>
<path d="M613.466 1791.78C613.266 1791.18 609.166 1776.48 598.066 1753.58C594.166 1745.48 589.166 1735.78 582.766 1724.98C582.666 1724.78 582.566 1724.48 582.366 1724.28L581.466 1722.78C579.566 1713.68 576.066 1689.78 580.166 1679.38C580.166 1679.28 580.266 1679.18 580.266 1679.08V1678.98C580.666 1677.88 584.966 1667.28 588.066 1655.28C592.766 1637.38 592.566 1626.18 587.466 1621.08C585.266 1618.78 580.966 1616.58 573.566 1619.08C566.966 1621.18 562.566 1625.28 560.466 1631.08C554.666 1646.98 568.766 1671.78 572.666 1678.18C570.166 1685.98 570.466 1697.48 571.466 1707.18C564.066 1695.88 555.466 1683.88 545.366 1671.48C545.366 1671.18 545.366 1670.98 545.266 1670.68L536.466 1629.98C537.266 1628.18 541.866 1617.18 545.466 1604.78C550.866 1585.68 550.866 1573.58 545.466 1567.68C543.066 1565.08 538.366 1562.48 529.766 1564.88C521.266 1567.28 515.866 1572.28 513.666 1579.58C508.566 1596.88 523.666 1621.98 528.766 1629.28L535.266 1659.48C531.766 1655.48 528.266 1651.58 524.666 1647.78C524.666 1647.78 524.566 1647.78 524.566 1647.68C509.766 1631.88 493.766 1617.18 476.766 1603.58C475.666 1602.48 464.466 1590.88 465.666 1573.18C466.766 1570.58 471.166 1559.38 474.566 1546.78C479.966 1526.58 479.766 1513.78 473.966 1507.48C471.366 1504.68 466.366 1501.88 457.366 1504.28C449.466 1506.38 444.166 1510.78 441.766 1517.38C434.666 1536.18 454.166 1567.18 458.266 1573.38C457.866 1580.38 459.166 1586.48 460.966 1591.58C458.666 1589.88 456.366 1588.18 453.966 1586.58C453.866 1586.58 453.866 1586.48 453.766 1586.48C444.566 1580.08 435.166 1573.88 425.466 1568.08C420.266 1564.98 415.066 1561.98 409.766 1559.08L395.066 1526.48C395.666 1522.48 396.766 1514.38 396.966 1505.58C397.466 1487.98 394.566 1477.08 387.966 1472.08C384.766 1469.68 379.266 1467.58 370.566 1471.38C363.366 1474.48 359.266 1479.18 358.366 1485.48C357.266 1493.68 362.066 1503.98 372.766 1515.98C380.366 1524.58 388.166 1530.98 388.466 1531.18L389.366 1531.88L398.966 1553.38C393.166 1550.38 387.166 1547.38 381.166 1544.58C380.966 1544.48 380.866 1544.38 380.666 1544.38C355.666 1532.58 329.166 1522.68 301.366 1514.48L290.066 1491.68C289.866 1489.38 288.966 1481.68 286.666 1473.18C282.966 1459.18 277.366 1450.28 270.066 1446.68C264.066 1443.68 257.366 1444.38 250.066 1448.68C243.166 1452.78 239.966 1457.68 240.566 1463.28C241.366 1470.78 249.066 1478.38 264.066 1486.48C272.366 1490.98 280.366 1494.18 283.566 1495.38L291.666 1511.68C273.466 1506.68 254.766 1502.38 235.466 1498.98C233.066 1497.18 225.466 1491.68 215.966 1486.38C200.466 1477.68 188.166 1474.08 179.466 1475.58C174.366 1476.48 170.466 1479.08 167.966 1483.38C166.166 1486.18 164.166 1492.28 167.866 1497.88C174.866 1508.48 197.666 1511.48 237.566 1506.88C237.766 1506.88 237.966 1506.78 238.166 1506.78C259.166 1510.68 278.866 1515.48 297.566 1520.88C321.766 1527.98 344.066 1536.18 364.666 1545.18L310.766 1549.38C302.566 1546.28 272.566 1536.08 255.466 1544.58C249.266 1547.68 245.366 1552.68 243.866 1559.68C242.166 1567.48 245.066 1571.48 247.766 1573.38C250.166 1575.08 253.366 1575.98 257.466 1575.98C264.566 1575.98 274.266 1573.58 286.766 1568.78C300.666 1563.38 312.766 1556.98 313.266 1556.78L313.866 1556.48L378.266 1551.48C387.466 1555.88 396.266 1560.38 404.766 1564.98C414.066 1570.08 422.966 1575.38 431.466 1580.78C421.666 1578.78 410.566 1577.38 402.966 1578.88C399.966 1578.18 390.266 1575.88 379.066 1574.68C360.666 1572.78 347.466 1574.68 339.966 1580.48C334.866 1584.48 332.466 1589.98 332.866 1596.98C333.366 1605.28 337.466 1608.78 340.866 1610.38C342.966 1611.38 345.466 1611.88 348.266 1611.88C356.166 1611.88 366.866 1608.28 380.666 1600.78C392.166 1594.58 402.066 1587.68 404.666 1585.88C415.966 1583.68 439.666 1589.68 449.366 1592.68C457.266 1598.18 464.766 1603.88 471.866 1609.48C486.566 1621.18 499.566 1632.98 510.966 1644.48C499.666 1642.08 483.766 1638.98 475.666 1638.28L475.366 1638.08C474.166 1637.38 444.566 1620.78 427.766 1627.48C422.366 1629.58 418.866 1633.68 417.266 1639.58C415.366 1646.48 417.866 1650.28 420.166 1652.28C422.766 1654.48 426.566 1655.48 431.766 1655.58C437.266 1655.58 444.266 1654.48 452.866 1652.08C461.566 1649.68 469.466 1646.78 472.966 1645.38C478.066 1645.28 502.666 1650.08 519.766 1653.88C525.166 1659.58 530.066 1665.18 534.666 1670.68C535.766 1671.98 536.766 1673.18 537.866 1674.48C549.366 1688.58 559.166 1702.18 567.166 1714.78C557.166 1708.88 543.766 1702.28 532.566 1702.08C530.466 1699.98 525.366 1695.08 518.966 1690.28C507.366 1681.58 497.566 1677.78 489.766 1678.88C485.666 1679.48 479.966 1681.88 476.266 1689.68C472.766 1697.08 474.666 1701.88 476.866 1704.58C480.866 1709.38 488.966 1711.78 501.766 1711.88C504.066 1711.88 506.466 1711.88 509.066 1711.68C518.066 1711.18 526.366 1709.88 529.866 1709.28H529.966C543.666 1707.58 567.366 1722.68 576.166 1729.18C582.266 1739.58 587.066 1748.88 590.866 1756.68C596.266 1767.88 600.066 1777.18 602.466 1783.68C604.866 1790.18 605.966 1793.88 605.966 1793.98C606.466 1795.58 607.966 1796.68 609.566 1796.68C609.866 1796.68 610.166 1796.68 610.566 1796.58C612.866 1795.58 614.066 1793.68 613.466 1791.78Z" fill="#82AED7"/>
<path d="M381.466 1544.18C381.266 1544.08 381.166 1543.98 380.966 1543.98Z" fill="#90B5D7"/>
<path d="M2508.47 2072.78L190.566 2073.38C146.366 1972.88 169.766 1941.48 175.366 1931.38C196.966 1892.78 269.266 1885.98 293.166 1850.48C317.666 1814.18 181.066 1792.58 277.966 1755.38C417.266 1701.88 509.566 1783.38 594.766 1800.28C863.666 1853.68 687.966 1785.18 759.766 1751.68C846.166 1711.28 1006.27 1761.58 1127.67 1750.98C1310.07 1734.98 1321.67 1811.58 1455.27 1810.48C1512.27 1801.58 1554.37 1786.68 1581.67 1765.68C1660.07 1732.88 1701.37 1727.68 1886.37 1745.78C2025.87 1759.38 2002.17 1788.68 2177.37 1771.28C2563.27 1732.98 2673.77 2001.58 2508.47 2072.78Z" fill="#CCE1F4"/>
<path d="M188.166 412.576H29.7658C29.7658 412.576 -21.4342 410.875 10.4658 378.875C10.4658 378.875 23.8658 367.175 44.0658 378.875C44.0658 378.875 35.3658 359.076 65.6658 342.776C65.6658 342.776 93.2658 328.376 126.566 339.176C126.566 339.176 160.266 348.875 158.566 373.875C158.566 373.875 188.566 365.075 200.866 384.875C216.066 409.475 188.166 412.576 188.166 412.576ZM2032.47 99.0755H1829.87C1829.87 99.0755 1764.47 96.8755 1805.17 55.9755C1805.17 55.9755 1822.27 40.9755 1848.17 55.9755C1848.17 55.9755 1837.07 30.6755 1875.77 9.77552C1875.77 9.77552 1910.97 -8.72449 1953.67 5.17551C1953.67 5.17551 1996.77 17.5755 1994.67 49.5755C1994.67 49.5755 2033.07 38.3755 2048.77 63.6755C2068.17 95.1755 2032.47 99.0755 2032.47 99.0755ZM2755.47 487.176H2555.77C2555.77 487.176 2491.27 484.976 2531.37 444.676C2531.37 444.676 2548.17 429.876 2573.77 444.676C2573.77 444.676 2562.87 419.776 2600.97 399.176C2600.97 399.176 2635.77 380.976 2677.77 394.576C2677.77 394.576 2720.27 406.775 2718.17 438.375C2718.17 438.375 2756.07 427.276 2771.47 452.276C2790.67 483.276 2755.47 487.176 2755.47 487.176Z" fill="#E6F2FF"/>
<path d="M1373.47 2186.78C2103.53 2186.78 2695.37 2152.93 2695.37 2111.18C2695.37 2069.42 2103.53 2035.58 1373.47 2035.58C643.401 2035.58 51.5659 2069.42 51.5659 2111.18C51.5659 2152.93 643.401 2186.78 1373.47 2186.78Z" fill="#DEDEDE"/>
<path d="M2230.37 2022.38C2230.37 2064.78 2195.57 2099.38 2153.17 2099.38L592.366 2097.68C549.966 2097.68 515.366 2062.88 515.366 2020.48L516.566 920.975C516.566 878.575 551.366 843.975 593.766 843.975L2154.57 845.675C2196.97 845.675 2231.57 880.475 2231.57 922.875L2230.37 2022.38Z" fill="white"/>
<path d="M2202.97 863.175L1459.17 243.275C1410.37 202.275 1326.37 202.475 1277.87 243.675L540.166 866.375L628.766 1096.78L2145.07 1132.78L2202.97 863.175Z" fill="#2B4563"/>
<path d="M2220.17 978.175L1459.07 339.575C1410.27 298.575 1326.27 298.775 1277.77 339.975L527.866 976.475L2220.17 978.175Z" fill="#A3D4FF"/>
<path d="M2007.67 1788.68C2007.67 1828.68 1981.97 1861.38 1950.57 1861.28L795.766 1859.98C764.366 1859.98 738.766 1827.18 738.766 1787.18L739.866 750.075C739.866 710.075 765.566 677.375 796.966 677.475L1951.77 678.775C1983.17 678.775 2008.77 711.575 2008.77 751.575L2007.67 1788.68Z" fill="white"/>
<path d="M1263.6 1497.8L550.1 858.9C530.2 872.9 517.2 895.9 517.2 921.9L516 1984.3C516 2026.7 550.6 2061.4 593 2061.4L758.8 2061.6L1263.6 1497.8ZM2196.2 858.6L1471.9 1504.3L1975.6 2069.2L2141.4 2069.4C2183.8 2069.4 2218.5 2034.8 2218.6 1992.4L2219.7 892.9C2219.7 888.6 2219.3 884.3 2218.6 880.2C2212.6 871.6 2205 864.3 2196.2 858.6Z" fill="#2B4563"/>
<path opacity="0.3" d="M1826.4 821.4L925.1 820.4C921.1 820.4 917.8 818.1 917.8 815.2C917.8 812.3 921.1 810 925.1 810L1826.4 811C1830.4 811 1833.7 813.3 1833.7 816.2C1833.7 819.1 1830.4 821.4 1826.4 821.4ZM1824.2 970.5L1373.55 970L922.9 969.5C918.9 969.5 915.6 967.2 915.6 964.3C915.6 961.4 918.9 959.1 922.9 959.1L1373.55 959.6L1824.2 960.1C1828.2 960.1 1831.5 962.4 1831.5 965.3C1831.5 968.2 1828.2 970.5 1824.2 970.5ZM1824 1112.2L922.7 1111.2C918.7 1111.2 915.4 1108.9 915.4 1106C915.4 1103.1 918.7 1100.8 922.7 1100.8L1824 1101.8C1828 1101.8 1831.3 1104.1 1831.3 1107C1831.3 1109.9 1828.1 1112.2 1824 1112.2Z" fill="#2B4563"/>
<path d="M530.066 877.675C521.566 890.075 516.666 904.975 516.566 920.975L515.366 2020.48C515.366 2062.88 549.966 2097.58 592.366 2097.68L758.166 2097.88L1263.07 1533.98L530.066 877.675ZM2218.17 879.575C2226.57 891.975 2231.57 906.875 2231.57 922.875L2230.47 2022.38C2230.47 2064.78 2195.67 2099.38 2153.27 2099.38L1987.47 2099.18L1483.77 1534.28L2218.17 879.575Z" fill="#A3D4FF"/>
<path d="M2157.27 2052.78L596.466 2051.18C574.666 2051.18 555.866 2051.08 541.766 2039.58L1281.07 1389.48C1328.47 1348.28 1410.47 1348.08 1458.27 1389.08L2211.07 2035.48C2197.17 2046.08 2178.17 2052.78 2157.27 2052.78Z" fill="#2B4563"/>
<path d="M2154.07 2099.58L593.266 2097.98C571.466 2097.98 552.866 2086.68 538.766 2075.18L1277.87 1436.28C1325.27 1395.08 1407.27 1394.88 1455.07 1435.88L2195.67 2071.98C2181.77 2082.68 2174.97 2099.58 2154.07 2099.58Z" fill="#A3D4FF"/>
<path d="M2142.27 2097.58L1433.87 1484.78C1415.37 1468.68 1389.27 1459.48 1361.97 1459.48H1361.57C1334.17 1459.58 1307.87 1468.88 1289.47 1485.08L601.066 2097.88L584.266 2096.88L1279.87 1478.38C1300.67 1459.98 1330.47 1449.38 1361.47 1449.38H1361.87C1392.77 1449.38 1422.37 1459.88 1443.27 1478.08L2159.67 2097.68L2142.27 2097.58Z" fill="white"/>
<path d="M530.266 877.475C521.666 889.875 516.666 904.875 516.666 920.975V956.275L556.966 916.075C557.466 912.875 558.466 909.875 560.066 907.175L530.266 877.475ZM556.166 1432.88L515.966 1472.98V1546.78L556.066 1506.68L556.166 1432.88ZM556.466 1137.68L516.366 1177.68L516.266 1251.48L556.366 1211.48L556.466 1137.68Z" fill="#2B4563"/>
<path d="M556.666 990.075L516.466 1030.08L516.366 1103.88L556.566 1063.88L556.666 990.075ZM556.366 1285.28L516.166 1325.28L516.066 1399.18L556.266 1359.08L556.366 1285.28Z" fill="white"/>
<path d="M555.866 1728.08L515.666 1768.18L515.566 1841.98L555.766 1801.88L555.866 1728.08Z" fill="#2B4563"/>
<path d="M555.966 1580.48L515.866 1620.58L515.766 1694.38L555.966 1654.28V1580.48ZM555.666 1875.68L515.466 1915.78V1989.58L555.566 1949.48L555.666 1875.68Z" fill="white"/>
<path d="M822.866 2051.38L776.266 2097.88L850.066 2097.98L896.666 2051.48L822.866 2051.38ZM555.266 2024.58V2023.48L523.666 2054.98C531.666 2070.88 545.066 2083.78 561.466 2090.98L601.466 2051.08C601.466 2051.18 555.266 2050.28 555.266 2024.58Z" fill="#2B4563"/>
<path d="M675.266 2051.18L628.666 2097.68L702.466 2097.78L749.066 2051.28L675.266 2051.18Z" fill="white"/>
<path d="M2186.97 985.175L2186.87 1058.98L2231.47 1014.48L2231.57 940.675L2186.97 985.175ZM1118.07 2051.68L1071.47 2098.18L1145.27 2098.28L1191.87 2051.78L1118.07 2051.68Z" fill="#2B4563"/>
<path d="M970.466 2051.58L923.866 2098.08L997.666 2098.18L1044.27 2051.58H970.466ZM2186.77 1132.78L2186.67 1206.58L2231.27 1162.08L2231.37 1088.28L2186.77 1132.78ZM1265.67 2051.88L1219.07 2098.38L1292.87 2098.48L1339.47 2051.98L1265.67 2051.88Z" fill="white"/>
<path d="M1708.47 2052.38L1661.87 2098.88L1735.67 2098.98L1782.27 2052.48L1708.47 2052.38ZM2186.27 1575.58V1649.38L2230.87 1604.88V1531.08L2186.27 1575.58ZM1413.27 2052.08L1366.67 2098.58H1440.47L1487.07 2052.08H1413.27ZM2186.67 1280.38L2186.57 1354.18L2231.17 1309.68L2231.27 1235.88L2186.67 1280.38Z" fill="#2B4563"/>
<path d="M2186.47 1427.98L2186.37 1501.78L2230.97 1457.28L2231.07 1383.48L2186.47 1427.98ZM1560.87 2052.18L1514.27 2098.68L1588.07 2098.78L1634.67 2052.28L1560.87 2052.18Z" fill="white"/>
<path d="M2003.77 2052.68L1957.07 2099.18L2030.87 2099.28L2077.57 2052.78L2003.77 2052.68ZM2185.97 1870.78L2185.87 1944.58L2230.47 1900.08L2230.57 1826.28L2185.97 1870.78Z" fill="#2B4563"/>
<path d="M1856.17 2052.48L1809.47 2098.98L1883.27 2099.08L1929.97 2052.58L1856.17 2052.48ZM2186.17 1723.18L2186.07 1796.98L2230.67 1752.48L2230.77 1678.68L2186.17 1723.18ZM2186.87 2017.38V2026.38C2186.87 2040.48 2175.27 2052.08 2161.17 2052.08H2152.17L2104.77 2099.38L2153.27 2099.48C2164.97 2099.48 2176.07 2096.78 2186.07 2092.08L2222.97 2055.28C2227.67 2045.28 2230.47 2034.18 2230.47 2022.48L2230.57 1973.98L2186.87 2017.38Z" fill="white"/>
<path d="M499.866 774.975C500.266 776.775 500.266 778.675 500.766 780.475C501.866 784.475 505.066 787.675 506.366 791.675C507.766 795.875 506.866 800.475 504.666 804.375C502.566 808.175 499.266 811.275 495.766 813.875C493.366 815.675 490.666 817.475 487.666 817.975C484.566 818.475 481.366 817.675 478.266 817.375C471.566 816.775 464.866 818.875 458.166 818.775C451.466 818.775 443.766 815.675 441.966 809.175C441.566 807.675 441.466 806.175 440.866 804.775C440.166 803.075 438.766 801.775 437.866 800.175C436.166 797.175 436.266 793.575 436.366 790.075C436.566 785.975 436.766 781.775 438.366 777.975C442.166 768.975 452.666 764.675 458.066 756.575C459.066 755.175 459.866 753.475 461.466 752.875C462.466 752.475 463.666 752.575 464.766 752.675C476.966 754.075 496.966 760.875 499.866 774.975Z" fill="#193759"/>
<path d="M522.066 892.075C525.166 906.075 526.766 920.675 533.066 933.575C545.766 959.475 575.166 974.075 588.166 999.875C599.966 1023.28 595.566 1052.58 581.866 1074.98C568.166 1097.38 546.466 1113.78 523.566 1126.48C504.166 1137.28 483.266 1145.98 461.366 1149.78C441.566 1153.28 421.366 1152.78 401.366 1152.88C356.966 1153.08 312.566 1156.18 268.566 1162.08C238.366 1166.18 204.566 1170.78 180.166 1152.58C167.166 1142.88 159.066 1128.18 149.666 1114.98C134.166 1093.18 114.366 1074.38 101.866 1050.78C91.1659 1030.58 86.3659 1007.28 88.1659 984.375C88.5659 978.675 89.5658 972.775 93.2658 968.475C96.9658 964.175 102.766 962.275 108.366 961.175C158.966 951.375 210.766 991.375 260.366 977.275C282.966 970.875 301.466 953.675 313.766 933.575C326.166 913.575 333.166 890.775 339.366 868.075C341.366 860.675 343.366 853.175 347.666 846.875C352.666 839.375 360.466 834.175 368.566 829.975C397.666 814.875 432.466 811.675 464.066 819.975C477.466 823.475 495.166 828.475 502.766 840.575C512.166 855.775 518.166 874.475 522.066 892.075Z" fill="#193759"/>
<path d="M421.166 953.475C384.766 937.375 359.066 902.676 355.966 865.576C355.466 859.276 355.566 852.876 356.666 846.576C361.566 819.276 385.366 797.275 412.766 785.975C418.866 783.475 425.166 781.376 431.666 780.176C446.766 777.276 462.966 779.276 476.766 785.676C490.566 792.076 501.966 802.776 508.466 815.676C515.866 830.176 517.066 846.675 517.266 862.775C517.466 873.475 517.266 884.275 515.066 894.875C510.766 915.675 498.766 934.375 486.766 952.475C485.366 954.575 483.866 956.775 481.666 958.375C479.266 960.075 476.166 960.775 473.266 961.475C464.866 963.375 458.166 965.575 449.666 963.375C439.966 960.575 430.366 957.375 421.166 953.475Z" fill="#193759"/>
<path d="M412.966 788.075C413.466 790.275 413.466 792.575 413.966 794.675C415.266 799.475 419.066 803.275 420.666 808.075C422.366 813.075 421.266 818.675 418.666 823.175C416.066 827.775 412.166 831.375 407.966 834.575C405.066 836.775 401.866 838.775 398.266 839.475C394.566 840.075 390.766 839.075 386.966 838.775C378.966 838.075 370.966 840.475 362.866 840.475C354.766 840.475 345.666 836.775 343.466 829.075C342.966 827.275 342.866 825.475 342.166 823.775C341.266 821.775 339.666 820.175 338.566 818.275C336.566 814.675 336.666 810.275 336.866 806.175C337.066 801.275 337.366 796.175 339.266 791.675C343.766 780.875 356.366 775.775 362.766 766.075C363.866 764.375 364.966 762.375 366.866 761.575C368.066 761.075 369.466 761.175 370.866 761.375C385.566 763.075 409.466 771.275 412.966 788.075Z" fill="#193759"/>
<path d="M933.666 1056.08C930.666 1058.08 927.566 1060.18 924.566 1062.18C919.766 1065.38 914.966 1068.68 909.666 1070.98C908.266 1071.58 889.466 1079.88 886.466 1080.98C875.266 1084.88 873.666 1089.48 863.866 1096.18C855.366 1102.08 846.766 1107.98 839.266 1114.98C836.266 1117.78 833.166 1120.98 829.266 1122.38C822.066 1125.08 814.266 1121.48 807.466 1117.88C805.966 1117.08 804.366 1116.18 803.966 1114.58C803.666 1113.48 803.966 1112.38 804.366 1111.38C807.766 1102.68 816.666 1097.68 824.266 1092.38C840.066 1081.48 856.266 1061.38 856.366 1061.18C861.066 1055.28 868.966 1040.18 873.866 1034.48C875.866 1032.48 885.766 1024.18 887.566 1023.48C891.966 1021.78 896.166 1019.48 899.966 1016.68C902.366 1014.88 904.766 1012.88 907.666 1011.78C911.066 1010.58 914.966 1010.88 918.066 1012.78C918.466 1012.98 918.766 1013.28 918.966 1013.58C919.166 1013.98 919.066 1014.58 918.966 1015.08C917.566 1020.88 911.366 1023.78 905.866 1025.98C900.366 1028.18 894.166 1031.28 892.866 1036.98C895.866 1041.08 900.566 1043.98 905.666 1044.58C910.766 1045.28 916.066 1043.68 919.966 1040.48C922.566 1038.28 924.566 1035.48 926.666 1032.78C933.266 1024.38 941.166 1017.08 950.166 1011.28C950.666 1010.98 951.166 1010.68 951.766 1010.68C953.566 1010.68 953.866 1013.18 953.666 1014.88C953.166 1018.58 952.666 1022.28 952.166 1025.88C951.266 1032.18 946.966 1037.58 943.566 1042.88C940.466 1048.18 938.666 1052.78 933.666 1056.08ZM279.266 1991.68C268.666 2011.68 271.566 2032.38 264.366 2053.18C260.766 2063.78 255.866 2073.28 245.166 2077.58C236.066 2081.28 225.466 2080.48 216.066 2084.78C198.966 2092.58 177.666 2118.38 158.766 2118.98C125.966 2119.98 167.566 2079.78 174.266 2073.88C209.566 2042.68 235.866 2007.38 246.366 1960.58C248.766 1949.88 250.266 1938.88 252.766 1928.18C255.866 1915.08 255.866 1908.98 269.466 1916.48C277.466 1920.88 283.466 1928.38 291.066 1933.38C296.366 1936.88 310.266 1939.08 314.166 1943.08C312.266 1940.98 281.966 1986.48 279.266 1991.68Z" fill="#F5CDAB"/>
<path d="M158.866 2118.98C177.766 2118.38 199.066 2092.48 216.166 2084.78C225.566 2080.48 236.166 2081.28 245.266 2077.58C255.966 2073.28 260.766 2063.68 264.466 2053.18C268.066 2042.78 269.166 2032.38 270.666 2021.98C269.266 2023.58 267.866 2025.18 266.466 2026.68C260.766 2032.98 253.766 2046.68 247.266 2051.98C235.366 2061.68 222.666 2062.48 209.766 2070.78C197.666 2078.58 184.566 2084.78 169.766 2082.18C168.666 2081.98 167.566 2081.68 166.566 2081.48C153.366 2094.88 132.966 2119.78 158.866 2118.98Z" fill="#3C5B7F"/>
<path d="M542.566 1958.98H594.466C593.266 1963.08 592.166 1967.28 591.666 1971.58C590.766 1978.58 591.466 1985.68 592.066 1992.68C593.566 2008.68 595.366 2024.78 599.766 2040.28C604.166 2055.78 613.766 2069.28 630.266 2076.98C646.866 2084.78 668.666 2087.18 682.566 2099.28C685.066 2101.48 572.366 2092.88 561.566 2088.68C555.666 2086.38 539.466 2080.48 540.266 2074.18C544.166 2045.18 548.966 2029.68 540.266 1985.18C538.366 1975.38 542.466 1967.48 542.566 1958.98Z" fill="#F5CDAB"/>
<path d="M539.666 2073.18C542.366 2074.58 545.166 2075.88 548.066 2076.98C554.166 2079.38 560.366 2081.58 566.766 2082.98C573.266 2084.38 579.866 2084.18 586.466 2083.78C598.366 2083.18 608.366 2087.18 620.966 2089.78C628.566 2091.28 636.466 2091.38 643.766 2088.58C646.566 2087.48 649.066 2085.98 651.566 2084.28C660.966 2086.28 670.566 2087.88 679.666 2090.78C682.866 2091.78 686.066 2092.98 688.566 2095.18C691.066 2097.38 692.866 2100.68 692.266 2103.98C691.466 2108.58 686.766 2111.28 682.366 2112.98C668.066 2118.68 651.866 2120.48 637.266 2115.38C626.766 2111.78 617.566 2104.78 606.766 2102.28C595.466 2099.68 583.766 2102.28 572.266 2102.68C565.866 2102.88 550.566 2103.28 544.966 2100.28C532.466 2093.58 540.566 2075.68 539.666 2073.18Z" fill="#3C5B7F"/>
<path d="M472.666 1027.18C474.366 1031.98 476.366 1036.68 479.166 1040.98C483.866 1048.08 490.566 1053.68 497.166 1059.08C492.466 1063.68 487.866 1068.28 483.166 1072.88C479.966 1075.98 476.766 1079.18 472.766 1081.38C465.766 1085.28 457.266 1085.38 449.266 1085.28C444.266 1085.18 439.266 1084.98 434.566 1083.68C430.366 1082.48 426.466 1080.48 422.566 1078.48C419.366 1076.88 416.266 1075.18 413.466 1072.88C410.866 1070.68 408.866 1068.08 406.766 1065.48C403.166 1060.78 399.466 1056.18 395.866 1051.48C413.566 1038.98 424.766 1017.68 424.966 995.975C425.166 978.075 418.366 960.675 417.766 942.775C417.766 943.975 426.566 948.275 427.866 949.075C431.466 951.275 434.966 953.475 438.566 955.675C445.666 959.975 452.766 964.275 459.966 968.375C464.366 970.875 471.766 973.175 470.966 979.275C469.966 986.875 467.766 993.675 467.966 1001.48C468.166 1010.28 469.866 1018.98 472.666 1027.18Z" fill="#F5CDAB"/>
<path d="M467.966 1001.58C468.166 1008.88 469.366 1016.08 471.366 1022.98H471.266C465.766 1023.08 460.466 1021.18 456.266 1017.68C453.366 1015.28 450.566 1012.78 448.066 1009.98C438.366 998.875 430.766 984.075 424.366 970.775C422.366 960.375 418.166 953.275 417.766 942.675C417.766 943.875 426.566 948.175 427.866 948.975C431.466 951.175 434.966 953.375 438.566 955.575C445.666 959.875 452.766 964.175 459.966 968.275C464.366 970.775 471.766 973.075 470.966 979.175C469.966 986.875 467.766 993.775 467.966 1001.58Z" fill="#EBBA91"/>
<path d="M401.666 890.575C386.166 896.975 409.866 927.975 409.866 927.975C409.866 927.975 418.866 954.675 432.666 970.875C460.366 1003.28 508.666 985.975 512.766 940.775C515.666 908.675 521.166 836.775 481.766 826.775C463.366 822.075 441.366 830.075 431.466 846.075C422.366 860.875 415.466 873.475 417.266 897.275C414.866 891.575 407.966 887.975 401.666 890.575Z" fill="#F5CDAB"/>
<path d="M229.766 1846.78C239.866 1769.28 243.666 1690.48 260.266 1614.08C269.566 1571.48 281.566 1529.48 291.466 1486.98C297.566 1460.68 296.566 1421.38 307.566 1397.48C325.066 1359.58 391.066 1366.98 443.766 1371.48C442.966 1367.08 575.366 1352.98 590.966 1396.58C599.866 1421.28 595.366 1460.38 599.166 1487.08C605.266 1530.28 613.566 1573.08 619.066 1616.38C628.866 1693.98 625.566 1772.78 628.866 1850.88C633.666 1965.38 626.766 1975.58 551.366 1978.08C496.466 1979.88 497.066 1837.58 492.066 1784.88C484.266 1703.18 451.966 1619.78 453.366 1537.98C452.966 1534.78 452.766 1528.48 452.566 1521.28C451.266 1526.28 450.166 1531.58 449.466 1536.98C443.666 1618.68 387.066 1712.28 372.066 1792.98C362.366 1844.98 350.466 1986.78 295.866 1980.18C220.766 1971.18 214.866 1960.38 229.766 1846.78Z" fill="#3C5B7F"/>
<path d="M452.466 1523.48C452.566 1520.98 456.766 1500.98 458.766 1493.18C459.466 1490.48 460.066 1487.88 460.566 1485.18C462.266 1496.28 463.966 1507.38 465.766 1518.38C468.866 1536.88 493.166 1624.28 493.866 1636.58C495.466 1668.08 496.066 1699.58 497.066 1731.08C498.466 1773.48 499.366 1815.98 497.266 1858.28C494.566 1829.68 493.566 1802.38 491.866 1784.88C484.066 1703.18 451.766 1619.78 453.166 1537.98C452.866 1535.18 452.566 1529.98 452.466 1523.78V1523.48ZM341.466 1908.58C341.366 1878.98 343.166 1849.48 346.866 1820.18C351.666 1786.68 358.966 1754.28 371.766 1722.88C383.966 1694.78 398.366 1667.88 417.166 1643.58C416.566 1644.38 423.166 1635.78 426.866 1630.68C407.466 1685.78 381.366 1742.08 371.866 1793.18C365.866 1825.48 358.966 1892.28 341.666 1936.78C341.566 1927.28 341.466 1917.88 341.466 1908.58Z" fill="#324B69"/>
<path d="M183.466 1199.68C202.666 1167.88 269.266 1064.78 357.966 1032.58C374.266 1024.08 393.966 1020.88 410.366 1028.88C428.166 1037.58 443.166 1058.98 462.266 1053.78C472.966 1050.88 479.466 1040.48 487.466 1032.88C507.166 1014.08 538.266 1011.28 564.066 1019.98C589.866 1028.68 611.266 1047.08 630.266 1066.58C645.066 1081.78 659.066 1098.08 677.066 1109.38C694.966 1120.68 718.166 1126.18 737.566 1117.58C761.966 1106.88 775.366 1076.78 801.466 1071.08C827.666 1065.28 853.366 1090.18 856.166 1116.78C858.966 1143.48 844.666 1169.28 826.266 1188.78C809.466 1206.78 789.066 1221.18 767.766 1233.78C750.366 1244.08 731.566 1253.38 711.366 1254.68C684.466 1256.48 658.266 1243.68 638.366 1225.68C626.666 1215.08 616.666 1202.68 607.566 1189.78C603.866 1184.58 585.466 1158.38 590.866 1179.68C599.666 1214.08 609.666 1248.18 619.066 1282.48C624.166 1301.18 629.266 1319.78 634.366 1338.48C640.866 1362.28 646.966 1389.68 633.266 1410.18C619.566 1430.78 590.666 1435.78 566.366 1431.08C542.066 1426.28 519.966 1413.98 496.166 1406.78C442.166 1390.58 371.766 1418.78 315.466 1417.58C306.766 1417.38 297.166 1416.48 291.366 1410.08C287.766 1406.08 286.266 1400.58 285.266 1395.28C274.866 1341.28 328.766 1224.38 355.466 1175.08C350.766 1178.98 280.266 1262.08 271.266 1281.58C251.866 1323.18 235.966 1360.78 221.566 1404.38C216.966 1418.18 209.366 1434.48 194.866 1435.48C189.766 1435.78 157.566 1426.88 146.166 1425.98C129.066 1424.58 115.766 1410.58 115.666 1393.48C115.366 1325.48 147.666 1258.98 183.466 1199.68Z" fill="#0087FF"/>
<path d="M248.466 1280.68C284.766 1218.68 366.466 1159.48 367.966 1158.68C360.766 1170.48 350.566 1178.98 338.266 1194.48C315.466 1221.28 277.666 1267.68 271.166 1281.58C251.766 1323.18 235.866 1360.78 221.466 1404.38C220.566 1407.08 219.566 1409.88 218.366 1412.68C220.266 1392.68 217.666 1333.38 248.466 1280.68ZM664.166 1229.28C704.766 1244.78 745.666 1236.58 758.866 1234.98C762.066 1234.58 765.166 1234.08 768.266 1233.48C768.166 1233.58 767.966 1233.68 767.866 1233.78C750.466 1244.08 731.666 1253.38 711.466 1254.68C684.566 1256.48 658.366 1243.68 638.466 1225.68C626.766 1215.08 616.766 1202.68 607.666 1189.78C606.566 1188.28 604.266 1184.88 601.566 1181.48C603.966 1183.18 641.866 1220.88 664.166 1229.28Z" fill="#006FD1"/>
<path d="M131.366 1577.28L900.366 1046.08C904.166 1043.48 908.766 1039.58 913.166 1035.48C913.366 1034.98 913.666 1034.48 913.966 1033.98C916.766 1030.18 919.866 1026.58 922.966 1022.98C923.466 1009.18 921.166 996.675 910.666 985.875C900.766 975.675 888.466 969.775 875.266 969.075C872.366 970.175 869.566 971.475 866.866 972.775C865.666 973.375 864.566 973.475 863.566 973.375C860.066 975.275 856.766 977.275 854.166 979.075L85.4658 1510.18L131.366 1577.28Z" fill="#8EBBE6"/>
<path d="M993.366 926.975L882.966 964.675C874.466 967.575 861.566 974.075 854.166 979.175L853.766 979.475C862.566 980.975 871.066 975.575 878.766 972.775C881.266 971.875 882.666 975.475 880.966 977.075C876.766 980.875 871.966 983.875 867.866 987.675C875.666 986.975 881.566 981.475 889.266 979.775C890.766 979.475 892.766 980.775 892.366 982.575C891.666 985.775 890.266 987.775 888.566 990.375C886.966 992.975 882.966 998.975 883.666 1001.68L884.866 1002.88C885.566 1003.08 886.566 1002.98 887.966 1002.68C891.966 1001.68 895.966 997.775 899.866 995.975C903.666 994.275 907.466 993.375 911.566 992.775C913.166 992.575 914.666 994.875 913.966 996.275C909.666 1004.38 902.066 1009.38 896.266 1016.18C896.466 1016.48 896.666 1016.78 896.866 1016.98C903.666 1014.68 910.466 1010.08 916.366 1007.38C918.166 1006.58 920.066 1009.08 919.366 1010.78C918.266 1013.18 916.666 1015.58 914.966 1018.18C913.766 1021.68 912.266 1024.98 910.966 1028.38C909.666 1031.98 909.366 1035.78 908.666 1039.58C914.366 1034.68 920.366 1028.88 924.066 1024.28L998.466 934.275C1004.07 927.375 1001.87 924.075 993.366 926.975Z" fill="#EDF6FF"/>
<path d="M95.9661 1530.38C95.1661 1530.58 94.2661 1530.28 93.7661 1529.48C93.1661 1528.58 93.2661 1527.28 94.0661 1526.78L856.766 994.075C857.566 993.475 858.766 993.775 859.466 994.675C860.066 995.575 859.966 996.875 859.166 997.375L96.4661 1530.08C96.2661 1530.28 96.0661 1530.28 95.9661 1530.38ZM124.266 1564.18C123.466 1564.38 122.566 1564.08 122.066 1563.28C121.466 1562.38 121.566 1561.08 122.366 1560.58L885.066 1027.88C885.866 1027.28 887.066 1027.58 887.766 1028.48C888.366 1029.38 888.266 1030.68 887.466 1031.18L124.766 1563.88C124.566 1563.98 124.466 1564.08 124.266 1564.18Z" fill="white"/>
<path d="M128.232 1579.56C144.999 1568.08 148.269 1543.7 135.534 1525.11C122.8 1506.52 98.8839 1500.76 82.1166 1512.24C65.3494 1523.73 62.0801 1548.11 74.8145 1566.7C87.5489 1585.29 111.465 1591.05 128.232 1579.56Z" fill="#8EBBE6"/>
<path d="M141.866 1471.08L81.8657 1512.58L127.866 1579.68L187.766 1538.18L141.866 1471.08ZM978.366 958.575L998.366 934.275C1004.07 927.375 1001.77 924.075 993.366 926.975L963.666 937.075L978.366 958.575Z" fill="#2C659B"/>
<path d="M171.066 1430.78C161.466 1428.58 151.366 1426.38 145.966 1425.88C140.566 1425.48 135.566 1423.78 131.166 1421.08C129.066 1423.98 127.366 1427.18 125.966 1430.48C119.266 1446.88 121.466 1461.58 120.966 1480.98C120.666 1491.38 120.166 1500.58 121.066 1510.78C122.466 1525.98 140.966 1532.98 151.966 1522.48C152.666 1521.88 153.266 1521.18 153.966 1520.38C158.366 1515.28 160.666 1508.78 162.366 1502.38C164.866 1492.68 166.066 1482.58 165.766 1472.58C165.466 1459.08 162.766 1444.68 169.266 1432.78C169.966 1432.18 170.566 1431.48 171.066 1430.78Z" fill="#F5CDAB"/>
<path d="M2170.97 1724.38H2154.07C2154.07 1721.48 2154.27 1718.68 2154.37 1715.88C2154.67 1710.88 2154.97 1706.08 2154.17 1701.78C2154.07 1700.88 2153.67 1698.88 2144.87 1697.98C2141.37 1697.88 2108.57 1697.88 2085.47 1698.98C2081.57 1699.18 2077.67 1699.48 2075.37 1701.18C2073.67 1702.48 2072.37 1705.08 2071.97 1708.28C2071.47 1712.08 2072.17 1716.38 2072.87 1720.88L2056.17 1723.48C2055.37 1718.28 2054.47 1712.48 2055.17 1706.28C2056.17 1698.28 2059.67 1691.68 2065.27 1687.58C2071.27 1683.18 2078.37 1682.48 2084.47 1682.18C2108.37 1680.98 2143.77 1680.98 2146.17 1681.18C2151.57 1681.68 2168.07 1683.38 2170.67 1699.08C2171.67 1705.28 2171.37 1711.18 2171.07 1716.98C2171.07 1719.38 2170.97 1721.88 2170.97 1724.38ZM1903.67 2108.88C1898.97 2108.88 1894.47 2108.38 1890.07 2107.28C1881.97 2105.28 1875.57 2101.58 1870.87 2096.48C1864.67 2089.68 1861.67 2079.88 1861.67 2067.58C1861.87 2036.18 1877.47 2008.98 1894.97 1981.68C1914.47 1951.08 1935.87 1918.88 1963.47 1891.98C1964.37 1891.18 1965.17 1890.28 1966.07 1889.48C1974.17 1881.58 1981.87 1874.18 1984.07 1865.28L2004.57 1870.38C2000.97 1885.18 1990.17 1895.48 1980.77 1904.68C1979.87 1905.48 1979.07 1906.28 1978.27 1907.18C1952.27 1932.58 1931.67 1963.58 1912.77 1993.18C1897.07 2017.78 1882.97 2042.08 1882.87 2067.88C1882.87 2074.78 1884.07 2079.78 1886.67 2082.58C1888.47 2084.58 1891.37 2086.08 1895.27 2087.08C1911.57 2091.18 1928.47 2082.18 1937.07 2076.48C1944.87 2071.28 1952.07 2065.18 1959.67 2058.58C1965.57 2053.48 1971.67 2048.28 1978.07 2043.48L1990.67 2060.48C1984.77 2064.78 1979.27 2069.58 1973.47 2074.58C1965.77 2081.28 1957.77 2088.08 1948.77 2093.98C1933.67 2103.68 1918.07 2108.88 1903.67 2108.88ZM2311.97 2108.88C2316.67 2108.88 2321.17 2108.38 2325.57 2107.28C2333.67 2105.28 2340.07 2101.58 2344.77 2096.48C2350.97 2089.68 2353.97 2079.88 2353.97 2067.58C2353.77 2036.18 2338.17 2008.98 2320.67 1981.68C2301.17 1951.08 2279.77 1918.88 2252.17 1891.98C2251.27 1891.18 2250.47 1890.28 2249.57 1889.48C2241.47 1881.58 2233.77 1874.18 2231.57 1865.28L2211.07 1870.38C2214.67 1885.18 2225.47 1895.48 2234.87 1904.68C2235.77 1905.48 2236.57 1906.28 2237.37 1907.18C2263.37 1932.58 2283.97 1963.58 2302.87 1993.18C2318.57 2017.78 2332.67 2042.08 2332.77 2067.88C2332.77 2074.78 2331.57 2079.78 2328.97 2082.58C2327.17 2084.58 2324.27 2086.08 2320.37 2087.08C2304.07 2091.18 2287.17 2082.18 2278.57 2076.48C2270.77 2071.28 2263.57 2065.18 2255.97 2058.58C2250.07 2053.48 2243.97 2048.28 2237.57 2043.48L2224.97 2060.48C2230.87 2064.78 2236.37 2069.58 2242.17 2074.58C2249.87 2081.28 2257.87 2088.08 2266.87 2093.98C2281.97 2103.68 2297.47 2108.88 2311.97 2108.88Z" fill="#0087FF"/>
<path d="M2269.47 1965.58C2267.37 2116.78 2202.97 2107.38 2116.77 2107.38C2030.47 2107.38 1954.87 2116.88 1957.17 1965.58C1960.27 1754.58 2029.47 1712.68 2115.67 1712.68C2201.87 1712.68 2272.67 1743.28 2269.47 1965.58Z" fill="#006FD1"/>
<path d="M2259.37 1978.28C2257.37 2116.08 2197.27 2107.38 2116.57 2107.38C2035.97 2107.38 1965.27 2115.98 1967.37 1978.28C1970.27 1786.08 2034.97 1747.88 2115.57 1747.88C2196.17 1747.88 2262.27 1775.78 2259.37 1978.28Z" fill="#0087FF"/>
<path d="M2235.47 2048.68C2235.47 2068.88 2218.97 2085.38 2198.77 2085.38H2027.87C2007.67 2085.38 1991.17 2068.88 1991.17 2048.68V1988.48C1991.17 1968.28 2014.67 1930.48 2058.67 1931.28H2173.17C2212.07 1930.58 2235.57 1961.68 2235.57 1981.88V2048.68H2235.47Z" fill="#006FD1"/>
<path d="M2155.57 1903.28C2155.57 1908.68 2150.57 1913.18 2144.57 1913.18H2082.17C2076.07 1913.18 2071.17 1908.68 2071.17 1903.28C2071.17 1897.88 2076.17 1893.38 2082.17 1893.38H2144.57C2150.57 1893.38 2155.57 1897.78 2155.57 1903.28ZM2040.37 1979.18L2037.97 1970.68L2035.57 1979.18L2032.67 1968.88L2033.67 1968.58L2035.57 1975.28L2037.97 1966.78L2040.37 1975.28L2042.77 1966.78L2045.17 1975.28L2047.67 1966.78L2050.07 1975.28L2052.47 1966.78L2054.87 1975.28L2057.27 1966.78L2059.67 1975.28L2062.07 1966.78L2064.47 1975.28L2066.87 1966.78L2069.27 1975.28L2071.67 1966.78L2074.07 1975.28L2076.47 1966.78L2078.87 1975.28L2081.37 1966.78L2083.77 1975.28L2086.17 1966.78L2088.57 1975.28L2090.97 1966.78L2093.37 1975.28L2095.77 1966.78L2098.17 1975.28L2100.57 1966.78L2102.97 1975.28L2105.37 1966.78L2107.77 1975.28L2110.27 1966.78L2112.67 1975.28L2115.07 1966.78L2117.47 1975.28L2119.87 1966.78L2122.27 1975.28L2124.67 1966.78L2127.07 1975.28L2129.47 1966.78L2131.87 1975.28L2134.27 1966.78L2136.77 1975.28L2139.17 1966.78L2141.57 1975.28L2143.97 1966.78L2146.37 1975.28L2148.77 1966.78L2151.17 1975.28L2153.57 1966.78L2155.97 1975.28L2158.37 1966.78L2160.77 1975.28L2163.27 1966.78L2165.67 1975.28L2168.07 1966.78L2170.47 1975.28L2172.87 1966.78L2175.27 1975.28L2177.67 1966.78L2180.07 1975.28L2182.57 1966.78L2184.97 1975.28L2187.37 1966.78L2190.27 1977.08L2189.27 1977.38L2187.37 1970.68L2184.97 1979.08L2182.57 1970.68L2180.07 1979.08L2177.67 1970.68L2175.27 1979.18L2172.87 1970.68L2170.47 1979.18L2168.07 1970.68L2165.67 1979.18L2163.27 1970.68L2160.77 1979.18L2158.37 1970.68L2155.97 1979.18L2153.57 1970.68L2151.17 1979.18L2148.77 1970.68L2146.37 1979.18L2143.97 1970.68L2141.57 1979.18L2139.17 1970.68L2136.77 1979.18L2134.27 1970.68L2131.87 1979.18L2129.47 1970.68L2127.07 1979.18L2124.67 1970.68L2122.27 1979.18L2119.87 1970.68L2117.47 1979.18L2115.07 1970.68L2112.67 1979.18L2110.27 1970.68L2107.77 1979.18L2105.37 1970.68L2102.97 1979.18L2100.57 1970.68L2098.17 1979.18L2095.77 1970.68L2093.37 1979.18L2090.97 1970.68L2088.57 1979.18L2086.17 1970.68L2083.77 1979.18L2081.37 1970.68L2078.87 1979.18L2076.47 1970.68L2074.07 1979.18L2071.67 1970.68L2069.27 1979.18L2066.87 1970.68L2064.47 1979.18L2062.07 1970.68L2059.67 1979.18L2057.27 1970.68L2054.87 1979.18L2052.47 1970.68L2050.07 1979.18L2047.67 1970.68L2045.17 1979.18L2042.77 1970.68L2040.37 1979.18Z" fill="white"/>
<path d="M2194.07 1984.58C2194.07 1987.48 2192.37 1989.88 2190.37 1989.88C2188.37 1989.88 2186.67 1987.48 2186.67 1984.58V1980.38C2186.67 1977.48 2188.37 1975.08 2190.37 1975.08C2192.37 1975.08 2194.07 1977.48 2194.07 1980.38V1984.58Z" fill="white"/>
<path d="M962.424 715.224C962.424 715.224 961.656 715.309 960.12 715.48C959.864 723.075 959.736 727 959.736 727.256C959.565 732.12 959.309 739.8 958.968 750.296C958.712 760.707 958.499 768.643 958.328 774.104C958.157 779.907 957.987 783.619 957.816 785.24C957.645 787.288 956.749 788.867 955.128 789.976C953.507 791.085 951.715 791.299 949.752 790.616C947.448 789.848 946.083 788.269 945.656 785.88C945.571 785.197 945.571 784.045 945.656 782.424C945.827 774.147 946.125 762.243 946.552 746.712C947.064 731.181 947.363 721.837 947.448 718.68C947.448 718.68 947.448 717.869 947.448 716.248C945.997 716.163 945.272 716.12 945.272 716.12C943.821 716.205 942.243 716.291 940.536 716.376C938.829 716.461 937.08 716.547 935.288 716.632C933.581 716.717 932.045 716.76 930.68 716.76C929.656 716.845 928.888 716.845 928.376 716.76C927.608 716.675 926.883 716.461 926.2 716.12C925.517 715.779 924.92 715.352 924.408 714.84C923.896 714.328 923.469 713.731 923.128 713.048C922.872 712.365 922.744 711.64 922.744 710.872C922.659 709.336 923.085 708.013 924.024 706.904C925.048 705.709 926.285 704.941 927.736 704.6C928.504 704.429 929.571 704.344 930.936 704.344C935.373 704.088 940.024 703.832 944.888 703.576C945.656 703.576 948.301 703.448 952.824 703.192C957.432 702.936 960.035 702.808 960.632 702.808C963.277 702.637 966.264 702.424 969.592 702.168C972.92 701.912 975.864 701.699 978.424 701.528C979.789 701.443 980.984 701.571 982.008 701.912C983.288 702.339 984.312 703.107 985.08 704.216C985.848 705.24 986.232 706.435 986.232 707.8C986.232 709.08 985.848 710.275 985.08 711.384C984.312 712.408 983.288 713.133 982.008 713.56C981.155 713.816 980.131 713.987 978.936 714.072C976.547 714.157 973.816 714.328 970.744 714.584C967.757 714.84 964.984 715.053 962.424 715.224Z" fill="#193759"/>
<path d="M1024.14 750.936C1026.02 761.176 1024.74 770.819 1020.3 779.864C1018.08 784.387 1015.14 788.013 1011.47 790.744C1007.38 793.816 1002.98 795.053 998.287 794.456C993.594 793.859 989.583 791.512 986.255 787.416C982.159 782.552 979.684 775.896 978.831 767.448C978.148 758.061 980.068 749.485 984.591 741.72C986.724 738.051 989.327 735.107 992.399 732.888C996.495 729.901 1000.8 728.707 1005.33 729.304C1009.94 729.901 1013.95 732.163 1017.36 736.088C1020.77 740.099 1023.03 745.048 1024.14 750.936ZM1009.42 775.896C1012.75 770.093 1014.07 763.395 1013.39 755.8C1013.05 753.581 1012.88 752.387 1012.88 752.216C1011.94 748.547 1010.53 745.688 1008.66 743.64C1005.84 740.568 1002.72 740.141 999.311 742.36C997.348 743.555 995.727 745.261 994.447 747.48C990.436 754.392 989.156 761.987 990.607 770.264C991.29 774.445 992.74 777.731 994.959 780.12C997.775 783.192 1000.93 783.619 1004.43 781.4C1006.31 780.205 1007.97 778.371 1009.42 775.896Z" fill="#193759"/>
<path d="M1476.3 1061.75C1476.39 1062.01 1477.63 1064.48 1480.02 1069.18C1480.95 1067.38 1481.47 1066.45 1481.55 1066.36C1483.94 1061.5 1486.25 1054.58 1488.46 1045.62C1489.49 1041.36 1493.29 1026.17 1499.86 1000.06C1500.2 998.947 1500.45 998.179 1500.62 997.752C1501.22 996.131 1502.25 994.979 1503.7 994.296C1505.15 993.613 1506.68 993.485 1508.3 993.912C1509.93 994.339 1511.16 995.277 1512.02 996.728C1512.87 998.179 1513.13 999.715 1512.78 1001.34C1512.53 1002.62 1512.06 1004.45 1511.38 1006.84C1510.78 1009.23 1510.44 1010.64 1510.35 1011.06C1503.01 1040.25 1499.22 1055.39 1498.96 1056.5C1497.42 1062.56 1495.16 1068.28 1492.18 1073.66C1490.73 1076.47 1489.15 1078.78 1487.44 1080.57C1485.56 1082.7 1483.39 1083.81 1480.91 1083.9C1478.44 1084.07 1476.09 1083.26 1473.87 1081.46C1472.68 1080.44 1471.57 1079.25 1470.54 1077.88C1467.56 1073.61 1465.38 1069.56 1464.02 1065.72C1459.58 1052.92 1456.21 1043.19 1453.9 1036.54C1453.48 1035.34 1452.75 1033.34 1451.73 1030.52C1450.7 1027.7 1449.89 1025.53 1449.3 1023.99C1447.16 1017.68 1445.11 1011.32 1443.15 1004.92C1442.81 1003.64 1442.73 1002.32 1442.9 1000.95C1443.15 998.733 1444.47 997.283 1446.86 996.6C1449.25 996.003 1451.17 996.685 1452.62 998.648C1453.14 999.245 1453.61 1000.1 1454.03 1001.21C1462.14 1022.54 1467.39 1036.49 1469.78 1043.06C1470.63 1045.2 1471.74 1048.35 1473.1 1052.54C1474.55 1056.72 1475.62 1059.79 1476.3 1061.75Z" fill="#193759"/>
<path d="M1532.04 1053.56C1532.47 1062.09 1532.81 1068.83 1533.07 1073.78C1533.15 1075.83 1533.19 1076.94 1533.19 1077.11C1533.11 1078.65 1532.47 1079.97 1531.27 1081.08C1530.16 1082.19 1528.84 1082.79 1527.31 1082.87C1525.68 1083.04 1524.23 1082.7 1522.95 1081.85C1521.67 1080.99 1520.82 1079.8 1520.39 1078.26C1520.14 1077.41 1519.97 1076.3 1519.88 1074.94C1519.54 1069.05 1519.24 1063.59 1518.99 1058.55C1518.64 1052.58 1518.99 1044.9 1520.01 1035.51C1520.1 1034.91 1520.18 1034.19 1520.27 1033.34C1520.35 1032.48 1520.44 1031.63 1520.52 1030.78C1520.61 1029.84 1520.69 1029.07 1520.78 1028.47C1520.95 1026.94 1521.5 1025.7 1522.44 1024.76C1523.47 1023.74 1524.75 1023.18 1526.28 1023.1C1527.82 1023.01 1529.14 1023.39 1530.25 1024.25C1531.36 1025.02 1532.04 1026.17 1532.3 1027.7C1532.55 1028.9 1532.68 1030.65 1532.68 1032.95C1532.6 1034.57 1532.38 1041.44 1532.04 1053.56ZM1533.71 1002.49C1534.39 1003.77 1534.73 1004.96 1534.73 1006.07C1534.73 1007.78 1534.47 1009.02 1533.96 1009.78C1533.36 1010.89 1532.47 1011.79 1531.27 1012.47C1530.68 1012.81 1529.44 1012.98 1527.56 1012.98C1526.45 1012.98 1525.3 1012.64 1524.11 1011.96C1523 1011.28 1522.14 1010.47 1521.55 1009.53C1520.95 1008.5 1520.65 1007.35 1520.65 1006.07C1520.65 1004.02 1520.78 1002.79 1521.03 1002.36C1521.38 1001.76 1522.36 1000.99 1523.98 1000.06C1525.43 999.203 1526.62 998.776 1527.56 998.776C1528.59 998.776 1529.74 999.16 1531.02 999.928C1532.13 1000.61 1533.02 1001.46 1533.71 1002.49Z" fill="#193759"/>
<path d="M1579.62 1061.11C1579.62 1061.28 1579.96 1062.69 1580.64 1065.34C1580.81 1067.9 1580.51 1070.29 1579.74 1072.5C1578.98 1074.72 1577.78 1076.73 1576.16 1078.52C1574.54 1080.23 1572.49 1081.68 1570.02 1082.87C1564.3 1085.52 1559.09 1086.37 1554.4 1085.43C1550.47 1084.66 1547.27 1082.91 1544.8 1080.18C1542.41 1077.45 1541.13 1074.17 1540.96 1070.33C1540.87 1067.68 1541.94 1065.59 1544.16 1064.06C1546.12 1062.69 1548.08 1062.43 1550.05 1063.29C1552.1 1064.06 1553.29 1065.51 1553.63 1067.64C1553.72 1067.9 1553.76 1068.28 1553.76 1068.79C1553.76 1069.3 1553.76 1069.69 1553.76 1069.94C1553.93 1070.88 1554.57 1071.78 1555.68 1072.63C1556.79 1073.4 1558.28 1073.74 1560.16 1073.66C1562.04 1073.57 1563.87 1072.8 1565.66 1071.35C1566.77 1070.58 1567.37 1069.22 1567.46 1067.26C1567.63 1065.21 1566.82 1063.33 1565.02 1061.62C1564.43 1061.2 1561.87 1059.49 1557.34 1056.5C1556.66 1056.08 1555.64 1055.44 1554.27 1054.58C1552.91 1053.65 1551.67 1052.83 1550.56 1052.15C1549.45 1051.47 1548.43 1050.74 1547.49 1049.98C1545.35 1048.27 1543.78 1046.14 1542.75 1043.58C1541.73 1041.02 1541.26 1038.54 1541.34 1036.15C1541.43 1033.68 1541.98 1031.37 1543.01 1029.24C1544.46 1026.25 1546.68 1023.91 1549.66 1022.2C1552.74 1020.49 1555.81 1019.51 1558.88 1019.26C1561.95 1019 1564.85 1019.13 1567.58 1019.64C1570.31 1020.15 1572.32 1020.92 1573.6 1021.94C1575.31 1023.05 1576.63 1024.59 1577.57 1026.55C1578.59 1028.51 1578.98 1030.43 1578.72 1032.31C1578.63 1033.08 1578.38 1033.76 1577.95 1034.36C1577.61 1034.96 1577.14 1035.47 1576.54 1035.9C1575.95 1036.32 1575.26 1036.62 1574.5 1036.79C1572.02 1037.3 1570.06 1036.58 1568.61 1034.62C1568.27 1034.1 1568.05 1033.72 1567.97 1033.46C1567.71 1032.27 1566.77 1031.37 1565.15 1030.78C1563.53 1030.09 1562.08 1029.75 1560.8 1029.75C1559.43 1029.75 1558.2 1030.18 1557.09 1031.03C1555.98 1031.89 1555.17 1032.91 1554.66 1034.1C1554.14 1035.38 1554.02 1036.71 1554.27 1038.07C1554.53 1039.35 1555.21 1040.38 1556.32 1041.14C1557.51 1042.08 1559.9 1043.66 1563.49 1045.88C1564 1046.22 1565.07 1046.86 1566.69 1047.8C1568.31 1048.65 1569.5 1049.38 1570.27 1049.98C1575.14 1053.39 1578.25 1057.1 1579.62 1061.11Z" fill="#193759"/>
<path d="M1614.6 1062.78C1613.74 1062.95 1611.57 1063.25 1608.07 1063.67C1604.65 1064.01 1602.86 1064.18 1602.69 1064.18C1602.52 1066.23 1602.86 1067.98 1603.72 1069.43C1604.65 1070.8 1605.85 1071.82 1607.3 1072.5C1608.84 1073.1 1610.46 1073.53 1612.16 1073.78C1613.96 1073.95 1615.62 1074 1617.16 1073.91C1618.69 1073.74 1619.93 1073.44 1620.87 1073.02C1625.56 1071.48 1628.8 1070.8 1630.6 1070.97C1632.47 1071.14 1633.84 1072.03 1634.69 1073.66C1635.97 1076.22 1635.2 1078.65 1632.39 1080.95C1628.8 1084.28 1621.38 1085.9 1610.12 1085.82C1604.31 1085.65 1599.62 1083.73 1596.04 1080.06C1592.54 1076.3 1590.15 1071.74 1588.87 1066.36C1586.82 1058.34 1586.56 1050.91 1588.1 1044.09C1589.64 1037.26 1593.22 1031.07 1598.85 1025.53C1599.02 1025.27 1599.83 1024.59 1601.28 1023.48C1603.25 1022.03 1605.64 1021.01 1608.45 1020.41C1611.35 1019.81 1614.3 1019.73 1617.28 1020.15C1620.36 1020.49 1623.21 1021.22 1625.86 1022.33C1628.59 1023.44 1630.85 1025.06 1632.64 1027.19C1634.44 1029.24 1635.42 1031.59 1635.59 1034.23C1636.1 1040.97 1634.69 1046.95 1631.36 1052.15C1627.86 1057.78 1622.28 1061.33 1614.6 1062.78ZM1621.89 1035C1621.04 1033.81 1619.76 1033.04 1618.05 1032.7C1616.43 1032.27 1614.64 1032.4 1612.68 1033.08C1610.8 1033.68 1608.96 1034.7 1607.17 1036.15C1605.46 1037.52 1604.1 1039.52 1603.08 1042.17C1602.05 1044.81 1601.62 1047.84 1601.8 1051.26C1603.25 1051.34 1605.38 1051.17 1608.2 1050.74C1611.01 1050.23 1613.02 1049.76 1614.21 1049.34C1616.94 1048.31 1618.99 1046.56 1620.36 1044.09C1621.81 1041.53 1622.32 1038.5 1621.89 1035Z" fill="#193759"/>
<path d="M1681.62 1024.12C1683.93 1026 1684.86 1028.09 1684.44 1030.39C1683.84 1033.29 1682.22 1034.96 1679.57 1035.38C1676.5 1034.96 1673.05 1036.07 1669.21 1038.71C1665.37 1041.36 1662.17 1045.41 1659.61 1050.87C1659.09 1052.49 1658.75 1056.29 1658.58 1062.26C1658.5 1068.24 1658.24 1072.67 1657.81 1075.58C1657.56 1076.94 1657.17 1078.18 1656.66 1079.29C1656.23 1080.23 1655.64 1080.99 1654.87 1081.59C1654.19 1082.19 1653.38 1082.62 1652.44 1082.87C1651.58 1083.04 1650.69 1083.04 1649.75 1082.87C1648.3 1082.7 1647.1 1082.15 1646.17 1081.21C1645.23 1080.18 1644.59 1078.95 1644.25 1077.5C1644.25 1077.07 1644.2 1076.51 1644.12 1075.83C1643.95 1061.5 1644.07 1051.26 1644.5 1045.11C1644.59 1044.51 1644.84 1039.31 1645.27 1029.5C1645.27 1029.41 1645.27 1029.15 1645.27 1028.73C1645.35 1028.3 1645.4 1028 1645.4 1027.83C1645.57 1026.13 1646.17 1024.76 1647.19 1023.74C1648.3 1022.71 1649.62 1022.2 1651.16 1022.2C1652.78 1022.2 1654.1 1022.71 1655.13 1023.74C1656.23 1024.76 1656.87 1026.13 1657.05 1027.83C1657.13 1028.34 1657.17 1028.9 1657.17 1029.5C1657.17 1030.09 1657.17 1030.78 1657.17 1031.54C1657.17 1032.23 1657.22 1032.74 1657.3 1033.08C1657.3 1033.17 1657.34 1034.06 1657.43 1035.77C1657.43 1035.85 1657.47 1035.9 1657.56 1035.9C1657.73 1035.9 1657.86 1035.94 1657.94 1036.02C1659.31 1034.15 1660.03 1033.17 1660.12 1033.08C1662.25 1030.18 1665.02 1027.62 1668.44 1025.4C1671.17 1023.61 1673.98 1022.71 1676.89 1022.71C1678.76 1022.71 1680.34 1023.18 1681.62 1024.12Z" fill="#193759"/>
<path d="M1704.58 1025.78C1704.58 1026.98 1704.32 1040.63 1703.81 1066.74C1703.81 1069.3 1703.68 1072.38 1703.43 1075.96C1703.34 1077.92 1702.7 1079.59 1701.51 1080.95C1700.4 1082.23 1698.99 1082.91 1697.28 1083C1695.58 1083.09 1694.08 1082.57 1692.8 1081.46C1691.52 1080.27 1690.75 1078.69 1690.5 1076.73C1690.33 1075.62 1690.24 1074.25 1690.24 1072.63C1691.01 1036.19 1691.48 1016.48 1691.65 1013.5C1691.74 1010.42 1692.12 1005.82 1692.8 999.672C1693.06 997.795 1693.78 996.301 1694.98 995.192C1696.17 994.083 1697.58 993.571 1699.2 993.656C1700.74 993.827 1702.02 994.552 1703.04 995.832C1704.15 997.112 1704.62 998.648 1704.45 1000.44C1704.36 1002.4 1704.32 1004.58 1704.32 1006.97C1704.32 1009.27 1704.32 1011.28 1704.32 1012.98C1704.32 1014.69 1704.36 1016.91 1704.45 1019.64C1704.54 1022.29 1704.58 1024.33 1704.58 1025.78Z" fill="#193759"/>
<path d="M1728.44 1027.19C1730.4 1025.83 1732.75 1024.76 1735.48 1023.99C1738.29 1023.22 1741.37 1023.18 1744.69 1023.86C1748.11 1024.46 1750.84 1026.08 1752.89 1028.73C1753.82 1026.77 1754.29 1025.74 1754.29 1025.66C1755.06 1024.38 1756.09 1023.48 1757.37 1022.97C1758.65 1022.46 1759.93 1022.41 1761.21 1022.84C1762.57 1023.27 1763.6 1024.08 1764.28 1025.27C1765.05 1026.38 1765.34 1027.7 1765.17 1029.24C1765.26 1047.84 1765.13 1063.29 1764.79 1075.58C1764.88 1076.6 1764.83 1077.54 1764.66 1078.39C1764.49 1080.01 1763.81 1081.38 1762.61 1082.49C1761.5 1083.51 1760.14 1084.07 1758.52 1084.15C1754.68 1084.32 1752.46 1082.96 1751.86 1080.06C1747.68 1082.02 1742.48 1083.09 1736.25 1083.26C1734.28 1083.34 1732.28 1083.21 1730.23 1082.87C1728.27 1082.45 1726.13 1081.55 1723.83 1080.18C1721.53 1078.82 1719.52 1077.03 1717.81 1074.81C1716.19 1072.59 1714.87 1069.52 1713.85 1065.59C1712.91 1061.58 1712.57 1056.97 1712.82 1051.77C1713.68 1046.14 1715.3 1041.53 1717.69 1037.94C1720.08 1034.27 1723.66 1030.69 1728.44 1027.19ZM1749.69 1065.08C1749.94 1063.8 1750.16 1061.41 1750.33 1057.91C1750.5 1054.33 1750.58 1050.66 1750.58 1046.9C1750.67 1043.06 1750.71 1040.97 1750.71 1040.63C1750.62 1038.75 1749.69 1037.3 1747.89 1036.28C1746.19 1035.26 1744.27 1034.79 1742.13 1034.87C1740 1034.96 1738.21 1035.47 1736.76 1036.41C1729.93 1041.1 1726.56 1048.06 1726.65 1057.27C1726.56 1065.38 1730.32 1070.07 1737.91 1071.35C1740.64 1071.78 1743.03 1071.39 1745.08 1070.2C1747.13 1068.92 1748.66 1067.21 1749.69 1065.08Z" fill="#193759"/>
<path d="M1790.34 1033.46C1790.34 1032.44 1790.94 1031.03 1792.13 1029.24C1794.95 1025.14 1799.56 1023.1 1805.96 1023.1C1806.98 1023.01 1807.92 1022.97 1808.77 1022.97C1809.71 1022.88 1811.08 1023.01 1812.87 1023.35C1814.75 1023.69 1816.32 1024.29 1817.6 1025.14C1818.97 1025.91 1820.38 1027.23 1821.83 1029.11C1823.36 1030.9 1824.47 1033.17 1825.16 1035.9C1825.84 1038.54 1826.14 1042.08 1826.05 1046.52C1825.97 1050.96 1825.37 1056.03 1824.26 1061.75C1823.07 1067.38 1819.78 1072.46 1814.4 1076.98C1809.03 1081.42 1803.44 1084.11 1797.64 1085.05C1794.39 1085.56 1791.32 1085.01 1788.42 1083.38C1787.48 1082.87 1785.77 1082.74 1783.3 1083C1781.76 1083.26 1780.4 1082.83 1779.2 1081.72C1778.09 1080.53 1777.45 1078.99 1777.28 1077.11C1777.11 1075.58 1776.69 1068.45 1776 1055.74C1775.24 1042 1775.19 1029.03 1775.88 1016.82C1775.96 1015.2 1776.13 1013.24 1776.39 1010.94C1776.73 1008.63 1776.94 1006.8 1777.03 1005.43C1777.11 1004.66 1777.16 1003.64 1777.16 1002.36C1777.16 1001.08 1777.2 1000.23 1777.28 999.8C1777.28 998.52 1777.67 997.411 1778.44 996.472C1779.2 995.533 1780.1 994.851 1781.12 994.424C1782.23 993.912 1783.39 993.656 1784.58 993.656C1787.48 993.656 1789.1 995.235 1789.44 998.392C1789.7 999.757 1789.79 1001.72 1789.7 1004.28C1789.7 1009.31 1789.79 1014.69 1789.96 1020.41C1790.21 1026.04 1790.34 1030.39 1790.34 1033.46ZM1791.49 1056.12C1791.32 1056.8 1791.32 1059.32 1791.49 1063.67C1791.66 1067.94 1791.66 1070.54 1791.49 1071.48C1793.71 1071.82 1795.08 1071.95 1795.59 1071.86C1799.43 1071.35 1802.46 1069.99 1804.68 1067.77C1808.17 1064.1 1810.56 1058.77 1811.84 1051.77C1813.21 1044.77 1812.57 1039.82 1809.92 1036.92C1808.9 1035.9 1807.62 1035.34 1806.08 1035.26C1804.55 1035.17 1802.93 1035.64 1801.22 1036.66C1799.6 1037.6 1798.06 1038.93 1796.61 1040.63C1795.16 1042.34 1793.92 1044.56 1792.9 1047.29C1791.96 1050.02 1791.49 1052.96 1791.49 1056.12Z" fill="#193759"/>
</svg>
