<svg width="58" height="58" viewBox="0 0 58 58" fill="none" xmlns="http://www.w3.org/2000/svg">
<g clip-path="url(#clip0_1_1140)">
<path d="M55.3945 46.2188H2.60547C1.66705 46.2188 0.90625 45.458 0.90625 44.5195V13.4805C0.90625 12.542 1.66705 11.7812 2.60547 11.7812H55.3945C56.333 11.7812 57.0938 12.542 57.0938 13.4805V44.5195C57.0938 45.458 56.333 46.2188 55.3945 46.2188Z" fill="#0087FF"/>
<path d="M51.7695 8.15625H6.23047C5.29205 8.15625 4.53125 8.91705 4.53125 9.85547V35.457C4.53125 36.3955 5.29205 37.1562 6.23047 37.1562H51.7695C52.708 37.1562 53.4688 36.3955 53.4688 35.457V9.85547C53.4688 8.91705 52.708 8.15625 51.7695 8.15625Z" fill="#FFC966"/>
<path d="M38.9688 29.9062H42.5938V37.1562H38.9688V29.9062Z" fill="#3E6B9C"/>
<path d="M53.4688 13.5938H4.53125V9.85547C4.53125 8.91705 5.29205 8.15625 6.23047 8.15625H51.7695C52.708 8.15625 53.4688 8.91705 53.4688 9.85547V13.5938Z" fill="#0087FF"/>
<path d="M42.0497 31.7188H39.5127C38.7117 31.7188 38.0624 31.0694 38.0624 30.2684V27.1875H43.4999V30.2684C43.5 31.0694 42.8507 31.7188 42.0497 31.7188Z" fill="#5D2825"/>
<path d="M38.0625 54.375H19.9375C22.1749 52.1376 23.0234 48.8631 22.1542 45.8207L21.75 44.4062H36.25L35.8458 45.8207C34.9766 48.8631 35.8251 52.1376 38.0625 54.375Z" fill="#5C9EE6"/>
<path d="M55.3945 46.2188H2.60547C1.66705 46.2188 0.90625 45.458 0.90625 44.5195V40.7812H57.0938V44.5195C57.0938 45.458 56.333 46.2188 55.3945 46.2188Z" fill="#1168B6"/>
<path d="M36.25 44.4062H21.75C21.2495 44.4062 20.8438 44.0005 20.8438 43.5C20.8438 42.9995 21.2495 42.5938 21.75 42.5938H36.25C36.7505 42.5938 37.1562 42.9995 37.1562 43.5C37.1562 44.0005 36.7505 44.4062 36.25 44.4062Z" fill="#FFC966"/>
<path d="M53.471 44.4062C52.9705 44.4062 52.5642 44.0005 52.5642 43.5C52.5642 42.9995 52.9694 42.5938 53.4699 42.5938H53.471C53.9715 42.5938 54.3773 42.9995 54.3773 43.5C54.3773 44.0005 53.9715 44.4062 53.471 44.4062Z" fill="#FFC966"/>
<path d="M50.7523 44.4062C50.2518 44.4062 49.8455 44.0005 49.8455 43.5C49.8455 42.9995 50.2507 42.5938 50.7511 42.5938H50.7523C51.2527 42.5938 51.6585 42.9995 51.6585 43.5C51.6585 44.0005 51.2527 44.4062 50.7523 44.4062Z" fill="#FFC966"/>
<path d="M48.0335 44.4062C47.533 44.4062 47.1267 44.0005 47.1267 43.5C47.1267 42.9995 47.5319 42.5938 48.0324 42.5938H48.0335C48.534 42.5938 48.9398 42.9995 48.9398 43.5C48.9398 44.0005 48.534 44.4062 48.0335 44.4062Z" fill="#FFC966"/>
<path d="M42.5938 57.0938H15.4062L16.8979 54.1104C17.0946 53.7172 17.4964 53.4688 17.936 53.4688H40.0638C40.5035 53.4688 40.9054 53.7172 41.1019 54.1104L42.5938 57.0938Z" fill="#1168B6"/>
<path d="M47.125 9.0625H45.3125V5.4375H50.75C50.75 7.43952 49.127 9.0625 47.125 9.0625Z" fill="#5D2825"/>
<path d="M47.125 15.4062H45.3125V11.7812H50.75C50.75 13.7833 49.127 15.4062 47.125 15.4062Z" fill="#5D2825"/>
<path d="M47.125 21.75H45.3125V18.125H50.75C50.75 20.127 49.127 21.75 47.125 21.75Z" fill="#5D2825"/>
<path d="M34.4375 9.0625H36.25V5.4375H30.8125C30.8125 7.43952 32.4355 9.0625 34.4375 9.0625Z" fill="#5D2825"/>
<path d="M34.4375 15.4062H36.25V11.7812H30.8125C30.8125 13.7833 32.4355 15.4062 34.4375 15.4062Z" fill="#5D2825"/>
<path d="M34.4375 21.75H36.25V18.125H30.8125C30.8125 20.127 32.4355 21.75 34.4375 21.75Z" fill="#5D2825"/>
<path d="M44.5195 28.0938H37.043C36.1045 28.0938 35.3438 27.333 35.3438 26.3945V2.60547C35.3438 1.66705 36.1045 0.90625 37.043 0.90625H44.5195C45.458 0.90625 46.2188 1.66705 46.2188 2.60547V26.3945C46.2188 27.333 45.458 28.0938 44.5195 28.0938Z" fill="#D7D6FB"/>
<path d="M40.7812 9.0625C42.2828 9.0625 43.5 7.84527 43.5 6.34375C43.5 4.84223 42.2828 3.625 40.7812 3.625C39.2797 3.625 38.0625 4.84223 38.0625 6.34375C38.0625 7.84527 39.2797 9.0625 40.7812 9.0625Z" fill="#EA342A"/>
<path d="M40.7812 17.2188C42.2828 17.2188 43.5 16.0015 43.5 14.5C43.5 12.9985 42.2828 11.7812 40.7812 11.7812C39.2797 11.7812 38.0625 12.9985 38.0625 14.5C38.0625 16.0015 39.2797 17.2188 40.7812 17.2188Z" fill="#FFC966"/>
<path d="M40.7812 25.375C42.2828 25.375 43.5 24.1578 43.5 22.6562C43.5 21.1547 42.2828 19.9375 40.7812 19.9375C39.2797 19.9375 38.0625 21.1547 38.0625 22.6562C38.0625 24.1578 39.2797 25.375 40.7812 25.375Z" fill="#05A05D"/>
<path d="M17.2188 13.5938H4.53125V9.85547C4.53125 8.91705 5.29205 8.15625 6.23047 8.15625H17.2188V13.5938Z" fill="#1168B6"/>
<path d="M8.15853 11.7812C7.65805 11.7812 7.25171 11.3755 7.25171 10.875C7.25171 10.3745 7.65692 9.96875 8.15739 9.96875H8.15853C8.659 9.96875 9.06478 10.3745 9.06478 10.875C9.06478 11.3755 8.659 11.7812 8.15853 11.7812Z" fill="white"/>
<path d="M10.8773 11.7812C10.3768 11.7812 9.97046 11.3755 9.97046 10.875C9.97046 10.3745 10.3757 9.96875 10.8761 9.96875H10.8773C11.3778 9.96875 11.7835 10.3745 11.7835 10.875C11.7835 11.3755 11.3778 11.7812 10.8773 11.7812Z" fill="white"/>
<path d="M13.596 11.7812C13.0955 11.7812 12.6892 11.3755 12.6892 10.875C12.6892 10.3745 13.0944 9.96875 13.5949 9.96875H13.596C14.0965 9.96875 14.5023 10.3745 14.5023 10.875C14.5023 11.3755 14.0965 11.7812 13.596 11.7812Z" fill="white"/>
<path d="M8.15627 24.4688C7.92439 24.4688 7.69239 24.3803 7.51544 24.2033C7.16144 23.8493 7.16144 23.2757 7.51544 22.9217L10.2342 20.2029C10.5881 19.8491 11.1619 19.8491 11.5157 20.2029L12.6875 21.3747L15.6717 18.3904C16.0256 18.0366 16.5994 18.0366 16.9532 18.3904L19.0313 20.4685L22.9217 16.5779C23.2756 16.2241 23.8494 16.2241 24.2032 16.5779C24.5572 16.9319 24.5572 17.5056 24.2032 17.8596L19.672 22.3908C19.3181 22.7446 18.7443 22.7446 18.3904 22.3908L16.3125 20.3128L13.3284 23.2971C12.9745 23.6509 12.4007 23.6509 12.0468 23.2971L10.875 22.1253L8.79711 24.2033C8.62016 24.3803 8.38816 24.4688 8.15627 24.4688Z" fill="white"/>
<path d="M8.15625 29.9062H11.7812V37.1562H8.15625V29.9062Z" fill="#5D2825"/>
<path d="M14.5 26.2812H18.125V37.1562H14.5V26.2812Z" fill="#4C83BF"/>
<path d="M20.8438 28.0938H24.4688V37.1562H20.8438V28.0938Z" fill="#E6625C"/>
<path d="M27.1875 23.5625H30.8125V37.1562H27.1875V23.5625Z" fill="#3E6B9C"/>
</g>
<defs>
<clipPath id="clip0_1_1140">
<rect width="58" height="58" fill="white"/>
</clipPath>
</defs>
</svg>
