<svg width="60" height="60" viewBox="0 0 60 60" fill="none" xmlns="http://www.w3.org/2000/svg">
<path d="M59.9121 35.7424C59.8369 35.5804 59.717 35.4433 59.5664 35.3472C59.4159 35.2511 59.2411 35.1999 59.0625 35.1998H53.3496V15.2135C53.3496 14.6955 52.9301 14.276 52.4121 14.276H39.4723C35.1633 9.71855 29.1363 7.1123 22.8656 7.1123C10.2574 7.1123 0 17.3803 0 30.0014C0 42.6213 10.2574 52.8881 22.8645 52.8881C29.107 52.8881 35.059 50.3311 39.3633 45.8393L45.0211 52.5553C45.1094 52.6595 45.2192 52.7434 45.343 52.801C45.4668 52.8587 45.6017 52.8888 45.7383 52.8893C46.0148 52.8893 46.2773 52.7674 46.4555 52.5564L53.1188 44.651L59.7785 36.7432C59.894 36.6065 59.9679 36.4396 59.9916 36.2623C60.0152 36.085 59.9877 35.9046 59.9121 35.7424Z" fill="#FDCF66"/>
<path d="M59.9108 35.7428C59.8356 35.5808 59.7157 35.4437 59.5652 35.3476C59.4146 35.2514 59.2398 35.2003 59.0612 35.2002H53.3483V15.2139C53.3483 14.6959 52.9288 14.2764 52.4108 14.2764H39.0643C38.5464 14.2764 38.1268 14.6959 38.1268 15.2139V35.2014H32.4175C32.053 35.2014 31.7214 35.4123 31.5679 35.7439C31.4143 36.0756 31.4659 36.4646 31.7003 36.7436L38.36 44.6514L45.0198 52.5568C45.1081 52.6611 45.2179 52.7449 45.3417 52.8026C45.4655 52.8603 45.6004 52.8904 45.737 52.8908C46.0136 52.8908 46.2761 52.7689 46.4542 52.558L53.1175 44.6525L59.7772 36.7447C60.0128 36.4635 60.0655 36.0732 59.9108 35.7428Z" fill="#0087FF"/>
<path d="M38.3613 44.6498L36.375 42.292C32.9121 46.11 28.05 48.2791 22.8645 48.2791C12.7969 48.2791 4.60664 40.0795 4.60664 30.0025C4.60664 19.9256 12.7969 11.726 22.8645 11.726C26.6437 11.726 30.2707 12.8721 33.3527 15.0412C35.2594 16.383 36.8707 18.0529 38.127 19.9666V15.2135C38.127 14.6955 38.5465 14.276 39.0645 14.276H39.4711C35.1621 9.71855 29.1352 7.1123 22.8645 7.1123C10.2574 7.1123 0 17.3803 0 30.0014C0 42.6213 10.2574 52.8881 22.8645 52.8881C29.107 52.8881 35.059 50.3311 39.3633 45.8393L38.3613 44.6498Z" fill="#FCEE56"/>
<path d="M36.3738 42.2918L31.6992 36.7418C31.4648 36.4629 31.4121 36.0727 31.5668 35.7422C31.7215 35.4117 32.052 35.1996 32.4164 35.1996H38.1258V19.9652C36.8695 18.0504 35.2582 16.3816 33.3516 15.0398C30.2695 12.8707 26.6426 11.7246 22.8633 11.7246V48.2789C28.0488 48.2789 32.9109 46.1098 36.3738 42.2918Z" fill="#F3D802"/>
<path d="M33.3516 15.0402C35.2582 16.382 36.8695 18.052 38.1258 19.9656V15.2125C38.1258 14.6945 38.5453 14.275 39.0633 14.275H39.4699C35.1609 9.71758 29.134 7.11133 22.8633 7.11133V11.7238C26.6437 11.725 30.2707 12.8711 33.3516 15.0402ZM39.3621 45.8395L38.3602 44.65L36.3738 42.2922C32.9109 46.1102 28.0488 48.2793 22.8633 48.2793V52.8883C29.107 52.8883 35.059 50.3313 39.3621 45.8395Z" fill="#FBA615"/>
<path d="M26.784 30.3518C25.9121 29.7764 24.8621 29.4811 23.8027 29.2432V22.2764C25.5641 22.6396 26.8777 24.0014 26.8777 25.6232C26.8777 26.1412 27.2973 26.5607 27.8152 26.5607C28.3332 26.5607 28.7527 26.1412 28.7527 25.6232C28.7527 22.9795 26.6047 20.7811 23.8027 20.3744V18.5498C23.8027 18.0318 23.3832 17.6123 22.8652 17.6123C22.3473 17.6123 21.9277 18.0318 21.9277 18.5498V20.3744C19.1258 20.7811 16.9777 22.9795 16.9777 25.6232C16.9777 27.4338 17.6398 28.7885 18.9453 29.6498C19.8172 30.2252 20.8672 30.5205 21.9266 30.7584V37.7252C20.1652 37.3619 18.8516 36.0002 18.8516 34.3783C18.8516 33.8604 18.432 33.4408 17.9141 33.4408C17.3961 33.4408 16.9766 33.8604 16.9766 34.3783C16.9766 37.0221 19.1246 39.2205 21.9266 39.6271V41.4518C21.9266 41.9697 22.3461 42.3893 22.8641 42.3893C23.382 42.3893 23.8016 41.9697 23.8016 41.4518V39.6271C26.6035 39.2205 28.7516 37.0221 28.7516 34.3783C28.7516 32.5678 28.0895 31.2131 26.784 30.3518ZM18.8527 25.6221C18.8527 24.0014 20.1664 22.6385 21.9277 22.2752V28.8283C19.9496 28.3396 18.8527 27.708 18.8527 25.6221ZM23.8016 37.7252V31.1721C25.7785 31.6619 26.8766 32.2924 26.8766 34.3783C26.8766 35.999 25.5629 37.3619 23.8016 37.7252Z" fill="#FBA615"/>
<path d="M23.8035 41.4518V39.6271C26.6055 39.2205 28.7535 37.0221 28.7535 34.3783C28.7535 32.5678 28.0914 31.2131 26.7859 30.3518C25.9141 29.7764 24.8641 29.4811 23.8047 29.2432V22.2764C25.566 22.6396 26.8797 24.0014 26.8797 25.6232C26.8797 26.1412 27.2992 26.5607 27.8172 26.5607C28.3352 26.5607 28.7547 26.1412 28.7547 25.6232C28.7547 22.9795 26.6066 20.7811 23.8047 20.3744V18.5498C23.8047 18.0318 23.3852 17.6123 22.8672 17.6123V42.3904C23.1157 42.3898 23.3539 42.2906 23.5294 42.1147C23.7049 41.9387 23.8035 41.7003 23.8035 41.4518ZM23.8035 31.1721C25.7805 31.6619 26.8785 32.2924 26.8785 34.3783C26.8785 35.999 25.5648 37.3619 23.8035 37.7252V31.1721Z" fill="#FBA615"/>
<path d="M59.0641 35.2002H53.3512V15.2139C53.3512 14.6959 52.9316 14.2764 52.4137 14.2764H45.7422V52.8896C45.8784 52.8897 46.013 52.8599 46.1365 52.8024C46.2599 52.7449 46.3694 52.6611 46.457 52.5568L53.1203 44.6514L59.7801 36.7436C60.0144 36.4646 60.0672 36.0744 59.9125 35.7439C59.7578 35.4135 59.4285 35.2002 59.0641 35.2002Z" fill="#323FD4"/>
</svg>
