<svg preserveAspectRatio="none" width="100%" height="100%" overflow="visible" style="display: block;" viewBox="0 0 44 32" fill="none" xmlns="http://www.w3.org/2000/svg">
<g id="artwork">
<g clip-path="url(#clip0_0_32)">
<rect width="44" height="32" rx="4" fill="var(--fill-0, #249F58)"/>
<path id="vector" d="M39.8095 0H4.19048C1.87614 0 0 1.91025 0 4.26667V27.7333C0 30.0898 1.87614 32 4.19048 32H39.8095C42.1239 32 44 30.0898 44 27.7333V4.26667C44 1.91025 42.1239 0 39.8095 0Z" fill="var(--fill-0, #249F58)"/>
<path id="vector_2" d="M20 26C25.5228 26 30 21.5228 30 16C30 10.4772 25.5228 6 20 6C14.4772 6 10 10.4772 10 16C10 21.5228 14.4772 26 20 26Z" fill="var(--fill-0, #F93939)"/>
</g>
</g>
<defs>
<clipPath id="clip0_0_32">
<rect width="44" height="32" rx="4" fill="white"/>
</clipPath>
</defs>
</svg>
