<svg width="55" height="55" viewBox="0 0 55 55" fill="none" xmlns="http://www.w3.org/2000/svg">
<path d="M27.5 14.7417V52.5375C27.5 53.4526 26.7581 54.1943 25.8431 54.1943H24.2902C23.5775 54.1943 22.9408 53.7486 22.6969 53.0789L21.0162 48.4632C21.0162 48.4632 10.7449 49.7034 11.7906 38.4092C11.7906 38.4092 2.44199 33.8493 8.30926 23.4746C8.30926 23.4746 6.50597 12.7418 18.5418 12.1367C18.5418 12.1367 20.8906 8.94921 24.2893 10.1339C26.2314 10.8109 27.5 12.6851 27.5 14.7417Z" fill="#0087FF"/>
<path d="M24.2895 10.1341C23.0095 9.68795 21.8786 9.86197 20.9658 10.2522C22.7359 11.0107 23.8741 12.7941 23.8741 14.7418V52.5376C23.8741 53.0631 23.6286 53.5307 23.2469 53.8341C23.5385 54.0619 23.9028 54.1944 24.2903 54.1944H25.8432C26.7582 54.1944 27.5001 53.4526 27.5001 52.5376V14.7417C27.5001 12.6851 26.2315 10.8109 24.2895 10.1341Z" fill="#0F7DDE"/>
<path d="M27.5 14.7417V52.5375C27.5 53.4526 28.2419 54.1943 29.1569 54.1943H30.7098C31.4225 54.1943 32.0592 53.7486 32.303 53.0789L33.9838 48.4632C33.9838 48.4632 44.255 49.7034 43.2094 38.4092C43.2094 38.4092 52.558 33.8493 46.6907 23.4746C46.6907 23.4746 48.5029 12.7418 36.4669 12.1367C36.4669 12.1367 34.1093 8.94921 30.7106 10.1339C28.7685 10.8109 27.5 12.6851 27.5 14.7417Z" fill="#0087FF"/>
<path d="M46.6904 23.4747C46.6904 23.4747 48.5026 12.742 36.4667 12.1368C36.4667 12.1368 34.1091 8.94932 30.7104 10.134C30.3917 10.245 30.0916 10.3889 29.8118 10.56C30.9572 11.2269 31.6304 12.1368 31.6304 12.1368C42.0149 10.3263 41.477 19.9787 41.477 19.9787C49.5076 33.4693 38.4166 38.982 38.4166 38.982C39.0125 45.4185 35.1825 48.1673 33.9834 48.4633C33.9834 48.4633 44.2546 49.7035 43.209 38.4093C43.209 38.4093 52.5577 33.8493 46.6904 23.4747Z" fill="#0F7DDE"/>
<path d="M30.2961 49.2273L28.8936 53.0789C28.7661 53.4291 28.5305 53.7172 28.2334 53.9132C28.4972 54.0907 28.8149 54.1943 29.1567 54.1943H30.7096C31.4223 54.1943 32.059 53.7486 32.3029 53.0789L33.9836 48.4632H31.3874C30.8993 48.4633 30.4632 48.7685 30.2961 49.2273Z" fill="#0F7DDE"/>
<path d="M35.5704 16.4906C35.5704 10.9395 32.9269 6.44854 27.358 6.5261C21.9855 6.60086 17.603 10.9894 17.5352 16.362C17.5061 18.6657 18.2592 20.7924 19.5453 22.4936C20.88 24.2591 21.6374 26.3931 21.6374 28.6063C21.6374 29.7331 22.5508 30.6466 23.6776 30.6466H31.3222C32.4489 30.6466 33.3625 29.7332 33.3625 28.6063V28.5999C33.3625 26.4324 34.0477 24.3072 35.3768 22.595C36.6859 20.9086 35.5704 18.7908 35.5704 16.4906Z" fill="#FFB725"/>
<path d="M27.3581 6.52599C26.7665 6.53426 26.187 6.59485 25.6238 6.70323C30.2257 7.58474 33.7033 11.6314 33.7033 16.4904C33.7033 18.7907 32.9237 20.9086 31.6147 22.5949C30.2856 24.307 29.6003 26.4322 29.6003 28.5998V28.6062C29.6003 29.733 28.6869 30.6465 27.5601 30.6465H31.3222C32.4489 30.6465 33.3625 29.7331 33.3625 28.6062V28.5998C33.3625 26.4323 34.0477 24.3071 35.3768 22.5949C36.686 20.9085 37.4654 18.7906 37.4654 16.4904C37.4655 10.9395 32.927 6.44854 27.3581 6.52599Z" fill="#FEDF30"/>
<path d="M31.126 30.6465H23.874V34.797C23.874 35.9579 24.8151 36.899 25.9761 36.899H29.0238C30.1847 36.899 31.1259 35.9579 31.1259 34.797V30.6465H31.126Z" fill="#7CA1B1"/>
<path d="M28.2046 30.6466V34.797C28.2046 35.9579 27.2634 36.8991 26.1025 36.8991H29.0239C30.1848 36.8991 31.1259 35.958 31.1259 34.797V30.6466H28.2046Z" fill="#678D98"/>
<path d="M27.5 45.8952V36.899" stroke="black" stroke-miterlimit="10" stroke-linecap="round" stroke-linejoin="round"/>
<path d="M18.5453 12.1322C18.5431 12.1354 18.542 12.1365 18.542 12.1365C6.50649 12.7424 8.30903 23.4749 8.30903 23.4749C2.44165 33.8497 11.7906 38.4098 11.7906 38.4098C10.7454 49.703 21.016 48.4634 21.016 48.4634L22.6971 53.0793C22.941 53.7485 23.5769 54.1943 24.2902 54.1943H25.8435C26.7577 54.1943 27.5 53.452 27.5 52.5379V49.6679" stroke="black" stroke-miterlimit="10" stroke-linecap="round" stroke-linejoin="round"/>
<path d="M11.7908 38.4093C11.7908 38.4093 15.0926 39.6978 18.3944 38.4093" stroke="black" stroke-miterlimit="10" stroke-linecap="round" stroke-linejoin="round"/>
<path d="M8.30933 23.4747C8.30933 23.4747 10.1223 20.4822 13.5226 19.9788" stroke="black" stroke-miterlimit="10" stroke-linecap="round" stroke-linejoin="round"/>
<path d="M21.0163 48.4633L19.8171 45.0912" stroke="black" stroke-miterlimit="10" stroke-linecap="round" stroke-linejoin="round"/>
<path d="M36.4644 12.1333C36.4654 12.1344 36.4665 12.1354 36.4665 12.1365C48.5031 12.7424 46.6909 23.4749 46.6909 23.4749C52.5583 33.8497 43.2094 38.4098 43.2094 38.4098C44.2546 49.703 33.984 48.4634 33.984 48.4634L32.3028 53.0793C32.059 53.7485 31.423 54.1943 30.7098 54.1943H29.1564C28.2423 54.1943 27.5 53.452 27.5 52.5379" stroke="black" stroke-miterlimit="10" stroke-linecap="round" stroke-linejoin="round"/>
<path d="M43.2091 38.4093C43.2091 38.4093 39.9073 39.6978 36.6055 38.4093" stroke="black" stroke-miterlimit="10" stroke-linecap="round" stroke-linejoin="round"/>
<path d="M46.6906 23.4747C46.6906 23.4747 44.8776 20.4822 41.4773 19.9788" stroke="black" stroke-miterlimit="10" stroke-linecap="round" stroke-linejoin="round"/>
<path d="M33.9836 48.4633L35.1828 45.0912" stroke="black" stroke-miterlimit="10" stroke-linecap="round" stroke-linejoin="round"/>
<path d="M36.4666 12.137C34.8312 8.77497 31.3608 6.47034 27.358 6.52599C21.9855 6.60075 17.603 10.9893 17.5352 16.3619C17.5061 18.6656 18.2592 20.7923 19.5453 22.4935C20.88 24.259 21.6374 26.393 21.6374 28.6062C21.6374 29.733 22.5508 30.6465 23.6776 30.6465H31.3222C32.4489 30.6465 33.3625 29.7331 33.3625 28.6062V28.5998C33.3625 26.4323 34.0477 24.3071 35.3768 22.5949C36.686 20.9085 37.4654 18.7907 37.4654 16.4904C37.4654 16.2842 37.4592 16.0793 37.4468 15.8762" stroke="black" stroke-miterlimit="10" stroke-linecap="round" stroke-linejoin="round"/>
<path d="M31.126 30.6465H23.874V34.7969C23.874 35.9579 24.8151 36.899 25.9761 36.899H29.0238C30.1847 36.899 31.1259 35.9579 31.1259 34.7969V30.6465H31.126Z" stroke="black" stroke-miterlimit="10" stroke-linecap="round" stroke-linejoin="round"/>
<path d="M27.4503 12.0715L25.2285 18.5237H29.7712L27.8103 25.1" stroke="black" stroke-miterlimit="10" stroke-linecap="round" stroke-linejoin="round"/>
<path d="M15.6821 6.64436L17.2193 7.66519" stroke="black" stroke-miterlimit="10" stroke-linecap="round" stroke-linejoin="round"/>
<path d="M20.79 2.00642L21.8093 3.79478" stroke="black" stroke-miterlimit="10" stroke-linecap="round" stroke-linejoin="round"/>
<path d="M39.318 6.64436L37.7808 7.66519" stroke="black" stroke-miterlimit="10" stroke-linecap="round" stroke-linejoin="round"/>
<path d="M34.2099 2.00642L33.1907 3.79478" stroke="black" stroke-miterlimit="10" stroke-linecap="round" stroke-linejoin="round"/>
<path d="M27.5 2.86322V0.805664" stroke="black" stroke-miterlimit="10" stroke-linecap="round" stroke-linejoin="round"/>
<path d="M22.4012 39.8983C22.4012 39.8983 16.2151 40.3697 17.3934 33.2408" stroke="black" stroke-miterlimit="10" stroke-linecap="round" stroke-linejoin="round"/>
<path d="M32.5986 39.8993C32.5986 39.8993 38.7847 40.3706 37.6064 33.2418" stroke="black" stroke-miterlimit="10" stroke-linecap="round" stroke-linejoin="round"/>
</svg>
