<svg width="55" height="55" viewBox="0 0 55 55" fill="none" xmlns="http://www.w3.org/2000/svg">
<g clip-path="url(#clip0_1_726)">
<path d="M55 27.5001C55 42.6875 42.6876 55 27.5002 55.0001C12.3495 55.0002 -0.000107421 42.6506 7.00791e-10 27.4999C0.000107423 12.3125 12.3126 0.00012207 27.5 0.00012207C34.0464 0.00012207 40.059 2.28853 44.7814 6.10781C44.9938 6.27957 45.3025 6.26045 45.4955 6.06731L46.9508 4.61153C47.4343 4.12781 48.2626 4.40377 48.3594 5.08085L49.6876 14.3732C49.7659 14.9209 49.2963 15.3905 48.7486 15.3123L39.4561 13.9848C38.779 13.8882 38.5029 13.0599 38.9865 12.5763L39.8307 11.7321C40.0622 11.5006 40.0356 11.1161 39.7725 10.9212C36.3432 8.37871 32.0967 6.87458 27.5 6.87458C16.1528 6.87458 6.99145 15.9378 6.87543 27.2844C6.75651 38.9107 16.2597 48.3468 27.9101 48.1206C38.867 47.9078 48.0535 38.5967 48.125 27.6381C48.1355 26.0187 47.9599 24.4429 47.6172 22.93C47.519 22.4967 47.7866 22.0643 48.2158 21.9492L53.2541 20.5986C53.7047 20.4777 54.1697 20.7512 54.2761 21.2055C54.7492 23.2269 55 25.3344 55 27.5001Z" fill="#EFA818"/>
<path d="M54.2762 21.2054C54.1698 20.7511 53.7048 20.4777 53.2542 20.5985L48.2159 21.9491C47.7868 22.0641 47.5192 22.4965 47.6174 22.9299C47.9406 24.357 48.1153 25.8401 48.1252 27.3629C48.1686 34.0471 44.9887 40.0426 40.0412 43.852C35.0134 49.3432 27.7856 52.7868 19.7537 52.7868C18.5414 52.7868 17.3472 52.7077 16.1758 52.5546C19.632 54.1248 23.4668 55.0001 27.5002 55.0001C42.6877 55.0001 55.0001 42.6876 55.0001 27.5001C55.0001 25.3344 54.7493 23.2269 54.2762 21.2054Z" fill="#FFB725"/>
<path d="M25.3152 10.7597L16.0554 11.472C13.6064 11.6604 11.6605 13.6063 11.4721 16.0553L10.8149 24.5984L10.0986 26.6865C9.70652 27.8294 10.3797 29.0624 11.5532 29.3506L12.5906 29.6053L31.153 48.1677C32.4916 49.5062 34.6619 49.5062 36.0006 48.1677L48.1677 36.0005C49.5063 34.6619 49.5063 32.4916 48.1677 31.1529L29.2185 12.2036C28.1905 11.1756 26.7647 10.6482 25.3152 10.7597ZM21.8237 20.9435C21.7071 21.1123 15.6365 20.0711 15.5684 19.2946C15.4827 18.3172 15.8139 17.31 16.5621 16.5619C17.9045 15.2194 20.081 15.2194 21.4235 16.5619C22.6156 17.7541 22.749 19.6041 21.8237 20.9435Z" fill="#0087FF"/>
<path d="M48.1677 31.1529L29.2185 12.2036C28.1906 11.1756 26.7647 10.6482 25.3152 10.7597L22.8198 10.9517C23.6048 11.1852 24.3292 11.6112 24.9216 12.2037L40.546 27.8281C43.7209 31.0029 43.7209 36.1505 40.546 39.3254L31.7037 48.1677C31.6154 48.256 31.5235 48.3385 31.4284 48.4151C32.7744 49.5005 34.7503 49.4179 36.0006 48.1677L48.1677 36.0005C49.5063 34.6618 49.5063 32.4915 48.1677 31.1529Z" fill="#0875D6"/>
<path d="M18.9926 18.9926C18.2057 18.7818 16.9761 18.6651 15.5683 19.2946C15.6364 20.0711 15.9675 20.829 16.5618 21.4233C16.9964 21.8578 17.5183 22.1517 18.071 22.3049C18.0816 22.3074 18.0922 22.3101 18.1028 22.3129C19.9366 22.8043 20.4273 26.9191 19.1989 31.5035C17.9706 36.088 15.4882 39.4061 13.6544 38.9148C11.8206 38.4234 11.3299 34.3086 12.5582 29.7242C12.5689 29.6844 12.5796 29.6448 12.5905 29.6053L12.2035 29.2183C11.1756 28.1904 10.6482 26.7646 10.7596 25.315L10.8147 24.5983C10.1821 25.8803 9.64344 27.3205 9.23781 28.8344C7.89021 33.8635 7.81952 40.91 12.7646 42.2351C17.7082 43.5597 21.1708 37.4256 22.5192 32.3932C23.867 27.3641 23.9376 20.3177 18.9926 18.9926Z" fill="#FEDBBD"/>
<path d="M37.8016 28.1224C36.9323 31.1704 36.9323 34.4119 37.8016 37.4599C37.8609 37.6676 37.6694 37.8592 37.4616 37.8001C34.4122 36.9321 31.1706 36.9321 28.1226 37.8016C27.9148 37.8609 27.7232 37.6693 27.7824 37.4616C28.6505 34.4121 28.6505 31.1703 27.7824 28.1209C27.7232 27.9132 27.9148 27.7216 28.1226 27.7809C31.1706 28.6503 34.4122 28.6504 37.4616 27.7823C37.6694 27.7231 37.8609 27.9147 37.8016 28.1224Z" fill="#FED402"/>
</g>
<defs>
<clipPath id="clip0_1_726">
<rect width="55" height="55" fill="white"/>
</clipPath>
</defs>
</svg>
