<svg width="55" height="55" viewBox="0 0 55 55" fill="none" xmlns="http://www.w3.org/2000/svg">
<path d="M40.0858 42.312L35.4764 37.7549C34.847 37.1255 34.847 36.1058 35.4764 35.4764C36.1058 34.847 37.1256 34.847 37.755 35.4764L42.3643 40.0335C42.9937 40.6628 42.9937 41.6826 42.3643 42.312C41.7348 42.9414 40.7152 42.9414 40.0858 42.312Z" fill="#FFBE40"/>
<path d="M17.2451 19.5236L12.7384 15.074C12.109 14.4446 12.109 13.4248 12.7384 12.7955C13.3678 12.1661 14.3875 12.1661 15.0169 12.7955L19.5236 17.2451C20.153 17.8745 20.153 18.8942 19.5236 19.5236C18.8942 20.153 17.8746 20.1531 17.2451 19.5236Z" fill="#FFDF40"/>
<path d="M12.6356 42.312C12.0062 41.6826 12.0062 40.6628 12.6356 40.0335L17.245 35.4764C17.8744 34.847 18.8941 34.847 19.5235 35.4764C20.1529 36.1058 20.1529 37.1255 19.5235 37.7549L14.9141 42.312C14.2848 42.9414 13.2651 42.9414 12.6356 42.312Z" fill="#FFDF40"/>
<path d="M35.4764 19.5236C34.847 18.8942 34.847 17.8745 35.4764 17.2451L40.0335 12.6365C40.6629 12.0071 41.6826 12.0071 42.312 12.6365C42.9414 13.2659 42.9414 14.2856 42.312 14.915L37.755 19.5236C37.1256 20.153 36.1058 20.1531 35.4764 19.5236Z" fill="#FFBE40"/>
<path d="M27.5 48.5547C26.6094 48.5547 25.8887 47.834 25.8887 46.9434V40.3906C25.8887 39.5 26.6094 38.7793 27.5 38.7793C28.3906 38.7793 29.1113 39.5 29.1113 40.3906V46.9434C29.1113 47.834 28.3906 48.5547 27.5 48.5547Z" fill="#FFDF40"/>
<path d="M29.1113 46.9434V40.3906C29.1113 39.5 28.3906 38.7793 27.5 38.7793V48.5547C28.3906 48.5547 29.1113 47.834 29.1113 46.9434Z" fill="#FFBE40"/>
<path d="M34.4757 31.5314C34.9225 30.762 34.6598 29.7753 33.8903 29.3284C33.1145 28.8784 32.1311 29.1443 31.6873 29.9138C30.8218 31.4072 29.2167 32.334 27.5 32.334V35.5567C30.3624 35.5567 33.0343 34.0146 34.4757 31.5314Z" fill="#E1E6F0"/>
<path d="M31.6872 25.0861C32.1341 25.8556 33.1191 26.1247 33.8902 25.6715C34.6597 25.2246 34.9224 24.2379 34.4755 23.4685C33.0343 20.9854 30.3624 19.4434 27.5 19.4434V22.666C29.2167 22.666 30.8218 23.5929 31.6872 25.0861Z" fill="#E1E6F0"/>
<path d="M27.5 16.2207C26.6094 16.2207 25.8887 15.5 25.8887 14.6094V8.05664C25.8887 7.16601 26.6094 6.44531 27.5 6.44531C28.3906 6.44531 29.1113 7.16601 29.1113 8.05664V14.6094C29.1113 15.5 28.3906 16.2207 27.5 16.2207Z" fill="#FFDF40"/>
<path d="M29.1113 14.6094V8.05664C29.1113 7.16601 28.3906 6.44531 27.5 6.44531V16.2207C28.3906 16.2207 29.1113 15.5 29.1113 14.6094Z" fill="#FFBE40"/>
<path d="M14.6094 29.1113H8.05664C7.16601 29.1113 6.44531 28.3906 6.44531 27.5C6.44531 26.6094 7.16601 25.8887 8.05664 25.8887H14.6094C15.5 25.8887 16.2207 26.6094 16.2207 27.5C16.2207 28.3906 15.5 29.1113 14.6094 29.1113Z" fill="#FFDF40"/>
<path d="M46.9434 29.1113H40.3906C39.5 29.1113 38.7793 28.3906 38.7793 27.5C38.7793 26.6094 39.5 25.8887 40.3906 25.8887H46.9434C47.834 25.8887 48.5547 26.6094 48.5547 27.5C48.5547 28.3906 47.834 29.1113 46.9434 29.1113Z" fill="#FFBE40"/>
<path d="M27.5 42.002C19.5032 42.002 12.998 35.4968 12.998 27.5C12.998 19.5032 19.5032 12.998 27.5 12.998C35.4968 12.998 42.002 19.5032 42.002 27.5C42.002 35.4968 35.4968 42.002 27.5 42.002Z" fill="#3370EC"/>
<path d="M42.002 27.5C42.002 19.5032 35.4968 12.998 27.5 12.998V42.002C35.4968 42.002 42.002 35.4968 42.002 27.5Z" fill="#0087FF"/>
<path d="M27.5 35.5566C23.0578 35.5566 19.4434 31.9422 19.4434 27.5C19.4434 23.0578 23.0578 19.4434 27.5 19.4434C30.3624 19.4434 33.0343 20.9854 34.4757 23.4686C34.9225 24.238 34.6598 25.2247 33.8903 25.6716C33.1192 26.1248 32.1342 25.8557 31.6873 25.0862C30.8218 23.5929 29.2167 22.666 27.5 22.666C24.8344 22.666 22.666 24.8344 22.666 27.5C22.666 30.1656 24.8344 32.334 27.5 32.334C29.2167 32.334 30.8218 31.4071 31.6872 29.9139C32.131 29.1444 33.1144 28.8784 33.8902 29.3285C34.6597 29.7754 34.9224 30.7621 34.4755 31.5315C33.0343 34.0146 30.3624 35.5566 27.5 35.5566Z" fill="#F3F5F9"/>
<path d="M34.4757 31.5314C34.9225 30.762 34.6598 29.7753 33.8903 29.3284C33.1145 28.8784 32.1311 29.1443 31.6873 29.9138C30.8218 31.4072 29.2167 32.334 27.5 32.334V35.5567C30.3624 35.5567 33.0343 34.0146 34.4757 31.5314Z" fill="#E1E6F0"/>
<path d="M31.6872 25.0861C32.1341 25.8556 33.1191 26.1247 33.8902 25.6715C34.6597 25.2246 34.9224 24.2379 34.4755 23.4685C33.0343 20.9854 30.3624 19.4434 27.5 19.4434V22.666C29.2167 22.666 30.8218 23.5929 31.6872 25.0861Z" fill="#E1E6F0"/>
<path d="M40.0857 46.869C38.2006 44.9839 38.2006 41.9186 40.0857 40.0335C41.9709 38.1483 45.0362 38.1483 46.9213 40.0335C48.8065 41.9186 48.8065 44.9839 46.9213 46.869C45.038 48.7522 41.9709 48.7542 40.0857 46.869Z" fill="#FFBE40"/>
<path d="M8.18144 15.074C6.29629 13.1888 6.29629 10.1235 8.18144 8.23838C10.0666 6.35324 13.1319 6.35324 15.017 8.23838C16.9022 10.1235 16.9022 13.1888 15.017 15.074C13.1337 16.9573 10.0666 16.9591 8.18144 15.074Z" fill="#FFDF40"/>
<path d="M8.07865 46.869C6.19351 44.9839 6.19351 41.9186 8.07865 40.0335C9.9638 38.1483 13.0291 38.1483 14.9142 40.0335C16.7994 41.9186 16.7994 44.9839 14.9142 46.869C13.0309 48.7522 9.96369 48.7542 8.07865 46.869Z" fill="#FFDF40"/>
<path d="M40.0335 14.915C38.1483 13.0298 38.1483 9.96456 40.0335 8.07942C41.9186 6.19427 44.9839 6.19427 46.8691 8.07942C48.7542 9.96456 48.7542 13.0298 46.8691 14.915C44.9857 16.7982 41.9186 16.8001 40.0335 14.915Z" fill="#FFBE40"/>
<path d="M27.5 55C24.8344 55 22.666 52.8316 22.666 50.166C22.666 47.5004 24.8344 45.332 27.5 45.332C30.1656 45.332 32.334 47.5004 32.334 50.166C32.334 52.8316 30.1656 55 27.5 55Z" fill="#FFDF40"/>
<path d="M32.334 50.166C32.334 47.5004 30.1656 45.332 27.5 45.332V55C30.1656 55 32.334 52.8316 32.334 50.166Z" fill="#FFBE40"/>
<path d="M27.5 9.66797C24.8344 9.66797 22.666 7.49955 22.666 4.83398C22.666 2.16842 24.8344 0 27.5 0C30.1656 0 32.334 2.16842 32.334 4.83398C32.334 7.49955 30.1656 9.66797 27.5 9.66797Z" fill="#FFDF40"/>
<path d="M32.334 4.83398C32.334 2.16842 30.1656 0 27.5 0V9.66797C30.1656 9.66797 32.334 7.49955 32.334 4.83398Z" fill="#FFBE40"/>
<path d="M4.83398 32.334C2.16842 32.334 0 30.1656 0 27.5C0 24.8344 2.16842 22.666 4.83398 22.666C7.49955 22.666 9.66797 24.8344 9.66797 27.5C9.66797 30.1656 7.49955 32.334 4.83398 32.334Z" fill="#FFDF40"/>
<path d="M50.166 32.334C47.5004 32.334 45.332 30.1656 45.332 27.5C45.332 24.8344 47.5004 22.666 50.166 22.666C52.8316 22.666 55 24.8344 55 27.5C55 30.1656 52.8316 32.334 50.166 32.334Z" fill="#FFBE40"/>
</svg>
