<svg width="54" height="54" viewBox="0 0 54 54" fill="none" xmlns="http://www.w3.org/2000/svg">
<path d="M20.8481 33.0342C9.33399 33.0342 0 30.1179 0 26.5205V39.0678C2.92623 41.7884 11.1544 43.7482 20.8481 43.7482C30.5419 43.7482 38.77 41.7884 41.6962 39.0678V26.5205C41.6962 30.1179 32.3621 33.0342 20.8481 33.0342Z" fill="#80B4FB"/>
<path d="M11.2126 32.2978C4.54918 31.2107 0 29.0317 0 26.5205V39.0678C1.88293 40.8184 5.96141 42.2538 11.2126 43.0549V32.2978Z" fill="#0290F4"/>
<path d="M20.8481 11.4905C9.33399 11.4905 0 10.113 0 6.51562V16.8732C0 20.4705 9.33399 23.3867 20.8481 23.3867C32.3622 23.3867 41.6962 20.4705 41.6962 16.8732V6.51562C41.6962 10.113 32.3621 11.4905 20.8481 11.4905Z" fill="#80B4FB"/>
<path d="M11.2126 11.0903C4.54918 10.456 0 9.02684 0 6.51562V16.8732C0 19.3844 4.54918 21.5633 11.2126 22.6503V11.0903Z" fill="#0290F4"/>
<path d="M20.8481 43.3916C9.33399 43.3916 0 40.4753 0 36.8779V46.9988C0 50.5961 9.33399 53.5124 20.8481 53.5124C32.3622 53.5124 41.6962 50.5961 41.6962 46.9988V36.8779C41.6961 40.4753 32.3621 43.3916 20.8481 43.3916Z" fill="#9DC6FB"/>
<path d="M11.2126 42.6552C4.54918 41.5681 0 39.3891 0 36.8779V46.9988C0 49.51 4.54918 51.689 11.2126 52.776V42.6552Z" fill="#80B4FB"/>
<path d="M20.8481 23.1493C9.33399 23.1493 0 20.2331 0 16.6357V26.7565C0 30.3539 9.33399 33.2702 20.8481 33.2702C32.3622 33.2702 41.6962 30.354 41.6962 26.7565V16.6357C41.6961 20.2331 32.3621 23.1493 20.8481 23.1493Z" fill="#9DC6FB"/>
<path d="M11.2126 22.4129C4.54918 21.3258 0 19.147 0 16.6357V26.7565C0 29.2677 4.54918 31.4467 11.2126 32.5338V22.4129Z" fill="#80B4FB"/>
<path d="M20.8481 13.029C32.3622 13.029 41.6962 10.1128 41.6962 6.51549C41.6962 2.91816 32.3622 0.00195312 20.8481 0.00195312C9.33402 0.00195312 0 2.91816 0 6.51549C0 10.1128 9.33402 13.029 20.8481 13.029Z" fill="#BED8FB"/>
<path d="M9.54756 6.5157C9.54756 4.03887 11.7784 1.80599 15.3511 0.231445C6.50436 0.985125 0 3.51289 0 6.5157C0 9.5186 6.50436 12.0464 15.3511 12.7999C11.7784 11.2254 9.54756 8.99252 9.54756 6.5157Z" fill="#9DC6FB"/>
<path d="M41.6974 24.6048C48.4919 24.6048 53.9998 19.0968 53.9998 12.3024C53.9998 5.50797 48.4919 0 41.6974 0C34.903 0 29.395 5.50797 29.395 12.3024C29.395 19.0968 34.903 24.6048 41.6974 24.6048Z" fill="#FFE181"/>
<path d="M35.2262 12.3024C35.2262 6.51259 39.2261 1.65786 44.613 0.348469C43.6782 0.121289 42.7021 0 41.6974 0C34.903 0 29.395 5.508 29.395 12.3024C29.395 19.0968 34.903 24.6048 41.6974 24.6048C42.7021 24.6048 43.6782 24.4835 44.613 24.2563C39.2261 22.947 35.2262 18.0922 35.2262 12.3024Z" fill="#FEC458"/>
<path d="M34.9162 10.665C34.8241 10.665 34.7305 10.6493 34.639 10.6162C34.2157 10.4631 33.9968 9.99594 34.1499 9.5728C35.2958 6.40483 38.329 4.27637 41.6976 4.27637C44.323 4.27637 46.7868 5.56498 48.2881 7.7234C48.5451 8.09286 48.4539 8.6008 48.0845 8.85772C47.7149 9.11464 47.2072 9.02341 46.9502 8.65406C45.7533 6.93334 43.7897 5.90607 41.6976 5.90607C39.013 5.90607 36.5957 7.60232 35.6825 10.127C35.5626 10.4587 35.2496 10.665 34.9162 10.665Z" fill="#FF656F"/>
<path d="M41.6974 20.3288C38.9821 20.3288 36.4715 18.9707 34.9815 16.696C34.7349 16.3196 34.8401 15.8145 35.2166 15.5679C35.593 15.3213 36.0982 15.4264 36.3448 15.803C37.5326 17.6164 39.5336 18.6991 41.6974 18.6991C44.3831 18.6991 46.8008 17.0019 47.7134 14.4757C47.8664 14.0523 48.3335 13.8335 48.7567 13.9861C49.18 14.139 49.3991 14.606 49.2462 15.0293C48.1011 18.199 45.0674 20.3288 41.6974 20.3288Z" fill="#FF656F"/>
<path d="M48.723 11.88L45.6839 9.61264C45.4679 9.45148 45.5146 9.11546 45.7664 9.01938L49.5596 7.57087C49.8114 7.47479 50.0701 7.69406 50.0165 7.95815L49.2623 11.674C49.2124 11.9197 48.9239 12.0299 48.723 11.88Z" fill="#FF656F"/>
<path d="M34.5537 12.6199L37.5927 14.8872C37.8087 15.0484 37.762 15.3844 37.5102 15.4805L33.717 16.929C33.4652 17.0251 33.2064 16.8058 33.2601 16.5417L34.0143 12.8259C34.0642 12.5802 34.3527 12.47 34.5537 12.6199Z" fill="#FF656F"/>
<path d="M47.3911 8.86963C47.2458 8.76131 47.2218 8.57495 47.2967 8.43457L45.7668 9.01876C45.5151 9.11484 45.4684 9.45087 45.6844 9.61202L48.7233 11.8794C48.9243 12.0293 49.2129 11.9192 49.2627 11.6734L49.5108 10.4511L47.3911 8.86963Z" fill="#FF4756"/>
<path d="M35.0664 15.9169L35.5802 13.3857L34.5536 12.6199C34.3527 12.47 34.0642 12.5802 34.0143 12.8259L33.2601 16.5417C33.2064 16.8058 33.4652 17.0252 33.717 16.929L35.3202 16.3168C35.1528 16.2752 35.0276 16.1081 35.0664 15.9169Z" fill="#FF4756"/>
</svg>
