<svg width="60" height="60" viewBox="0 0 60 60" fill="none" xmlns="http://www.w3.org/2000/svg">
<path d="M30.0812 35.3344C39.0166 35.3344 46.2602 28.0908 46.2602 19.1555C46.2602 10.2201 39.0166 2.97656 30.0812 2.97656C21.1459 2.97656 13.9023 10.2201 13.9023 19.1555C13.9023 28.0908 21.1459 35.3344 30.0812 35.3344Z" fill="white"/>
<path d="M50.9175 58.7348L50.1392 59.3504L42.7312 57.143C42.4843 57.0695 42.2245 57.0502 41.9696 57.0865C41.886 57.0985 41.803 55.9091 41.7214 55.9329L40.1584 57.5287L30.5052 59.9283C30.1771 60.0242 29.8285 60.0237 29.5006 59.9272L18.3937 57.1414C18.0641 57.0442 17.7134 57.0443 17.3839 57.1416L14.6878 57.9377L13.8371 56.9816L12.8798 58.4716L7.87585 59.9491C6.97597 60.2147 6.13714 59.383 6.39495 58.4809L9.80816 46.5425C9.85573 46.3761 9.93904 46.2221 10.0523 46.0912C10.1655 45.9603 10.3059 45.8557 10.4637 45.7846L17.0407 42.8238L17.2858 43.9207C17.6748 43.7457 18.1136 43.7157 18.5228 43.8363L18.8588 42.728L29.5003 45.8635C29.8282 45.96 30.1769 45.9605 30.505 45.8647L41.5892 42.6282C42.0003 42.5081 42.4409 42.54 42.8305 42.7178L44.3311 43.4029L45.7134 45.2411L46.1402 44.2287L46.1664 44.2407L48.3388 45.7836C48.4953 45.855 48.6344 45.9595 48.7466 46.0899C48.8588 46.2203 48.9413 46.3735 48.9886 46.5388L52.4011 57.2676C52.6594 58.1709 51.8179 59.003 50.9175 58.7348Z" fill="#0087FF"/>
<path d="M52.123 59.9416L50.1443 59.3512C50.2784 59.0977 50.323 58.7899 50.2325 58.4748L46.1641 44.2402L49.5443 45.7831C49.701 45.8546 49.8403 45.9591 49.9526 46.0896C50.0649 46.2201 50.1476 46.3733 50.195 46.5389L53.6066 58.4749C53.865 59.3779 53.0236 60.2096 52.123 59.9416Z" fill="#323FD4"/>
<path d="M30.0011 0.361825C29.1547 0.361825 28.3266 0.0524498 27.5191 0.154403C14.3147 1.8214 6.56384 16.6278 13.4824 28.6109L27.5166 52.9191L28.5054 53.4247C29.1703 54.576 30.8321 54.576 31.4968 53.4247L45.3127 28.6109C52.6544 15.8948 44.6845 0.361825 30.0011 0.361825ZM30.0011 32.9029C22.1954 32.9029 15.8675 26.575 15.8675 18.7693C15.8675 10.9635 22.1954 4.63565 30.0011 4.63565C37.8069 4.63565 44.1347 10.9635 44.1347 18.7693C44.1347 26.575 37.807 32.9029 30.0011 32.9029Z" fill="#FBC700"/>
<path d="M30.0001 0C29.1526 0 28.3245 0.0530859 27.5156 0.15457C36.4034 1.27852 42.8187 8.35418 43.9535 16.5139C44.0735 17.2601 44.1337 18.0146 44.1334 18.7703C44.1334 18.8029 44.1334 18.8343 44.1322 18.8668V18.8705C44.1732 22.1191 43.368 25.4632 41.5499 28.6117L27.5156 52.9195L28.5043 54.6326C29.1695 55.7831 30.8307 55.7831 31.4959 54.6326L46.5189 28.6117C53.8601 15.8958 44.6838 0 30.0001 0Z" fill="#FFE02F"/>
<path d="M34.8206 25.3981H25.1859C24.1858 25.3981 23.375 24.5874 23.375 23.5872V13.9525C23.375 12.9524 24.1857 12.1416 25.1859 12.1416H27.8452L29.6089 13.3489L32.1611 12.1416H34.8205C35.8205 12.1416 36.6314 12.9523 36.6314 13.9525V23.5872C36.6315 24.5873 35.8207 25.3981 34.8206 25.3981Z" fill="#0087FF"/>
<path d="M31.5699 16.8474L30.1993 16.0255C30.139 15.9894 30.07 15.9703 29.9997 15.9703C29.9293 15.9703 29.8603 15.9894 29.8 16.0255L28.4295 16.8474C28.1708 17.0025 27.8417 16.8161 27.8417 16.5145V12.1416H32.1577V16.5145C32.1577 16.8162 31.8287 17.0025 31.5699 16.8474ZM18.8568 42.7281V47.8022C18.8564 48.1842 18.7756 48.5617 18.6196 48.9103C18.4636 49.2589 18.236 49.5708 17.9514 49.8256L14.9877 52.4791C14.8927 52.564 14.8168 52.668 14.7648 52.7843C14.7128 52.9006 14.6859 53.0266 14.6859 53.1539V57.9371L12.875 58.4719V53.1539C12.8752 52.7718 12.956 52.394 13.112 52.0452C13.268 51.6964 13.4957 51.3843 13.7804 51.1294L16.7442 48.4759C16.8391 48.3912 16.915 48.2874 16.967 48.1714C17.019 48.0553 17.0459 47.9295 17.0459 47.8023V42.8213L17.2837 42.7138C17.6728 42.5387 18.1118 42.5087 18.5211 42.6293L18.8568 42.7281ZM46.1382 44.2287V47.8021C46.1381 48.1842 46.0573 48.562 45.901 48.9107C45.7448 49.2593 45.5166 49.5711 45.2315 49.8255L42.2689 52.4789C42.174 52.5639 42.098 52.6679 42.046 52.7842C41.994 52.9005 41.9672 53.0264 41.9671 53.1538V57.0858C41.8838 57.0979 41.8005 57.1161 41.7196 57.1402L40.1563 57.5289V53.1538C40.1565 52.7718 40.2372 52.3942 40.3929 52.0454C40.5487 51.6966 40.7762 51.3844 41.0605 51.1293L44.0254 48.4758C44.1203 48.3911 44.1962 48.2873 44.2482 48.1713C44.3002 48.0552 44.3271 47.9294 44.3272 47.8022V43.403L46.1382 44.2287Z" fill="#F8EFF4"/>
</svg>
