<svg width="60" height="60" viewBox="0 0 60 60" fill="none" xmlns="http://www.w3.org/2000/svg">
<g clip-path="url(#clip0_208_1602)">
<path d="M55.6902 0.9375H7.21301C6.31891 0.938493 5.46172 1.2941 4.82948 1.92631C4.19725 2.55853 3.84161 3.41571 3.84059 4.3098V18.9424L2.43117 20.3517C2.27936 20.5035 2.18423 20.7027 2.16166 20.9162C2.1391 21.1296 2.19047 21.3444 2.30719 21.5245L2.84625 22.356L2.64996 22.8281L1.67988 23.0345C1.46989 23.0792 1.28159 23.1946 1.14647 23.3614C1.01134 23.5283 0.937576 23.7364 0.9375 23.9511V26.2929C0.937516 26.5076 1.01124 26.7158 1.14635 26.8827C1.28145 27.0496 1.46975 27.1651 1.67977 27.2098L2.64937 27.4162L2.84602 27.8906L2.30777 28.719C2.19083 28.899 2.13921 29.1138 2.16154 29.3273C2.18387 29.5408 2.2788 29.7401 2.43047 29.8921L3.84059 31.3051V39.5463H3.61559C2.90563 39.5471 2.22497 39.8294 1.72292 40.3314C1.22086 40.8334 0.9384 41.514 0.9375 42.2239V48.472C0.938306 49.1821 1.22072 49.8628 1.72278 50.3648C2.22485 50.8669 2.90556 51.1493 3.61559 51.1501H5.1859L6.45949 58.2896C6.49816 58.5064 6.61186 58.7026 6.78068 58.8439C6.9495 58.9852 7.16266 59.0626 7.38281 59.0625H10.548C10.7967 59.0625 11.0351 58.9637 11.211 58.7879C11.3868 58.6121 11.4855 58.3736 11.4855 58.125V51.1741C14.5105 51.3162 17.1973 52.168 19.6587 53.7653V54.5873C19.6592 55.0913 19.8597 55.5745 20.2161 55.9308C20.5724 56.2872 21.0556 56.4876 21.5596 56.4881H22.8721C23.3756 56.4871 23.8581 56.2864 24.2138 55.9301C24.5695 55.5737 24.7693 55.0908 24.7695 54.5873V51.0074H31.0887V54.4902H29.2559C29.0072 54.4902 28.7688 54.589 28.5929 54.7648C28.4171 54.9406 28.3184 55.1791 28.3184 55.4277C28.3184 55.6763 28.4171 55.9148 28.5929 56.0906C28.7688 56.2664 29.0072 56.3652 29.2559 56.3652H56.8161C57.0648 56.3652 57.3032 56.2664 57.479 56.0906C57.6549 55.9148 57.7536 55.6763 57.7536 55.4277C57.7536 55.1791 57.6549 54.9406 57.479 54.7648C57.3032 54.589 57.0648 54.4902 56.8161 54.4902H54.9833V51.0074H55.6902C56.5838 51.0067 57.4406 50.6516 58.0728 50.02C58.705 49.3885 59.0609 48.532 59.0625 47.6384V4.3098C59.0615 3.41572 58.7059 2.55854 58.0737 1.92632C57.4415 1.29411 56.5843 0.938493 55.6902 0.9375ZM38.1025 51.0074H39.5291V54.4902H38.1025V51.0074ZM46.5429 54.4902V51.0074H47.9726V54.4902H46.5429Z" fill="#F1F1FB"/>
<path d="M43.5305 31.1649H32.3903V30.5312C32.3903 30.2826 32.2915 30.0442 32.1157 29.8683C31.9399 29.6925 31.7015 29.5938 31.4528 29.5938C31.2042 29.5938 30.9657 29.6925 30.7899 29.8683C30.6141 30.0442 30.5153 30.2826 30.5153 30.5312V31.1649H19.375C19.1264 31.1649 18.8879 31.2637 18.7121 31.4395C18.5363 31.6153 18.4375 31.8537 18.4375 32.1024C18.4375 32.351 18.5363 32.5895 18.7121 32.7653C18.8879 32.9411 19.1264 33.0399 19.375 33.0399H30.5153V33.6769C30.5153 33.9256 30.6141 34.164 30.7899 34.3398C30.9657 34.5156 31.2042 34.6144 31.4528 34.6144C31.7015 34.6144 31.9399 34.5156 32.1157 34.3398C32.2915 34.164 32.3903 33.9256 32.3903 33.6769V33.0399H43.5305C43.7791 33.0399 44.0176 32.9411 44.1934 32.7653C44.3692 32.5895 44.468 32.351 44.468 32.1024C44.468 31.8537 44.3692 31.6153 44.1934 31.4395C44.0176 31.2637 43.7791 31.1649 43.5305 31.1649Z" fill="#0087FF" fill-opacity="0.56"/>
<path d="M43.5305 14.0381H19.375C18.8572 14.0381 18.4375 14.4578 18.4375 14.9756V27.9004C18.4375 28.4182 18.8572 28.8379 19.375 28.8379H43.5305C44.0483 28.8379 44.468 28.4182 44.468 27.9004V14.9756C44.468 14.4578 44.0483 14.0381 43.5305 14.0381Z" fill="#FF6969"/>
<path d="M19.6094 27.9004V14.9756C19.6094 14.7269 19.7081 14.4885 19.884 14.3127C20.0598 14.1369 20.2982 14.0381 20.5469 14.0381H19.375C19.1264 14.0381 18.8879 14.1369 18.7121 14.3127C18.5363 14.4885 18.4375 14.7269 18.4375 14.9756V27.9004C18.4375 28.1491 18.5363 28.3875 18.7121 28.5633C18.8879 28.7392 19.1264 28.8379 19.375 28.8379H20.5469C20.2982 28.8379 20.0598 28.7392 19.884 28.5633C19.7081 28.3875 19.6094 28.1491 19.6094 27.9004Z" fill="#F75E5E"/>
<path d="M16.0313 23.0338L15.0623 22.8277L14.8677 22.3567L15.4068 21.5247C15.5236 21.3444 15.575 21.1295 15.5523 20.9159C15.5296 20.7023 15.4343 20.5029 15.2822 20.3512L13.6247 18.6971C13.4727 18.5454 13.2733 18.4506 13.0598 18.4283C12.8463 18.406 12.6316 18.4576 12.4516 18.5746L11.6232 19.1127L11.1493 18.9161L10.943 17.9465C10.8983 17.7364 10.7828 17.5481 10.6159 17.413C10.449 17.2778 10.2407 17.2041 10.026 17.2041H7.68457C7.46981 17.2041 7.26156 17.2778 7.09465 17.413C6.92773 17.5481 6.81227 17.7364 6.76758 17.9465L6.56121 18.9167L6.08953 19.1127L5.25809 18.5737C5.07797 18.457 4.86326 18.4056 4.64982 18.4281C4.43639 18.4507 4.23715 18.5458 4.08539 18.6975L2.43117 20.3514C2.27936 20.5032 2.18423 20.7024 2.16166 20.9159C2.1391 21.1293 2.19047 21.3441 2.30719 21.5242L2.84625 22.3557L2.64996 22.8278L1.67988 23.0342C1.46989 23.0789 1.28159 23.1943 1.14647 23.3611C1.01134 23.528 0.937576 23.7361 0.9375 23.9508V26.2926C0.937516 26.5073 1.01124 26.7155 1.14635 26.8824C1.28145 27.0493 1.46975 27.1647 1.67977 27.2095L2.64938 27.4159L2.84602 27.8903L2.30777 28.7187C2.19083 28.8987 2.13921 29.1134 2.16154 29.3269C2.18387 29.5405 2.2788 29.7398 2.43047 29.8918L4.08469 31.5489C4.23644 31.7009 4.43578 31.7962 4.64937 31.8188C4.86296 31.8415 5.07785 31.7901 5.25809 31.6732L6.09012 31.1342L6.56098 31.3289L6.76711 32.2977C6.81181 32.5078 6.92727 32.6961 7.09418 32.8313C7.26109 32.9664 7.46934 33.0401 7.6841 33.0401H10.0264C10.2412 33.0401 10.4494 32.9664 10.6163 32.8313C10.7832 32.6962 10.8986 32.5079 10.9433 32.2979L11.1496 31.3294L11.6228 31.1342L12.452 31.6732C12.6321 31.7903 12.847 31.842 13.0607 31.8196C13.2743 31.7972 13.4738 31.7021 13.6257 31.5502L15.2834 29.8926C15.4353 29.7407 15.5304 29.5412 15.5529 29.3275C15.5753 29.1139 15.5237 28.899 15.4066 28.7188L14.8676 27.8894L15.0627 27.4163L16.0313 27.21C16.2413 27.1653 16.4296 27.0499 16.5647 26.883C16.6998 26.7161 16.7735 26.5079 16.7735 26.2932V23.9508C16.7735 23.7361 16.6998 23.5278 16.5647 23.3609C16.4296 23.194 16.2413 23.0785 16.0313 23.0338ZM8.85645 27.1787C8.44994 27.1787 8.05255 27.0582 7.71455 26.8324C7.37655 26.6065 7.11311 26.2855 6.95755 25.9099C6.80198 25.5344 6.76128 25.1211 6.84059 24.7224C6.91989 24.3237 7.11565 23.9575 7.40309 23.67C7.69054 23.3826 8.05677 23.1868 8.45547 23.1075C8.85417 23.0282 9.26743 23.0689 9.643 23.2245C10.0186 23.3801 10.3396 23.6435 10.5654 23.9815C10.7913 24.3195 10.9118 24.7169 10.9118 25.1234C10.9109 25.6682 10.6941 26.1905 10.3088 26.5758C9.92358 26.9611 9.40129 27.1779 8.85645 27.1787Z" fill="#0087FF"/>
<path d="M59.0618 4.3098C59.0608 3.41572 58.7051 2.55854 58.0729 1.92632C57.4407 1.29411 56.5835 0.938493 55.6894 0.9375H7.21227C6.31817 0.938493 5.46097 1.2941 4.82874 1.92631C4.19651 2.55853 3.84087 3.41571 3.83984 4.3098V11.4023H20.4393C20.5942 11.4023 20.7467 11.364 20.8832 11.2906C21.0196 11.2173 21.1357 11.1113 21.2212 10.9821L22.8133 8.57566H59.0618V4.3098Z" fill="#006DF0"/>
<path d="M24.769 41.6219V36.1055C24.768 35.602 24.5673 35.1195 24.211 34.7638C23.8547 34.408 23.3718 34.2082 22.8683 34.208H21.5596C21.056 34.2081 20.5731 34.4079 20.2167 34.7637C19.8604 35.1194 19.6597 35.602 19.6587 36.1055V36.9279C16.9516 38.6875 13.9659 39.546 10.548 39.546H3.61559C2.90557 39.5468 2.22486 39.8292 1.72279 40.3312C1.22072 40.8333 0.938306 41.514 0.9375 42.224V48.4721C0.938306 49.1821 1.22072 49.8628 1.72278 50.3649C2.22485 50.8669 2.90556 51.1493 3.61559 51.1502H5.1859L6.45949 58.2897C6.49816 58.5064 6.61186 58.7026 6.78068 58.8439C6.9495 58.9852 7.16266 59.0626 7.38281 59.0625H10.548C10.7967 59.0625 11.0351 58.9638 11.211 58.788C11.3868 58.6121 11.4855 58.3737 11.4855 58.125V51.1742C14.5105 51.3162 17.1973 52.168 19.6587 53.7653V54.5874C19.6592 55.0914 19.8597 55.5745 20.2161 55.9309C20.5724 56.2872 21.0556 56.4876 21.5596 56.4882H22.8721C23.3756 56.4871 23.8581 56.2864 24.2138 55.9301C24.5695 55.5738 24.7693 55.0909 24.7695 54.5874V49.0708C25.5991 48.862 26.3352 48.3822 26.8612 47.7075C27.3871 47.0328 27.6727 46.2018 27.6727 45.3463C27.6727 44.4908 27.3871 43.6599 26.8612 42.9852C26.3352 42.3104 25.5991 41.8307 24.7695 41.6219H24.769Z" fill="#0087FF"/>
<path d="M22.8698 34.208H21.5611C21.0575 34.2081 20.5746 34.4079 20.2182 34.7637C19.8618 35.1195 19.6611 35.6021 19.6602 36.1056V54.5875C19.6607 55.0915 19.8612 55.5746 20.2175 55.931C20.5739 56.2873 21.0571 56.4878 21.5611 56.4883H22.8736C23.377 56.4873 23.8596 56.2866 24.2153 55.9302C24.571 55.5739 24.7708 55.091 24.7709 54.5875V36.1056C24.77 35.602 24.5693 35.1194 24.2128 34.7636C23.8564 34.4079 23.3734 34.208 22.8698 34.208Z" fill="#0087FF"/>
<path d="M24.2732 55.3302H22.9607C22.4568 55.3295 21.9737 55.1291 21.6174 54.7727C21.2611 54.4164 21.0607 53.9333 21.0601 53.4294V34.9473C21.0604 34.7063 21.1069 34.4676 21.1972 34.2441C20.7651 34.3284 20.3756 34.5601 20.0953 34.8996C19.815 35.239 19.6612 35.6653 19.6602 36.1055V54.5874C19.6607 55.0914 19.8612 55.5746 20.2175 55.9309C20.5739 56.2872 21.0571 56.4877 21.5611 56.4882H22.8736C23.2524 56.4875 23.6224 56.3735 23.936 56.1608C24.2496 55.9482 24.4924 55.6466 24.6332 55.2949C24.5146 55.3181 24.3941 55.3299 24.2732 55.3302Z" fill="#006DF0"/>
<path d="M11.5206 39.5195C11.1998 39.5355 10.8761 39.5459 10.5479 39.5459H3.61559C2.90555 39.5467 2.22482 39.8291 1.72275 40.3311C1.22068 40.8332 0.938275 41.514 0.9375 42.224V48.4721C0.938306 49.1821 1.22072 49.8628 1.72278 50.3649C2.22485 50.8669 2.90556 51.1493 3.61559 51.1502H10.5668C10.8888 51.1502 11.2059 51.1604 11.5206 51.1758V39.5195Z" fill="#006DF0"/>
<path d="M4.77363 49.4135C4.06361 49.4127 3.38289 49.1303 2.88083 48.6282C2.37877 48.1261 2.09635 47.4454 2.09555 46.7354V40.4872C2.09557 40.3201 2.11127 40.1534 2.14242 39.9893C1.77228 40.233 1.46843 40.5648 1.25813 40.9549C1.04783 41.345 0.937656 41.7812 0.9375 42.2244V48.4725C0.938306 49.1825 1.22072 49.8632 1.72278 50.3653C2.22485 50.8673 2.90556 51.1497 3.61559 51.1505H10.5668C10.8888 51.1505 11.2059 51.1607 11.5206 51.1762V49.4135H4.77363Z" fill="#004FAC"/>
<path d="M10.5684 51.1504H5.1875L6.46109 58.2899C6.49976 58.5067 6.61346 58.7029 6.78228 58.8442C6.9511 58.9855 7.16426 59.0629 7.38441 59.0628H10.5496C10.7983 59.0628 11.0367 58.964 11.2126 58.7882C11.3884 58.6124 11.4871 58.3739 11.4871 58.1253V51.1743C11.1811 51.1592 10.8748 51.1512 10.5684 51.1504Z" fill="#0087FF"/>
<path d="M7.11887 52.9715C7.09768 52.8524 7.10286 52.7301 7.13404 52.6132C7.16521 52.4964 7.22163 52.3877 7.29932 52.295C7.37701 52.2023 7.47408 52.1277 7.5837 52.0765C7.69332 52.0254 7.81282 51.9989 7.93379 51.9989H11.4871V51.1748C11.1839 51.1606 10.8785 51.1514 10.5684 51.1514H5.1875L6.46109 58.2909C6.49993 58.5075 6.61371 58.7035 6.78251 58.8446C6.95131 58.9858 7.16438 59.0631 7.38441 59.0629H8.2059L7.11887 52.9715Z" fill="#004FAC"/>
<path d="M19.6576 53.7652V45.3654C19.3552 50.1115 11.5195 49.4126 11.5195 49.4126V51.1759C14.5302 51.3229 17.2058 52.1738 19.6576 53.7652ZM26.9447 47.5908C24.8217 46.6432 24.7679 44.6729 24.7679 44.6729V49.0708C25.6448 48.8483 26.4154 48.3244 26.9447 47.5908Z" fill="#006DF0"/>
<path d="M3.83984 4.3098V11.4023H6.18359V4.3098C6.18459 3.41574 6.54018 2.55857 7.17237 1.92636C7.80456 1.29415 8.66172 0.938524 9.55578 0.9375H7.21203C6.31797 0.938524 5.46081 1.29415 4.82862 1.92636C4.19643 2.55857 3.84084 3.41574 3.83984 4.3098Z" fill="#0087FF"/>
<path fill-rule="evenodd" clip-rule="evenodd" d="M9.88211 7.10699C10.0674 7.10699 10.2485 7.05205 10.4026 6.94911C10.5566 6.84618 10.6767 6.69987 10.7476 6.52869C10.8185 6.35752 10.8371 6.16916 10.8009 5.98744C10.7648 5.80571 10.6755 5.63879 10.5445 5.50778C10.4135 5.37677 10.2466 5.28755 10.0649 5.2514C9.88315 5.21525 9.69479 5.2338 9.52361 5.30471C9.35244 5.37561 9.20613 5.49568 9.10319 5.64974C9.00025 5.80379 8.94531 5.98492 8.94531 6.1702C8.94615 6.41839 9.04511 6.65619 9.22062 6.83169C9.39612 7.00719 9.63391 7.10616 9.88211 7.10699ZM12.9845 7.10699C13.1698 7.10702 13.3509 7.05209 13.505 6.94917C13.6591 6.84625 13.7792 6.69995 13.8501 6.52877C13.921 6.3576 13.9396 6.16924 13.9035 5.98751C13.8673 5.80578 13.7781 5.63885 13.6471 5.50782C13.5161 5.3768 13.3492 5.28756 13.1675 5.25141C12.9857 5.21525 12.7974 5.2338 12.6262 5.3047C12.455 5.3756 12.3087 5.49567 12.2057 5.64973C12.1028 5.80379 12.0479 5.98491 12.0479 6.1702C12.0489 6.41832 12.1479 6.65599 12.3233 6.83145C12.4988 7.00691 12.7364 7.10594 12.9845 7.10699ZM16.0904 7.10699C16.2755 7.10637 16.4563 7.05089 16.6099 6.94758C16.7636 6.84426 16.8832 6.69774 16.9536 6.52651C17.024 6.35527 17.0421 6.16702 17.0056 5.9855C16.9691 5.80399 16.8796 5.63737 16.7485 5.50667C16.6173 5.37597 16.4504 5.28707 16.2688 5.25117C16.0872 5.21528 15.899 5.23402 15.728 5.30502C15.557 5.37601 15.4108 5.49608 15.3081 5.65007C15.2053 5.80406 15.1504 5.98505 15.1504 6.1702C15.1512 6.41894 15.2506 6.65721 15.4268 6.8328C15.603 7.0084 15.8416 7.10699 16.0904 7.10699Z" fill="white"/>
<path d="M56.8181 56.3652H29.2578C29.0092 56.3652 28.7707 56.2665 28.5949 56.0906C28.4191 55.9148 28.3203 55.6764 28.3203 55.4277C28.3203 55.1791 28.4191 54.9406 28.5949 54.7648C28.7707 54.589 29.0092 54.4902 29.2578 54.4902H56.8181C57.0667 54.4902 57.3052 54.589 57.481 54.7648C57.6568 54.9406 57.7556 55.1791 57.7556 55.4277C57.7556 55.6764 57.6568 55.9148 57.481 56.0906C57.3052 56.2665 57.0667 56.3652 56.8181 56.3652Z" fill="#006DF0"/>
<path d="M35.0352 20.6092L30.2305 18.0489C30.0877 17.9727 29.9275 17.9347 29.7657 17.9388C29.6038 17.9428 29.4457 17.9887 29.3069 18.072C29.168 18.1553 29.0531 18.2731 28.9733 18.414C28.8935 18.5548 28.8516 18.714 28.8516 18.8759V23.9981C28.8515 24.1599 28.8934 24.319 28.9731 24.4598C29.0529 24.6007 29.1677 24.7185 29.3064 24.8019C29.4452 24.8852 29.6031 24.9312 29.7649 24.9353C29.9267 24.9395 30.0868 24.9017 30.2297 24.8256L35.0366 22.2643C35.1866 22.1843 35.3121 22.065 35.3995 21.9192C35.487 21.7733 35.5331 21.6065 35.533 21.4365C35.5329 21.2664 35.4866 21.0996 35.399 20.9539C35.3114 20.8082 35.1858 20.689 35.0357 20.6092H35.0352Z" fill="white"/>
<path d="M31.4531 34.6144C31.2045 34.6144 30.966 34.5156 30.7902 34.3398C30.6144 34.164 30.5156 33.9256 30.5156 33.6769V30.5312C30.5156 30.2826 30.6144 30.0442 30.7902 29.8683C30.966 29.6925 31.2045 29.5938 31.4531 29.5938C31.7018 29.5938 31.9402 29.6925 32.116 29.8683C32.2919 30.0442 32.3906 30.2826 32.3906 30.5312V33.6769C32.3906 33.9256 32.2919 34.164 32.116 34.3398C31.9402 34.5156 31.7018 34.6144 31.4531 34.6144Z" fill="#0087FF"/>
<path d="M54.983 54.4902V35.0225C54.983 34.7738 54.8843 34.5354 54.7085 34.3595C54.5326 34.1837 54.2942 34.085 54.0455 34.085H48.9102C48.6615 34.085 48.4231 34.1837 48.2472 34.3595C48.0714 34.5354 47.9727 34.7738 47.9727 35.0225V54.4902H54.983Z" fill="#0087FF"/>
<path d="M38.1036 54.4906V46.5625C38.1036 46.3139 38.0049 46.0754 37.829 45.8996C37.6532 45.7238 37.4148 45.625 37.1661 45.625H32.0273C31.7787 45.625 31.5402 45.7238 31.3644 45.8996C31.1886 46.0754 31.0898 46.3139 31.0898 46.5625V54.4906H38.1036Z" fill="#0087FF"/>
<path d="M46.5411 54.4902V42.4531C46.5411 42.2045 46.4424 41.966 46.2665 41.7902C46.0907 41.6144 45.8523 41.5156 45.6036 41.5156H40.4648C40.2162 41.5156 39.9777 41.6144 39.8019 41.7902C39.6261 41.966 39.5273 42.2045 39.5273 42.4531V54.4902H46.5411Z" fill="#0087FF"/>
<path d="M50.4336 34.085H48.9102C48.6615 34.085 48.4231 34.1837 48.2472 34.3595C48.0714 34.5354 47.9727 34.7738 47.9727 35.0225V54.4902H49.4961V35.0225C49.4961 34.7738 49.5949 34.5354 49.7707 34.3595C49.9465 34.1837 50.185 34.085 50.4336 34.085Z" fill="#006DF0"/>
<path d="M33.5508 45.625H32.0273C31.7787 45.625 31.5402 45.7238 31.3644 45.8996C31.1886 46.0754 31.0898 46.3139 31.0898 46.5625V54.4906H32.6133V46.5625C32.6133 46.3139 32.7121 46.0754 32.8879 45.8996C33.0637 45.7238 33.3021 45.625 33.5508 45.625Z" fill="#006DF0"/>
<path d="M41.9883 41.5156H40.4648C40.2162 41.5156 39.9777 41.6144 39.8019 41.7902C39.6261 41.966 39.5273 42.2045 39.5273 42.4531V54.4902H41.0508V42.4531C41.0508 42.2045 41.1496 41.966 41.3254 41.7902C41.5012 41.6144 41.7396 41.5156 41.9883 41.5156Z" fill="#006DF0"/>
<path d="M8.85602 21.1934C8.07867 21.1934 7.31879 21.4239 6.67246 21.8558C6.02614 22.2877 5.52239 22.9015 5.22493 23.6197C4.92747 24.3379 4.84965 25.1282 5.00132 25.8906C5.15298 26.653 5.52732 27.3533 6.077 27.9029C6.62667 28.4526 7.32699 28.8269 8.0894 28.9785C8.85181 29.1302 9.64207 29.0524 10.3602 28.7549C11.0784 28.4574 11.6922 27.9536 12.1241 27.3073C12.556 26.6609 12.7865 25.9011 12.7865 25.1237C12.7849 24.0818 12.3703 23.083 11.6335 22.3463C10.8967 21.6095 9.89794 21.1949 8.85602 21.1934ZM8.85602 27.1791C8.44951 27.179 8.05214 27.0585 7.71416 26.8326C7.37617 26.6068 7.11275 26.2857 6.9572 25.9102C6.80166 25.5346 6.76097 25.1214 6.84029 24.7227C6.91961 24.324 7.11537 23.9577 7.40282 23.6703C7.69027 23.3829 8.0565 23.1871 8.4552 23.1078C8.85389 23.0285 9.26715 23.0693 9.64271 23.2248C10.0183 23.3804 10.3393 23.6438 10.5651 23.9818C10.7909 24.3198 10.9115 24.7172 10.9115 25.1237C10.9104 25.6685 10.6935 26.1907 10.3083 26.5759C9.92303 26.9612 9.40083 27.178 8.85602 27.1791Z" fill="#006DF0"/>
<path d="M4.08418 18.6976C4.236 18.5459 4.43526 18.4509 4.6487 18.4285C4.86213 18.406 5.07681 18.4575 5.25687 18.5742L6.08832 19.1133L6.18359 19.0737V11.4023H3.83984V18.9423L4.08418 18.6976ZM6.08937 31.1341L5.25734 31.6732C5.07711 31.79 4.86222 31.8414 4.64863 31.8188C4.43504 31.7962 4.23569 31.7009 4.08395 31.5489L3.83984 31.3043V39.5455H6.18359V31.173L6.08937 31.1341Z" fill="#CCE6F2"/>
</g>
<defs>
<clipPath id="clip0_208_1602">
<rect width="60" height="60" fill="white"/>
</clipPath>
</defs>
</svg>
