<svg width="24" height="24" viewBox="0 0 24 24" fill="none" xmlns="http://www.w3.org/2000/svg">
<path d="M22.5 12.233C22.5 11.37 22.43 10.74 22.274 10.086H12.214V13.983H18.12C18 14.951 17.358 16.41 15.93 17.39L15.91 17.52L19.09 19.935L19.31 19.956C21.334 18.125 22.5 15.43 22.5 12.233Z" fill="#4285F4"/>
<path d="M12.214 22.5C15.107 22.5 17.535 21.567 19.309 19.957L15.929 17.39C15.024 18.008 13.809 18.44 12.214 18.44C10.8697 18.4401 9.55915 18.0194 8.46608 17.237C7.373 16.4545 6.55227 15.3495 6.11901 14.077L5.99301 14.087L2.68601 16.595L2.64301 16.713C4.40401 20.143 8.02301 22.5 12.214 22.5Z" fill="#34A853"/>
<path d="M6.11999 14.077C5.88678 13.4093 5.76679 12.7073 5.76499 12C5.76499 11.277 5.89499 10.577 6.10999 9.92299L6.10399 9.78399L2.75499 7.23599L2.64499 7.28599C1.89591 8.74454 1.50448 10.3603 1.50299 12C1.50299 13.692 1.91999 15.29 2.64599 16.713L6.12199 14.077H6.11999Z" fill="#FBBC05"/>
<path d="M12.214 5.56C14.226 5.56 15.583 6.412 16.357 7.123L19.38 4.23C17.523 2.538 15.106 1.5 12.213 1.5C8.023 1.5 4.403 3.857 2.642 7.287L6.106 9.923C6.54342 8.65074 7.36686 7.54663 8.46155 6.76456C9.55624 5.98248 10.8686 5.5614 12.214 5.56Z" fill="#EB4335"/>
</svg>
