<svg width="55" height="48" viewBox="0 0 55 48" fill="none" xmlns="http://www.w3.org/2000/svg">
<path d="M0 8.59375V44.2087C0 45.1204 0.362164 45.9947 1.00682 46.6394C1.65148 47.284 2.52582 47.6462 3.4375 47.6462H51.5625C52.4742 47.6462 53.3485 47.284 53.9932 46.6394C54.6378 45.9947 55 45.1204 55 44.2087V8.59375H0Z" fill="#F1F1FB"/>
<path d="M51.5625 0H3.4375C2.52582 0 1.65148 0.362164 1.00682 1.00682C0.362164 1.65148 0 2.52582 0 3.4375L0 8.59375H55V3.4375C55 2.52582 54.6378 1.65148 53.9932 1.00682C53.3485 0.362164 52.4742 0 51.5625 0Z" fill="#0087FF"/>
<path d="M51.0148 3.53549C50.8088 3.34143 50.5365 3.23334 50.2536 3.23334C49.9706 3.23334 49.6984 3.34143 49.4924 3.53549C48.4833 4.5029 50.0351 6.04978 51.0148 5.05781C51.2105 4.85273 51.3197 4.58014 51.3197 4.29665C51.3197 4.01316 51.2105 3.74057 51.0148 3.53549ZM45.0482 3.21875C44.7722 3.23195 44.5119 3.35089 44.3212 3.5509C44.1305 3.75091 44.0242 4.01664 44.0242 4.29297C44.0242 4.5693 44.1305 4.83503 44.3212 5.03504C44.5119 5.23505 44.7722 5.35399 45.0482 5.36719C45.3243 5.35399 45.5846 5.23505 45.7753 5.03504C45.9659 4.83503 46.0723 4.5693 46.0723 4.29297C46.0723 4.01664 45.9659 3.75091 45.7753 3.5509C45.5846 3.35089 45.3243 3.23195 45.0482 3.21875ZM39.0842 3.53549C38.8873 3.73999 38.7773 4.0128 38.7773 4.29665C38.7773 4.5805 38.8873 4.85331 39.0842 5.05781C40.0663 6.03996 41.6132 4.50045 40.604 3.53549C40.3985 3.34159 40.1267 3.23358 39.8441 3.23358C39.5616 3.23358 39.2897 3.34159 39.0842 3.53549Z" fill="#E2E2E2"/>
<path d="M45.9785 36.0714C45.9799 33.1181 45.2731 30.2074 43.9175 27.5836C42.5618 24.9597 40.5967 22.6992 38.1871 20.9915C35.7775 19.2839 32.9935 18.1789 30.0687 17.7693C27.1438 17.3597 24.1634 17.6574 21.3774 18.6374C18.5914 19.6174 16.0809 21.2512 14.0566 23.4017C12.0324 25.5522 10.5532 28.1568 9.74331 30.9969C8.93339 33.8371 8.8163 36.83 9.40184 39.7247C9.98739 42.6195 11.2585 45.3316 13.1086 47.6337H41.8952C44.5387 44.3601 45.98 40.2791 45.9785 36.0714Z" fill="#FDB43A"/>
<path d="M35.6641 36.0713C35.6641 38.2365 34.8039 40.3131 33.2729 41.8442C31.7418 43.3752 29.6652 44.2354 27.5 44.2354C25.3348 44.2354 23.2582 43.3752 21.7271 41.8442C20.1961 40.3131 19.3359 38.2365 19.3359 36.0713C19.3359 33.906 20.1961 31.8295 21.7271 30.2984C23.2582 28.7674 25.3348 27.9072 27.5 27.9072C29.6652 27.9072 31.7418 28.7674 33.2729 30.2984C34.8039 31.8295 35.6641 33.906 35.6641 36.0713Z" fill="#FFBE51"/>
<path d="M27.4987 16.5244C23.8987 16.5544 20.3763 17.5742 17.3172 19.4721C14.258 21.3701 11.7799 24.073 10.1541 27.2851C8.52826 30.4971 7.81741 34.0946 8.09933 37.6836C8.38124 41.2726 9.64506 44.715 11.7524 47.6338H14.5368C11.8844 44.6745 10.3308 40.8928 10.1368 36.9235H13.5228V35.2048H10.1417C10.2583 32.7397 10.9022 30.3284 12.0299 28.1333L14.9763 29.8275L15.8357 28.342L12.9016 26.6479C14.2439 24.575 16.0095 22.8094 18.0824 21.467L19.7766 24.4135L21.2645 23.5541L19.5703 20.6077C21.7672 19.4775 24.1813 18.8327 26.6491 18.717V22.0981H28.3678V18.7146C30.8356 18.831 33.2495 19.4757 35.4466 20.6052L33.7524 23.5516L35.2404 24.411L36.9346 21.4646C39.0075 22.807 40.773 24.5725 42.1154 26.6454L39.169 28.3396L40.0283 29.8251L42.9748 28.1333C44.106 30.3298 44.7508 32.7441 44.8654 35.2121H41.4745V36.9309H44.8605C44.6637 40.8973 43.1103 44.6758 40.4605 47.6338H43.2449C45.3522 44.715 46.6161 41.2726 46.898 37.6836C47.1799 34.0946 46.469 30.4971 44.8432 27.2851C43.2174 24.073 40.7393 21.3701 37.6801 19.4721C34.621 17.5742 31.0986 16.5544 27.4987 16.5244Z" fill="#0087FF"/>
<path d="M29.491 38.0356C28.9619 38.5207 28.2664 38.7835 27.5487 38.7696C26.831 38.7557 26.1462 38.4662 25.6362 37.961C25.1263 37.4558 24.8303 36.7737 24.8097 36.0561C24.7892 35.3386 25.0455 34.6407 25.5256 34.107C26.6109 33.0095 35.5288 27.9883 35.5288 27.9883C35.5288 27.9883 30.5788 36.9405 29.491 38.0356Z" fill="#0571F9"/>
<path d="M28.5742 36.0719C28.561 36.3479 28.4421 36.6083 28.2421 36.799C28.0421 36.9896 27.7763 37.096 27.5 37.096C27.2237 37.096 26.9579 36.9896 26.7579 36.799C26.5579 36.6083 26.439 36.3479 26.4258 36.0719C26.439 35.7959 26.5579 35.5356 26.7579 35.3449C26.9579 35.1542 27.2237 35.0479 27.5 35.0479C27.7763 35.0479 28.0421 35.1542 28.2421 35.3449C28.4421 35.5356 28.561 35.7959 28.5742 36.0719Z" fill="#FFBD66"/>
</svg>
