<svg width="512" height="512" viewBox="0 0 512 512" fill="none" xmlns="http://www.w3.org/2000/svg">
<g clip-path="url(#clip0_325_251)">
<path d="M512 165C512 159.013 510.839 153.192 508.55 147.699C508.548 147.695 508.546 147.69 508.544 147.686L458.539 27.69C451.529 10.869 435.224 0 417.001 0H94.999C76.776 0 60.471 10.869 53.461 27.69L3.45 147.698C1.161 153.192 0 159.013 0 165V227C0 238.517 4.354 249.032 11.495 257C4.354 264.968 0 275.483 0 287V347C0 358.517 4.354 369.032 11.495 377C4.354 384.968 0 395.483 0 407V467C0 491.813 20.187 512 45 512H467C491.813 512 512 491.813 512 467V407C512 395.483 507.646 384.968 500.505 377C507.647 369.032 512 358.517 512 347V287C512 275.483 507.646 264.968 500.505 257C507.647 249.032 512 238.517 512 227V165ZM81.153 39.23C83.49 33.623 88.925 30 94.999 30H417.001C423.075 30 428.51 33.623 430.847 39.23L464.507 120H47.493L81.153 39.23ZM482 467C482 475.271 475.271 482 467 482H45C36.729 482 30 475.271 30 467V407C30 398.729 36.729 392 45 392H467C475.271 392 482 398.729 482 407V467ZM482 347C482 355.271 475.271 362 467 362H45C36.729 362 30 355.271 30 347V287C30 278.729 36.729 272 45 272H467C475.271 272 482 278.729 482 287V347ZM482 227C482 235.271 475.271 242 467 242H45C36.729 242 30 235.271 30 227V165C30 156.658 36.736 150 45 150H467C475.29 150 482 156.684 482 165V227Z" fill="white"/>
<path d="M437 422H165C156.716 422 150 428.716 150 437C150 445.284 156.716 452 165 452H437C445.284 452 452 445.284 452 437C452 428.716 445.284 422 437 422Z" fill="white"/>
<path d="M437 180H165C156.716 180 150 186.716 150 195C150 203.284 156.716 210 165 210H437C445.284 210 452 203.284 452 195C452 186.716 445.284 180 437 180Z" fill="white"/>
<path d="M75 180C66.716 180 60 186.716 60 195C60 203.284 66.716 212 75 212C83.284 212 90 203.284 90 195C90 186.716 83.284 180 75 180Z" fill="white"/>
<path d="M437 302H165C156.716 302 150 308.716 150 317C150 325.284 156.716 332 165 332H437C445.284 332 452 325.284 452 317C452 308.716 445.284 302 437 302Z" fill="white"/>
<path d="M75 332C83.2843 332 90 325.284 90 317C90 308.716 83.2843 302 75 302C66.7157 302 60 308.716 60 317C60 325.284 66.7157 332 75 332Z" fill="white"/>
<path d="M75 452C83.2843 452 90 445.284 90 437C90 428.716 83.2843 422 75 422C66.7157 422 60 428.716 60 437C60 445.284 66.7157 452 75 452Z" fill="white"/>
</g>
<defs>
<clipPath id="clip0_325_251">
<rect width="512" height="512" fill="white"/>
</clipPath>
</defs>
</svg>
