<svg width="60" height="60" viewBox="0 0 60 60" fill="none" xmlns="http://www.w3.org/2000/svg">
<path d="M55 57.5H5C4.33696 57.5 3.70107 57.2366 3.23223 56.7678C2.76339 56.2989 2.5 55.663 2.5 55V22.86C2.50013 22.3802 2.63833 21.9106 2.89811 21.5072C3.15788 21.1038 3.52824 20.7836 3.965 20.585L30 8.75L56.035 20.5837C56.4718 20.7824 56.8421 21.1025 57.1019 21.5059C57.3617 21.9093 57.4999 22.3789 57.5 22.8588V55C57.5 55.663 57.2366 56.2989 56.7678 56.7678C56.2989 57.2366 55.663 57.5 55 57.5Z" fill="#EF9D3A"/>
<path d="M56.035 20.5833L55 20.1133V54.9995C55 55.6626 54.7366 56.2985 54.2678 56.7673C53.7989 57.2361 53.163 57.4995 52.5 57.4995H55C55.663 57.4995 56.2989 57.2361 56.7678 56.7673C57.2366 56.2985 57.5 55.6626 57.5 54.9995V22.8595C57.4999 22.3797 57.3617 21.9101 57.1019 21.5067C56.8421 21.1033 56.4718 20.7832 56.035 20.5845V20.5833Z" fill="#DD8628"/>
<path d="M11.25 2.5H48.75C49.413 2.5 50.0489 2.76339 50.5178 3.23223C50.9866 3.70107 51.25 4.33696 51.25 5V42.5H8.75V5C8.75 4.33696 9.01339 3.70107 9.48223 3.23223C9.95107 2.76339 10.587 2.5 11.25 2.5Z" fill="#0087FF"/>
<path d="M55 57.5H5C4.33696 57.5 3.70107 57.2366 3.23223 56.7678C2.76339 56.2989 2.5 55.663 2.5 55V26.25L30 42.5L57.5 26.25V55C57.5 55.663 57.2366 56.2989 56.7678 56.7678C56.2989 57.2366 55.663 57.5 55 57.5Z" fill="#FFDA2D"/>
<path d="M55 27.7275V55C55 55.663 54.7366 56.2989 54.2678 56.7678C53.7989 57.2366 53.163 57.5 52.5 57.5H55C55.663 57.5 56.2989 57.2366 56.7678 56.7678C57.2366 56.2989 57.5 55.663 57.5 55V26.25L55 27.7275Z" fill="#FF9100"/>
<path d="M30.7619 36.5155C30.5442 36.3441 30.2752 36.251 29.9981 36.251C29.7211 36.251 29.4521 36.3441 29.2344 36.5155L3.32812 56.8492C3.78419 57.2668 4.37975 57.4991 4.99812 57.5005H54.9981C55.6165 57.4991 56.2121 57.2668 56.6681 56.8492L30.7619 36.5155Z" fill="#FF9100"/>
<path d="M54.95 55.499C54.835 56.0639 54.5283 56.5717 54.0818 56.9364C53.6353 57.3011 53.0765 57.5003 52.5 57.5003H55C55.6184 57.4989 56.2139 57.2666 56.67 56.849L54.95 55.499Z" fill="#DD8628"/>
<path d="M37.5 19.6626L30.95 27.0764C30.8304 27.21 30.684 27.3169 30.5203 27.39C30.3566 27.4632 30.1793 27.501 30 27.501C29.8207 27.501 29.6434 27.4632 29.4797 27.39C29.316 27.3169 29.1696 27.21 29.05 27.0764L22.5 19.6626H27.5V9.96264C27.5024 9.80095 27.5367 9.64132 27.6009 9.49287C27.665 9.34442 27.7578 9.21006 27.8738 9.09747C27.9899 8.98487 28.127 8.89625 28.2774 8.83665C28.4277 8.77706 28.5883 8.74766 28.75 8.75014H31.25C31.4117 8.74766 31.5723 8.77706 31.7226 8.83665C31.873 8.89625 32.0101 8.98487 32.1262 9.09747C32.2422 9.21006 32.335 9.34442 32.3991 9.49287C32.4633 9.64132 32.4976 9.80095 32.5 9.96264V19.6626H37.5Z" fill="#FFBC5A"/>
</svg>
