<svg width="60" height="60" viewBox="0 0 60 60" fill="none" xmlns="http://www.w3.org/2000/svg">
<path fill-rule="evenodd" clip-rule="evenodd" d="M5.82031 52.3623H54.1774V19.1639C54.1774 18.3248 53.4932 17.6406 52.6541 17.6406H7.34363C6.50457 17.6406 5.82031 18.3248 5.82031 19.1639V52.3623Z" fill="#323FD4"/>
<path fill-rule="evenodd" clip-rule="evenodd" d="M8.86719 20.6875H51.1305V52.5448H8.86719V20.6875Z" fill="#0087FF"/>
<path fill-rule="evenodd" clip-rule="evenodd" d="M58.125 52.3625C58.125 55.5455 55.545 58.1255 52.3621 58.1255H7.63793C4.455 58.1255 1.875 55.5455 1.875 52.3625V51.416C1.875 51.0933 2.1382 50.8301 2.46094 50.8301H57.5391C57.8618 50.8301 58.125 51.0933 58.125 51.416V52.3625Z" fill="#323FD4"/>
<path fill-rule="evenodd" clip-rule="evenodd" d="M21.2109 50.8301H38.7861V53.6741C38.7861 53.9968 38.5229 54.26 38.2002 54.26H21.7969C21.6416 54.2597 21.4927 54.1979 21.3829 54.0881C21.2731 53.9783 21.2112 53.8294 21.2109 53.6741V50.8301Z" fill="white"/>
<path fill-rule="evenodd" clip-rule="evenodd" d="M9.67969 11.3879H15.9019C16.1194 11.3879 16.3281 11.4744 16.4819 11.6282C16.6358 11.782 16.7222 11.9907 16.7222 12.2082V27.2052H15.0816V13.0284H9.67969V11.3879ZM50.3227 13.0284H44.9208V27.2051H43.2802V12.2081C43.2802 11.9906 43.3666 11.7819 43.5204 11.6281C43.6743 11.4742 43.8829 11.3878 44.1005 11.3878H50.3227V13.0284ZM21.6837 7.45699L24.2759 11.8005H29.1809V3.61816H30.8215V11.8005H35.7265L38.3187 7.45699L39.7221 8.29652L36.9255 12.9825C36.8579 13.1201 36.7531 13.2361 36.6229 13.3172C36.4928 13.3982 36.3425 13.4412 36.1891 13.4412H30.8215V27.1573H29.1809V13.4411H23.8131C23.6715 13.4406 23.5324 13.4034 23.4094 13.3332C23.2865 13.263 23.1838 13.1622 23.1114 13.0405L20.2801 8.29641L21.6837 7.45699Z" fill="#323FD4"/>
<path fill-rule="evenodd" clip-rule="evenodd" d="M50.7508 13.8089C49.8665 13.8089 49.1497 13.0921 49.1497 12.2078C49.1497 11.3235 49.8665 10.6066 50.7508 10.6066C51.6351 10.6066 52.3519 11.3235 52.3519 12.2078C52.3519 13.0921 51.6351 13.8089 50.7508 13.8089ZM9.24957 13.8089C10.1339 13.8089 10.8507 13.0921 10.8507 12.2078C10.8507 11.3235 10.1339 10.6066 9.24957 10.6066C8.36527 10.6066 7.64844 11.3235 7.64844 12.2078C7.64844 13.0921 8.36527 13.8089 9.24957 13.8089ZM20.981 9.47754C20.0967 9.47754 19.3798 8.7607 19.3798 7.87641C19.3798 6.99211 20.0967 6.27527 20.981 6.27527C21.8653 6.27527 22.5821 6.99211 22.5821 7.87641C22.582 8.7607 21.8652 9.47754 20.981 9.47754ZM30.0002 5.07727C29.1159 5.07727 28.3991 4.36043 28.3991 3.47613C28.3991 2.59184 29.1159 1.875 30.0002 1.875C30.8845 1.875 31.6013 2.59184 31.6013 3.47613C31.6013 4.36043 30.8845 5.07727 30.0002 5.07727ZM39.0195 9.47754C38.1352 9.47754 37.4184 8.7607 37.4184 7.87641C37.4184 6.99211 38.1352 6.27527 39.0195 6.27527C39.9038 6.27527 40.6207 6.99211 40.6207 7.87641C40.6207 8.7607 39.9037 9.47754 39.0195 9.47754Z" fill="#0087FF"/>
<path fill-rule="evenodd" clip-rule="evenodd" d="M47.6982 27.951C43.968 27.951 42.0964 32.4701 44.7339 35.1075C45.2198 35.5934 45.2198 36.3814 44.7339 36.8672L42.0552 39.546C41.5693 40.0319 40.7812 40.0319 40.2955 39.546C37.6579 36.9085 33.1389 38.7801 33.1389 42.5103C33.1389 43.1977 32.5817 43.7545 31.8946 43.7545H28.1064C27.4194 43.7545 26.8621 43.1977 26.8621 42.5103C26.8621 38.7755 22.3464 36.9052 19.7056 39.546C19.2198 40.0319 18.4318 40.0319 17.9459 39.546L15.2671 36.8672C14.7813 36.3814 14.7813 35.5934 15.2671 35.1075C17.9047 32.47 16.0331 27.951 12.3029 27.951C11.6155 27.951 11.0586 27.3938 11.0586 26.7068V25.3986C11.0586 25.0758 11.3218 24.8126 11.6445 24.8126H20.1754C20.3249 24.8125 20.4688 24.8696 20.5775 24.9721C20.6862 25.0747 20.7516 25.215 20.7602 25.3642C21.0455 30.2196 25.0735 34.0693 30.0007 34.0693C34.9278 34.0693 38.9558 30.2196 39.2411 25.3642C39.2497 25.215 39.3151 25.0747 39.4238 24.9721C39.5326 24.8696 39.6764 24.8125 39.8259 24.8126L48.3568 24.8125C48.6795 24.8125 48.9427 25.0757 48.9427 25.3984V26.7067C48.9424 27.3938 48.3856 27.951 47.6982 27.951ZM36.6213 25.4545C36.6376 25.2841 36.5867 25.1313 36.4715 25.0046C36.3564 24.8779 36.209 24.8126 36.0379 24.8126H23.9629C23.7917 24.8126 23.6444 24.8778 23.5293 25.0046C23.4143 25.1313 23.3633 25.2841 23.3796 25.4545C23.7024 28.8268 26.5434 31.4642 30.0004 31.4642C33.4575 31.4642 36.2984 28.8268 36.6213 25.4545Z" fill="#FDCD56"/>
</svg>
