<svg width="71" height="71" viewBox="0 0 71 71" fill="none" xmlns="http://www.w3.org/2000/svg">
<path d="M58.5609 20.2572V36.5262C56.2215 35.5583 53.6967 35.1212 51.1681 35.2464C48.6395 35.3715 46.1701 36.0557 43.9377 37.2497C41.7053 38.4438 39.7654 40.1179 38.2577 42.1517C36.75 44.1855 35.712 46.5282 35.2184 49.0113C34.7248 51.4944 34.7879 54.0561 35.4032 56.5118C36.0185 58.9676 37.1706 61.2564 38.7766 63.2135C40.3827 65.1705 42.4027 66.7471 44.6912 67.8298C46.9797 68.9124 49.4798 69.4742 52.0114 69.4746H6.57422C3.96996 69.4746 1.85938 66.9438 1.85938 63.8251V6.24023C1.85938 4.98978 2.35612 3.79054 3.24032 2.90634C4.12453 2.02213 5.32376 1.52539 6.57422 1.52539H39.6586V16.8722C39.6586 17.7703 40.0153 18.6317 40.6504 19.2667C41.2855 19.9018 42.1468 20.2586 43.0449 20.2586H58.5609V20.2572Z" fill="#0087FF"/>
<path d="M58.5621 50.6692V60.2154C57.0626 61.4667 55.236 62.2624 53.2985 62.5081C51.361 62.7539 49.3936 62.4395 47.6292 61.6021L58.5621 50.6692ZM56.3974 43.0964L42.7604 56.7333C41.8556 54.8248 41.5632 52.6831 41.9234 50.6018C42.2835 48.5205 43.2786 46.6016 44.7721 45.1081C46.2657 43.6145 48.1846 42.6195 50.2659 42.2593C52.3471 41.8992 54.4888 42.1915 56.3974 43.0964Z" fill="#F1F2F2"/>
<path d="M39.6598 1.52539V16.8722C39.6598 17.3167 39.7474 17.7569 39.9175 18.1676C40.0876 18.5783 40.3369 18.9514 40.6513 19.2658C40.9656 19.5801 41.3387 19.8294 41.7494 19.9995C42.1601 20.1696 42.6003 20.2572 43.0448 20.2572H58.576L39.6598 1.52539ZM52.0127 35.2227C48.6255 35.2227 45.3144 36.2271 42.498 38.1089C39.6817 39.9907 37.4866 42.6654 36.1904 45.7948C34.8941 48.9242 34.555 52.3676 35.2158 55.6897C35.8766 59.0119 37.5077 62.0634 39.9028 64.4585C42.2979 66.8536 45.3495 68.4847 48.6716 69.1455C51.9937 69.8063 55.4372 69.4672 58.5665 68.171C61.6959 66.8747 64.3706 64.6797 66.2524 61.8633C68.1343 59.047 69.1387 55.7358 69.1387 52.3486C69.1339 47.808 67.328 43.4547 64.1173 40.244C60.9066 37.0333 56.5533 35.2274 52.0127 35.2227ZM52.0127 42.1077C53.5296 42.1062 55.0277 42.4435 56.3975 43.0951L42.7605 56.732C42.0206 55.1714 41.6875 53.449 41.7922 51.7251C41.8969 50.0011 42.4361 48.3317 43.3595 46.8721C44.2829 45.4125 45.5605 44.2103 47.0735 43.3773C48.5865 42.5442 50.2856 42.1075 52.0127 42.1077ZM52.0127 62.5882C50.4963 62.5895 48.9987 62.2522 47.6293 61.6008L61.2663 47.9638C62.0063 49.5245 62.3394 51.2471 62.2346 52.9712C62.1298 54.6952 61.5905 56.3648 60.6669 57.8244C59.7434 59.284 58.4655 60.4862 56.9524 61.3191C55.4392 62.152 53.74 62.5886 52.0127 62.5882Z" fill="#FDB62F"/>
<path d="M38.9652 69.4743H6.57422C3.96996 69.4743 1.85938 66.9436 1.85938 63.8248V30.1816C5.10991 38.8755 10.0675 46.8308 16.4402 53.579C22.8128 60.3272 30.4715 65.7318 38.9652 69.4743Z" fill="#323FD4"/>
<path d="M18.3955 28.1709H13.1953C12.9746 28.1709 12.763 28.0832 12.607 27.9272C12.4509 27.7712 12.3633 27.5595 12.3633 27.3389C12.3633 27.1182 12.4509 26.9066 12.607 26.7505C12.763 26.5945 12.9746 26.5068 13.1953 26.5068H18.3955C18.6162 26.5068 18.8278 26.5945 18.9838 26.7505C19.1399 26.9066 19.2275 27.1182 19.2275 27.3389C19.2275 27.5595 19.1399 27.7712 18.9838 27.9272C18.8278 28.0832 18.6162 28.1709 18.3955 28.1709ZM36.4256 28.1709H24.2225C24.0018 28.1709 23.7902 28.0832 23.6342 27.9272C23.4781 27.7712 23.3905 27.5595 23.3905 27.3389C23.3905 27.1182 23.4781 26.9066 23.6342 26.7505C23.7902 26.5945 24.0018 26.5068 24.2225 26.5068H36.4256C36.6463 26.5068 36.8579 26.5945 37.014 26.7505C37.17 26.9066 37.2577 27.1182 37.2577 27.3389C37.2577 27.5595 37.17 27.7712 37.014 27.9272C36.8579 28.0832 36.6463 28.1709 36.4256 28.1709ZM47.2212 28.1709H41.8227C41.6021 28.1709 41.3904 28.0832 41.2344 27.9272C41.0784 27.7712 40.9907 27.5595 40.9907 27.3389C40.9907 27.1182 41.0784 26.9066 41.2344 26.7505C41.3904 26.5945 41.6021 26.5068 41.8227 26.5068H47.2212C47.4419 26.5068 47.6535 26.5945 47.8096 26.7505C47.9656 26.9066 48.0533 27.1182 48.0533 27.3389C48.0533 27.5595 47.9656 27.7712 47.8096 27.9272C47.6535 28.0832 47.4419 28.1709 47.2212 28.1709ZM16.7453 36.3317H13.1953C12.9746 36.3317 12.763 36.2441 12.607 36.088C12.4509 35.932 12.3633 35.7204 12.3633 35.4997C12.3633 35.279 12.4509 35.0674 12.607 34.9114C12.763 34.7553 12.9746 34.6677 13.1953 34.6677H16.7453C16.966 34.6677 17.1776 34.7553 17.3336 34.9114C17.4897 35.0674 17.5773 35.279 17.5773 35.4997C17.5773 35.7204 17.4897 35.932 17.3336 36.088C17.1776 36.2441 16.966 36.3317 16.7453 36.3317ZM26.2485 36.3317H20.721C20.5004 36.3317 20.2887 36.2441 20.1327 36.088C19.9767 35.932 19.889 35.7204 19.889 35.4997C19.889 35.279 19.9767 35.0674 20.1327 34.9114C20.2887 34.7553 20.5004 34.6677 20.721 34.6677H26.2485C26.4692 34.6677 26.6808 34.7553 26.8368 34.9114C26.9929 35.0674 27.0805 35.279 27.0805 35.4997C27.0805 35.7204 26.9929 35.932 26.8368 36.088C26.6808 36.2441 26.4692 36.3317 26.2485 36.3317ZM36.4256 36.3317H31.2559C31.0353 36.3317 30.8236 36.2441 30.6676 36.088C30.5116 35.932 30.4239 35.7204 30.4239 35.4997C30.4239 35.279 30.5116 35.0674 30.6676 34.9114C30.8236 34.7553 31.0353 34.6677 31.2559 34.6677H36.4256C36.6463 34.6677 36.8579 34.7553 37.014 34.9114C37.17 35.0674 37.2577 35.279 37.2577 35.4997C37.2577 35.7204 37.17 35.932 37.014 36.088C36.8579 36.2441 36.6463 36.3317 36.4256 36.3317ZM22.2853 44.4926H13.1953C12.9746 44.4926 12.763 44.4049 12.607 44.2489C12.4509 44.0928 12.3633 43.8812 12.3633 43.6605C12.3633 43.4399 12.4509 43.2282 12.607 43.0722C12.763 42.9162 12.9746 42.8285 13.1953 42.8285H22.2853C22.5059 42.8285 22.7176 42.9162 22.8736 43.0722C23.0296 43.2282 23.1173 43.4399 23.1173 43.6605C23.1173 43.8812 23.0296 44.0928 22.8736 44.2489C22.7176 44.4049 22.5059 44.4926 22.2853 44.4926ZM31.3766 44.4926H25.6078C25.3872 44.4926 25.1755 44.4049 25.0195 44.2489C24.8635 44.0928 24.7758 43.8812 24.7758 43.6605C24.7758 43.4399 24.8635 43.2282 25.0195 43.0722C25.1755 42.9162 25.3872 42.8285 25.6078 42.8285H31.3766C31.5972 42.8285 31.8089 42.9162 31.9649 43.0722C32.121 43.2282 32.2086 43.4399 32.2086 43.6605C32.2086 43.8812 32.121 44.0928 31.9649 44.2489C31.8089 44.4049 31.5972 44.4926 31.3766 44.4926Z" fill="white"/>
</svg>
