<svg width="24" height="24" viewBox="0 0 24 24" fill="none" xmlns="http://www.w3.org/2000/svg">
<path d="M10.8477 20.3091H8.57819C8.4147 20.3091 8.28161 20.1986 8.28161 20.0628V3.93637C8.28161 3.80052 8.41464 3.68999 8.57819 3.68999H10.8424C11.0694 3.68999 11.2535 3.53709 11.2535 3.34841C11.2535 3.15979 11.0695 3.00684 10.8424 3.00684H8.57819C7.96134 3.00684 7.45947 3.42379 7.45947 3.93632V20.0627C7.45947 20.5752 7.96134 20.9922 8.57819 20.9922H10.8477C11.0747 20.9922 11.2588 20.8393 11.2588 20.6506C11.2588 20.4619 11.0748 20.3091 10.8477 20.3091Z" fill="black" fill-opacity="0.3"/>
<path d="M15.4198 3.00684H12.938C12.7109 3.00684 12.5269 3.15974 12.5269 3.34841C12.5269 3.53704 12.7109 3.68999 12.938 3.68999H15.4198C15.5833 3.68999 15.7164 3.80052 15.7164 3.93637V20.0627C15.7164 20.1986 15.5833 20.3091 15.4198 20.3091H12.9429C12.7158 20.3091 12.5319 20.462 12.5319 20.6507C12.5319 20.8394 12.7159 20.9923 12.9429 20.9923H15.4198C16.0367 20.9923 16.5385 20.5753 16.5385 20.0628V3.93632C16.5385 3.42379 16.0366 3.00684 15.4198 3.00684Z" fill="black" fill-opacity="0.3"/>
<path d="M22.7767 9.26972C23.4512 9.26972 24 8.81377 24 8.25338V7.34864C24 6.78825 23.4512 6.3323 22.7767 6.3323H20.1586V5.07075H22.7767C23.4512 5.07075 23.9999 4.6148 23.9999 4.05441V3.14967C23.9999 2.58928 23.4512 2.13333 22.7767 2.13333H20.1585V1.32459C20.1586 0.594187 19.4434 0 18.5644 0H5.43556C4.55656 0 3.84138 0.594187 3.84138 1.32459V2.13328H1.2232C0.548752 2.13328 0 2.58923 0 3.14963V4.05436C0 4.61475 0.548752 5.0707 1.2232 5.0707H3.84138V6.33225H1.2232C0.548752 6.33225 0 6.7882 0 7.34859V8.25333C0 8.81372 0.548752 9.26967 1.2232 9.26967H3.84138V10.5313H1.2232C0.548752 10.5313 0 10.9872 0 11.5476V12.4523C0 13.0127 0.548752 13.4687 1.2232 13.4687H3.84138V14.7303H1.2232C0.548752 14.7303 0 15.1862 0 15.7466V16.6514C0 17.2118 0.548752 17.6677 1.2232 17.6677H3.84138V18.9293H1.2232C0.548752 18.9293 0 19.3852 0 19.9456V20.8503C0 21.4107 0.548752 21.8667 1.2232 21.8667H3.84138V22.6754C3.84138 23.4058 4.5565 24 5.43556 24H18.5644C19.4434 24 20.1585 23.4058 20.1585 22.6754V21.8667H22.7767C23.4512 21.8667 23.9999 21.4108 23.9999 20.8504V19.9456C23.9999 19.3852 23.4512 18.9293 22.7767 18.9293H20.1585V17.6677H22.7767C23.4512 17.6677 23.9999 17.2118 23.9999 16.6514V15.7467C23.9999 15.1863 23.4512 14.7303 22.7767 14.7303H20.1585V13.4687H22.7767C23.4512 13.4687 23.9999 13.0128 23.9999 12.4524V11.5477C23.9999 10.9873 23.4512 10.5313 22.7767 10.5313H20.1585V9.26972H22.7767ZM20.1586 2.81639H22.7767C22.9978 2.81639 23.1778 2.96588 23.1778 3.14963V4.05436C23.1778 4.23811 22.9978 4.38759 22.7767 4.38759H20.1586V2.81639ZM20.1586 7.01541H22.7767C22.9978 7.01541 23.1778 7.16489 23.1778 7.34864V8.25338C23.1778 8.43713 22.9978 8.58661 22.7767 8.58661H20.1586V7.01541ZM3.84144 21.1836H1.2232C1.00205 21.1836 0.822141 21.0341 0.822141 20.8504V19.9456C0.822141 19.7619 1.00205 19.6124 1.2232 19.6124H3.84138L3.84144 21.1836ZM3.84144 16.9846H1.2232C1.00205 16.9846 0.822141 16.8351 0.822141 16.6514V15.7466C0.822141 15.5629 1.00205 15.4134 1.2232 15.4134H3.84138L3.84144 16.9846ZM3.84144 12.7856H1.2232C1.00205 12.7856 0.822141 12.6361 0.822141 12.4523V11.5477C0.822141 11.3639 1.00205 11.2144 1.2232 11.2144H3.84138L3.84144 12.7856ZM3.84144 8.58661H1.2232C1.00205 8.58661 0.822141 8.43713 0.822141 8.25338V7.34864C0.822141 7.16489 1.00205 7.01541 1.2232 7.01541H3.84138L3.84144 8.58661ZM3.84144 4.38759H1.2232C1.00205 4.38759 0.822141 4.23811 0.822141 4.05436V3.14967C0.822141 2.96592 1.00205 2.81644 1.2232 2.81644H3.84138L3.84144 4.38759ZM19.3364 22.6754C19.3364 23.0291 18.99 23.3169 18.5644 23.3169H5.43556C5.00985 23.3169 4.66352 23.0291 4.66352 22.6754V21.5251V19.2708V17.3262V15.0719V13.1272V10.8728V8.92814V6.67383V4.72917V2.47486V1.32459C4.66352 0.970875 5.00985 0.683109 5.43556 0.683109H18.5644C18.9901 0.683109 19.3364 0.970875 19.3364 1.32459V22.6754ZM22.7766 19.6124C22.9978 19.6124 23.1777 19.7619 23.1777 19.9456V20.8504C23.1777 21.0341 22.9978 21.1836 22.7766 21.1836H20.1585V19.6124H22.7766ZM22.7766 15.4134C22.9978 15.4134 23.1777 15.5629 23.1777 15.7466V16.6514C23.1777 16.8351 22.9978 16.9846 22.7766 16.9846H20.1585V15.4134H22.7766ZM22.7766 11.2144C22.9978 11.2144 23.1777 11.3639 23.1777 11.5477V12.4524C23.1777 12.6361 22.9978 12.7856 22.7766 12.7856H20.1585V11.2144H22.7766Z" fill="black" fill-opacity="0.3"/>
<path d="M13.7995 14.3518C13.8959 14.3319 13.9636 14.26 13.9636 14.1774V13.9117C13.9636 13.7891 13.8196 13.7025 13.6797 13.741C13.2409 13.862 12.7285 13.9992 12.1425 14.1526C12.1034 14.0785 12.0546 14.0141 11.996 13.9596C11.9373 13.9051 11.8777 13.8633 11.817 13.8343C11.7563 13.8054 11.6865 13.7825 11.6077 13.7657C11.5288 13.7489 11.4587 13.7381 11.3973 13.7335C11.3358 13.7289 11.2661 13.7266 11.1879 13.7266C11.008 13.7266 10.8534 13.7498 10.7243 13.7961C10.5953 13.8425 10.4927 13.9104 10.4166 13.9997C10.3406 14.089 10.2848 14.193 10.2492 14.3118C10.2136 14.4307 10.1958 14.5684 10.1958 14.7249V15.234C10.1958 15.3332 10.2926 15.4136 10.412 15.4136H13.7473C13.8667 15.4136 13.9636 15.3332 13.9636 15.2339V14.9602C13.9636 14.8609 13.8668 14.7805 13.7474 14.7805H12.2283V14.6762L13.7995 14.3518ZM11.7635 14.7805H10.7547V14.57C10.7547 14.526 10.7732 14.4886 10.8101 14.4579C10.8471 14.4272 10.8946 14.4051 10.9524 14.3918C11.0104 14.3785 11.063 14.3692 11.1105 14.364C11.1579 14.3588 11.2039 14.3561 11.2486 14.3561C11.2933 14.3561 11.3408 14.3593 11.391 14.3657C11.4412 14.3721 11.4963 14.3831 11.5563 14.3987C11.6163 14.4144 11.6659 14.4396 11.7049 14.4744C11.744 14.5092 11.7635 14.551 11.7635 14.5997V14.7805Z" fill="black" fill-opacity="0.3"/>
<path d="M13.8201 12.1192C13.9034 12.1059 13.9636 12.0454 13.9636 11.975V11.6538C13.9636 11.5602 13.8596 11.4905 13.7496 11.5102L10.3353 12.1217C10.2539 12.1363 10.1958 12.1961 10.1958 12.2653V12.5882C10.1958 12.6574 10.2539 12.7171 10.3352 12.7318L13.7495 13.3448C13.8595 13.3646 13.9635 13.2949 13.9636 13.2014V12.8781C13.9636 12.807 13.9025 12.7462 13.8184 12.7335L13.1577 12.6337V12.225L13.8201 12.1192ZM12.6888 12.5902L11.2905 12.425L12.6888 12.2667V12.5902Z" fill="black" fill-opacity="0.3"/>
<path d="M13.8335 10.5519L11.2969 10.5387L13.8551 10.17C13.9179 10.1609 13.9637 10.1157 13.9637 10.0627V9.77442C13.9637 9.72089 13.9169 9.67528 13.8533 9.66694C13.5781 9.6308 13.1732 9.57469 12.6386 9.49861C12.0274 9.41166 11.5858 9.35077 11.3136 9.31598L13.8335 9.30277C13.9054 9.30239 13.9636 9.25373 13.9636 9.19392V8.94478C13.9636 8.88464 13.9049 8.83594 13.8326 8.83594H10.3268C10.2544 8.83594 10.1958 8.88469 10.1958 8.94478V9.47653C10.1958 9.5295 10.2417 9.57478 10.3045 9.58378L12.7077 9.92822L10.3061 10.2475C10.2426 10.2559 10.1958 10.3014 10.1958 10.3549V10.9116C10.1958 10.9718 10.2545 11.0205 10.3268 11.0205H13.8326C13.9049 11.0205 13.9636 10.9718 13.9637 10.9116V10.6607C13.9637 10.6009 13.9055 10.5523 13.8335 10.5519Z" fill="black" fill-opacity="0.3"/>
</svg>
