<svg width="60" height="60" viewBox="0 0 60 60" fill="none" xmlns="http://www.w3.org/2000/svg">
<path d="M34.6875 30V37.5C34.6875 40.0875 27.975 42.1875 19.6875 42.1875C11.4 42.1875 4.6875 40.0875 4.6875 37.5V30C4.6875 32.5875 11.4 34.6875 19.6875 34.6875C26.4 34.6875 32.0812 33.3094 33.9937 31.4156C34.1976 31.2376 34.364 31.0207 34.4831 30.7776C34.6022 30.5346 34.6717 30.2702 34.6875 30Z" fill="#0087FF"/>
<path d="M28.0125 26.4C25.2711 26.942 22.4819 27.2058 19.6875 27.1875C11.4 27.1875 4.6875 25.0875 4.6875 22.5V30C4.6875 32.5875 11.4 34.6875 19.6875 34.6875C26.4 34.6875 32.0812 33.3094 33.9937 31.4156C34.1976 31.2376 34.364 31.0207 34.4831 30.7776C34.6022 30.5346 34.6717 30.2702 34.6875 30V22.5C34.6875 24.1219 32.0344 25.5562 28.0125 26.4Z" fill="#006DF0"/>
<path d="M32.6813 20.1563C30.3614 19.0703 27.8719 18.3917 25.3219 18.1501C23.4524 17.9223 21.5708 17.8096 19.6875 17.8126C11.4 17.8126 4.6875 19.9126 4.6875 22.5001C4.6875 25.0876 11.4 27.1876 19.6875 27.1876C22.4819 27.2059 25.2711 26.942 28.0125 26.4001C32.0344 25.5563 34.6875 24.1219 34.6875 22.5001C34.6875 21.6469 33.9563 20.8501 32.6813 20.1563Z" fill="#0087FF"/>
<path d="M55.3125 17.8125C55.3125 21.7907 53.7321 25.6061 50.9191 28.4191C48.1061 31.2321 44.2907 32.8125 40.3125 32.8125C38.3839 32.8174 36.473 32.4448 34.6875 31.7156C34.4506 31.6293 34.2189 31.5291 33.9937 31.4156C31.4519 30.2372 29.2917 28.3693 27.7587 26.0243C26.2257 23.6792 25.3815 20.951 25.3219 18.15C25.3125 18.0375 25.3125 17.925 25.3125 17.8125C25.3125 13.8343 26.8929 10.0189 29.7059 7.2059C32.5189 4.39285 36.3343 2.8125 40.3125 2.8125C44.2907 2.8125 48.1061 4.39285 50.9191 7.2059C53.7321 10.0189 55.3125 13.8343 55.3125 17.8125Z" fill="#FFD422"/>
<path d="M47.8125 10.3125L51.5625 15.9375H44.0625L47.8125 10.3125Z" fill="#EE8700"/>
<path d="M51.5625 15.9375L40.3125 29.0625L44.0625 15.9375H51.5625ZM47.8125 10.3125L44.0625 15.9375L40.3125 10.3125H47.8125Z" fill="#FF9811"/>
<path d="M40.3125 10.3125L44.0625 15.9375H36.5625L40.3125 10.3125Z" fill="#EE8700"/>
<path d="M44.0625 15.9375L40.3125 29.0625L36.5625 15.9375H44.0625Z" fill="#FFA733"/>
<path d="M40.3125 10.3125L36.5625 15.9375L32.8125 10.3125H40.3125Z" fill="#FF9811"/>
<path d="M32.8125 10.3125L36.5625 15.9375H29.0625L32.8125 10.3125Z" fill="#EE8700"/>
<path d="M34.6875 45V52.5C34.6875 55.0875 27.975 57.1875 19.6875 57.1875C11.4 57.1875 4.6875 55.0875 4.6875 52.5V45C4.6875 47.5875 11.4 49.6875 19.6875 49.6875C27.975 49.6875 34.6875 47.5875 34.6875 45Z" fill="#0087FF"/>
<path d="M34.6875 37.5V45C34.6875 47.5875 27.975 49.6875 19.6875 49.6875C11.4 49.6875 4.6875 47.5875 4.6875 45V37.5C4.6875 40.0875 11.4 42.1875 19.6875 42.1875C27.975 42.1875 34.6875 40.0875 34.6875 37.5Z" fill="#006DF0"/>
<path d="M40.3125 29.0625L34.6875 22.5L32.6813 20.1562L29.0625 15.9375H36.5625L40.3125 29.0625Z" fill="#FF9811"/>
<path d="M7.5 28.125H9.375V30H7.5V28.125ZM11.25 29.0625H13.125V30.9375H11.25V29.0625ZM15 30H16.875V31.875H15V30Z" fill="white"/>
<path d="M7.5 35.625H9.375V37.5H7.5V35.625ZM11.25 36.5625H13.125V38.4375H11.25V36.5625ZM15 37.5H16.875V39.375H15V37.5Z" fill="white"/>
<path d="M7.5 43.125H9.375V45H7.5V43.125ZM11.25 44.0625H13.125V45.9375H11.25V44.0625ZM15 45H16.875V46.875H15V45Z" fill="white"/>
<path d="M7.5 50.625H9.375V52.5H7.5V50.625ZM11.25 51.5625H13.125V53.4375H11.25V51.5625ZM15 52.5H16.875V54.375H15V52.5ZM14.0625 21.5625H25.3125V23.4375H14.0625V21.5625Z" fill="white"/>
</svg>
