<svg width="41" height="41" viewBox="0 0 41 41" fill="none" xmlns="http://www.w3.org/2000/svg">
<path d="M9.89665 41H7.77596C6.60472 41 5.65527 40.0505 5.65527 38.8793V2.12069C5.65527 0.94945 6.60472 0 7.77596 0H37.4656C38.6369 0 39.5863 0.94945 39.5863 2.12069V38.8793C39.5863 40.0505 38.6369 41 37.4656 41H9.89665Z" fill="#E6E6E6"/>
<path d="M7.77596 0H37.4656C38.6369 0 39.5863 0.94945 39.5863 2.12069V5.65517H5.65527V2.12069C5.65527 0.94945 6.60472 0 7.77596 0Z" fill="#0087FF"/>
<path d="M7.77588 2.12109H9.18967V3.53489H7.77588V2.12109Z" fill="#DA4836"/>
<path d="M10.6035 2.12109H12.0173V3.53489H10.6035V2.12109Z" fill="#F8CF26"/>
<path d="M13.4312 2.12109H14.8449V3.53489H13.4312V2.12109Z" fill="#3DBF50"/>
<path d="M1.41357 15.5518H21.2067V28.2759H1.41357V15.5518Z" fill="#0087FF"/>
<path d="M8.48291 11.3096H21.9139V12.7234H8.48291V11.3096Z" fill="#999999"/>
<path d="M11.3105 8.48242H21.914V9.89621H11.3105V8.48242Z" fill="#999999"/>
<path d="M8.48291 8.48242H9.8967V9.89621H8.48291V8.48242Z" fill="#999999"/>
<path d="M26.1553 27.5684H36.7587V28.9822H26.1553V27.5684Z" fill="#999999"/>
<path d="M23.3276 27.5684H24.7414V28.9822H23.3276V27.5684Z" fill="#999999"/>
<path d="M8.05864 24.6L5.23105 22.4793C4.91869 22.245 4.85543 21.802 5.08967 21.4896C5.12988 21.4361 5.17751 21.3884 5.23105 21.3482L8.05864 19.2275L8.90692 20.3586L6.83359 21.9137L8.90692 23.4689L8.05864 24.6Z" fill="#F2F2F2"/>
<path d="M14.5621 24.6L13.7139 23.4689L15.7872 21.9137L13.7139 20.3586L14.5621 19.2275L17.3897 21.3482C17.7021 21.5825 17.7654 22.0255 17.5311 22.3379C17.4909 22.3914 17.4433 22.4391 17.3897 22.4793L14.5621 24.6Z" fill="#F2F2F2"/>
<path d="M9.23975 25.1846L12.068 18.1162L13.3812 18.6417L10.553 25.7101L9.23975 25.1846Z" fill="#F2F2F2"/>
<path d="M27.5688 21.9138V19.7373C24.8639 18.1757 23.9372 14.717 25.4988 12.0122C27.0604 9.3073 30.5191 8.38056 33.224 9.94218C35.9288 11.5038 36.8556 14.9625 35.2939 17.6673C34.7976 18.527 34.0837 19.2409 33.224 19.7373V21.9138H27.5688Z" fill="#FCBF29"/>
<path d="M27.5688 21.9141H33.224V24.7416H27.5688V21.9141Z" fill="#0087FF"/>
<path opacity="0.5" d="M28.276 18.3798C31.3965 18.3824 33.9284 15.8549 33.931 12.7343C33.9318 11.7515 33.6763 10.7855 33.1896 9.93164C35.903 11.4698 36.8557 14.9162 35.3176 17.6296C34.8205 18.5065 34.0977 19.2344 33.2243 19.7377V21.9142H27.5691V19.7377C26.7028 19.2341 25.9847 18.5109 25.4873 17.6411C26.3368 18.1255 27.298 18.3801 28.276 18.3798Z" fill="#F28D01"/>
<path d="M30.3965 21.9141V16.9658" stroke="white" stroke-width="2" stroke-linejoin="round"/>
<path d="M32.5173 14.8447L30.3966 16.9654L28.2759 14.8447" stroke="white" stroke-width="2" stroke-linejoin="round"/>
<path d="M25.4482 21.207H35.3448V22.6208H25.4482V21.207Z" fill="#8C6239"/>
<path d="M30.3963 37.4657L36.0515 34.6381L30.3963 31.8105H1.41357V37.4657H30.3963Z" fill="#DA4836"/>
<path d="M5.65527 31.8105H8.48286V37.4657H5.65527V31.8105Z" fill="#F8CF26"/>
<path d="M1.41357 31.8105H5.65495V37.4657H1.41357V31.8105Z" fill="#0087FF"/>
<path d="M30.3965 31.8105L36.0517 34.6381L30.3965 37.4657V31.8105Z" fill="#0087FF"/>
<path d="M8.48291 34.6377H30.3967V37.4653H8.48291V34.6377Z" fill="#FCBF29"/>
</svg>
