<svg width="60" height="60" viewBox="0 0 60 60" fill="none" xmlns="http://www.w3.org/2000/svg">
<path d="M50.8562 60H1.17188C0.524648 60 0 59.4754 0 58.8281V1.17188C0 0.524648 0.524648 0 1.17188 0H50.8562C51.5034 0 52.0281 0.524648 52.0281 1.17188V58.8281C52.0281 59.4754 51.5034 60 50.8562 60Z" fill="#0087FF"/>
<path d="M50.8113 0H45.639V55.3052C45.639 55.9772 45.0943 56.5219 44.4223 56.5219H0V58.7832C0 59.4553 0.544688 60 1.21676 60H50.8113C51.4833 60 52.0281 59.4553 52.0281 58.7832V1.21676C52.0281 0.544688 51.4833 0 50.8113 0Z" fill="#004FAC"/>
<path d="M46.418 16.8806H5.61328C4.96605 16.8806 4.44141 16.3561 4.44141 15.7087V4.28223C4.44141 3.635 4.96605 3.11035 5.61328 3.11035H46.418C47.0648 3.11035 47.5898 3.635 47.5898 4.28223V15.709C47.5898 16.3562 47.0648 16.8809 46.418 16.8809V16.8806ZM46.418 33.0631H5.61328C4.96605 33.0631 4.44141 32.5385 4.44141 31.8912V20.4646C4.44141 19.8172 4.96605 19.2927 5.61328 19.2927H46.418C47.0648 19.2927 47.5898 19.8172 47.5898 20.4646V31.8913C47.5898 32.5385 47.0648 33.0631 46.418 33.0631ZM46.418 49.2455H5.61328C4.96605 49.2455 4.44141 48.721 4.44141 48.0737V36.6467C4.44141 35.9993 4.96605 35.4748 5.61328 35.4748H46.418C47.0648 35.4748 47.5898 35.9993 47.5898 36.6467V48.0738C47.5898 48.7211 47.0648 49.2455 46.418 49.2455Z" fill="#066BC6"/>
<path d="M46.3727 3.11035H42.3237V13.8815C42.3237 14.5535 41.7785 15.0983 41.107 15.0983H4.44141V15.6641C4.44141 16.336 4.98633 16.8808 5.65828 16.8808H46.3727C47.0447 16.8808 47.5898 16.336 47.5898 15.6641V4.32711C47.5898 3.65504 47.0452 3.11035 46.3726 3.11035H46.3727ZM46.3727 19.2928H42.3237V30.0639C42.3237 30.7354 41.7785 31.2807 41.107 31.2807H4.44141V31.8465C4.44141 32.5184 4.98633 33.0632 5.65828 33.0632H46.3727C47.0447 33.0632 47.5898 32.5184 47.5898 31.8465V20.5095C47.5898 19.8375 47.0452 19.2928 46.3726 19.2928H46.3727ZM46.3727 35.4747H42.3237V46.2459C42.3237 46.9179 41.7785 47.4627 41.107 47.4627H4.44141V48.0289C4.44141 48.7004 4.98633 49.2455 5.65828 49.2455H46.3727C47.0447 49.2455 47.5898 48.7004 47.5898 48.0289V36.6915C47.5898 36.0194 47.0452 35.4747 46.3726 35.4747H46.3727Z" fill="#0571F9"/>
<rect x="8" y="39" width="32" height="4" rx="2" fill="white"/>
<path d="M54.9664 53.6978H24.1992C23.4224 53.6978 22.793 53.0684 22.793 52.2915V31.8349C22.793 31.0416 23.4357 30.3984 24.229 30.3984H54.9664C55.7434 30.3984 56.3727 31.0283 56.3727 31.8047V52.2914C56.3727 53.0684 55.7434 53.6977 54.9664 53.6977V53.6978Z" fill="#FFE046"/>
<path d="M54.9124 30.3984H50.4694V49.7693C50.4694 50.7118 49.705 51.4764 48.762 51.4764H22.793V52.2381C22.793 53.0442 23.4466 53.6979 24.2528 53.6979H54.9129C55.7191 53.6979 56.3727 53.0442 56.3727 52.2381V31.8587C56.3727 31.0521 55.719 30.3986 54.9125 30.3986L54.9124 30.3984Z" fill="#EEC707"/>
<path d="M56.3727 31.8047C56.3727 31.0283 55.7434 30.3984 54.9664 30.3984H24.229C23.4356 30.3984 22.793 31.0417 22.793 31.8349V31.9975L38.5273 45.0213C38.8242 45.267 39.1975 45.4014 39.5829 45.4014C39.9683 45.4014 40.3416 45.267 40.6385 45.0213L56.3726 31.9975L56.3727 31.8047Z" fill="#EEC707"/>
<path d="M54.9645 30.3984H51.5156L36.1875 43.0863L38.5248 45.0213C38.8218 45.267 39.1952 45.4014 39.5807 45.4014C39.9661 45.4014 40.3395 45.267 40.6365 45.0213L56.3706 31.9975V31.8047C56.3706 31.0283 55.7413 30.3984 54.9643 30.3984H54.9645Z" fill="#FBA72D"/>
<path d="M53.692 50.7755C53.692 54.0797 51.0131 56.758 47.709 56.758C44.4053 56.758 41.7266 54.0797 41.7266 50.7756C41.7266 47.4715 44.4053 44.793 47.709 44.793C51.0131 44.793 53.692 47.4714 53.692 50.7755Z" fill="#F2F2F2"/>
<path d="M50.2062 45.3369C51.5979 46.4324 52.4919 48.132 52.4919 50.0408C52.4919 53.345 49.813 56.0234 46.5089 56.0234C45.6468 56.0244 44.7949 55.8384 44.0117 55.4782C45.0649 56.3086 46.3675 56.7592 47.7086 56.7572C51.0127 56.7572 53.6916 54.0789 53.6916 50.7748C53.6916 48.3622 52.2634 46.2831 50.2062 45.3369Z" fill="#DCDCE2"/>
<path d="M46.7922 53.2767H46.7909C46.6708 53.2766 46.5519 53.2527 46.441 53.2065C46.3301 53.1602 46.2295 53.0925 46.145 53.0072L43.9523 50.7984C43.5975 50.4409 43.5993 49.8627 43.9573 49.508C44.0423 49.4235 44.1432 49.3566 44.2541 49.3112C44.365 49.2657 44.4837 49.2426 44.6036 49.243C44.7234 49.2435 44.842 49.2676 44.9525 49.3139C45.0631 49.3602 45.1634 49.4279 45.2478 49.513L46.795 51.0712L52.246 45.6197C52.4172 45.4486 52.6494 45.3525 52.8914 45.3525C53.1335 45.3525 53.3657 45.4486 53.5369 45.6197C53.708 45.7909 53.8041 46.0231 53.8041 46.2652C53.8041 46.5072 53.708 46.7394 53.5369 46.9106L47.4377 53.0094C47.3529 53.0942 47.2523 53.1614 47.1415 53.2073C47.0308 53.2531 46.9121 53.2767 46.7922 53.2767Z" fill="#0087FF"/>
<path d="M13.3892 8C13.3703 7.76326 13.2815 7.5786 13.1229 7.44602C12.9666 7.31345 12.7287 7.24716 12.4091 7.24716C12.2055 7.24716 12.0386 7.27202 11.9084 7.32173C11.7805 7.36908 11.6858 7.43419 11.6243 7.51705C11.5627 7.59991 11.5308 7.6946 11.5284 7.80114C11.5237 7.88873 11.5391 7.96804 11.5746 8.03906C11.6125 8.10772 11.6716 8.17045 11.7521 8.22727C11.8326 8.28172 11.9356 8.33144 12.0611 8.37642C12.1866 8.4214 12.3357 8.46165 12.5085 8.49716L13.1051 8.625C13.5076 8.71023 13.852 8.82268 14.1385 8.96236C14.425 9.10204 14.6593 9.26657 14.8416 9.45597C15.0239 9.64299 15.1577 9.85369 15.2429 10.0881C15.3305 10.3224 15.3755 10.5781 15.3778 10.8551C15.3755 11.3333 15.2559 11.7382 15.0192 12.0696C14.7824 12.401 14.4439 12.6532 14.0036 12.826C13.5656 12.9988 13.0388 13.0852 12.4233 13.0852C11.7912 13.0852 11.2396 12.9917 10.7685 12.8047C10.2997 12.6177 9.93513 12.33 9.67472 11.9418C9.41667 11.5511 9.28646 11.0516 9.28409 10.4432H11.1591C11.1709 10.6657 11.2266 10.8527 11.326 11.0043C11.4254 11.1558 11.5651 11.2706 11.745 11.3487C11.9273 11.4268 12.1439 11.4659 12.3949 11.4659C12.6056 11.4659 12.782 11.4399 12.924 11.3878C13.0661 11.3357 13.1738 11.2635 13.2472 11.1712C13.3205 11.0788 13.3584 10.9735 13.3608 10.8551C13.3584 10.7438 13.3217 10.6468 13.2507 10.5639C13.1821 10.4787 13.0684 10.4029 12.9098 10.3366C12.7512 10.268 12.5369 10.2041 12.267 10.1449L11.5426 9.98864C10.8987 9.84896 10.3909 9.61577 10.0192 9.28906C9.64986 8.95999 9.46638 8.51136 9.46875 7.94318C9.46638 7.48153 9.58949 7.07789 9.83807 6.73224C10.089 6.38423 10.4358 6.11316 10.8786 5.91903C11.3236 5.72491 11.8338 5.62784 12.4091 5.62784C12.9962 5.62784 13.504 5.72609 13.9325 5.92259C14.361 6.11908 14.6913 6.39607 14.9233 6.75355C15.1577 7.10866 15.276 7.52415 15.2784 8H13.3892ZM16.1289 5.72727H18.5863L20.2766 9.84659H20.3619L22.0522 5.72727H24.5096V13H22.5778V8.79545H22.521L20.9016 12.9432H19.7369L18.1175 8.76705H18.0607V13H16.1289V5.72727ZM25.2464 7.31818V5.72727H31.5675V7.31818H29.38V13H27.4339V7.31818H25.2464ZM32.3105 13V5.72727H35.4498C35.9895 5.72727 36.4618 5.83381 36.8667 6.04688C37.2715 6.25994 37.5864 6.55942 37.8113 6.94531C38.0362 7.3312 38.1486 7.7822 38.1486 8.2983C38.1486 8.81913 38.0326 9.27012 37.8006 9.65128C37.571 10.0324 37.2478 10.326 36.8311 10.532C36.4168 10.7379 35.9327 10.8409 35.3787 10.8409H33.5037V9.30682H34.981C35.213 9.30682 35.4107 9.26657 35.574 9.18608C35.7398 9.10322 35.8664 8.98603 35.954 8.83452C36.044 8.683 36.089 8.50426 36.089 8.2983C36.089 8.08996 36.044 7.91241 35.954 7.76562C35.8664 7.61648 35.7398 7.50284 35.574 7.42472C35.4107 7.34422 35.213 7.30398 34.981 7.30398H34.285V13H32.3105Z" fill="white"/>
<rect x="8" y="23" width="32" height="4" rx="2" fill="white"/>
</svg>
