<svg width="56" height="65" viewBox="0 0 56 65" fill="none" xmlns="http://www.w3.org/2000/svg">
<path d="M51.5339 58.2455H47.1895V56.4111H51.5339C52.8725 56.4111 53.9613 55.3816 53.9613 54.1164V35.0305C53.9613 33.7652 52.8723 32.7358 51.5339 32.7358H39.7852V30.9014H51.5339C53.9424 30.9014 55.9019 32.7537 55.9019 35.0305V54.1164C55.9019 56.3933 53.9424 58.2455 51.5339 58.2455Z" fill="#2488FF"/>
<path fill-rule="evenodd" clip-rule="evenodd" d="M47.8984 55.5537H49.5914C50.5223 55.5537 51.2804 56.274 51.2804 57.1541V57.5031C51.2804 58.3831 50.5223 59.0998 49.5914 59.0998H47.8984V55.5537Z" fill="#0CB4FB"/>
<path fill-rule="evenodd" clip-rule="evenodd" d="M38.6782 14.4626C38.6782 13.8684 38.0262 13.3857 37.2327 13.3857H14.2931C13.4956 13.3857 12.8477 13.8684 12.8477 14.4626V31.0198C12.8477 31.6102 13.4958 32.0929 14.2931 32.0929H37.2327C38.0261 32.0929 38.6782 31.6102 38.6782 31.0198V14.4626Z" fill="#E9E9FF"/>
<path fill-rule="evenodd" clip-rule="evenodd" d="M17.5808 13.3857H14.2931C13.4956 13.3857 12.8477 13.8684 12.8477 14.4626V31.0198C12.8477 31.6102 13.4958 32.0929 14.2931 32.0929H37.2327C38.0261 32.0929 38.6782 31.6102 38.6782 31.0198V16.4269H20.8803C20.02 16.4269 19.2776 16.0295 18.8299 15.3316L17.5808 13.3857Z" fill="#CFCFFF"/>
<path fill-rule="evenodd" clip-rule="evenodd" d="M41.9197 4.34814C43.2204 4.99901 44.3956 5.85264 45.3959 6.87312L48.1769 5.35437C49.4316 6.75549 50.4107 8.35766 51.0679 10.085L48.283 11.6038C48.721 12.9317 48.9149 14.3207 48.8565 15.7106L51.9636 16.4978C51.8811 17.3964 51.72 18.2988 51.4647 19.201C51.2131 20.0849 50.8793 20.946 50.467 21.7742L47.3639 20.9907C46.6754 22.2203 45.7724 23.3313 44.6929 24.2769L46.2995 26.9058C44.8173 28.0918 43.1225 29.0174 41.2952 29.6387L39.6886 27.0061C38.2837 27.4195 36.8146 27.6041 35.3443 27.552L34.5115 30.4854C33.5609 30.4074 32.6064 30.2552 31.6519 30.0139C30.7169 29.7761 29.806 29.4605 28.9299 29.0707L29.7587 26.1372C28.458 25.4864 27.2827 24.6328 26.2825 23.6123L23.5015 25.131C22.2468 23.7299 21.2677 22.1277 20.6105 20.4004L23.3954 18.8816C22.9575 17.5537 22.7635 16.1647 22.8219 14.7748L19.7148 13.9876C19.7973 13.089 19.9585 12.1866 20.2138 11.2844C20.4653 10.4005 20.7992 9.53935 21.2114 8.71114L24.3145 9.4947C25.003 8.26508 25.906 7.15409 26.9855 6.20852L25.3789 3.57957C26.8611 2.39358 28.556 1.468 30.3832 0.84665L31.9898 3.47928C33.3945 3.0653 34.8639 2.88194 36.3342 2.93719L37.1668 0C38.1328 0.0791974 39.0897 0.238243 40.0264 0.475313C40.9613 0.711796 41.8722 1.02618 42.7484 1.41477L41.9197 4.34814ZM37.6106 8.986C41.2675 9.91428 43.4359 13.4641 42.4578 16.9174C41.4758 20.3745 37.7206 22.4241 34.0676 21.4995C30.4106 20.5712 28.2424 17.0214 29.2205 13.5681C30.2025 10.1112 33.9575 8.0614 37.6106 8.986Z" fill="#2488FF"/>
<path fill-rule="evenodd" clip-rule="evenodd" d="M42.17 29.3125C41.8794 29.4276 41.5886 29.5389 41.2941 29.6392L39.6875 27.0066C38.2826 27.42 36.8135 27.6046 35.3432 27.5525L34.5104 30.4859C33.5598 30.4079 32.6053 30.2557 31.6508 30.0144C30.7158 29.7766 29.8049 29.461 28.9288 29.0713L29.7576 26.1377C28.4569 25.4869 27.2816 24.6333 26.2814 23.6128L23.5004 25.1315C22.2457 23.7304 21.2666 22.1282 20.6094 20.4009L23.3943 18.8821C23.1298 18.0833 22.9534 17.2608 22.868 16.4277H29.1017C29.5692 18.8005 31.431 20.8316 34.0667 21.5C37.3505 22.3318 40.7129 20.7612 42.0758 17.9241C42.1348 18.1172 42.1701 18.3215 42.1701 18.5331V29.3125H42.17Z" fill="#0A92CB"/>
<path fill-rule="evenodd" clip-rule="evenodd" d="M19.47 17.6822H38.5287C39.7542 17.6822 40.7559 18.6329 40.7559 19.7913V42.1598C40.7559 43.3184 39.7542 44.2652 38.5287 44.2652H3.12952C1.90393 44.2652 0.902344 43.3183 0.902344 42.1598V14.5445C0.902344 13.1335 2.12001 11.9824 3.61271 11.9824H13.3503C13.9749 11.9824 14.5798 12.1755 14.9058 12.6769L17.4158 16.5906C17.8634 17.2886 18.6058 17.6822 19.47 17.6822Z" fill="#FDB43A"/>
<path d="M17.6472 26.9808L13.4128 30.9836L17.6472 34.9863L16.2751 36.2834L11.3546 31.6322C11.2645 31.5471 11.193 31.4459 11.1442 31.3346C11.0954 31.2234 11.0703 31.1041 11.0703 30.9836C11.0703 30.8632 11.0954 30.7439 11.1442 30.6326C11.193 30.5213 11.2645 30.4202 11.3546 30.335L16.2751 25.6837L17.6472 26.9808ZM30.3006 30.3163L25.3801 25.6652L24.008 26.9622L28.2423 30.965L24.008 34.9678L25.3801 36.2649L30.3006 31.6136C30.4824 31.4415 30.5845 31.2082 30.5845 30.965C30.5845 30.7217 30.4824 30.4884 30.3006 30.3163ZM17.8837 38.1341L19.758 38.6085L23.7715 24.4383L21.8971 23.9639L17.8837 38.1341Z" fill="#E9E9FF"/>
<path fill-rule="evenodd" clip-rule="evenodd" d="M0.902344 49.6572H47.8969V65.0003H0.902344V49.6572Z" fill="#0087FF"/>
<path fill-rule="evenodd" clip-rule="evenodd" d="M27.3594 49.6572H38.786V53.493H27.3594V49.6572Z" fill="#0CB4FB"/>
<path d="M3.32812 52.5753H5.47284V54.4097H3.32812V52.5753ZM9.04338 54.4095H11.188V52.5752H9.04324L9.04338 54.4095ZM14.7586 54.4095H16.9032V52.5752H14.7585V54.4095H14.7586ZM20.4739 54.4095H22.6186V52.5752H20.4739V54.4095ZM43.331 52.5753V54.4097H45.4756V52.5753H43.331ZM3.32812 58.2453H5.47284V56.411H3.32812V58.2453ZM9.04338 58.2453H11.188V56.411H9.04324L9.04338 58.2453ZM14.7586 58.2453H16.9032V56.411H14.7585V58.2453H14.7586ZM20.4739 58.2453H22.6186V56.411H20.4739V58.2453ZM26.1852 58.2453H28.334V56.411H26.1854V58.2453H26.1852ZM31.9005 58.2453H34.0452V56.411H31.9005V58.2453ZM37.6157 58.2453H39.7603V56.411H37.6156V58.2453H37.6157ZM43.331 58.2453H45.4756V56.411H43.3309L43.331 58.2453ZM3.32812 62.0812H5.47284V60.2468H3.32812V62.0812ZM9.04338 62.0812H11.188V60.2468H9.04324L9.04338 62.0812ZM14.7586 62.0812H16.9032V60.2468H14.7585V62.0812H14.7586ZM20.4739 62.0812H22.6186V60.2468H20.4739V62.0812ZM26.1852 62.0812H28.334V60.2468H26.1854V62.0812H26.1852ZM31.9005 62.0812H34.0452V60.2468H31.9005V62.0812ZM37.6157 62.0812H39.7603V60.2468H37.6156V62.0812H37.6157ZM43.331 62.0812H45.4756V60.2468H43.3309L43.331 62.0812Z" fill="#E9E9FF"/>
<path fill-rule="evenodd" clip-rule="evenodd" d="M3.27093 42.1598V14.5445C3.27093 13.1335 4.48859 11.9824 5.9813 11.9824H3.61271C2.12001 11.9824 0.902344 13.1335 0.902344 14.5445V42.1597C0.902344 43.3183 1.90393 44.2651 3.12952 44.2651H5.4981C4.27251 44.2652 3.27093 43.3183 3.27093 42.1598Z" fill="#CC8922"/>
<path fill-rule="evenodd" clip-rule="evenodd" d="M0.902344 49.6572H2.38712V65.0003H0.902344V49.6572Z" fill="#0CB4FB"/>
</svg>
