<svg preserveAspectRatio="none" width="100%" height="100%" overflow="visible" style="display: block;" viewBox="0 0 44 32" fill="none" xmlns="http://www.w3.org/2000/svg">
<g id="artwork">
<g clip-path="url(#clip0_0_45)">
<rect width="44" height="32" rx="4" fill="var(--fill-0, white)"/>
<path id="vector" fill-rule="evenodd" clip-rule="evenodd" d="M0 0H18.8571V14.9333H0V0Z" fill="var(--fill-0, #1A47B8)"/>
<path id="vector_2" fill-rule="evenodd" clip-rule="evenodd" d="M18.8571 0V2.13333H44V0H18.8571ZM18.8571 4.26667V6.4H44V4.26667H18.8571ZM18.8571 8.53333V10.6667H44V8.53333H18.8571ZM18.8571 12.8V14.9333H44V12.8H18.8571ZM0 17.0667V19.2H44V17.0667H0ZM0 21.3333V23.4667H44V21.3333H0ZM0 25.6V27.7333H44V25.6H0ZM0 29.8667V32H44V29.8667H0Z" fill="var(--fill-0, #F93939)"/>
<path id="vector_3" fill-rule="evenodd" clip-rule="evenodd" d="M2.09524 2.13333V4.26667H4.19048V2.13333H2.09524ZM6.28571 2.13333V4.26667H8.38095V2.13333H6.28571ZM10.4762 2.13333V4.26667H12.5714V2.13333H10.4762ZM14.6667 2.13333V4.26667H16.7619V2.13333H14.6667ZM12.5714 4.26667V6.4H14.6667V4.26667H12.5714ZM8.38095 4.26667V6.4H10.4762V4.26667H8.38095ZM4.19048 4.26667V6.4H6.28571V4.26667H4.19048ZM2.09524 6.4V8.53333H4.19048V6.4H2.09524ZM6.28571 6.4V8.53333H8.38095V6.4H6.28571ZM10.4762 6.4V8.53333H12.5714V6.4H10.4762ZM14.6667 6.4V8.53333H16.7619V6.4H14.6667ZM2.09524 10.6667V12.8H4.19048V10.6667H2.09524ZM6.28571 10.6667V12.8H8.38095V10.6667H6.28571ZM10.4762 10.6667V12.8H12.5714V10.6667H10.4762ZM14.6667 10.6667V12.8H16.7619V10.6667H14.6667ZM12.5714 8.53333V10.6667H14.6667V8.53333H12.5714ZM8.38095 8.53333V10.6667H10.4762V8.53333H8.38095ZM4.19048 8.53333V10.6667H6.28571V8.53333H4.19048Z" fill="var(--fill-0, white)"/>
</g>
</g>
<defs>
<clipPath id="clip0_0_45">
<rect width="44" height="32" rx="4" fill="white"/>
</clipPath>
</defs>
</svg>
